<svg xmlns="http://www.w3.org/2000/svg" xmlns:xlink="http://www.w3.org/1999/xlink" width="295" height="261.022" viewBox="0 0 295 261.022">
  <defs>
    <clipPath id="clip-path">
      <rect id="Rectángulo_414631" data-name="Rectángulo 414631" width="295" height="258" transform="translate(390.461 1801)" fill="#fff" stroke="#707070" stroke-width="1" opacity="0.64"/>
    </clipPath>
  </defs>
  <g id="Grupo_1174620" data-name="Grupo 1174620" transform="translate(-390.461 -1801)">
    <g id="Enmascarar_grupo_1098797" data-name="Enmascarar grupo 1098797" clip-path="url(#clip-path)">
      <g id="Grupo_1174428" data-name="Grupo 1174428" transform="translate(-5 2)">
        <path id="Trazado_1029994" data-name="Trazado 1029994" d="M382.106,270.366c17.294,33.26,15.069,83.973-11.442,103.226C339,396.587,303.58,352.283,211.637,352.958c-67.41.495-96.112,24.663-125.142,3.612-22.811-16.54-32.136-51.075-24.064-76.965,17.24-55.286,111.377-63.325,139.944-65.763C229.124,211.558,346.325,201.552,382.106,270.366Z" transform="translate(556.318 1625.594) rotate(39)" fill="#cee29d" opacity="0.5"/>
        <g id="Grupo_1174427" data-name="Grupo 1174427" transform="translate(1234.461 -491)">
          <g id="Grupo_1173791" data-name="Grupo 1173791" transform="translate(-844.234 2305.321)">
            <g id="Grupo_1173610" data-name="Grupo 1173610" transform="translate(109.14 238.662)">
              <g id="Grupo_1173600" data-name="Grupo 1173600" transform="translate(6.656 19.203)">
                <path id="Trazado_1029995" data-name="Trazado 1029995" d="M156.38,243.269s34.245,130.883,32.66,182.437S142.122,645.05,142.122,645.05l-19.262,1.562s8.835-205.5,6.462-230.094c-1.139-11.8-45.025-157.37-45.025-157.37Z" transform="translate(-84.297 -243.269)" fill="#ffa07f"/>
              </g>
              <g id="Grupo_1173607" data-name="Grupo 1173607">
                <g id="Grupo_1173602" data-name="Grupo 1173602">
                  <g id="Grupo_1173601" data-name="Grupo 1173601">
                    <path id="Trazado_1029996" data-name="Trazado 1029996" d="M155.6,235.055s24.007,77.621,31.615,130.812l-70.255,16.04L81.45,261.159Z" transform="translate(-81.45 -235.055)" fill="#b4e7e9"/>
                  </g>
                </g>
                <g id="Grupo_1173604" data-name="Grupo 1173604" transform="translate(27.02 61.662)">
                  <g id="Grupo_1173603" data-name="Grupo 1173603">
                    <path id="Trazado_1029997" data-name="Trazado 1029997" d="M94.173,261.857a678.526,678.526,0,0,0,20.176,70.795c.25.725-.9,1.038-1.148.316a678.351,678.351,0,0,1-20.176-70.795c-.168-.746.977-1.064,1.148-.316Z" transform="translate(-93.008 -261.43)" fill="#6168bd"/>
                  </g>
                </g>
                <g id="Grupo_1173606" data-name="Grupo 1173606" transform="translate(29.992 118.134)">
                  <g id="Grupo_1173605" data-name="Grupo 1173605">
                    <path id="Trazado_1029998" data-name="Trazado 1029998" d="M170.051,285.586l3.233,15.07L97.407,317.311l-3.128-14.705Z" transform="translate(-94.279 -285.586)" fill="#6168bd"/>
                  </g>
                </g>
              </g>
              <g id="Grupo_1173609" data-name="Grupo 1173609" transform="translate(93.076 190.088)">
                <g id="Grupo_1173608" data-name="Grupo 1173608">
                  <path id="Trazado_1029999" data-name="Trazado 1029999" d="M139.094,318.482a19.919,19.919,0,0,1-17.148,1.227c-1.428-.552-.39-2.7,1.031-2.144a17.351,17.351,0,0,0,14.754-1.036c1.326-.743,2.7,1.2,1.363,1.952Z" transform="translate(-121.263 -316.364)" fill="#ff7d6f"/>
                </g>
              </g>
            </g>
            <g id="Grupo_1173621" data-name="Grupo 1173621" transform="translate(47.317 241.898)">
              <g id="Grupo_1173611" data-name="Grupo 1173611" transform="translate(0 29.597)">
                <path id="Trazado_1030000" data-name="Trazado 1030000" d="M142.576,266.722c7.974,54.322-7.675,109.76-16.07,156.77-2.095,11.724-50.493,219.957-50.493,219.957l-17.5-2.99s-11.6-180.024,7.362-229.376c8.758-22.8,8.844-161.983,8.844-161.983Z" transform="translate(-55.005 -249.099)" fill="#ffa07f"/>
              </g>
              <g id="Grupo_1173618" data-name="Grupo 1173618" transform="translate(7.548)">
                <g id="Grupo_1173614" data-name="Grupo 1173614" transform="translate(2.14)">
                  <g id="Grupo_1173613" data-name="Grupo 1173613">
                    <g id="Grupo_1173612" data-name="Grupo 1173612">
                      <path id="Trazado_1030001" data-name="Trazado 1030001" d="M148.983,252.406,136.228,380.848s-61.418-4.956-76.675-8.524c0,0-3.614-83.992,10.787-119.918S148.983,252.406,148.983,252.406Z" transform="translate(-59.149 -236.439)" fill="#b4e7e9"/>
                    </g>
                  </g>
                </g>
                <g id="Grupo_1173616" data-name="Grupo 1173616" transform="translate(17.419 19.38)">
                  <g id="Grupo_1173615" data-name="Grupo 1173615">
                    <path id="Trazado_1030002" data-name="Trazado 1030002" d="M72.369,245.3a778.422,778.422,0,0,0-5.443,82.723q-.144,11.737.07,23.472a.6.6,0,0,1-1.19,0,778.984,778.984,0,0,1,2.934-82.849q1.042-11.692,2.438-23.346c.089-.75,1.279-.76,1.19,0Z" transform="translate(-65.685 -244.729)" fill="#6168bd"/>
                  </g>
                </g>
                <g id="Grupo_1173617" data-name="Grupo 1173617" transform="translate(0 122.924)">
                  <path id="Trazado_1030003" data-name="Trazado 1030003" d="M140.454,296.409l-1.578,15.329-80.467-7.6-.175-15.119Z" transform="translate(-58.234 -289.019)" fill="#6168bd"/>
                </g>
              </g>
              <g id="Grupo_1173620" data-name="Grupo 1173620" transform="translate(52.613 203.978)">
                <g id="Grupo_1173619" data-name="Grupo 1173619">
                  <path id="Trazado_1030004" data-name="Trazado 1030004" d="M95.312,326.029a19.926,19.926,0,0,1-17.193-.154c-1.379-.666-.173-2.719,1.2-2.055a17.347,17.347,0,0,0,14.789.154c1.382-.636,2.593,1.414,1.2,2.055Z" transform="translate(-77.51 -323.689)" fill="#ff7d6f"/>
                </g>
              </g>
            </g>
            <g id="Grupo_1173622" data-name="Grupo 1173622" transform="translate(87.637 0)">
              <path id="Trazado_1030005" data-name="Trazado 1030005" d="M137.574,216.066H72.252A119.2,119.2,0,0,0,78.1,172.493c-1.033-19.28,6.088-29.326,12.533-34.336a25.458,25.458,0,0,1,15.97-5.185c41.371.512,36.66,25.719,33.41,43.526A163.458,163.458,0,0,0,137.574,216.066Z" transform="translate(-72.252 -132.969)" fill="#343737"/>
            </g>
            <g id="Grupo_1173623" data-name="Grupo 1173623" transform="translate(140.669 55.484)">
              <path id="Trazado_1030006" data-name="Trazado 1030006" d="M94.936,162.561a5.859,5.859,0,1,0,5.859-5.859A5.859,5.859,0,0,0,94.936,162.561Z" transform="translate(-94.936 -156.702)" fill="#fff"/>
            </g>
            <g id="Grupo_1173625" data-name="Grupo 1173625" transform="translate(87.616 199.007)">
              <g id="Grupo_1173624" data-name="Grupo 1173624">
                <path id="Trazado_1030007" data-name="Trazado 1030007" d="M74.988,218.093s-1.22,18.71-2.745,33.609c0,0,44.922,26.934,89.846-8.049l-8.872-24.964Z" transform="translate(-72.243 -218.093)" fill="#ffbc00"/>
              </g>
            </g>
            <g id="Grupo_1173682" data-name="Grupo 1173682" transform="translate(6.624 83.405)">
              <g id="Grupo_1173627" data-name="Grupo 1173627" transform="translate(50.785)">
                <g id="Grupo_1173626" data-name="Grupo 1173626">
                  <path id="Trazado_1030008" data-name="Trazado 1030008" d="M73.3,245.607c7.556,16.657,15.145,34.179,16.234,46.722.456,5.237,11.329,7.025,25.038,6.759,24.72-.482,58.654-7.654,57.212-13.349a165.593,165.593,0,0,1-4.5-26.422c-2.92-33.674,5.94-55.028.43-67.868-2.576-6-13.319-11.82-22.588-15.886-7.78-3.411-14.516-5.583-14.516-5.583l-24.583-1.335s-35.893,17.3-43.442,28.571C54.338,209.515,63.147,223.239,73.3,245.607Z" transform="translate(-59.322 -168.645)" fill="#ffbc00"/>
                </g>
              </g>
              <path id="Trazado_1030009" data-name="Trazado 1030009" d="M112.887,178.4s19.025,58.837,33.247,60.812c0,0,20.267-6.9,30.6-12.138,14.139-7.168,16.447-7.285,26.076,2.819s11.974,16.349,6.677,25.976S149.407,293.1,134.961,292.7,100.3,254.984,100.3,254.984Z" transform="translate(46.285 -155.597)" fill="#ffbc00"/>
              <g id="Grupo_1173628" data-name="Grupo 1173628" transform="translate(225.361 70.097)">
                <path id="Trazado_1030010" data-name="Trazado 1030010" d="M134.176,199.329a28.173,28.173,0,0,0,27.379,31.255.736.736,0,0,0,0-1.47,26.7,26.7,0,0,1-25.908-29.784c.105-.938-1.365-.931-1.471,0Z" transform="translate(-133.996 -198.628)" fill="#ec8b1e"/>
              </g>
              <g id="Grupo_1173648" data-name="Grupo 1173648" transform="translate(239.652 50.918)">
                <g id="Grupo_1173647" data-name="Grupo 1173647">
                  <g id="Grupo_1173631" data-name="Grupo 1173631">
                    <g id="Grupo_1173630" data-name="Grupo 1173630">
                      <g id="Grupo_1173629" data-name="Grupo 1173629">
                        <path id="Trazado_1030011" data-name="Trazado 1030011" d="M140.114,214.225s-.306-7.053,3.689-11.308,6.053-8.718,9.239-11.678,2.544,2.876,1.571,5.912-2.043,6.485.355,6.845,21.831-7.2,25.1-6.322.507,3.086.507,3.086,4.369-1.662,5.962,0-.842,3.528-.842,3.528,2.974-1.015,3.448,1.164-15.234,10.773-14.511,11.914,7.493-6.436,9.824-4.753-3.175,4.982-7.152,8.122a22.512,22.512,0,0,1-14.357,5.015c-5.174-.178-13.945,2.24-17.52-2.555A46.84,46.84,0,0,1,140.114,214.225Z" transform="translate(-140.109 -190.425)" fill="#ffa07f"/>
                      </g>
                    </g>
                  </g>
                  <g id="Grupo_1173635" data-name="Grupo 1173635" transform="translate(30.1 13.227)">
                    <g id="Grupo_1173634" data-name="Grupo 1173634">
                      <g id="Grupo_1173633" data-name="Grupo 1173633">
                        <g id="Grupo_1173632" data-name="Grupo 1173632">
                          <path id="Trazado_1030012" data-name="Trazado 1030012" d="M168.44,196.119q-7.76,3.016-15.233,6.534c-.587.276.105,1.157.685.884q7.347-3.458,15-6.431c.606-.236.161-1.225-.449-.987Z" transform="translate(-152.984 -196.082)" fill="#ff7d6f"/>
                        </g>
                      </g>
                    </g>
                  </g>
                  <g id="Grupo_1173639" data-name="Grupo 1173639" transform="translate(28.37 10.205)">
                    <g id="Grupo_1173638" data-name="Grupo 1173638">
                      <g id="Grupo_1173637" data-name="Grupo 1173637">
                        <g id="Grupo_1173636" data-name="Grupo 1173636">
                          <path id="Trazado_1030013" data-name="Trazado 1030013" d="M164.034,194.811a51.966,51.966,0,0,0-11.582,4.8c-.561.318.129,1.2.687.884a50.952,50.952,0,0,1,11.346-4.7c.636-.18.189-1.167-.451-.987Z" transform="translate(-152.244 -194.79)" fill="#ff7d6f"/>
                        </g>
                      </g>
                    </g>
                  </g>
                  <g id="Grupo_1173642" data-name="Grupo 1173642" transform="translate(25.432 12.374)">
                    <g id="Grupo_1173641" data-name="Grupo 1173641">
                      <g id="Grupo_1173640" data-name="Grupo 1173640">
                        <path id="Trazado_1030014" data-name="Trazado 1030014" d="M158.237,207.815a30.752,30.752,0,0,0-6.268-11.862c-.465-.552-1.312-.03-.846.524a29.53,29.53,0,0,1,6.041,11.362c.173.65,1.248.634,1.073-.023Z" transform="translate(-150.987 -195.717)" fill="#ff7d6f"/>
                      </g>
                    </g>
                  </g>
                  <g id="Grupo_1173646" data-name="Grupo 1173646" transform="translate(9.038 18.799)">
                    <g id="Grupo_1173645" data-name="Grupo 1173645">
                      <g id="Grupo_1173644" data-name="Grupo 1173644">
                        <g id="Grupo_1173643" data-name="Grupo 1173643">
                          <path id="Trazado_1030015" data-name="Trazado 1030015" d="M159.059,198.646c-6.775-.952-12.566,1.91-15.044,7.46-.255.573.762,1.071,1.019.5,2.289-5.127,7.652-7.841,13.927-6.96a.5.5,0,1,0,.1-1Z" transform="translate(-143.975 -198.466)" fill="#ff7d6f"/>
                        </g>
                      </g>
                    </g>
                  </g>
                </g>
              </g>
              <g id="Grupo_1173649" data-name="Grupo 1173649" transform="translate(168.483 124.439)">
                <path id="Trazado_1030016" data-name="Trazado 1030016" d="M110.932,227.659a15.734,15.734,0,0,1,24.11,2.943c.51.793,1.784.056,1.269-.741a17.227,17.227,0,0,0-26.418-3.24c-.692.648.348,1.686,1.038,1.038Z" transform="translate(-109.667 -221.873)" fill="#ec8b1e"/>
              </g>
              <g id="Grupo_1173650" data-name="Grupo 1173650" transform="translate(177.486 83.915)">
                <path id="Trazado_1030017" data-name="Trazado 1030017" d="M127.973,204.675a118.455,118.455,0,0,0-14.238,12c-.673.666.365,1.7,1.04,1.04a115.707,115.707,0,0,1,13.941-11.771c.762-.549.028-1.824-.743-1.272Z" transform="translate(-113.518 -204.539)" fill="#ec8b1e"/>
              </g>
              <g id="Grupo_1173651" data-name="Grupo 1173651" transform="translate(180.231 86.72)">
                <path id="Trazado_1030018" data-name="Trazado 1030018" d="M122.138,205.739a27.27,27.27,0,0,0-6.929,1.045.735.735,0,0,0,.39,1.417,25.7,25.7,0,0,1,6.539-.994.734.734,0,0,0,0-1.468Z" transform="translate(-114.692 -205.739)" fill="#ec8b1e"/>
              </g>
              <g id="Grupo_1173653" data-name="Grupo 1173653" transform="translate(161.115 30.254)">
                <g id="Grupo_1173652" data-name="Grupo 1173652">
                  <path id="Trazado_1030019" data-name="Trazado 1030019" d="M107.705,182.159a67.61,67.61,0,0,0,7.762,30.123c.355.678-.671,1.279-1.026.6a68.961,68.961,0,0,1-7.925-30.724.6.6,0,0,1,1.19,0Z" transform="translate(-106.515 -181.586)" fill="#ec8b1e"/>
                </g>
              </g>
              <g id="Grupo_1173655" data-name="Grupo 1173655" transform="translate(98.367 30.676)">
                <g id="Grupo_1173654" data-name="Grupo 1173654">
                  <path id="Trazado_1030020" data-name="Trazado 1030020" d="M119.377,188.379a47.861,47.861,0,0,1-39.426-5.489c-.643-.411-.047-1.443.6-1.026a46.68,46.68,0,0,0,38.509,5.37c.734-.224,1.047.923.316,1.146Z" transform="translate(-79.675 -181.766)" fill="#ec8b1e"/>
                </g>
              </g>
              <g id="Grupo_1173658" data-name="Grupo 1173658" transform="translate(109.523 94.778)">
                <g id="Grupo_1173657" data-name="Grupo 1173657">
                  <g id="Grupo_1173656" data-name="Grupo 1173656">
                    <path id="Trazado_1030021" data-name="Trazado 1030021" d="M133.207,210.417a81.542,81.542,0,0,1-48.321,2.632.617.617,0,0,1,.327-1.19,80.356,80.356,0,0,0,47.667-2.632c.743-.276,1.064.916.327,1.19Z" transform="translate(-84.447 -209.185)" fill="#ec8b1e"/>
                  </g>
                </g>
              </g>
              <g id="Grupo_1173666" data-name="Grupo 1173666" transform="translate(0 21.969)">
                <g id="Grupo_1173665" data-name="Grupo 1173665">
                  <g id="Grupo_1173664" data-name="Grupo 1173664">
                    <path id="Trazado_1030022" data-name="Trazado 1030022" d="M68.671,198.356a127.164,127.164,0,0,1,18.076,53.39c.082.788-1.153.783-1.234,0a125.788,125.788,0,0,0-17.908-52.768c-.416-.678.65-1.3,1.066-.622Z" transform="translate(2.418 -151.256)" fill="#ec8b1e"/>
                    <path id="Trazado_1030023" data-name="Trazado 1030023" d="M97.962,178.876S46.641,216.852,38.7,235.408s29.235,74.04,49.284,79.157,36.538-23.28,26.128-35.442-20.51-25.1-20.51-25.1,22.221-13.719,25.017-18.612C128.466,218.169,107.578,171.234,97.962,178.876Z" transform="translate(-37.599 -178.042)" fill="#ffbc00"/>
                    <g id="Grupo_1173659" data-name="Grupo 1173659" transform="translate(38.253 95.191)">
                      <path id="Trazado_1030024" data-name="Trazado 1030024" d="M88.6,219.895A26.71,26.71,0,0,0,54.82,252.435a.735.735,0,0,0,1.417-.39,25.243,25.243,0,0,1,31.975-30.733.735.735,0,0,0,.39-1.417Z" transform="translate(-53.962 -218.759)" fill="#ec8b1e"/>
                    </g>
                    <g id="Grupo_1173660" data-name="Grupo 1173660" transform="translate(1.853 47.3)">
                      <path id="Trazado_1030025" data-name="Trazado 1030025" d="M43.856,199.37A19.435,19.435,0,0,1,38.708,225c-.753.556-.021,1.833.741,1.269a20.935,20.935,0,0,0,5.674-27.643.734.734,0,0,0-1.267.741Z" transform="translate(-38.392 -198.274)" fill="#ec8b1e"/>
                    </g>
                    <g id="Grupo_1173661" data-name="Grupo 1173661" transform="translate(69.471 56.344)">
                      <path id="Trazado_1030026" data-name="Trazado 1030026" d="M68.6,212.364a50.438,50.438,0,0,1,14.567-8.751c.872-.341.493-1.763-.39-1.417a52.571,52.571,0,0,0-15.217,9.129c-.718.615.327,1.65,1.04,1.038Z" transform="translate(-67.315 -202.143)" fill="#ec8b1e"/>
                    </g>
                    <g id="Grupo_1173662" data-name="Grupo 1173662" transform="translate(38.019 58.872)">
                      <path id="Trazado_1030027" data-name="Trazado 1030027" d="M71.908,219.666a62.222,62.222,0,0,0-16.966-16.321c-.795-.517-1.534.755-.741,1.269a60.305,60.305,0,0,1,16.437,15.795c.542.764,1.816.03,1.269-.743Z" transform="translate(-53.862 -203.224)" fill="#ec8b1e"/>
                    </g>
                    <g id="Grupo_1173663" data-name="Grupo 1173663" transform="translate(47.764 58.094)">
                      <path id="Trazado_1030028" data-name="Trazado 1030028" d="M62.624,214.7a47.878,47.878,0,0,0-3.119-11.318c-.355-.863-1.779-.484-1.417.39a47.878,47.878,0,0,1,3.119,11.318c.138.933,1.555.538,1.417-.391Z" transform="translate(-58.03 -202.892)" fill="#ec8b1e"/>
                    </g>
                  </g>
                </g>
              </g>
              <g id="Grupo_1173668" data-name="Grupo 1173668" transform="translate(156.571 36.952)">
                <g id="Grupo_1173667" data-name="Grupo 1173667">
                  <path id="Trazado_1030029" data-name="Trazado 1030029" d="M107.17,184.451s-1.267,8.816,9.036,20.72c12.444,14.38-6.069,30.088-10.086,34.626S107.17,184.451,107.17,184.451Z" transform="translate(-104.571 -184.451)" fill="#ffbc00"/>
                </g>
              </g>
              <g id="Grupo_1173681" data-name="Grupo 1173681" transform="translate(69.929 5.022)">
                <g id="Grupo_1173669" data-name="Grupo 1173669">
                  <path id="Trazado_1030030" data-name="Trazado 1030030" d="M135.269,172.8S142.7,206,141.429,211.35c-1.01,4.253-36.931,7.332-41.331,2.7-4.519-4.76-15.766-43.255-15.766-43.255s-9.7,0-16.821,9.943c3.448-3.54,22.088,46.928,16.821,82.982-2.565,17.56-12.977,50.1-12.977,50.1a308.855,308.855,0,0,0,94.994-13.662s-7.794-16.919-8.211-27.612-3.666-4.449,2.731-15.243,16.437-17.281,6.455-31.842-19.624-25.845-18.969-46.039C144.733,175.709,140.693,173.783,135.269,172.8Z" transform="translate(-67.511 -170.793)" fill="#b4e7e9"/>
                </g>
                <g id="Grupo_1173671" data-name="Grupo 1173671" transform="translate(7.247 16.711)">
                  <g id="Grupo_1173670" data-name="Grupo 1173670">
                    <path id="Trazado_1030031" data-name="Trazado 1030031" d="M85.249,179.236a16.151,16.151,0,0,0-13.63,4.97c-.528.556-1.368-.285-.842-.842a17.271,17.271,0,0,1,14.471-5.319c.75.084.76,1.274,0,1.19Z" transform="translate(-70.611 -177.941)" fill="#6168bd"/>
                  </g>
                </g>
                <g id="Grupo_1173673" data-name="Grupo 1173673" transform="translate(70.798 15.582)">
                  <g id="Grupo_1173672" data-name="Grupo 1173672">
                    <path id="Trazado_1030032" data-name="Trazado 1030032" d="M107.961,179.466a13.068,13.068,0,0,0-9.452.15c-.713.281-1.022-.87-.316-1.148a14.086,14.086,0,0,1,10.086-.15c.713.257.4,1.407-.318,1.148Z" transform="translate(-97.794 -177.458)" fill="#6168bd"/>
                  </g>
                </g>
                <g id="Grupo_1173678" data-name="Grupo 1173678" transform="translate(30.014 58.638)">
                  <g id="Grupo_1173675" data-name="Grupo 1173675" transform="translate(1.099)">
                    <g id="Grupo_1173674" data-name="Grupo 1173674">
                      <path id="Trazado_1030033" data-name="Trazado 1030033" d="M138.559,197.046a161.57,161.57,0,0,1-57.17,4.9c-.755-.07-.762-1.262,0-1.19a160.556,160.556,0,0,0,56.854-4.856.6.6,0,0,1,.316,1.148Z" transform="translate(-80.82 -195.875)" fill="#6168bd"/>
                    </g>
                  </g>
                  <g id="Grupo_1173677" data-name="Grupo 1173677" transform="translate(0 0.649)">
                    <g id="Grupo_1173676" data-name="Grupo 1173676">
                      <path id="Trazado_1030034" data-name="Trazado 1030034" d="M82.289,201.145a143.253,143.253,0,0,0-.215,25.822c.178,2.118.39,4.238.676,6.345.283,2.081.634,4.428,2.478,5.718,1.669,1.167,3.883,1.16,5.84,1.276q3.3.2,6.6.267a168.639,168.639,0,0,0,26.6-1.555c3.483-.484,7.245-.863,10.448-2.424,4.012-1.954,5.4-5.686,5.6-9.945a145.151,145.151,0,0,0-2.1-29.749c-.119-.748,1.026-1.071,1.148-.316a154.551,154.551,0,0,1,2.167,29.408c-.11,3.5-.7,7.182-3.362,9.7-2.424,2.286-5.81,3.191-9,3.769A158.267,158.267,0,0,1,100,241.8c-4.255-.028-9.043.269-13.2-.783-3.378-.853-4.634-3.589-5.127-6.8a133.906,133.906,0,0,1-.582-33.069c.08-.755,1.269-.762,1.195,0Z" transform="translate(-80.349 -196.153)" fill="#6168bd"/>
                    </g>
                  </g>
                </g>
                <g id="Grupo_1173679" data-name="Grupo 1173679" transform="translate(21.293 45.897)">
                  <path id="Trazado_1030035" data-name="Trazado 1030035" d="M76.619,195.278a4.853,4.853,0,1,0,4.853-4.853A4.854,4.854,0,0,0,76.619,195.278Z" transform="translate(-76.619 -190.425)" fill="#6168bd"/>
                </g>
                <g id="Grupo_1173680" data-name="Grupo 1173680" transform="translate(77.939 39.949)">
                  <path id="Trazado_1030036" data-name="Trazado 1030036" d="M100.849,192.734a4.853,4.853,0,1,0,4.853-4.853A4.854,4.854,0,0,0,100.849,192.734Z" transform="translate(-100.849 -187.881)" fill="#6168bd"/>
                </g>
              </g>
            </g>
            <g id="Grupo_1173736" data-name="Grupo 1173736" transform="translate(99.999 7.397)">
              <g id="Grupo_1173726" data-name="Grupo 1173726">
                <g id="Grupo_1173690" data-name="Grupo 1173690" transform="translate(0 41.384)">
                  <g id="Grupo_1173684" data-name="Grupo 1173684" transform="translate(2.403)">
                    <g id="Grupo_1173683" data-name="Grupo 1173683">
                      <path id="Trazado_1030037" data-name="Trazado 1030037" d="M78.568,192.466s15.451,14.322,32.078,3.163l-.935-9.6-1.019-10.474-.713-7.334L87.01,153.835Z" transform="translate(-78.568 -153.835)" fill="#ffa07f"/>
                    </g>
                  </g>
                  <g id="Grupo_1173686" data-name="Grupo 1173686" transform="translate(14.698 12.234)">
                    <g id="Grupo_1173685" data-name="Grupo 1173685">
                      <path id="Trazado_1030038" data-name="Trazado 1030038" d="M83.827,159.068c7.886,18.607,16.4,25.649,19.385,25.48l-1.557-15.993Z" transform="translate(-83.827 -159.068)" fill="#343737"/>
                    </g>
                  </g>
                  <g id="Grupo_1173687" data-name="Grupo 1173687" transform="translate(0 24.745)">
                    <path id="Trazado_1030039" data-name="Trazado 1030039" d="M114.621,178.677s-.823-9.821-3-10.343-6.579,4-13.569,2.56-13.321-7.757-16.379-6.242-4.136,15.084-4.136,15.084,9.81,11.1,22.974,9.868S114.621,178.677,114.621,178.677Z" transform="translate(-77.54 -164.419)" fill="#ffbc00"/>
                  </g>
                  <g id="Grupo_1173689" data-name="Grupo 1173689" transform="translate(0.28 39.645)">
                    <g id="Grupo_1173688" data-name="Grupo 1173688">
                      <path id="Trazado_1030040" data-name="Trazado 1030040" d="M114.276,175.551A37.361,37.361,0,0,1,92.817,179.7c-5.639-.622-12.772-2.357-15.112-8.2-.285-.711.865-1.019,1.148-.316,2.333,5.821,10.492,7.194,15.977,7.488a36.239,36.239,0,0,0,18.845-4.154c.678-.358,1.281.669.6,1.026Z" transform="translate(-77.66 -170.793)" fill="#ec8b1e"/>
                    </g>
                  </g>
                </g>
                <g id="Grupo_1173691" data-name="Grupo 1173691" transform="translate(2.489 5.005)">
                  <path id="Trazado_1030041" data-name="Trazado 1030041" d="M80.417,169.075c1.485,7.378,3.329,9.924,8.061,17.373,4.222,6.647,12.1,10.492,16.232,11.173,15.021,2.476,22.567-3.058,22.422-23.725-.091-12.832,4.023-19.645,1.2-24.835h0c-.2-.245-.4-.484-.6-.718a28.808,28.808,0,0,0-19.161-9.725C71.854,135.174,78.285,158.485,80.417,169.075Z" transform="translate(-78.605 -138.274)" fill="#ffa07f"/>
                </g>
                <g id="Grupo_1173694" data-name="Grupo 1173694" transform="translate(26.372 25.84)">
                  <g id="Grupo_1173693" data-name="Grupo 1173693">
                    <g id="Grupo_1173692" data-name="Grupo 1173692">
                      <path id="Trazado_1030042" data-name="Trazado 1030042" d="M95.623,150.2c-1.454-.652-3.453-.507-4.192,1.122-.69,1.522-3.189.7-2.487-.839a5.634,5.634,0,0,1,7.519-2.773c1.527.685.706,3.182-.839,2.49Z" transform="translate(-88.82 -147.186)" fill="#343737"/>
                    </g>
                  </g>
                </g>
                <g id="Grupo_1173697" data-name="Grupo 1173697" transform="translate(42.657 26.15)">
                  <g id="Grupo_1173696" data-name="Grupo 1173696">
                    <g id="Grupo_1173695" data-name="Grupo 1173695">
                      <path id="Trazado_1030043" data-name="Trazado 1030043" d="M101.3,152.8c-.937-1.3-2.1-3.168-3.953-2.822-1.66.311-2.219-2.256-.556-2.567,2.95-.549,4.884,1.442,6.466,3.64.982,1.358-.968,3.121-1.957,1.749Z" transform="translate(-95.786 -147.319)" fill="#343737"/>
                    </g>
                  </g>
                </g>
                <g id="Grupo_1173699" data-name="Grupo 1173699" transform="translate(37.949 34.83)">
                  <g id="Grupo_1173698" data-name="Grupo 1173698">
                    <path id="Trazado_1030044" data-name="Trazado 1030044" d="M94.866,158.914h.014a2.647,2.647,0,0,0,.711-5.244l-.606-2.186a.617.617,0,0,0-1.19.33l.7,2.53a.62.62,0,0,0,.482.442c.068.014,1.711.348,1.594,1.641-.108,1.2-1.655,1.253-1.721,1.253a.617.617,0,0,0,.014,1.234Z" transform="translate(-93.772 -151.031)" fill="#343737"/>
                  </g>
                </g>
                <g id="Grupo_1173700" data-name="Grupo 1173700" transform="translate(22.975 37.56)">
                  <path id="Trazado_1030045" data-name="Trazado 1030045" d="M87.369,153.98c-.061,1.1,1.594,2.081,3.7,2.2s3.857-.676,3.918-1.77-1.594-2.081-3.7-2.2S87.43,152.886,87.369,153.98Z" transform="translate(-87.367 -152.199)" fill="#ff7d6f"/>
                </g>
                <g id="Grupo_1173702" data-name="Grupo 1173702" transform="translate(44.696 39.909)">
                  <g id="Grupo_1173701" data-name="Grupo 1173701">
                    <path id="Trazado_1030046" data-name="Trazado 1030046" d="M96.66,154.981c-.061,1.1,1.594,2.081,3.694,2.2a6.1,6.1,0,0,0,2.6-.374q.039-1.4.033-2.885c0-.042,0-.084,0-.119a6.328,6.328,0,0,0-2.406-.587C98.476,153.1,96.721,153.887,96.66,154.981Z" transform="translate(-96.658 -153.204)" fill="#ff7d6f"/>
                  </g>
                </g>
                <g id="Grupo_1173704" data-name="Grupo 1173704" transform="translate(25.36 27.949)">
                  <g id="Grupo_1173703" data-name="Grupo 1173703">
                    <path id="Trazado_1030047" data-name="Trazado 1030047" d="M95.76,163.015c-.159.021-.32.035-.484.044a6.1,6.1,0,0,1-4.744-2,8.049,8.049,0,0,1-2.134-5.169h0c-.2-4.124,2.56-7.626,6.156-7.8a6.1,6.1,0,0,1,4.744,2,8.31,8.31,0,0,1,.51,10.52A6.155,6.155,0,0,1,95.76,163.015Zm-6.237-7.177a6.914,6.914,0,0,0,1.828,4.449,4.832,4.832,0,0,0,7.57-.367,7.181,7.181,0,0,0-.439-9.052,4.987,4.987,0,0,0-3.874-1.648c-2.978.15-5.256,3.114-5.085,6.618Z" transform="translate(-88.388 -148.088)" fill="#fff"/>
                  </g>
                </g>
                <g id="Grupo_1173707" data-name="Grupo 1173707" transform="translate(37.712 33.974)">
                  <g id="Grupo_1173706" data-name="Grupo 1173706">
                    <g id="Grupo_1173705" data-name="Grupo 1173705">
                      <path id="Trazado_1030048" data-name="Trazado 1030048" d="M97.023,151.556a2.826,2.826,0,0,0-3.1-.69c-.5.2-.178.977.33.778a1.946,1.946,0,0,1,2.1.43c.374.383,1.047-.131.666-.519Z" transform="translate(-93.671 -150.665)" fill="#fff"/>
                    </g>
                  </g>
                </g>
                <g id="Grupo_1173709" data-name="Grupo 1173709" transform="translate(40.333 29.338)">
                  <g id="Grupo_1173708" data-name="Grupo 1173708">
                    <path id="Trazado_1030049" data-name="Trazado 1030049" d="M94.792,156.072c0,.14,0,.278.012.421.009.194.028.386.049.573a2.609,2.609,0,0,1,1.583,2.614,2.487,2.487,0,0,1-.29.975,6.743,6.743,0,0,0,.793,1.008,6.1,6.1,0,0,0,4.744,1.994c.161-.007.323-.021.482-.042a6.154,6.154,0,0,0,4.049-2.406,8.306,8.306,0,0,0-.512-10.52,6.1,6.1,0,0,0-4.741-2C97.488,148.864,94.792,152.132,94.792,156.072Zm6.219-6.251a4.977,4.977,0,0,1,3.874,1.65,7.18,7.18,0,0,1,.439,9.052,4.832,4.832,0,0,1-7.57.367,6.927,6.927,0,0,1-1.828-4.447C95.758,152.934,98.037,149.97,101.011,149.82Z" transform="translate(-94.792 -148.682)" fill="#fff"/>
                  </g>
                </g>
                <g id="Grupo_1173712" data-name="Grupo 1173712" transform="translate(16.264 28.202)">
                  <g id="Grupo_1173711" data-name="Grupo 1173711">
                    <g id="Grupo_1173710" data-name="Grupo 1173710">
                      <path id="Trazado_1030050" data-name="Trazado 1030050" d="M94.484,152.815a14.343,14.343,0,0,0-9.52-4.617c-.54-.042-.657.795-.115.837a13.5,13.5,0,0,1,8.97,4.3c.365.4,1.036-.119.664-.519Z" transform="translate(-84.497 -148.196)" fill="#fff"/>
                    </g>
                  </g>
                </g>
                <g id="Grupo_1173715" data-name="Grupo 1173715" transform="translate(29.444 31.781)">
                  <g id="Grupo_1173714" data-name="Grupo 1173714">
                    <g id="Grupo_1173713" data-name="Grupo 1173713">
                      <path id="Trazado_1030051" data-name="Trazado 1030051" d="M91.183,151.583a3.657,3.657,0,0,1,3.682,2.256c.465,1.1,2.153.332,1.688-.767a5.546,5.546,0,0,0-5.66-3.32c-1.19.112-.893,1.94.29,1.831Z" transform="translate(-90.135 -149.727)" fill="#343737"/>
                    </g>
                  </g>
                </g>
                <g id="Grupo_1173718" data-name="Grupo 1173718" transform="translate(42.642 33.649)">
                  <g id="Grupo_1173717" data-name="Grupo 1173717">
                    <g id="Grupo_1173716" data-name="Grupo 1173716">
                      <path id="Trazado_1030052" data-name="Trazado 1030052" d="M100.4,152.09a3.022,3.022,0,0,0-3.193,1.58c-.465.867-1.793.112-1.33-.755a4.581,4.581,0,0,1,4.9-2.31c.97.18.589,1.662-.374,1.485Z" transform="translate(-95.78 -150.526)" fill="#343737"/>
                    </g>
                  </g>
                </g>
                <g id="Grupo_1173721" data-name="Grupo 1173721" transform="translate(34.6 53.945)">
                  <g id="Grupo_1173720" data-name="Grupo 1173720">
                    <g id="Grupo_1173719" data-name="Grupo 1173719">
                      <path id="Trazado_1030053" data-name="Trazado 1030053" d="M96.813,161.172a4.145,4.145,0,0,1-4.295-.881c-.582-.615.4-1.487.98-.874a2.9,2.9,0,0,0,3.039.472c.814-.222,1.087,1.064.276,1.283Z" transform="translate(-92.34 -159.208)" fill="#ff7d6f"/>
                    </g>
                  </g>
                </g>
                <g id="Grupo_1173723" data-name="Grupo 1173723" transform="translate(0)">
                  <g id="Grupo_1173722" data-name="Grupo 1173722">
                    <path id="Trazado_1030054" data-name="Trazado 1030054" d="M83.553,143.058c12.269-7.673,33.983-12.3,47.711,4.535,4.538,6.941-1.625,20.29-1.372,15.582.592-11.091-4.987-17.23-7.654-14.329,0,0-20.164,18.418-32.2,16.29,0,0-3.187,8.86-10.3,10.955C75.99,165.438,76.887,152.257,83.553,143.058Z" transform="translate(-77.54 -136.133)" fill="#343737"/>
                  </g>
                </g>
                <g id="Grupo_1173725" data-name="Grupo 1173725" transform="translate(30.862 44.283)">
                  <g id="Grupo_1173724" data-name="Grupo 1173724">
                    <path id="Trazado_1030055" data-name="Trazado 1030055" d="M104.53,157.31s-5.045.594-13.789-2.235c0,0,.259,8.292,6.962,8.629C103.386,163.992,104.53,157.31,104.53,157.31Z" transform="translate(-90.741 -155.075)" fill="#fff"/>
                  </g>
                </g>
              </g>
              <g id="Grupo_1173735" data-name="Grupo 1173735" transform="translate(1.466 26.684)">
                <g id="Grupo_1173729" data-name="Grupo 1173729" transform="translate(1.549)">
                  <g id="Grupo_1173728" data-name="Grupo 1173728">
                    <g id="Grupo_1173727" data-name="Grupo 1173727">
                      <path id="Trazado_1030056" data-name="Trazado 1030056" d="M94.186,163.3a9.182,9.182,0,0,0-.676-7.984c-1.814-3.151-5.223-8.038-8.774-7.755-5.223.416-6.106,4.987-5.873,9.707s2.96,11.046,9.485,10.434A6.646,6.646,0,0,0,94.186,163.3Z" transform="translate(-78.83 -147.547)" fill="#ffa07f"/>
                    </g>
                  </g>
                </g>
                <g id="Grupo_1173730" data-name="Grupo 1173730" transform="translate(0 14.333)">
                  <path id="Trazado_1030057" data-name="Trazado 1030057" d="M78.167,159.537a5.859,5.859,0,1,0,5.859-5.859A5.859,5.859,0,0,0,78.167,159.537Z" transform="translate(-78.167 -153.678)" fill="#fff"/>
                </g>
                <g id="Grupo_1173734" data-name="Grupo 1173734" transform="translate(5.174 3.759)">
                  <g id="Grupo_1173733" data-name="Grupo 1173733">
                    <g id="Grupo_1173732" data-name="Grupo 1173732">
                      <g id="Grupo_1173731" data-name="Grupo 1173731">
                        <path id="Trazado_1030058" data-name="Trazado 1030058" d="M85.334,159.858a11.692,11.692,0,0,0,.131-5.786c-.5-1.695-2.144-4.229-4.306-3.71-.725.173-1.12-.926-.39-1.1,2.083-.5,3.918.856,4.984,2.588,1.536,2.5,1.319,5.487.729,8.239a.586.586,0,0,1-1.148-.229Z" transform="translate(-80.38 -149.155)" fill="#343737"/>
                      </g>
                    </g>
                  </g>
                </g>
              </g>
            </g>
            <g id="Grupo_1173763" data-name="Grupo 1173763" transform="translate(66.987 208.701)">
              <g id="Grupo_1173737" data-name="Grupo 1173737" transform="translate(0 5.173)">
                <path id="Trazado_1030059" data-name="Trazado 1030059" d="M65.345,288.035c12.879,33.721,105.477,11.145,116.717-1.19s-11.97-62.393-11.97-62.393-35.175,17.868-81,8.285c-.451-.1-.9-.192-1.363-.292q-1.831-.4-3.68-.863s-.655.741-1.732,2.088c-.278.348-.584.739-.919,1.167C74.626,243.555,57.747,268.139,65.345,288.035Z" transform="translate(-63.419 -224.452)" fill="#b4e7e9"/>
              </g>
              <g id="Grupo_1173739" data-name="Grupo 1173739" transform="translate(69.083 34.534)">
                <g id="Grupo_1173738" data-name="Grupo 1173738">
                  <path id="Trazado_1030060" data-name="Trazado 1030060" d="M104.513,237.582q-4.029,46.325-8.056,92.654-1.147,13.21-2.3,26.415c-.065.757-1.255.764-1.19,0Q97,310.323,101.028,264q1.147-13.207,2.3-26.415c.063-.757,1.253-.764,1.188,0Z" transform="translate(-92.969 -237.011)" fill="#6168bd"/>
                </g>
              </g>
              <g id="Grupo_1173741" data-name="Grupo 1173741" transform="translate(69.25 35.036)">
                <g id="Grupo_1173740" data-name="Grupo 1173740">
                  <path id="Trazado_1030061" data-name="Trazado 1030061" d="M101.472,258.216c-3.416,1.583-6.24-1.29-7.182-4.4-1.531-5.057-1.459-10.836-.825-16.021.091-.75,1.283-.76,1.19,0a46.189,46.189,0,0,0-.026,11.446c.367,2.894,1.585,10.107,6.242,7.949.69-.318,1.3.708.6,1.029Z" transform="translate(-93.04 -237.226)" fill="#6168bd"/>
                </g>
              </g>
              <g id="Grupo_1173756" data-name="Grupo 1173756" transform="translate(17.978)">
                <g id="Grupo_1173744" data-name="Grupo 1173744" transform="translate(0 6.637)">
                  <g id="Grupo_1173743" data-name="Grupo 1173743">
                    <g id="Grupo_1173742" data-name="Grupo 1173742">
                      <path id="Trazado_1030062" data-name="Trazado 1030062" d="M71.109,234a114,114,0,0,0,67.707.809,110.359,110.359,0,0,0,20.459-8.465c.795-.425.016-1.6-.774-1.174a112.2,112.2,0,0,1-80.055,9.508c-.423-.105-.846-.217-1.267-.332q-2.592-.691-5.146-1.515C71.75,233.181,71.443,233.569,71.109,234Z" transform="translate(-71.109 -225.078)" fill="#6168bd"/>
                    </g>
                  </g>
                </g>
                <g id="Grupo_1173747" data-name="Grupo 1173747" transform="translate(76.366)">
                  <g id="Grupo_1173746" data-name="Grupo 1173746">
                    <g id="Grupo_1173745" data-name="Grupo 1173745">
                      <path id="Trazado_1030063" data-name="Trazado 1030063" d="M103.872,223.344a24.483,24.483,0,0,1,2.995,9.347c.1.9,1.5.823,1.4-.077a26.38,26.38,0,0,0-3.226-10.046c-.442-.788-1.613-.012-1.171.776Z" transform="translate(-103.774 -222.239)" fill="#6168bd"/>
                    </g>
                  </g>
                </g>
                <g id="Grupo_1173750" data-name="Grupo 1173750" transform="translate(6.06 2.908)">
                  <g id="Grupo_1173749" data-name="Grupo 1173749">
                    <g id="Grupo_1173748" data-name="Grupo 1173748">
                      <path id="Trazado_1030064" data-name="Trazado 1030064" d="M76.541,223.876A41.162,41.162,0,0,0,73.7,236.507c-.058.9,1.344.814,1.4-.077a38.955,38.955,0,0,1,2.684-11.914c.332-.835-.916-1.48-1.248-.641Z" transform="translate(-73.701 -223.483)" fill="#6168bd"/>
                    </g>
                  </g>
                </g>
                <g id="Grupo_1173753" data-name="Grupo 1173753" transform="translate(33.201 6.887)">
                  <g id="Grupo_1173752" data-name="Grupo 1173752">
                    <g id="Grupo_1173751" data-name="Grupo 1173751">
                      <path id="Trazado_1030065" data-name="Trazado 1030065" d="M86.551,225.706a31.313,31.313,0,0,0-1.089,11.813c.087.9,1.489.823,1.4-.077A30.383,30.383,0,0,1,87.923,226c.252-.872-1.122-1.164-1.372-.3Z" transform="translate(-85.31 -225.185)" fill="#6168bd"/>
                    </g>
                  </g>
                </g>
                <g id="Grupo_1173755" data-name="Grupo 1173755" transform="translate(57.073 6.855)">
                  <g id="Grupo_1173754" data-name="Grupo 1173754">
                    <path id="Trazado_1030066" data-name="Trazado 1030066" d="M95.527,228.838a3.474,3.474,0,1,0,3.275-3.661A3.473,3.473,0,0,0,95.527,228.838Z" transform="translate(-95.522 -225.172)" fill="#6168bd"/>
                  </g>
                </g>
              </g>
              <g id="Grupo_1173759" data-name="Grupo 1173759" transform="translate(2.957 26.907)">
                <g id="Grupo_1173758" data-name="Grupo 1173758">
                  <g id="Grupo_1173757" data-name="Grupo 1173757">
                    <path id="Trazado_1030067" data-name="Trazado 1030067" d="M89.645,234.257c-3.869,11.353-10.275,25.726-24.321,25.988-.9.016-.825,1.419.077,1.4,14.738-.273,21.541-15.142,25.616-27.091.292-.858-1.085-1.146-1.372-.3Z" transform="translate(-64.684 -233.749)" fill="#6168bd"/>
                  </g>
                </g>
              </g>
              <g id="Grupo_1173762" data-name="Grupo 1173762" transform="translate(97.547 22.441)">
                <g id="Grupo_1173761" data-name="Grupo 1173761">
                  <g id="Grupo_1173760" data-name="Grupo 1173760">
                    <path id="Trazado_1030068" data-name="Trazado 1030068" d="M105.23,232.951a33.441,33.441,0,0,0,20.309,16.79c.867.257,1.16-1.117.3-1.372A32.1,32.1,0,0,1,106.4,232.177c-.411-.8-1.58-.026-1.171.774Z" transform="translate(-105.144 -231.838)" fill="#6168bd"/>
                  </g>
                </g>
              </g>
            </g>
            <g id="Grupo_1173774" data-name="Grupo 1173774" transform="translate(141.071 634.532)">
              <g id="Grupo_1173766" data-name="Grupo 1173766">
                <g id="Grupo_1173765" data-name="Grupo 1173765">
                  <g id="Grupo_1173764" data-name="Grupo 1173764">
                    <path id="Trazado_1030069" data-name="Trazado 1030069" d="M95.108,488.32h16.657l3.57-9.188s13.807,8.3,23.327,9.188,32.994.325,32.994.325a32.982,32.982,0,0,0,2.149-7.028c.69-3.86.528-8.26-2.95-10.258-6.873-3.949-26.24-11.523-32.321-17.342s-7.137-22.958-7.137-22.958,6.548-23.694,4.295-25.756c-5.737-5.251-16.655,13.749-18.768,13.749s-.461-9.761-7.633-9.772-5.057,14.876-6.378,23.43c-.769,4.968-3.28,22.946-5.246,37.13C96.242,480.063,95.108,488.32,95.108,488.32Z" transform="translate(-95.108 -404.385)" fill="#df5b66"/>
                  </g>
                </g>
              </g>
              <g id="Grupo_1173768" data-name="Grupo 1173768" transform="translate(28.449 31.665)">
                <g id="Grupo_1173767" data-name="Grupo 1173767">
                  <path id="Trazado_1030070" data-name="Trazado 1030070" d="M115.979,420.708a8.766,8.766,0,0,0-6.908.718c-1.349.722-2.553-1.33-1.2-2.055a11.228,11.228,0,0,1,8.741-.956,1.19,1.19,0,0,1-.631,2.293Z" transform="translate(-107.277 -417.93)" fill="#fff"/>
                </g>
              </g>
              <g id="Grupo_1173770" data-name="Grupo 1173770" transform="translate(28.996 37.577)">
                <g id="Grupo_1173769" data-name="Grupo 1173769">
                  <path id="Trazado_1030071" data-name="Trazado 1030071" d="M116.367,423.2a8.96,8.96,0,0,0-7.07.86c-1.34.746-2.541-1.309-1.2-2.055a11.422,11.422,0,0,1,8.9-1.1,1.19,1.19,0,0,1-.631,2.293Z" transform="translate(-107.511 -420.459)" fill="#fff"/>
                </g>
              </g>
              <g id="Grupo_1173772" data-name="Grupo 1173772" transform="translate(29.6 43.219)">
                <g id="Grupo_1173771" data-name="Grupo 1173771">
                  <path id="Trazado_1030072" data-name="Trazado 1030072" d="M117.489,425.817a9.572,9.572,0,0,0-7.928.664c-1.349.727-2.551-1.328-1.2-2.055a11.963,11.963,0,0,1,9.761-.9c1.442.493.823,2.794-.631,2.3Z" transform="translate(-107.769 -422.872)" fill="#fff"/>
                </g>
              </g>
              <g id="Grupo_1173773" data-name="Grupo 1173773" transform="translate(0 65.454)">
                <path id="Trazado_1030073" data-name="Trazado 1030073" d="M95.108,450.864h16.657l3.57-9.188s13.807,8.3,23.327,9.188,32.994.325,32.994.325a32.981,32.981,0,0,0,2.149-7.028c-10.948.923-31.1,2.12-39.185-.7a88.146,88.146,0,0,1-20.87-11.077H97.666C96.242,442.606,95.108,450.864,95.108,450.864Z" transform="translate(-95.108 -432.383)" fill="#343737"/>
              </g>
            </g>
            <g id="Grupo_1173785" data-name="Grupo 1173785" transform="translate(36.777 634.532)">
              <g id="Grupo_1173777" data-name="Grupo 1173777">
                <g id="Grupo_1173776" data-name="Grupo 1173776">
                  <g id="Grupo_1173775" data-name="Grupo 1173775">
                    <path id="Trazado_1030074" data-name="Trazado 1030074" d="M50.5,488.32H67.154l3.57-9.188s13.807,8.3,23.327,9.188,32.994.325,32.994.325a32.982,32.982,0,0,0,2.148-7.028c.69-3.86.528-8.26-2.95-10.258-6.873-3.949-26.24-11.523-32.321-17.342s-7.137-22.958-7.137-22.958,6.548-23.694,4.295-25.756c-5.739-5.251-16.655,13.749-18.771,13.749s-.461-9.761-7.633-9.772-5.057,14.876-6.378,23.43c-.769,4.968-3.28,22.946-5.246,37.13C51.631,480.063,50.5,488.32,50.5,488.32Z" transform="translate(-50.497 -404.385)" fill="#df5b66"/>
                  </g>
                </g>
              </g>
              <g id="Grupo_1173779" data-name="Grupo 1173779" transform="translate(28.159 30.161)">
                <g id="Grupo_1173778" data-name="Grupo 1173778">
                  <path id="Trazado_1030075" data-name="Trazado 1030075" d="M71.244,420.065a8.766,8.766,0,0,0-6.908.718c-1.349.722-2.553-1.33-1.2-2.055a11.217,11.217,0,0,1,8.741-.956,1.19,1.19,0,0,1-.631,2.293Z" transform="translate(-62.542 -417.286)" fill="#fff"/>
                </g>
              </g>
              <g id="Grupo_1173781" data-name="Grupo 1173781" transform="translate(28.709 36.074)">
                <g id="Grupo_1173780" data-name="Grupo 1173780">
                  <path id="Trazado_1030076" data-name="Trazado 1030076" d="M71.633,422.561a8.97,8.97,0,0,0-7.07.86c-1.34.746-2.541-1.309-1.2-2.055a11.421,11.421,0,0,1,8.9-1.1,1.19,1.19,0,0,1-.631,2.293Z" transform="translate(-62.777 -419.816)" fill="#fff"/>
                </g>
              </g>
              <g id="Grupo_1173783" data-name="Grupo 1173783" transform="translate(29.31 41.716)">
                <g id="Grupo_1173782" data-name="Grupo 1173782">
                  <path id="Trazado_1030077" data-name="Trazado 1030077" d="M72.754,425.174a9.573,9.573,0,0,0-7.928.664c-1.349.725-2.551-1.328-1.2-2.055a11.964,11.964,0,0,1,9.761-.9c1.442.5.823,2.794-.631,2.3Z" transform="translate(-63.034 -422.229)" fill="#fff"/>
                </g>
              </g>
              <g id="Grupo_1173784" data-name="Grupo 1173784" transform="translate(0 65.454)">
                <path id="Trazado_1030078" data-name="Trazado 1030078" d="M50.5,450.864H67.154l3.57-9.188s13.807,8.3,23.327,9.188,32.994.325,32.994.325a32.981,32.981,0,0,0,2.148-7.028c-10.951.923-31.1,2.12-39.185-.7a88.145,88.145,0,0,1-20.87-11.077H53.055C51.631,442.606,50.5,450.864,50.5,450.864Z" transform="translate(-50.497 -432.383)" fill="#343737"/>
              </g>
            </g>
            <g id="Grupo_1173787" data-name="Grupo 1173787" transform="translate(146.647 677.641)">
              <g id="Grupo_1173786" data-name="Grupo 1173786">
                <path id="Trazado_1030079" data-name="Trazado 1030079" d="M98.407,422.879a22.723,22.723,0,0,1,13.623,23.956c-.1.748-1.291.758-1.19,0a21.616,21.616,0,0,0-13.034-22.927c-.7-.3-.1-1.326.6-1.029Z" transform="translate(-97.493 -422.825)" fill="#343737"/>
              </g>
            </g>
            <g id="Grupo_1173789" data-name="Grupo 1173789" transform="translate(42.492 675.159)">
              <g id="Grupo_1173788" data-name="Grupo 1173788">
                <path id="Trazado_1030080" data-name="Trazado 1030080" d="M53.8,421.875a31.256,31.256,0,0,1,12.861,26.462c-.033.762-1.223.767-1.19,0A30.03,30.03,0,0,0,53.2,422.9c-.613-.444-.021-1.477.6-1.026Z" transform="translate(-52.942 -421.763)" fill="#343737"/>
              </g>
            </g>
            <line id="Línea_637" data-name="Línea 637" x2="292.297" transform="translate(0 718.967)" fill="none" stroke="#343737" stroke-miterlimit="10" stroke-width="0.956"/>
            <g id="Grupo_1173790" data-name="Grupo 1173790" transform="translate(63.79 213.708)">
              <path id="Trazado_1030081" data-name="Trazado 1030081" d="M64.3,235.1a15.335,15.335,0,0,1,10.4-10.343,5.038,5.038,0,0,1,3.542-.093c2.747,1.559,21.144,11.722,22.42,15.126S86.378,237,86.378,237,99.33,246.371,97.2,248.262,80.613,241.9,80.613,241.9s8.059,7.516,8.318,9.786c.425,3.724-14.027-5.957-14.027-5.957s4.318,8.935,3,10.425-12.059-1.124-11.467-3.191c.685-2.394,4.089-.638,4.592-.956.54-.341-8.526-2.99-8.952-6.45C61.854,243.72,63.088,239.07,64.3,235.1Z" transform="translate(-62.052 -224.381)" fill="#ffa07f"/>
            </g>
          </g>
          <path id="Trazado_1030093" data-name="Trazado 1030093" d="M115.962,71.375h90.415c.979,0,1.408.361,1.408,1.342v70.027c0,.978-.429,2.64-1.408,2.64H156.545l-39.106,17.432,8.01-17.432h-9.487c-.979,0-2.288-1.662-2.288-2.64V72.717C113.674,71.736,114.982,71.375,115.962,71.375Z" transform="translate(-777.172 2228)" fill="#cee29d"/>
          <g id="Grupo_1173796" data-name="Grupo 1173796" transform="translate(-648.344 2307.308)">
            <rect id="Rectángulo_414622" data-name="Rectángulo 414622" width="12.177" height="56.143" transform="translate(48.596 0)" fill="#b74352"/>
            <rect id="Rectángulo_414623" data-name="Rectángulo 414623" width="12.177" height="26.38" transform="translate(36.446 29.762)" fill="#ffbc00"/>
            <rect id="Rectángulo_414624" data-name="Rectángulo 414624" width="12.177" height="40.814" transform="translate(24.298 15.329)" fill="#b4e7e9"/>
            <rect id="Rectángulo_414625" data-name="Rectángulo 414625" width="12.177" height="14.291" transform="translate(12.148 41.851)" fill="#4f52a9"/>
            <rect id="Rectángulo_414626" data-name="Rectángulo 414626" width="12.177" height="8.011" transform="translate(0 48.131)" fill="#ec8b1e"/>
          </g>
        </g>
      </g>
    </g>
    <g id="Grupo_1174619" data-name="Grupo 1174619" transform="translate(449.017 2029.815)">
      <path id="Trazado_1030409" data-name="Trazado 1030409" d="M64.3,235.1a15.335,15.335,0,0,1,10.4-10.343,5.038,5.038,0,0,1,3.542-.093c2.747,1.559,21.144,11.722,22.42,15.126S86.378,237,86.378,237,99.33,246.371,97.2,248.262,80.613,241.9,80.613,241.9s8.059,7.516,8.318,9.786c.425,3.724-14.027-5.957-14.027-5.957s4.318,8.935,3,10.425-12.059-1.124-11.467-3.191c.685-2.394,4.089-.638,4.592-.956.54-.341-8.526-2.99-8.952-6.45C61.854,243.72,63.088,239.07,64.3,235.1Z" transform="translate(-62.052 -224.381)" fill="#ffa07f"/>
    </g>
  </g>
</svg>
