<svg xmlns="http://www.w3.org/2000/svg" xmlns:xlink="http://www.w3.org/1999/xlink" width="295" height="192" viewBox="0 0 295 192">
  <defs>
    <clipPath id="clip-path">
      <rect id="Rect치ngulo_414750" data-name="Rect치ngulo 414750" width="295" height="192" transform="translate(915.461 8109)" fill="#fff" stroke="#707070" stroke-width="1"/>
    </clipPath>
    <clipPath id="clip-path-2">
      <rect id="Rect치ngulo_414749" data-name="Rect치ngulo 414749" width="335.068" height="335.068" fill="none"/>
    </clipPath>
  </defs>
  <g id="Enmascarar_grupo_1098804" data-name="Enmascarar grupo 1098804" transform="translate(-915.461 -8109)" clip-path="url(#clip-path)">
    <g id="Grupo_1175271" data-name="Grupo 1175271" transform="translate(-2379.607 206.63)">
      <g id="OBJECTS" transform="translate(3281 7852.806)">
        <circle id="Elipse_12138" data-name="Elipse 12138" cx="130.128" cy="130.128" r="130.128" transform="translate(37.406 56.406)" fill="#9eaf9e"/>
        <g id="Grupo_1175252" data-name="Grupo 1175252" transform="translate(28.024 24.881)">
          <g id="Grupo_1175247" data-name="Grupo 1175247" transform="translate(213.106 42.814)">
            <g id="Grupo_1175246" data-name="Grupo 1175246" transform="translate(9.892 16.507)">
              <path id="Trazado_1031328" data-name="Trazado 1031328" d="M388.795,141.578l-3.813-.441-4.063-7.238q-.54-.041-.877-.08c-.09-.011-.189-.024-.294-.04s-.212-.034-.324-.054l-.48,4.151a2.935,2.935,0,0,0,.1,1.709,1.513,1.513,0,0,0,1.147.6l.558.064-.045.391-6.12-.708.045-.39.537.062a1.448,1.448,0,0,0,1.364-.44,3.357,3.357,0,0,0,.4-1.523L378,128.415a2.927,2.927,0,0,0-.1-1.709,1.557,1.557,0,0,0-1.168-.605l-.537-.062.046-.39,5.2.6a12.475,12.475,0,0,1,3.317.72,3.867,3.867,0,0,1,1.692,1.435,3.208,3.208,0,0,1,.507,2.209,3.36,3.36,0,0,1-1.122,2.187,4.878,4.878,0,0,1-2.819,1.062l2.475,4.439a7.361,7.361,0,0,0,1.522,2.077,4.409,4.409,0,0,0,1.827.81Zm-9.295-8.516c.133.015.249.031.347.046s.178.025.241.033a4.669,4.669,0,0,0,3.184-.528,2.851,2.851,0,0,0,1.3-2.134,2.957,2.957,0,0,0-.586-2.272,3.018,3.018,0,0,0-2.121-1.094,9.39,9.39,0,0,0-1.677.009Z" transform="translate(-374.584 -125.649)" fill="#f2e1c5"/>
              <path id="Trazado_1031329" data-name="Trazado 1031329" d="M402.306,144.061a15.921,15.921,0,0,1-2.018,1.111,2.874,2.874,0,0,1-1.242.124,2.186,2.186,0,0,1-1.569-.876,2.535,2.535,0,0,1-.438-1.877,2.307,2.307,0,0,1,.457-1.185,4.213,4.213,0,0,1,1.657-1.175,23.489,23.489,0,0,1,3.733-1.126l.044-.379a3.162,3.162,0,0,0-.229-2.033,1.666,1.666,0,0,0-1.271-.692,1.5,1.5,0,0,0-1.094.237,1.084,1.084,0,0,0-.5.775l-.049.614a1.055,1.055,0,0,1-.334.719.849.849,0,0,1-.678.188.828.828,0,0,1-.606-.347,1.08,1.08,0,0,1-.161-.777,2.169,2.169,0,0,1,1.12-1.557,4.029,4.029,0,0,1,2.689-.458,4.547,4.547,0,0,1,2.057.676,2,2,0,0,1,.8,1.128,5.789,5.789,0,0,1-.025,1.876l-.379,3.276a14.809,14.809,0,0,0-.143,1.7.714.714,0,0,0,.125.436.422.422,0,0,0,.268.138.585.585,0,0,0,.3-.04,6.548,6.548,0,0,0,.942-.67l-.068.59a3.155,3.155,0,0,1-2.437,1.319,1.032,1.032,0,0,1-.78-.454A1.943,1.943,0,0,1,402.306,144.061Zm.079-.684.426-3.677a20.947,20.947,0,0,0-2.158.658,3.562,3.562,0,0,0-1.3.831,1.887,1.887,0,0,0-.487,1.065,1.819,1.819,0,0,0,.308,1.311,1.382,1.382,0,0,0,.984.621A3.854,3.854,0,0,0,402.385,143.376Z" transform="translate(-381.983 -128.833)" fill="#f2e1c5"/>
            </g>
            <path id="Trazado_1031330" data-name="Trazado 1031330" d="M395.473,140.791l-35.65-4.125,4.124-35.651,35.651,4.125Zm-34.164-5.3,32.987,3.816,3.817-32.987L365.125,102.5Z" transform="translate(-359.823 -101.016)" fill="#f2e1c5"/>
          </g>
          <g id="Grupo_1175249" data-name="Grupo 1175249" transform="translate(15.259 193.337)">
            <g id="Grupo_1175248" data-name="Grupo 1175248" transform="translate(11.563 18.505)">
              <path id="Trazado_1031331" data-name="Trazado 1031331" d="M87.076,361.156l.651,4.137a2.946,2.946,0,0,0,.554,1.62,1.529,1.529,0,0,0,1.277.271l.545-.086.062.387-6.086.958-.062-.387.534-.084a1.444,1.444,0,0,0,1.2-.789,3.494,3.494,0,0,0-.032-1.573l-1.444-9.176a3.026,3.026,0,0,0-.545-1.621,1.56,1.56,0,0,0-1.288-.269l-.533.084-.061-.388,5.206-.82a9.32,9.32,0,0,1,3.068-.08,4.183,4.183,0,0,1,2.063,1.033,3.445,3.445,0,0,1,1.1,2.091,3.775,3.775,0,0,1-.7,3.009,4.58,4.58,0,0,1-3.071,1.6,9.245,9.245,0,0,1-1.121.1Q87.78,361.2,87.076,361.156Zm-.094-.6c.381.013.716.013,1.009,0a6.319,6.319,0,0,0,.741-.063,2.522,2.522,0,0,0,1.748-1.14,3.1,3.1,0,0,0,.446-2.308,3.976,3.976,0,0,0-.646-1.654,2.635,2.635,0,0,0-1.256-1.015,3.146,3.146,0,0,0-1.632-.146,6.323,6.323,0,0,0-1.341.415Z" transform="translate(-81.844 -353.246)" fill="#f2e1c5"/>
              <path id="Trazado_1031332" data-name="Trazado 1031332" d="M106.221,357.173a4.3,4.3,0,0,1,3.759,1.1,5.148,5.148,0,0,1,1.632,3.071,6.2,6.2,0,0,1-.208,2.707,4.443,4.443,0,0,1-3.7,3.308,4.115,4.115,0,0,1-3.718-1.185,5.421,5.421,0,0,1-1.594-3.1,5.882,5.882,0,0,1,.242-2.728,4.419,4.419,0,0,1,3.585-3.178ZM106,357.9a2.211,2.211,0,0,0-1.063.506,2.341,2.341,0,0,0-.724,1.3,5.636,5.636,0,0,0-.01,2.181,7.479,7.479,0,0,0,1.4,3.483,2.51,2.51,0,0,0,2.434,1.174,2.071,2.071,0,0,0,1.544-1.1,4.828,4.828,0,0,0,.207-2.985,6.653,6.653,0,0,0-1.734-3.849A2.3,2.3,0,0,0,106,357.9Z" transform="translate(-88.601 -354.52)" fill="#f2e1c5"/>
            </g>
            <path id="Trazado_1031333" data-name="Trazado 1031333" d="M70.17,366.665l-5.581-35.451,35.452-5.581,5.58,35.452Zm-4.048-34.336,5.164,32.8,32.8-5.163-5.163-32.8Z" transform="translate(-64.589 -325.633)" fill="#f2e1c5"/>
          </g>
          <g id="Grupo_1175250" data-name="Grupo 1175250" transform="translate(0 22)">
            <path id="Trazado_1031334" data-name="Trazado 1031334" d="M231.406,324.291a7.289,7.289,0,0,1-.734-.038l.1-1a6.256,6.256,0,0,0,2.444-.237l.29.962a7.27,7.27,0,0,1-1.545.29Q231.683,324.291,231.406,324.291Zm-3.426-.795a12.494,12.494,0,0,1-2.358-1.45l.613-.8a11.444,11.444,0,0,0,2.166,1.334Zm8.041-.77-.58-.821a12.149,12.149,0,0,0,1.906-1.7l.74.68A13.086,13.086,0,0,1,236.021,322.726Zm-12.438-2.514c-.594-.612-1.2-1.3-1.793-2.053l.787-.625c.576.725,1.157,1.391,1.728,1.978Zm16.2-1.482-.827-.571c.465-.675.93-1.427,1.381-2.237l.878.49C240.752,317.249,240.27,318.029,239.786,318.729Zm-19.6-2.758c-.485-.712-.978-1.478-1.462-2.278l.86-.521c.475.785.958,1.536,1.433,2.232Zm22.269-1.979-.909-.426c.357-.763.714-1.581,1.059-2.433l.932.378C243.18,312.379,242.816,313.214,242.451,313.992Zm-25.08-2.642c-.415-.757-.837-1.561-1.254-2.39l.9-.452c.411.818.828,1.612,1.237,2.358Zm27.121-2.364-.946-.338c.288-.807.574-1.657.85-2.524l.958.3C245.074,307.308,244.784,308.168,244.492,308.986Zm-29.55-2.452q-.556-1.192-1.108-2.457l.921-.4q.547,1.252,1.1,2.433Zm31.19-2.685-.966-.277q.359-1.252.7-2.574l.972.253Q246.5,302.585,246.133,303.849ZM212.786,301.6q-.5-1.221-1-2.5l.937-.364q.493,1.271.99,2.482Zm34.706-2.96-.978-.233q.3-1.274.592-2.6l.982.213Q247.8,297.355,247.492,298.638Zm-36.655-2.056q-.457-1.241-.91-2.529l.948-.334q.45,1.283.905,2.516Zm37.8-3.2-.986-.2q.257-1.292.5-2.626l.988.182Q248.9,292.085,248.637,293.382Zm-39.583-1.873q-.421-1.256-.838-2.554l.957-.308q.414,1.291.834,2.542Zm40.556-3.414-.991-.169q.221-1.3.431-2.64l.993.155Q249.832,286.787,249.61,288.094Zm-42.2-1.7q-.391-1.268-.777-2.573l.964-.285q.385,1.3.775,2.562Zm43.034-3.607-1-.144q.189-1.308.369-2.651l1,.133Q250.633,281.47,250.443,282.785Zm-44.562-1.544q-.365-1.278-.725-2.587l.97-.265q.358,1.3.722,2.577Zm45.274-3.782-1-.123q.161-1.314.315-2.658l1,.114Q251.318,276.139,251.155,277.459Zm-46.7-1.4q-.341-1.285-.678-2.6l.974-.25q.336,1.309.676,2.59Zm47.308-3.94-1-.1q.139-1.319.268-2.664l1,.1Q251.9,270.8,251.762,272.121Zm-48.642-1.263q-.321-1.292-.636-2.609l.978-.235q.315,1.314.634,2.6Zm49.156-4.082-1-.088q.117-1.322.224-2.668l1,.08Q252.394,265.45,252.276,266.777Zm-50.408-1.139q-.3-1.3-.6-2.618l.981-.22q.3,1.316.6,2.609Zm50.84-4.214-1-.073q.1-1.326.186-2.672l1,.067Q252.8,260.1,252.708,261.424ZM200.689,260.4q-.283-1.3-.563-2.624l.984-.208q.278,1.321.562,2.619Zm52.372-4.332-1-.06q.079-1.326.151-2.673l1,.054Q253.141,254.735,253.062,256.066Zm-53.481-.92q-.266-1.307-.53-2.632l.986-.2q.261,1.322.529,2.625Zm53.768-4.44-1-.047q.062-1.331.118-2.676l1,.041Q253.411,249.374,253.348,250.705Zm-54.812-.826q-.252-1.309-.5-2.637l.988-.184q.246,1.325.5,2.632Zm55.032-4.538-1.005-.036q.047-1.33.087-2.677l1.005.03Q253.615,244.009,253.568,245.342Zm-56.017-.739q-.238-1.314-.471-2.642l.99-.174q.232,1.327.47,2.638Zm56.176-4.625-1.005-.025q.032-1.331.058-2.678l1.005.019Q253.759,238.643,253.727,239.977Zm-57.1-.661q-.224-1.317-.443-2.647l.991-.164q.219,1.328.443,2.642Zm57.206-4.706-1.005-.014q.018-1.331.03-2.678l1.005.009Q253.847,233.275,253.828,234.61Zm-58.079-.589q-.211-1.319-.418-2.651l.994-.154q.206,1.33.416,2.646Zm58.126-4.777-1.005,0q0-1.035,0-2.077v-.6h1.005v.6Q253.879,228.208,253.875,229.244Zm-58.947-.527q-.2-1.321-.392-2.654l.994-.144q.193,1.33.391,2.65Zm57.936-4.834q-.008-1.334-.021-2.679l1.005-.011q.014,1.347.021,2.683Zm-58.709-.476q-.186-1.324-.368-2.658l1-.136q.181,1.332.367,2.654Zm58.654-4.883q-.019-1.334-.046-2.679l1.005-.019q.026,1.347.046,2.684Zm-59.377-.436q-.174-1.325-.344-2.661l1-.127q.169,1.334.343,2.657Zm59.272-4.922q-.031-1.335-.07-2.679l1.005-.029q.038,1.346.07,2.684Zm-59.95-.4q-.163-1.328-.321-2.664l1-.119q.159,1.335.322,2.66Zm59.8-4.956q-.044-1.335-.092-2.678l1-.037q.049,1.345.093,2.682Zm-60.429-.373q-.152-1.33-.3-2.666l1-.11q.147,1.335.3,2.662Zm60.232-4.982q-.053-1.334-.115-2.677l1-.046q.06,1.344.115,2.681Zm-60.819-.352q-.142-1.331-.277-2.669l1-.1q.136,1.337.277,2.664Zm60.578-5q-.065-1.334-.137-2.676l1-.054q.071,1.343.137,2.68Zm-61.122-.336q-.13-1.332-.255-2.671l1-.094q.126,1.337.255,2.666Zm60.836-5.015q-.076-1.334-.159-2.675l1-.062q.082,1.343.159,2.679Zm-61.335-.328q-.12-1.333-.235-2.672l1-.086q.116,1.338.235,2.669ZM251.5,186.4q-.086-1.334-.18-2.674l1-.07q.092,1.342.18,2.678Zm-61.464-.317q-.11-1.333-.213-2.673l1-.078q.1,1.338.213,2.669Zm61.093-5.029q-.1-1.334-.2-2.673l-.048-.6,1-.078.048.6q.1,1.342.2,2.677Zm-61.508-.32q-.1-1.342-.192-2.677l1-.07q.094,1.334.192,2.673Zm-.374-5.355q-.088-1.342-.171-2.678l1-.062q.082,1.334.171,2.674Zm61.422-.267q-.112-1.338-.225-2.67l1-.086q.115,1.333.225,2.672Zm-61.754-5.09q-.077-1.343-.149-2.68l1-.054q.072,1.335.149,2.676Zm61.293-.249q-.121-1.338-.246-2.668l1-.094q.126,1.333.246,2.672Zm-61.581-5.112q-.067-1.343-.128-2.681l1-.046q.061,1.335.128,2.677Zm61.08-.222q-.132-1.337-.267-2.666l1-.1q.137,1.331.267,2.67ZM188.38,159.3q-.056-1.345-.106-2.683l1-.037q.05,1.335.106,2.677Zm60.781-.192q-.143-1.336-.289-2.663l1-.111q.148,1.33.29,2.667Zm-60.98-5.173q-.044-1.346-.083-2.683l1-.029q.039,1.334.083,2.679Zm60.391-.153q-.153-1.336-.312-2.661l1-.119q.159,1.328.312,2.665Zm-60.545-5.212q-.033-1.347-.06-2.684l1.005-.019q.026,1.334.06,2.679Zm59.912-.108q-.165-1.334-.334-2.658l1-.127q.169,1.326.334,2.662ZM187.919,143.2q-.021-1.347-.036-2.684l1.005-.011q.015,1.334.036,2.679Zm59.34-.055q-.177-1.333-.357-2.655l1-.137q.181,1.325.357,2.66Zm-.724-5.308q-.189-1.332-.381-2.652l1-.145q.192,1.323.381,2.656Zm-58.675,0q-.009-1.347-.011-2.685h1.005q0,1.334.011,2.679Zm57.9-5.3q-.2-1.33-.406-2.648l.994-.155q.205,1.32.405,2.652Zm-56.9-.066-1.005,0q.005-1.347.015-2.683l1.005.007Q188.861,131.125,188.856,132.47Zm56.081-5.227q-.213-1.329-.432-2.644l.992-.164q.218,1.318.432,2.649Zm-56.037-.129-1.005-.013q.018-1.349.042-2.683l1.005.018Q188.918,125.767,188.9,127.114Zm55.161-5.157q-.226-1.326-.457-2.638l.989-.175q.233,1.315.459,2.644Zm-55.062-.2-1.005-.024q.032-1.348.07-2.683l1,.029Q189.03,120.412,189,121.758Zm54.134-5.076q-.24-1.325-.486-2.634l.988-.186q.245,1.313.487,2.64Zm-53.979-.278-1-.035q.047-1.349.1-2.682l1,.04Q189.2,115.057,189.153,116.4Zm52.993-4.987q-.255-1.323-.515-2.628l.986-.2q.261,1.308.517,2.634Zm-52.777-.365-1-.046q.062-1.35.132-2.681l1,.052Q189.432,109.706,189.369,111.052Zm51.73-4.889q-.27-1.32-.546-2.622l.983-.208q.276,1.3.547,2.628Zm-51.45-.46-1-.058q.079-1.35.166-2.679l1,.065Q189.729,104.357,189.65,105.7Zm50.341-4.779q-.288-1.317-.58-2.614l.98-.221q.294,1.3.582,2.621ZM190,100.359l-1-.072q.1-1.35.2-2.677l1,.08Q190.1,99.013,190,100.359Zm48.81-4.66q-.306-1.314-.617-2.605l.978-.235q.311,1.294.618,2.612Zm-48.385-.678-1-.087q.118-1.35.244-2.675l1,.1Q190.543,93.677,190.425,95.022Zm47.131-4.528q-.327-1.311-.657-2.6l.974-.251q.331,1.288.658,2.6Zm-46.623-.8-1-.1q.141-1.349.289-2.67l1,.113Q191.073,88.347,190.934,89.691Zm45.288-4.383q-.349-1.306-.7-2.583l.969-.267q.354,1.281.7,2.592Zm-44.689-.936-1-.121q.165-1.348.339-2.665l1,.132Q191.7,83.028,191.533,84.372ZM234.8,80.149q-.374-1.3-.751-2.569l.964-.286q.379,1.273.753,2.578Zm-42.56-1.082-.994-.143q.192-1.347.4-2.658l.993.155Q192.428,77.725,192.236,79.067Zm41.03-4.048q-.4-1.295-.806-2.551l.957-.309q.407,1.262.81,2.563ZM193.057,73.78l-.992-.166q.226-1.346.464-2.648l.989.181Q193.281,72.442,193.057,73.78Zm38.565-3.852q-.434-1.287-.872-2.528l.948-.335q.441,1.248.877,2.542ZM194.017,68.52l-.986-.2q.266-1.343.544-2.634l.982.211Q194.281,67.186,194.017,68.52Zm35.824-3.634q-.473-1.276-.95-2.5l.936-.366q.481,1.23.956,2.515Zm-34.7-1.591-.978-.229q.315-1.338.643-2.615l.973.251Q195.455,61.968,195.143,63.295Zm32.752-3.386q-.521-1.262-1.047-2.457l.92-.4q.531,1.206,1.055,2.477Zm-31.418-1.784-.968-.274q.377-1.33.771-2.583l.959.3Q196.85,56.809,196.477,58.125Zm29.267-3.1q-.582-1.239-1.169-2.4l.9-.454q.594,1.169,1.183,2.423Zm-27.663-1.98-.948-.334c.31-.879.629-1.73.948-2.529l.934.373C198.7,51.339,198.386,52.177,198.081,53.043Zm25.247-2.77c-.443-.8-.893-1.573-1.337-2.3l.856-.525c.452.737.91,1.523,1.36,2.336Zm-23.268-2.161-.913-.42c.393-.854.8-1.671,1.214-2.427l.883.481C200.84,46.483,200.443,47.279,200.059,48.113Zm20.485-2.359c-.525-.757-1.057-1.469-1.581-2.116l.781-.633c.539.666,1.087,1.4,1.626,2.175ZM202.6,43.494l-.834-.56a20.654,20.654,0,0,1,1.665-2.175l.753.665A19.722,19.722,0,0,0,202.6,43.494Zm14.614-1.811a16.984,16.984,0,0,0-1.955-1.7l.6-.81a18.062,18.062,0,0,1,2.072,1.8Zm-11.159-2.01-.6-.8a9.128,9.128,0,0,1,2.464-1.34l.33.95A8.109,8.109,0,0,0,206.054,39.672Zm7.011-.963a7.2,7.2,0,0,0-2.388-.577l.057-1a8.215,8.215,0,0,1,2.722.655Z" transform="translate(-89.989 -37.128)" fill="#f2e1c5"/>
            <path id="Trazado_1031335" data-name="Trazado 1031335" d="M88.551,265.88v-1.005q1.323,0,2.675-.018l.011,1.005Q89.879,265.878,88.551,265.88Zm-2.687-.011q-1.36-.013-2.686-.04l.021-1.005q1.32.028,2.674.04Zm8.058-.051-.021-1.005q1.325-.029,2.676-.069l.03,1.005Q95.251,265.789,93.922,265.818Zm-13.43-.061q-1.363-.046-2.686-.108l.047-1q1.316.061,2.673.107Zm18.8-.1-.038-1q1.326-.05,2.675-.113l.046,1Q100.619,265.607,99.29,265.657ZM75.122,265.5q-1.365-.085-2.682-.188l.078-1q1.309.1,2.666.187Zm29.532-.094-.054-1q1.326-.07,2.672-.153l.062,1Q105.983,265.339,104.654,265.41Zm5.359-.327-.068-1q1.327-.09,2.671-.19l.074,1Q111.342,264.993,110.013,265.082Zm-40.253,0q-1.368-.134-2.676-.289l.119-1q1.3.156,2.654.288Zm45.607-.394-.082-1q1.326-.108,2.668-.224l.087,1Q116.7,264.577,115.366,264.684Zm-50.952-.246q-1.369-.2-2.662-.421l.172-.99q1.28.222,2.634.417Zm56.3-.22-.094-1q1.326-.124,2.666-.256l.1,1Q122.042,264.093,120.713,264.218Zm5.342-.528-.105-1q1.326-.14,2.663-.286l.11,1Q127.382,263.551,126.055,263.69ZM59.1,263.514c-.909-.19-1.795-.393-2.633-.6l.245-.975c.825.207,1.7.407,2.593.594Zm72.288-.412-.115-1q1.324-.153,2.66-.314l.121,1Q132.715,262.948,131.389,263.1Zm5.328-.642-.125-1q1.323-.167,2.656-.342l.13,1Q138.043,262.293,136.717,262.46Zm-82.856-.274c-.9-.275-1.759-.571-2.567-.88l.359-.939c.787.3,1.629.589,2.5.858Zm88.177-.422-.135-1q1.322-.179,2.653-.366l.14,1Q143.362,261.585,142.038,261.763Zm5.314-.747-.144-1q1.32-.191,2.65-.391l.149,1Q148.675,260.825,147.353,261.017Zm5.307-.795-.153-.993q1.319-.2,2.646-.414l.158.992Q153.98,260.019,152.659,260.222Zm-103.865,0a20.676,20.676,0,0,1-2.382-1.362l.56-.835a19.907,19.907,0,0,0,2.266,1.3Zm109.164-.842-.162-.992q1.318-.215,2.642-.437l.167.99Q159.278,259.166,157.958,259.38Zm5.293-.888-.171-.99q1.316-.227,2.639-.46l.175.99Q164.568,258.265,163.251,258.492Zm5.284-.932-.178-.989q1.314-.237,2.635-.482l.182.988Q169.851,257.321,168.535,257.56ZM44.264,257.1a9.124,9.124,0,0,1-1.66-2.275l.9-.451a8.128,8.128,0,0,0,1.48,2.022Zm129.547-.52-.186-.988q1.313-.247,2.631-.5l.191.987Q175.126,256.334,173.811,256.584Zm5.268-1.019-.2-.986q1.311-.259,2.627-.525l.2.986Q180.392,255.305,179.079,255.565Zm5.259-1.061-.2-.984q1.309-.268,2.622-.545l.207.984Q185.649,254.234,184.337,254.5Zm5.253-1.1-.21-.982,2.618-.566.214.982Q190.9,253.121,189.59,253.4Zm5.234-1.142-.218-.981q1.311-.292,2.614-.586l.222.98Q196.136,251.969,194.824,252.26Zm-152.986-.18c-.013-.182-.02-.365-.019-.548a8.46,8.46,0,0,1,.317-2.246l.97.267a7.448,7.448,0,0,0-.281,1.98c0,.16.005.317.017.474Zm158.22-1-.227-.979q1.309-.3,2.61-.607l.229.978Q201.369,250.774,200.058,251.077Zm5.224-1.226-.235-.978q1.306-.314,2.6-.629l.239.976Q206.591,249.538,205.282,249.851Zm5.214-1.269-.242-.976q1.3-.323,2.6-.65l.246.975Q211.8,248.259,210.5,248.582Zm5.2-1.311-.25-.974q1.3-.335,2.593-.671l.254.972Q217,246.935,215.7,247.27Zm-171.617-.059-.881-.484a18.241,18.241,0,0,1,1.514-2.291l.8.613A17.113,17.113,0,0,0,44.083,247.211Zm176.808-1.3-.258-.972q1.3-.344,2.588-.693l.261.97Q222.192,245.568,220.891,245.913Zm5.18-1.4-.266-.97q1.3-.356,2.581-.716l.271.969Q227.371,244.156,226.071,244.513Zm5.169-1.445-.276-.968q1.293-.368,2.575-.74l.28.966Q232.536,242.7,231.24,243.067Zm-184.018-.009-.73-.691c.59-.623,1.243-1.262,1.942-1.9l.677.743C48.43,241.831,47.795,242.453,47.222,243.058Zm189.172-1.486-.284-.964q1.291-.38,2.567-.765l.29.963Q237.687,241.19,236.394,241.572Zm5.141-1.545-.294-.96q1.287-.394,2.56-.79l.3.96Q242.824,239.634,241.535,240.027Zm-190.413-.544-.635-.78c.671-.546,1.389-1.1,2.136-1.657l.6.808C52.488,238.4,51.781,238.947,51.122,239.483Zm195.538-1.05-.3-.958q1.283-.407,2.551-.816l.309.957Q247.946,238.025,246.66,238.433Zm5.108-1.649-.314-.954q1.28-.422,2.542-.844l.32.953Q253.051,236.363,251.768,236.784Zm-196.379-.477-.57-.829q1.081-.743,2.244-1.494l.545.844Q56.458,235.571,55.389,236.307Zm201.469-1.227-.326-.952q1.276-.436,2.533-.873l.33.949Q258.136,234.643,256.858,235.08ZM59.87,233.413l-.523-.858q1.125-.686,2.315-1.374l.5.87Q60.986,232.735,59.87,233.413Zm202.056-.1-.336-.948q1.272-.45,2.521-.9l.343.945Q263.2,232.861,261.927,233.313Zm5.049-1.83-.35-.942q1.267-.469,2.509-.938l.355.94Q268.244,231.015,266.976,231.483Zm-202.485-.749-.486-.879q1.155-.639,2.365-1.281l.472.887Q65.64,230.1,64.492,230.735ZM272,229.585l-.361-.938q1.261-.486,2.494-.973l.369.934Q273.262,229.1,272,229.585ZM69.213,228.227l-.457-.9q1.178-.6,2.4-1.206l.445.9Q70.386,227.628,69.213,228.227Zm207.78-.615-.377-.932q1.252-.506,2.478-1.014l.385.929Q278.25,227.1,276.994,227.613ZM74.01,225.859l-.433-.907q1.2-.572,2.432-1.143l.423.912Q75.2,225.29,74.01,225.859Zm207.946-.3-.393-.925q1.243-.529,2.458-1.058l.4.921Q283.206,225.025,281.956,225.557Zm-203.09-1.946-.412-.917q1.211-.545,2.456-1.089l.4.921Q80.072,223.068,78.866,223.611Zm208.014-.2-.411-.918q1.236-.553,2.436-1.107l.422.913Q288.121,222.852,286.88,223.409ZM83.77,221.465l-.394-.925q1.223-.521,2.476-1.041l.385.927Q84.989,220.947,83.77,221.465Zm207.988-.309-.432-.908q1.224-.582,2.408-1.165l.444.9Q292.99,220.57,291.759,221.156ZM88.714,219.412l-.377-.931q1.232-.5,2.493-1l.369.934Q89.944,218.914,88.714,219.412Zm207.869-.629-.455-.9q1.21-.616,2.374-1.231l.47.889Q297.8,218.164,296.583,218.784ZM93.693,217.44l-.363-.938q1.242-.48,2.508-.96l.356.941Q94.931,216.96,93.693,217.44Zm207.646-1.171-.485-.881q1.193-.656,2.328-1.31l.5.871Q302.541,215.607,301.339,216.269ZM98.7,215.543l-.35-.942q1.249-.463,2.52-.925l.343.945Q99.947,215.081,98.7,215.543Zm5.033-1.829-.337-.947q1.257-.447,2.532-.892l.33.949Q104.988,213.268,103.735,213.714ZM306,213.579l-.521-.86q1.168-.707,2.265-1.41l.542.847Q307.182,212.865,306,213.579ZM108.792,211.95l-.326-.951q1.262-.432,2.542-.862l.32.953Q110.051,211.519,108.792,211.95Zm201.746-1.281-.566-.83c.751-.513,1.482-1.03,2.174-1.539l.6.81C312.041,209.626,311.3,210.15,310.538,210.67Zm-196.669-.424-.314-.955q1.268-.418,2.551-.833l.31.956Q115.135,209.828,113.87,210.245Zm5.1-1.649-.3-.958q1.273-.4,2.561-.805l.3.959Q120.237,208.194,118.967,208.6Zm195.918-1.133-.631-.783c.716-.576,1.4-1.153,2.023-1.717l.672.747C316.309,206.287,315.614,206.877,314.885,207.464ZM124.081,207l-.294-.962q1.277-.391,2.568-.779l.29.963Q125.356,206.611,124.081,207Zm5.13-1.544-.284-.964q1.281-.378,2.575-.755l.281.966Q130.491,205.08,129.211,205.458Zm5.145-1.494-.276-.966q1.285-.368,2.582-.731l.271.968Q135.639,203.6,134.357,203.964Zm184.548-.135-.724-.7c.642-.667,1.225-1.332,1.732-1.975l.789.623C320.175,202.448,319.571,203.138,318.905,203.829Zm-179.39-1.312-.267-.97q1.289-.355,2.588-.707l.263.97Q140.8,202.162,139.515,202.517Zm5.171-1.4-.259-.971q1.292-.344,2.595-.685l.254.973Q145.976,200.771,144.686,201.115Zm5.184-1.356-.25-.974q1.295-.333,2.6-.662l.246.974Q151.163,199.428,149.87,199.76Zm172.382-.243-.872-.5a11.474,11.474,0,0,0,1.037-2.324l.961.3A12.579,12.579,0,0,1,322.251,199.516Zm-167.187-1.069-.243-.976q1.3-.322,2.605-.641l.239.977Q156.36,198.126,155.064,198.448Zm5.206-1.269-.235-.978q1.3-.312,2.611-.619l.23.978Q161.568,196.868,160.27,197.179Zm5.216-1.227-.227-.979q1.3-.3,2.616-.6l.222.98Q166.787,195.652,165.486,195.952Zm5.224-1.185-.218-.981q1.3-.29,2.613-.576l.214.982Q172.011,194.478,170.71,194.767Zm152.06-.522a6.236,6.236,0,0,0-.56-2.4l.917-.415a7.4,7.4,0,0,1,.492,1.491,7.25,7.25,0,0,1,.157,1.288Zm-146.834-.62-.211-.983.568-.121q1.314-.28,2.624-.555l.206.984q-1.308.273-2.621.554Zm5.81-1.22-.2-.984q1.317-.27,2.63-.535l.2.986Q183.061,192.136,181.747,192.406ZM187,191.349l-.194-.986q1.319-.26,2.632-.514l.19.987Q188.316,191.09,187,191.349Zm5.26-1.015-.186-.988q1.322-.249,2.638-.492l.182.988Q193.578,190.084,192.259,190.334Zm128.548-.552a12.171,12.171,0,0,0-1.95-1.666l.574-.824a13.07,13.07,0,0,1,2.111,1.806Zm-123.279-.421-.178-.989q1.325-.238,2.642-.47l.174.99Q198.85,189.123,197.528,189.362Zm5.277-.928-.17-.99q1.326-.227,2.645-.448l.166.992Q204.128,188.207,202.8,188.434Zm5.285-.884-.163-.992q1.33-.216,2.65-.426l.157.993Q209.414,187.334,208.089,187.55Zm108.525-.76c-.737-.374-1.545-.734-2.4-1.071l.368-.936c.887.348,1.725.722,2.49,1.11Zm-103.235-.078-.153-.993q1.331-.205,2.653-.4l.148.994Q214.708,186.507,213.379,186.712Zm5.3-.791-.144-1q1.334-.193,2.657-.378l.139,1Q220.009,185.727,218.678,185.921Zm5.3-.742-.135-1q1.335-.18,2.66-.352l.129,1Q225.316,185,223.982,185.179Zm87.733-.336c-.805-.253-1.664-.5-2.552-.725l.25-.974c.9.233,1.781.481,2.6.741Zm-82.421-.355-.124-1q1.337-.168,2.662-.327l.121,1Q230.629,184.321,229.294,184.487Zm5.319-.639-.115-1q1.341-.154,2.666-.3l.11,1Q235.95,183.7,234.613,183.849Zm71.96-.337c-.839-.178-1.719-.349-2.615-.507l.176-.99c.906.16,1.8.333,2.648.513Zm-66.637-.246-.1-1q1.342-.14,2.67-.27l.1,1Q241.276,183.126,239.936,183.266Zm5.33-.524-.093-1q1.345-.125,2.674-.239l.086,1Q246.608,182.618,245.267,182.742Zm56.061-.161q-1.289-.19-2.645-.354l.122-1q1.367.167,2.668.358Zm-50.725-.3-.08-1q1.346-.108,2.675-.206l.074,1Q251.947,182.173,250.6,182.281Zm45.426-.348q-1.3-.13-2.661-.239l.081-1q1.367.11,2.68.241Zm-40.085-.046-.068-1q1.35-.09,2.679-.171l.06,1Q257.29,181.8,255.944,181.886Zm5.344-.322-.054-1q1.352-.071,2.682-.132l.046,1Q262.636,181.492,261.288,181.564ZM290.7,181.5q-1.312-.084-2.669-.15l.049-1q1.364.066,2.685.15Zm-24.067-.18-.038-1q1.354-.05,2.684-.089l.029,1Q267.986,181.271,266.636,181.321Zm18.726-.081q-1.317-.045-2.673-.075l.022-1.005q1.362.03,2.687.076Zm-13.375-.074-.021-1.005q1.357-.027,2.686-.042l.01,1.005Q273.339,181.139,271.987,181.166Zm8.028-.044q-1.243-.013-2.514-.013h-.162V180.1h.162q1.277,0,2.524.013Z" transform="translate(-41.819 -84.291)" fill="#f2e1c5"/>
          </g>
          <g id="Grupo_1175251" data-name="Grupo 1175251" transform="translate(188.582 82.588)">
            <circle id="Elipse_12139" data-name="Elipse 12139" cx="2.516" cy="2.516" r="2.516" transform="translate(0 6.874)" fill="#f2e1c5"/>
            <circle id="Elipse_12140" data-name="Elipse 12140" cx="2.516" cy="2.516" r="2.516" transform="translate(33.845 9.184)" fill="#f2e1c5"/>
            <circle id="Elipse_12141" data-name="Elipse 12141" cx="2.516" cy="2.516" r="2.516" transform="translate(19.06)" fill="#f2e1c5"/>
            <circle id="Elipse_12142" data-name="Elipse 12142" cx="2.516" cy="2.516" r="2.516" transform="translate(13.615 15.247)" fill="#f2e1c5"/>
            <path id="Trazado_1031336" data-name="Trazado 1031336" d="M315.042,63.973l-14.319-8.805.7-1.142,12.911,7.939,5.446-15.25,15.49,9.622-.707,1.139L320.485,48.73Z" transform="translate(-298.557 -45.207)" fill="#f2e1c5"/>
          </g>
        </g>
        <g id="Grupo_1175270" data-name="Grupo 1175270">
          <g id="Grupo_1175253" data-name="Grupo 1175253" transform="translate(72.375 222.15)">
            <path id="Trazado_1031337" data-name="Trazado 1031337" d="M156.585,331.5S127.769,360.651,108,444.418H303.679S292.622,366.682,276.2,339.877L203.159,337.2Z" transform="translate(-108 -331.5)" fill="#3b0315"/>
            <path id="Trazado_1031338" data-name="Trazado 1031338" d="M142.254,456.9l-1-.1c2.083-19.784,9.364-42.554,15.106-58.172,6.218-16.913,12.022-29.319,12.079-29.442l.91.426c-.058.123-5.846,12.5-12.049,29.371C151.579,414.541,144.325,437.223,142.254,456.9Z" transform="translate(-118.969 -343.93)" fill="#652c15"/>
            <path id="Trazado_1031339" data-name="Trazado 1031339" d="M207.755,458.724H206.75c0-19.255,11.268-83.211,11.382-83.855l.99.176C219.008,375.687,207.755,439.556,207.755,458.724Z" transform="translate(-140.574 -345.806)" fill="#652c15"/>
            <path id="Trazado_1031340" data-name="Trazado 1031340" d="M307.93,456.947l-1-.122c3.233-26.4-13.485-86.651-13.655-87.256l.969-.271C294.416,369.905,311.186,430.349,307.93,456.947Z" transform="translate(-169.116 -343.968)" fill="#652c15"/>
            <path id="Trazado_1031341" data-name="Trazado 1031341" d="M358.2,456.875c-.992-39.987-19.215-86.813-19.4-87.282l.936-.367c.185.47,18.473,47.456,19.469,87.624Z" transform="translate(-184.133 -343.944)" fill="#652c15"/>
          </g>
          <g id="Grupo_1175255" data-name="Grupo 1175255" transform="translate(115.701 119.741)">
            <path id="Trazado_1031342" data-name="Trazado 1031342" d="M256.337,185.692s25.557,3.351,40.97,11.169S269.3,288.527,269.3,288.527s-30.072,10.641-58.441,4.61-32.949-11.951-32.949-11.951-1.452-1.005-2.345-6.589-2.681-22.785-2.9-31.72,3.574-50.93,3.574-50.93,9.159-10.6,15.86-12.449,31.413,1.759,31.413,1.759l8.7,9.574,22.207-2.234Z" transform="translate(-172.653 -178.777)" fill="#3b0315"/>
            <path id="Trazado_1031343" data-name="Trazado 1031343" d="M231.831,345.635a90.094,90.094,0,0,1-18.683-1.845c-28.225-6-33.05-11.887-33.241-12.134l.795-.615c.044.055,4.98,5.882,32.655,11.767,27.908,5.93,57.871-4.487,58.17-4.592l.335.948A135.472,135.472,0,0,1,231.831,345.635Z" transform="translate(-175.046 -228.94)" fill="#652c15"/>
            <path id="Trazado_1031344" data-name="Trazado 1031344" d="M227.413,330.045l-1-.088c.023-.265,2.384-26.609,5.041-38.126l.98.227C229.792,303.506,227.437,329.781,227.413,330.045Z" transform="translate(-190.386 -216.006)" fill="#652c15"/>
            <path id="Trazado_1031345" data-name="Trazado 1031345" d="M239.642,304.378a1.264,1.264,0,1,0-1.264,1.264A1.264,1.264,0,0,0,239.642,304.378Z" transform="translate(-193.916 -219.728)" fill="#be6b1b"/>
            <circle id="Elipse_12143" data-name="Elipse 12143" cx="1.264" cy="1.264" r="1.264" transform="translate(41.558 94.179)" fill="#be6b1b"/>
            <path id="Trazado_1031346" data-name="Trazado 1031346" d="M235.308,336.589a1.264,1.264,0,1,0-1.263,1.264A1.263,1.263,0,0,0,235.308,336.589Z" transform="translate(-192.487 -230.353)" fill="#be6b1b"/>
            <g id="Grupo_1175254" data-name="Grupo 1175254" transform="translate(25.209)">
              <path id="Trazado_1031347" data-name="Trazado 1031347" d="M226.237,256.256l-.162-.117c-6.706-4.907-17.47-32.119-15.588-42.708,1.5-8.42,6.01-28.4,7.357-34.327l.1-.422.431.032c8.521.63,17.528,1.937,17.618,1.949l.178.026,8.654,9.519,21.717-2.184,1.961-2.967.312.041c.047.007,4.8.637,11.337,1.947l.459.092-.059.464c-1,7.741-4.287,31.342-5.063,33.67a11.947,11.947,0,0,1-2.591,4.4c-15.867,26.438-46.155,30.523-46.459,30.561Zm-7.508-76.507c-1.452,6.392-5.793,25.649-7.252,33.858-1.777,10,8.646,36.61,15.031,41.6,2.64-.4,30.625-5.169,45.555-30.105l.082-.1a10.968,10.968,0,0,0,2.386-4.042c.694-2.079,3.765-23.812,4.959-33.016-5.322-1.056-9.378-1.645-10.5-1.8l-1.875,2.839-22.7,2.283-8.752-9.627C234.386,181.45,226.422,180.337,218.729,179.749Z" transform="translate(-210.27 -178.682)" fill="#652c15"/>
              <path id="Trazado_1031348" data-name="Trazado 1031348" d="M213.033,225.189l-1-.04c.186-4.614,9.158-43.891,9.54-45.56l.98.224C222.454,180.22,213.215,220.667,213.033,225.189Z" transform="translate(-210.85 -178.981)" fill="#652c15"/>
              <path id="Trazado_1031349" data-name="Trazado 1031349" d="M215.143,230.788l-1-.1c.759-7.252,11.331-48.715,11.78-50.477l.974.249C226.787,180.887,215.893,223.61,215.143,230.788Z" transform="translate(-211.548 -179.185)" fill="#652c15"/>
              <path id="Trazado_1031350" data-name="Trazado 1031350" d="M217.8,236.377l-.992-.165c.7-4.216,12.379-53.422,12.876-55.514l.978.232C230.545,181.443,218.5,232.195,217.8,236.377Z" transform="translate(-212.428 -179.347)" fill="#652c15"/>
              <path id="Trazado_1031351" data-name="Trazado 1031351" d="M220.152,242.2c-.4-3.963,12.953-58.665,13.522-60.992l.976.239c-4.8,19.651-13.808,57.618-13.5,60.651Z" transform="translate(-213.527 -179.516)" fill="#652c15"/>
              <path id="Trazado_1031352" data-name="Trazado 1031352" d="M224.728,247.509l-1-.09c.482-5.32,12.59-63.115,13.106-65.573l.983.206C237.69,182.654,225.2,242.247,224.728,247.509Z" transform="translate(-214.709 -179.726)" fill="#652c15"/>
              <path id="Trazado_1031353" data-name="Trazado 1031353" d="M228.276,251.418l-1-.111c1.343-12.066,14.6-69.892,14.738-70.475l.98.225C242.861,181.64,229.612,239.409,228.276,251.418Z" transform="translate(-215.88 -179.391)" fill="#652c15"/>
              <path id="Trazado_1031354" data-name="Trazado 1031354" d="M232.7,255.362l-1-.068c1.024-15.083,15.007-73.876,15.148-74.467l.978.233C247.686,181.65,233.723,240.361,232.7,255.362Z" transform="translate(-217.34 -179.389)" fill="#652c15"/>
              <path id="Trazado_1031355" data-name="Trazado 1031355" d="M237.368,256.821l-1-.109c2.233-20.631,15.743-74.355,15.879-74.895l.975.246C253.087,182.6,239.594,236.259,237.368,256.821Z" transform="translate(-218.879 -179.716)" fill="#652c15"/>
              <path id="Trazado_1031356" data-name="Trazado 1031356" d="M243.38,256.33l-1.005-.023c.25-10.984,14.084-69.972,14.672-72.478l.979.229C257.883,184.671,243.627,245.451,243.38,256.33Z" transform="translate(-220.861 -180.38)" fill="#652c15"/>
              <path id="Trazado_1031357" data-name="Trazado 1031357" d="M248.487,255.834l-.994-.147c.985-6.61,13.679-69.451,13.808-70.084l.985.2C262.158,186.434,249.469,249.25,248.487,255.834Z" transform="translate(-222.549 -180.965)" fill="#652c15"/>
              <path id="Trazado_1031358" data-name="Trazado 1031358" d="M255.29,254.141l-1.005,0C254.309,247.049,266,188.11,266.5,185.6l.985.2C267.365,186.412,255.314,247.149,255.29,254.141Z" transform="translate(-224.789 -180.965)" fill="#652c15"/>
              <path id="Trazado_1031359" data-name="Trazado 1031359" d="M260.037,252.856c-.474-7.241,11.372-63.854,11.876-66.26l.984.206c-.123.588-12.322,58.883-11.857,65.988Z" transform="translate(-226.682 -181.293)" fill="#652c15"/>
              <path id="Trazado_1031360" data-name="Trazado 1031360" d="M267.082,250.822l-1.005-.022c.218-9.7,11.057-61.982,11.519-64.2l.984.2C278.467,187.345,267.3,241.21,267.082,250.822Z" transform="translate(-228.679 -181.293)" fill="#652c15"/>
              <path id="Trazado_1031361" data-name="Trazado 1031361" d="M272.68,249.406l-1.005-.036c.284-8.145,10.031-58.379,10.447-60.514l.986.192C283.007,189.571,272.96,241.339,272.68,249.406Z" transform="translate(-230.526 -182.038)" fill="#652c15"/>
              <path id="Trazado_1031362" data-name="Trazado 1031362" d="M278.755,246.65H277.75c0-4.29,9.972-55.61,10.4-57.793l.986.192C289.029,189.583,278.755,242.456,278.755,246.65Z" transform="translate(-232.529 -182.038)" fill="#652c15"/>
              <path id="Trazado_1031363" data-name="Trazado 1031363" d="M285.252,242.942l-.992-.163c.828-5.02,9.463-54.41,9.55-54.908l.99.173C294.713,188.542,286.08,237.927,285.252,242.942Z" transform="translate(-234.677 -181.713)" fill="#652c15"/>
              <path id="Trazado_1031364" data-name="Trazado 1031364" d="M292.38,238.959l-1-.06c.251-4.158,8.168-47.086,8.5-48.912l.988.183C300.787,190.616,292.626,234.863,292.38,238.959Z" transform="translate(-237.024 -182.411)" fill="#652c15"/>
              <path id="Trazado_1031365" data-name="Trazado 1031365" d="M298.5,233.377c-.17-1.625,6.114-38.376,6.831-42.561l.991.17c-2.792,16.3-6.914,41.007-6.823,42.29Z" transform="translate(-239.374 -182.685)" fill="#652c15"/>
            </g>
          </g>
          <g id="Grupo_1175261" data-name="Grupo 1175261" transform="translate(158.502 50.676)">
            <path id="Trazado_1031366" data-name="Trazado 1031366" d="M248.144,175.649s-.3-3.306,4.052-3.747,0,9.946,0,9.946l-5.7-3.853Z" transform="translate(-239.814 -107.376)" fill="#1f1007"/>
            <g id="Grupo_1175260" data-name="Grupo 1175260">
              <path id="Trazado_1031367" data-name="Trazado 1031367" d="M275.04,145.4s8.377.335,9.214-5.361-1.843-6.2-1.843-6.2,5.194-.5,10.22-7.036,1.173-9.382,1.173-9.382,3.853-1.005,4.691-6.869-1.843-7.371-1.843-7.371,1.675-4.021.335-10.89-12.9-12.4-21.947-10.555c0,0-4.691-9.214-18.429-5.026s-14.91,17.926-13.905,20.1c0,0-10.052,4.858-4.523,14.408,0,0-5.529,14.408,4.523,20.774S275.04,145.4,275.04,145.4Z" transform="translate(-236.523 -75.621)" fill="#1f1007"/>
              <g id="Grupo_1175258" data-name="Grupo 1175258" transform="translate(5.323 18.906)">
                <path id="Trazado_1031368" data-name="Trazado 1031368" d="M253.225,166.474s-.409,6.374-1.043,7.878,11.095,6.195,11.095,6.195l10.22-1.508,5.8-4.98s-.96-7.455-.062-9.968S253.225,166.474,253.225,166.474Z" transform="translate(-247.003 -123.473)" fill="#e28450"/>
                <path id="Trazado_1031369" data-name="Trazado 1031369" d="M253.75,165.956s1.173,5.026,7.539,6.143,18.474-8.526,18.474-8.526l-.3-1.769Z" transform="translate(-247.528 -122.956)" fill="#1f1007"/>
                <path id="Trazado_1031370" data-name="Trazado 1031370" d="M249.645,108.859a28.494,28.494,0,0,0-1.47,6.478c-.335,3.463-2.792,12.733-3.463,15.19s-.257,10.945,4.908,15.524c5,4.436,9.328,6.053,17.206,3.387,8.363-2.83,13.376-4.849,15.19-18.241l3.8-14.967-18.653-12.4-13.7,2.457Z" transform="translate(-244.466 -103.833)" fill="#e28450"/>
                <path id="Trazado_1031371" data-name="Trazado 1031371" d="M262.026,143.179a.349.349,0,0,1-.046,0l-.617-.067c-1.932-.2-4.337-.458-5.127-2.006-.494-.969-.273-2.241.675-3.887a47.92,47.92,0,0,0,4.168-9.832.4.4,0,1,1,.775.214,48.706,48.706,0,0,1-4.247,10.019c-.79,1.374-1.011,2.424-.655,3.121.591,1.16,2.756,1.388,4.495,1.572l.623.068a.4.4,0,0,1-.045.8Z" transform="translate(-248.264 -111.504)" fill="#1f1007"/>
                <path id="Trazado_1031372" data-name="Trazado 1031372" d="M260.124,157.005a10.862,10.862,0,0,1-5.027-1.357.4.4,0,0,1,.409-.693c.048.027,4.741,2.733,8.495.021a.4.4,0,0,1,.472.651A7.282,7.282,0,0,1,260.124,157.005Z" transform="translate(-247.908 -120.678)" fill="#1f1007"/>
                <g id="Grupo_1175256" data-name="Grupo 1175256" transform="translate(22.025 20.081)">
                  <path id="Trazado_1031373" data-name="Trazado 1031373" d="M277.333,135.721s1.2-2.29,5.138-1.871a4.415,4.415,0,0,1,4.2,3.881Z" transform="translate(-277.333 -133.799)" fill="#aa633c"/>
                  <path id="Trazado_1031374" data-name="Trazado 1031374" d="M277.333,136.3s2.589,3.351,9.336,2.01C286.669,138.314,283.476,133.846,277.333,136.3Z" transform="translate(-277.333 -134.382)" fill="#f2e1c5"/>
                  <path id="Trazado_1031375" data-name="Trazado 1031375" d="M284.518,136.928a1.668,1.668,0,1,1-1.447-1.769A1.618,1.618,0,0,1,284.518,136.928Z" transform="translate(-278.61 -134.242)" fill="#1f1007"/>
                </g>
                <g id="Grupo_1175257" data-name="Grupo 1175257" transform="translate(2.525 16.148)">
                  <path id="Trazado_1031376" data-name="Trazado 1031376" d="M248.234,130.024a3.618,3.618,0,0,1,3.938-2.074c3.1.261,3.472,3.709,3.472,3.709Z" transform="translate(-248.234 -127.93)" fill="#aa633c"/>
                  <path id="Trazado_1031377" data-name="Trazado 1031377" d="M248.234,130.619s2.186,3.243,7.41,1.634A5.336,5.336,0,0,0,248.234,130.619Z" transform="translate(-248.234 -128.525)" fill="#f2e1c5"/>
                  <path id="Trazado_1031378" data-name="Trazado 1031378" d="M253.911,131a1.353,1.353,0,0,1-1.391,1.408A1.559,1.559,0,0,1,251.3,130.7a1.353,1.353,0,0,1,1.391-1.409A1.56,1.56,0,0,1,253.911,131Z" transform="translate(-249.246 -128.375)" fill="#1f1007"/>
                </g>
                <path id="Trazado_1031379" data-name="Trazado 1031379" d="M288.838,134.665s-1.424-2.01-5.277-3.225-7.832.629-7.874-2.471,6.68-1.374,9.675.293C288.419,130.962,290.64,134.957,288.838,134.665Z" transform="translate(-254.765 -111.558)" fill="#1f1007"/>
                <path id="Trazado_1031380" data-name="Trazado 1031380" d="M289.7,147.821c-.3,1.732-2.731,2.752-5.419,2.279s-4.621-2.259-4.316-3.991,2.73-2.752,5.419-2.279S290.006,146.09,289.7,147.821Z" transform="translate(-256.166 -116.988)" fill="#ee5c39"/>
                <path id="Trazado_1031381" data-name="Trazado 1031381" d="M246.173,135.677c-.584,2.331-1.131,4.379-1.4,5.354a5.53,5.53,0,0,0-.117.565c2.191.042,3.993-.914,4.253-2.39C249.153,137.839,247.994,136.439,246.173,135.677Z" transform="translate(-244.53 -114.337)" fill="#ee5c39"/>
                <path id="Trazado_1031382" data-name="Trazado 1031382" d="M248.783,125.81a5.388,5.388,0,0,1,3.807,0c2.4.724,3.8,1.815,4.468.292s-.447-2.974-3.574-3.2-4.353,1.195-4.353,1.195A1.148,1.148,0,0,0,248.783,125.81Z" transform="translate(-245.81 -110.116)" fill="#1f1007"/>
              </g>
              <path id="Trazado_1031383" data-name="Trazado 1031383" d="M248.234,102.061a5.545,5.545,0,0,0,5.6,4.607c4.886,0,9.326-4.607,9.326-4.607a10.13,10.13,0,0,0,6.785,3.853c4.775.754,8.209,5.84,8.628,8.2s3.853,4.648,3.853,4.648-3.183,9.52,6.785,10.19l4.607-4.188-4.1-22.031L263.658,90.25l-14.24,4.523Z" transform="translate(-240.386 -80.447)" fill="#1f1007"/>
              <g id="Grupo_1175259" data-name="Grupo 1175259" transform="translate(1.325 5.782)">
                <path id="Trazado_1031384" data-name="Trazado 1031384" d="M262.772,107.133c-2.457,0-4.3-.713-5.477-2.122-2.084-2.492-1.315-6.214-1.282-6.371a.335.335,0,0,1,.655.141c-.008.035-.732,3.565,1.143,5.8,1.11,1.324,2.918,1.951,5.383,1.872h.011a.335.335,0,0,1,.011.67C263.067,107.131,262.918,107.133,262.772,107.133Z" transform="translate(-244.222 -88.909)" fill="#4c2110"/>
                <path id="Trazado_1031385" data-name="Trazado 1031385" d="M269.619,103.633a.336.336,0,0,1-.261-.125c-3.56-4.429.211-9.332.249-9.381a.336.336,0,0,1,.528.414c-.143.183-3.478,4.536-.254,8.546a.335.335,0,0,1-.261.545Z" transform="translate(-248.175 -87.466)" fill="#4c2110"/>
                <path id="Trazado_1031386" data-name="Trazado 1031386" d="M305.152,135.11a9.257,9.257,0,0,1-6.3-2.243.335.335,0,0,1,.472-.476,9.331,9.331,0,0,0,8.32,1.768.335.335,0,1,1,.143.654A12.209,12.209,0,0,1,305.152,135.11Z" transform="translate(-258.374 -100.098)" fill="#4c2110"/>
                <path id="Trazado_1031387" data-name="Trazado 1031387" d="M281.085,89.862a.335.335,0,0,1-.275-.525c.1-.148,2.574-3.642,8.744-5.078a.335.335,0,0,1,.151.653c-5.92,1.378-8.321,4.772-8.345,4.806A.334.334,0,0,1,281.085,89.862Z" transform="translate(-252.437 -84.249)" fill="#4c2110"/>
                <path id="Trazado_1031388" data-name="Trazado 1031388" d="M322.993,116.066a.333.333,0,0,1-.223-.084,7.472,7.472,0,0,0-5.994-1.512.335.335,0,0,1-.13-.658,8.009,8.009,0,0,1,6.571,1.671.335.335,0,0,1-.224.584Z" transform="translate(-264.188 -93.952)" fill="#4c2110"/>
                <path id="Trazado_1031389" data-name="Trazado 1031389" d="M238.834,127.964a.338.338,0,0,1-.164-.043.334.334,0,0,1-.127-.454,5.416,5.416,0,0,1,2.945-2.091.335.335,0,0,1,.224.632,4.9,4.9,0,0,0-2.585,1.788A.337.337,0,0,1,238.834,127.964Z" transform="translate(-238.5 -97.809)" fill="#4c2110"/>
                <path id="Trazado_1031390" data-name="Trazado 1031390" d="M296.835,162.439a.335.335,0,0,1-.121-.647,8.356,8.356,0,0,1,5.606,0,.335.335,0,0,1-.247.623,7.793,7.793,0,0,0-5.116,0A.338.338,0,0,1,296.835,162.439Z" transform="translate(-257.632 -109.666)" fill="#4c2110"/>
              </g>
            </g>
            <path id="Trazado_1031391" data-name="Trazado 1031391" d="M243.085,179.423s-1.961,15.091,13.33,17.436,24.84-6.036,27.158-11.9c0,0-2.347-.72-3.337-4.432a14.6,14.6,0,0,1-.712-5.394s-2.42,1.139-2.345,3.016c0,0-6.925-2.4-8.489,3.3,0,0-4.294-4.58-8.848.223,0,0-3.436-4.95-7.737-1.8,0,0-.525-3.619-4.412-2.236,0,0,.2-2.231-1.183-2.725C246.508,174.9,245.514,178.741,243.085,179.423Z" transform="translate(-238.66 -108.371)" fill="#ffc999"/>
          </g>
          <g id="Grupo_1175266" data-name="Grupo 1175266" transform="translate(58.913 49.286)">
            <g id="Grupo_1175264" data-name="Grupo 1175264" transform="translate(16.211 9.269)">
              <path id="Trazado_1031392" data-name="Trazado 1031392" d="M152.851,131.948s4.648.474,4.133,3.366-4.514,3.125-4.514,3.125L150,134.011Z" transform="translate(-123.291 -80.289)" fill="#1f1007"/>
              <path id="Trazado_1031393" data-name="Trazado 1031393" d="M134.677,110.8a9.036,9.036,0,0,1,.85-4.779c1.14-1.831,2.375-3.353,2.09-9.434a61.207,61.207,0,0,1,1.425-13.634s1.333-7.366,1.094-8.7-2.709-1.381-4.515.355-29.455,18.388-29.455,18.388,4.846,3.73,5.8,6.414,4.108,7.586,4.941,8.192,2.091,3.519,2.091,3.519l10.547,2.47Z" transform="translate(-104.447 -55.072)" fill="#e28450"/>
              <g id="Grupo_1175262" data-name="Grupo 1175262" transform="translate(9.614)">
                <path id="Trazado_1031394" data-name="Trazado 1031394" d="M147.986,80.272,137.629,52.408s-.3-.677-.653-1.425a9.288,9.288,0,0,1-.487-2.376V43.667h-4.7v4.941a9.3,9.3,0,0,1-.487,2.376c-.356.749-.653,1.425-.653,1.425L120.291,80.272s-1.425,2.16,2.185,3.586,9.927,1.9,11.663,1.9,8.052-.475,11.662-1.9S147.986,80.272,147.986,80.272Z" transform="translate(-120.013 -42.338)" fill="#f2e1c5"/>
                <path id="Trazado_1031395" data-name="Trazado 1031395" d="M129.946,82.25l-5.726,15.4-.038.176a3.69,3.69,0,0,0,.924.494c3.1,1.223,9,1.742,10.825,1.742s7.726-.518,10.825-1.742a3.555,3.555,0,0,0,.945-.511L141.915,82.25Z" transform="translate(-121.805 -58.925)" fill="#d1c345"/>
                <path id="Trazado_1031396" data-name="Trazado 1031396" d="M144.727,43.447H138.76a1.056,1.056,0,0,1-1.056-1.055h0a1.056,1.056,0,0,1,1.056-1.056h5.967a1.056,1.056,0,0,1,1.056,1.056h0A1.056,1.056,0,0,1,144.727,43.447Z" transform="translate(-127.618 -41.336)" fill="#f2e1c5"/>
              </g>
              <g id="Grupo_1175263" data-name="Grupo 1175263" transform="translate(0 11.737)">
                <path id="Trazado_1031397" data-name="Trazado 1031397" d="M112.764,85.341s.888-1.122,3.932-1.82,9.268-1.6,9.79-4.974c0,0,.19-.713-1.188-.95a34.491,34.491,0,0,0-4.181-.238,12.455,12.455,0,0,0,3.753-2c1.188-1.14.57-2.423-.047-2.518s-3.469,0-3.469,0,4.324-1.283,4.466-2.138.237-1.092-.95-1.52a23.176,23.176,0,0,0-5.242-.428h-1.267a42.81,42.81,0,0,0,5.844-2.993c1.425-1.093,2.376-2.28,2.043-3.278s-2.613-.523-4.751.237-7.6,2.756-9.074,3.183-4.039,1.516-4.7,2.492a4.912,4.912,0,0,0-.665,2.4,4.659,4.659,0,0,0-1.663,2.829,6.049,6.049,0,0,0,0,2.017,2.443,2.443,0,0,0-1.473,2.091,4.976,4.976,0,0,0,.617,2.708,4.824,4.824,0,0,0-1.377,3.563,6.52,6.52,0,0,0,1.71,4.109c.469.375,6.414-1.069,6.508-1.211S112.764,85.341,112.764,85.341Z" transform="translate(-103.15 -61.923)" fill="#e28450"/>
                <path id="Trazado_1031398" data-name="Trazado 1031398" d="M107.825,91.863a.342.342,0,0,1-.094-.671c.237-.068,5.843-1.673,8.073-2s6.541-.618,6.584-.621a.336.336,0,0,1,.364.319.342.342,0,0,1-.319.364c-.043,0-4.335.288-6.528.615s-7.927,1.97-7.985,1.986A.338.338,0,0,1,107.825,91.863Z" transform="translate(-105.013 -73.377)" fill="#1f1007"/>
                <path id="Trazado_1031399" data-name="Trazado 1031399" d="M110.017,83.366l-.143-.669s4.99-1.066,7.508-1.589a28.349,28.349,0,0,1,4.46-.413,12.387,12.387,0,0,0,2.3-.2.342.342,0,1,1,.209.652,11.97,11.97,0,0,1-2.482.227,27.781,27.781,0,0,0-4.346.4C115,82.3,110.017,83.366,110.017,83.366Z" transform="translate(-106.041 -69.902)" fill="#1f1007"/>
                <path id="Trazado_1031400" data-name="Trazado 1031400" d="M112.075,75.949a.342.342,0,0,1-.092-.672,67.371,67.371,0,0,1,7.564-1.721c2.187-.228,2.471-.24,2.506-.24a.342.342,0,1,1,0,.685s-.281.011-2.435.235a68.45,68.45,0,0,0-7.449,1.7A.348.348,0,0,1,112.075,75.949Z" transform="translate(-106.84 -66.821)" fill="#1f1007"/>
              </g>
            </g>
            <g id="Grupo_1175265" data-name="Grupo 1175265" transform="translate(0 61.758)">
              <path id="Trazado_1031401" data-name="Trazado 1031401" d="M164.143,164.5s-6.609-10.687-19.444-3.251c0,0-1.107-13-8.479-16.354l1.508-8.476s-15.581,4.447-24.963-2.92l-.447,10.1s-19.992,25.2-24.013,58.652,23.329,69.817,56.393,37.469a38.646,38.646,0,0,0,5.618-8.2,45.475,45.475,0,0,0,5-16.187,207.393,207.393,0,0,1,4.356-25.68s1.162-6.1,2.3-12.336C163.016,171.635,164.037,165.855,164.143,164.5Z" transform="translate(-87.913 -133.494)" fill="#3b0315"/>
              <path id="Trazado_1031402" data-name="Trazado 1031402" d="M177.715,235.892a.5.5,0,0,1-.5-.48c-.019-.427-1.9-42.874-5.3-60.661a.5.5,0,0,1,.988-.189c3.42,17.858,5.3,60.379,5.319,60.806a.5.5,0,0,1-.48.523Z" transform="translate(-115.618 -146.906)" fill="#1f1007"/>
              <path id="Trazado_1031403" data-name="Trazado 1031403" d="M135.16,151.04c-6.972,0-11.016-2.159-11.185-2.251l.48-.883a24.42,24.42,0,0,0,10.705,2.129Z" transform="translate(-99.808 -138.248)" fill="#652c15"/>
              <path id="Trazado_1031404" data-name="Trazado 1031404" d="M151.565,151.748c-.817,0-1.438-.036-1.614-.048l.066-1c1.375.088,5.2.122,6.358-.787l.621.791C155.866,151.588,153.284,151.748,151.565,151.748Z" transform="translate(-108.377 -138.909)" fill="#652c15"/>
              <circle id="Elipse_12144" data-name="Elipse 12144" cx="1.34" cy="1.34" r="1.34" transform="translate(27.311 5.7)" fill="#be6b1b"/>
            </g>
          </g>
          <g id="Grupo_1175269" data-name="Grupo 1175269">
            <g id="Grupo_1175268" data-name="Grupo 1175268">
              <g id="Grupo_1175267" data-name="Grupo 1175267" clip-path="url(#clip-path-2)">
                <path id="Trazado_1031405" data-name="Trazado 1031405" d="M249.984,465.5S235.5,482.812,234.29,483.706s.662,3.127,4.418,1.34a36.488,36.488,0,0,0,7.666-5.472S238.29,504.7,235.685,507.16s.384,4.691,3.022,3.8,11.276-16.306,11.276-16.306-6.69,19.211-5.988,20.774,2.536,1.787,4.076,0c0,0-1.1,2.681,2.345,2.457s13.38-18.094,13.38-18.094-3.355,17.45-2.068,18.106,1.795,1.551,3.216-2.47,12.249-22.561,14.095-26.805a22.192,22.192,0,0,0,1.539-9.047L261.728,469.3Z" transform="translate(-77.164 -153.552)" fill="#e28450"/>
              </g>
            </g>
            <path id="Trazado_1031406" data-name="Trazado 1031406" d="M305.705,265.639a118.555,118.555,0,0,1-1.612-22.092c.33-15.526,4.1-34.832,19.544-42.44,25.564-12.6,50.6,30.356,26.135,76.6A182.98,182.98,0,0,1,336.96,327.02a132.359,132.359,0,0,1-18.489,31.769,91.975,91.975,0,0,1-25.828,22.449l-4.16,10.387a43.41,43.41,0,0,1-30.594-14.073l5.99-11.057s20.388-57.023,33.539-71.4C297.418,295.094,300.182,273.011,305.705,265.639Z" transform="translate(-85.069 -65.604)" fill="#3b0315"/>
            <path id="Trazado_1031407" data-name="Trazado 1031407" d="M309.5,444.567a.5.5,0,0,1-.251-.938A91.621,91.621,0,0,0,334.939,421.3a131.5,131.5,0,0,0,18.417-31.648.5.5,0,1,1,.927.389,132.506,132.506,0,0,1-18.56,31.89,92.62,92.62,0,0,1-25.97,22.569A.5.5,0,0,1,309.5,444.567Z" transform="translate(-101.928 -128.43)" fill="#1f1007"/>
            <path id="Trazado_1031408" data-name="Trazado 1031408" d="M257.641,399.793a.5.5,0,0,1-.442-.742l5.972-11.024c1-2.8,20.511-57.013,33.52-71.415.277-2.146,2.965-22.062,8.233-29.359a121.371,121.371,0,0,1-1.582-21.978.5.5,0,1,1,1.005.021,119.132,119.132,0,0,0,1.6,21.988.5.5,0,0,1-.091.4c-5.381,7.18-8.164,29-8.192,29.216a.5.5,0,0,1-.127.277c-12.934,14.139-33.233,70.661-33.437,71.231a.491.491,0,0,1-.031.07l-5.99,11.057A.5.5,0,0,1,257.641,399.793Z" transform="translate(-84.821 -87.342)" fill="#1f1007"/>
            <path id="Trazado_1031409" data-name="Trazado 1031409" d="M316.628,341.56a.5.5,0,0,1-.223-.954c.241-.119,6.031-2.9,17.422-2.3a.5.5,0,0,1-.054,1c-11.1-.59-16.866,2.171-16.924,2.2A.5.5,0,0,1,316.628,341.56Z" transform="translate(-104.278 -111.567)" fill="#1f1007"/>
            <path id="Trazado_1031410" data-name="Trazado 1031410" d="M329,298.181a.5.5,0,0,1-.308-.9c.1-.074,2.4-1.8,7.252-1.1a.5.5,0,0,1,.426.568.5.5,0,0,1-.568.426c-4.386-.624-6.478.893-6.5.909A.5.5,0,0,1,329,298.181Z" transform="translate(-108.358 -97.644)" fill="#1f1007"/>
            <circle id="Elipse_12145" data-name="Elipse 12145" cx="1.34" cy="1.34" r="1.34" transform="translate(199.195 318.984)" fill="#be6b1b"/>
            <path id="Trazado_1031411" data-name="Trazado 1031411" d="M293.414,464.733c-6.616,0-13.248-3.4-17.83-6.421a63.882,63.882,0,0,1-9.291-7.467l.716-.705c.148.149,14.957,14.994,28.35,13.479l.113,1A18.208,18.208,0,0,1,293.414,464.733Z" transform="translate(-87.841 -148.486)" fill="#652c15"/>
          </g>
        </g>
      </g>
    </g>
  </g>
</svg>
