<svg xmlns="http://www.w3.org/2000/svg" xmlns:xlink="http://www.w3.org/1999/xlink" width="113" height="113" viewBox="0 0 113 113">
  <defs>
    <filter id="Trazado_982547" x="0" y="0" width="113" height="113" filterUnits="userSpaceOnUse">
      <feOffset dy="3" input="SourceAlpha"/>
      <feGaussianBlur stdDeviation="3" result="blur"/>
      <feFlood flood-opacity="0.161"/>
      <feComposite operator="in" in2="blur"/>
      <feComposite in="SourceGraphic"/>
    </filter>
  </defs>
  <g id="Grupo_1175281" data-name="Grupo 1175281" transform="translate(-171.461 -8706)">
    <g id="Grupo_1173106" data-name="Grupo 1173106" transform="translate(0.461 8040)">
      <g id="Grupo_1167505" data-name="Grupo 1167505" transform="translate(0 -151)">
        <g id="Grupo_1166845" data-name="Grupo 1166845" transform="translate(180 823)">
          <g id="Grupo_1166720" data-name="Grupo 1166720">
            <g id="Grupo_1164305" data-name="Grupo 1164305" transform="translate(0)">
              <g id="Grupo_1163948" data-name="Grupo 1163948">
                <g id="Grupo_1158168" data-name="Grupo 1158168">
                  <g id="Grupo_1152576" data-name="Grupo 1152576">
                    <g id="Grupo_1148633" data-name="Grupo 1148633">
                      <g id="Grupo_1148525" data-name="Grupo 1148525">
                        <g transform="matrix(1, 0, 0, 1, -9, -6)" filter="url(#Trazado_982547)">
                          <g id="Trazado_982547-2" data-name="Trazado 982547" transform="translate(9 6)" fill="#e9f9fd">
                            <path d="M 47.5 93.5 C 41.28937149047852 93.5 35.26533508300781 92.28397369384766 29.59518623352051 89.88570404052734 C 24.11771965026855 87.56893157958984 19.19813346862793 84.25196075439453 14.97309303283691 80.02691650390625 C 10.74804019927979 75.80186462402344 7.431066513061523 70.88229370117188 5.114293098449707 65.40481567382812 C 2.716026782989502 59.73468017578125 1.5 53.71062850952148 1.5 47.5 C 1.5 41.28937149047852 2.716026782989502 35.26533508300781 5.114293098449707 29.59518623352051 C 7.431066513061523 24.11771965026855 10.74804019927979 19.19813346862793 14.97309303283691 14.97309303283691 C 19.19813346862793 10.74804019927979 24.11771965026855 7.431066513061523 29.59518623352051 5.114293098449707 C 35.26533508300781 2.716026782989502 41.28937149047852 1.5 47.5 1.5 C 53.71062850952148 1.5 59.73468017578125 2.716026782989502 65.40481567382812 5.114293098449707 C 70.88229370117188 7.431066513061523 75.80186462402344 10.74804019927979 80.02691650390625 14.97309303283691 C 84.25196075439453 19.19813346862793 87.56893157958984 24.11771965026855 89.88570404052734 29.59518623352051 C 92.28397369384766 35.26533508300781 93.5 41.28937149047852 93.5 47.5 C 93.5 53.71062850952148 92.28397369384766 59.73468017578125 89.88570404052734 65.40481567382812 C 87.56893157958984 70.88229370117188 84.25196075439453 75.80186462402344 80.02691650390625 80.02691650390625 C 75.80186462402344 84.25196075439453 70.88229370117188 87.56893157958984 65.40481567382812 89.88570404052734 C 59.73468017578125 92.28397369384766 53.71062850952148 93.5 47.5 93.5 Z" stroke="none"/>
                            <path d="M 47.5 3 C 41.49121475219727 3 35.66376876831055 4.176155090332031 30.17950439453125 6.495796203613281 C 24.88084411621094 8.736953735351562 20.12152099609375 11.94598388671875 16.03375244140625 16.03375244140625 C 11.94598388671875 20.12152099609375 8.736953735351562 24.88084411621094 6.495796203613281 30.17950439453125 C 4.176155090332031 35.66376876831055 3 41.49121475219727 3 47.5 C 3 53.50878524780273 4.176155090332031 59.33623123168945 6.495796203613281 64.82049560546875 C 8.736953735351562 70.11915588378906 11.94598388671875 74.87847900390625 16.03375244140625 78.96624755859375 C 20.12152099609375 83.05401611328125 24.88084411621094 86.26304626464844 30.17950439453125 88.50419616699219 C 35.66376876831055 90.82384490966797 41.49121475219727 92 47.5 92 C 53.50878524780273 92 59.33623123168945 90.82384490966797 64.82049560546875 88.50419616699219 C 70.11915588378906 86.26304626464844 74.87847900390625 83.05401611328125 78.96624755859375 78.96624755859375 C 83.05401611328125 74.87847900390625 86.26304626464844 70.11915588378906 88.50419616699219 64.82049560546875 C 90.82384490966797 59.33623123168945 92 53.50878524780273 92 47.5 C 92 41.49121475219727 90.82384490966797 35.66376876831055 88.50419616699219 30.17950439453125 C 86.26304626464844 24.88084411621094 83.05401611328125 20.12152099609375 78.96624755859375 16.03375244140625 C 74.87847900390625 11.94598388671875 70.11915588378906 8.736953735351562 64.82049560546875 6.495796203613281 C 59.33623123168945 4.176155090332031 53.50878524780273 3 47.5 3 M 47.5 0 C 73.7335205078125 0 95 21.2664794921875 95 47.5 C 95 73.7335205078125 73.7335205078125 95 47.5 95 C 21.2664794921875 95 0 73.7335205078125 0 47.5 C 0 21.2664794921875 21.2664794921875 0 47.5 0 Z" stroke="none" fill="#1d7083"/>
                          </g>
                        </g>
                      </g>
                    </g>
                  </g>
                </g>
              </g>
            </g>
          </g>
        </g>
      </g>
    </g>
    <g id="alerts_18122849" transform="translate(181.57 8718.991)">
      <g id="Grupo_1175272" data-name="Grupo 1175272" transform="translate(36.098 57.809)">
        <path id="Trazado_1031412" data-name="Trazado 1031412" d="M183.522,415.15a4.829,4.829,0,0,0,4.815-4.815v-6.551h-9.63v6.551a4.829,4.829,0,0,0,4.815,4.815Z" transform="translate(-177.968 -403.045)" fill="#fcdb35" fill-rule="evenodd"/>
        <path id="Trazado_1031413" data-name="Trazado 1031413" d="M178.265,410.634a5.56,5.56,0,0,1-5.554-5.554v-6.551a.739.739,0,0,1,.739-.739h9.63a.739.739,0,0,1,.739.739v6.551a5.56,5.56,0,0,1-5.554,5.554Zm-4.076-11.366v5.812a4.076,4.076,0,0,0,8.152,0v-5.812h-8.152Z" transform="translate(-172.711 -397.79)"/>
      </g>
      <g id="Grupo_1175273" data-name="Grupo 1175273" transform="translate(20.658 23.36)">
        <path id="Trazado_1031414" data-name="Trazado 1031414" d="M73.7,164.192H53.444v-4.207c7.264-8.665,9.169-13.683,9.169-24.581a11.087,11.087,0,1,1,22.174,0c0,10.9,1.9,15.916,9.169,24.581v4.207Z" transform="translate(-52.705 -123.578)" fill="#ff6b84" fill-rule="evenodd"/>
        <path id="Trazado_1031415" data-name="Trazado 1031415" d="M88.7,159.674H48.187a.739.739,0,0,1-.739-.739v-4.207a.74.74,0,0,1,.173-.475c7.146-8.525,9-13.481,9-24.107a11.826,11.826,0,0,1,23.652,0c0,10.625,1.85,15.582,9,24.107a.739.739,0,0,1,.173.475v4.207a.739.739,0,0,1-.739.739ZM48.926,158.2H87.959V155c-7.278-8.726-9.169-13.884-9.169-24.85a10.348,10.348,0,0,0-20.7,0c0,10.966-1.891,16.124-9.169,24.85Z" transform="translate(-47.448 -118.321)"/>
      </g>
      <g id="Grupo_1175274" data-name="Grupo 1175274" transform="translate(39.584 16.243)">
        <path id="Trazado_1031416" data-name="Trazado 1031416" d="M226.764,67.948l7.317,12.67L241.4,93.291a2.745,2.745,0,0,1-2.376,4.116H209.754a2.745,2.745,0,0,1-2.373-4.116l7.313-12.673,7.317-12.67a2.742,2.742,0,0,1,4.752,0Z" transform="translate(-206.261 -65.836)" fill="#fcdb35" fill-rule="evenodd"/>
        <path id="Trazado_1031417" data-name="Trazado 1031417" d="M233.752,92.889H204.485a3.484,3.484,0,0,1-3.012-5.226l7.312-12.672,7.317-12.67a3.481,3.481,0,0,1,6.032,0l7.317,12.67,7.317,12.673a3.484,3.484,0,0,1-3.016,5.225ZM219.119,62.057a1.933,1.933,0,0,0-1.736,1l-7.317,12.67L202.753,88.4a2.006,2.006,0,0,0,1.732,3.008h29.267a2.006,2.006,0,0,0,1.736-3.008l-7.316-12.673-7.317-12.67h0a1.933,1.933,0,0,0-1.736-1Z" transform="translate(-200.992 -60.579)"/>
      </g>
      <g id="Grupo_1175275" data-name="Grupo 1175275" transform="translate(54.467 23.825)">
        <path id="Trazado_1031418" data-name="Trazado 1031418" d="M330.155,141.413h.147a1.1,1.1,0,0,0,1.1-.957l1.314-9.64a2.321,2.321,0,0,0-.57-1.9,2.628,2.628,0,0,0-3.829,0,2.332,2.332,0,0,0-.566,1.9l1.31,9.64A1.1,1.1,0,0,0,330.155,141.413Z" transform="translate(-326.984 -127.347)" fill="#fff" fill-rule="evenodd"/>
        <path id="Trazado_1031419" data-name="Trazado 1031419" d="M325.044,136.9H324.9a1.833,1.833,0,0,1-1.829-1.594l-1.311-9.643a3.063,3.063,0,0,1,.739-2.484,3.366,3.366,0,0,1,4.944,0,3.056,3.056,0,0,1,.746,2.489l-1.314,9.639a1.826,1.826,0,0,1-1.829,1.6Zm-.073-13.327a1.792,1.792,0,0,0-1.359.576,1.6,1.6,0,0,0-.39,1.313l1.31,9.642a.367.367,0,0,0,.365.318h.147a.358.358,0,0,0,.364-.316l1.314-9.643a1.594,1.594,0,0,0-.395-1.316,1.791,1.791,0,0,0-1.358-.574Z" transform="translate(-321.726 -122.091)"/>
      </g>
      <g id="Grupo_1175276" data-name="Grupo 1175276" transform="translate(55.141 39.814)">
        <path id="Trazado_1031420" data-name="Trazado 1031420" d="M335.025,261.458a1.829,1.829,0,1,0-1.831-1.831A1.833,1.833,0,0,0,335.025,261.458Z" transform="translate(-332.455 -257.061)" fill="#fff" fill-rule="evenodd"/>
        <path id="Trazado_1031421" data-name="Trazado 1031421" d="M329.769,256.941a2.568,2.568,0,1,1,2.57-2.57A2.573,2.573,0,0,1,329.769,256.941Zm0-3.658a1.09,1.09,0,1,0,1.092,1.088A1.091,1.091,0,0,0,329.769,253.283Z" transform="translate(-327.199 -251.805)"/>
      </g>
      <g id="Grupo_1175277" data-name="Grupo 1175277" transform="translate(39.222 10.009)">
        <path id="Trazado_1031422" data-name="Trazado 1031422" d="M205.708,26.092a1.666,1.666,0,0,0,1.66-1.66V17.664a1.66,1.66,0,1,0-3.319,0v6.768A1.666,1.666,0,0,0,205.708,26.092Z" transform="translate(-203.309 -15.265)" fill="#ff6b84" fill-rule="evenodd"/>
        <path id="Trazado_1031423" data-name="Trazado 1031423" d="M200.452,21.575a2.4,2.4,0,0,1-2.4-2.4V12.408a2.4,2.4,0,1,1,4.8,0v6.768A2.4,2.4,0,0,1,200.452,21.575Zm0-10.088a.922.922,0,0,0-.921.921v6.768a.921.921,0,0,0,1.842,0V12.408A.922.922,0,0,0,200.452,11.487Z" transform="translate(-198.053 -10.009)"/>
      </g>
      <g id="Grupo_1175278" data-name="Grupo 1175278" transform="translate(28.048 13.021)">
        <path id="Trazado_1031424" data-name="Trazado 1031424" d="M119.27,49.4a1.66,1.66,0,0,0,.608-2.264L116.5,41.271a1.66,1.66,0,0,0-2.876,1.66l3.386,5.86a1.657,1.657,0,0,0,2.264.608Z" transform="translate(-112.66 -39.704)" fill="#ff6b84" fill-rule="evenodd"/>
        <path id="Trazado_1031425" data-name="Trazado 1031425" d="M113.187,45.1a2.42,2.42,0,0,1-.628-.084A2.374,2.374,0,0,1,111.1,43.9l-3.385-5.857a2.4,2.4,0,0,1,4.155-2.4l3.383,5.864a2.4,2.4,0,0,1-2.071,3.6Zm-3.392-9.179A.919.919,0,0,0,109,37.3l3.385,5.858a.919.919,0,0,0,1.254.338h0a.922.922,0,0,0,.337-1.253L110.6,36.382A.924.924,0,0,0,109.795,35.922Z" transform="translate(-107.401 -34.445)"/>
      </g>
      <g id="Grupo_1175279" data-name="Grupo 1175279" transform="translate(19.873 21.219)">
        <path id="Trazado_1031426" data-name="Trazado 1031426" d="M56.041,112.812a1.664,1.664,0,0,0-.608-2.264l-5.86-3.386a1.659,1.659,0,1,0-1.66,2.872l5.86,3.386A1.666,1.666,0,0,0,56.041,112.812Z" transform="translate(-46.345 -106.204)" fill="#ff6b84" fill-rule="evenodd"/>
        <path id="Trazado_1031427" data-name="Trazado 1031427" d="M49.335,109.13a2.377,2.377,0,0,1-1.2-.322l-5.859-3.385a2.4,2.4,0,0,1-.878-3.275,2.409,2.409,0,0,1,3.274-.879l5.862,3.387a2.4,2.4,0,0,1,.879,3.273v0a2.4,2.4,0,0,1-2.083,1.2Zm-5.851-6.7a.926.926,0,0,0-.8.46.922.922,0,0,0,.337,1.253l5.861,3.386a.918.918,0,0,0,1.347-1.035.908.908,0,0,0-.425-.557l-5.861-3.387a.915.915,0,0,0-.456-.121Zm7.294,5.132h0Z" transform="translate(-41.082 -100.953)"/>
      </g>
      <g id="Grupo_1175280" data-name="Grupo 1175280" transform="translate(16.891 32.403)">
        <path id="Trazado_1031428" data-name="Trazado 1031428" d="M32.974,199.333a1.663,1.663,0,0,0-1.66-1.656H24.547a1.658,1.658,0,1,0,0,3.316h6.768A1.666,1.666,0,0,0,32.974,199.333Z" transform="translate(-22.148 -196.938)" fill="#ff6b84" fill-rule="evenodd"/>
        <path id="Trazado_1031429" data-name="Trazado 1031429" d="M26.058,196.476H19.29a2.4,2.4,0,1,1,0-4.794h6.768a2.4,2.4,0,1,1,0,4.794ZM19.29,193.16a.919.919,0,1,0,0,1.838h6.768a.919.919,0,1,0,0-1.838Z" transform="translate(-16.891 -191.682)"/>
      </g>
    </g>
  </g>
</svg>
