<svg xmlns="http://www.w3.org/2000/svg" xmlns:xlink="http://www.w3.org/1999/xlink" width="400" height="355" viewBox="0 0 400 355">
  <defs>
    <clipPath id="clip-path">
      <rect id="Rectángulo_414766" data-name="Rectángulo 414766" width="400" height="355" transform="translate(180.461 10226)" fill="#fff" stroke="#707070" stroke-width="1" opacity="0.7"/>
    </clipPath>
  </defs>
  <g id="Enmascarar_grupo_1098805" data-name="Enmascarar grupo 1098805" transform="translate(-180.461 -10226)" clip-path="url(#clip-path)">
    <g id="Grupo_1175302" data-name="Grupo 1175302" transform="translate(180 10219.364)">
      <g id="Grupo_1175282" data-name="Grupo 1175282" transform="translate(26.978 0)">
        <path id="Trazado_1031430" data-name="Trazado 1031430" d="M382.957,220.161c-9.933,96.861-102.517,139.523-109.789,142.726C202.6,393.967,95.349,386.9,51.394,314.579,4.14,236.836,58.41,130.374,128.246,84.022c48.685-32.314,134.616-55.115,197.759-7.25C391.163,126.163,383.584,214.057,382.957,220.161Z" transform="translate(-33.614 -37.88)" fill="#cee29d" opacity="0.55"/>
        <path id="Trazado_1031431" data-name="Trazado 1031431" d="M82.439,428.726c4.382,12.2-6.358,26.739-18.272,31.975-6.555,2.881-18.3,5.074-23.753-.913-6.956-7.643.9-23.624,6.4-31.062,3.531-4.781,9.782-13.243,19.185-12.789C73.579,416.3,80.138,422.319,82.439,428.726Z" transform="translate(263.197 -108.222)" fill="#cee29d" opacity="0.55"/>
        <path id="Trazado_1031432" data-name="Trazado 1031432" d="M440.834,147.9c-6.585-4.366-6.632-15.377-2.719-22.273,2.153-3.794,7.093-9.145,11.935-8.2,6.181,1.2,8.164,11.868,8.189,17.5.016,3.622.044,10.032-4.714,13.235C449.687,150.739,444.291,150.188,440.834,147.9Z" transform="translate(-433.069 -50.926)" fill="#cee29d" opacity="0.55"/>
        <path id="Trazado_1031433" data-name="Trazado 1031433" d="M439.969,50.825c-1.6-5.4,3.414-11.426,8.7-13.4,2.911-1.086,8.055-1.746,10.267.982,2.824,3.482-.974,10.211-3.537,13.3-1.648,1.984-4.564,5.5-8.626,5.067A8.484,8.484,0,0,1,439.969,50.825Z" transform="translate(-437.268 -16.192)" fill="#cee29d" opacity="0.55"/>
        <path id="Trazado_1031434" data-name="Trazado 1031434" d="M73.193,35.2c6.289.616,10.449,8.377,10.27,14.716-.1,3.488-1.584,9.119-5.357,10.27-4.817,1.469-10.215-5.325-12.345-9.3-1.369-2.552-3.791-7.07-1.63-11.117A9.525,9.525,0,0,1,73.193,35.2Z" transform="translate(266.452 -7.164)" fill="#cee29d" opacity="0.55"/>
        <path id="Trazado_1031435" data-name="Trazado 1031435" d="M416.279,436.548c6.288.616,10.448,8.377,10.269,14.716-.1,3.488-1.583,9.119-5.357,10.27-4.817,1.469-10.215-5.325-12.345-9.3-1.368-2.552-3.791-7.07-1.63-11.116A9.526,9.526,0,0,1,416.279,436.548Z" transform="translate(-377.855 -112.172)" fill="#cee29d" opacity="0.55"/>
      </g>
      <g id="OBJECTS" transform="translate(0 21.364)">
        <g id="Grupo_1175283" data-name="Grupo 1175283" transform="translate(0 214.842)">
          <path id="Trazado_1031436" data-name="Trazado 1031436" d="M100.44,336.833h31.2s21.991-9.718,34.777-7.16,33.243,16.365,33.243,16.365a118.775,118.775,0,0,0,37.334,2.557c19.435-2.045,39.721-5.966,51.825,0,9.036,4.454,10.058,15.855,10.058,15.855l18.9-8.316c.527-.232,1.052-.425,1.577-.6,4.837-2.045,9.459-3.389,12.106-3.389a13.106,13.106,0,0,1,13.354,12.842c0,5.632-4.233,10.781-9.667,12.668l-102.527,45.77a27.217,27.217,0,0,1-20.207.794l-83.329-29.6H94.3Z" transform="translate(-16.957 -327.798)" fill="#a53d31"/>
          <path id="Trazado_1031437" data-name="Trazado 1031437" d="M155.019,370.267c.739,7.053,9.824,11.41,17.16,10.64s13.34-7.781,12.6-14.834a13.106,13.106,0,0,0-14.621-11.379C162.823,355.463,154.278,363.213,155.019,370.267Z" transform="translate(93.984 -332.666)" fill="#e5b998"/>
          <path id="Trazado_1031438" data-name="Trazado 1031438" d="M105.571,385.4l-9.5,4.24a9.212,9.212,0,0,1-1.724-4.395c-.739-7.053,7.8-14.8,15.14-15.573a13.753,13.753,0,0,1,5.489.534,12.451,12.451,0,0,1,.261,2.525C115.238,378.363,111,383.512,105.571,385.4Z" transform="translate(212.615 -335.54)" fill="#e5b998"/>
          <path id="Trazado_1031439" data-name="Trazado 1031439" d="M97.061,382.682l25.542-.159,90.318,36.587a27.217,27.217,0,0,0,20.207-.794l101.376-36.3c.869-.3,4.984-2.192,10.4-4.773a14.61,14.61,0,0,1-9.253,9.626l-102.527,45.77a27.216,27.216,0,0,1-20.207.794l-83.329-29.6H94.815Z" transform="translate(-17.469 -337.007)" fill="#f0caa4" opacity="0.5" style="mix-blend-mode: multiply;isolation: isolate"/>
          <path id="Trazado_1031440" data-name="Trazado 1031440" d="M324.052,359.477c-2.647,0-7.269,1.343-12.106,3.389-.524.175-1.05.368-1.577.6l-18.9,8.316s-1.022-11.4-10.059-15.854c-12.1-5.967-32.39-2.045-51.824,0a118.777,118.777,0,0,1-37.335-2.557s-21.991-9.036-34.777-11.592-33.243,2.387-33.243,2.387H94.3l.778-7.33h31.2s21.991-9.718,34.777-7.16S194.3,346.038,194.3,346.038a118.775,118.775,0,0,0,37.334,2.557c19.435-2.045,39.721-5.966,51.825,0,9.036,4.454,10.058,15.855,10.058,15.855l18.9-8.316c.527-.232,1.052-.425,1.577-.6,4.837-2.045,9.459-3.389,12.106-3.389a13.106,13.106,0,0,1,13.354,12.842,12.382,12.382,0,0,1-2.078,6.721A13.123,13.123,0,0,0,324.052,359.477Z" transform="translate(-11.598 -327.798)" fill="#f0caa4" opacity="0.2" style="mix-blend-mode: screen;isolation: isolate"/>
          <rect id="Rectángulo_414752" data-name="Rectángulo 414752" width="24.549" height="65.463" transform="translate(68.141 4.432)" fill="#f9f9f9"/>
          <rect id="Rectángulo_414753" data-name="Rectángulo 414753" width="24.549" height="24.103" transform="translate(68.141 45.792)" fill="#e5e5e5"/>
          <rect id="Rectángulo_414754" data-name="Rectángulo 414754" width="75.812" height="74.327" fill="#343737"/>
          <rect id="Rectángulo_414755" data-name="Rectángulo 414755" width="75.812" height="26.515" transform="translate(0 47.813)" fill="#2e333b" opacity="0.5" style="mix-blend-mode: multiply;isolation: isolate"/>
          <rect id="Rectángulo_414756" data-name="Rectángulo 414756" width="75.812" height="12.223" transform="translate(0 0.032)" fill="#2e333b" opacity="0.3" style="mix-blend-mode: screen;isolation: isolate"/>
          <path id="Trazado_1031441" data-name="Trazado 1031441" d="M149.2,394.208a2.359,2.359,0,0,1,1.093-4.59l22.02,5.033s34.778-.682,51.143-2.727,25.912-7.5,26.452-19.351v-.039l2.487-1.094c5.06,23.494-29.621,25.939-29.621,25.939l-52.506,2.046Z" transform="translate(32.036 -335.894)" fill="#f0caa4" opacity="0.5" style="mix-blend-mode: multiply;isolation: isolate"/>
        </g>
        <g id="Grupo_1175285" data-name="Grupo 1175285" transform="translate(201.938 69.898)">
          <path id="Trazado_1031442" data-name="Trazado 1031442" d="M79.945,154.827V257.458c0,3.725,2.424,6.74,5.406,6.74h126.7c2.99,0,5.414-3.014,5.414-6.74V154.827c0-3.717-2.424-6.732-5.414-6.732H85.351C82.369,148.1,79.945,151.109,79.945,154.827Z" transform="translate(-79.945 -148.095)" fill="#b6b1ff"/>
          <rect id="Rectángulo_414757" data-name="Rectángulo 414757" width="65.721" height="35.153" rx="6.483" transform="translate(61.292 72.327)" fill="#faf2e6"/>
          <path id="Trazado_1031443" data-name="Trazado 1031443" d="M79.945,154.827v5.932H217.463v-5.932c0-3.717-2.424-6.732-5.414-6.732H85.351C82.369,148.1,79.945,151.109,79.945,154.827Z" transform="translate(-79.945 -148.095)" fill="#343737"/>
          <g id="Grupo_1175284" data-name="Grupo 1175284" transform="translate(109.234 4.109)">
            <circle id="Elipse_12146" data-name="Elipse 12146" cx="2.222" cy="2.222" r="2.222" transform="translate(13.334 0)" fill="#df5b66"/>
            <ellipse id="Elipse_12147" data-name="Elipse 12147" cx="2.222" cy="2.222" rx="2.222" ry="2.222" transform="translate(6.667)" fill="#ffbc00"/>
            <circle id="Elipse_12148" data-name="Elipse 12148" cx="2.222" cy="2.222" r="2.222" transform="translate(0 0)" fill="#b4e7e9"/>
          </g>
          <ellipse id="Elipse_12149" data-name="Elipse 12149" cx="7.746" cy="7.746" rx="7.746" ry="7.746" transform="translate(102.631 78.388)" fill="#ffbc00"/>
          <path id="Trazado_1031444" data-name="Trazado 1031444" d="M105.763,271.732h11.855a1.818,1.818,0,0,0,1.818-1.818h0a1.818,1.818,0,0,0-1.818-1.818H105.763a1.818,1.818,0,0,0-1.818,1.818h0A1.818,1.818,0,0,0,105.763,271.732Z" transform="translate(-1.313 -171.12)" fill="#c8c8fc"/>
        </g>
        <g id="Grupo_1175292" data-name="Grupo 1175292" transform="translate(86.109 11.172)">
          <rect id="Rectángulo_414758" data-name="Rectángulo 414758" width="215.769" height="146.27" rx="10.5" transform="translate(0)" fill="#fff"/>
          <path id="Trazado_1031445" data-name="Trazado 1031445" d="M126.445,83.91v4.178H342.214V83.91a8.484,8.484,0,0,0-8.485-8.485H134.93A8.484,8.484,0,0,0,126.445,83.91Z" transform="translate(-126.445 -75.425)" fill="#4f52a9"/>
          <circle id="Elipse_12150" data-name="Elipse 12150" cx="2.222" cy="2.222" r="2.222" transform="translate(202.432 4.109)" fill="#df5b66"/>
          <circle id="Elipse_12151" data-name="Elipse 12151" cx="2.222" cy="2.222" r="2.222" transform="translate(195.765 4.109)" fill="#ffbc00"/>
          <circle id="Elipse_12152" data-name="Elipse 12152" cx="2.222" cy="2.222" r="2.222" transform="translate(189.098 4.109)" fill="#b4e7e9"/>
          <g id="Grupo_1175288" data-name="Grupo 1175288" transform="translate(116.636 20.206)">
            <rect id="Rectángulo_414759" data-name="Rectángulo 414759" width="85.796" height="55.222" rx="6.483" transform="translate(0)" fill="#faf2e6"/>
            <rect id="Rectángulo_414760" data-name="Rectángulo 414760" width="43.226" height="43.226" rx="7.453" transform="translate(21.285 5.998)" fill="#ffbc00"/>
            <g id="Grupo_1175286" data-name="Grupo 1175286" transform="translate(7.542 23.772)">
              <path id="Trazado_1031446" data-name="Trazado 1031446" d="M159.959,133.684l-7.677,3.839v-7.677Z" transform="translate(-89.248 -129.845)" fill="#ff7d6f"/>
              <path id="Trazado_1031447" data-name="Trazado 1031447" d="M230.282,133.684l7.677,3.839v-7.677Z" transform="translate(-230.282 -129.845)" fill="#ff7d6f"/>
            </g>
            <g id="Grupo_1175287" data-name="Grupo 1175287" transform="translate(25.312 16.03)">
              <path id="Trazado_1031448" data-name="Trazado 1031448" d="M174.271,143.781l10.063-15.5,4.384,8.178,11.757-14.347,8.967,21.667Z" transform="translate(-174.271 -120.619)" fill="none" stroke="#fff" stroke-linecap="round" stroke-linejoin="round" stroke-width="0.5"/>
              <ellipse id="Elipse_12153" data-name="Elipse 12153" cx="2.366" cy="2.366" rx="2.366" ry="2.366" transform="translate(13.152)" fill="none" stroke="#fff" stroke-linecap="round" stroke-linejoin="round" stroke-width="0.5"/>
            </g>
          </g>
          <g id="Grupo_1175289" data-name="Grupo 1175289" transform="translate(17.507 22.404)">
            <line id="Línea_640" data-name="Línea 640" x1="19.668" transform="translate(63.973)" fill="none" stroke="#6a6add" stroke-linecap="round" stroke-linejoin="round" stroke-width="0.5"/>
            <line id="Línea_641" data-name="Línea 641" x1="33.421" transform="translate(50.22 5.113)" fill="none" stroke="#6a6add" stroke-linecap="round" stroke-linejoin="round" stroke-width="0.5"/>
            <line id="Línea_642" data-name="Línea 642" x1="33.421" transform="translate(50.22 10.227)" fill="none" stroke="#6a6add" stroke-linecap="round" stroke-linejoin="round" stroke-width="0.5"/>
            <line id="Línea_643" data-name="Línea 643" x1="33.421" transform="translate(50.22 15.34)" fill="none" stroke="#6a6add" stroke-linecap="round" stroke-linejoin="round" stroke-width="0.5"/>
            <line id="Línea_644" data-name="Línea 644" x1="33.421" transform="translate(50.22 20.453)" fill="none" stroke="#6a6add" stroke-linecap="round" stroke-linejoin="round" stroke-width="0.5"/>
            <line id="Línea_645" data-name="Línea 645" x1="19.668" transform="translate(63.973 30.372)" fill="none" stroke="#6a6add" stroke-linecap="round" stroke-linejoin="round" stroke-width="0.5"/>
            <line id="Línea_646" data-name="Línea 646" x1="33.421" transform="translate(50.22 35.485)" fill="none" stroke="#6a6add" stroke-linecap="round" stroke-linejoin="round" stroke-width="0.5"/>
            <line id="Línea_647" data-name="Línea 647" x1="33.421" transform="translate(50.22 40.599)" fill="none" stroke="#6a6add" stroke-linecap="round" stroke-linejoin="round" stroke-width="0.5"/>
            <line id="Línea_648" data-name="Línea 648" x1="33.421" transform="translate(50.22 45.712)" fill="none" stroke="#6a6add" stroke-linecap="round" stroke-linejoin="round" stroke-width="0.5"/>
            <line id="Línea_649" data-name="Línea 649" x1="33.421" transform="translate(50.22 50.825)" fill="none" stroke="#6a6add" stroke-linecap="round" stroke-linejoin="round" stroke-width="0.5"/>
            <line id="Línea_650" data-name="Línea 650" x1="19.668" transform="translate(13.753)" fill="none" stroke="#6a6add" stroke-linecap="round" stroke-linejoin="round" stroke-width="0.5"/>
            <line id="Línea_651" data-name="Línea 651" x1="33.421" transform="translate(0 5.113)" fill="none" stroke="#6a6add" stroke-linecap="round" stroke-linejoin="round" stroke-width="0.5"/>
            <line id="Línea_652" data-name="Línea 652" x1="33.421" transform="translate(0 10.227)" fill="none" stroke="#6a6add" stroke-linecap="round" stroke-linejoin="round" stroke-width="0.5"/>
            <line id="Línea_653" data-name="Línea 653" x1="33.421" transform="translate(0 15.34)" fill="none" stroke="#6a6add" stroke-linecap="round" stroke-linejoin="round" stroke-width="0.5"/>
            <line id="Línea_654" data-name="Línea 654" x1="33.421" transform="translate(0 20.453)" fill="none" stroke="#6a6add" stroke-linecap="round" stroke-linejoin="round" stroke-width="0.5"/>
            <line id="Línea_655" data-name="Línea 655" x1="19.668" transform="translate(13.753 30.372)" fill="none" stroke="#6a6add" stroke-linecap="round" stroke-linejoin="round" stroke-width="0.5"/>
            <line id="Línea_656" data-name="Línea 656" x1="33.421" transform="translate(0 35.485)" fill="none" stroke="#6a6add" stroke-linecap="round" stroke-linejoin="round" stroke-width="0.5"/>
            <line id="Línea_657" data-name="Línea 657" x1="33.421" transform="translate(0 40.599)" fill="none" stroke="#6a6add" stroke-linecap="round" stroke-linejoin="round" stroke-width="0.5"/>
            <line id="Línea_658" data-name="Línea 658" x1="33.421" transform="translate(0 45.712)" fill="none" stroke="#6a6add" stroke-linecap="round" stroke-linejoin="round" stroke-width="0.5"/>
            <line id="Línea_659" data-name="Línea 659" x1="33.421" transform="translate(0 50.825)" fill="none" stroke="#6a6add" stroke-linecap="round" stroke-linejoin="round" stroke-width="0.5"/>
          </g>
          <g id="Grupo_1175291" data-name="Grupo 1175291" transform="translate(24.914 92.668)">
            <rect id="Rectángulo_414761" data-name="Rectángulo 414761" width="81.823" height="40.042" rx="6.483" transform="translate(0)" fill="#ffeaac"/>
            <g id="Grupo_1175290" data-name="Grupo 1175290" transform="translate(7.788 8.313)">
              <path id="Trazado_1031449" data-name="Trazado 1031449" d="M336.448,223l-18.991-12.728-6.364,7.576L293.415,205.42l-8.889,4.041L272.3,201.682" transform="translate(-271.252 -200.631)" fill="none" stroke="#ffa07f" stroke-linecap="round" stroke-linejoin="round" stroke-width="0.5"/>
              <path id="Trazado_1031450" data-name="Trazado 1031450" d="M271.115,227.808a1.051,1.051,0,1,0,1.051-1.051A1.051,1.051,0,0,0,271.115,227.808Z" transform="translate(-207.061 -205.443)" fill="#b74352"/>
              <path id="Trazado_1031451" data-name="Trazado 1031451" d="M350.378,201.433a1.051,1.051,0,1,0,1.051-1.051A1.051,1.051,0,0,0,350.378,201.433Z" transform="translate(-350.378 -200.382)" fill="#b74352"/>
            </g>
          </g>
        </g>
        <g id="Grupo_1175297" data-name="Grupo 1175297" transform="translate(52.149)">
          <g id="Grupo_1175293" data-name="Grupo 1175293" transform="translate(229.728 92.392)">
            <rect id="Rectángulo_414762" data-name="Rectángulo 414762" width="40.002" height="40.002" rx="6.483" transform="translate(0)" fill="#343737"/>
            <path id="Trazado_1031452" data-name="Trazado 1031452" d="M112.007,197.319a11.164,11.164,0,0,1,.1-1.518l-3.165-1.809a14.129,14.129,0,0,1,1.783-4.317l3.525.959a10.866,10.866,0,0,1,2.149-2.148l-.965-3.525a14.227,14.227,0,0,1,4.323-1.784l1.809,3.17a11.095,11.095,0,0,1,3.035,0l1.809-3.17a14.227,14.227,0,0,1,4.323,1.784l-.965,3.525a10.866,10.866,0,0,1,2.149,2.148l3.525-.959a14.11,14.11,0,0,1,1.783,4.317l-3.165,1.809a11.133,11.133,0,0,1,0,3.04l3.165,1.809a14.11,14.11,0,0,1-1.783,4.317l-3.525-.959a10.742,10.742,0,0,1-2.149,2.149l.965,3.524a14.225,14.225,0,0,1-4.323,1.784l-1.809-3.17a10.6,10.6,0,0,1-3.035,0l-1.809,3.17a14.225,14.225,0,0,1-4.323-1.784l.965-3.524a10.743,10.743,0,0,1-2.149-2.149l-3.525.959a14.13,14.13,0,0,1-1.783-4.317l3.165-1.809A11.245,11.245,0,0,1,112.007,197.319Zm11.081,3.859a3.856,3.856,0,1,0-3.859-3.859A3.856,3.856,0,0,0,123.088,201.178Z" transform="translate(-103.087 -177.321)" fill="#fff"/>
          </g>
          <g id="Grupo_1175295" data-name="Grupo 1175295" transform="translate(259.023 30.704)">
            <rect id="Rectángulo_414763" data-name="Rectángulo 414763" width="36.366" height="24.042" rx="6.483" transform="translate(0)" fill="#df5b66"/>
            <g id="Grupo_1175294" data-name="Grupo 1175294" transform="translate(4.704 6.888)">
              <path id="Trazado_1031453" data-name="Trazado 1031453" d="M75.767,108.118l7.677,5.133-7.677,5.133" transform="translate(-56.487 -108.118)" fill="none" stroke="#fff" stroke-linecap="round" stroke-linejoin="round" stroke-width="1"/>
              <path id="Trazado_1031454" data-name="Trazado 1031454" d="M107.3,118.384l-7.677-5.133,7.677-5.133" transform="translate(-99.624 -108.118)" fill="none" stroke="#fff" stroke-linecap="round" stroke-linejoin="round" stroke-width="1"/>
            </g>
            <line id="Línea_660" data-name="Línea 660" x1="4.849" y1="10.266" transform="translate(15.758 6.888)" fill="none" stroke="#fff" stroke-linecap="round" stroke-linejoin="round" stroke-width="1"/>
          </g>
          <g id="Grupo_1175296" data-name="Grupo 1175296">
            <path id="Trazado_1031455" data-name="Trazado 1031455" d="M382.63,76.581c.268,0,.532.014.8.035a11.252,11.252,0,0,1,21.024-8.01,8.827,8.827,0,0,1,11.957,7.908,9.693,9.693,0,0,1-2.6,19.032c-5.354,0-25.921.077-31.179.077a9.521,9.521,0,1,1,0-19.042Z" transform="translate(-373.109 -61.601)" fill="#b4e7e9"/>
            <path id="Trazado_1031456" data-name="Trazado 1031456" d="M389.873,96.375l11.709-11.709,11.71,11.709h-6.425v12.2h-10.63v-12.2Z" transform="translate(-376.445 -66.027)" fill="#343737"/>
          </g>
        </g>
        <g id="Grupo_1175299" data-name="Grupo 1175299" transform="translate(71.071 137.578)">
          <rect id="Rectángulo_414764" data-name="Rectángulo 414764" width="79.248" height="65.054" rx="9.875" transform="translate(0)" fill="#6168bd"/>
          <g id="Grupo_1175298" data-name="Grupo 1175298" transform="translate(28.554 16.23)">
            <rect id="Rectángulo_414765" data-name="Rectángulo 414765" width="19.193" height="6.061" transform="translate(14.228)" fill="#fff"/>
            <line id="Línea_661" data-name="Línea 661" x1="15.627" transform="translate(17.793 12.141)" fill="none" stroke="#fff" stroke-linecap="round" stroke-linejoin="round" stroke-width="0.5"/>
            <line id="Línea_662" data-name="Línea 662" x1="33.421" transform="translate(0 17.255)" fill="none" stroke="#fff" stroke-linecap="round" stroke-linejoin="round" stroke-width="0.5"/>
            <line id="Línea_663" data-name="Línea 663" x1="33.421" transform="translate(0 22.368)" fill="none" stroke="#fff" stroke-linecap="round" stroke-linejoin="round" stroke-width="0.5"/>
            <line id="Línea_664" data-name="Línea 664" x1="33.421" transform="translate(0 27.481)" fill="none" stroke="#fff" stroke-linecap="round" stroke-linejoin="round" stroke-width="0.5"/>
            <line id="Línea_665" data-name="Línea 665" x1="33.421" transform="translate(0 32.595)" fill="none" stroke="#fff" stroke-linecap="round" stroke-linejoin="round" stroke-width="0.5"/>
          </g>
        </g>
        <g id="Grupo_1175301" data-name="Grupo 1175301" transform="translate(197.497 125.173)">
          <path id="Trazado_1031457" data-name="Trazado 1031457" d="M137.756,275.938a4.449,4.449,0,0,0,0,6.29l41.931,41.931a4.449,4.449,0,0,0,6.29,0l1.572-1.573a4.446,4.446,0,0,0,0-6.29l-41.931-41.931a4.446,4.446,0,0,0-6.29,0Z" transform="translate(-92.559 -227.349)" fill="#343737"/>
          <path id="Trazado_1031458" data-name="Trazado 1031458" d="M163.736,293.07a1.251,1.251,0,0,0,0,1.768l10.61,10.61a1.251,1.251,0,0,0,1.768,0l10.61-10.61a1.251,1.251,0,0,0,0-1.768l-10.61-10.61a1.249,1.249,0,0,0-1.768,0Z" transform="translate(-112.549 -229.082)" fill="#ffbc00"/>
          <path id="Trazado_1031459" data-name="Trazado 1031459" d="M160.216,255.039a38.545,38.545,0,1,0,38.545-38.544A38.545,38.545,0,0,0,160.216,255.039Z" transform="translate(-160.216 -216.495)" fill="#343737"/>
          <g id="Grupo_1175300" data-name="Grupo 1175300" transform="translate(6.365 6.365)">
            <path id="Trazado_1031460" data-name="Trazado 1031460" d="M170,256.917a30.638,30.638,0,1,0,30.638-30.638A30.638,30.638,0,0,0,170,256.917Z" transform="translate(-168.458 -224.737)" fill="#b4e7e9"/>
            <path id="Trazado_1031461" data-name="Trazado 1031461" d="M200.272,225.913a30.638,30.638,0,1,0,30.638,30.638,30.638,30.638,0,0,0-30.638-30.638m0-1.542a32.18,32.18,0,1,1-32.18,32.18,32.216,32.216,0,0,1,32.18-32.18Z" transform="translate(-168.092 -224.371)" fill="#fff"/>
          </g>
          <path id="Trazado_1031462" data-name="Trazado 1031462" d="M175.93,238.238c-5.258,10.033.672,23.505,13.242,30.091s27.023,3.795,32.28-6.238-.672-23.5-13.243-30.091S181.186,228.206,175.93,238.238Z" transform="translate(-157.428 -218.785)" fill="#fff" opacity="0.5"/>
          <path id="Trazado_1031463" data-name="Trazado 1031463" d="M183.01,234.814c-2.846,5.433.335,12.713,7.106,16.261s14.567,2.02,17.413-3.413-.333-12.713-7.105-16.261S185.858,229.382,183.01,234.814Z" transform="translate(-149.061 -218.988)" fill="#fff" opacity="0.5"/>
        </g>
      </g>
    </g>
  </g>
</svg>
