<svg xmlns="http://www.w3.org/2000/svg" xmlns:xlink="http://www.w3.org/1999/xlink" width="110" height="110" viewBox="0 0 110 110">
  <defs>
    <filter id="Trazado_982547" x="0" y="0" width="110" height="110" filterUnits="userSpaceOnUse">
      <feOffset dy="3" input="SourceAlpha"/>
      <feGaussianBlur stdDeviation="3" result="blur"/>
      <feFlood flood-opacity="0.161"/>
      <feComposite operator="in" in2="blur"/>
      <feComposite in="SourceGraphic"/>
    </filter>
  </defs>
  <g id="Grupo_1175310" data-name="Grupo 1175310" transform="translate(-377.461 -10653)">
    <g id="Grupo_1171414" data-name="Grupo 1171414" transform="translate(386.461 10659)">
      <g id="Grupo_1163801" data-name="Grupo 1163801" transform="translate(0 0)">
        <g id="Grupo_1163014" data-name="Grupo 1163014">
          <g id="Grupo_1157015" data-name="Grupo 1157015" transform="translate(0 0)">
            <g id="Grupo_1155792" data-name="Grupo 1155792" transform="translate(0 0)">
              <g id="Grupo_1154703" data-name="Grupo 1154703">
                <g id="Grupo_1150789" data-name="Grupo 1150789">
                  <g id="Grupo_1154212" data-name="Grupo 1154212">
                    <g id="Grupo_1152583" data-name="Grupo 1152583">
                      <g id="Grupo_1146973" data-name="Grupo 1146973" transform="translate(0 0)">
                        <g id="Grupo_1146954" data-name="Grupo 1146954">
                          <g transform="matrix(1, 0, 0, 1, -9, -6)" filter="url(#Trazado_982547)">
                            <g id="Trazado_982547-2" data-name="Trazado 982547" transform="translate(9 6)" fill="#f2f7e5">
                              <path d="M 46.00000381469727 90.49988555908203 C 39.99188232421875 90.49988555908203 34.16427230834961 89.32352447509766 28.67905807495117 87.00347137451172 C 23.38020324707031 84.76226043701172 18.62103080749512 81.55342864990234 14.53375053405762 77.46615600585938 C 10.44645690917969 73.37887573242188 7.237643718719482 68.61971282958984 4.996417045593262 63.32085800170898 C 2.676363706588745 57.83565902709961 1.500003814697266 52.00806045532227 1.500003814697266 45.99993896484375 C 1.500003814697266 39.99181747436523 2.676363706588745 34.16421890258789 4.996417045593262 28.67901802062988 C 7.237643718719482 23.38017845153809 10.44645690917969 18.62101936340332 14.53375053405762 14.53373908996582 C 18.62103080749512 10.44645881652832 23.38020324707031 7.237632274627686 28.67905807495117 4.996418952941895 C 34.16427230834961 2.676365613937378 39.99188232421875 1.500005602836609 46.00000381469727 1.500005602836609 C 52.00812530517578 1.500005602836609 57.83573532104492 2.676365613937378 63.32094955444336 4.996418952941895 C 68.61980438232422 7.237632274627686 73.37896728515625 10.44645881652832 77.46625518798828 14.53373908996582 C 81.55353546142578 18.62101936340332 84.76236724853516 23.38017845153809 87.00359344482422 28.67901802062988 C 89.32364654541016 34.16421890258789 90.5 39.99181747436523 90.5 45.99993896484375 C 90.5 52.00806045532227 89.32364654541016 57.83565902709961 87.00359344482422 63.32085800170898 C 84.76236724853516 68.61971282958984 81.55353546142578 73.37887573242188 77.46625518798828 77.46615600585938 C 73.37896728515625 81.55342864990234 68.61980438232422 84.76226043701172 63.32094955444336 87.00347137451172 C 57.83573532104492 89.32352447509766 52.00812530517578 90.49988555908203 46.00000381469727 90.49988555908203 Z" stroke="none"/>
                              <path d="M 46.00000381469727 2.999992370605469 C 40.19371795654297 2.999992370605469 34.56270217895508 4.136497497558594 29.26338958740234 6.377906799316406 C 24.14333343505859 8.543510437011719 19.54441833496094 11.64437866210938 15.59440612792969 15.59439849853516 C 11.64440155029297 19.54439544677734 8.54351806640625 24.14329528808594 6.377914428710938 29.26335144042969 C 4.136505126953125 34.56266784667969 3.000007629394531 40.19366836547852 3.000007629394531 45.99993896484375 C 3.000007629394531 51.80620956420898 4.136505126953125 57.43722534179688 6.377914428710938 62.73654174804688 C 8.54351806640625 67.85658264160156 11.64440155029297 72.45548248291016 15.59440612792969 76.40549468994141 C 19.54441833496094 80.35549926757812 24.14333343505859 83.45636749267578 29.26337432861328 85.62196350097656 C 34.56270217895508 87.86338043212891 40.19371795654297 88.9998779296875 46.00000381469727 88.9998779296875 C 51.80628967285156 88.9998779296875 57.43730545043945 87.86338043212891 62.73663330078125 85.62196350097656 C 67.85667419433594 83.45636749267578 72.45558929443359 80.35549926757812 76.40560150146484 76.40549468994141 C 80.35560607910156 72.45548248291016 83.45648956298828 67.85658264160156 85.62208557128906 62.73654174804688 C 87.86350250244141 57.43722534179688 89 51.80620956420898 89 45.99993896484375 C 89 40.19366836547852 87.86350250244141 34.56266784667969 85.62208557128906 29.26335144042969 C 83.45648956298828 24.14329528808594 80.35560607910156 19.54439544677734 76.40560150146484 15.59439849853516 C 72.45558929443359 11.64437866210938 67.85667419433594 8.543510437011719 62.73661804199219 6.377906799316406 C 57.43730545043945 4.136497497558594 51.80628967285156 2.999992370605469 46.00000381469727 2.999992370605469 M 46.00000381469727 -7.62939453125e-06 C 71.40510559082031 -7.62939453125e-06 92 20.59487915039062 92 45.99993896484375 C 92 71.40501403808594 71.40510559082031 91.99988555908203 46.00000381469727 91.99988555908203 C 20.59490203857422 91.99988555908203 7.62939453125e-06 71.40501403808594 7.62939453125e-06 45.99993896484375 C 7.62939453125e-06 20.59487915039062 20.59490203857422 -7.62939453125e-06 46.00000381469727 -7.62939453125e-06 Z" stroke="none" fill="#86b60c"/>
                            </g>
                          </g>
                        </g>
                      </g>
                    </g>
                  </g>
                </g>
              </g>
            </g>
          </g>
        </g>
      </g>
    </g>
    <g id="pyramid_14832309" transform="translate(397.579 10666.5)">
      <g id="Grupo_1175303" data-name="Grupo 1175303" transform="translate(7.891 7.517)">
        <path id="Trazado_1031464" data-name="Trazado 1031464" d="M168.884,195.076l-13.768-.026-4.889,8.361,23.545.025Z" transform="translate(-134.38 -174.176)" fill="#54e072"/>
        <path id="Trazado_1031465" data-name="Trazado 1031465" d="M154.573,200.847l3.386-5.791-2.844-.005-4.889,8.361,23.545.025-1.514-2.589Z" transform="translate(-134.38 -174.176)" fill="#00ca0f"/>
        <path id="Trazado_1031466" data-name="Trazado 1031466" d="M126.819,270.138l-23.545-.025-5.885,10.065h35.3Z" transform="translate(-87.428 -240.878)" fill="#f696c3"/>
        <path id="Trazado_1031467" data-name="Trazado 1031467" d="M101.673,277.833l4.512-7.717-2.911,0-5.885,10.065h35.3l-1.372-2.346Z" transform="translate(-87.428 -240.878)" fill="#f072ae"/>
        <path id="Trazado_1031468" data-name="Trazado 1031468" d="M58.013,360.478h-35.3l-9.361,16.009H67.374Z" transform="translate(-12.751 -321.177)" fill="#5b92f2"/>
        <path id="Trazado_1031469" data-name="Trazado 1031469" d="M200.994,89.474l-6.876,11.76,13.768.026Z" transform="translate(-173.382 -80.36)" fill="#fee95d"/>
        <path id="Trazado_1031470" data-name="Trazado 1031470" d="M198.176,98.846l4.149-7.1-1.331-2.276-6.876,11.76,13.768.026-1.4-2.4Z" transform="translate(-173.382 -80.36)" fill="#f7d700"/>
        <path id="Trazado_1031471" data-name="Trazado 1031471" d="M67.374,376.487l-1.521-2.6H25.647a9.991,9.991,0,0,0,3.284-13.408H22.712l-9.361,16.009Z" transform="translate(-12.751 -321.177)" fill="#006dee"/>
        <circle id="Elipse_12154" data-name="Elipse 12154" cx="7.527" cy="7.527" r="7.527" transform="translate(0 36.761)" fill="#b6e6fa"/>
        <path id="Trazado_1031472" data-name="Trazado 1031472" d="M17.083,362.843a7.526,7.526,0,0,1-6.059-11.991,7.527,7.527,0,1,0,10.524,10.524A7.492,7.492,0,0,1,17.083,362.843Z" transform="translate(-7.961 -312.624)" fill="#8ad8f6"/>
        <path id="Trazado_1031473" data-name="Trazado 1031473" d="M35.213,439.955a7.918,7.918,0,0,0-5.053,1.812,7.655,7.655,0,0,0,10.108,0C39.721,441.319,38.9,439.955,35.213,439.955Z" transform="translate(-27.687 -391.802)" fill="#f696c3"/>
        <path id="Trazado_1031474" data-name="Trazado 1031474" d="M37,446.54a7.775,7.775,0,0,1-4.73-1.521,7.944,7.944,0,0,0-2.111,1.248,7.655,7.655,0,0,0,10.108,0c-.11-.09-.231-.218-.384-.363A7.575,7.575,0,0,1,37,446.54Z" transform="translate(-27.686 -396.302)" fill="#f072ae"/>
        <path id="Trazado_1031475" data-name="Trazado 1031475" d="M57.5,371.58h0a2.259,2.259,0,0,1-2.259-2.259v-.75a2.259,2.259,0,0,1,2.259-2.259h0a2.259,2.259,0,0,1,2.259,2.259v.75A2.259,2.259,0,0,1,57.5,371.58Z" transform="translate(-49.977 -326.361)" fill="#ffdaaa"/>
        <path id="Trazado_1031476" data-name="Trazado 1031476" d="M59.155,370.45h0a2.259,2.259,0,0,1-2.259-2.259v-.75a2.267,2.267,0,0,1,.066-.541,2.26,2.26,0,0,0-1.718,2.194v.75A2.259,2.259,0,0,0,57.5,372.1h0a2.26,2.26,0,0,0,2.194-1.718A2.258,2.258,0,0,1,59.155,370.45Z" transform="translate(-49.976 -326.884)" fill="#ffb680"/>
        <circle id="Elipse_12155" data-name="Elipse 12155" cx="7.527" cy="7.527" r="7.527" transform="translate(20.029 0)" fill="#b6e6fa"/>
        <path id="Trazado_1031477" data-name="Trazado 1031477" d="M196.9,32.815a7.526,7.526,0,0,1-6.059-11.991,7.527,7.527,0,1,0,10.524,10.524A7.492,7.492,0,0,1,196.9,32.815Z" transform="translate(-167.747 -19.356)" fill="#8ad8f6"/>
        <path id="Trazado_1031478" data-name="Trazado 1031478" d="M215.028,109.927a7.917,7.917,0,0,0-5.053,1.812,7.655,7.655,0,0,0,10.107,0C219.536,111.291,218.714,109.927,215.028,109.927Z" transform="translate(-187.473 -98.535)" fill="#5b92f2"/>
        <path id="Trazado_1031479" data-name="Trazado 1031479" d="M216.815,116.511a7.775,7.775,0,0,1-4.73-1.521,7.944,7.944,0,0,0-2.111,1.248,7.655,7.655,0,0,0,10.108,0c-.11-.09-.231-.218-.384-.363A7.573,7.573,0,0,1,216.815,116.511Z" transform="translate(-187.472 -103.034)" fill="#006dee"/>
        <path id="Trazado_1031480" data-name="Trazado 1031480" d="M237.318,41.552h0a2.259,2.259,0,0,1-2.259-2.259v-.75a2.259,2.259,0,0,1,2.259-2.259h0a2.259,2.259,0,0,1,2.259,2.259v.75A2.259,2.259,0,0,1,237.318,41.552Z" transform="translate(-209.763 -33.094)" fill="#ffdaaa"/>
        <path id="Trazado_1031481" data-name="Trazado 1031481" d="M238.969,40.421h0a2.259,2.259,0,0,1-2.259-2.259v-.75a2.267,2.267,0,0,1,.066-.541,2.26,2.26,0,0,0-1.718,2.194v.75a2.259,2.259,0,0,0,2.259,2.259h0a2.26,2.26,0,0,0,2.194-1.718A2.257,2.257,0,0,1,238.969,40.421Z" transform="translate(-209.761 -33.616)" fill="#ffb680"/>
        <circle id="Elipse_12156" data-name="Elipse 12156" cx="7.527" cy="7.527" r="7.527" transform="translate(36.793 27.337)" fill="#b6e6fa"/>
        <path id="Trazado_1031482" data-name="Trazado 1031482" d="M347.4,278.239a7.526,7.526,0,0,1-6.059-11.991,7.527,7.527,0,1,0,10.524,10.524A7.492,7.492,0,0,1,347.4,278.239Z" transform="translate(-301.483 -237.443)" fill="#8ad8f6"/>
        <path id="Trazado_1031483" data-name="Trazado 1031483" d="M365.528,355.351a7.917,7.917,0,0,0-5.053,1.812,7.655,7.655,0,0,0,10.108,0C370.036,356.715,369.214,355.351,365.528,355.351Z" transform="translate(-321.209 -316.621)" fill="#54e072"/>
        <path id="Trazado_1031484" data-name="Trazado 1031484" d="M367.315,361.935a7.775,7.775,0,0,1-4.73-1.521,7.944,7.944,0,0,0-2.111,1.248,7.655,7.655,0,0,0,10.107,0c-.11-.09-.231-.218-.384-.363A7.575,7.575,0,0,1,367.315,361.935Z" transform="translate(-321.208 -321.12)" fill="#00ca0f"/>
        <path id="Trazado_1031485" data-name="Trazado 1031485" d="M387.818,286.976h0a2.259,2.259,0,0,1-2.259-2.259v-.75a2.259,2.259,0,0,1,2.259-2.259h0a2.259,2.259,0,0,1,2.259,2.259v.75A2.259,2.259,0,0,1,387.818,286.976Z" transform="translate(-343.499 -251.181)" fill="#ffdaaa"/>
        <path id="Trazado_1031486" data-name="Trazado 1031486" d="M389.469,285.845h0a2.259,2.259,0,0,1-2.259-2.259v-.75a2.267,2.267,0,0,1,.066-.541,2.26,2.26,0,0,0-1.718,2.194v.75a2.259,2.259,0,0,0,2.259,2.259h0a2.26,2.26,0,0,0,2.194-1.718A2.257,2.257,0,0,1,389.469,285.845Z" transform="translate(-343.498 -251.703)" fill="#ffb680"/>
        <line id="Línea_666" data-name="Línea 666" x2="1.67" transform="translate(21.764 24.263)" fill="none" stroke="#fff" stroke-miterlimit="10" stroke-width="1.5"/>
        <line id="Línea_667" data-name="Línea 667" x2="1.67" transform="translate(25.106 24.263)" fill="none" stroke="#fff" stroke-miterlimit="10" stroke-width="1.5"/>
      </g>
      <g id="Grupo_1175309" data-name="Grupo 1175309" transform="translate(7.882 7.5)">
        <g id="Grupo_1175304" data-name="Grupo 1175304" transform="translate(20.049 0)">
          <path id="Trazado_1031487" data-name="Trazado 1031487" d="M192.088,8.283a7.582,7.582,0,1,1-1.548,1.02" transform="translate(-187.873 -7.5)" fill="none" stroke="#000" stroke-miterlimit="10" stroke-width="1.5"/>
          <path id="Trazado_1031488" data-name="Trazado 1031488" d="M239.554,42.364h0a2.042,2.042,0,0,1-2.042-2.042v-.909a2.042,2.042,0,0,1,2.042-2.042h0a2.042,2.042,0,0,1,2.042,2.042v.909A2.042,2.042,0,0,1,239.554,42.364Z" transform="translate(-231.983 -34.045)" fill="none" stroke="#000" stroke-miterlimit="10" stroke-width="1.5"/>
          <path id="Trazado_1031489" data-name="Trazado 1031489" d="M210.855,114.686a7.851,7.851,0,0,1,5.011-1.8h0a7.852,7.852,0,0,1,5.012,1.8" transform="translate(-208.295 -101.15)" fill="none" stroke="#000" stroke-miterlimit="10" stroke-width="1.5"/>
        </g>
        <g id="Grupo_1175305" data-name="Grupo 1175305" transform="translate(36.757 27.337)">
          <circle id="Elipse_12157" data-name="Elipse 12157" cx="7.572" cy="7.572" r="7.572" fill="none" stroke="#000" stroke-miterlimit="10" stroke-width="1.5"/>
          <path id="Trazado_1031490" data-name="Trazado 1031490" d="M389.554,287.788h0a2.042,2.042,0,0,1-2.042-2.042v-.909a2.042,2.042,0,0,1,2.042-2.042h0a2.042,2.042,0,0,1,2.042,2.042v.909A2.042,2.042,0,0,1,389.554,287.788Z" transform="translate(-381.983 -279.469)" fill="none" stroke="#000" stroke-miterlimit="10" stroke-width="1.5"/>
          <path id="Trazado_1031491" data-name="Trazado 1031491" d="M360.855,360.11a7.851,7.851,0,0,1,5.011-1.8h0a7.852,7.852,0,0,1,5.012,1.8" transform="translate(-358.295 -346.574)" fill="none" stroke="#000" stroke-miterlimit="10" stroke-width="1.5"/>
        </g>
        <g id="Grupo_1175306" data-name="Grupo 1175306" transform="translate(0 36.761)">
          <circle id="Elipse_12158" data-name="Elipse 12158" cx="7.572" cy="7.572" r="7.572" fill="none" stroke="#000" stroke-miterlimit="10" stroke-width="1.5"/>
          <path id="Trazado_1031492" data-name="Trazado 1031492" d="M59.564,372.392h0a2.042,2.042,0,0,1-2.042-2.042v-.909a2.042,2.042,0,0,1,2.042-2.042h0a2.042,2.042,0,0,1,2.042,2.042v.909A2.042,2.042,0,0,1,59.564,372.392Z" transform="translate(-51.993 -364.073)" fill="none" stroke="#000" stroke-miterlimit="10" stroke-width="1.5"/>
          <path id="Trazado_1031493" data-name="Trazado 1031493" d="M30.865,444.715a7.851,7.851,0,0,1,5.011-1.8h0a7.852,7.852,0,0,1,5.012,1.8" transform="translate(-28.305 -431.179)" fill="none" stroke="#000" stroke-miterlimit="10" stroke-width="1.5"/>
        </g>
        <line id="Línea_668" data-name="Línea 668" x1="8.675" y1="14.8" transform="translate(30.697 14.492)" fill="none" stroke="#000" stroke-miterlimit="10" stroke-width="1.5"/>
        <path id="Trazado_1031494" data-name="Trazado 1031494" d="M420.851,398.289h8.633L421.7,385.013" transform="translate(-374.852 -342.963)" fill="none" stroke="#000" stroke-miterlimit="10" stroke-width="1.5"/>
        <path id="Trazado_1031495" data-name="Trazado 1031495" d="M16.1,462.02l-2.754,4.7h43.72" transform="translate(-12.742 -411.392)" fill="none" stroke="#000" stroke-miterlimit="10" stroke-width="1.5"/>
        <line id="Línea_669" data-name="Línea 669" x1="13.535" y2="23.092" transform="translate(11.009 14.492)" fill="none" stroke="#000" stroke-miterlimit="10" stroke-width="1.5"/>
        <line id="Línea_670" data-name="Línea 670" x2="24.928" transform="translate(13.244 39.317)" fill="none" stroke="#000" stroke-miterlimit="10" stroke-width="1.5"/>
        <line id="Línea_671" data-name="Línea 671" x2="22.784" transform="translate(15.925 29.292)" fill="none" stroke="#000" stroke-miterlimit="10" stroke-width="1.5"/>
        <line id="Línea_672" data-name="Línea 672" x2="13.65" transform="translate(20.826 20.938)" fill="none" stroke="#000" stroke-miterlimit="10" stroke-width="1.5"/>
        <g id="Grupo_1175307" data-name="Grupo 1175307" transform="translate(38.065 2.227)">
          <line id="Línea_673" data-name="Línea 673" y1="2.363" x2="2.363" transform="translate(0)" fill="none" stroke="#000" stroke-miterlimit="10" stroke-width="1.5"/>
          <line id="Línea_674" data-name="Línea 674" x2="3.342" transform="translate(1.235 5.345)" fill="none" stroke="#000" stroke-miterlimit="10" stroke-width="1.5"/>
          <line id="Línea_675" data-name="Línea 675" x2="2.363" y2="2.363" transform="translate(0 8.327)" fill="none" stroke="#000" stroke-miterlimit="10" stroke-width="1.5"/>
        </g>
        <g id="Grupo_1175308" data-name="Grupo 1175308" transform="translate(12.583 2.227)">
          <line id="Línea_676" data-name="Línea 676" x1="2.363" y1="2.363" transform="translate(2.214)" fill="none" stroke="#000" stroke-miterlimit="10" stroke-width="1.5"/>
          <line id="Línea_677" data-name="Línea 677" x1="3.342" transform="translate(0 5.345)" fill="none" stroke="#000" stroke-miterlimit="10" stroke-width="1.5"/>
          <line id="Línea_678" data-name="Línea 678" x1="2.363" y2="2.363" transform="translate(2.214 8.327)" fill="none" stroke="#000" stroke-miterlimit="10" stroke-width="1.5"/>
        </g>
      </g>
    </g>
  </g>
</svg>
