<svg xmlns="http://www.w3.org/2000/svg" xmlns:xlink="http://www.w3.org/1999/xlink" width="110" height="110" viewBox="0 0 110 110">
  <defs>
    <filter id="Trazado_982547" x="0" y="0" width="110" height="110" filterUnits="userSpaceOnUse">
      <feOffset dy="3" input="SourceAlpha"/>
      <feGaussianBlur stdDeviation="3" result="blur"/>
      <feFlood flood-opacity="0.161"/>
      <feComposite operator="in" in2="blur"/>
      <feComposite in="SourceGraphic"/>
    </filter>
  </defs>
  <g id="Grupo_1175318" data-name="Grupo 1175318" transform="translate(-628 -10617)">
    <g id="Grupo_1173109" data-name="Grupo 1173109" transform="translate(637 10623)">
      <g id="Grupo_1163801" data-name="Grupo 1163801" transform="translate(0 0)">
        <g id="Grupo_1163014" data-name="Grupo 1163014">
          <g id="Grupo_1157015" data-name="Grupo 1157015" transform="translate(0 0)">
            <g id="Grupo_1155792" data-name="Grupo 1155792" transform="translate(0 0)">
              <g id="Grupo_1154703" data-name="Grupo 1154703">
                <g id="Grupo_1150789" data-name="Grupo 1150789">
                  <g id="Grupo_1154212" data-name="Grupo 1154212">
                    <g id="Grupo_1152583" data-name="Grupo 1152583">
                      <g id="Grupo_1146973" data-name="Grupo 1146973" transform="translate(0 0)">
                        <g id="Grupo_1146954" data-name="Grupo 1146954">
                          <g transform="matrix(1, 0, 0, 1, -9, -6)" filter="url(#Trazado_982547)">
                            <g id="Trazado_982547-2" data-name="Trazado 982547" transform="translate(9 6)" fill="#f2f7e5">
                              <path d="M 46.00000381469727 90.49988555908203 C 39.99188232421875 90.49988555908203 34.16427230834961 89.32352447509766 28.67905807495117 87.00347137451172 C 23.38020324707031 84.76226043701172 18.62103080749512 81.55342864990234 14.53375053405762 77.46615600585938 C 10.44645690917969 73.37887573242188 7.237643718719482 68.61971282958984 4.996417045593262 63.32085800170898 C 2.676363706588745 57.83565902709961 1.500003814697266 52.00806045532227 1.500003814697266 45.99993896484375 C 1.500003814697266 39.99181747436523 2.676363706588745 34.16421890258789 4.996417045593262 28.67901802062988 C 7.237643718719482 23.38017845153809 10.44645690917969 18.62101936340332 14.53375053405762 14.53373908996582 C 18.62103080749512 10.44645881652832 23.38020324707031 7.237632274627686 28.67905807495117 4.996418952941895 C 34.16427230834961 2.676365613937378 39.99188232421875 1.500005602836609 46.00000381469727 1.500005602836609 C 52.00812530517578 1.500005602836609 57.83573532104492 2.676365613937378 63.32094955444336 4.996418952941895 C 68.61980438232422 7.237632274627686 73.37896728515625 10.44645881652832 77.46625518798828 14.53373908996582 C 81.55353546142578 18.62101936340332 84.76236724853516 23.38017845153809 87.00359344482422 28.67901802062988 C 89.32364654541016 34.16421890258789 90.5 39.99181747436523 90.5 45.99993896484375 C 90.5 52.00806045532227 89.32364654541016 57.83565902709961 87.00359344482422 63.32085800170898 C 84.76236724853516 68.61971282958984 81.55353546142578 73.37887573242188 77.46625518798828 77.46615600585938 C 73.37896728515625 81.55342864990234 68.61980438232422 84.76226043701172 63.32094955444336 87.00347137451172 C 57.83573532104492 89.32352447509766 52.00812530517578 90.49988555908203 46.00000381469727 90.49988555908203 Z" stroke="none"/>
                              <path d="M 46.00000381469727 2.999992370605469 C 40.19371795654297 2.999992370605469 34.56270217895508 4.136497497558594 29.26338958740234 6.377906799316406 C 24.14333343505859 8.543510437011719 19.54441833496094 11.64437866210938 15.59440612792969 15.59439849853516 C 11.64440155029297 19.54439544677734 8.54351806640625 24.14329528808594 6.377914428710938 29.26335144042969 C 4.136505126953125 34.56266784667969 3.000007629394531 40.19366836547852 3.000007629394531 45.99993896484375 C 3.000007629394531 51.80620956420898 4.136505126953125 57.43722534179688 6.377914428710938 62.73654174804688 C 8.54351806640625 67.85658264160156 11.64440155029297 72.45548248291016 15.59440612792969 76.40549468994141 C 19.54441833496094 80.35549926757812 24.14333343505859 83.45636749267578 29.26337432861328 85.62196350097656 C 34.56270217895508 87.86338043212891 40.19371795654297 88.9998779296875 46.00000381469727 88.9998779296875 C 51.80628967285156 88.9998779296875 57.43730545043945 87.86338043212891 62.73663330078125 85.62196350097656 C 67.85667419433594 83.45636749267578 72.45558929443359 80.35549926757812 76.40560150146484 76.40549468994141 C 80.35560607910156 72.45548248291016 83.45648956298828 67.85658264160156 85.62208557128906 62.73654174804688 C 87.86350250244141 57.43722534179688 89 51.80620956420898 89 45.99993896484375 C 89 40.19366836547852 87.86350250244141 34.56266784667969 85.62208557128906 29.26335144042969 C 83.45648956298828 24.14329528808594 80.35560607910156 19.54439544677734 76.40560150146484 15.59439849853516 C 72.45558929443359 11.64437866210938 67.85667419433594 8.543510437011719 62.73661804199219 6.377906799316406 C 57.43730545043945 4.136497497558594 51.80628967285156 2.999992370605469 46.00000381469727 2.999992370605469 M 46.00000381469727 -7.62939453125e-06 C 71.40510559082031 -7.62939453125e-06 92 20.59487915039062 92 45.99993896484375 C 92 71.40501403808594 71.40510559082031 91.99988555908203 46.00000381469727 91.99988555908203 C 20.59490203857422 91.99988555908203 7.62939453125e-06 71.40501403808594 7.62939453125e-06 45.99993896484375 C 7.62939453125e-06 20.59487915039062 20.59490203857422 -7.62939453125e-06 46.00000381469727 -7.62939453125e-06 Z" stroke="none" fill="#86b60c"/>
                            </g>
                          </g>
                        </g>
                      </g>
                    </g>
                  </g>
                </g>
              </g>
            </g>
          </g>
        </g>
      </g>
    </g>
    <g id="scan_8072901" transform="translate(613.036 10635.5)">
      <g id="Grupo_1175316" data-name="Grupo 1175316" transform="translate(47.964 7.5)">
        <path id="Trazado_1031542" data-name="Trazado 1031542" d="M56,60.21H51.146a3.181,3.181,0,0,1-3.181-3.181V10.681A3.18,3.18,0,0,1,51.145,7.5H56V60.21Z" transform="translate(-47.965 -7.5)" fill="#918291"/>
        <path id="Trazado_1031543" data-name="Trazado 1031543" d="M47.964,444.511v3.182a3.181,3.181,0,0,0,3.181,3.181H56v-3.182H51.145A3.181,3.181,0,0,1,47.964,444.511Z" transform="translate(-47.964 -398.163)" fill="#7a6d79"/>
        <path id="Trazado_1031544" data-name="Trazado 1031544" d="M123.7,60.21H157.37a2.428,2.428,0,0,0,2.428-2.428V9.928A2.428,2.428,0,0,0,157.37,7.5H123.7Z" transform="translate(-115.671 -7.5)" fill="#e2dee2"/>
        <path id="Trazado_1031545" data-name="Trazado 1031545" d="M157.37,7.5h-.753V54.6a2.428,2.428,0,0,1-2.428,2.428H123.7V60.21H157.37a2.428,2.428,0,0,0,2.428-2.428V9.928A2.428,2.428,0,0,0,157.37,7.5Z" transform="translate(-115.671 -7.5)" fill="#cbc4cc"/>
        <path id="Trazado_1031546" data-name="Trazado 1031546" d="M204.295,206.289H190.487a3.843,3.843,0,0,1-3.843-3.843V188.638a3.843,3.843,0,0,1,3.843-3.843h13.808a3.843,3.843,0,0,1,3.843,3.843v13.808A3.843,3.843,0,0,1,204.295,206.289Z" transform="translate(-171.936 -165.992)" fill="#6ed5a1"/>
        <path id="Trazado_1031547" data-name="Trazado 1031547" d="M205.321,185.258a3.867,3.867,0,0,1,.049.612v13.808a3.843,3.843,0,0,1-3.843,3.843H187.719a3.878,3.878,0,0,1-.612-.049A3.843,3.843,0,0,0,190.9,206.7h13.808a3.843,3.843,0,0,0,3.843-3.843V189.052A3.843,3.843,0,0,0,205.321,185.258Z" transform="translate(-172.35 -166.406)" fill="#46cc8d"/>
        <circle id="Elipse_12160" data-name="Elipse 12160" cx="6.706" cy="6.706" r="6.706" transform="translate(18.749 22.844)" fill="#ceefdd"/>
        <path id="Trazado_1031548" data-name="Trazado 1031548" d="M255.668,387.456V394a.858.858,0,0,1-1.3.736l-2.769-1.662a.858.858,0,0,0-.883,0l-2.769,1.662a.858.858,0,0,1-1.3-.736v-6.546" transform="translate(-225.574 -347.159)" fill="#62dbfb"/>
      </g>
      <g id="Grupo_1175317" data-name="Grupo 1175317" transform="translate(47.964 7.5)">
        <circle id="Elipse_12161" data-name="Elipse 12161" cx="6.706" cy="6.706" r="6.706" transform="translate(18.748 22.844)" fill="none" stroke="#000" stroke-linecap="round" stroke-linejoin="round" stroke-miterlimit="10" stroke-width="1.5"/>
        <path id="Trazado_1031549" data-name="Trazado 1031549" d="M272.219,272.451l-2.945,2.945-1.358-1.358" transform="translate(-244.589 -244.351)" fill="none" stroke="#000" stroke-linecap="round" stroke-linejoin="round" stroke-miterlimit="10" stroke-width="1.5"/>
        <path id="Trazado_1031550" data-name="Trazado 1031550" d="M204.295,206.289H190.487a3.843,3.843,0,0,1-3.843-3.843V188.638a3.843,3.843,0,0,1,3.843-3.843h13.808a3.843,3.843,0,0,1,3.843,3.843v13.808A3.843,3.843,0,0,1,204.295,206.289Z" transform="translate(-171.936 -165.992)" fill="none" stroke="#000" stroke-linecap="round" stroke-linejoin="round" stroke-miterlimit="10" stroke-width="1.5"/>
        <path id="Trazado_1031551" data-name="Trazado 1031551" d="M56,60.21H51.146a3.181,3.181,0,0,1-3.181-3.181V10.681A3.18,3.18,0,0,1,51.145,7.5H56V60.21Z" transform="translate(-47.965 -7.5)" fill="none" stroke="#000" stroke-linecap="round" stroke-linejoin="round" stroke-miterlimit="10" stroke-width="1.5"/>
        <path id="Trazado_1031552" data-name="Trazado 1031552" d="M256.955,60.21h4.956a2.428,2.428,0,0,0,2.428-2.428V9.928A2.428,2.428,0,0,0,261.911,7.5H240.647" transform="translate(-220.212 -7.5)" fill="none" stroke="#000" stroke-linecap="round" stroke-linejoin="round" stroke-miterlimit="10" stroke-width="1.5"/>
        <path id="Trazado_1031553" data-name="Trazado 1031553" d="M131.871,7.5H123.7V60.21h25" transform="translate(-115.671 -7.5)" fill="none" stroke="#000" stroke-linecap="round" stroke-linejoin="round" stroke-miterlimit="10" stroke-width="1.5"/>
        <path id="Trazado_1031554" data-name="Trazado 1031554" d="M254.369,394.737l-2.769-1.662a.858.858,0,0,0-.883,0l-2.769,1.662a.858.858,0,0,1-1.3-.736v-6.546h9.022V394A.858.858,0,0,1,254.369,394.737Z" transform="translate(-225.575 -347.159)" fill="none" stroke="#000" stroke-linecap="round" stroke-linejoin="round" stroke-miterlimit="10" stroke-width="1.5"/>
        <line id="Línea_685" data-name="Línea 685" x2="21.494" transform="translate(14.708 9.876)" fill="none" stroke="#000" stroke-linecap="round" stroke-linejoin="round" stroke-miterlimit="10" stroke-width="1.5"/>
        <line id="Línea_686" data-name="Línea 686" x2="13.413" transform="translate(18.748 13.477)" fill="none" stroke="#000" stroke-linecap="round" stroke-linejoin="round" stroke-miterlimit="10" stroke-width="1.5"/>
        <line id="Línea_687" data-name="Línea 687" x2="13.413" transform="translate(18.748 6.276)" fill="none" stroke="#000" stroke-linecap="round" stroke-linejoin="round" stroke-miterlimit="10" stroke-width="1.5"/>
      </g>
    </g>
  </g>
</svg>
