<svg xmlns="http://www.w3.org/2000/svg" xmlns:xlink="http://www.w3.org/1999/xlink" width="110" height="110" viewBox="0 0 110 110">
  <defs>
    <filter id="Trazado_982547" x="0" y="0" width="110" height="110" filterUnits="userSpaceOnUse">
      <feOffset dy="3" input="SourceAlpha"/>
      <feGaussianBlur stdDeviation="3" result="blur"/>
      <feFlood flood-opacity="0.161"/>
      <feComposite operator="in" in2="blur"/>
      <feComposite in="SourceGraphic"/>
    </filter>
  </defs>
  <g id="Grupo_1175320" data-name="Grupo 1175320" transform="translate(-942.701 -10617.924)">
    <g id="Grupo_1173110" data-name="Grupo 1173110" transform="translate(951.701 10623.924)">
      <g id="Grupo_1163803" data-name="Grupo 1163803" transform="translate(0 0)">
        <g id="Grupo_1163015" data-name="Grupo 1163015">
          <g id="Grupo_1157017" data-name="Grupo 1157017" transform="translate(0 0)">
            <g id="Grupo_1155793" data-name="Grupo 1155793" transform="translate(0 0)">
              <g id="Grupo_1154704" data-name="Grupo 1154704">
                <g id="Grupo_1150790" data-name="Grupo 1150790">
                  <g id="Grupo_1154214" data-name="Grupo 1154214">
                    <g id="Grupo_1152583" data-name="Grupo 1152583">
                      <g id="Grupo_1146973" data-name="Grupo 1146973" transform="translate(0 0)">
                        <g id="Grupo_1146954" data-name="Grupo 1146954">
                          <g transform="matrix(1, 0, 0, 1, -9, -6)" filter="url(#Trazado_982547)">
                            <g id="Trazado_982547-2" data-name="Trazado 982547" transform="translate(9 6)" fill="#f2f7e5">
                              <path d="M 46.00000381469727 90.49988555908203 C 39.99188232421875 90.49988555908203 34.16427230834961 89.32352447509766 28.67905807495117 87.00347137451172 C 23.38020324707031 84.76226043701172 18.62103080749512 81.55342864990234 14.53375053405762 77.46615600585938 C 10.44645690917969 73.37887573242188 7.237643718719482 68.61971282958984 4.996417045593262 63.32085800170898 C 2.676363706588745 57.83565902709961 1.500003814697266 52.00806045532227 1.500003814697266 45.99993896484375 C 1.500003814697266 39.99181747436523 2.676363706588745 34.16421890258789 4.996417045593262 28.67901802062988 C 7.237643718719482 23.38017845153809 10.44645690917969 18.62101936340332 14.53375053405762 14.53373908996582 C 18.62103080749512 10.44645881652832 23.38020324707031 7.237632274627686 28.67905807495117 4.996418952941895 C 34.16427230834961 2.676365613937378 39.99188232421875 1.500005602836609 46.00000381469727 1.500005602836609 C 52.00812530517578 1.500005602836609 57.83573532104492 2.676365613937378 63.32094955444336 4.996418952941895 C 68.61980438232422 7.237632274627686 73.37896728515625 10.44645881652832 77.46625518798828 14.53373908996582 C 81.55353546142578 18.62101936340332 84.76236724853516 23.38017845153809 87.00359344482422 28.67901802062988 C 89.32364654541016 34.16421890258789 90.5 39.99181747436523 90.5 45.99993896484375 C 90.5 52.00806045532227 89.32364654541016 57.83565902709961 87.00359344482422 63.32085800170898 C 84.76236724853516 68.61971282958984 81.55353546142578 73.37887573242188 77.46625518798828 77.46615600585938 C 73.37896728515625 81.55342864990234 68.61980438232422 84.76226043701172 63.32094955444336 87.00347137451172 C 57.83573532104492 89.32352447509766 52.00812530517578 90.49988555908203 46.00000381469727 90.49988555908203 Z" stroke="none"/>
                              <path d="M 46.00000381469727 2.999992370605469 C 40.19371795654297 2.999992370605469 34.56270217895508 4.136497497558594 29.26338958740234 6.377906799316406 C 24.14333343505859 8.543510437011719 19.54441833496094 11.64437866210938 15.59440612792969 15.59439849853516 C 11.64440155029297 19.54439544677734 8.54351806640625 24.14329528808594 6.377914428710938 29.26335144042969 C 4.136505126953125 34.56266784667969 3.000007629394531 40.19366836547852 3.000007629394531 45.99993896484375 C 3.000007629394531 51.80620956420898 4.136505126953125 57.43722534179688 6.377914428710938 62.73654174804688 C 8.54351806640625 67.85658264160156 11.64440155029297 72.45548248291016 15.59440612792969 76.40549468994141 C 19.54441833496094 80.35549926757812 24.14333343505859 83.45636749267578 29.26337432861328 85.62196350097656 C 34.56270217895508 87.86338043212891 40.19371795654297 88.9998779296875 46.00000381469727 88.9998779296875 C 51.80628967285156 88.9998779296875 57.43730545043945 87.86338043212891 62.73663330078125 85.62196350097656 C 67.85667419433594 83.45636749267578 72.45558929443359 80.35549926757812 76.40560150146484 76.40549468994141 C 80.35560607910156 72.45548248291016 83.45648956298828 67.85658264160156 85.62208557128906 62.73654174804688 C 87.86350250244141 57.43722534179688 89 51.80620956420898 89 45.99993896484375 C 89 40.19366836547852 87.86350250244141 34.56266784667969 85.62208557128906 29.26335144042969 C 83.45648956298828 24.14329528808594 80.35560607910156 19.54439544677734 76.40560150146484 15.59439849853516 C 72.45558929443359 11.64437866210938 67.85667419433594 8.543510437011719 62.73661804199219 6.377906799316406 C 57.43730545043945 4.136497497558594 51.80628967285156 2.999992370605469 46.00000381469727 2.999992370605469 M 46.00000381469727 -7.62939453125e-06 C 71.40510559082031 -7.62939453125e-06 92 20.59487915039062 92 45.99993896484375 C 92 71.40501403808594 71.40510559082031 91.99988555908203 46.00000381469727 91.99988555908203 C 20.59490203857422 91.99988555908203 7.62939453125e-06 71.40501403808594 7.62939453125e-06 45.99993896484375 C 7.62939453125e-06 20.59487915039062 20.59490203857422 -7.62939453125e-06 46.00000381469727 -7.62939453125e-06 Z" stroke="none" fill="#86b60c"/>
                            </g>
                          </g>
                        </g>
                      </g>
                    </g>
                  </g>
                </g>
              </g>
            </g>
          </g>
        </g>
      </g>
    </g>
    <g id="Layer_x0020_1" transform="translate(963.528 10640.521)">
      <path id="Trazado_1031555" data-name="Trazado 1031555" d="M62.073,30.067H58.547a1.027,1.027,0,0,1-.993-.753c-1.4.308-2.67.822-3.081,1.883-.89,2.5-.274,1.952-.787,3.766-1.061,3.663-7.121,1.609-5.512-3.8H39.2a2.908,2.908,0,0,1-1.335-5.478,2.881,2.881,0,0,1,1.3-3.766,2.881,2.881,0,0,1,1.3-3.766,2.888,2.888,0,0,1,2.636-4.074H54.165l3.389.616a1.028,1.028,0,0,1,.993-.787h3.526A1.03,1.03,0,0,1,63.1,14.934V29.04A1.03,1.03,0,0,1,62.073,30.067ZM11.71,45.44c-1.267,0-1.027-1.506-1.027-2.362H6.027A1.009,1.009,0,0,1,5,42.05V37.36a1.03,1.03,0,0,1,1.027-1.027h4.656c0-.959-.205-1.883.582-2.26a1.074,1.074,0,0,1,1.1.171l5.649,4.69a1,1,0,0,1,0,1.575L12.361,45.2A1.024,1.024,0,0,1,11.71,45.44ZM7.054,41.023H11.71a1.059,1.059,0,0,1,1.027,1.2l3.013-2.5-3.013-2.534c0,.719-.377,1.2-1.027,1.2H7.054Zm47.966,17.6H50.33A1.03,1.03,0,0,1,49.3,57.594V52.938c-.993,0-1.883.171-2.26-.582a1.054,1.054,0,0,1,.137-1.1l4.69-5.683a1.042,1.042,0,0,1,1.575,0l4.622,5.581a1.029,1.029,0,0,1-.719,1.78h-1.3v4.656A1.053,1.053,0,0,1,55.021,58.621Zm-3.663-2.054h2.636V51.91c0-.685.479-1.027,1.2-1.027l-2.534-3.047-2.5,3.047c.685,0,1.2.342,1.2,1.027ZM56.39,11.648a1.081,1.081,0,0,1-.651-.24L50.056,6.683a1.042,1.042,0,0,1,0-1.575L55.739.418a1.03,1.03,0,0,1,1.678.787V2.54h4.656A1.03,1.03,0,0,1,63.1,3.568v4.69a1.053,1.053,0,0,1-1.027,1.027H57.417C57.417,10.141,57.657,11.648,56.39,11.648ZM52.316,5.9l3.047,2.534c0-.719.377-1.2,1.027-1.2h4.656V4.595H56.39a1.059,1.059,0,0,1-1.027-1.2ZM41.017,53.04l.651-3.595V38.626a.856.856,0,1,0-1.712.034v7.19a1.027,1.027,0,1,1-2.054,0V37.325a.856.856,0,0,0-1.712,0v7.224a1.027,1.027,0,1,1-2.054,0V36.024a.856.856,0,0,0-1.712,0v7.224a1.027,1.027,0,0,1-2.054,0V34.723a.839.839,0,1,0-1.678,0c0,1.233.068,10.374-.068,10.785a1.034,1.034,0,0,1-1.335.582c-1.335-.514-2.362-.856-3.321-.445-.685.274-1.438,1.335-.582,1.575,1.4.411,1.2-.137,3.9.856,2.26.822,2.979,3.287,3.287,4.964Zm-1.4-17.084a2.937,2.937,0,0,1,4.108,2.67l-.034,11.059-.582,3.389a1.028,1.028,0,0,1,.787.993v3.526a1.053,1.053,0,0,1-1.027,1.027H28.726A1.053,1.053,0,0,1,27.7,57.594V54.067a1.028,1.028,0,0,1,.787-.993c-.308-1.4-.822-2.67-1.917-3.081-2.465-.89-1.952-.274-3.766-.822-3.663-1.027-1.609-7.087,3.835-5.478v-8.97a2.913,2.913,0,0,1,5.478-1.369,2.894,2.894,0,0,1,3.732,1.3A2.947,2.947,0,0,1,39.614,35.956Zm-9.86,20.611H41.839V55.095H29.753ZM10.512,9.833l3.561-.582H24.995a2.893,2.893,0,0,1,2.636,4.074,2.947,2.947,0,0,1,1.3,3.766,2.873,2.873,0,0,1,1.3,3.732A2.907,2.907,0,0,1,28.9,26.3h-8.97c1.609,5.444-4.451,7.5-5.512,3.835-.514-1.815.1-1.3-.822-3.766-.377-1.1-1.678-1.609-3.081-1.917a1.028,1.028,0,0,1-.993.787H6.027A1.009,1.009,0,0,1,5,24.213V10.073A1.03,1.03,0,0,1,6.027,9.046H9.519A1.028,1.028,0,0,1,10.512,9.833Zm14.482,5.2H17.736a1.027,1.027,0,0,1,0-2.054h7.258a.839.839,0,0,0,0-1.678H14.176l-3.629.616V22.364c1.712.308,4.143,1.027,5,3.287.993,2.739.445,2.5.856,3.9.24.822,1.267.171,1.575-.582.651-1.575-.685-2.979-.514-3.869a1.045,1.045,0,0,1,1.061-.856H28.9a.839.839,0,0,0,0-1.678H20.338a1.027,1.027,0,0,1,0-2.054H27.6a.857.857,0,0,0,0-1.712H19.037a1.027,1.027,0,0,1,0-2.054H26.3a.857.857,0,0,0,0-1.712ZM7.054,23.185H8.492V11.1H7.054Zm36.017-5.341H50.33a1.027,1.027,0,1,1,0,2.054H41.8a.839.839,0,1,0,0,1.678h7.224a1.027,1.027,0,1,1,0,2.054H40.5a.856.856,0,0,0,0,1.712h7.224a1.027,1.027,0,0,1,0,2.054H39.2a.856.856,0,0,0,0,1.712l10.75.034a1.037,1.037,0,0,1,.616,1.369c-.514,1.335-.856,2.362-.445,3.287.274.685,1.335,1.472,1.575.616.411-1.438-.137-1.2.856-3.9.822-2.26,3.287-2.979,4.964-3.321V16.749l-3.595-.616H43.106A.857.857,0,0,0,43.072,17.844Zm16.5,10.168h1.472V15.961H59.574Z" transform="translate(0 0)" fill-rule="evenodd"/>
      <g id="Grupo_1175319" data-name="Grupo 1175319" transform="translate(10.546 11.305)">
        <path id="Trazado_1031556" data-name="Trazado 1031556" d="M993.45,480.38c.822-2.26,3.287-2.979,4.964-3.321V466.616L994.819,466H984a.857.857,0,0,0-.034,1.712h7.258a1.027,1.027,0,1,1,0,2.054H982.7a.839.839,0,1,0,0,1.678h7.224a1.027,1.027,0,1,1,0,2.054H981.4a.856.856,0,0,0,0,1.712h7.224a1.027,1.027,0,0,1,0,2.054H980.1a.856.856,0,0,0,0,1.712l10.75.034a1.037,1.037,0,0,1,.616,1.37c-.514,1.335-.856,2.362-.445,3.287.274.685,1.335,1.472,1.575.616C993,482.845,992.457,483.084,993.45,480.38Z" transform="translate(-951.441 -461.173)" fill="#ffc06d" fill-rule="evenodd"/>
        <path id="Trazado_1031557" data-name="Trazado 1031557" d="M547.786,996.224a1.027,1.027,0,0,1-2.054,0V987.7a.856.856,0,0,0-1.712,0v7.224a1.027,1.027,0,0,1-2.054,0V986.4a.856.856,0,0,0-1.712,0v7.224a1.027,1.027,0,0,1-2.054,0V985.1a.839.839,0,1,0-1.678,0c0,1.232.068,10.374-.069,10.785a1.034,1.034,0,0,1-1.335.582c-1.335-.514-2.362-.856-3.321-.445-.685.274-1.438,1.335-.582,1.575,1.4.411,1.2-.137,3.9.856,2.26.822,2.979,3.287,3.287,4.964h10.442l.651-3.595V989a.856.856,0,1,0-1.712.034Z" transform="translate(-518.376 -961.679)" fill="#ffc06d" fill-rule="evenodd"/>
        <path id="Trazado_1031558" data-name="Trazado 1031558" d="M174.977,337.942h10.374a.839.839,0,0,0,0-1.678h-8.559a1.027,1.027,0,0,1,0-2.054h7.258a.857.857,0,0,0,0-1.712h-8.559a1.027,1.027,0,0,1,0-2.054h7.258a.857.857,0,0,0,0-1.712H174.19a1.027,1.027,0,0,1,0-2.054h7.258a.839.839,0,0,0,0-1.678H170.629l-3.629.616v10.442c1.712.308,4.143,1.027,5,3.287.993,2.739.445,2.5.856,3.9.24.822,1.267.171,1.575-.582.651-1.575-.685-2.979-.514-3.869A1.045,1.045,0,0,1,174.977,337.942Z" transform="translate(-167 -325)" fill="#ffc06d" fill-rule="evenodd"/>
      </g>
      <path id="Trazado_1031559" data-name="Trazado 1031559" d="M66.438,331.086V319H65v12.086Z" transform="translate(-57.946 -307.9)" fill="#1d81ce" fill-rule="evenodd"/>
      <path id="Trazado_1031560" data-name="Trazado 1031560" d="M70.683,1081c0,.719-.377,1.2-1.027,1.2H65v2.636h4.656a1.059,1.059,0,0,1,1.027,1.2l3.013-2.5Z" transform="translate(-57.946 -1043.812)" fill="#ffa721" fill-rule="evenodd"/>
      <path id="Trazado_1031561" data-name="Trazado 1031561" d="M740.086,1604H728v1.472h12.086Z" transform="translate(-698.247 -1548.906)" fill="#1d81ce" fill-rule="evenodd"/>
      <path id="Trazado_1031562" data-name="Trazado 1031562" d="M1325.2,1396.074v4.656h2.636v-4.656c0-.685.479-1.027,1.2-1.027L1326.5,1392l-2.5,3.047C1324.685,1395.047,1325.2,1395.389,1325.2,1396.074Z" transform="translate(-1273.841 -1344.164)" fill="#ffa721" fill-rule="evenodd"/>
      <path id="Trazado_1031563" data-name="Trazado 1031563" d="M1599,461v12.051h1.472V461Z" transform="translate(-1539.426 -445.039)" fill="#1d81ce" fill-rule="evenodd"/>
      <path id="Trazado_1031564" data-name="Trazado 1031564" d="M1391.074,97.835h4.656V95.2h-4.656a1.059,1.059,0,0,1-1.027-1.2L1387,96.5l3.047,2.534C1390.047,98.314,1390.424,97.835,1391.074,97.835Z" transform="translate(-1334.684 -90.604)" fill="#ffa721" fill-rule="evenodd"/>
    </g>
  </g>
</svg>
