<svg xmlns="http://www.w3.org/2000/svg" xmlns:xlink="http://www.w3.org/1999/xlink" width="110" height="110" viewBox="0 0 110 110">
  <defs>
    <filter id="Trazado_982547" x="0" y="0" width="110" height="110" filterUnits="userSpaceOnUse">
      <feOffset dy="3" input="SourceAlpha"/>
      <feGaussianBlur stdDeviation="3" result="blur"/>
      <feFlood flood-opacity="0.161"/>
      <feComposite operator="in" in2="blur"/>
      <feComposite in="SourceGraphic"/>
    </filter>
  </defs>
  <g id="Grupo_1175344" data-name="Grupo 1175344" transform="translate(-626 -11051)">
    <g id="Grupo_1173111" data-name="Grupo 1173111" transform="translate(635 11057)">
      <g id="Grupo_1163801" data-name="Grupo 1163801" transform="translate(0 0)">
        <g id="Grupo_1163014" data-name="Grupo 1163014">
          <g id="Grupo_1157015" data-name="Grupo 1157015" transform="translate(0 0)">
            <g id="Grupo_1155792" data-name="Grupo 1155792" transform="translate(0 0)">
              <g id="Grupo_1154703" data-name="Grupo 1154703">
                <g id="Grupo_1150789" data-name="Grupo 1150789">
                  <g id="Grupo_1154212" data-name="Grupo 1154212">
                    <g id="Grupo_1152583" data-name="Grupo 1152583">
                      <g id="Grupo_1146973" data-name="Grupo 1146973" transform="translate(0 0)">
                        <g id="Grupo_1146954" data-name="Grupo 1146954">
                          <g transform="matrix(1, 0, 0, 1, -9, -6)" filter="url(#Trazado_982547)">
                            <g id="Trazado_982547-2" data-name="Trazado 982547" transform="translate(9 6)" fill="#f2f7e5">
                              <path d="M 46.00000381469727 90.49988555908203 C 39.99188232421875 90.49988555908203 34.16427230834961 89.32352447509766 28.67905807495117 87.00347137451172 C 23.38020324707031 84.76226043701172 18.62103080749512 81.55342864990234 14.53375053405762 77.46615600585938 C 10.44645690917969 73.37887573242188 7.237643718719482 68.61971282958984 4.996417045593262 63.32085800170898 C 2.676363706588745 57.83565902709961 1.500003814697266 52.00806045532227 1.500003814697266 45.99993896484375 C 1.500003814697266 39.99181747436523 2.676363706588745 34.16421890258789 4.996417045593262 28.67901802062988 C 7.237643718719482 23.38017845153809 10.44645690917969 18.62101936340332 14.53375053405762 14.53373908996582 C 18.62103080749512 10.44645881652832 23.38020324707031 7.237632274627686 28.67905807495117 4.996418952941895 C 34.16427230834961 2.676365613937378 39.99188232421875 1.500005602836609 46.00000381469727 1.500005602836609 C 52.00812530517578 1.500005602836609 57.83573532104492 2.676365613937378 63.32094955444336 4.996418952941895 C 68.61980438232422 7.237632274627686 73.37896728515625 10.44645881652832 77.46625518798828 14.53373908996582 C 81.55353546142578 18.62101936340332 84.76236724853516 23.38017845153809 87.00359344482422 28.67901802062988 C 89.32364654541016 34.16421890258789 90.5 39.99181747436523 90.5 45.99993896484375 C 90.5 52.00806045532227 89.32364654541016 57.83565902709961 87.00359344482422 63.32085800170898 C 84.76236724853516 68.61971282958984 81.55353546142578 73.37887573242188 77.46625518798828 77.46615600585938 C 73.37896728515625 81.55342864990234 68.61980438232422 84.76226043701172 63.32094955444336 87.00347137451172 C 57.83573532104492 89.32352447509766 52.00812530517578 90.49988555908203 46.00000381469727 90.49988555908203 Z" stroke="none"/>
                              <path d="M 46.00000381469727 2.999992370605469 C 40.19371795654297 2.999992370605469 34.56270217895508 4.136497497558594 29.26338958740234 6.377906799316406 C 24.14333343505859 8.543510437011719 19.54441833496094 11.64437866210938 15.59440612792969 15.59439849853516 C 11.64440155029297 19.54439544677734 8.54351806640625 24.14329528808594 6.377914428710938 29.26335144042969 C 4.136505126953125 34.56266784667969 3.000007629394531 40.19366836547852 3.000007629394531 45.99993896484375 C 3.000007629394531 51.80620956420898 4.136505126953125 57.43722534179688 6.377914428710938 62.73654174804688 C 8.54351806640625 67.85658264160156 11.64440155029297 72.45548248291016 15.59440612792969 76.40549468994141 C 19.54441833496094 80.35549926757812 24.14333343505859 83.45636749267578 29.26337432861328 85.62196350097656 C 34.56270217895508 87.86338043212891 40.19371795654297 88.9998779296875 46.00000381469727 88.9998779296875 C 51.80628967285156 88.9998779296875 57.43730545043945 87.86338043212891 62.73663330078125 85.62196350097656 C 67.85667419433594 83.45636749267578 72.45558929443359 80.35549926757812 76.40560150146484 76.40549468994141 C 80.35560607910156 72.45548248291016 83.45648956298828 67.85658264160156 85.62208557128906 62.73654174804688 C 87.86350250244141 57.43722534179688 89 51.80620956420898 89 45.99993896484375 C 89 40.19366836547852 87.86350250244141 34.56266784667969 85.62208557128906 29.26335144042969 C 83.45648956298828 24.14329528808594 80.35560607910156 19.54439544677734 76.40560150146484 15.59439849853516 C 72.45558929443359 11.64437866210938 67.85667419433594 8.543510437011719 62.73661804199219 6.377906799316406 C 57.43730545043945 4.136497497558594 51.80628967285156 2.999992370605469 46.00000381469727 2.999992370605469 M 46.00000381469727 -7.62939453125e-06 C 71.40510559082031 -7.62939453125e-06 92 20.59487915039062 92 45.99993896484375 C 92 71.40501403808594 71.40510559082031 91.99988555908203 46.00000381469727 91.99988555908203 C 20.59490203857422 91.99988555908203 7.62939453125e-06 71.40501403808594 7.62939453125e-06 45.99993896484375 C 7.62939453125e-06 20.59487915039062 20.59490203857422 -7.62939453125e-06 46.00000381469727 -7.62939453125e-06 Z" stroke="none" fill="#86b60c"/>
                            </g>
                          </g>
                        </g>
                      </g>
                    </g>
                  </g>
                </g>
              </g>
            </g>
          </g>
        </g>
      </g>
    </g>
    <g id="job-promotion_2622286" transform="translate(647.328 11073.001)">
      <g id="Grupo_1175321" data-name="Grupo 1175321" transform="translate(21.478 30.642)">
        <path id="Trazado_1031565" data-name="Trazado 1031565" d="M149.853,269.408l7.408,7.755,7.411-7.755c-.147-.11-.117-.307-.117-.831V264.7l-14.585.03v3.849C149.97,269.1,150,269.3,149.853,269.408Z" transform="translate(-149.853 -264.697)" fill="#fed1a3" fill-rule="evenodd"/>
      </g>
      <g id="Grupo_1175322" data-name="Grupo 1175322" transform="translate(21.595 30.642)">
        <path id="Trazado_1031566" data-name="Trazado 1031566" d="M162.948,270.95l2.617-1.542c-.147-.11-.117-.307-.117-.831V264.7a14.262,14.262,0,0,1-4.18,2.49,8.094,8.094,0,0,1-6.266,0,14.2,14.2,0,0,1-4.139-2.46v3.065c3.392,1.84,7.481,3.6,11.3,1.032.965-.651.788-.043.788,1.305v.821Z" transform="translate(-150.863 -264.697)" fill="#ffbc85" fill-rule="evenodd"/>
      </g>
      <g id="Grupo_1175323" data-name="Grupo 1175323" transform="translate(12.879 16.143)">
        <path id="Trazado_1031567" data-name="Trazado 1031567" d="M75.569,140.788v1.319a3.814,3.814,0,0,0,3.559,3.382l2.691-3.018-2.767-3.018H76.9A1.339,1.339,0,0,0,75.569,140.788Z" transform="translate(-75.569 -139.453)" fill="#ffbc85" fill-rule="evenodd"/>
      </g>
      <g id="Grupo_1175324" data-name="Grupo 1175324" transform="translate(16.361 10.144)">
        <path id="Trazado_1031568" data-name="Trazado 1031568" d="M115.02,110.619a8.094,8.094,0,0,0,6.266,0c4.754-1.763,8.706-6.68,9.3-10.953a8,8,0,0,0,.077-1.082V93.63h-2.3c-4.871,0-5.885-6-11.841-6h-3.956c-4.557,0-1.088,6.914-6.333,6.914h-.588v4.039a7.5,7.5,0,0,0,.077,1.082C106.317,103.939,110.269,108.857,115.02,110.619Z" transform="translate(-105.646 -87.631)" fill="#ffe5c1" fill-rule="evenodd"/>
      </g>
      <g id="Grupo_1175325" data-name="Grupo 1175325" transform="translate(16.354 0.866)">
        <path id="Trazado_1031569" data-name="Trazado 1031569" d="M106.178,24.806c5.244,0,1.776-6.914,6.333-6.914h3.956c5.956,0,6.97,6,11.841,6h2.3V17.949c0-9.181-14.789-13.758-19.419-7.748-6.042.534-5.6,8.576-5.6,9.638v4.968Z" transform="translate(-105.583 -7.486)" fill="#6d80aa" fill-rule="evenodd"/>
      </g>
      <g id="Grupo_1175326" data-name="Grupo 1175326" transform="translate(38.714 16.143)">
        <path id="Trazado_1031570" data-name="Trazado 1031570" d="M298.74,142.473c0,.354,2.637,2.651,2.587,3.018a3.817,3.817,0,0,0,3.559-3.382V140.79a1.339,1.339,0,0,0-1.335-1.335H301.4Z" transform="translate(-298.74 -139.455)" fill="#ffbc85" fill-rule="evenodd"/>
      </g>
      <g id="Grupo_1175327" data-name="Grupo 1175327" transform="translate(27.414 0.866)">
        <path id="Trazado_1031571" data-name="Trazado 1031571" d="M211.047,17.666v5.942a5.327,5.327,0,0,0,1.743.284h2.3V17.95c0-6.71-7.905-10.963-13.964-10.416,5.034,1.1,9.921,4.854,9.921,10.132Z" transform="translate(-201.126 -7.487)" fill="#49679b" fill-rule="evenodd"/>
      </g>
      <g id="Grupo_1175328" data-name="Grupo 1175328" transform="translate(26.302 16.988)">
        <path id="Trazado_1031572" data-name="Trazado 1031572" d="M202.479,151.655c-.594,4.273-4.55,9.194-9.3,10.957a11.3,11.3,0,0,1-1.656.481,8.4,8.4,0,0,0,2.567.434,8.863,8.863,0,0,0,3.131-.631,14.263,14.263,0,0,0,4.18-2.49,14.524,14.524,0,0,0,5.121-8.463,8,8,0,0,0,.077-1.082v-3.826h-2.3a5.327,5.327,0,0,1-1.743-.284v3.826A7.911,7.911,0,0,1,202.479,151.655Z" transform="translate(-191.523 -146.751)" fill="#fed1a3" fill-rule="evenodd"/>
      </g>
      <g id="Grupo_1175329" data-name="Grupo 1175329" transform="translate(29.841 35.97)">
        <path id="Trazado_1031573" data-name="Trazado 1031573" d="M222.091,320.8l2.347,6.49a.769.769,0,0,1-.06.761l-2.146,3.649h21.118c.938,0,1.232-.227,1.108-1.085l-1.582-10.88c-.9-6.179-6.87-7.812-11.911-9.014-3.458.691-6.333,3.856-6.773,6.216Z" transform="translate(-222.091 -310.723)" fill="#f8f2f0" fill-rule="evenodd"/>
      </g>
      <g id="Grupo_1175330" data-name="Grupo 1175330" transform="translate(5.54 35.97)">
        <path id="Trazado_1031574" data-name="Trazado 1031574" d="M13.785,319.737,12.2,330.617c-.127.858.17,1.085,1.108,1.085H34.426l-2.143-3.649a.761.761,0,0,1-.06-.761l2.347-6.49-2.1-3.863L25.7,310.723c-5.044,1.2-11.013,2.834-11.911,9.014Z" transform="translate(-12.175 -310.723)" fill="#f8f2f0" fill-rule="evenodd"/>
      </g>
      <g id="Grupo_1175331" data-name="Grupo 1175331" transform="translate(24.386 45.124)">
        <path id="Trazado_1031575" data-name="Trazado 1031575" d="M175.041,397.212a.76.76,0,0,0,.06.761l2.143,3.649h4.447l2.147-3.649a.769.769,0,0,0,.06-.761l-2.347-6.49-1.95-.925-2.213.925Z" transform="translate(-174.967 -389.797)" fill="#8ac9fe" fill-rule="evenodd"/>
      </g>
      <g id="Grupo_1175332" data-name="Grupo 1175332" transform="translate(37.679 35.97)">
        <path id="Trazado_1031576" data-name="Trazado 1031576" d="M289.8,313.173c4.337,1.215,8.633,3.2,9.384,8.373l1.479,10.155h2.557c.938,0,1.232-.227,1.108-1.085l-1.582-10.88c-.9-6.179-6.87-7.812-11.911-9.014Z" transform="translate(-289.8 -310.723)" fill="#eee1dc" fill-rule="evenodd"/>
      </g>
      <g id="Grupo_1175333" data-name="Grupo 1175333" transform="translate(24.707 39.722)">
        <path id="Trazado_1031577" data-name="Trazado 1031577" d="M177.739,345.6l2.1,3.863H184l2.1-3.863-1.028-2.126-3.155-.337-3.325.5Z" transform="translate(-177.739 -343.137)" fill="#22a6fe" fill-rule="evenodd"/>
      </g>
      <g id="Grupo_1175334" data-name="Grupo 1175334" transform="translate(28.506 46.049)">
        <path id="Trazado_1031578" data-name="Trazado 1031578" d="M212.892,404.278a.776.776,0,0,1-.06.764l-2.113,3.642h2.44l2.146-3.649a.769.769,0,0,0,.06-.761l-2.347-6.49h-2.464Z" transform="translate(-210.555 -397.785)" fill="#22a6fe" fill-rule="evenodd"/>
      </g>
      <g id="Grupo_1175335" data-name="Grupo 1175335" transform="translate(27.027 39.722)">
        <path id="Trazado_1031579" data-name="Trazado 1031579" d="M201,346.749l-1.362,2.714h2.083l2.1-3.863-.978-.574-1.135-.671-2.07-1.219-1.859,1.1,3.141,1.886C201.283,346.328,201.193,346.4,201,346.749Z" transform="translate(-197.781 -343.137)" fill="#0182fc" fill-rule="evenodd"/>
      </g>
      <g id="Grupo_1175336" data-name="Grupo 1175336" transform="translate(19.061 35.352)">
        <path id="Trazado_1031580" data-name="Trazado 1031580" d="M128.975,306.006l2.517,5.959c.481,1.138,1.272,1.245,2.313.738l.815-.481,4.18-2.464-7.408-4.37a3.267,3.267,0,0,1-.838.24C130.043,305.752,129.516,305.875,128.975,306.006Z" transform="translate(-128.975 -305.388)" fill="#eee1dc" fill-rule="evenodd"/>
      </g>
      <g id="Grupo_1175337" data-name="Grupo 1175337" transform="translate(28.886 35.352)">
        <path id="Trazado_1031581" data-name="Trazado 1031581" d="M213.843,309.758l4.183,2.464.811.481c1.045.507,1.836.4,2.317-.738l2.517-5.959c-.541-.13-1.072-.254-1.582-.377a3.184,3.184,0,0,1-.835-.24Z" transform="translate(-213.843 -305.388)" fill="#eee1dc" fill-rule="evenodd"/>
      </g>
      <g id="Grupo_1175338" data-name="Grupo 1175338" transform="translate(33.036 35.352)">
        <path id="Trazado_1031582" data-name="Trazado 1031582" d="M250.226,307.438c1.292.314,2.7.624,4.106,1.018l1.035-2.45c-.541-.13-1.072-.254-1.582-.377a3.183,3.183,0,0,1-.835-.24l-3.262,1.923C249.822,307.344,250,307.381,250.226,307.438Z" transform="translate(-249.689 -305.388)" fill="#cdbeb9" fill-rule="evenodd"/>
      </g>
      <g id="Grupo_1175339" data-name="Grupo 1175339" transform="translate(46.816 39.722)">
        <path id="Trazado_1031583" data-name="Trazado 1031583" d="M376.114,343.267,368.85,354.3c-.224.337-.154.394.214.394h2.861a.491.491,0,0,1,.491.491v6.129a.494.494,0,0,0,.494.491h6.8a.491.491,0,0,0,.491-.491v-6.129a.492.492,0,0,1,.491-.491h2.861c.371,0,.437-.057.217-.394L376.5,343.267C376.384,343.084,376.234,343.084,376.114,343.267Z" transform="translate(-368.722 -343.13)" fill="#80d261" fill-rule="evenodd"/>
      </g>
      <g id="Grupo_1175340" data-name="Grupo 1175340" transform="translate(53.907 39.722)">
        <path id="Trazado_1031584" data-name="Trazado 1031584" d="M437.937,354.3l-7.268-11.037c-.12-.184-.27-.184-.391,0l-.3.461a26.437,26.437,0,0,1,1.93,10.713,32.342,32.342,0,0,1-.8,7.368h2.767a.491.491,0,0,0,.491-.491V355.19a.491.491,0,0,1,.491-.491h2.861c.371,0,.437-.057.217-.394Z" transform="translate(-429.978 -343.13)" fill="#4fc122" fill-rule="evenodd"/>
      </g>
      <g id="Grupo_1175341" data-name="Grupo 1175341" transform="translate(47.861 22.48)">
        <path id="Trazado_1031585" data-name="Trazado 1031585" d="M384.813,194.438l2.273,3.258,3.8,1.155c.377.117.437.3.2.614l-2.4,3.168.077,3.973c.007.394-.15.507-.524.377l-3.752-1.3-3.752,1.3c-.374.13-.531.017-.524-.377l.077-3.973-2.4-3.168c-.237-.317-.177-.5.2-.614l3.8-1.155,2.27-3.258C384.392,194.115,384.586,194.115,384.813,194.438Z" transform="translate(-377.752 -194.195)" fill="#fdb440" fill-rule="evenodd"/>
      </g>
      <g id="Grupo_1175342" data-name="Grupo 1175342" transform="translate(54.174 23.237)">
        <path id="Trazado_1031586" data-name="Trazado 1031586" d="M439.105,204.634l-3.8-1.155-1.916-2.744a14.69,14.69,0,0,1,.584,4.146,13.456,13.456,0,0,1-1.689,6.734l.424-.147,3.752,1.3c.374.13.531.017.524-.377l-.077-3.973,2.4-3.168C439.542,204.931,439.482,204.751,439.105,204.634Z" transform="translate(-432.285 -200.735)" fill="#fe9900" fill-rule="evenodd"/>
      </g>
      <g id="Grupo_1175343" data-name="Grupo 1175343" transform="translate(4.672 -0.001)">
        <path id="Trazado_1031587" data-name="Trazado 1031587" d="M193.541,237.83a3.051,3.051,0,0,0,2.142.873h0a3.059,3.059,0,0,0,2.147-.872.888.888,0,0,0,.139-1.128.869.869,0,0,0-1.336-.131,1.335,1.335,0,0,1-.95.394h-.013a1.366,1.366,0,0,1-.945-.4.869.869,0,0,0-1.308.117A.888.888,0,0,0,193.541,237.83Z" transform="translate(-171.429 -208.96)"/>
        <path id="Trazado_1031588" data-name="Trazado 1031588" d="M153.15,157.761a3.3,3.3,0,0,1,2.611.1.868.868,0,0,0,1.156-.6.889.889,0,0,0-.56-1.034,5.1,5.1,0,0,0-3.89-.07.869.869,0,0,0-.425,1.24A.894.894,0,0,0,153.15,157.761Z" transform="translate(-134.878 -137.77)"/>
        <path id="Trazado_1031589" data-name="Trazado 1031589" d="M168.576,183.176a.89.89,0,0,0-.76.895v.592a.89.89,0,0,0,.76.895.868.868,0,0,0,.977-.862v-.658A.868.868,0,0,0,168.576,183.176Z" transform="translate(-148.93 -161.965)"/>
        <path id="Trazado_1031590" data-name="Trazado 1031590" d="M228.9,157.886a.865.865,0,0,0,.314-.059,3.3,3.3,0,0,1,2.642-.091.869.869,0,0,0,1.181-.653.884.884,0,0,0-.557-.968,5.033,5.033,0,0,0-3.862.081.889.889,0,0,0-.561,1.034A.869.869,0,0,0,228.9,157.886Z" transform="translate(-202.174 -137.732)"/>
        <path id="Trazado_1031591" data-name="Trazado 1031591" d="M241.246,183.176a.89.89,0,0,0-.76.895v.592a.89.89,0,0,0,.76.895.868.868,0,0,0,.977-.862v-.658A.868.868,0,0,0,241.246,183.176Z" transform="translate(-213.187 -161.965)"/>
        <path id="Trazado_1031592" data-name="Trazado 1031592" d="M62.59,50.418l-2.46-3.731a.884.884,0,0,0-1.045-.357.869.869,0,0,0-.419,1.291l1.846,2.8H58.788a1.359,1.359,0,0,0-1.359,1.359v5.752H51.377V51.781a1.359,1.359,0,0,0-1.359-1.359H48.295l6.108-9.28,2.153,3.27a.89.89,0,0,0,1.126.33.868.868,0,0,0,.342-1.257l-2.7-4.1a1.066,1.066,0,0,0-1.842,0l-2.422,3.679A9.585,9.585,0,0,0,46.387,37.7a30.981,30.981,0,0,0-8.059-2.715c-.337-.08-.668-.158-.991-.236l-.289-.068c0-.05,0-.1,0-.16V31.033a15.606,15.606,0,0,0,5-8.063A4.832,4.832,0,0,0,44.4,21.662,4.149,4.149,0,0,0,45.728,18.8V17.479a2.2,2.2,0,0,0-2.2-2.2H42.246V11.329a9.7,9.7,0,0,0-2.7-6.614A14.935,14.935,0,0,0,33.426.846,14.758,14.758,0,0,0,26.7.123,8.241,8.241,0,0,0,21.51,2.759c-2.464.35-6.146,2.217-6.019,10.264,0,.08,0,2.252,0,2.252H14.211a2.2,2.2,0,0,0-2.2,2.2V18.8a4.149,4.149,0,0,0,1.326,2.866,4.83,4.83,0,0,0,2.358,1.307,15.622,15.622,0,0,0,5.033,8.1v3.454c0,.057,0,.11,0,.159l-.292.069q-.533.129-1.074.257a32.352,32.352,0,0,0-7.53,2.453.888.888,0,0,0-.454,1.051.868.868,0,0,0,1.229.5,26.354,26.354,0,0,1,5.942-2.027l2.23,5.28a2.424,2.424,0,0,0,1.343,1.43,2.047,2.047,0,0,0,.726.13,3.28,3.28,0,0,0,1.424-.379q.031-.015.061-.033l.04-.024,1.484,2.729-2.214,6.121a1.6,1.6,0,0,0,.127,1.5l1.375,2.341h-7.86v-7.5a.89.89,0,0,0-.76-.895.868.868,0,0,0-.977.862V56.08H6.676c-.111,0-.2,0-.26-.009,0-.024.006-.052.011-.083l1.582-10.88a7.425,7.425,0,0,1,1.753-3.936A.9.9,0,0,0,9.792,40a.869.869,0,0,0-1.307,0,9.228,9.228,0,0,0-2.194,4.862L4.709,55.737a1.839,1.839,0,0,0,.319,1.52,2.055,2.055,0,0,0,1.648.561H49.64v.093A1.362,1.362,0,0,0,51,59.269h6.8a1.359,1.359,0,0,0,1.359-1.359V52.158h2.483a1.156,1.156,0,0,0,1.1-.53,1.17,1.17,0,0,0-.154-1.21ZM42.246,17.272v-.26h1.278a.469.469,0,0,1,.467.467V18.8a2.459,2.459,0,0,1-.81,1.63,3.388,3.388,0,0,1-.935.658V17.272Zm-26.754,0v3.814a3.377,3.377,0,0,1-.936-.657,2.459,2.459,0,0,1-.81-1.631V17.478a.472.472,0,0,1,.464-.467h1.282ZM37.515,36.577,35.4,41.591a.875.875,0,0,1-.354.479c-.067.025-.273.058-.754-.17l-.729-.43a.879.879,0,0,0-.077-.047l-.016-.008L30.6,39.722l5.795-3.417c.076.022.155.042.242.062l.3.069ZM22.463,34.521V32.41a14.276,14.276,0,0,0,2.97,1.537,9.711,9.711,0,0,0,3.436.685,9.675,9.675,0,0,0,3.433-.685,14.306,14.306,0,0,0,3.009-1.564v2.138c0,.077,0,.146,0,.209s0,.133,0,.195l-6.426,3.789-6.425-3.789c0-.064,0-.13,0-.2s0-.129,0-.2ZM31.9,42.51l-1.452,2.671h-3.13L25.87,42.509l3.017-1.779ZM22.035,4.446a.865.865,0,0,0,.611-.334,7.081,7.081,0,0,1,5.8-2.375,13.943,13.943,0,0,1,4.415.754c3.526,1.2,7.644,4.237,7.644,8.839V16.4H39.078c-1.97,0-3.225-1.177-4.679-2.539-1.73-1.622-3.692-3.46-7.162-3.46H23.281c-2.906,0-3.378,2.294-3.721,3.968-.377,1.837-.664,2.84-2.331,2.938v-.039s0-4.184,0-4.276c-.058-3.7.729-8.189,4.809-8.55ZM17.229,21.1V19.048c3.17-.134,3.667-2.549,4.032-4.326.393-1.912.652-2.581,2.021-2.581h3.956c2.784,0,4.334,1.453,5.975,2.991,1.578,1.479,3.21,3.008,5.866,3.008H40.51V21.1c0,4.237-4.117,9.48-8.812,11.221a8.01,8.01,0,0,1-2.829.577,8.046,8.046,0,0,1-2.833-.577c-4.692-1.74-8.808-6.983-8.808-11.221Zm6.253,20.8c-.478.228-.683.2-.75.17a.874.874,0,0,1-.354-.479L20.26,36.576l.585-.14c.112-.027.21-.05.3-.069s.166-.041.243-.063l5.793,3.417Zm9.025,10.959L30.613,56.08H27.16l-1.892-3.222.009-.025,2.14-5.917H30.36l2.14,5.918.008.023ZM49.64,56.08H42.183v-7.5a.89.89,0,0,0-.76-.895.868.868,0,0,0-.977.862V56.08H32.628l1.378-2.343a1.614,1.614,0,0,0,.127-1.494l-2.214-6.123L33.4,43.393l.038.022c.02.012.041.023.062.033a2.67,2.67,0,0,0,2.154.248A2.424,2.424,0,0,0,37,42.267l2.231-5.281C44,38.15,48.949,39.748,49.756,45.044L46.22,50.416a1.167,1.167,0,0,0-.159,1.209,1.152,1.152,0,0,0,1.1.533H49.64Z" transform="translate(-4.672 0.001)"/>
        <path id="Trazado_1031593" data-name="Trazado 1031593" d="M372.771,196.285l-.071,3.674a1.245,1.245,0,0,0,.478,1.1,1.109,1.109,0,0,0,.662.208,1.629,1.629,0,0,0,.536-.1l3.468-1.2,3.467,1.2a1.179,1.179,0,0,0,1.678-1.214l-.071-3.672,2.218-2.932a1.179,1.179,0,0,0-.643-1.965l-3.511-1.068-2.1-3.012v0a1.18,1.18,0,0,0-2.071,0l-2.1,3.011-3.519,1.069a1.179,1.179,0,0,0-.636,1.968Zm2.732-4.391a.868.868,0,0,0,.46-.334l1.882-2.7,1.885,2.7a.869.869,0,0,0,.46.334l3.149.957-1.986,2.626a.868.868,0,0,0-.176.541l.064,3.291-3.111-1.077a.87.87,0,0,0-.568,0l-3.111,1.077.064-3.291a.868.868,0,0,0-.176-.541l-1.986-2.625Z" transform="translate(-327.918 -165.081)"/>
      </g>
    </g>
  </g>
</svg>
