<svg xmlns="http://www.w3.org/2000/svg" xmlns:xlink="http://www.w3.org/1999/xlink" width="295" height="145" viewBox="0 0 295 145">
  <defs>
    <clipPath id="clip-path">
      <rect id="Rectángulo_414909" data-name="Rectángulo 414909" width="295" height="145" transform="translate(180.461 11493)" fill="#fff" stroke="#707070" stroke-width="1" opacity="0.78"/>
    </clipPath>
  </defs>
  <g id="Enmascarar_grupo_1098808" data-name="Enmascarar grupo 1098808" transform="translate(-180.461 -11493)" clip-path="url(#clip-path)">
    <g id="Grupo_1175946" data-name="Grupo 1175946" transform="translate(1437.055 -1813.209)">
      <path id="table" d="M1748.371,2777.573h-147.22a.171.171,0,1,1,0-.343h147.22a.171.171,0,1,1,0,.343Z" transform="translate(-2753.141 10664.724)" fill="#f08e6c"/>
      <g id="decor" transform="translate(-1215.252 13352.002)">
        <g id="Grupo_1175861" data-name="Grupo 1175861" transform="translate(0 1.133)">
          <path id="Trazado_1032156" data-name="Trazado 1032156" d="M407.512,1114.18h0a.629.629,0,0,1-.574-.679h0a.629.629,0,0,1,.68-.574h0a.629.629,0,0,1,.574.679h0a.63.63,0,0,1-.626.576h0Zm-5.507-.965a.63.63,0,0,1-.443-.771h0a.628.628,0,0,1,.771-.442h0a.627.627,0,0,1,.442.77h0a.629.629,0,0,1-.606.465h0A.641.641,0,0,1,402.005,1113.215Zm-5.244-1.949h0a.629.629,0,0,1-.293-.839h0a.628.628,0,0,1,.84-.292h0a.629.629,0,0,1,.292.839h0a.628.628,0,0,1-.567.355h0A.625.625,0,0,1,396.761,1111.266Zm-4.776-2.928a.628.628,0,0,1-.117-.881h0a.629.629,0,0,1,.881-.118h0a.629.629,0,0,1,.117.882h0a.628.628,0,0,1-.5.246h0A.625.625,0,0,1,391.985,1108.338Zm-4.055-3.88a.629.629,0,0,1,.082-.886h0a.628.628,0,0,1,.884.083h0a.628.628,0,0,1-.081.884h0a.622.622,0,0,1-.4.145h0A.627.627,0,0,1,387.929,1104.458Zm-3.033-4.739h0a.628.628,0,0,1,.295-.839h0a.63.63,0,0,1,.839.3h0a.627.627,0,0,1-.295.838h0a.62.62,0,0,1-.271.062h0A.629.629,0,0,1,384.9,1099.719Zm-1.811-5.322h0a.628.628,0,0,1,.484-.745h0a.628.628,0,0,1,.745.484h0a.628.628,0,0,1-.484.745h0a.622.622,0,0,1-.13.014h0A.629.629,0,0,1,383.085,1094.4Zm.117-4.954a.628.628,0,0,1-.6-.651h0a.629.629,0,0,1,.652-.6h0a.629.629,0,0,1,.6.652h0a.628.628,0,0,1-.627.6H383.2Zm.774-5.415a.628.628,0,0,1-.4-.792h0a.628.628,0,0,1,.792-.4h0a.63.63,0,0,1,.4.792h0a.631.631,0,0,1-.6.434h0A.612.612,0,0,1,383.975,1084.028Zm2.274-4.972a.628.628,0,0,1-.146-.876h0a.63.63,0,0,1,.876-.148h0a.629.629,0,0,1,.146.877h0a.627.627,0,0,1-.512.263h0A.625.625,0,0,1,386.249,1079.056Zm10.148-.218a.629.629,0,0,1-.262-.85h0a.628.628,0,0,1,.849-.262h0a.629.629,0,0,1,.262.849h0a.626.626,0,0,1-.556.335h0A.627.627,0,0,1,396.4,1078.839Zm5-.225a.628.628,0,0,1,.123-.88h0a.628.628,0,0,1,.88.124h0a.628.628,0,0,1-.123.88h0a.624.624,0,0,1-.378.127h0A.626.626,0,0,1,401.4,1078.614Zm-11.405-3.534a.628.628,0,0,1,.184-.869h0a.627.627,0,0,1,.87.184h0a.627.627,0,0,1-.184.87h0a.625.625,0,0,1-.342.1h0A.627.627,0,0,1,389.991,1075.079Zm2.668-.713a.629.629,0,0,1,.41-.788h0a.629.629,0,0,1,.789.41h0a.629.629,0,0,1-.41.789h0a.6.6,0,0,1-.189.03h0A.628.628,0,0,1,392.659,1074.366Zm7.988.022a.629.629,0,0,1-.238-.856h0a.629.629,0,0,1,.857-.238h0a.63.63,0,0,1,.238.857h0a.633.633,0,0,1-.549.319h0A.622.622,0,0,1,400.646,1074.388Zm-5.639-1.421a.629.629,0,0,1,.561-.69h0a.629.629,0,0,1,.689.562h0a.629.629,0,0,1-.561.689h0c-.022,0-.043,0-.065,0h0A.628.628,0,0,1,395.007,1072.967Zm-1.676-3.577a.629.629,0,0,1-.349-.818h0a.629.629,0,0,1,.817-.349h0a.63.63,0,0,1,.35.818h0a.632.632,0,0,1-.584.394h0A.635.635,0,0,1,393.331,1069.391Zm18.037-2.384a.63.63,0,0,1,.032-.889h0a.629.629,0,0,1,.888.032h0a.63.63,0,0,1-.031.889h0a.63.63,0,0,1-.429.168h0A.629.629,0,0,1,411.367,1067.007Zm-14.947-2.069a.629.629,0,0,1,.138-.879h0a.628.628,0,0,1,.878.138h0a.627.627,0,0,1-.138.878h0a.618.618,0,0,1-.369.121h0A.63.63,0,0,1,396.421,1064.938Zm10.7-.889a.628.628,0,0,1-.343-.82h0a.628.628,0,0,1,.821-.342h0a.627.627,0,0,1,.342.819h0a.627.627,0,0,1-.582.389h0A.614.614,0,0,1,407.123,1064.048Zm-5.755-1.347a.628.628,0,0,1,.565-.686h0a.629.629,0,0,1,.687.564h0a.63.63,0,0,1-.566.687h0l-.06,0h0A.627.627,0,0,1,401.369,1062.7Z" transform="translate(-382.597 -1062.013)" fill="#a9cbe4"/>
        </g>
        <g id="Grupo_1175862" data-name="Grupo 1175862" transform="translate(204)">
          <path id="Trazado_1032157" data-name="Trazado 1032157" d="M4334.308,1068.966a.628.628,0,0,1,.231-.858h0a.629.629,0,0,1,.858.231h0a.628.628,0,0,1-.231.858h0a.625.625,0,0,1-.314.084h0A.629.629,0,0,1,4334.308,1068.966Zm4.291-3.374a.628.628,0,0,1-.091-.884h0a.631.631,0,0,1,.885-.092h0a.629.629,0,0,1,.09.885h0a.624.624,0,0,1-.487.232h0A.624.624,0,0,1,4338.6,1065.592Zm2.838-4.666a.629.629,0,0,1-.394-.8h0a.629.629,0,0,1,.8-.395h0a.63.63,0,0,1,.4.8h0a.63.63,0,0,1-.6.427h0A.622.622,0,0,1,4341.437,1060.927Zm.306-5.962a.627.627,0,0,1,.591-.663h0a.628.628,0,0,1,.664.592h0a.628.628,0,0,1-.592.663h-.035A.628.628,0,0,1,4341.743,1054.965Zm-1.233-5.084a.626.626,0,0,1,.32-.828h0a.628.628,0,0,1,.829.321h0a.628.628,0,0,1-.321.828h0a.62.62,0,0,1-.253.054h0A.627.627,0,0,1,4340.509,1049.881Zm-2.928-4.33h0a.63.63,0,0,1,0-.889h0a.63.63,0,0,1,.889.006h0a.629.629,0,0,1-.005.889h0a.622.622,0,0,1-.442.18h0A.628.628,0,0,1,4337.582,1045.55Zm-4.307-2.942a.629.629,0,0,1-.324-.827h0a.63.63,0,0,1,.828-.325h0a.627.627,0,0,1,.324.827h0a.628.628,0,0,1-.576.377h0A.63.63,0,0,1,4333.275,1042.609Zm-11.064-.958a.628.628,0,0,1,.4-.793h0a.628.628,0,0,1,.792.4h0a.628.628,0,0,1-.4.792h0a.6.6,0,0,1-.194.031h0A.63.63,0,0,1,4322.211,1041.65Zm5.972-.254h0a.628.628,0,0,1-.591-.663h0a.628.628,0,0,1,.663-.592h0a.63.63,0,0,1,.592.664h0a.63.63,0,0,1-.628.592h-.036Z" transform="translate(-4322.179 -1040.141)" fill="#a9cbe4"/>
        </g>
      </g>
      <g id="informatic_window" transform="translate(-1191.377 13328.529)">
        <rect id="Rectángulo_414880" data-name="Rectángulo 414880" width="142.739" height="93.346" fill="#ede2dc"/>
        <g id="Grupo_1175863" data-name="Grupo 1175863" transform="translate(12.216 4.714)">
          <circle id="Elipse_12187" data-name="Elipse 12187" cx="16.047" cy="16.047" r="16.047" transform="translate(1.671 4.373)" fill="#fff"/>
          <path id="Trazado_1032158" data-name="Trazado 1032158" d="M1421.73,927l13.95-7.93a16.053,16.053,0,0,1,1.962,5.857Z" transform="translate(-1404.013 -906.577)" fill="#ffa383"/>
          <path id="Trazado_1032159" data-name="Trazado 1032159" d="M1127.89,778.37h-16.047a16.047,16.047,0,0,1,29.993-7.937Z" transform="translate(-1110.172 -757.951)" fill="#a9cbe4"/>
          <path id="Trazado_1032160" data-name="Trazado 1032160" d="M1097.292,698.307l-17.718-10.3a20.493,20.493,0,0,1,15.977-10.121Z" transform="translate(-1079.575 -677.888)" fill="#5d91b8"/>
        </g>
        <g id="Grupo_1175864" data-name="Grupo 1175864" transform="translate(55.218 9.086)">
          <circle id="Elipse_12188" data-name="Elipse 12188" cx="16.047" cy="16.047" r="16.047" transform="translate(3.781 0.001)" fill="#fff"/>
          <path id="Trazado_1032161" data-name="Trazado 1032161" d="M1999.08,956.581l-15.638,3.6a16.046,16.046,0,0,1,.887-9.91Z" transform="translate(-1979.253 -940.534)" fill="#a9cbe4"/>
          <path id="Trazado_1032162" data-name="Trazado 1032162" d="M2022.864,778.37l-14.748-6.324a16.047,16.047,0,0,1,21.545-8.212Z" transform="translate(-2003.036 -762.323)" fill="#ffa383"/>
          <path id="Trazado_1032163" data-name="Trazado 1032163" d="M1929.841,1072.21l8.428,17.948a19.829,19.829,0,0,1-28.256-17.8Z" transform="translate(-1910.013 -1056.164)" fill="#578569"/>
        </g>
        <g id="Grupo_1175865" data-name="Grupo 1175865" transform="translate(11.145 50.478)">
          <path id="Trazado_1032164" data-name="Trazado 1032164" d="M1094.475,1576.182h-33.6a1.989,1.989,0,0,1-1.989-1.989v-10.548a1.988,1.988,0,0,1,1.989-1.988h33.6a1.988,1.988,0,0,1,1.989,1.988v10.548A1.989,1.989,0,0,1,1094.475,1576.182Z" transform="translate(-1058.885 -1561.657)" fill="#fff"/>
          <rect id="Rectángulo_414881" data-name="Rectángulo 414881" width="26.958" height="2.188" transform="translate(7.236 3.306)" fill="#ede2dc"/>
          <rect id="Rectángulo_414882" data-name="Rectángulo 414882" width="26.958" height="2.188" transform="translate(7.236 8.597)" fill="#ede2dc"/>
          <circle id="Elipse_12189" data-name="Elipse 12189" cx="1.418" cy="1.418" r="1.418" transform="translate(2.181 2.983)" fill="#5d91b8"/>
          <circle id="Elipse_12190" data-name="Elipse 12190" cx="1.418" cy="1.418" r="1.418" transform="translate(2.181 8.273)" fill="#ffa383"/>
        </g>
        <g id="Grupo_1175866" data-name="Grupo 1175866" transform="translate(56.257 50.478)">
          <path id="Trazado_1032165" data-name="Trazado 1032165" d="M1965.665,1576.182h-33.6a1.989,1.989,0,0,1-1.989-1.989v-10.548a1.989,1.989,0,0,1,1.989-1.988h33.6a1.988,1.988,0,0,1,1.989,1.988v10.548A1.989,1.989,0,0,1,1965.665,1576.182Z" transform="translate(-1930.075 -1561.657)" fill="#fff"/>
          <rect id="Rectángulo_414883" data-name="Rectángulo 414883" width="26.958" height="2.188" transform="translate(7.235 3.306)" fill="#ede2dc"/>
          <rect id="Rectángulo_414884" data-name="Rectángulo 414884" width="26.958" height="2.188" transform="translate(7.235 8.597)" fill="#ede2dc"/>
          <circle id="Elipse_12191" data-name="Elipse 12191" cx="1.418" cy="1.418" r="1.418" transform="translate(2.181 2.983)" fill="#578569"/>
          <circle id="Elipse_12192" data-name="Elipse 12192" cx="1.418" cy="1.418" r="1.418" transform="translate(2.181 8.273)" fill="#a9cbe4"/>
        </g>
        <g id="Grupo_1175867" data-name="Grupo 1175867" transform="translate(101.369 50.478)">
          <path id="Trazado_1032166" data-name="Trazado 1032166" d="M2836.846,1576.182h-33.6a1.989,1.989,0,0,1-1.989-1.989v-10.548a1.989,1.989,0,0,1,1.989-1.988h33.6a1.989,1.989,0,0,1,1.989,1.988v10.548A1.989,1.989,0,0,1,2836.846,1576.182Z" transform="translate(-2801.257 -1561.657)" fill="#fff"/>
          <rect id="Rectángulo_414885" data-name="Rectángulo 414885" width="26.958" height="2.188" transform="translate(7.236 3.306)" fill="#ede2dc"/>
          <rect id="Rectángulo_414886" data-name="Rectángulo 414886" width="26.958" height="2.188" transform="translate(7.236 8.597)" fill="#ede2dc"/>
          <circle id="Elipse_12193" data-name="Elipse 12193" cx="1.418" cy="1.418" r="1.418" transform="translate(2.181 2.983)" fill="#ffdebc"/>
          <circle id="Elipse_12194" data-name="Elipse 12194" cx="1.418" cy="1.418" r="1.418" transform="translate(2.181 8.273)" fill="#5d91b8"/>
        </g>
        <g id="Grupo_1175877" data-name="Grupo 1175877" transform="translate(41.725 69.727)">
          <g id="Grupo_1175876" data-name="Grupo 1175876" transform="translate(0 0)">
            <g id="Grupo_1175868" data-name="Grupo 1175868" transform="translate(0 1.291)">
              <path id="Trazado_1032167" data-name="Trazado 1032167" d="M1649.6,1974.738a.171.171,0,0,1-.088-.318l10.736-6.427a.173.173,0,0,1,.158-.009l7.126,3.171,15.686-12.778a.172.172,0,0,1,.231.013l12.634,12.965,10.207-4.97a.171.171,0,0,1,.2.033l5.087,5.038,16.7-11.994a.172.172,0,0,1,.216.013l13.888,12.662a.171.171,0,0,1-.231.253l-13.785-12.569-16.706,12a.171.171,0,0,1-.22-.018l-5.1-5.055-10.209,4.97a.17.17,0,0,1-.2-.034l-12.611-12.941-15.646,12.746a.172.172,0,0,1-.178.023l-7.141-3.177-10.66,6.381A.168.168,0,0,1,1649.6,1974.738Z" transform="translate(-1649.426 -1958.337)" fill="#b0998b"/>
            </g>
            <circle id="Elipse_12195" data-name="Elipse 12195" cx="1.035" cy="1.035" r="1.035" transform="translate(9.884 9.996)" fill="#b0998b"/>
            <circle id="Elipse_12196" data-name="Elipse 12196" cx="1.035" cy="1.035" r="1.035" transform="translate(16.947 15.164) rotate(-80.782)" fill="#b0998b"/>
            <circle id="Elipse_12197" data-name="Elipse 12197" cx="1.035" cy="1.035" r="1.035" transform="translate(32.421 1.463) rotate(-45)" fill="#b0998b"/>
            <circle id="Elipse_12198" data-name="Elipse 12198" cx="1.035" cy="1.035" r="1.035" transform="translate(61.174 13.531)" fill="#b0998b"/>
            <circle id="Elipse_12199" data-name="Elipse 12199" cx="1.035" cy="1.035" r="1.035" transform="translate(55.903 8.457)" fill="#b0998b"/>
            <circle id="Elipse_12200" data-name="Elipse 12200" cx="1.035" cy="1.035" r="1.035" transform="translate(45.468 13.531)" fill="#b0998b"/>
            <circle id="Elipse_12201" data-name="Elipse 12201" cx="1.035" cy="1.035" r="1.035" transform="translate(77.94 1.519)" fill="#b0998b"/>
            <g id="Grupo_1175869" data-name="Grupo 1175869" transform="translate(10.747 10.859)">
              <path id="Trazado_1032168" data-name="Trazado 1032168" d="M1857.141,2153.677a.171.171,0,0,1-.172-.171V2143.28a.172.172,0,0,1,.343,0v10.225A.171.171,0,0,1,1857.141,2153.677Z" transform="translate(-1856.97 -2143.109)" fill="#b0998b"/>
            </g>
            <g id="Grupo_1175870" data-name="Grupo 1175870" transform="translate(17.959 14.136)">
              <path id="Trazado_1032169" data-name="Trazado 1032169" d="M1996.422,2213.681a.171.171,0,0,1-.172-.171v-6.949a.172.172,0,0,1,.343,0v6.949A.171.171,0,0,1,1996.422,2213.681Z" transform="translate(-1996.25 -2206.39)" fill="#b0998b"/>
            </g>
            <g id="Grupo_1175871" data-name="Grupo 1175871" transform="translate(78.803 2.383)">
              <path id="Trazado_1032170" data-name="Trazado 1032170" d="M3171.411,1998.037a.172.172,0,0,1-.171-.172v-18.284a.172.172,0,0,1,.343,0v18.284A.172.172,0,0,1,3171.411,1998.037Z" transform="translate(-3171.24 -1979.41)" fill="#b0998b"/>
            </g>
            <g id="Grupo_1175872" data-name="Grupo 1175872" transform="translate(33.714 1.291)">
              <path id="Trazado_1032171" data-name="Trazado 1032171" d="M2300.672,1975.76a.172.172,0,0,1-.171-.172v-17.079a.172.172,0,1,1,.343,0v17.079A.172.172,0,0,1,2300.672,1975.76Z" transform="translate(-2300.5 -1958.337)" fill="#b0998b"/>
            </g>
            <g id="Grupo_1175873" data-name="Grupo 1175873" transform="translate(46.448 14.345)">
              <path id="Trazado_1032172" data-name="Trazado 1032172" d="M2546.582,2217.5a.172.172,0,0,1-.172-.171v-6.74a.171.171,0,1,1,.343,0v6.74A.171.171,0,0,1,2546.582,2217.5Z" transform="translate(-2546.41 -2210.417)" fill="#b0998b"/>
            </g>
            <g id="Grupo_1175874" data-name="Grupo 1175874" transform="translate(56.766 9.321)">
              <path id="Trazado_1032173" data-name="Trazado 1032173" d="M2745.852,2125.5a.172.172,0,0,1-.171-.172v-11.764a.171.171,0,0,1,.343,0v11.764A.171.171,0,0,1,2745.852,2125.5Z" transform="translate(-2745.68 -2113.394)" fill="#b0998b"/>
            </g>
            <g id="Grupo_1175875" data-name="Grupo 1175875" transform="translate(62.037 14.394)">
              <path id="Trazado_1032174" data-name="Trazado 1032174" d="M2847.632,2218.4a.171.171,0,0,1-.171-.171v-6.69a.171.171,0,1,1,.343,0v6.69A.171.171,0,0,1,2847.632,2218.4Z" transform="translate(-2847.461 -2211.367)" fill="#b0998b"/>
            </g>
          </g>
        </g>
      </g>
      <g id="lists1" transform="translate(-1092.163 13312.991)">
        <rect id="Rectángulo_414887" data-name="Rectángulo 414887" width="83.892" height="50.882" fill="#ffdebc"/>
        <rect id="Rectángulo_414888" data-name="Rectángulo 414888" width="76.148" height="2.713" transform="translate(3.105 3.414)" fill="#f08e6c"/>
        <rect id="Rectángulo_414889" data-name="Rectángulo 414889" width="36.236" height="2.713" transform="translate(3.105 8.629)" fill="#f08e6c"/>
        <g id="Grupo_1175880" data-name="Grupo 1175880" transform="translate(16.967 19.334)">
          <g id="Grupo_1175878" data-name="Grupo 1175878" transform="translate(0)">
            <path id="Trazado_1032175" data-name="Trazado 1032175" d="M3098.042,660.507H3087.48a.171.171,0,1,1,0-.343h10.562a.171.171,0,0,1,0,.343Z" transform="translate(-3087.309 -660.164)" fill="#d4924e"/>
          </g>
          <g id="Grupo_1175879" data-name="Grupo 1175879" transform="translate(0 2.305)">
            <path id="Trazado_1032176" data-name="Trazado 1032176" d="M3109.3,705.019h-21.823a.171.171,0,0,1,0-.343H3109.3a.171.171,0,1,1,0,.343Z" transform="translate(-3087.305 -704.676)" fill="#d4924e"/>
          </g>
        </g>
        <g id="Grupo_1175883" data-name="Grupo 1175883" transform="translate(57.229 19.334)">
          <g id="Grupo_1175881" data-name="Grupo 1175881" transform="translate(0 2.305)">
            <path id="Trazado_1032177" data-name="Trazado 1032177" d="M3875.573,705.019h-10.561a.171.171,0,0,1,0-.343h10.561a.171.171,0,0,1,0,.343Z" transform="translate(-3864.841 -704.676)" fill="#d4924e"/>
          </g>
          <g id="Grupo_1175882" data-name="Grupo 1175882" transform="translate(0)">
            <path id="Trazado_1032178" data-name="Trazado 1032178" d="M3886.84,660.507h-21.823a.171.171,0,1,1,0-.343h21.823a.171.171,0,0,1,0,.343Z" transform="translate(-3864.845 -660.164)" fill="#d4924e"/>
          </g>
        </g>
        <g id="Grupo_1175886" data-name="Grupo 1175886" transform="translate(57.229 29.954)">
          <g id="Grupo_1175884" data-name="Grupo 1175884" transform="translate(0 2.305)">
            <path id="Trazado_1032179" data-name="Trazado 1032179" d="M3886.84,910.107h-21.823a.171.171,0,1,1,0-.343h21.823a.171.171,0,0,1,0,.343Z" transform="translate(-3864.845 -909.764)" fill="#d4924e"/>
          </g>
          <g id="Grupo_1175885" data-name="Grupo 1175885">
            <path id="Trazado_1032180" data-name="Trazado 1032180" d="M3886.84,865.6h-21.823a.171.171,0,0,1,0-.343h21.823a.171.171,0,0,1,0,.343Z" transform="translate(-3864.845 -865.254)" fill="#d4924e"/>
          </g>
        </g>
        <g id="Grupo_1175889" data-name="Grupo 1175889" transform="translate(57.229 40.574)">
          <g id="Grupo_1175887" data-name="Grupo 1175887" transform="translate(0 2.305)">
            <path id="Trazado_1032181" data-name="Trazado 1032181" d="M3876.506,1115.193h-11.5a.171.171,0,0,1,0-.343h11.5a.171.171,0,0,1,0,.343Z" transform="translate(-3864.839 -1114.85)" fill="#d4924e"/>
          </g>
          <g id="Grupo_1175888" data-name="Grupo 1175888" transform="translate(0)">
            <path id="Trazado_1032182" data-name="Trazado 1032182" d="M3886.84,1070.683h-21.823a.172.172,0,0,1,0-.343h21.823a.172.172,0,0,1,0,.343Z" transform="translate(-3864.845 -1070.34)" fill="#d4924e"/>
          </g>
        </g>
        <g id="Grupo_1175892" data-name="Grupo 1175892" transform="translate(16.967 29.954)">
          <g id="Grupo_1175890" data-name="Grupo 1175890">
            <path id="Trazado_1032183" data-name="Trazado 1032183" d="M3109.3,865.6h-21.823a.171.171,0,0,1,0-.343H3109.3a.171.171,0,0,1,0,.343Z" transform="translate(-3087.305 -865.254)" fill="#d4924e"/>
          </g>
          <g id="Grupo_1175891" data-name="Grupo 1175891" transform="translate(0 2.305)">
            <path id="Trazado_1032184" data-name="Trazado 1032184" d="M3101.777,910.107h-14.3a.171.171,0,1,1,0-.343h14.3a.171.171,0,0,1,0,.343Z" transform="translate(-3087.309 -909.764)" fill="#d4924e"/>
          </g>
        </g>
        <g id="Grupo_1175895" data-name="Grupo 1175895" transform="translate(16.967 40.574)">
          <g id="Grupo_1175893" data-name="Grupo 1175893" transform="translate(0)">
            <path id="Trazado_1032185" data-name="Trazado 1032185" d="M3105.625,1070.683h-18.147a.172.172,0,0,1,0-.343h18.147a.172.172,0,1,1,0,.343Z" transform="translate(-3087.306 -1070.34)" fill="#d4924e"/>
          </g>
          <g id="Grupo_1175894" data-name="Grupo 1175894" transform="translate(0 2.305)">
            <path id="Trazado_1032186" data-name="Trazado 1032186" d="M3109.3,1115.193h-21.823a.171.171,0,0,1,0-.343H3109.3a.171.171,0,1,1,0,.343Z" transform="translate(-3087.305 -1114.85)" fill="#d4924e"/>
          </g>
        </g>
        <circle id="Elipse_12202" data-name="Elipse 12202" cx="3.443" cy="3.443" r="3.443" transform="translate(7.802 17.23)" fill="#ffa383"/>
        <g id="Grupo_1175896" data-name="Grupo 1175896" transform="translate(8.396 15.023)">
          <path id="Trazado_1032187" data-name="Trazado 1032187" d="M2924.647,584.219a.513.513,0,0,1-.312-.105l-2.334-1.78a.514.514,0,0,1,.623-.818l1.965,1.5,5.576-5.935a.514.514,0,0,1,.75.7l-5.894,6.273A.511.511,0,0,1,2924.647,584.219Z" transform="translate(-2921.799 -576.918)" fill="#df674e"/>
        </g>
        <circle id="Elipse_12203" data-name="Elipse 12203" cx="3.443" cy="3.443" r="3.443" transform="translate(6.374 31.237) rotate(-45)" fill="#ffa383"/>
        <g id="Grupo_1175897" data-name="Grupo 1175897" transform="translate(8.396 25.587)">
          <path id="Trazado_1032188" data-name="Trazado 1032188" d="M2924.647,788.23a.513.513,0,0,1-.312-.105l-2.334-1.78a.514.514,0,0,1,.623-.818l1.965,1.5,5.576-5.935a.514.514,0,1,1,.75.7l-5.894,6.273A.512.512,0,0,1,2924.647,788.23Z" transform="translate(-2921.799 -780.928)" fill="#df674e"/>
        </g>
        <circle id="Elipse_12204" data-name="Elipse 12204" cx="3.443" cy="3.443" r="3.443" transform="translate(6.374 41.592) rotate(-45)" fill="#ffa383"/>
        <g id="Grupo_1175898" data-name="Grupo 1175898" transform="translate(8.396 35.942)">
          <path id="Trazado_1032189" data-name="Trazado 1032189" d="M2924.647,988.2a.514.514,0,0,1-.312-.105l-2.334-1.78a.514.514,0,1,1,.623-.818l1.965,1.5,5.576-5.935a.514.514,0,0,1,.75.7l-5.894,6.273A.513.513,0,0,1,2924.647,988.2Z" transform="translate(-2921.799 -980.902)" fill="#df674e"/>
        </g>
        <circle id="Elipse_12205" data-name="Elipse 12205" cx="3.443" cy="3.443" r="3.443" transform="translate(47.822 17.23)" fill="#ffa383"/>
        <g id="Grupo_1175899" data-name="Grupo 1175899" transform="translate(48.416 15.023)">
          <path id="Trazado_1032190" data-name="Trazado 1032190" d="M3697.5,584.219a.511.511,0,0,1-.312-.105l-2.334-1.78a.514.514,0,1,1,.624-.818l1.965,1.5,5.576-5.935a.514.514,0,1,1,.749.7l-5.893,6.273A.513.513,0,0,1,3697.5,584.219Z" transform="translate(-3694.648 -576.918)" fill="#df674e"/>
        </g>
        <circle id="Elipse_12206" data-name="Elipse 12206" cx="3.443" cy="3.443" r="3.443" transform="translate(46.394 31.238) rotate(-45)" fill="#ffa383"/>
        <g id="Grupo_1175900" data-name="Grupo 1175900" transform="translate(48.416 25.587)">
          <path id="Trazado_1032191" data-name="Trazado 1032191" d="M3697.5,788.23a.511.511,0,0,1-.312-.105l-2.334-1.78a.514.514,0,1,1,.624-.818l1.965,1.5,5.576-5.935a.514.514,0,1,1,.749.7l-5.893,6.273A.514.514,0,0,1,3697.5,788.23Z" transform="translate(-3694.648 -780.928)" fill="#df674e"/>
        </g>
        <circle id="Elipse_12207" data-name="Elipse 12207" cx="3.443" cy="3.443" r="3.443" transform="translate(46.394 41.592) rotate(-45)" fill="#ffa383"/>
        <g id="Grupo_1175901" data-name="Grupo 1175901" transform="translate(48.416 35.942)">
          <path id="Trazado_1032192" data-name="Trazado 1032192" d="M3697.5,988.2a.512.512,0,0,1-.312-.105l-2.334-1.78a.514.514,0,1,1,.624-.818l1.965,1.5,5.576-5.935a.514.514,0,0,1,.749.7l-5.893,6.273A.515.515,0,0,1,3697.5,988.2Z" transform="translate(-3694.648 -980.902)" fill="#df674e"/>
        </g>
      </g>
      <g id="list2" transform="translate(-1029.303 13377.499)">
        <rect id="Rectángulo_414890" data-name="Rectángulo 414890" width="33.587" height="34.748" fill="#cfe6f7"/>
        <rect id="Rectángulo_414891" data-name="Rectángulo 414891" width="27.746" height="3.02" transform="translate(2.564 2.888)" fill="#5d91b8"/>
        <rect id="Rectángulo_414892" data-name="Rectángulo 414892" width="19.606" height="3.02" transform="translate(2.564 8.271)" fill="#5d91b8"/>
        <g id="Grupo_1175902" data-name="Grupo 1175902" transform="translate(3.851 15.861)">
          <path id="Trazado_1032193" data-name="Trazado 1032193" d="M4069.427,1839.193h-21.3a.171.171,0,0,1,0-.343h21.3a.171.171,0,1,1,0,.343Z" transform="translate(-4047.958 -1838.85)" fill="#5d91b8"/>
        </g>
        <g id="Grupo_1175903" data-name="Grupo 1175903" transform="translate(3.851 19.17)">
          <path id="Trazado_1032194" data-name="Trazado 1032194" d="M4069.427,1903.093h-21.3a.172.172,0,0,1,0-.343h21.3a.172.172,0,1,1,0,.343Z" transform="translate(-4047.958 -1902.75)" fill="#5d91b8"/>
        </g>
        <g id="Grupo_1175904" data-name="Grupo 1175904" transform="translate(3.852 22.48)">
          <path id="Trazado_1032195" data-name="Trazado 1032195" d="M4063.128,1967h-15a.171.171,0,0,1,0-.343h15a.171.171,0,0,1,0,.343Z" transform="translate(-4047.961 -1966.66)" fill="#5d91b8"/>
        </g>
        <g id="Grupo_1175905" data-name="Grupo 1175905" transform="translate(3.852 25.789)">
          <path id="Trazado_1032196" data-name="Trazado 1032196" d="M4063.128,2030.912h-15a.171.171,0,0,1,0-.343h15a.171.171,0,1,1,0,.343Z" transform="translate(-4047.961 -2030.57)" fill="#5d91b8"/>
        </g>
        <g id="Grupo_1175906" data-name="Grupo 1175906" transform="translate(3.852 29.098)">
          <path id="Trazado_1032197" data-name="Trazado 1032197" d="M4057.089,2094.813h-8.957a.172.172,0,0,1,0-.343h8.957a.172.172,0,1,1,0,.343Z" transform="translate(-4047.961 -2094.47)" fill="#5d91b8"/>
        </g>
      </g>
      <g id="chart" transform="translate(-1209.671 13398.685)">
        <rect id="Rectángulo_414893" data-name="Rectángulo 414893" width="63.632" height="36.071" fill="#99c9ac"/>
        <rect id="Rectángulo_414894" data-name="Rectángulo 414894" width="6.573" height="26.171" transform="translate(4.639 3.847)" fill="#65a17d"/>
        <rect id="Rectángulo_414895" data-name="Rectángulo 414895" width="6.573" height="3.762" transform="translate(4.639 26.256)" fill="#ffdebc"/>
        <rect id="Rectángulo_414896" data-name="Rectángulo 414896" width="6.573" height="26.171" transform="translate(16.431 3.847)" fill="#65a17d"/>
        <rect id="Rectángulo_414897" data-name="Rectángulo 414897" width="6.573" height="7.469" transform="translate(16.431 22.549)" fill="#ffdebc"/>
        <rect id="Rectángulo_414898" data-name="Rectángulo 414898" width="6.573" height="26.171" transform="translate(28.224 3.847)" fill="#65a17d"/>
        <rect id="Rectángulo_414899" data-name="Rectángulo 414899" width="6.573" height="13.742" transform="translate(28.224 16.276)" fill="#ffdebc"/>
        <rect id="Rectángulo_414900" data-name="Rectángulo 414900" width="6.573" height="26.171" transform="translate(40.015 3.847)" fill="#65a17d"/>
        <rect id="Rectángulo_414901" data-name="Rectángulo 414901" width="6.573" height="18.381" transform="translate(40.015 11.637)" fill="#ffdebc"/>
        <rect id="Rectángulo_414902" data-name="Rectángulo 414902" width="6.573" height="26.171" transform="translate(51.808 3.847)" fill="#ffdebc"/>
        <circle id="Elipse_12208" data-name="Elipse 12208" cx="1.235" cy="1.235" r="1.235" transform="translate(6.69 31.846)" fill="#578569"/>
        <circle id="Elipse_12209" data-name="Elipse 12209" cx="1.235" cy="1.235" r="1.235" transform="translate(18.482 31.846)" fill="#578569"/>
        <circle id="Elipse_12210" data-name="Elipse 12210" cx="1.235" cy="1.235" r="1.235" transform="translate(30.275 31.846)" fill="#578569"/>
        <circle id="Elipse_12211" data-name="Elipse 12211" cx="1.235" cy="1.235" r="1.235" transform="translate(42.067 31.846)" fill="#578569"/>
        <circle id="Elipse_12212" data-name="Elipse 12212" cx="1.235" cy="1.235" r="1.235" transform="translate(53.859 31.846)" fill="#578569"/>
      </g>
      <g id="coins" transform="translate(-1168.203 13306.217)">
        <g id="Grupo_1175927" data-name="Grupo 1175927" transform="translate(0 10.752)">
          <g id="Grupo_1175912" data-name="Grupo 1175912" transform="translate(0 7.707)">
            <g id="Grupo_1175911" data-name="Grupo 1175911">
              <g id="Grupo_1175910" data-name="Grupo 1175910">
                <g id="Grupo_1175907" data-name="Grupo 1175907">
                  <rect id="Rectángulo_414903" data-name="Rectángulo 414903" width="23.686" height="3.853" fill="#ffa345"/>
                </g>
                <g id="Grupo_1175908" data-name="Grupo 1175908" transform="translate(3.548 0)">
                  <path id="Trazado_1032198" data-name="Trazado 1032198" d="M1364.849,512.431l-2.77,3.854H1359.7l2.77-3.854Z" transform="translate(-1359.7 -512.431)" fill="#ffb973"/>
                </g>
                <g id="Grupo_1175909" data-name="Grupo 1175909" transform="translate(12.561 0)">
                  <path id="Trazado_1032199" data-name="Trazado 1032199" d="M1540.61,512.431l-2.771,3.854h-4.069l2.77-3.854Z" transform="translate(-1533.77 -512.431)" fill="#ffb973"/>
                </g>
              </g>
            </g>
          </g>
          <g id="Grupo_1175918" data-name="Grupo 1175918">
            <g id="Grupo_1175917" data-name="Grupo 1175917">
              <g id="Grupo_1175916" data-name="Grupo 1175916">
                <g id="Grupo_1175913" data-name="Grupo 1175913">
                  <rect id="Rectángulo_414904" data-name="Rectángulo 414904" width="23.686" height="3.853" fill="#ffa345"/>
                </g>
                <g id="Grupo_1175914" data-name="Grupo 1175914" transform="translate(3.548 0)">
                  <path id="Trazado_1032200" data-name="Trazado 1032200" d="M1364.849,363.6l-2.77,3.853H1359.7l2.77-3.853Z" transform="translate(-1359.7 -363.598)" fill="#ffb973"/>
                </g>
                <g id="Grupo_1175915" data-name="Grupo 1175915" transform="translate(12.561 0)">
                  <path id="Trazado_1032201" data-name="Trazado 1032201" d="M1540.61,363.6l-2.771,3.853h-4.069l2.77-3.853Z" transform="translate(-1533.77 -363.598)" fill="#ffb973"/>
                </g>
              </g>
            </g>
          </g>
          <g id="Grupo_1175924" data-name="Grupo 1175924" transform="translate(5.123 3.853)">
            <g id="Grupo_1175923" data-name="Grupo 1175923">
              <g id="Grupo_1175922" data-name="Grupo 1175922">
                <g id="Grupo_1175919" data-name="Grupo 1175919">
                  <rect id="Rectángulo_414905" data-name="Rectángulo 414905" width="23.686" height="3.853" fill="#ffa345"/>
                </g>
                <g id="Grupo_1175920" data-name="Grupo 1175920" transform="translate(3.548 0)">
                  <path id="Trazado_1032202" data-name="Trazado 1032202" d="M1463.789,438.015l-2.77,3.853h-2.378l2.77-3.853Z" transform="translate(-1458.64 -438.015)" fill="#ffb973"/>
                </g>
                <g id="Grupo_1175921" data-name="Grupo 1175921" transform="translate(12.561 0)">
                  <path id="Trazado_1032203" data-name="Trazado 1032203" d="M1639.54,438.015l-2.77,3.853h-4.07l2.77-3.853Z" transform="translate(-1632.7 -438.015)" fill="#ffb973"/>
                </g>
              </g>
            </g>
          </g>
          <g id="Grupo_1175925" data-name="Grupo 1175925" transform="translate(4.951 3.682)">
            <path id="Trazado_1032204" data-name="Trazado 1032204" d="M1386.982,435.046a.171.171,0,1,1,0-.343h18.563a.171.171,0,0,1,0,.343Z" transform="translate(-1386.81 -434.703)" fill="#ba6c1e"/>
          </g>
          <g id="Grupo_1175926" data-name="Grupo 1175926" transform="translate(4.951 7.535)">
            <path id="Trazado_1032205" data-name="Trazado 1032205" d="M1386.982,509.462a.171.171,0,1,1,0-.343h18.563a.171.171,0,0,1,0,.343Z" transform="translate(-1386.81 -509.119)" fill="#ba6c1e"/>
          </g>
        </g>
        <g id="Grupo_1175929" data-name="Grupo 1175929" transform="translate(12.826 0)">
          <circle id="Elipse_12213" data-name="Elipse 12213" cx="9.242" cy="9.242" r="9.242" transform="translate(0 13.071) rotate(-45)" fill="#ffc080"/>
          <g id="Grupo_1175928" data-name="Grupo 1175928" transform="translate(9.223 8.207)">
            <path id="Trazado_1032206" data-name="Trazado 1032206" d="M1719.061,321.27c.215.949.9,1.366,1.991,1.366s1.558-.431,1.558-1.123c0-.77-.456-1.1-2.073-1.48-2.573-.6-3.209-1.54-3.209-2.816,0-1.648,1.233-2.767,3.471-2.767,2.51,0,3.51,1.349,3.646,2.732h-2.06c-.1-.582-.421-1.214-1.639-1.214-.83,0-1.331.343-1.331,1.014s.4.924,1.929,1.279c2.75.648,3.353,1.671,3.353,3,0,1.726-1.306,2.911-3.805,2.911-2.4,0-3.664-1.182-3.891-2.905Z" transform="translate(-1717.001 -314.449)" fill="#fde6cf"/>
          </g>
          <rect id="Rectángulo_414906" data-name="Rectángulo 414906" width="1.021" height="11.766" transform="translate(12.57 7.187)" fill="#fde6cf"/>
        </g>
        <g id="Grupo_1175931" data-name="Grupo 1175931" transform="translate(162.028 93.503)">
          <circle id="Elipse_12214" data-name="Elipse 12214" cx="11.06" cy="11.06" r="11.06" fill="#ffc080"/>
          <g id="Grupo_1175930" data-name="Grupo 1175930" transform="translate(6.455 5.241)">
            <path id="Trazado_1032207" data-name="Trazado 1032207" d="M4547.338,2071.023c.258,1.137,1.073,1.634,2.382,1.634s1.865-.516,1.865-1.344c0-.921-.545-1.321-2.481-1.771-3.079-.723-3.84-1.844-3.84-3.371,0-1.972,1.476-3.312,4.154-3.312,3,0,4.2,1.615,4.363,3.27h-2.465c-.118-.7-.5-1.452-1.962-1.452-.992,0-1.591.41-1.591,1.214,0,.787.479,1.106,2.308,1.53,3.291.775,4.012,2,4.012,3.595,0,2.067-1.563,3.484-4.554,3.484-2.872,0-4.384-1.414-4.655-3.477Z" transform="translate(-4544.874 -2062.861)" fill="#fde6cf"/>
          </g>
          <rect id="Rectángulo_414907" data-name="Rectángulo 414907" width="1.222" height="14.081" transform="translate(10.46 4.02)" fill="#fde6cf"/>
        </g>
      </g>
      <g id="man" transform="translate(-1139.769 13367.667)">
        <path id="Trazado_1032208" data-name="Trazado 1032208" d="M1889.176,2044.7c4.552,1.138,12.429,2.1,15.4,5.427s6.915,14.792,6.915,14.792l-46.3,2.713-7.09,7.877,10.766.525-2.013,10.416s-20.744.875-24.6-2.8-1.75-5.864,3.939-14.617,13.3-19.868,17.33-21.357,14-2.976,14-2.976Z" transform="translate(-1840.303 -2008.347)" fill="#a9cbe4"/>
        <path id="Trazado_1032209" data-name="Trazado 1032209" d="M2574.057,1894.04l-.207,3.5-.319,5.372-4.319,2.16-4.843-2.393v-8.986Z" transform="translate(-2526.877 -1865.156)" fill="#a35f4b"/>
        <path id="Trazado_1032210" data-name="Trazado 1032210" d="M2602.81,2111.406c.059,2.1,1.336,4.149,3.2,4.032s2.976-.934,2.742-2.917-3.093-1.284-3.093-1.284Z" transform="translate(-2563.326 -2071.325)" fill="#df674e"/>
        <path id="Trazado_1032211" data-name="Trazado 1032211" d="M2594.279,2166.808l-2.859,9.92,7.5.583L2596.5,2166.4Z" transform="translate(-2552.526 -2123.745)" fill="#df674e"/>
        <path id="Trazado_1032212" data-name="Trazado 1032212" d="M2495.459,1982.72l-3.209,3.209,3.443,8.053,5.135-4.493Z" transform="translate(-2458.491 -1949.577)" fill="#fff"/>
        <path id="Trazado_1032213" data-name="Trazado 1032213" d="M2663.268,1989.48l2.752,3.226-3.277,7.394-4.843-4.2Z" transform="translate(-2615.563 -1955.986)" fill="#fff"/>
        <g id="Grupo_1175932" data-name="Grupo 1175932" transform="translate(13.469 64.788)">
          <path id="Trazado_1032214" data-name="Trazado 1032214" d="M2104.7,2596.313h-.018a15.258,15.258,0,0,1-2.372-.5,4.7,4.7,0,0,1-1.547-.817c-.363-.3-.382-.57-.335-.74a.735.735,0,0,1,.8-.431,3.626,3.626,0,0,1,1.521.454,6.205,6.205,0,0,1,2.084,1.761.17.17,0,0,1-.136.274Zm-3.523-2.148c-.184,0-.384.054-.42.181-.04.145.144.317.225.385a4.379,4.379,0,0,0,1.438.756,14.666,14.666,0,0,0,1.87.425,5.885,5.885,0,0,0-1.7-1.331,3.316,3.316,0,0,0-1.378-.415Z" transform="translate(-2100.407 -2593.822)" fill="#679abf"/>
        </g>
        <path id="Trazado_1032215" data-name="Trazado 1032215" d="M2574.06,1894.037l-.207,3.5c-1.974,1.358-4.021,2.2-5.415,2.066-1.413-.138-2.948-1.62-4.064-3.228v-2.685Z" transform="translate(-2526.88 -1865.153)" fill="#80402c"/>
        <g id="Grupo_1175933" data-name="Grupo 1175933" transform="translate(9.603 66.162)">
          <path id="Trazado_1032216" data-name="Trazado 1032216" d="M2029,2622.213a11.912,11.912,0,0,1-2.589-.267.791.791,0,0,1-.64-.442.587.587,0,0,1,.136-.566,1.12,1.12,0,0,1,.422-.275,4.809,4.809,0,0,1,1.666-.3,16.943,16.943,0,0,1,4.049.4.171.171,0,1,1-.076.334,16.543,16.543,0,0,0-3.961-.4,4.5,4.5,0,0,0-1.547.271.8.8,0,0,0-.3.186.252.252,0,0,0-.068.23c.032.1.155.164.389.216a18.8,18.8,0,0,0,7.46-.324.171.171,0,1,1,.062.337A27.821,27.821,0,0,1,2029,2622.213Z" transform="translate(-2025.745 -2620.359)" fill="#679abf"/>
        </g>
        <path id="Trazado_1032217" data-name="Trazado 1032217" d="M2510.118,1514.054a84.962,84.962,0,0,0-.961,9.978c0,1.751,4.843,5.485,7,5.952s7.469-1.692,7.76-2.743,2.451-9.628,2.451-9.628l.934-6.827-2.859-2.917-8.928-1.809-3.5,1.984Z" transform="translate(-2474.523 -1497.599)" fill="#a35f4b"/>
        <ellipse id="Elipse_12215" data-name="Elipse 12215" cx="2.159" cy="2.665" rx="2.159" ry="2.665" transform="matrix(0.948, -0.319, 0.319, 0.948, 31.087, 18.589)" fill="#a35f4b"/>
        <ellipse id="Elipse_12216" data-name="Elipse 12216" cx="2.665" cy="2.159" rx="2.665" ry="2.159" transform="translate(48.82 24.345) rotate(-42.09)" fill="#a35f4b"/>
        <g id="Grupo_1175934" data-name="Grupo 1175934" transform="translate(41.427 21.108)">
          <path id="Trazado_1032218" data-name="Trazado 1032218" d="M2642.75,1755.068a3.391,3.391,0,0,1-.924-.137,7.679,7.679,0,0,1-1.406-.6.171.171,0,1,1,.156-.3,7.4,7.4,0,0,0,1.343.575,2.622,2.622,0,0,0,1.387.055c.119-.032.151-.065.158-.082.019-.041-.013-.136-.033-.192a9.967,9.967,0,0,1-.514-3.93.174.174,0,0,1,.183-.158.171.171,0,0,1,.158.183,9.627,9.627,0,0,0,.5,3.794.587.587,0,0,1,.02.45.549.549,0,0,1-.382.267A2.521,2.521,0,0,1,2642.75,1755.068Z" transform="translate(-2640.327 -1750.293)" fill="#803f2b"/>
        </g>
        <path id="Trazado_1032219" data-name="Trazado 1032219" d="M2614.5,1870.491a3.128,3.128,0,0,0,1.9,1.164,3.565,3.565,0,0,0,1.82-.315,3.482,3.482,0,0,0,.4-.2,9.661,9.661,0,0,1-4.6-1.38A4.528,4.528,0,0,0,2614.5,1870.491Z" transform="translate(-2573.949 -1842.47)" fill="#962812"/>
        <path id="Trazado_1032220" data-name="Trazado 1032220" d="M2602.81,1846.45c.2.415.37.821.58,1.207a9.664,9.664,0,0,0,4.605,1.38,11.211,11.211,0,0,0,1.207-.86A13.908,13.908,0,0,1,2602.81,1846.45Z" transform="translate(-2563.326 -1820.363)" fill="#fff"/>
        <g id="Grupo_1175935" data-name="Grupo 1175935" transform="translate(45.543 27.244)">
          <path id="Trazado_1032221" data-name="Trazado 1032221" d="M2720.694,1870.16a.171.171,0,0,1-.167-.13,1.6,1.6,0,0,0-.642-.919.171.171,0,1,1,.192-.284,1.946,1.946,0,0,1,.782,1.119.17.17,0,0,1-.125.208A.151.151,0,0,1,2720.694,1870.16Z" transform="translate(-2719.809 -1868.797)" fill="#803f2b"/>
        </g>
        <g id="Grupo_1175936" data-name="Grupo 1175936" transform="translate(38.526 25.691)">
          <path id="Trazado_1032222" data-name="Trazado 1032222" d="M2584.469,1839.435a.171.171,0,0,1-.086-.32,2.41,2.41,0,0,1,1.407-.307.172.172,0,0,1-.031.342,2.066,2.066,0,0,0-1.2.262A.163.163,0,0,1,2584.469,1839.435Z" transform="translate(-2584.297 -1838.799)" fill="#803f2b"/>
        </g>
        <ellipse id="Elipse_12217" data-name="Elipse 12217" cx="0.962" cy="0.642" rx="0.962" ry="0.642" transform="translate(46.301 23.123) rotate(-74.003)"/>
        <ellipse id="Elipse_12218" data-name="Elipse 12218" cx="0.962" cy="0.642" rx="0.962" ry="0.642" transform="translate(39.455 21.421) rotate(-74.003)"/>
        <g id="Grupo_1175937" data-name="Grupo 1175937" transform="translate(45.919 22.993)">
          <path id="Trazado_1032223" data-name="Trazado 1032223" d="M2729.18,1787.3a.167.167,0,0,1-.061-.012,3.7,3.7,0,0,0-1.84-.2.171.171,0,1,1-.049-.339,4.045,4.045,0,0,1,2.011.224.172.172,0,0,1-.061.332Z" transform="translate(-2727.083 -1786.703)" fill="#803f2b"/>
        </g>
        <g id="Grupo_1175938" data-name="Grupo 1175938" transform="translate(38.703 21.032)">
          <path id="Trazado_1032224" data-name="Trazado 1032224" d="M2590.173,1749.961a.171.171,0,0,1-.1-.029,4.616,4.616,0,0,0-2.194-.766.171.171,0,1,1,.028-.342,4.958,4.958,0,0,1,2.357.823.171.171,0,0,1,.046.238A.169.169,0,0,1,2590.173,1749.961Z" transform="translate(-2587.725 -1748.823)" fill="#803f2b"/>
        </g>
        <path id="Trazado_1032225" data-name="Trazado 1032225" d="M2725.68,1699.461a6.7,6.7,0,0,0,2.309.244.314.314,0,0,0,.306-.267.6.6,0,0,0-.26-.492,4.079,4.079,0,0,0-1.509-.921c-.453-.142-1.487-.321-1.761.231C2724.465,1698.863,2724.974,1699.24,2725.68,1699.461Z" transform="translate(-2678.883 -1679.486)" fill="#3b262d"/>
        <path id="Trazado_1032226" data-name="Trazado 1032226" d="M2588.452,1675.834a5.22,5.22,0,0,0,1.991.509,1.7,1.7,0,0,0,.664-.069.729.729,0,0,0,.465-.451.768.768,0,0,0-.478-.848,2.239,2.239,0,0,0-1.046-.113l-1.28.066c-.242.013-.669.024-.738.324C2587.969,1675.529,2588.24,1675.733,2588.452,1675.834Z" transform="translate(-2549.303 -1657.65)" fill="#3b262d"/>
        <path id="Trazado_1032227" data-name="Trazado 1032227" d="M2496.757,1487.123c-.016.489,1.182,1.026,1.649,1.168.58.177.663-.39,1.035-2.124a62.2,62.2,0,0,1,3-7.855l10.124.992,2.072,3.793s-.974,5.224-1.167,6.594-.569,1.6.343,1.692a1.393,1.393,0,0,0,1.321-.787l1.488-6.74-.876-4.084-5.38-3.443-9.645-1.255-3.326,4.9Z" transform="translate(-2462.764 -1468.217)" fill="#3b262d"/>
        <ellipse id="Elipse_12219" data-name="Elipse 12219" cx="2.947" cy="2.436" rx="2.947" ry="2.436" transform="matrix(0.218, -0.976, 0.976, 0.218, 32.92, 13.981)" fill="#3b262d"/>
        <ellipse id="Elipse_12220" data-name="Elipse 12220" cx="2.495" cy="2.786" rx="2.495" ry="2.786" transform="translate(50.71 11.991)" fill="#3b262d"/>
        <ellipse id="Elipse_12221" data-name="Elipse 12221" cx="4.108" cy="5.675" rx="4.108" ry="5.675" transform="translate(42.478 11.778) rotate(-74.003)" fill="#3b262d"/>
        <ellipse id="Elipse_12222" data-name="Elipse 12222" cx="7.944" cy="5.864" rx="7.944" ry="5.864" transform="translate(33.176)" fill="#3b262d"/>
      </g>
      <g id="woman" transform="translate(-1072.458 13381.977)">
        <path id="Trazado_1032228" data-name="Trazado 1032228" d="M3157.058,1645.04c-2.257.311-8.092,2.723-9.648,4.823s.7,7.741,3.5,9.142.7,2.218.7,2.218-.195,7.316-1.906,9.843c3.385,2.138,9.8,1.244,9.8,1.244l2.684-2.567-2.178-8.519Z" transform="translate(-3146.554 -1643.692)" fill="#733b44"/>
        <path id="Trazado_1032229" data-name="Trazado 1032229" d="M3178.129,2144.908H3156.54a41.7,41.7,0,0,0-2.451-5.369,36.457,36.457,0,0,0-3.851-3.21l-2.509,8.579H3140.2s5.309-25.616,6.009-27.425c.453-1.17,1.979-2.414,4.185-3.65a43.262,43.262,0,0,1,4.159-2.011,47.324,47.324,0,0,1,5.194-1.458,21.068,21.068,0,0,1,7.116.406,53.812,53.812,0,0,1,5.429,1.287c3.325.992,2.568,10.735,2.568,10.735l.36,2.439,1.078,7.293Z" transform="translate(-3140.201 -2084.761)" fill="#df674e"/>
        <path id="Trazado_1032230" data-name="Trazado 1032230" d="M3352.228,2110.77a4.616,4.616,0,0,1-1.261,2.57,9.31,9.31,0,0,1-3.227,2.043,18.7,18.7,0,0,1-8.468,1.553,4.586,4.586,0,0,1-2.917-1.008,2.186,2.186,0,0,1-.6-2.095,43.285,43.285,0,0,1,4.159-2.011,47.343,47.343,0,0,1,5.194-1.458A21.072,21.072,0,0,1,3352.228,2110.77Z" transform="translate(-3325.564 -2084.762)" fill="#ffa383"/>
        <g id="Grupo_1175939" data-name="Grupo 1175939" transform="translate(8.443 39.727)">
          <path id="Trazado_1032231" data-name="Trazado 1032231" d="M3304.843,2398.217a.171.171,0,0,1-.092-.028c-1.938-1.249-1.573-4.556-1.22-7.755a28.958,28.958,0,0,0,.265-4.052.172.172,0,0,1,.343-.014,29.217,29.217,0,0,1-.267,4.1c-.342,3.095-.694,6.3,1.064,7.43a.172.172,0,0,1-.093.316Z" transform="translate(-3303.25 -2386.204)" fill="#bd462e"/>
        </g>
        <path id="Trazado_1032232" data-name="Trazado 1032232" d="M3667.305,2323.259c-2.88-2.583-7.856-8.914-9.285-11.912l8.208,4.618Z" transform="translate(-3631.207 -2275.496)" fill="#bd462e"/>
        <path id="Trazado_1032233" data-name="Trazado 1032233" d="M3645.3,2147.726c5.46.87,17.76,16.814,20.211,20.2s2.918,5.778.875,7.44-2.859.845-6.885,3.238-4.435,4.9-8.753,4.9a18.241,18.241,0,0,1-6.186-.759l-2.334-4.142,13.3-7.411s-11.5-10.478-15.288-14.354c-2.567-2.626-1.681-5.825-.058-7.75C3641.177,2147.911,3643.409,2147.424,3645.3,2147.726Z" transform="translate(-3612.818 -2120.265)" fill="#df674e"/>
        <g id="Grupo_1175940" data-name="Grupo 1175940" transform="translate(42.53 48.577)">
          <path id="Trazado_1032234" data-name="Trazado 1032234" d="M3961.693,2559.707a.171.171,0,0,1-.142-.267,5.448,5.448,0,0,1,3.659-2.311,1.007,1.007,0,0,1,.961.228.777.777,0,0,1,.07.868,1.414,1.414,0,0,1-.585.555,4.988,4.988,0,0,1-1.964.515,6.09,6.09,0,0,0-1.461.293.17.17,0,0,1-.22-.1.166.166,0,0,1-.009-.09c-.058.076-.114.154-.167.233A.169.169,0,0,1,3961.693,2559.707Zm3.818-2.259a1.741,1.741,0,0,0-.251.021,5.114,5.114,0,0,0-3.157,1.8l.008,0a6.428,6.428,0,0,1,1.542-.313,4.651,4.651,0,0,0,1.833-.472,1.09,1.09,0,0,0,.451-.416.45.45,0,0,0-.022-.482A.516.516,0,0,0,3965.511,2557.448Z" transform="translate(-3961.522 -2557.106)" fill="#bd462e"/>
        </g>
        <g id="Grupo_1175941" data-name="Grupo 1175941" transform="translate(42.199 47.925)">
          <path id="Trazado_1032235" data-name="Trazado 1032235" d="M3955.44,2547.519a.171.171,0,0,1-.168-.141,5.162,5.162,0,0,1-.119-1.358,1.754,1.754,0,0,1,.756-1.4.806.806,0,0,1,.891.091.677.677,0,0,1,.217.749,6.6,6.6,0,0,1-1.033,1.985.171.171,0,0,1-.273-.207,6.255,6.255,0,0,0,.979-1.882.336.336,0,0,0-.109-.381.462.462,0,0,0-.51-.053,1.445,1.445,0,0,0-.576,1.126,4.944,4.944,0,0,0,.115,1.27.171.171,0,0,1-.138.2Z" transform="translate(-3955.142 -2544.527)" fill="#bd462e"/>
        </g>
        <path id="Trazado_1032236" data-name="Trazado 1032236" d="M3480.542,2773.376a4.941,4.941,0,0,1-2.065-.036,11.456,11.456,0,0,0-2.224-.427c-.79.01-1.569.1-2.354.186a13.105,13.105,0,0,1-2.2.108,3.281,3.281,0,0,1-1.9-.517.816.816,0,0,1-.3-.732,1.131,1.131,0,0,1-.5-.13.387.387,0,0,1-.183-.441.565.565,0,0,1,.4-.27,31.025,31.025,0,0,1,11.476-1.308c.329.339.741.634,1.071.971a2.788,2.788,0,0,1,.494.658.941.941,0,0,1,.15.4c-.032.314-.511.788-.739.984A2.649,2.649,0,0,1,3480.542,2773.376Z" transform="translate(-3451.783 -2710.137)" fill="#ffa383"/>
        <g id="Grupo_1175942" data-name="Grupo 1175942" transform="translate(17.543 60.966)">
          <path id="Trazado_1032237" data-name="Trazado 1032237" d="M3479.156,2797.381a.171.171,0,0,1-.016-.342c.021,0,2.089-.2,2.985-.358a25.748,25.748,0,0,1,4.021-.324.171.171,0,1,1,0,.343,25.366,25.366,0,0,0-3.955.319c-.91.166-2.928.355-3.015.363Z" transform="translate(-3478.984 -2796.355)" fill="#e07753"/>
        </g>
        <path id="Trazado_1032238" data-name="Trazado 1032238" d="M3677.271,2742.666c-.19-.315-.365-.641-.786-.611a2.235,2.235,0,0,0-.988.393,1.148,1.148,0,0,0-.441.445,1.288,1.288,0,0,0,.231,1.114l1.361,2.4a1.442,1.442,0,0,0,.555.638,1.456,1.456,0,0,0,1.191-.155c.293-.13.621-.3.7-.612a1.033,1.033,0,0,0-.156-.681C3678.435,2744.59,3677.853,2743.627,3677.271,2742.666Z" transform="translate(-3647.302 -2683.899)" fill="#c95138"/>
        <path id="Trazado_1032239" data-name="Trazado 1032239" d="M3387.259,1946.6l-6.691,2.306-.785-2.547-.694-2.249,3.7-3.537,1.357-3.776,2.879-.272Z" transform="translate(-3366.72 -1920.079)" fill="#ffa383"/>
        <path id="Trazado_1032240" data-name="Trazado 1032240" d="M3383.521,2015.058a8.079,8.079,0,0,1-3.741,5.438l-.694-2.249,3.7-3.537Z" transform="translate(-3366.715 -1994.221)" fill="#e37c59"/>
        <path id="Trazado_1032241" data-name="Trazado 1032241" d="M3218.936,1705.14c-2.606.506-5.057,2.8-5.524,4.551s-.973,7.78,0,11.009,2.917,5.034,5.174,5.415,5.645-1.954,7.314-4.6,1.588-7.586,1.588-7.586Z" transform="translate(-3209.094 -1700.68)" fill="#ffa383"/>
        <path id="Trazado_1032242" data-name="Trazado 1032242" d="M3323.755,1620.141c-.275,4.449,1.3,11.359,8.862,12.82.2,3.384-.306,14.871-.306,14.871a21.457,21.457,0,0,0,9.375-6.546c.389-5.68-3.579-16.766-4.979-19.023-1.3-2.1-8.106-3.722-12.03-3.131A1.085,1.085,0,0,0,3323.755,1620.141Z" transform="translate(-3314.222 -1619.009)" fill="#733b44"/>
        <path id="Trazado_1032243" data-name="Trazado 1032243" d="M3316.265,1702.116a8.484,8.484,0,0,0,.362,3.675,9.39,9.39,0,0,0,.708,1.7,7.951,7.951,0,0,0,1.028,1.506,6.647,6.647,0,0,0,2.944,1.991,8.245,8.245,0,0,0,1.778.382,15.106,15.106,0,0,0,1.874.028h.006a.172.172,0,0,1,.054.338,7.81,7.81,0,0,1-1.958.319,6.8,6.8,0,0,1-2.007-.253,6.385,6.385,0,0,1-1.853-.866,7.244,7.244,0,0,1-1.505-1.375,8.623,8.623,0,0,1-1.086-1.7,9.635,9.635,0,0,1-.672-1.883,9.225,9.225,0,0,1-.257-1.972c0-.166,0-.332.007-.5s.018-.331.044-.5l.031-.247c.014-.082.031-.164.047-.245.027-.163.079-.324.12-.484a.171.171,0,0,1,.335.068Z" transform="translate(-3306.594 -1697.617)" fill="#733b44"/>
        <g id="Grupo_1175944" data-name="Grupo 1175944" transform="translate(16.711 12.164)">
          <g id="Grupo_1175943" data-name="Grupo 1175943" transform="translate(0 0)">
            <ellipse id="Elipse_12223" data-name="Elipse 12223" cx="2.848" cy="2.197" rx="2.848" ry="2.197" transform="translate(0 5.232) rotate(-66.704)" fill="#ffa383"/>
          </g>
        </g>
        <path id="Trazado_1032244" data-name="Trazado 1032244" d="M3277.563,2013.394a4.927,4.927,0,0,0,.427-1,7.134,7.134,0,0,1-4.824.12,4.071,4.071,0,0,0,.449,1.263A7.235,7.235,0,0,0,3277.563,2013.394Z" transform="translate(-3266.281 -1992.027)" fill="#fff"/>
        <path id="Trazado_1032245" data-name="Trazado 1032245" d="M3281.841,2032.018a1.917,1.917,0,0,0,1.613,1.107,2.681,2.681,0,0,0,2.335-1.493A7.225,7.225,0,0,1,3281.841,2032.018Z" transform="translate(-3274.506 -2010.265)" fill="#cf4123"/>
        <path id="Trazado_1032246" data-name="Trazado 1032246" d="M3229.423,1835.123a1.48,1.48,0,0,1,.63-.618,1.848,1.848,0,0,1,.887-.216,1.748,1.748,0,0,1,.884.242,1.356,1.356,0,0,1,.589.67.205.205,0,0,1-.246.27l-.017,0c-.25-.068-.454-.125-.655-.165a4.056,4.056,0,0,0-.578-.08,2.963,2.963,0,0,0-.589.031,4.785,4.785,0,0,0-.655.15l-.014,0a.2.2,0,0,1-.249-.136A.2.2,0,0,1,3229.423,1835.123Z" transform="translate(-3224.782 -1823.141)" fill="#592e35"/>
        <path id="Trazado_1032247" data-name="Trazado 1032247" d="M3339.856,1835.123a1.482,1.482,0,0,1,.63-.618,1.848,1.848,0,0,1,.887-.216,1.746,1.746,0,0,1,.884.242,1.357,1.357,0,0,1,.589.67.205.205,0,0,1-.246.27l-.017,0c-.25-.068-.454-.125-.655-.165a4.069,4.069,0,0,0-.579-.08,2.963,2.963,0,0,0-.589.031,4.772,4.772,0,0,0-.656.15l-.014,0a.2.2,0,0,1-.234-.282Z" transform="translate(-3329.497 -1823.141)" fill="#592e35"/>
        <ellipse id="Elipse_12224" data-name="Elipse 12224" cx="0.627" cy="0.846" rx="0.627" ry="0.846" transform="translate(10.941 13.835)" fill="#592e35"/>
        <ellipse id="Elipse_12225" data-name="Elipse 12225" cx="0.627" cy="0.846" rx="0.627" ry="0.846" transform="translate(5.505 13.835)" fill="#592e35"/>
        <g id="Grupo_1175945" data-name="Grupo 1175945" transform="translate(6.748 14.693)">
          <path id="Trazado_1032248" data-name="Trazado 1032248" d="M3272.117,1907.231a1.882,1.882,0,0,1-1.358-.581.788.788,0,0,1-.249-.579.873.873,0,0,1,.341-.6,4.017,4.017,0,0,0,1.333-2.561.172.172,0,0,1,.341.037,4.367,4.367,0,0,1-1.448,2.782.554.554,0,0,0-.225.362.463.463,0,0,0,.156.327,1.552,1.552,0,0,0,1.358.453.171.171,0,0,1,.058.338A1.823,1.823,0,0,1,3272.117,1907.231Z" transform="translate(-3270.51 -1902.753)" fill="#e07753"/>
        </g>
      </g>
      <g id="laptop" transform="translate(-1115.229 13419.512)">
        <rect id="Rectángulo_414908" data-name="Rectángulo 414908" width="48.49" height="29.321" fill="#3f5175"/>
        <path id="Trazado_1032249" data-name="Trazado 1032249" d="M2679.733,2574.7a5.482,5.482,0,0,0,.972,1.944,10.554,10.554,0,0,1-1.51.106c-3.114,0-5.637-1.3-5.637-2.9s2.523-2.9,5.637-2.9c.315,0,.624.014.925.039A5.349,5.349,0,0,0,2679.733,2574.7Z" transform="translate(-2654.95 -2559.186)" fill="#5f7ab0"/>
        <path id="Trazado_1032250" data-name="Trazado 1032250" d="M2836.664,2583.812c0,.806-.637,1.536-1.669,2.062a3.524,3.524,0,0,1-1.221-1.794,3.183,3.183,0,0,1,.535-2.626C2835.735,2581.979,2836.664,2582.839,2836.664,2583.812Z" transform="translate(-2806.782 -2569.151)" fill="#5f7ab0"/>
      </g>
    </g>
  </g>
</svg>
