<svg xmlns="http://www.w3.org/2000/svg" xmlns:xlink="http://www.w3.org/1999/xlink" width="295" height="199.031" viewBox="0 0 295 199.031">
  <defs>
    <clipPath id="clip-path">
      <rect id="Rect치ngulo_414662" data-name="Rect치ngulo 414662" width="295" height="192" transform="translate(915.461 8109)" fill="#fff" stroke="#707070" stroke-width="1" opacity="0.7"/>
    </clipPath>
  </defs>
  <g id="Grupo_1175086" data-name="Grupo 1175086" transform="translate(-915.461 -8109)">
    <g id="Enmascarar_grupo_1098801" data-name="Enmascarar grupo 1098801" clip-path="url(#clip-path)">
      <g id="Grupo_1175085" data-name="Grupo 1175085" transform="translate(-10)">
        <path id="Trazado_1030410" data-name="Trazado 1030410" d="M382.88,272.034c17.335,34.211,15.105,86.373-11.47,106.177C339.672,401.863,304.166,356.292,212,356.986c-67.572.509-96.343,25.367-125.443,3.715-22.866-17.013-32.214-52.535-24.122-79.164,17.281-56.866,111.644-65.134,140.28-67.643C229.531,211.545,347.013,201.253,382.88,272.034Z" transform="translate(1090.497 7870.348) rotate(39)" fill="#f2f7e5" opacity="0.5"/>
        <g id="Grupo_1175084" data-name="Grupo 1175084">
          <g id="Grupo_1175083" data-name="Grupo 1175083">
            <g id="Grupo_1175082" data-name="Grupo 1175082">
              <g id="Grupo_1173881" data-name="Grupo 1173881" transform="translate(951.984 8116.174)">
                <g id="Grupo_1173804" data-name="Grupo 1173804" transform="translate(0 85.939)">
                  <path id="Trazado_1030101" data-name="Trazado 1030101" d="M293.023,276.085s-27.533,56.646-54.044,51.293c-21.779-4.4-36.672-77.961-36.672-77.961l13.635-3.851,22.835,40.576,34.79-62.06S293.869,261.421,293.023,276.085Z" transform="translate(-173.756 -221.227)" fill="#ffa07f"/>
                  <path id="Trazado_1030102" data-name="Trazado 1030102" d="M256.729,236.907s-.718-4.517-6.463-6.312-7.721-5.027-10.772-4.13,1.761,6.1,1.761,6.1S253.317,238.014,256.729,236.907Z" transform="translate(-220.161 -218.357)" fill="#ff7d6f"/>
                  <path id="Trazado_1030103" data-name="Trazado 1030103" d="M278.21,245.747s-.654-5.637-4.723-7.314-24.176-5.5-28.247-8.617-7.9-7.035-9.1-5.553,6.7,10.1,9.335,13.692S264.575,249.6,264.575,249.6,276.232,248.99,278.21,245.747Z" transform="translate(-236.023 -221.409)" fill="#ffa07f"/>
                  <path id="Trazado_1030104" data-name="Trazado 1030104" d="M239.7,222.833l-31.037,48.775S225.2,301.466,236.34,312.2v-1.932S252.148,253.115,239.7,222.833Z" transform="translate(-139.732 -222.833)" fill="#df5b66"/>
                  <g id="Grupo_1173801" data-name="Grupo 1173801" transform="translate(71.123 45.314)">
                    <path id="Trazado_1030105" data-name="Trazado 1030105" d="M213.984,242.894c7.858,11.753,14.838,24.068,22.7,35.821.389.581-.549,1.125-.935.547-7.858-11.753-14.836-24.068-22.7-35.821-.389-.583.549-1.125.935-.547Z" transform="translate(-212.957 -242.647)" fill="#fff"/>
                  </g>
                  <g id="Grupo_1173802" data-name="Grupo 1173802" transform="translate(64.313 64.958)">
                    <path id="Trazado_1030106" data-name="Trazado 1030106" d="M226.433,251.663a108.561,108.561,0,0,0,.938,14.548c.073.563-.81.556-.883,0a109.377,109.377,0,0,1-.938-14.548.442.442,0,0,1,.883,0Z" transform="translate(-225.55 -251.236)" fill="#ff7d6f"/>
                  </g>
                  <g id="Grupo_1173803" data-name="Grupo 1173803" transform="translate(64.378 70.001)">
                    <path id="Trazado_1030107" data-name="Trazado 1030107" d="M225.167,253.64q1.822,2.665,3.641,5.331c.322.471-.444.913-.764.446q-1.818-2.666-3.641-5.331c-.32-.471.444-.913.764-.446Z" transform="translate(-224.326 -253.441)" fill="#ff7d6f"/>
                  </g>
                </g>
                <g id="Grupo_1173820" data-name="Grupo 1173820" transform="translate(138.595 228.715)">
                  <g id="Grupo_1173818" data-name="Grupo 1173818" transform="translate(20.247 243.99)">
                    <g id="Grupo_1173805" data-name="Grupo 1173805" transform="translate(8.738)">
                      <path id="Trazado_1030108" data-name="Trazado 1030108" d="M194.75,391.949v40.036l-16.171,1.29-7.918-37.486Z" transform="translate(-170.661 -391.949)" fill="#ffa07f"/>
                    </g>
                    <g id="Grupo_1173817" data-name="Grupo 1173817" transform="translate(0 30.711)">
                      <g id="Grupo_1173806" data-name="Grupo 1173806">
                        <path id="Trazado_1030109" data-name="Trazado 1030109" d="M169.675,433.885H205.3s1.006-17.292-.643-21.706-5.976,3.163-5.976,3.163-3.842-11.25-9.468-9.843c-2.564.64-4.169,2.907-5.162,5.191-.428-.908-1.052-1.8-1.766-1.544-1.347.478-1.852,9.281-1.864,9.489-1.532,1.6-3.636,3.43-5.42,3.68C170.846,422.908,167.566,427.359,169.675,433.885Z" transform="translate(-169.017 -405.378)" fill="#df5b66"/>
                      </g>
                      <g id="Grupo_1173808" data-name="Grupo 1173808" transform="translate(13.731 7.773)">
                        <g id="Grupo_1173807" data-name="Grupo 1173807">
                          <path id="Trazado_1030110" data-name="Trazado 1030110" d="M184.195,412.368a6.658,6.658,0,0,0-9.132-1.525c-.476.313-.919-.45-.446-.764a7.518,7.518,0,0,1,10.2,1.663c.352.441-.27,1.07-.627.627Z" transform="translate(-174.414 -408.777)" fill="#fff"/>
                        </g>
                      </g>
                      <g id="Grupo_1173810" data-name="Grupo 1173810" transform="translate(13.034 10.602)">
                        <g id="Grupo_1173809" data-name="Grupo 1173809">
                          <path id="Trazado_1030111" data-name="Trazado 1030111" d="M184.5,413.605a6.658,6.658,0,0,0-9.132-1.525c-.476.313-.919-.451-.446-.764a7.516,7.516,0,0,1,10.2,1.665c.352.439-.27,1.068-.627.624Z" transform="translate(-174.719 -410.014)" fill="#fff"/>
                        </g>
                      </g>
                      <g id="Grupo_1173812" data-name="Grupo 1173812" transform="translate(12.607 13.879)">
                        <g id="Grupo_1173811" data-name="Grupo 1173811">
                          <path id="Trazado_1030112" data-name="Trazado 1030112" d="M183.957,414.94c-1.937-2.724-5.166-3.49-7.936-1.436-.457.339-.9-.428-.446-.764,3.17-2.351,6.946-1.338,9.143,1.754.332.464-.434.906-.762.446Z" transform="translate(-175.385 -411.446)" fill="#fff"/>
                        </g>
                      </g>
                      <g id="Grupo_1173814" data-name="Grupo 1173814" transform="translate(31.95 11.021)">
                        <g id="Grupo_1173813" data-name="Grupo 1173813">
                          <path id="Trazado_1030113" data-name="Trazado 1030113" d="M173.632,410.968A15.947,15.947,0,0,0,169.916,423c.057.565-.826.56-.883,0a16.794,16.794,0,0,1,3.975-12.652c.37-.434.993.192.624.624Z" transform="translate(-168.946 -410.197)" fill="#fff"/>
                        </g>
                      </g>
                      <g id="Grupo_1173816" data-name="Grupo 1173816" transform="translate(1.111 23.652)">
                        <g id="Grupo_1173815" data-name="Grupo 1173815">
                          <path id="Trazado_1030114" data-name="Trazado 1030114" d="M204.071,416.6q-17.314.178-34.63.361a.442.442,0,0,1,0-.883l34.63-.361a.442.442,0,0,1,0,.883Z" transform="translate(-169.014 -415.72)" fill="#fff"/>
                        </g>
                      </g>
                    </g>
                  </g>
                  <path id="Trazado_1030115" data-name="Trazado 1030115" d="M229.031,292.463s-4.231,88.82-1.875,119.074,14.017,115.115-5.48,127.7c-19.57,12.631-30.481,10.067-40.352,3.344-11.675-7.954-12.361-92.9-13.308-123.939s-9.818-109.977.8-126.178S229.031,292.463,229.031,292.463Z" transform="translate(-163.646 -285.263)" fill="#343737"/>
                  <g id="Grupo_1173819" data-name="Grupo 1173819" transform="translate(50.278 14.72)">
                    <path id="Trazado_1030116" data-name="Trazado 1030116" d="M177.217,292.22q-2.772,49.351-2.7,98.807.041,24.624.8,49.241c.485,15.819,1.471,31.613,2.042,47.428.524,14.5-.13,30.065-8.8,42.346-.4.565-1.34.025-.935-.547,7.911-11.211,9.027-25.228,8.743-38.543-.329-15.46-1.489-30.913-2-46.373q-1.616-48.682-.444-97.405.662-27.492,2.209-54.954c.039-.693,1.123-.7,1.084,0Z" transform="translate(-167.527 -291.699)" fill="#fff" opacity="0.24"/>
                  </g>
                </g>
                <g id="Grupo_1173840" data-name="Grupo 1173840" transform="translate(66.152 225.136)">
                  <g id="Grupo_1173835" data-name="Grupo 1173835" transform="translate(0 247.569)">
                    <g id="Grupo_1173822" data-name="Grupo 1173822" transform="translate(29.365)">
                      <g id="Grupo_1173821" data-name="Grupo 1173821">
                        <path id="Trazado_1030117" data-name="Trazado 1030117" d="M226.259,391.949v40.036l-16.171,1.29-7.915-37.486Z" transform="translate(-202.172 -391.949)" fill="#ffa07f"/>
                      </g>
                    </g>
                    <g id="Grupo_1173834" data-name="Grupo 1173834" transform="translate(0 28.759)">
                      <g id="Grupo_1173823" data-name="Grupo 1173823">
                        <path id="Trazado_1030118" data-name="Trazado 1030118" d="M243.19,413.32s-5.084-9.761-8.084-8.718-4.222,12.883-4.222,12.883-16.3,5.45-20.85,5.738-8.24,2.868-8.823,11.762h55.651s-.375-20.08-.476-23.522-5,.86-5,.86Z" transform="translate(-201.21 -404.524)" fill="#df5b66"/>
                      </g>
                      <g id="Grupo_1173825" data-name="Grupo 1173825" transform="translate(49.86 13.743)">
                        <g id="Grupo_1173824" data-name="Grupo 1173824">
                          <path id="Trazado_1030119" data-name="Trazado 1030119" d="M206.578,411.356a8.345,8.345,0,0,0-3.023,11.735.419.419,0,1,1-.707.446,9.176,9.176,0,0,1,3.186-12.942c.46-.281,1,.482.544.761Z" transform="translate(-201.404 -410.533)" fill="#fff"/>
                        </g>
                      </g>
                      <g id="Grupo_1173827" data-name="Grupo 1173827" transform="translate(0.826 26.378)">
                        <g id="Grupo_1173826" data-name="Grupo 1173826">
                          <path id="Trazado_1030120" data-name="Trazado 1030120" d="M255.57,416.941q-21.828.23-43.654.455-5.074.055-10.15.105c-.567.007-.682-.878-.112-.883l43.654-.455q5.074-.055,10.15-.105c.567-.007.682.876.112.883Z" transform="translate(-201.28 -416.058)" fill="#fff"/>
                        </g>
                      </g>
                      <g id="Grupo_1173829" data-name="Grupo 1173829" transform="translate(23.273 12.968)">
                        <g id="Grupo_1173828" data-name="Grupo 1173828">
                          <path id="Trazado_1030121" data-name="Trazado 1030121" d="M219.967,413.686c-2.287-2.724-5.612-3.49-8.119-1.436-.414.338-.954-.428-.544-.762,2.87-2.351,6.774-1.338,9.367,1.754.391.462-.318.9-.7.444Z" transform="translate(-211.158 -410.194)" fill="#fff"/>
                        </g>
                      </g>
                      <g id="Grupo_1173831" data-name="Grupo 1173831" transform="translate(18.662 14.415)">
                        <g id="Grupo_1173830" data-name="Grupo 1173830">
                          <path id="Trazado_1030122" data-name="Trazado 1030122" d="M221.983,414.319c-2.287-2.724-5.612-3.49-8.119-1.436-.414.339-.954-.428-.544-.764,2.868-2.349,6.774-1.338,9.367,1.754.391.464-.318.906-.7.446Z" transform="translate(-213.174 -410.827)" fill="#fff"/>
                        </g>
                      </g>
                      <g id="Grupo_1173833" data-name="Grupo 1173833" transform="translate(13.896 15.861)">
                        <g id="Grupo_1173832" data-name="Grupo 1173832">
                          <path id="Trazado_1030123" data-name="Trazado 1030123" d="M224.067,414.953c-2.287-2.724-5.612-3.49-8.119-1.436-.414.338-.954-.428-.544-.764,2.868-2.351,6.774-1.338,9.367,1.754.391.462-.318.906-.7.446Z" transform="translate(-215.258 -411.459)" fill="#fff"/>
                        </g>
                      </g>
                    </g>
                  </g>
                  <path id="Trazado_1030124" data-name="Trazado 1030124" d="M284.911,315.671s-27.409,39.233-51.684,95.4c-9.893,22.888,29.26,105.711,3.828,123.518-23.416,16.4-38.6,6.5-45.868-6.321-6.79-11.972-14.657-91.951-12.889-114.713s22.435-121.274,30.092-128.865S284.911,315.671,284.911,315.671Z" transform="translate(-176.283 -283.698)" fill="#343737"/>
                  <g id="Grupo_1173836" data-name="Grupo 1173836" transform="translate(71.116 17.399)">
                    <path id="Trazado_1030125" data-name="Trazado 1030125" d="M194.4,291.828a624.149,624.149,0,0,0,1.814,67.59c.057.7-1.027.691-1.084,0a624.125,624.125,0,0,1-1.814-67.59c.021-.7,1.1-.7,1.084,0Z" transform="translate(-193.078 -291.305)" fill="#fff" opacity="0.24"/>
                  </g>
                  <g id="Grupo_1173837" data-name="Grupo 1173837" transform="translate(72.361 17.396)">
                    <path id="Trazado_1030126" data-name="Trazado 1030126" d="M197.707,291.825a120.41,120.41,0,0,1-.48,17.015c-.361,3.572-1.194,8.723-5.839,8.64a.542.542,0,0,1,0-1.084c5.214.094,4.871-8.178,5.1-11.714a121.173,121.173,0,0,0,.135-12.857c-.03-.7,1.054-.7,1.084,0Z" transform="translate(-190.865 -291.304)" fill="#fff" opacity="0.24"/>
                  </g>
                  <g id="Grupo_1173838" data-name="Grupo 1173838" transform="translate(25.912 13.46)">
                    <path id="Trazado_1030127" data-name="Trazado 1030127" d="M222.916,290.257a30.163,30.163,0,0,1-14.664,19.181c-.611.338-1.157-.6-.547-.935a29.086,29.086,0,0,0,14.166-18.534c.167-.677,1.212-.389,1.045.288Z" transform="translate(-207.438 -289.583)" fill="#fff" opacity="0.24"/>
                  </g>
                  <g id="Grupo_1173839" data-name="Grupo 1173839" transform="translate(42.767 73.313)">
                    <path id="Trazado_1030128" data-name="Trazado 1030128" d="M222.71,316.554c-12.409,19.471-25.47,40.121-27.03,63.8-.782,11.89,2.216,23.218,5.887,34.412,3.675,11.211,7.181,22.344,9.146,34.007a172.412,172.412,0,0,1,2.042,39.334c-.043.693-1.127.7-1.084,0a171.172,171.172,0,0,0-1.571-36.345c-1.814-11.934-5.162-23.366-8.949-34.8-3.616-10.916-6.943-22.01-6.689-33.626.249-11.348,3.346-22.465,7.824-32.837,5.249-12.158,12.389-23.362,19.485-34.5.38-.586,1.317-.043.94.549Z" transform="translate(-194.448 -315.754)" fill="#fff" opacity="0.24"/>
                  </g>
                </g>
                <g id="Grupo_1173848" data-name="Grupo 1173848" transform="translate(83.83 59.781)">
                  <path id="Trazado_1030129" data-name="Trazado 1030129" d="M164.065,321.184c27.839,16.19,111.737,0,111.737,0s2.484-77.746-4.482-85.819c-5.487-6.36-21.216-14.765-34.9-20.574-.4-.169-.8-.336-1.189-.5-.222-.091-.441-.185-.663-.274-2.342-.97-4.6-1.85-6.721-2.621l-22.52,5.66s-1.258.652-3.3,1.727c-.185.1-.38.2-.581.3-.242.126-.492.258-.75.4-8.745,4.613-27.165,14.506-31.236,18.074-5.388,4.718-5.7,25.223-2.948,41.362S164.065,321.184,164.065,321.184Z" transform="translate(-153.309 -211.395)" fill="#df5b66"/>
                  <path id="Trazado_1030130" data-name="Trazado 1030130" d="M194.758,232.109c12.581-3.577,19.579-13.9,21.893-18.092-2.342-.97-4.6-1.85-6.721-2.621l-22.52,5.66s-1.258.652-3.3,1.727c-.185.1-.38.2-.581.3-.242.126-.492.258-.75.4C181.311,225.335,182.53,235.588,194.758,232.109Z" transform="translate(-135.394 -211.394)" fill="#fff"/>
                  <g id="Grupo_1173841" data-name="Grupo 1173841" transform="translate(51.531 0.105)">
                    <path id="Trazado_1030131" data-name="Trazado 1030131" d="M195.288,211.464c0-.011,0-.021,0-.023s-.009.007-.018.023Z" transform="translate(-195.274 -211.441)" fill="#fff"/>
                  </g>
                  <path id="Trazado_1030132" data-name="Trazado 1030132" d="M177.065,343.116c.286.08.572.16.862.236a147.564,147.564,0,0,0,17.768,3.508l.883.121a175.641,175.641,0,0,0,23.185,1.576c.306,0,.613,0,.915,0,3.325-.023,6.609-.16,9.788-.428,6.868-.574,13-.83,18.449-.9.3-.007.6-.009.9-.011,10.378-.1,18.25.46,24.043.723.306.014.606.027.9.039,5.057.206,8.43.126,10.445-.951,9.178-4.91.023-88.641.023-88.641l-.13-.011-14.566-1.329-.867-.08-23.151-2.115-.9-.08L227,253.066l-.89-.08-24.457-2.232-.869-.08-16.972-1.551-.887-.082-6.822-.622c-.8,6.772-1.681,14.71-2.751,23.343q-.113.909-.229,1.83c-2.356,18.776-5.608,40.617-10.788,60.838C161.609,337.294,167.626,340.493,177.065,343.116Z" transform="translate(-162.279 -163.746)" fill="#df5b66"/>
                  <g id="Grupo_1173842" data-name="Grupo 1173842" transform="translate(9.273 66.14)">
                    <path id="Trazado_1030133" data-name="Trazado 1030133" d="M216.294,240.838a229.987,229.987,0,0,1-3.5,45.687c-.121.686-1.166.4-1.045-.288a228.461,228.461,0,0,0,3.46-45.4.542.542,0,0,1,1.084,0Z" transform="translate(-211.74 -240.315)" fill="#fff"/>
                  </g>
                  <g id="Grupo_1173843" data-name="Grupo 1173843" transform="translate(105.603 18.401)">
                    <path id="Trazado_1030134" data-name="Trazado 1030134" d="M169.757,294.253c.62,6.262,1.338,12.521,2.054,18.776.734,6.4,1.457,12.8,2.067,19.2,1.665,17.537,2.477,35.515.071,52.994.306.014.606.027.9.039a159.248,159.248,0,0,0,1.372-16.032c.7-18.884-1.432-37.609-3.575-56.333-.707-6.189-1.418-12.377-2.024-18.568q-.288-2.916-.542-5.834c-1.971-22.833-2.212-46.49,4.512-68.527-.245-.176-.492-.352-.746-.531a136.475,136.475,0,0,0-5.564,32.352C167.467,266,168.357,280.142,169.757,294.253Z" transform="translate(-167.972 -219.441)" fill="#fff"/>
                  </g>
                  <g id="Grupo_1173844" data-name="Grupo 1173844" transform="translate(83.191 7.918)">
                    <path id="Trazado_1030135" data-name="Trazado 1030135" d="M176.776,290.513q.017,3.725.146,7.446c.27,8.052.9,16.082,1.653,24.107q.322,3.454.675,6.914c2.049,20.318,4.306,41.218.97,61.438.3-.007.6-.009.9-.011a145.366,145.366,0,0,0,1.649-26.815c-.293-12.777-1.729-25.486-2.994-38.19-.112-1.144-.224-2.282-.329-3.426-.755-7.97-1.352-15.947-1.626-23.938-.126-3.721-.185-7.44-.153-11.17a285.636,285.636,0,0,1,9.777-71.617c-.27-.135-.54-.265-.81-.393a286.365,286.365,0,0,0-9.857,75.656Z" transform="translate(-176.773 -214.857)" fill="#fff"/>
                  </g>
                  <g id="Grupo_1173845" data-name="Grupo 1173845" transform="translate(57.484 0.128)">
                    <path id="Trazado_1030136" data-name="Trazado 1030136" d="M184.71,396.134c.306,0,.613,0,.915,0a214.688,214.688,0,0,0,5.624-35.215c.89-10.966,1.139-21.948,1.121-32.942-.016-9.107-.224-18.22-.412-27.329-.142-6.79-.27-13.576-.306-20.359-.119-22.929-.091-47.96,11.284-68.525-.279-.11-.56-.213-.832-.309-5.676,10.365-8.535,22.019-9.932,33.733-1.512,12.636-1.493,25.434-1.379,38.14.053,5.749.162,11.492.277,17.239.162,7.922.336,15.842.391,23.766q.014,1.842.016,3.687C191.514,350.884,190.343,373.934,184.71,396.134Z" transform="translate(-184.71 -211.451)" fill="#fff"/>
                  </g>
                  <g id="Grupo_1173846" data-name="Grupo 1173846" transform="translate(33.415 5.91)">
                    <path id="Trazado_1030137" data-name="Trazado 1030137" d="M195.281,391.184l.883.121a216.6,216.6,0,0,0,3.931-27.448c1.077-13.052,1.24-26.124,1.214-39.2-.021-9.859-.149-19.723-.062-29.578.027-3.3.075-6.591.162-9.889.631-24.121,3.158-48.608,11.988-71.208-.279.146-.675.354-1.171.611a166.261,166.261,0,0,0-8.981,35.622c-2.145,14.854-2.74,29.811-2.866,44.784-.082,9.866.039,19.739.053,29.6q0,1.451,0,2.9C200.42,348.785,199.736,370.333,195.281,391.184Z" transform="translate(-195.281 -213.979)" fill="#fff"/>
                  </g>
                  <g id="Grupo_1173847" data-name="Grupo 1173847" transform="translate(14.786 16.94)">
                    <path id="Trazado_1030138" data-name="Trazado 1030138" d="M204.245,381.233c.286.08.572.16.862.236a187.834,187.834,0,0,0,4.2-25.042,402.007,402.007,0,0,0,1.656-40.617c.018-9.525-.08-19.053.034-28.569.021-1.66.043-3.323.08-4.983a286.554,286.554,0,0,1,2.834-37.294A159.254,159.254,0,0,1,217.59,227.1a55.141,55.141,0,0,1,2.9-8.3c-.428.238-.851.48-1.274.716a60.432,60.432,0,0,0-2.609,7.828,167,167,0,0,0-4,20.51,318.043,318.043,0,0,0-2.5,39.3c-.117,9.473-.03,18.952-.043,28.416q0,3.31-.03,6.612C209.873,341.974,208.9,361.986,204.245,381.233Z" transform="translate(-204.245 -218.802)" fill="#fff"/>
                  </g>
                </g>
                <g id="Grupo_1173856" data-name="Grupo 1173856" transform="translate(172.841 74.235)">
                  <path id="Trazado_1030139" data-name="Trazado 1030139" d="M140.218,264.5s31.35,29.685,34,37.266c2.081,5.953-35.663,62-35.663,62l10.271,13.559s64.857-64.674,59.233-82.6c-2.433-7.757-17.347-43.286-43.412-63.777Z" transform="translate(-116.153 -200.689)" fill="#ffa07f"/>
                  <g id="Grupo_1173849" data-name="Grupo 1173849" transform="translate(25.266 153.507)">
                    <path id="Trazado_1030140" data-name="Trazado 1030140" d="M177.908,297.125s-6.024-10.079-14.788-12.288l-3.092,4.714s10.362,5.585,13.79,12.519C173.816,302.067,177.787,299.835,177.908,297.125Z" transform="translate(-160.028 -284.837)" fill="#343737"/>
                    <path id="Trazado_1030141" data-name="Trazado 1030141" d="M163.353,297.475l-1.784-1.32c-1.8-1.329-1.782-4.4.034-6.852s4.748-3.366,6.543-2.04l2.12,1.612-.8.993-5.53,6.875Z" transform="translate(-152.853 -282.498)" fill="#343737"/>
                    <path id="Trazado_1030142" data-name="Trazado 1030142" d="M161.13,296.732c-1.8-1.329-1.779-4.4.037-6.852s4.745-3.366,6.543-2.038,1.782,4.4-.037,6.852S162.927,298.061,161.13,296.732Z" transform="translate(-150.63 -281.755)" fill="#343737"/>
                    <path id="Trazado_1030143" data-name="Trazado 1030143" d="M161.215,294.311c-1.171-.867-1.162-2.87.023-4.471s3.1-2.2,4.27-1.329,1.162,2.868-.023,4.471S162.386,295.181,161.215,294.311Z" transform="translate(-149.222 -280.622)" fill="#fff"/>
                  </g>
                  <g id="Grupo_1173850" data-name="Grupo 1173850" transform="translate(57.992 92.309)">
                    <path id="Trazado_1030144" data-name="Trazado 1030144" d="M147.92,265.769a24.245,24.245,0,0,1,12.1-7.659.813.813,0,0,1,.432,1.567,22.725,22.725,0,0,0-11.389,7.243c-.682.8-1.825-.359-1.148-1.15Z" transform="translate(-147.713 -258.078)" fill="#ff7d6f"/>
                  </g>
                  <g id="Grupo_1173851" data-name="Grupo 1173851" transform="translate(60.056 89.615)">
                    <path id="Trazado_1030145" data-name="Trazado 1030145" d="M155.558,258.069a24.927,24.927,0,0,0-3.707,7.2c-.32.99-1.889.567-1.567-.432a26.286,26.286,0,0,1,3.87-7.586c.615-.835,2.026-.025,1.4.819Z" transform="translate(-150.241 -256.9)" fill="#ff7d6f"/>
                  </g>
                  <path id="Trazado_1030146" data-name="Trazado 1030146" d="M169.92,302.154s.318.659.871,1.722l0,0a100.584,100.584,0,0,0,14.6,15.885c5.9-2.328,12.583-16.091,12.583-16.091l-8.938-16.34S175.265,289.8,165.1,298.476c-5.091,4.348,10.161-.871,10.161-.871Z" transform="translate(-164.064 -128.119)" fill="#ffa07f"/>
                  <g id="Grupo_1173852" data-name="Grupo 1173852" transform="translate(4.142 171.96)">
                    <path id="Trazado_1030147" data-name="Trazado 1030147" d="M169.647,293.174A61.166,61.166,0,0,0,187.71,313.7c.56.4.021,1.342-.547.935a62.353,62.353,0,0,1-18.451-20.912c-.332-.613.6-1.159.935-.547Z" transform="translate(-168.642 -292.906)" fill="#fff"/>
                  </g>
                  <g id="Grupo_1173853" data-name="Grupo 1173853" transform="translate(8.571)">
                    <path id="Trazado_1030148" data-name="Trazado 1030148" d="M157.691,217.715c21.77,7.135,40.262,27.611,49.865,41.733l-36.8,34.888s-14.529-8.7-19.391-30.691C146.018,239.444,157.691,217.715,157.691,217.715Z" transform="translate(-149.963 -217.715)" fill="#df5b66"/>
                  </g>
                  <g id="Grupo_1173854" data-name="Grupo 1173854" transform="translate(24.149 37.267)">
                    <path id="Trazado_1030149" data-name="Trazado 1030149" d="M189.145,234.918c-12.576,11.076-24.542,22.845-36.2,34.881-.485.5-1.251-.265-.766-.766,11.652-12.036,23.62-23.805,36.2-34.881.521-.457,1.292.3.766.766Z" transform="translate(-152.028 -234.01)" fill="#fff"/>
                  </g>
                  <g id="Grupo_1173855" data-name="Grupo 1173855" transform="translate(3.98 29.988)">
                    <path id="Trazado_1030150" data-name="Trazado 1030150" d="M166.878,231.35c.97,17.93,11.316,34.655,24.715,46.14.531.455-.238,1.219-.766.766-13.621-11.675-24.048-28.695-25.031-46.906-.039-.7,1.045-.7,1.082,0Z" transform="translate(-165.795 -230.828)" fill="#fff"/>
                  </g>
                </g>
                <g id="Grupo_1173880" data-name="Grupo 1173880" transform="translate(106.224 0)">
                  <g id="Grupo_1173859" data-name="Grupo 1173859" transform="translate(25.482 37.4)">
                    <g id="Grupo_1173857" data-name="Grupo 1173857">
                      <path id="Trazado_1030151" data-name="Trazado 1030151" d="M212.613,225.032s-9.635,18.582-26.662,11.266l-.611-11.485-.4-7.579-.284-5.306,18.792-10.319C205.613,210.892,208.472,218.722,212.613,225.032Z" transform="translate(-184.655 -201.609)" fill="#ffa07f"/>
                    </g>
                    <g id="Grupo_1173858" data-name="Grupo 1173858" transform="translate(0.286 9.043)">
                      <path id="Trazado_1030152" data-name="Trazado 1030152" d="M205.745,205.563c-5.155,13.363-12.514,17.223-15.419,17.049l-.556-10.47Z" transform="translate(-189.77 -205.563)" fill="#343737"/>
                    </g>
                  </g>
                  <g id="Grupo_1173871" data-name="Grupo 1173871" transform="translate(0)">
                    <g id="Grupo_1173860" data-name="Grupo 1173860" transform="translate(6.634 9.533)">
                      <path id="Trazado_1030153" data-name="Trazado 1030153" d="M225.983,211.448a19.243,19.243,0,0,1,.441,2.305,14.657,14.657,0,0,1-.21,4.906,47.615,47.615,0,0,1-2.6,7.73c-1.987,4.967-6.676,7.913-11.616,9.258-13.118,3.572-16.718-5.054-19.277-18.861-1.587-8.574-5.21-12.588-3.991-16.414h0q.151-.285.309-.556a19.566,19.566,0,0,1,11.533-8.949c.933-.272,1.832-.5,2.7-.693.2-.05.393-.091.588-.128a2.332,2.332,0,0,1,.24-.048c.222-.048.439-.089.659-.126.155-.032.313-.057.467-.08.357-.062.7-.112,1.043-.156,10.881-1.4,15.213,4.293,17.283,10.5C224.963,204.356,225.32,208.815,225.983,211.448Z" transform="translate(-188.479 -189.424)" fill="#ffa07f"/>
                    </g>
                    <path id="Trazado_1030154" data-name="Trazado 1030154" d="M225.621,205.684s-3.385,2.047-3.755,4.679-.492,5.605-2.657,4.6-3.934-4.858-3.895-8.711-2.962-7.945-7.78-6.141-4.464,7.387-7.833,7.3-5.637-1.647-6.909-.805c0,0,1.58,6.3,2.847,10.122,0,0-.915.5-3.218-4-1.772-3.462-1.626-10.035-1.626-10.035s-7.7-6.982-3.25-10.113,8.617-3.43,17.646-6.079,21.1-1.308,26.776,6.141c6.733,8.83,4.281,37.093.16,36.466C231.649,229.059,229.577,218.695,225.621,205.684Z" transform="translate(-186.158 -185.255)" fill="#ffbc00"/>
                    <g id="Grupo_1173861" data-name="Grupo 1173861" transform="translate(40.341 33.862)">
                      <path id="Trazado_1030155" data-name="Trazado 1030155" d="M188.48,202.655a7.475,7.475,0,0,0,4.236-2.593,14.657,14.657,0,0,1-.21,4.906A7.559,7.559,0,0,1,188.48,202.655Z" transform="translate(-188.48 -200.062)" fill="#343737"/>
                    </g>
                    <g id="Grupo_1173862" data-name="Grupo 1173862" transform="translate(21.692 30.46)">
                      <path id="Trazado_1030156" data-name="Trazado 1030156" d="M197.732,200.225a1.042,1.042,0,1,0,.467-1.6A1.2,1.2,0,0,0,197.732,200.225Z" transform="translate(-197.621 -198.574)" fill="#343737"/>
                    </g>
                    <g id="Grupo_1173863" data-name="Grupo 1173863" transform="translate(13.164 32.948)">
                      <path id="Trazado_1030157" data-name="Trazado 1030157" d="M201.462,201.313a1.042,1.042,0,1,0,.467-1.6A1.2,1.2,0,0,0,201.462,201.313Z" transform="translate(-201.349 -199.662)" fill="#343737"/>
                    </g>
                    <g id="Grupo_1173864" data-name="Grupo 1173864" transform="translate(24.99 33.241)">
                      <path id="Trazado_1030158" data-name="Trazado 1030158" d="M199.927,200.613c.181.723-.8,1.592-2.184,1.942s-2.66.046-2.843-.677.8-1.592,2.184-1.942S199.746,199.888,199.927,200.613Z" transform="translate(-194.879 -199.79)" fill="#ff7d6f"/>
                    </g>
                    <g id="Grupo_1173865" data-name="Grupo 1173865" transform="translate(11.214 37.6)">
                      <path id="Trazado_1030159" data-name="Trazado 1030159" d="M201.431,204.451a3.787,3.787,0,0,0,2.1.007c1.386-.35,2.365-1.217,2.182-1.942s-1.455-1.025-2.84-.675a3.9,3.9,0,0,0-1.793.938Z" transform="translate(-201.083 -201.696)" fill="#ff7d6f"/>
                    </g>
                    <g id="Grupo_1173867" data-name="Grupo 1173867" transform="translate(19.692 25.106)">
                      <g id="Grupo_1173866" data-name="Grupo 1173866" transform="translate(0)">
                        <path id="Trazado_1030160" data-name="Trazado 1030160" d="M198.322,199.071a1.814,1.814,0,0,1,2.536.1,1.223,1.223,0,0,0,1.622.448,1.2,1.2,0,0,0,.448-1.621,4.125,4.125,0,0,0-5.777-1,1.223,1.223,0,0,0-.448,1.621,1.194,1.194,0,0,0,1.619.451Z" transform="translate(-196.55 -196.233)" fill="#343737"/>
                      </g>
                    </g>
                    <g id="Grupo_1173869" data-name="Grupo 1173869" transform="translate(9.86 27.479)">
                      <g id="Grupo_1173868" data-name="Grupo 1173868">
                        <path id="Trazado_1030161" data-name="Trazado 1030161" d="M203.454,201.122a2.262,2.262,0,0,1,2.207-1.473,1.19,1.19,0,0,0,.055-2.378,4.592,4.592,0,0,0-4.3,2.63c-.668,1.368,1.368,2.6,2.04,1.221Z" transform="translate(-201.282 -197.271)" fill="#343737"/>
                      </g>
                    </g>
                    <g id="Grupo_1173870" data-name="Grupo 1173870" transform="translate(17.248 32.799)">
                      <path id="Trazado_1030162" data-name="Trazado 1030162" d="M202.228,204.727a.44.44,0,0,0-.309-.823,4.138,4.138,0,0,1-1.889.153,7.845,7.845,0,0,0,.387-4.1.44.44,0,1,0-.867.153c0,.025.441,2.593-.547,3.961a.44.44,0,0,0,.178.661,4.515,4.515,0,0,0,3,.011A.434.434,0,0,1,202.228,204.727Z" transform="translate(-198.919 -199.597)" fill="#343737"/>
                    </g>
                  </g>
                  <g id="Grupo_1173872" data-name="Grupo 1173872" transform="translate(16.222 39.937)">
                    <path id="Trazado_1030163" data-name="Trazado 1030163" d="M196.961,205.981s3-1.111,8.912-3.264c0,0,1.246,6.632-3.181,7.719C198.937,211.356,196.961,205.981,196.961,205.981Z" transform="translate(-196.961 -202.718)" fill="#fff"/>
                  </g>
                  <g id="Grupo_1173874" data-name="Grupo 1173874" transform="translate(21.375 48.309)">
                    <g id="Grupo_1173873" data-name="Grupo 1173873" transform="translate(0)">
                      <path id="Trazado_1030164" data-name="Trazado 1030164" d="M197.677,208.184a2.815,2.815,0,0,0,2.751-1.141c.311-.485-.455-.942-.766-.457a1.973,1.973,0,0,1-1.967.707c-.572-.043-.588.848-.018.892Z" transform="translate(-197.258 -206.379)" fill="#ff7d6f"/>
                    </g>
                  </g>
                  <g id="Grupo_1173876" data-name="Grupo 1173876" transform="translate(34.215 20.075)">
                    <g id="Grupo_1173875" data-name="Grupo 1173875" transform="translate(0)">
                      <path id="Trazado_1030165" data-name="Trazado 1030165" d="M188.66,208.205a7.546,7.546,0,0,1-.679-6.541c.977-2.818,2.966-7.275,5.868-7.591,4.263-.462,5.674,3.087,6.209,6.93s-.686,9.356-6.026,9.859A5.446,5.446,0,0,1,188.66,208.205Z" transform="translate(-187.536 -194.033)" fill="#ffa07f"/>
                    </g>
                  </g>
                  <g id="Grupo_1173879" data-name="Grupo 1173879" transform="translate(38.164 22.931)">
                    <g id="Grupo_1173878" data-name="Grupo 1173878" transform="translate(0)">
                      <g id="Grupo_1173877" data-name="Grupo 1173877">
                        <path id="Trazado_1030166" data-name="Trazado 1030166" d="M191.223,204.7a9.831,9.831,0,0,1-.9-4.778c.183-1.473,1.2-3.8,3.06-3.666.624.043.8-.922.172-.967-1.8-.128-3.129,1.246-3.774,2.829-.929,2.282-.341,4.727.526,6.927a.491.491,0,0,0,.919-.345Z" transform="translate(-189.307 -195.282)" fill="#343737"/>
                      </g>
                    </g>
                  </g>
                </g>
              </g>
              <g id="Grupo_1175081" data-name="Grupo 1175081">
                <g id="Grupo_1175079" data-name="Grupo 1175079" transform="translate(942.144 8120.019)">
                  <g id="Grupo_1175076" data-name="Grupo 1175076" transform="translate(0 0)">
                    <path id="Trazado_1030640" data-name="Trazado 1030640" d="M286.343,166.573c0-.553.123-1.15.658-1.15h41.54l15.934,16.271v64.6c0,.553-.745.849-1.281.849H287c-.536,0-.658-.3-.658-.849Z" transform="translate(-286.343 -165.423)" fill="#fff"/>
                  </g>
                  <g id="Grupo_1175077" data-name="Grupo 1175077" transform="translate(47.263 0.188)">
                    <path id="Trazado_1030641" data-name="Trazado 1030641" d="M315.135,176.283h10.105L314.674,165.6v10.105C314.673,176.081,314.76,176.283,315.135,176.283Z" transform="translate(-314.674 -165.601)" fill="#6168bd"/>
                  </g>
                  <g id="Grupo_1175078" data-name="Grupo 1175078" transform="translate(3.52 30.671)">
                    <path id="Trazado_1030642" data-name="Trazado 1030642" d="M296.544,183.3a6.865,6.865,0,1,0,6.865,6.865A6.865,6.865,0,0,0,296.544,183.3Zm0,10.8a3.934,3.934,0,1,1,3.934-3.934A3.934,3.934,0,0,1,296.544,194.1Z" transform="translate(-289.679 -183.296)" fill="#343737"/>
                    <path id="Trazado_1030643" data-name="Trazado 1030643" d="M292.61,190.157a3.93,3.93,0,0,1,3.934-3.929c.018,0,.036.006.054.006V183.3H296.1a6.875,6.875,0,0,0-6.425,6.851c0,.152.005.309.015.453h2.943A3.743,3.743,0,0,1,292.61,190.157Z" transform="translate(-289.679 -183.296)" fill="#b74352"/>
                    <path id="Trazado_1030644" data-name="Trazado 1030644" d="M296.6,196.651v-2.932h-.054a3.934,3.934,0,0,1-3.91-3.5h-2.939a7.007,7.007,0,0,0,.372,1.846,6.867,6.867,0,0,0,6.477,4.585A.459.459,0,0,0,296.6,196.651Z" transform="translate(-289.678 -182.915)" fill="#ec8b1e"/>
                    <path id="Trazado_1030645" data-name="Trazado 1030645" d="M302.956,189.966a6.853,6.853,0,0,0-.371-2.231l-.447-.775-2.449,1.414a3.935,3.935,0,0,1-1.788,5.086L299.368,196A6.863,6.863,0,0,0,302.956,189.966Z" transform="translate(-289.226 -183.094)" fill="#ffbc00"/>
                    <path id="Trazado_1030646" data-name="Trazado 1030646" d="M301.826,193.841a6.865,6.865,0,0,0-.711-8.4l-1.53-.883-1.315,2.278a3.933,3.933,0,0,1,1.01,5.536Z" transform="translate(-289.206 -183.226)" fill="#6168bd"/>
                    <path id="Trazado_1030647" data-name="Trazado 1030647" d="M296.391,183.3a6.835,6.835,0,0,0-3.932,1.238l1.608,2.454a3.933,3.933,0,0,1,5.74,1.224l2.393-1.709A6.858,6.858,0,0,0,296.391,183.3Z" transform="translate(-289.526 -183.296)" fill="#c0611d"/>
                  </g>
                  <rect id="Rect치ngulo_414661" data-name="Rect치ngulo 414661" width="3.522" height="2.7" transform="translate(3.52 7.235)" fill="#4f52a9"/>
                  <path id="Trazado_1030648" data-name="Trazado 1030648" d="M325.829,172.28H297.711v4.313h28.118Zm-36.15,51.588H340.3v-4.311H289.679Zm0,9.236H340.3v-4.311H289.679Zm0,9.236H340.3v-4.311H289.679Zm25.374-51.118v4.311H340.3v-4.311Zm0,12.688H340.3V199.6H315.053Zm0,8.375H340.3v-4.311H315.053Z" transform="translate(-286.159 -165.045)" fill="#6168bd"/>
                </g>
              </g>
            </g>
          </g>
          <g id="Grupo_1173795" data-name="Grupo 1173795" transform="translate(754.766 8027)">
            <path id="Trazado_1030083" data-name="Trazado 1030083" d="M298.88,151.339H228.352c-.421,0-.6.155-.6.577v30.1c0,.42.184,1.135.6,1.135h53.082l16.811,7.494-3.443-7.494h4.078c.421,0,.983-.714.983-1.135v-30.1C299.864,151.494,299.3,151.339,298.88,151.339Z" fill="#c1f0fa"/>
            <g id="Grupo_1173794" data-name="Grupo 1173794">
              <path id="Trazado_1030089" data-name="Trazado 1030089" d="M232.476,177.762l18.45-12.365,6.182,7.36,17.175-12.071,8.636,3.926,11.874-7.557" fill="none" stroke="#4f52a9" stroke-linecap="round" stroke-linejoin="round" stroke-miterlimit="10" stroke-width="0.393"/>
              <path id="Trazado_1030090" data-name="Trazado 1030090" d="M233.585,177.762a1.021,1.021,0,1,1-1.021-1.021A1.021,1.021,0,0,1,233.585,177.762Z" fill="#4f52a9"/>
              <path id="Trazado_1030091" data-name="Trazado 1030091" d="M295.814,157.055a1.021,1.021,0,1,1-1.021-1.021A1.021,1.021,0,0,1,295.814,157.055Z" fill="#4f52a9"/>
            </g>
          </g>
        </g>
      </g>
    </g>
    <g id="Grupo_1173804-2" data-name="Grupo 1173804" transform="translate(941.42 8201.666)">
      <path id="Trazado_1030101-2" data-name="Trazado 1030101" d="M273.568,275s2.3,31.283-11.917,45.039c-4.138,4.007-16.388,8.609-22.671,7.341-21.779-4.4-36.672-77.961-36.672-77.961l13.635-3.851,22.835,40.576,33.365-47.833v4.777S274.414,260.333,273.568,275Z" transform="translate(-173.756 -221.227)" fill="#ffa07f"/>
      <path id="Trazado_1030102-2" data-name="Trazado 1030102" d="M256.729,236.907s-.718-4.517-6.463-6.312-7.721-5.027-10.772-4.13,1.761,6.1,1.761,6.1S253.317,238.014,256.729,236.907Z" transform="translate(-220.161 -218.357)" fill="#ff7d6f"/>
      <path id="Trazado_1030103-2" data-name="Trazado 1030103" d="M278.21,245.747s-.654-5.637-4.723-7.314-24.176-5.5-28.247-8.617-7.9-7.035-9.1-5.553,6.7,10.1,9.335,13.692S264.575,249.6,264.575,249.6,276.232,248.99,278.21,245.747Z" transform="translate(-236.023 -221.409)" fill="#ffa07f"/>
      <path id="Trazado_1030104-2" data-name="Trazado 1030104" d="M238.307,237.572l-29.639,34.035S225.2,301.466,236.34,312.2v-1.932S250.75,267.854,238.307,237.572Z" transform="translate(-139.732 -222.833)" fill="#df5b66"/>
      <g id="Grupo_1173801-2" data-name="Grupo 1173801" transform="translate(71.123 45.314)">
        <path id="Trazado_1030105-2" data-name="Trazado 1030105" d="M213.984,242.894c7.858,11.753,14.838,24.068,22.7,35.821.389.581-.549,1.125-.935.547-7.858-11.753-14.836-24.068-22.7-35.821-.389-.583.549-1.125.935-.547Z" transform="translate(-212.957 -242.647)" fill="#fff"/>
      </g>
      <g id="Grupo_1173802-2" data-name="Grupo 1173802" transform="translate(64.313 64.958)">
        <path id="Trazado_1030106-2" data-name="Trazado 1030106" d="M226.433,251.663a108.561,108.561,0,0,0,.938,14.548c.073.563-.81.556-.883,0a109.377,109.377,0,0,1-.938-14.548.442.442,0,0,1,.883,0Z" transform="translate(-225.55 -251.236)" fill="#ff7d6f"/>
      </g>
      <g id="Grupo_1173803-2" data-name="Grupo 1173803" transform="translate(64.378 70.001)">
        <path id="Trazado_1030107-2" data-name="Trazado 1030107" d="M225.167,253.64q1.822,2.665,3.641,5.331c.322.471-.444.913-.764.446q-1.818-2.666-3.641-5.331c-.32-.471.444-.913.764-.446Z" transform="translate(-224.326 -253.441)" fill="#ff7d6f"/>
      </g>
    </g>
  </g>
</svg>
