<svg xmlns="http://www.w3.org/2000/svg" xmlns:xlink="http://www.w3.org/1999/xlink" width="110" height="110" viewBox="0 0 110 110">
  <defs>
    <filter id="Trazado_982547" x="0" y="0" width="110" height="110" filterUnits="userSpaceOnUse">
      <feOffset dy="3" input="SourceAlpha"/>
      <feGaussianBlur stdDeviation="3" result="blur"/>
      <feFlood flood-opacity="0.161"/>
      <feComposite operator="in" in2="blur"/>
      <feComposite in="SourceGraphic"/>
    </filter>
  </defs>
  <g id="Grupo_1175985" data-name="Grupo 1175985" transform="translate(-692.461 -15058)">
    <g id="Grupo_1173148" data-name="Grupo 1173148" transform="translate(701.461 15064)">
      <g id="Grupo_1163803" data-name="Grupo 1163803" transform="translate(0 0)">
        <g id="Grupo_1163015" data-name="Grupo 1163015">
          <g id="Grupo_1157017" data-name="Grupo 1157017" transform="translate(0 0)">
            <g id="Grupo_1155793" data-name="Grupo 1155793" transform="translate(0 0)">
              <g id="Grupo_1154704" data-name="Grupo 1154704">
                <g id="Grupo_1150790" data-name="Grupo 1150790">
                  <g id="Grupo_1154214" data-name="Grupo 1154214">
                    <g id="Grupo_1152583" data-name="Grupo 1152583">
                      <g id="Grupo_1146973" data-name="Grupo 1146973" transform="translate(0 0)">
                        <g id="Grupo_1146954" data-name="Grupo 1146954">
                          <g transform="matrix(1, 0, 0, 1, -9, -6)" filter="url(#Trazado_982547)">
                            <g id="Trazado_982547-2" data-name="Trazado 982547" transform="translate(9 6)" fill="#f2f7e5">
                              <path d="M 46.00000381469727 90.49988555908203 C 39.99188232421875 90.49988555908203 34.16427230834961 89.32352447509766 28.67905807495117 87.00347137451172 C 23.38020324707031 84.76226043701172 18.62103080749512 81.55342864990234 14.53375053405762 77.46615600585938 C 10.44645690917969 73.37887573242188 7.237643718719482 68.61971282958984 4.996417045593262 63.32085800170898 C 2.676363706588745 57.83565902709961 1.500003814697266 52.00806045532227 1.500003814697266 45.99993896484375 C 1.500003814697266 39.99181747436523 2.676363706588745 34.16421890258789 4.996417045593262 28.67901802062988 C 7.237643718719482 23.38017845153809 10.44645690917969 18.62101936340332 14.53375053405762 14.53373908996582 C 18.62103080749512 10.44645881652832 23.38020324707031 7.237632274627686 28.67905807495117 4.996418952941895 C 34.16427230834961 2.676365613937378 39.99188232421875 1.500005602836609 46.00000381469727 1.500005602836609 C 52.00812530517578 1.500005602836609 57.83573532104492 2.676365613937378 63.32094955444336 4.996418952941895 C 68.61980438232422 7.237632274627686 73.37896728515625 10.44645881652832 77.46625518798828 14.53373908996582 C 81.55353546142578 18.62101936340332 84.76236724853516 23.38017845153809 87.00359344482422 28.67901802062988 C 89.32364654541016 34.16421890258789 90.5 39.99181747436523 90.5 45.99993896484375 C 90.5 52.00806045532227 89.32364654541016 57.83565902709961 87.00359344482422 63.32085800170898 C 84.76236724853516 68.61971282958984 81.55353546142578 73.37887573242188 77.46625518798828 77.46615600585938 C 73.37896728515625 81.55342864990234 68.61980438232422 84.76226043701172 63.32094955444336 87.00347137451172 C 57.83573532104492 89.32352447509766 52.00812530517578 90.49988555908203 46.00000381469727 90.49988555908203 Z" stroke="none"/>
                              <path d="M 46.00000381469727 2.999992370605469 C 40.19371795654297 2.999992370605469 34.56270217895508 4.136497497558594 29.26338958740234 6.377906799316406 C 24.14333343505859 8.543510437011719 19.54441833496094 11.64437866210938 15.59440612792969 15.59439849853516 C 11.64440155029297 19.54439544677734 8.54351806640625 24.14329528808594 6.377914428710938 29.26335144042969 C 4.136505126953125 34.56266784667969 3.000007629394531 40.19366836547852 3.000007629394531 45.99993896484375 C 3.000007629394531 51.80620956420898 4.136505126953125 57.43722534179688 6.377914428710938 62.73654174804688 C 8.54351806640625 67.85658264160156 11.64440155029297 72.45548248291016 15.59440612792969 76.40549468994141 C 19.54441833496094 80.35549926757812 24.14333343505859 83.45636749267578 29.26337432861328 85.62196350097656 C 34.56270217895508 87.86338043212891 40.19371795654297 88.9998779296875 46.00000381469727 88.9998779296875 C 51.80628967285156 88.9998779296875 57.43730545043945 87.86338043212891 62.73663330078125 85.62196350097656 C 67.85667419433594 83.45636749267578 72.45558929443359 80.35549926757812 76.40560150146484 76.40549468994141 C 80.35560607910156 72.45548248291016 83.45648956298828 67.85658264160156 85.62208557128906 62.73654174804688 C 87.86350250244141 57.43722534179688 89 51.80620956420898 89 45.99993896484375 C 89 40.19366836547852 87.86350250244141 34.56266784667969 85.62208557128906 29.26335144042969 C 83.45648956298828 24.14329528808594 80.35560607910156 19.54439544677734 76.40560150146484 15.59439849853516 C 72.45558929443359 11.64437866210938 67.85667419433594 8.543510437011719 62.73661804199219 6.377906799316406 C 57.43730545043945 4.136497497558594 51.80628967285156 2.999992370605469 46.00000381469727 2.999992370605469 M 46.00000381469727 -7.62939453125e-06 C 71.40510559082031 -7.62939453125e-06 92 20.59487915039062 92 45.99993896484375 C 92 71.40501403808594 71.40510559082031 91.99988555908203 46.00000381469727 91.99988555908203 C 20.59490203857422 91.99988555908203 7.62939453125e-06 71.40501403808594 7.62939453125e-06 45.99993896484375 C 7.62939453125e-06 20.59487915039062 20.59490203857422 -7.62939453125e-06 46.00000381469727 -7.62939453125e-06 Z" stroke="none" fill="#86b60c"/>
                            </g>
                          </g>
                        </g>
                      </g>
                    </g>
                  </g>
                </g>
              </g>
            </g>
          </g>
        </g>
      </g>
    </g>
    <g id="task_4079484" transform="translate(720.461 15083)">
      <g id="Grupo_1175983" data-name="Grupo 1175983" transform="translate(0.884 0.884)">
        <g id="Grupo_1175969" data-name="Grupo 1175969" transform="translate(0 10.605)">
          <path id="Trazado_1032272" data-name="Trazado 1032272" d="M1,13V46.581a1.773,1.773,0,0,0,1.767,1.767H52.255a1.773,1.773,0,0,0,1.767-1.767V13Z" transform="translate(-1 -13)" fill="#e6e9ed"/>
        </g>
        <g id="Grupo_1175970" data-name="Grupo 1175970" transform="translate(0 3.535)">
          <path id="Trazado_1032273" data-name="Trazado 1032273" d="M52.255,5H2.767A1.773,1.773,0,0,0,1,6.767v5.3H54.023v-5.3A1.773,1.773,0,0,0,52.255,5Z" transform="translate(-1 -5)" fill="#b4dd7f"/>
        </g>
        <g id="Grupo_1175971" data-name="Grupo 1175971" transform="translate(40.651)">
          <path id="Trazado_1032274" data-name="Trazado 1032274" d="M52.3,4.535V6.3A1.773,1.773,0,0,1,50.535,8.07H48.767A1.773,1.773,0,0,1,47,6.3V2.767A1.773,1.773,0,0,1,48.767,1h1.767A1.773,1.773,0,0,1,52.3,2.767Z" transform="translate(-47 -1)" fill="#ffeaa7"/>
        </g>
        <g id="Grupo_1175972" data-name="Grupo 1175972" transform="translate(31.814)">
          <path id="Trazado_1032275" data-name="Trazado 1032275" d="M42.3,4.535V6.3A1.773,1.773,0,0,1,40.535,8.07H38.767A1.773,1.773,0,0,1,37,6.3V2.767A1.773,1.773,0,0,1,38.767,1h1.767A1.773,1.773,0,0,1,42.3,2.767Z" transform="translate(-37 -1)" fill="#ffeaa7"/>
        </g>
        <g id="Grupo_1175973" data-name="Grupo 1175973" transform="translate(15.907)">
          <path id="Trazado_1032276" data-name="Trazado 1032276" d="M24.3,4.535V6.3A1.773,1.773,0,0,1,22.535,8.07H20.767A1.773,1.773,0,0,1,19,6.3V2.767A1.773,1.773,0,0,1,20.767,1h1.767A1.773,1.773,0,0,1,24.3,2.767Z" transform="translate(-19 -1)" fill="#ffeaa7"/>
        </g>
        <g id="Grupo_1175974" data-name="Grupo 1175974" transform="translate(7.07)">
          <path id="Trazado_1032277" data-name="Trazado 1032277" d="M14.3,4.535V6.3A1.773,1.773,0,0,1,12.535,8.07H10.767A1.773,1.773,0,0,1,9,6.3V2.767A1.773,1.773,0,0,1,10.767,1h1.767A1.773,1.773,0,0,1,14.3,2.767Z" transform="translate(-9 -1)" fill="#ffeaa7"/>
        </g>
        <g id="Grupo_1175975" data-name="Grupo 1175975" transform="translate(3.535 14.139)">
          <path id="Trazado_1032278" data-name="Trazado 1032278" d="M5,17V45.279H50.953V17Z" transform="translate(-5 -17)" fill="#f0d0b4"/>
        </g>
        <g id="Grupo_1175976" data-name="Grupo 1175976" transform="translate(38.883 30.046)">
          <path id="Trazado_1032279" data-name="Trazado 1032279" d="M52.07,35v5.3H45V35Z" transform="translate(-45 -35)" fill="#ff826e"/>
        </g>
        <g id="Grupo_1175977" data-name="Grupo 1175977" transform="translate(38.883 21.209)">
          <path id="Trazado_1032280" data-name="Trazado 1032280" d="M52.07,25v5.3H45V25Z" transform="translate(-45 -25)" fill="#ff826e"/>
        </g>
        <g id="Grupo_1175978" data-name="Grupo 1175978" transform="translate(22.976 17.674)">
          <path id="Trazado_1032281" data-name="Trazado 1032281" d="M34.07,21v5.3H27V21Z" transform="translate(-27 -21)" fill="#ff826e"/>
        </g>
        <g id="Grupo_1175979" data-name="Grupo 1175979" transform="translate(7.07 30.046)">
          <path id="Trazado_1032282" data-name="Trazado 1032282" d="M16.07,35v5.3H9V35Z" transform="translate(-9 -35)" fill="#ff826e"/>
        </g>
        <g id="Grupo_1175980" data-name="Grupo 1175980" transform="translate(7.07 21.209)">
          <path id="Trazado_1032283" data-name="Trazado 1032283" d="M16.07,27.651V30.3H9V25h7.07Z" transform="translate(-9 -25)" fill="#ff826e"/>
        </g>
        <g id="Grupo_1175981" data-name="Grupo 1175981" transform="translate(15.907 31.814)">
          <path id="Trazado_1032284" data-name="Trazado 1032284" d="M40.209,47.6v.442a1.842,1.842,0,0,1-1.264,1.741,1.808,1.808,0,0,0-1.113,1.043c-.044.106-.088.2-.133.309v.009a1.731,1.731,0,0,0-.141.7,1.785,1.785,0,0,0,.194.822,1.825,1.825,0,0,1-.336,2.121l-.627.627a1.828,1.828,0,0,1-1.29.539,1.858,1.858,0,0,1-.831-.2,1.8,1.8,0,0,0-1.52-.053l-.318.133a1.808,1.808,0,0,0-1.043,1.113,1.842,1.842,0,0,1-1.741,1.264h-.884a1.842,1.842,0,0,1-1.741-1.264,1.808,1.808,0,0,0-1.043-1.113l-.318-.133a1.731,1.731,0,0,0-.7-.141,1.785,1.785,0,0,0-.822.194,1.825,1.825,0,0,1-2.121-.336l-.627-.627a1.828,1.828,0,0,1-.539-1.29,1.858,1.858,0,0,1,.2-.831,1.8,1.8,0,0,0,.053-1.52v-.009c-.044-.106-.088-.2-.133-.309a1.808,1.808,0,0,0-1.113-1.043A1.842,1.842,0,0,1,19,48.046v-.884a1.842,1.842,0,0,1,1.264-1.741,1.808,1.808,0,0,0,1.113-1.043l.133-.318a1.731,1.731,0,0,0,.141-.7,1.785,1.785,0,0,0-.194-.822,1.825,1.825,0,0,1,.336-2.121l.627-.627a1.828,1.828,0,0,1,1.29-.539,1.858,1.858,0,0,1,.831.2,1.8,1.8,0,0,0,1.52.053l.318-.133a1.808,1.808,0,0,0,1.043-1.113A1.842,1.842,0,0,1,29.163,37h.884a1.842,1.842,0,0,1,1.741,1.264,1.808,1.808,0,0,0,1.043,1.113l.318.133a1.731,1.731,0,0,0,.7.141,1.785,1.785,0,0,0,.822-.194,1.825,1.825,0,0,1,2.121.336l.627.627a1.828,1.828,0,0,1,.539,1.29,1.858,1.858,0,0,1-.2.831,1.8,1.8,0,0,0-.053,1.52l.133.318a1.808,1.808,0,0,0,1.113,1.043,1.842,1.842,0,0,1,1.264,1.741Zm-5.3,0a5.3,5.3,0,1,0-5.3,5.3A5.306,5.306,0,0,0,34.907,47.6Z" transform="translate(-19 -37)" fill="#ffc729"/>
        </g>
        <g id="Grupo_1175982" data-name="Grupo 1175982" transform="translate(21.209 37.116)">
          <path id="Trazado_1032285" data-name="Trazado 1032285" d="M30.3,43A5.3,5.3,0,1,1,25,48.3,5.306,5.306,0,0,1,30.3,43Zm1.767,5.3A1.767,1.767,0,1,0,30.3,50.07,1.773,1.773,0,0,0,32.07,48.3Z" transform="translate(-25 -43)" fill="#fcd770"/>
        </g>
      </g>
      <g id="Grupo_1175984" data-name="Grupo 1175984">
        <path id="Trazado_1032286" data-name="Trazado 1032286" d="M30.186,42a6.186,6.186,0,1,0,6.186,6.186A6.193,6.193,0,0,0,30.186,42Zm0,10.6A4.419,4.419,0,1,1,34.6,48.186,4.424,4.424,0,0,1,30.186,52.6Z" transform="translate(-2.791 -4.884)"/>
        <path id="Trazado_1032287" data-name="Trazado 1032287" d="M30.651,46A2.651,2.651,0,1,0,33.3,48.651,2.654,2.654,0,0,0,30.651,46Zm0,3.535a.884.884,0,1,1,.884-.884A.885.885,0,0,1,30.651,49.535Z" transform="translate(-3.256 -5.349)"/>
        <path id="Trazado_1032288" data-name="Trazado 1032288" d="M44,41.07h3.535v1.767H44V44.6h5.3V41.07h3.535V34H44Zm1.767-5.3h5.3V39.3h-5.3Z" transform="translate(-5.117 -3.954)"/>
        <path id="Trazado_1032289" data-name="Trazado 1032289" d="M8,41.07h3.535V44.6h5.3V42.837H13.3V41.07h3.535V34H8Zm1.767-5.3h5.3V39.3h-5.3Z" transform="translate(-0.93 -3.954)"/>
        <path id="Trazado_1032290" data-name="Trazado 1032290" d="M29.535,32.372H31.3v-5.3h3.535V20H26v7.07h3.535Zm-1.767-10.6h5.3V25.3h-5.3Z" transform="translate(-3.024 -2.326)"/>
        <path id="Trazado_1032291" data-name="Trazado 1032291" d="M39.767,28.419H43.3V31.07h8.837V24H43.3v2.651H38v8.837h1.767Zm5.3-2.651h5.3V29.3h-5.3Z" transform="translate(-4.419 -2.791)"/>
        <path id="Trazado_1032292" data-name="Trazado 1032292" d="M20.372,35.488h1.767V26.651h-5.3V24H8v7.07h8.837V28.419h3.535ZM15.07,29.3h-5.3V25.767h5.3Z" transform="translate(-0.93 -2.791)"/>
        <path id="Trazado_1032293" data-name="Trazado 1032293" d="M52.139,3.535H47.72V2.651A2.654,2.654,0,0,0,45.069,0H43.3a2.654,2.654,0,0,0-2.651,2.651v.884H38.883V2.651A2.654,2.654,0,0,0,36.232,0H34.465a2.654,2.654,0,0,0-2.651,2.651v.884H22.976V2.651A2.654,2.654,0,0,0,20.325,0H18.558a2.654,2.654,0,0,0-2.651,2.651v.884H14.139V2.651A2.654,2.654,0,0,0,11.488,0H9.721A2.654,2.654,0,0,0,7.07,2.651v.884H2.651A2.654,2.654,0,0,0,0,6.186V45.069A2.654,2.654,0,0,0,2.651,47.72H18.523a.934.934,0,0,1-.065.247,2.712,2.712,0,0,0,.5,3.147l.623.622a2.712,2.712,0,0,0,3.147.5.912.912,0,0,1,.772-.034c.114.049.23.1.346.142a.91.91,0,0,1,.527.572,2.709,2.709,0,0,0,2.58,1.87h.88a2.712,2.712,0,0,0,2.581-1.87.908.908,0,0,1,.525-.571c.118-.045.233-.093.348-.143a.9.9,0,0,1,.771.034,2.712,2.712,0,0,0,3.147-.5l.623-.623a2.711,2.711,0,0,0,.5-3.146.94.94,0,0,1-.065-.247H52.139a2.654,2.654,0,0,0,2.651-2.651V6.186a2.654,2.654,0,0,0-2.651-2.651Zm-9.721-.884a.885.885,0,0,1,.884-.884h1.767a.885.885,0,0,1,.884.884V6.186a.885.885,0,0,1-.884.884H43.3a.885.885,0,0,1-.884-.884Zm-8.837,0a.885.885,0,0,1,.884-.884h1.767a.885.885,0,0,1,.884.884V6.186a.885.885,0,0,1-.884.884H34.465a.885.885,0,0,1-.884-.884Zm-15.907,0a.885.885,0,0,1,.884-.884h1.767a.885.885,0,0,1,.884.884V6.186a.885.885,0,0,1-.884.884H18.558a.885.885,0,0,1-.884-.884Zm-8.837,0a.885.885,0,0,1,.884-.884h1.767a.885.885,0,0,1,.884.884V6.186a.885.885,0,0,1-.884.884H9.721a.885.885,0,0,1-.884-.884ZM2.651,5.3H7.07v.884A2.654,2.654,0,0,0,9.721,8.837h1.767a2.654,2.654,0,0,0,2.651-2.651V5.3h1.767v.884a2.654,2.654,0,0,0,2.651,2.651h1.767a2.654,2.654,0,0,0,2.651-2.651V5.3h8.837v.884a2.654,2.654,0,0,0,2.651,2.651h1.767a2.654,2.654,0,0,0,2.651-2.651V5.3h1.767v.884A2.654,2.654,0,0,0,43.3,8.837h1.767A2.654,2.654,0,0,0,47.72,6.186V5.3h4.419a.885.885,0,0,1,.884.884V10.6H1.767V6.186A.885.885,0,0,1,2.651,5.3ZM34.8,46.207c-.038.1-.077.191-.118.285a2.672,2.672,0,0,0,.077,2.273.948.948,0,0,1-.175,1.1l-.623.623a.945.945,0,0,1-1.1.176,2.669,2.669,0,0,0-2.272-.077c-.093.04-.186.079-.283.117a2.668,2.668,0,0,0-1.565,1.668.949.949,0,0,1-.9.652h-.88a.947.947,0,0,1-.9-.655A2.671,2.671,0,0,0,24.486,50.7c-.095-.037-.188-.075-.28-.115a2.617,2.617,0,0,0-1.049-.218,2.723,2.723,0,0,0-1.225.294.945.945,0,0,1-1.1-.177l-.623-.622a.949.949,0,0,1-.175-1.1,2.673,2.673,0,0,0,.078-2.272c-.042-.094-.08-.189-.118-.284a2.67,2.67,0,0,0-1.668-1.565.944.944,0,0,1-.653-.9v-.88a.95.95,0,0,1,.653-.9A2.664,2.664,0,0,0,19.994,40.4c.038-.1.077-.191.118-.285a2.672,2.672,0,0,0-.077-2.273.948.948,0,0,1,.175-1.1l.623-.623a.947.947,0,0,1,1.1-.176,2.66,2.66,0,0,0,2.272.077c.093-.04.186-.079.283-.117a2.668,2.668,0,0,0,1.565-1.668.949.949,0,0,1,.9-.652h.88a.947.947,0,0,1,.9.655A2.671,2.671,0,0,0,30.3,35.9c.095.037.188.075.28.115a2.668,2.668,0,0,0,2.273-.077.947.947,0,0,1,1.1.177l.622.621a.95.95,0,0,1,.176,1.1,2.673,2.673,0,0,0-.078,2.272c.042.094.08.189.118.284a2.67,2.67,0,0,0,1.668,1.565.946.946,0,0,1,.654.9v.88a.95.95,0,0,1-.653.9A2.664,2.664,0,0,0,34.8,46.207ZM15.944,42.418H5.3V15.907H49.488V42.418H38.846a2.712,2.712,0,0,0-1.833-2.138.907.907,0,0,1-.572-.528c-.045-.116-.092-.23-.141-.344a.91.91,0,0,1,.034-.771,2.714,2.714,0,0,0-.5-3.148l-.623-.622a2.712,2.712,0,0,0-3.147-.5.9.9,0,0,1-.772.034c-.114-.049-.23-.1-.346-.142a.91.91,0,0,1-.527-.572,2.711,2.711,0,0,0-2.581-1.869h-.88a2.712,2.712,0,0,0-2.581,1.87.908.908,0,0,1-.525.571c-.118.045-.233.093-.348.143a.91.91,0,0,1-.771-.034,2.712,2.712,0,0,0-3.147.5l-.624.623a2.712,2.712,0,0,0-.5,3.146.907.907,0,0,1,.033.773c-.049.113-.1.227-.141.345a.907.907,0,0,1-.573.527,2.706,2.706,0,0,0-1.831,2.137Zm36.2,3.535h-14.4a2.709,2.709,0,0,0,1.1-1.767H51.255V14.139H3.535V44.186H15.944a2.71,2.71,0,0,0,1.106,1.767H2.651a.885.885,0,0,1-.884-.884v-32.7H53.023v32.7A.885.885,0,0,1,52.139,45.953Z"/>
      </g>
    </g>
  </g>
</svg>
