<svg xmlns="http://www.w3.org/2000/svg" xmlns:xlink="http://www.w3.org/1999/xlink" width="113" height="113" viewBox="0 0 113 113">
  <defs>
    <filter id="Trazado_982547" x="0" y="0" width="113" height="113" filterUnits="userSpaceOnUse">
      <feOffset dy="3" input="SourceAlpha"/>
      <feGaussianBlur stdDeviation="3" result="blur"/>
      <feFlood flood-opacity="0.161"/>
      <feComposite operator="in" in2="blur"/>
      <feComposite in="SourceGraphic"/>
    </filter>
  </defs>
  <g id="Grupo_1174645" data-name="Grupo 1174645" transform="translate(-615.461 -1921)">
    <g id="Grupo_1173068" data-name="Grupo 1173068" transform="translate(444 -1060)">
      <g id="Grupo_1166845" data-name="Grupo 1166845" transform="translate(180.461 2987)">
        <g id="Grupo_1166720" data-name="Grupo 1166720">
          <g id="Grupo_1164305" data-name="Grupo 1164305" transform="translate(0)">
            <g id="Grupo_1163948" data-name="Grupo 1163948">
              <g id="Grupo_1158168" data-name="Grupo 1158168">
                <g id="Grupo_1152576" data-name="Grupo 1152576">
                  <g id="Grupo_1148633" data-name="Grupo 1148633">
                    <g id="Grupo_1148525" data-name="Grupo 1148525">
                      <g transform="matrix(1, 0, 0, 1, -9, -6)" filter="url(#Trazado_982547)">
                        <g id="Trazado_982547-2" data-name="Trazado 982547" transform="translate(9 6)" fill="#fff4e6">
                          <path d="M 47.5 93.5 C 41.28937149047852 93.5 35.26533508300781 92.28397369384766 29.59518623352051 89.88570404052734 C 24.11771965026855 87.56893157958984 19.19813346862793 84.25196075439453 14.97309303283691 80.02691650390625 C 10.74804019927979 75.80186462402344 7.431066513061523 70.88229370117188 5.114293098449707 65.40481567382812 C 2.716026782989502 59.73468017578125 1.5 53.71062850952148 1.5 47.5 C 1.5 41.28937149047852 2.716026782989502 35.26533508300781 5.114293098449707 29.59518623352051 C 7.431066513061523 24.11771965026855 10.74804019927979 19.19813346862793 14.97309303283691 14.97309303283691 C 19.19813346862793 10.74804019927979 24.11771965026855 7.431066513061523 29.59518623352051 5.114293098449707 C 35.26533508300781 2.716026782989502 41.28937149047852 1.5 47.5 1.5 C 53.71062850952148 1.5 59.73468017578125 2.716026782989502 65.40481567382812 5.114293098449707 C 70.88229370117188 7.431066513061523 75.80186462402344 10.74804019927979 80.02691650390625 14.97309303283691 C 84.25196075439453 19.19813346862793 87.56893157958984 24.11771965026855 89.88570404052734 29.59518623352051 C 92.28397369384766 35.26533508300781 93.5 41.28937149047852 93.5 47.5 C 93.5 53.71062850952148 92.28397369384766 59.73468017578125 89.88570404052734 65.40481567382812 C 87.56893157958984 70.88229370117188 84.25196075439453 75.80186462402344 80.02691650390625 80.02691650390625 C 75.80186462402344 84.25196075439453 70.88229370117188 87.56893157958984 65.40481567382812 89.88570404052734 C 59.73468017578125 92.28397369384766 53.71062850952148 93.5 47.5 93.5 Z" stroke="none"/>
                          <path d="M 47.5 3 C 41.49121475219727 3 35.66376876831055 4.176155090332031 30.17950439453125 6.495796203613281 C 24.88084411621094 8.736953735351562 20.12152099609375 11.94598388671875 16.03375244140625 16.03375244140625 C 11.94598388671875 20.12152099609375 8.736953735351562 24.88084411621094 6.495796203613281 30.17950439453125 C 4.176155090332031 35.66376876831055 3 41.49121475219727 3 47.5 C 3 53.50878524780273 4.176155090332031 59.33623123168945 6.495796203613281 64.82049560546875 C 8.736953735351562 70.11915588378906 11.94598388671875 74.87847900390625 16.03375244140625 78.96624755859375 C 20.12152099609375 83.05401611328125 24.88084411621094 86.26304626464844 30.17950439453125 88.50419616699219 C 35.66376876831055 90.82384490966797 41.49121475219727 92 47.5 92 C 53.50878524780273 92 59.33623123168945 90.82384490966797 64.82049560546875 88.50419616699219 C 70.11915588378906 86.26304626464844 74.87847900390625 83.05401611328125 78.96624755859375 78.96624755859375 C 83.05401611328125 74.87847900390625 86.26304626464844 70.11915588378906 88.50419616699219 64.82049560546875 C 90.82384490966797 59.33623123168945 92 53.50878524780273 92 47.5 C 92 41.49121475219727 90.82384490966797 35.66376876831055 88.50419616699219 30.17950439453125 C 86.26304626464844 24.88084411621094 83.05401611328125 20.12152099609375 78.96624755859375 16.03375244140625 C 74.87847900390625 11.94598388671875 70.11915588378906 8.736953735351562 64.82049560546875 6.495796203613281 C 59.33623123168945 4.176155090332031 53.50878524780273 3 47.5 3 M 47.5 0 C 73.7335205078125 0 95 21.2664794921875 95 47.5 C 95 73.7335205078125 73.7335205078125 95 47.5 95 C 21.2664794921875 95 0 73.7335205078125 0 47.5 C 0 21.2664794921875 21.2664794921875 0 47.5 0 Z" stroke="none" fill="#ff9d1c"/>
                        </g>
                      </g>
                    </g>
                  </g>
                </g>
              </g>
            </g>
          </g>
        </g>
      </g>
    </g>
    <g id="analysis_8653272" transform="translate(603.24 1933.998)">
      <g id="Grupo_1174644" data-name="Grupo 1174644" transform="translate(43.194 8.975)">
        <g id="Grupo_1174641" data-name="Grupo 1174641" transform="translate(0 0)">
          <path id="Trazado_1030422" data-name="Trazado 1030422" d="M51.438,16H81.8a1.175,1.175,0,0,1,.86.356l5.49,5.49a1.175,1.175,0,0,1,.356.86V64.4a1.219,1.219,0,0,1-1.216,1.216H51.438A1.219,1.219,0,0,1,50.222,64.4V17.217A1.219,1.219,0,0,1,51.438,16Z" transform="translate(-50.222 -16.001)" fill="#eceff1" fill-rule="evenodd"/>
          <g id="Grupo_1174640" data-name="Grupo 1174640" transform="translate(0)">
            <path id="Trazado_1030423" data-name="Trazado 1030423" d="M51.438,16H52.9V65.62H51.438A1.219,1.219,0,0,1,50.222,64.4V17.217A1.219,1.219,0,0,1,51.438,16Z" transform="translate(-50.222 -16.001)" fill="#d1d1d6" fill-rule="evenodd"/>
            <path id="Trazado_1030424" data-name="Trazado 1030424" d="M313.95,16.867a1.221,1.221,0,0,1,.356.251l5.49,5.49a1.221,1.221,0,0,1,.251.356h-4.881a1.219,1.219,0,0,1-1.216-1.216Z" transform="translate(-281.869 -16.762)" fill="#d1d1d6" fill-rule="evenodd"/>
          </g>
        </g>
        <g id="Grupo_1174642" data-name="Grupo 1174642" transform="translate(8.392 3.116)">
          <circle id="Elipse_12115" data-name="Elipse 12115" cx="2.061" cy="2.061" r="2.061" transform="translate(18.168 14.871) rotate(-45)" fill="#fe646f"/>
          <circle id="Elipse_12116" data-name="Elipse 12116" cx="2.061" cy="2.061" r="2.061" transform="translate(0 17.212) rotate(-13.3)" fill="#fe646f"/>
          <circle id="Elipse_12117" data-name="Elipse 12117" cx="2.061" cy="2.061" r="2.061" transform="translate(7.81 11.49) rotate(-45)" fill="#fe646f"/>
          <circle id="Elipse_12118" data-name="Elipse 12118" cx="2.061" cy="2.061" r="2.061" transform="translate(4.459 2.915) rotate(-45)" fill="#fe646f"/>
        </g>
        <g id="Grupo_1174643" data-name="Grupo 1174643" transform="translate(12.261 21.66)">
          <path id="Trazado_1030425" data-name="Trazado 1030425" d="M342.862,376.624a11.646,11.646,0,0,1-1.966,2.164l5.344,5.239,2.035-2.1Z" transform="translate(-317.798 -354.417)" fill="#a79ba7" fill-rule="evenodd"/>
          <path id="Trazado_1030426" data-name="Trazado 1030426" d="M353.15,376.327a1.342,1.342,0,0,1-.582.78l5.309,5.274.65-.712Z" transform="translate(-328.05 -354.156)" fill="#837683" fill-rule="evenodd"/>
          <path id="Trazado_1030427" data-name="Trazado 1030427" d="M381.492,418.843l2.3-2.366a1.056,1.056,0,0,0-.022-1.489l-6.36-6.172a1.056,1.056,0,0,0-1.489.022l-2.3,2.366a1.056,1.056,0,0,0,.022,1.489l6.36,6.172A1.056,1.056,0,0,0,381.492,418.843Z" transform="translate(-346.282 -382.433)" fill="#f1ba84" fill-rule="evenodd"/>
          <path id="Trazado_1030428" data-name="Trazado 1030428" d="M397.244,408.817l6.36,6.172a1.056,1.056,0,0,1,.022,1.489l-2.3,2.366a1.046,1.046,0,0,1-.285.208,1.057,1.057,0,0,0,1.226-.208l2.3-2.366a1.056,1.056,0,0,0-.023-1.489l-6.36-6.172a1.057,1.057,0,0,0-1.2-.186A1.044,1.044,0,0,1,397.244,408.817Z" transform="translate(-367.061 -382.434)" fill="#e3a76f" fill-rule="evenodd"/>
          <circle id="Elipse_12119" data-name="Elipse 12119" cx="11.582" cy="11.582" r="11.582" transform="translate(0 16.376) rotate(-45)" fill="#8ac9fe"/>
          <path id="Trazado_1030429" data-name="Trazado 1030429" d="M281.647,233.485a11.582,11.582,0,1,1,0,23.163q-.283,0-.562-.014a11.581,11.581,0,0,0,0-23.136Q281.365,233.485,281.647,233.485Z" transform="translate(-265.263 -228.69)" fill="#60b7ff" fill-rule="evenodd"/>
          <circle id="Elipse_12120" data-name="Elipse 12120" cx="8.316" cy="8.316" r="8.316" transform="translate(8.068 8.061)" fill="#eceff1"/>
          <path id="Trazado_1030430" data-name="Trazado 1030430" d="M225.657,260.328c.189,0,.376.007.562.019a8.316,8.316,0,0,0,0,16.594c-.186.012-.373.019-.562.019a8.316,8.316,0,0,1,0-16.633Z" transform="translate(-209.273 -252.267)" fill="#d1d1d6" fill-rule="evenodd"/>
        </g>
      </g>
      <path id="Trazado_1030431" data-name="Trazado 1030431" d="M62.316,22.492a1.088,1.088,0,1,1-1.088,1.088A1.089,1.089,0,0,1,62.316,22.492Zm0,4.123a3.035,3.035,0,1,0-3.035-3.034A3.038,3.038,0,0,0,62.316,26.615Zm-9.642-8.6c.463-.8,2.232-1,4.538-.52a26.24,26.24,0,0,0-.456,2.885A26.843,26.843,0,0,0,54.5,22.216C52.839,20.364,52.235,18.776,52.674,18.014Zm6.289-4.1A1.089,1.089,0,1,1,57.875,15a1.09,1.09,0,0,1,1.088-1.089Zm3.353-1.469c.878,0,1.949,1.315,2.726,3.668a25.987,25.987,0,0,0-2.727,1.047c-.3-.134-.6-.259-.894-.38a3.025,3.025,0,0,0-.169-3.766A1.6,1.6,0,0,1,62.316,12.447ZM68.2,17.354c1.918-.289,3.36-.036,3.762.661s-.1,2.072-1.309,3.587c-.159.2-.33.4-.509.6a26,26,0,0,0-2.271-1.838,26.713,26.713,0,0,0-.459-2.867C67.676,17.441,67.939,17.391,68.2,17.354Zm5.568,9.608a1.088,1.088,0,1,1-1.088-1.089A1.089,1.089,0,0,1,73.763,26.961ZM68.2,29.807c-.257-.038-.519-.088-.786-.143a26.75,26.75,0,0,0,.459-2.87,26.164,26.164,0,0,0,2.269-1.836l.136.151A3.031,3.031,0,0,0,71.3,29.664,6.246,6.246,0,0,1,68.2,29.807Zm-5.879,4.906c-.878,0-1.948-1.314-2.725-3.667A25.942,25.942,0,0,0,62.318,30a26.53,26.53,0,0,0,2.723,1.045C64.264,33.4,63.194,34.714,62.316,34.714ZM56.6,24.219q-.389-.321-.74-.638c.234-.212.481-.426.74-.64,0,.212-.007.425-.007.64S56.595,24.006,56.6,24.219ZM60,28.844q-.462.172-.914.317c-.065-.305-.126-.623-.181-.95q.274.166.55.325C59.635,28.641,59.817,28.745,60,28.844Zm5.728-.633c-.055.33-.116.647-.182.954-.3-.1-.608-.2-.917-.319q.274-.151.549-.31C65.362,28.43,65.546,28.321,65.727,28.212Zm2.305-5.257c.251.208.493.419.727.629q-.35.316-.727.628c0-.21.006-.421.006-.63S68.037,23.163,68.032,22.955Zm-3.406-4.639c.31-.114.616-.222.919-.319q.1.46.182.953-.272-.165-.55-.325c-.183-.105-.367-.207-.551-.308Zm-4.2,1.995c-.645.371-1.247.751-1.812,1.131-.051.7-.077,1.416-.077,2.14,0,.744.027,1.456.075,2.137.566.382,1.169.761,1.814,1.134.628.362,1.258.7,1.886,1,.632-.306,1.265-.639,1.891-1s1.235-.744,1.814-1.136c.048-.68.074-1.392.074-2.135s-.027-1.454-.074-2.133c-.582-.4-1.188-.777-1.814-1.138s-1.256-.694-1.89-1c-.628.306-1.259.64-1.887,1Zm-1.341-2.274.1-.006q.4.133.816.287-.272.149-.544.306c-.181.1-.361.212-.54.32C58.966,18.634,59.024,18.333,59.086,18.036Zm-2.2,11.695A3.032,3.032,0,0,0,52.57,28.2a7.449,7.449,0,0,1,1.924-3.26,26.752,26.752,0,0,0,2.267,1.841,26.83,26.83,0,0,0,.46,2.877C57.109,29.686,57,29.711,56.886,29.731Zm-2.822,2.2a1.088,1.088,0,1,1,1.088-1.088A1.089,1.089,0,0,1,54.064,31.933Zm-3.076-1.812c.03.052.062.1.1.153a3.034,3.034,0,0,0,5.894,1.416c.245-.041.494-.086.746-.141.956,2.986,2.5,5.111,4.591,5.111s3.635-2.125,4.591-5.111q.509.109,1,.183a11.771,11.771,0,0,0,1.738.139c1.943,0,3.336-.6,4-1.75a2.9,2.9,0,0,0,.166-.346,3.034,3.034,0,0,0-1.9-5.749q-.187-.222-.388-.445.346-.381.652-.765c1.8-2.254,2.322-4.306,1.473-5.775S70.757,15,67.9,15.429c-.325.049-.658.111-1,.184-.956-2.986-2.5-5.112-4.591-5.112a3.6,3.6,0,0,0-2.789,1.523,3.032,3.032,0,0,0-3.581,3.309c-2.448-.226-4.179.358-4.958,1.708-1.045,1.809.025,4.216,2.138,6.54C51.014,25.9,49.944,28.31,50.989,30.121Zm20.851,9.549A7.343,7.343,0,1,1,64.5,47.013,7.352,7.352,0,0,1,71.839,39.669Zm0,16.632a9.289,9.289,0,1,0-9.289-9.289A9.3,9.3,0,0,0,71.839,56.3ZM92.263,64l-2.3,2.366h0a.082.082,0,0,1-.113,0L83.494,60.2a.076.076,0,0,1-.023-.056.078.078,0,0,1,.021-.057l2.3-2.366a.077.077,0,0,1,.056-.023h0a.075.075,0,0,1,.055.022l6.36,6.171A.084.084,0,0,1,92.263,64ZM79.3,57.1l.528.517H78.546Q78.933,57.375,79.3,57.1Zm-35.133.517H65.133a12.629,12.629,0,0,1-4.807-5.607H51.007a.973.973,0,1,1,0-1.946h8.655a12.582,12.582,0,0,1-.265-4.731h-8.39a.973.973,0,1,1,0-1.946h8.812A12.548,12.548,0,0,1,80.5,37.936V16.151h-5.23a.973.973,0,0,1-.973-.973V9.948H44.167Zm32.081-46.3,2.88,2.881h-2.88ZM82.9,57.9l-2.122-2.082c.228-.231.448-.472.658-.72l2.143,2.1ZM61.231,47.013A10.608,10.608,0,1,1,71.839,57.62,10.62,10.62,0,0,1,61.231,47.013ZM93.617,62.492l-6.36-6.172a2.018,2.018,0,0,0-1.441-.57,2.041,2.041,0,0,0-.775.165L82.582,53.5a12.531,12.531,0,0,0-.132-13.194V15.178a.975.975,0,0,0-.285-.689l-6.2-6.2A.972.972,0,0,0,75.275,8H43.194a.973.973,0,0,0-.973.973V58.594a.973.973,0,0,0,.973.973H81.478a.916.916,0,0,0,.133-.01,2.037,2.037,0,0,0-.085.614,2.01,2.01,0,0,0,.613,1.423l6.36,6.172a2.031,2.031,0,0,0,2.865-.042l2.3-2.368a2.028,2.028,0,0,0-.043-2.864Z" fill-rule="evenodd"/>
    </g>
  </g>
</svg>
