<svg xmlns="http://www.w3.org/2000/svg" xmlns:xlink="http://www.w3.org/1999/xlink" width="110" height="110" viewBox="0 0 110 110">
  <defs>
    <filter id="Trazado_982547" x="0" y="0" width="110" height="110" filterUnits="userSpaceOnUse">
      <feOffset dy="3" input="SourceAlpha"/>
      <feGaussianBlur stdDeviation="3" result="blur"/>
      <feFlood flood-opacity="0.161"/>
      <feComposite operator="in" in2="blur"/>
      <feComposite in="SourceGraphic"/>
    </filter>
  </defs>
  <g id="Grupo_1175315" data-name="Grupo 1175315" transform="translate(-692.461 -10654)">
    <g id="Grupo_1171416" data-name="Grupo 1171416" transform="translate(701.461 10660)">
      <g id="Grupo_1163803" data-name="Grupo 1163803" transform="translate(0 0)">
        <g id="Grupo_1163015" data-name="Grupo 1163015">
          <g id="Grupo_1157017" data-name="Grupo 1157017" transform="translate(0 0)">
            <g id="Grupo_1155793" data-name="Grupo 1155793" transform="translate(0 0)">
              <g id="Grupo_1154704" data-name="Grupo 1154704">
                <g id="Grupo_1150790" data-name="Grupo 1150790">
                  <g id="Grupo_1154214" data-name="Grupo 1154214">
                    <g id="Grupo_1152583" data-name="Grupo 1152583">
                      <g id="Grupo_1146973" data-name="Grupo 1146973" transform="translate(0 0)">
                        <g id="Grupo_1146954" data-name="Grupo 1146954">
                          <g transform="matrix(1, 0, 0, 1, -9, -6)" filter="url(#Trazado_982547)">
                            <g id="Trazado_982547-2" data-name="Trazado 982547" transform="translate(9 6)" fill="#f2f7e5">
                              <path d="M 46.00000381469727 90.49988555908203 C 39.99188232421875 90.49988555908203 34.16427230834961 89.32352447509766 28.67905807495117 87.00347137451172 C 23.38020324707031 84.76226043701172 18.62103080749512 81.55342864990234 14.53375053405762 77.46615600585938 C 10.44645690917969 73.37887573242188 7.237643718719482 68.61971282958984 4.996417045593262 63.32085800170898 C 2.676363706588745 57.83565902709961 1.500003814697266 52.00806045532227 1.500003814697266 45.99993896484375 C 1.500003814697266 39.99181747436523 2.676363706588745 34.16421890258789 4.996417045593262 28.67901802062988 C 7.237643718719482 23.38017845153809 10.44645690917969 18.62101936340332 14.53375053405762 14.53373908996582 C 18.62103080749512 10.44645881652832 23.38020324707031 7.237632274627686 28.67905807495117 4.996418952941895 C 34.16427230834961 2.676365613937378 39.99188232421875 1.500005602836609 46.00000381469727 1.500005602836609 C 52.00812530517578 1.500005602836609 57.83573532104492 2.676365613937378 63.32094955444336 4.996418952941895 C 68.61980438232422 7.237632274627686 73.37896728515625 10.44645881652832 77.46625518798828 14.53373908996582 C 81.55353546142578 18.62101936340332 84.76236724853516 23.38017845153809 87.00359344482422 28.67901802062988 C 89.32364654541016 34.16421890258789 90.5 39.99181747436523 90.5 45.99993896484375 C 90.5 52.00806045532227 89.32364654541016 57.83565902709961 87.00359344482422 63.32085800170898 C 84.76236724853516 68.61971282958984 81.55353546142578 73.37887573242188 77.46625518798828 77.46615600585938 C 73.37896728515625 81.55342864990234 68.61980438232422 84.76226043701172 63.32094955444336 87.00347137451172 C 57.83573532104492 89.32352447509766 52.00812530517578 90.49988555908203 46.00000381469727 90.49988555908203 Z" stroke="none"/>
                              <path d="M 46.00000381469727 2.999992370605469 C 40.19371795654297 2.999992370605469 34.56270217895508 4.136497497558594 29.26338958740234 6.377906799316406 C 24.14333343505859 8.543510437011719 19.54441833496094 11.64437866210938 15.59440612792969 15.59439849853516 C 11.64440155029297 19.54439544677734 8.54351806640625 24.14329528808594 6.377914428710938 29.26335144042969 C 4.136505126953125 34.56266784667969 3.000007629394531 40.19366836547852 3.000007629394531 45.99993896484375 C 3.000007629394531 51.80620956420898 4.136505126953125 57.43722534179688 6.377914428710938 62.73654174804688 C 8.54351806640625 67.85658264160156 11.64440155029297 72.45548248291016 15.59440612792969 76.40549468994141 C 19.54441833496094 80.35549926757812 24.14333343505859 83.45636749267578 29.26337432861328 85.62196350097656 C 34.56270217895508 87.86338043212891 40.19371795654297 88.9998779296875 46.00000381469727 88.9998779296875 C 51.80628967285156 88.9998779296875 57.43730545043945 87.86338043212891 62.73663330078125 85.62196350097656 C 67.85667419433594 83.45636749267578 72.45558929443359 80.35549926757812 76.40560150146484 76.40549468994141 C 80.35560607910156 72.45548248291016 83.45648956298828 67.85658264160156 85.62208557128906 62.73654174804688 C 87.86350250244141 57.43722534179688 89 51.80620956420898 89 45.99993896484375 C 89 40.19366836547852 87.86350250244141 34.56266784667969 85.62208557128906 29.26335144042969 C 83.45648956298828 24.14329528808594 80.35560607910156 19.54439544677734 76.40560150146484 15.59439849853516 C 72.45558929443359 11.64437866210938 67.85667419433594 8.543510437011719 62.73661804199219 6.377906799316406 C 57.43730545043945 4.136497497558594 51.80628967285156 2.999992370605469 46.00000381469727 2.999992370605469 M 46.00000381469727 -7.62939453125e-06 C 71.40510559082031 -7.62939453125e-06 92 20.59487915039062 92 45.99993896484375 C 92 71.40501403808594 71.40510559082031 91.99988555908203 46.00000381469727 91.99988555908203 C 20.59490203857422 91.99988555908203 7.62939453125e-06 71.40501403808594 7.62939453125e-06 45.99993896484375 C 7.62939453125e-06 20.59487915039062 20.59490203857422 -7.62939453125e-06 46.00000381469727 -7.62939453125e-06 Z" stroke="none" fill="#86b60c"/>
                            </g>
                          </g>
                        </g>
                      </g>
                    </g>
                  </g>
                </g>
              </g>
            </g>
          </g>
        </g>
      </g>
    </g>
    <g id="teamwork_9008635" transform="translate(711.961 10669.5)">
      <g id="Grupo_1175314" data-name="Grupo 1175314" transform="translate(7.5 7.5)">
        <g id="Grupo_1175311" data-name="Grupo 1175311" transform="translate(0 3.464)">
          <path id="Trazado_1031496" data-name="Trazado 1031496" d="M217.858,119.989V115.7a20.1,20.1,0,0,0-16.593,0c-.479,3.705.583,7.122,4.719,9.313h7.458A5.062,5.062,0,0,0,217.858,119.989Z" transform="translate(-178.887 -105.132)" fill="#eaaa83"/>
          <path id="Trazado_1031497" data-name="Trazado 1031497" d="M169.828,124.27a3.576,3.576,0,0,0-4.192,0v4.292a5.062,5.062,0,0,0,4.416,5.021h4.495A25.166,25.166,0,0,1,169.828,124.27Z" transform="translate(-147.449 -113.705)" fill="#e4996d"/>
          <path id="Trazado_1031498" data-name="Trazado 1031498" d="M199.648,71.238A6.35,6.35,0,0,0,206,64.888V64.31c-.593-1.826-19.839-1.971-21.008,0-1.588,2.118-1.806,4.4,1.15,6.928Z" transform="translate(-163.563 -59.98)" fill="#e4996d"/>
          <path id="Trazado_1031499" data-name="Trazado 1031499" d="M142.22,66.978c-.835-1.474-5.874-1.4-6.705,0v.577a6.35,6.35,0,0,0,6.351,6.351h1.5A26.506,26.506,0,0,1,142.22,66.978Z" transform="translate(-120.793 -62.648)" fill="#df8a57"/>
          <path id="Trazado_1031500" data-name="Trazado 1031500" d="M188.255,41.952h21.008V40.826a3.2,3.2,0,0,0-3.2-3.2H188.549A3.151,3.151,0,0,0,188.255,41.952Z" transform="translate(-166.828 -37.622)" fill="#eaaa83"/>
          <path id="Trazado_1031501" data-name="Trazado 1031501" d="M142.22,41.952a22,22,0,0,1,.294-4.33h-3.795a3.2,3.2,0,0,0-3.2,3.2v1.126Z" transform="translate(-120.793 -37.622)" fill="#e4996d"/>
          <path id="Trazado_1031502" data-name="Trazado 1031502" d="M244.083,192.956a6.93,6.93,0,0,0-3.906-6.235c-7.237.924-7.352,11.158,0,12.471A6.928,6.928,0,0,0,244.083,192.956Z" transform="translate(-208.576 -169.574)" fill="#e5eef9"/>
          <path id="Trazado_1031503" data-name="Trazado 1031503" d="M202.753,184.121a6.951,6.951,0,0,1,2.955-2.731,6.928,6.928,0,1,0,0,12.471A6.934,6.934,0,0,1,202.753,184.121Z" transform="translate(-174.107 -164.243)" fill="#d9e7f9"/>
          <path id="Trazado_1031504" data-name="Trazado 1031504" d="M236.873,120.454a1.732,1.732,0,0,1,0,3.464h-1.732a1.732,1.732,0,0,1,0-3.464Z" transform="translate(-207.428 -110.928)" fill="#f8ea69"/>
          <path id="Trazado_1031505" data-name="Trazado 1031505" d="M33.117,429.8a10.437,10.437,0,0,0-4.223-4.366H18.825A10.436,10.436,0,0,0,14.6,429.8a3.253,3.253,0,0,0,2.9,4.727H30.215A3.253,3.253,0,0,0,33.117,429.8Z" transform="translate(-13.468 -380.832)" fill="#f8ea69"/>
          <path id="Trazado_1031506" data-name="Trazado 1031506" d="M349.389,421.429a10.437,10.437,0,0,0-4.223-4.366,12.192,12.192,0,0,0-10.069,0,10.436,10.436,0,0,0-4.223,4.366,3.253,3.253,0,0,0,2.9,4.727h12.711A3.253,3.253,0,0,0,349.389,421.429Z" transform="translate(-293.367 -372.463)" fill="#e5eef9"/>
          <path id="Trazado_1031507" data-name="Trazado 1031507" d="M410.6,424.531c1.482-2.008,2.964-1.85,4.33-.942v1.651a2.677,2.677,0,0,1-1.682,2.485l-.3.12a1.71,1.71,0,0,1-2.346-1.588h0a1.037,1.037,0,0,1-.059-1.681Z" transform="translate(-363.832 -378.632)" fill="#83deff"/>
          <path id="Trazado_1031508" data-name="Trazado 1031508" d="M380.814,425.308v1.726a1.71,1.71,0,0,1-2.346,1.588l-.3-.12a2.677,2.677,0,0,1-1.682-2.485v-1.651C377.81,423.521,379.279,423.544,380.814,425.308Z" transform="translate(-334.049 -379.409)" fill="#5ad6ff"/>
          <path id="Trazado_1031509" data-name="Trazado 1031509" d="M68.768,423.631a4.331,4.331,0,1,1-8.473,0A13.459,13.459,0,0,1,68.768,423.631Z" transform="translate(-54.139 -378.632)" fill="#ffbba6"/>
          <path id="Trazado_1031510" data-name="Trazado 1031510" d="M397.714,285.124a10.363,10.363,0,0,0-3.71-7.958l-2.542.323a11.719,11.719,0,0,0-5.285,2.054l-1.772,1.251c-1.577,5.728.048,11.5,5.961,14.269A10.394,10.394,0,0,0,397.714,285.124Z" transform="translate(-340.557 -249.617)" fill="#f1b0a2"/>
          <path id="Trazado_1031511" data-name="Trazado 1031511" d="M331.248,299.486c-1.762-1.684-3.983-1.511-6.533,0a10.4,10.4,0,0,0,12.494,14.269A20.44,20.44,0,0,1,331.248,299.486Z" transform="translate(-287.4 -268.309)" fill="#eb9c8d"/>
          <path id="Trazado_1031512" data-name="Trazado 1031512" d="M76.966,286.651a11.983,11.983,0,0,0-12.09-.378c-1.944,5.969-.264,12.346,5.985,15.614a10.4,10.4,0,0,0,6.1-15.236Z" transform="translate(-57.6 -256.389)" fill="#ffdfcf"/>
          <path id="Trazado_1031513" data-name="Trazado 1031513" d="M14.775,293.553h0a6.651,6.651,0,0,0-5.856.379,10.4,10.4,0,0,0,11.842,15.236A20.477,20.477,0,0,1,14.775,293.553Z" transform="translate(-7.5 -263.668)" fill="#ffcebf"/>
          <path id="Trazado_1031514" data-name="Trazado 1031514" d="M383.556,262.059h1.579a10.679,10.679,0,0,0,8.021-3.628,10.374,10.374,0,0,0-8.654-2.247A4.565,4.565,0,0,0,383.556,262.059Z" transform="translate(-339.707 -230.882)" fill="#7a8fa5"/>
          <path id="Trazado_1031515" data-name="Trazado 1031515" d="M339.445,257.631a10.408,10.408,0,0,0-7.479,5.875H338.5A16.73,16.73,0,0,1,339.445,257.631Z" transform="translate(-294.651 -232.329)" fill="#6a829a"/>
          <path id="Trazado_1031516" data-name="Trazado 1031516" d="M10.964,240.939a3.463,3.463,0,0,1,3.292,2.386,6.619,6.619,0,0,1-5.064,4.054,3.464,3.464,0,0,1,1.772-6.44Z" transform="translate(-7.5 -217.556)" fill="#df8a57"/>
          <path id="Trazado_1031517" data-name="Trazado 1031517" d="M74.538,260.76a4.154,4.154,0,0,0,5.856.379A10.39,10.39,0,0,0,69.2,256.231a3.569,3.569,0,1,0,5.339,4.529Z" transform="translate(-61.028 -230.877)" fill="#eaaa83"/>
          <path id="Trazado_1031518" data-name="Trazado 1031518" d="M25.7,262.613h0a16.2,16.2,0,0,1,.9-4.53,10.393,10.393,0,0,0-6.752,4.908A4.154,4.154,0,0,0,25.7,262.613Z" transform="translate(-18.421 -232.73)" fill="#e4996d"/>
        </g>
        <g id="Grupo_1175313" data-name="Grupo 1175313" transform="translate(0 0)">
          <g id="Grupo_1175312" data-name="Grupo 1175312">
            <path id="Trazado_1031519" data-name="Trazado 1031519" d="M145.041,37.621h-6.322a3.2,3.2,0,0,0-3.2,3.2v1.7a6.35,6.35,0,0,0,6.351,6.351h4.908" transform="translate(-120.793 -34.157)" fill="none" stroke="#000" stroke-linecap="round" stroke-linejoin="round" stroke-miterlimit="10" stroke-width="1.5"/>
            <path id="Trazado_1031520" data-name="Trazado 1031520" d="M278.591,48.879H283.5a6.351,6.351,0,0,0,6.351-6.351v-1.7a3.2,3.2,0,0,0-3.2-3.2h-6.322" transform="translate(-247.414 -34.157)" fill="none" stroke="#000" stroke-linecap="round" stroke-linejoin="round" stroke-miterlimit="10" stroke-width="1.5"/>
            <path id="Trazado_1031521" data-name="Trazado 1031521" d="M165.636,129.491v4.292a5.062,5.062,0,0,0,4.416,5.021" transform="translate(-147.449 -115.461)" fill="none" stroke="#000" stroke-linecap="round" stroke-linejoin="round" stroke-miterlimit="10" stroke-width="1.5"/>
            <path id="Trazado_1031522" data-name="Trazado 1031522" d="M312.385,129.491v4.292a5.062,5.062,0,0,1-4.416,5.021" transform="translate(-273.413 -115.461)" fill="none" stroke="#000" stroke-linecap="round" stroke-linejoin="round" stroke-miterlimit="10" stroke-width="1.5"/>
            <path id="Trazado_1031523" data-name="Trazado 1031523" d="M238.605,122.186a1.734,1.734,0,0,1-1.732,1.732h-1.732a1.732,1.732,0,0,1,0-3.464h1.732A1.733,1.733,0,0,1,238.605,122.186Z" transform="translate(-207.428 -107.464)" fill="none" stroke="#000" stroke-linecap="round" stroke-linejoin="round" stroke-miterlimit="10" stroke-width="1.5"/>
            <line id="Línea_679" data-name="Línea 679" x1="17.936" transform="translate(14.802 7.794)" fill="none" stroke="#000" stroke-linecap="round" stroke-linejoin="round" stroke-miterlimit="10" stroke-width="1.5"/>
            <line id="Línea_680" data-name="Línea 680" x1="5.592" transform="translate(36.764 7.794)" fill="none" stroke="#000" stroke-linecap="round" stroke-linejoin="round" stroke-miterlimit="10" stroke-width="1.5"/>
            <path id="Trazado_1031524" data-name="Trazado 1031524" d="M208.663,184.122a6.928,6.928,0,1,1-5.977-3.424A6.887,6.887,0,0,1,208.663,184.122Z" transform="translate(-174.107 -160.779)" fill="none" stroke="#000" stroke-linecap="round" stroke-linejoin="round" stroke-miterlimit="10" stroke-width="1.5"/>
            <path id="Trazado_1031525" data-name="Trazado 1031525" d="M97.86,130.251v-9.564a6.891,6.891,0,0,1,5.642-6.777" transform="translate(-87.468 -101.672)" fill="none" stroke="#000" stroke-linecap="round" stroke-linejoin="round" stroke-miterlimit="10" stroke-width="1.5"/>
            <path id="Trazado_1031526" data-name="Trazado 1031526" d="M365.08,113.91a6.891,6.891,0,0,1,5.642,6.777v9.564" transform="translate(-323.956 -101.672)" fill="none" stroke="#000" stroke-linecap="round" stroke-linejoin="round" stroke-miterlimit="10" stroke-width="1.5"/>
            <path id="Trazado_1031527" data-name="Trazado 1031527" d="M418.467,442.892v.077a2.677,2.677,0,0,1-1.682,2.485l-.3.12a1.71,1.71,0,0,1-2.346-1.588" transform="translate(-367.371 -392.819)" fill="none" stroke="#000" stroke-linecap="round" stroke-linejoin="round" stroke-miterlimit="10" stroke-width="1.5"/>
            <path id="Trazado_1031528" data-name="Trazado 1031528" d="M380.814,443.91v.077a1.71,1.71,0,0,1-2.346,1.588l-.3-.12a2.677,2.677,0,0,1-1.682-2.485v-.077" transform="translate(-334.049 -392.82)" fill="none" stroke="#000" stroke-linecap="round" stroke-linejoin="round" stroke-miterlimit="10" stroke-width="1.5"/>
            <path id="Trazado_1031529" data-name="Trazado 1031529" d="M28.894,425.432a10.436,10.436,0,0,1,4.223,4.366,3.253,3.253,0,0,1-2.9,4.727H17.5a3.253,3.253,0,0,1-2.9-4.727,10.436,10.436,0,0,1,4.223-4.366" transform="translate(-13.467 -377.367)" fill="none" stroke="#000" stroke-linecap="round" stroke-linejoin="round" stroke-miterlimit="10" stroke-width="1.5"/>
            <path id="Trazado_1031530" data-name="Trazado 1031530" d="M418.467,428.534v1.651a2.677,2.677,0,0,1-1.682,2.485l-.3.12a1.71,1.71,0,0,1-2.346-1.588" transform="translate(-367.371 -380.113)" fill="none" stroke="#000" stroke-linecap="round" stroke-linejoin="round" stroke-miterlimit="10" stroke-width="1.5"/>
            <path id="Trazado_1031531" data-name="Trazado 1031531" d="M380.814,429.476V431.2a1.71,1.71,0,0,1-2.346,1.588l-.3-.12a2.677,2.677,0,0,1-1.682-2.485v-1.651" transform="translate(-334.049 -380.113)" fill="none" stroke="#000" stroke-linecap="round" stroke-linejoin="round" stroke-miterlimit="10" stroke-width="1.5"/>
            <path id="Trazado_1031532" data-name="Trazado 1031532" d="M345.167,425.432a10.436,10.436,0,0,1,4.223,4.366,3.253,3.253,0,0,1-2.9,4.727H333.777a3.253,3.253,0,0,1-2.9-4.727,10.437,10.437,0,0,1,4.223-4.366" transform="translate(-293.367 -377.367)" fill="none" stroke="#000" stroke-linecap="round" stroke-linejoin="round" stroke-miterlimit="10" stroke-width="1.5"/>
            <path id="Trazado_1031533" data-name="Trazado 1031533" d="M68.768,428.9a4.331,4.331,0,1,1-8.473,0" transform="translate(-54.139 -380.433)" fill="none" stroke="#000" stroke-linecap="round" stroke-linejoin="round" stroke-miterlimit="10" stroke-width="1.5"/>
            <path id="Trazado_1031534" data-name="Trazado 1031534" d="M19.84,297.846a4.154,4.154,0,0,0,5.856-.379,4.154,4.154,0,0,0,6.235,0,4.154,4.154,0,0,0,5.856.379" transform="translate(-18.421 -264.119)" fill="none" stroke="#000" stroke-linecap="round" stroke-linejoin="round" stroke-miterlimit="10" stroke-width="1.5"/>
            <line id="Línea_681" data-name="Línea 681" y2="1.386" transform="translate(39.837 38.35)" fill="none" stroke="#000" stroke-linecap="round" stroke-linejoin="round" stroke-miterlimit="10" stroke-width="1.5"/>
            <line id="Línea_682" data-name="Línea 682" y2="1.386" transform="translate(53.694 38.35)" fill="none" stroke="#000" stroke-linecap="round" stroke-linejoin="round" stroke-miterlimit="10" stroke-width="1.5"/>
            <path id="Trazado_1031535" data-name="Trazado 1031535" d="M397.61,352.649a2.519,2.519,0,0,0,3.8,0" transform="translate(-352.745 -312.955)" fill="none" stroke="#000" stroke-linecap="round" stroke-linejoin="round" stroke-miterlimit="10" stroke-width="1.5"/>
            <circle id="Elipse_12159" data-name="Elipse 12159" cx="10.392" cy="10.392" r="10.392" transform="translate(32.068 38.971) rotate(-45)" fill="none" stroke="#000" stroke-linecap="round" stroke-linejoin="round" stroke-miterlimit="10" stroke-width="1.5"/>
            <line id="Línea_683" data-name="Línea 683" y2="1.386" transform="translate(3.464 38.35)" fill="none" stroke="#000" stroke-linecap="round" stroke-linejoin="round" stroke-miterlimit="10" stroke-width="1.5"/>
            <line id="Línea_684" data-name="Línea 684" y2="1.386" transform="translate(17.321 38.35)" fill="none" stroke="#000" stroke-linecap="round" stroke-linejoin="round" stroke-miterlimit="10" stroke-width="1.5"/>
            <path id="Trazado_1031536" data-name="Trazado 1031536" d="M81.337,352.649a2.519,2.519,0,0,0,3.8,0" transform="translate(-72.845 -312.955)" fill="none" stroke="#000" stroke-linecap="round" stroke-linejoin="round" stroke-miterlimit="10" stroke-width="1.5"/>
            <path id="Trazado_1031537" data-name="Trazado 1031537" d="M10.5,273.7a10.363,10.363,0,1,0-2.215-3.335" transform="translate(-7.5 -227.421)" fill="none" stroke="#000" stroke-linecap="round" stroke-linejoin="round" stroke-miterlimit="10" stroke-width="1.5"/>
            <path id="Trazado_1031538" data-name="Trazado 1031538" d="M9.192,247.38a3.464,3.464,0,1,1,5.064-4.054" transform="translate(-7.5 -214.093)" fill="none" stroke="#000" stroke-linecap="round" stroke-linejoin="round" stroke-miterlimit="10" stroke-width="1.5"/>
            <path id="Trazado_1031539" data-name="Trazado 1031539" d="M331.956,280.793h8.113a10.679,10.679,0,0,0,8.021-3.628" transform="translate(-294.642 -246.152)" fill="none" stroke="#000" stroke-linecap="round" stroke-linejoin="round" stroke-miterlimit="10" stroke-width="1.5"/>
            <path id="Trazado_1031540" data-name="Trazado 1031540" d="M233.409,227.611l1.732,1.732,3.464-3.464" transform="translate(-207.428 -200.764)" fill="none" stroke="#000" stroke-linecap="round" stroke-linejoin="round" stroke-miterlimit="10" stroke-width="1.5"/>
            <path id="Trazado_1031541" data-name="Trazado 1031541" d="M227.008,10.964h-8.66V9.723A2.223,2.223,0,0,1,220.571,7.5h4.215a2.223,2.223,0,0,1,2.223,2.223Z" transform="translate(-194.099 -7.5)" fill="none" stroke="#000" stroke-linecap="round" stroke-linejoin="round" stroke-miterlimit="10" stroke-width="1.5"/>
          </g>
        </g>
      </g>
    </g>
  </g>
</svg>
