<svg xmlns="http://www.w3.org/2000/svg" xmlns:xlink="http://www.w3.org/1999/xlink" width="110" height="110" viewBox="0 0 110 110">
  <defs>
    <filter id="Trazado_982547" x="0" y="0" width="110" height="110" filterUnits="userSpaceOnUse">
      <feOffset dy="3" input="SourceAlpha"/>
      <feGaussianBlur stdDeviation="3" result="blur"/>
      <feFlood flood-opacity="0.161"/>
      <feComposite operator="in" in2="blur"/>
      <feComposite in="SourceGraphic"/>
    </filter>
  </defs>
  <g id="Grupo_1176025" data-name="Grupo 1176025" transform="translate(-670 -15489)">
    <g id="Grupo_1173152" data-name="Grupo 1173152" transform="translate(679 15495)">
      <g id="Grupo_1163801" data-name="Grupo 1163801" transform="translate(0 0)">
        <g id="Grupo_1163014" data-name="Grupo 1163014">
          <g id="Grupo_1157015" data-name="Grupo 1157015" transform="translate(0 0)">
            <g id="Grupo_1155792" data-name="Grupo 1155792" transform="translate(0 0)">
              <g id="Grupo_1154703" data-name="Grupo 1154703">
                <g id="Grupo_1150789" data-name="Grupo 1150789">
                  <g id="Grupo_1154212" data-name="Grupo 1154212">
                    <g id="Grupo_1152583" data-name="Grupo 1152583">
                      <g id="Grupo_1146973" data-name="Grupo 1146973" transform="translate(0 0)">
                        <g id="Grupo_1146954" data-name="Grupo 1146954">
                          <g transform="matrix(1, 0, 0, 1, -9, -6)" filter="url(#Trazado_982547)">
                            <g id="Trazado_982547-2" data-name="Trazado 982547" transform="translate(9 6)" fill="#f2f7e5">
                              <path d="M 46.00000381469727 90.49988555908203 C 39.99188232421875 90.49988555908203 34.16427230834961 89.32352447509766 28.67905807495117 87.00347137451172 C 23.38020324707031 84.76226043701172 18.62103080749512 81.55342864990234 14.53375053405762 77.46615600585938 C 10.44645690917969 73.37887573242188 7.237643718719482 68.61971282958984 4.996417045593262 63.32085800170898 C 2.676363706588745 57.83565902709961 1.500003814697266 52.00806045532227 1.500003814697266 45.99993896484375 C 1.500003814697266 39.99181747436523 2.676363706588745 34.16421890258789 4.996417045593262 28.67901802062988 C 7.237643718719482 23.38017845153809 10.44645690917969 18.62101936340332 14.53375053405762 14.53373908996582 C 18.62103080749512 10.44645881652832 23.38020324707031 7.237632274627686 28.67905807495117 4.996418952941895 C 34.16427230834961 2.676365613937378 39.99188232421875 1.500005602836609 46.00000381469727 1.500005602836609 C 52.00812530517578 1.500005602836609 57.83573532104492 2.676365613937378 63.32094955444336 4.996418952941895 C 68.61980438232422 7.237632274627686 73.37896728515625 10.44645881652832 77.46625518798828 14.53373908996582 C 81.55353546142578 18.62101936340332 84.76236724853516 23.38017845153809 87.00359344482422 28.67901802062988 C 89.32364654541016 34.16421890258789 90.5 39.99181747436523 90.5 45.99993896484375 C 90.5 52.00806045532227 89.32364654541016 57.83565902709961 87.00359344482422 63.32085800170898 C 84.76236724853516 68.61971282958984 81.55353546142578 73.37887573242188 77.46625518798828 77.46615600585938 C 73.37896728515625 81.55342864990234 68.61980438232422 84.76226043701172 63.32094955444336 87.00347137451172 C 57.83573532104492 89.32352447509766 52.00812530517578 90.49988555908203 46.00000381469727 90.49988555908203 Z" stroke="none"/>
                              <path d="M 46.00000381469727 2.999992370605469 C 40.19371795654297 2.999992370605469 34.56270217895508 4.136497497558594 29.26338958740234 6.377906799316406 C 24.14333343505859 8.543510437011719 19.54441833496094 11.64437866210938 15.59440612792969 15.59439849853516 C 11.64440155029297 19.54439544677734 8.54351806640625 24.14329528808594 6.377914428710938 29.26335144042969 C 4.136505126953125 34.56266784667969 3.000007629394531 40.19366836547852 3.000007629394531 45.99993896484375 C 3.000007629394531 51.80620956420898 4.136505126953125 57.43722534179688 6.377914428710938 62.73654174804688 C 8.54351806640625 67.85658264160156 11.64440155029297 72.45548248291016 15.59440612792969 76.40549468994141 C 19.54441833496094 80.35549926757812 24.14333343505859 83.45636749267578 29.26337432861328 85.62196350097656 C 34.56270217895508 87.86338043212891 40.19371795654297 88.9998779296875 46.00000381469727 88.9998779296875 C 51.80628967285156 88.9998779296875 57.43730545043945 87.86338043212891 62.73663330078125 85.62196350097656 C 67.85667419433594 83.45636749267578 72.45558929443359 80.35549926757812 76.40560150146484 76.40549468994141 C 80.35560607910156 72.45548248291016 83.45648956298828 67.85658264160156 85.62208557128906 62.73654174804688 C 87.86350250244141 57.43722534179688 89 51.80620956420898 89 45.99993896484375 C 89 40.19366836547852 87.86350250244141 34.56266784667969 85.62208557128906 29.26335144042969 C 83.45648956298828 24.14329528808594 80.35560607910156 19.54439544677734 76.40560150146484 15.59439849853516 C 72.45558929443359 11.64437866210938 67.85667419433594 8.543510437011719 62.73661804199219 6.377906799316406 C 57.43730545043945 4.136497497558594 51.80628967285156 2.999992370605469 46.00000381469727 2.999992370605469 M 46.00000381469727 -7.62939453125e-06 C 71.40510559082031 -7.62939453125e-06 92 20.59487915039062 92 45.99993896484375 C 92 71.40501403808594 71.40510559082031 91.99988555908203 46.00000381469727 91.99988555908203 C 20.59490203857422 91.99988555908203 7.62939453125e-06 71.40501403808594 7.62939453125e-06 45.99993896484375 C 7.62939453125e-06 20.59487915039062 20.59490203857422 -7.62939453125e-06 46.00000381469727 -7.62939453125e-06 Z" stroke="none" fill="#86b60c"/>
                            </g>
                          </g>
                        </g>
                      </g>
                    </g>
                  </g>
                </g>
              </g>
            </g>
          </g>
        </g>
      </g>
    </g>
    <g id="planner_7397206" transform="translate(697 15515)">
      <g id="Grupo_1176023" data-name="Grupo 1176023" transform="translate(0.902 0.902)">
        <g id="Grupo_1176011" data-name="Grupo 1176011" transform="translate(12.627 10.823)">
          <path id="Trazado_1032338" data-name="Trazado 1032338" d="M120,104v37.881a1.8,1.8,0,0,0,1.8,1.8h37.881a1.8,1.8,0,0,0,1.8-1.8V104Z" transform="translate(-120 -104)" fill="#f0d0b4"/>
        </g>
        <g id="Grupo_1176012" data-name="Grupo 1176012" transform="translate(12.627 1.804)">
          <path id="Trazado_1032339" data-name="Trazado 1032339" d="M159.685,24H121.8a1.8,1.8,0,0,0-1.8,1.8v7.216h41.489V25.8A1.8,1.8,0,0,0,159.685,24Z" transform="translate(-120 -24)" fill="#f29ed0"/>
        </g>
        <g id="Grupo_1176013" data-name="Grupo 1176013" transform="translate(41.489)">
          <path id="Trazado_1032340" data-name="Trazado 1032340" d="M379.608,9.8v4.51a.9.9,0,0,1-.9.9h-1.8a.9.9,0,0,1-.9-.9V8.9a.9.9,0,0,1,.9-.9h1.8a.9.9,0,0,1,.9.9Z" transform="translate(-376 -8)" fill="#aab2bd"/>
        </g>
        <g id="Grupo_1176014" data-name="Grupo 1176014" transform="translate(31.568)">
          <path id="Trazado_1032341" data-name="Trazado 1032341" d="M291.608,9.8v4.51a.9.9,0,0,1-.9.9h-1.8a.9.9,0,0,1-.9-.9V8.9a.9.9,0,0,1,.9-.9h1.8a.9.9,0,0,1,.9.9Z" transform="translate(-288 -8)" fill="#aab2bd"/>
        </g>
        <g id="Grupo_1176015" data-name="Grupo 1176015" transform="translate(21.647)">
          <path id="Trazado_1032342" data-name="Trazado 1032342" d="M203.608,9.8v4.51a.9.9,0,0,1-.9.9h-1.8a.9.9,0,0,1-.9-.9V8.9a.9.9,0,0,1,.9-.9h1.8a.9.9,0,0,1,.9.9Z" transform="translate(-200 -8)" fill="#aab2bd"/>
        </g>
        <g id="Grupo_1176016" data-name="Grupo 1176016" transform="translate(27.842 20.745)">
          <path id="Trazado_1032343" data-name="Trazado 1032343" d="M274.009,199.216v5.412h-.395a1.24,1.24,0,0,0-.877,2.117l.28.278-3.828,3.828-.278-.28a1.24,1.24,0,0,0-2.117.877v.395h-5.412v-.395a1.24,1.24,0,0,0-2.117-.877l-.278.28-3.828-3.828.28-.278a1.243,1.243,0,0,0-.488-2.058l1.02-.511,3.629-1.814a4.51,4.51,0,1,0,0-.882l-3.629-1.814-1.02-.511a1.243,1.243,0,0,0,.488-2.058l-.28-.278,3.828-3.828.278.28a1.24,1.24,0,0,0,2.117-.877V192h5.412v.395a1.24,1.24,0,0,0,2.117.877l.278-.28,3.828,3.828-.28.278a1.24,1.24,0,0,0,.877,2.117Z" transform="translate(-254.95 -192)" fill="#fcd770"/>
        </g>
        <g id="Grupo_1176017" data-name="Grupo 1176017" transform="translate(0 27.058)">
          <path id="Trazado_1032344" data-name="Trazado 1032344" d="M13.412,248v7.215h-1.8a3.608,3.608,0,1,1,0-7.215Z" transform="translate(-8 -248)" fill="#ccd1d9"/>
        </g>
        <g id="Grupo_1176018" data-name="Grupo 1176018" transform="translate(9.019 30.666)">
          <path id="Trazado_1032345" data-name="Trazado 1032345" d="M104.235,280v3.608H88V280Z" transform="translate(-88 -280)" fill="#b4dd7f"/>
        </g>
        <g id="Grupo_1176019" data-name="Grupo 1176019" transform="translate(9.019 27.058)">
          <path id="Trazado_1032346" data-name="Trazado 1032346" d="M104.235,248v3.608H88V248h16.235Z" transform="translate(-88 -248)" fill="#f29ed0"/>
        </g>
        <g id="Grupo_1176020" data-name="Grupo 1176020" transform="translate(25.254 27.058)">
          <path id="Trazado_1032347" data-name="Trazado 1032347" d="M234.587,254.373l-1.3.652a1.8,1.8,0,0,1-.807.19H232V248h.476a1.8,1.8,0,0,1,.807.191l1.3.652,1.02.511v4.51Z" transform="translate(-232 -248)" fill="#ccd1d9"/>
        </g>
        <g id="Grupo_1176021" data-name="Grupo 1176021" transform="translate(5.412 27.058)">
          <path id="Trazado_1032348" data-name="Trazado 1032348" d="M59.608,251.608v3.608H56V248h3.608Z" transform="translate(-56 -248)" fill="#ffeaa7"/>
        </g>
        <g id="Grupo_1176022" data-name="Grupo 1176022" transform="translate(28.862 28.411)">
          <path id="Trazado_1032349" data-name="Trazado 1032349" d="M268.51,262.255l-.88.441L264,264.51V260l3.629,1.814Z" transform="translate(-264 -260)" fill="#969faa"/>
        </g>
      </g>
      <g id="Grupo_1176024" data-name="Grupo 1176024">
        <path id="Trazado_1032350" data-name="Trazado 1032350" d="M328,392h1.8v1.8H328Z" transform="translate(-291.021 -347.805)"/>
        <path id="Trazado_1032351" data-name="Trazado 1032351" d="M360,392h1.8v1.8H360Z" transform="translate(-319.413 -347.805)"/>
        <path id="Trazado_1032352" data-name="Trazado 1032352" d="M392,392h1.8v1.8H392Z" transform="translate(-347.805 -347.805)"/>
        <path id="Trazado_1032353" data-name="Trazado 1032353" d="M32,416h1.8v1.8H32Z" transform="translate(-28.392 -369.099)"/>
        <path id="Trazado_1032354" data-name="Trazado 1032354" d="M64,416h1.8v1.8H64Z" transform="translate(-56.784 -369.099)"/>
        <path id="Trazado_1032355" data-name="Trazado 1032355" d="M53.214,1.8H46.9A1.806,1.806,0,0,0,45.1,0h-1.8a1.806,1.806,0,0,0-1.8,1.8h-4.51a1.806,1.806,0,0,0-1.8-1.8h-1.8a1.806,1.806,0,0,0-1.8,1.8h-4.51a1.806,1.806,0,0,0-1.8-1.8h-1.8a1.806,1.806,0,0,0-1.8,1.8H15.333A2.709,2.709,0,0,0,12.627,4.51V27.058H4.51a4.51,4.51,0,0,0,0,9.019h8.117v3.608H3.608v1.8H25.254v-1.8H14.431V36.078h12.2a2.72,2.72,0,0,0,1.21-.286l.823-.411a.37.37,0,0,1,.02.059.314.314,0,0,1-.092.313l-.917.917,5.1,5.1.917-.917a.338.338,0,0,1,.578.239v1.3h7.216v-1.3a.338.338,0,0,1,.577-.239l.917.917,5.1-5.1-.917-.917a.338.338,0,0,1,.239-.577h1.3V27.96h-1.3a.338.338,0,0,1-.239-.577l.917-.917-5.1-5.1-.917.917a.338.338,0,0,1-.577-.239v-1.3H34.274v1.3a.338.338,0,0,1-.577.239l-.917-.917-5.1,5.1.917.917a.315.315,0,0,1,.092.313.371.371,0,0,1-.02.059l-.823-.411a2.721,2.721,0,0,0-1.21-.286h-12.2V12.627H54.116V49.607a.9.9,0,0,1-.9.9H15.333a.9.9,0,0,1-.9-.9V45.1H23.45v-1.8H3.608v1.8h9.019v4.51a2.709,2.709,0,0,0,2.706,2.706H53.214a2.709,2.709,0,0,0,2.706-2.706V4.51A2.709,2.709,0,0,0,53.214,1.8Zm-44.2,32.47h-1.8V28.862h1.8Zm1.8-1.8H25.254v1.8H10.823Zm14.431-1.8H10.823v-1.8H25.254Zm-23.45.9A2.709,2.709,0,0,1,4.51,28.862h.9v5.412h-.9A2.709,2.709,0,0,1,1.8,31.568Zm30.453,0-1.591.8V30.772Zm-2.071-5.06,2.636-2.636a2.144,2.144,0,0,0,3.2-1.324h3.728a2.144,2.144,0,0,0,3.2,1.324l2.636,2.636A2.144,2.144,0,0,0,46.9,29.7v3.728a2.144,2.144,0,0,0-1.324,3.2l-2.636,2.636a2.144,2.144,0,0,0-3.2,1.324H36.017a2.144,2.144,0,0,0-3.2-1.324l-2.636-2.636a2.115,2.115,0,0,0,.252-1.614,2.151,2.151,0,0,0-.16-.44l2.483-1.242a5.412,5.412,0,1,0,0-3.529l-2.483-1.242a2.154,2.154,0,0,0,.161-.441,2.115,2.115,0,0,0-.252-1.613ZM34.4,30.622a3.608,3.608,0,1,1,0,1.892l1.892-.946Zm-5.537-.751v3.395l-1.8.9v-5.2ZM43.293,1.8h1.8V7.216H43.293Zm-9.921,0h1.8V7.216H33.372Zm-9.921,0h1.8V7.216H23.45Zm-9.019,9.019V4.51a.9.9,0,0,1,.9-.9h6.314V7.216a1.806,1.806,0,0,0,1.8,1.8h1.8a1.806,1.806,0,0,0,1.8-1.8V3.608h4.51V7.216a1.806,1.806,0,0,0,1.8,1.8h1.8a1.806,1.806,0,0,0,1.8-1.8V3.608h4.51V7.216a1.806,1.806,0,0,0,1.8,1.8h1.8a1.806,1.806,0,0,0,1.8-1.8V3.608h6.314a.9.9,0,0,1,.9.9v6.314Z"/>
        <path id="Trazado_1032357" data-name="Trazado 1032357" d="M160,144h1.8v1.8H160Z" transform="translate(-141.961 -127.765)"/>
        <path id="Trazado_1032358" data-name="Trazado 1032358" d="M192,144h1.8v1.8H192Z" transform="translate(-170.353 -127.765)"/>
        <path id="Trazado_1032359" data-name="Trazado 1032359" d="M224,144h1.8v1.8H224Z" transform="translate(-198.746 -127.765)"/>
        <path id="Trazado_1032360" data-name="Trazado 1032360" d="M416,128h5.412v1.8H416Z" transform="translate(-369.099 -113.569)"/>
        <path id="Trazado_1032361" data-name="Trazado 1032361" d="M416,160h5.412v1.8H416Z" transform="translate(-369.099 -141.961)"/>
        <path id="Trazado_1032362" data-name="Trazado 1032362" d="M432,192h3.608v1.8H432Z" transform="translate(-383.295 -170.353)"/>
        <path id="Trazado_1032363" data-name="Trazado 1032363" d="M26.834,155.619l-1.276-1.276-4.774,4.774-1.166-1.166-1.276,1.276,2.442,2.442Z" transform="translate(-16.275 -136.942)"/>
        <path id="Trazado_1032364" data-name="Trazado 1032364" d="M26.834,91.619l-1.276-1.276-4.774,4.774-1.166-1.166-1.276,1.276,2.442,2.442Z" transform="translate(-16.275 -80.158)"/>
        <path id="Trazado_1032365" data-name="Trazado 1032365" d="M26.834,27.619l-1.276-1.276-4.774,4.774-1.166-1.166-1.276,1.276,2.442,2.442Z" transform="translate(-16.275 -23.373)"/>
      </g>
    </g>
  </g>
</svg>
