<svg xmlns="http://www.w3.org/2000/svg" xmlns:xlink="http://www.w3.org/1999/xlink" width="890.319" height="345.43" viewBox="0 0 890.319 345.43">
  <defs>
    <filter id="Trazado_1032560" x="353" y="0" width="201.149" height="84.388" filterUnits="userSpaceOnUse">
      <feOffset dy="3" input="SourceAlpha"/>
      <feGaussianBlur stdDeviation="3" result="blur"/>
      <feFlood flood-opacity="0.161"/>
      <feComposite operator="in" in2="blur"/>
      <feComposite in="SourceGraphic"/>
    </filter>
    <filter id="Trazado_1032562" x="0" y="212.042" width="226.149" height="133.388" filterUnits="userSpaceOnUse">
      <feOffset dy="3" input="SourceAlpha"/>
      <feGaussianBlur stdDeviation="3" result="blur-2"/>
      <feFlood flood-opacity="0.161"/>
      <feComposite operator="in" in2="blur-2"/>
      <feComposite in="SourceGraphic"/>
    </filter>
    <filter id="Trazado_1032564" x="221.39" y="212.042" width="226.149" height="133.388" filterUnits="userSpaceOnUse">
      <feOffset dy="3" input="SourceAlpha"/>
      <feGaussianBlur stdDeviation="3" result="blur-3"/>
      <feFlood flood-opacity="0.161"/>
      <feComposite operator="in" in2="blur-3"/>
      <feComposite in="SourceGraphic"/>
    </filter>
    <filter id="Trazado_1032566" x="442.78" y="212.042" width="226.149" height="133.388" filterUnits="userSpaceOnUse">
      <feOffset dy="3" input="SourceAlpha"/>
      <feGaussianBlur stdDeviation="3" result="blur-4"/>
      <feFlood flood-opacity="0.161"/>
      <feComposite operator="in" in2="blur-4"/>
      <feComposite in="SourceGraphic"/>
    </filter>
    <filter id="Trazado_1032568" x="664.17" y="212.042" width="226.149" height="133.388" filterUnits="userSpaceOnUse">
      <feOffset dy="3" input="SourceAlpha"/>
      <feGaussianBlur stdDeviation="3" result="blur-5"/>
      <feFlood flood-opacity="0.161"/>
      <feComposite operator="in" in2="blur-5"/>
      <feComposite in="SourceGraphic"/>
    </filter>
    <filter id="Trazado_1032576" x="568" y="109" width="201.149" height="84.388" filterUnits="userSpaceOnUse">
      <feOffset dy="3" input="SourceAlpha"/>
      <feGaussianBlur stdDeviation="3" result="blur-6"/>
      <feFlood flood-opacity="0.161"/>
      <feComposite operator="in" in2="blur-6"/>
      <feComposite in="SourceGraphic"/>
    </filter>
    <filter id="Trazado_1032578" x="123.083" y="109" width="201.149" height="84.388" filterUnits="userSpaceOnUse">
      <feOffset dy="3" input="SourceAlpha"/>
      <feGaussianBlur stdDeviation="3" result="blur-7"/>
      <feFlood flood-opacity="0.161"/>
      <feComposite operator="in" in2="blur-7"/>
      <feComposite in="SourceGraphic"/>
    </filter>
  </defs>
  <g id="Grupo_1176377" data-name="Grupo 1176377" transform="translate(-343.461 -3031.443)">
    <g transform="matrix(1, 0, 0, 1, 343.46, 3031.44)" filter="url(#Trazado_1032560)">
      <path id="Trazado_1032560-2" data-name="Trazado 1032560" d="M10,0H173.149a10,10,0,0,1,10,10V56.388a10,10,0,0,1-10,10H10a10,10,0,0,1-10-10V10A10,10,0,0,1,10,0Z" transform="translate(362 6)" fill="#86b60c"/>
    </g>
    <path id="Trazado_1032561" data-name="Trazado 1032561" d="M15.873,19H8.314V6.4h7.269V8.708h-4.43v2.8h4.122v2.3H11.153V16.7h4.72Zm10.443,0H23.547V14q0-2.092-1.494-2.092a1.483,1.483,0,0,0-1.187.554,2.109,2.109,0,0,0-.466,1.406V19H17.623V10H20.4v1.424h.035A3.183,3.183,0,0,1,23.328,9.78q2.988,0,2.988,3.709Zm8.07-11.2a2.806,2.806,0,0,0-1.028-.211q-1.336,0-1.336,1.45V10h2.057v2.048H32.022V19H29.253V12.048H27.741V10h1.512V8.884a3.24,3.24,0,0,1,1-2.479,3.821,3.821,0,0,1,2.725-.94,4.785,4.785,0,0,1,1.406.176ZM39.705,19.22a4.838,4.838,0,0,1-3.538-1.261,4.573,4.573,0,0,1-1.288-3.423,4.573,4.573,0,0,1,1.336-3.494A5.048,5.048,0,0,1,39.828,9.78a4.78,4.78,0,0,1,3.516,1.261,4.483,4.483,0,0,1,1.274,3.335A4.759,4.759,0,0,1,43.3,17.919,4.892,4.892,0,0,1,39.705,19.22Zm.07-7.312a1.852,1.852,0,0,0-1.529.677A2.984,2.984,0,0,0,37.7,14.5q0,2.593,2.092,2.593,2,0,2-2.663Q41.788,11.907,39.776,11.907ZM55.228,23.14H52.451V17.761h-.035a3.085,3.085,0,0,1-2.769,1.459,3.446,3.446,0,0,1-2.729-1.182,4.881,4.881,0,0,1-1.033-3.318,5.394,5.394,0,0,1,1.134-3.595A3.679,3.679,0,0,1,49.973,9.78a2.678,2.678,0,0,1,2.443,1.266h.035V10h2.777ZM52.5,14.7v-.721a2.2,2.2,0,0,0-.51-1.477,1.643,1.643,0,0,0-1.31-.6,1.7,1.7,0,0,0-1.45.725,3.359,3.359,0,0,0-.527,2.008,2.835,2.835,0,0,0,.514,1.8,1.629,1.629,0,0,0,1.34.65,1.722,1.722,0,0,0,1.411-.659A2.673,2.673,0,0,0,52.5,14.7ZM66.12,19H63.351V17.629h-.044a3.141,3.141,0,0,1-2.751,1.591q-3.129,0-3.129-3.788V10H60.2v5.186q0,1.907,1.512,1.907a1.5,1.5,0,0,0,1.2-.523,2.109,2.109,0,0,0,.448-1.419V10H66.12Zm10.426-3.709H70.674q.141,1.96,2.47,1.96a4.822,4.822,0,0,0,2.61-.7v2a6.858,6.858,0,0,1-3.243.668,4.565,4.565,0,0,1-3.384-1.208,4.566,4.566,0,0,1-1.2-3.371,4.816,4.816,0,0,1,1.3-3.551,4.334,4.334,0,0,1,3.2-1.31,3.933,3.933,0,0,1,3.045,1.169,4.5,4.5,0,0,1,1.077,3.173ZM73.97,13.586q0-1.934-1.564-1.934a1.494,1.494,0,0,0-1.156.554,2.513,2.513,0,0,0-.593,1.38Zm16.017,5.089a5.492,5.492,0,0,1-2.716.545,4.593,4.593,0,0,1-3.357-1.257,4.341,4.341,0,0,1-1.283-3.243A4.782,4.782,0,0,1,84.007,11.1,5.083,5.083,0,0,1,87.685,9.78a4.72,4.72,0,0,1,2.3.422v2.355a3.166,3.166,0,0,0-1.942-.65,2.559,2.559,0,0,0-1.894.7,2.607,2.607,0,0,0-.7,1.929,2.565,2.565,0,0,0,.668,1.876,2.455,2.455,0,0,0,1.837.681,3.666,3.666,0,0,0,2.03-.65Zm4.6.325H91.809V5.676h2.777Zm9.828,0h-2.628V17.708h-.035A2.933,2.933,0,0,1,99.07,19.22a2.8,2.8,0,0,1-2.061-.743,2.661,2.661,0,0,1-.751-1.982q0-2.619,3.1-3.023l2.443-.325q0-1.477-1.6-1.477a5.46,5.46,0,0,0-3.059.958V10.536a6.881,6.881,0,0,1,1.586-.527,8.339,8.339,0,0,1,1.833-.229q3.85,0,3.85,3.841Zm-2.61-3.656v-.606l-1.635.211q-1.354.176-1.354,1.222a1.01,1.01,0,0,0,.33.778,1.266,1.266,0,0,0,.892.3,1.644,1.644,0,0,0,1.274-.541A1.952,1.952,0,0,0,101.8,15.344Zm1.784-9.606-2.751,2.839h-2l2.285-2.839Zm2.436,13.025v-2.25a5.913,5.913,0,0,0,1.367.615,4.531,4.531,0,0,0,1.288.2,2.762,2.762,0,0,0,1.165-.2.653.653,0,0,0,.426-.615.569.569,0,0,0-.193-.439,1.8,1.8,0,0,0-.5-.308,5.635,5.635,0,0,0-.664-.237q-.36-.105-.694-.237a6.653,6.653,0,0,1-.945-.435,2.731,2.731,0,0,1-.686-.541,2.125,2.125,0,0,1-.422-.712,2.841,2.841,0,0,1-.145-.958,2.466,2.466,0,0,1,.33-1.3,2.692,2.692,0,0,1,.879-.892,4.016,4.016,0,0,1,1.257-.51,6.553,6.553,0,0,1,1.472-.163,8.168,8.168,0,0,1,1.213.092,9.053,9.053,0,0,1,1.213.268v2.145a4.383,4.383,0,0,0-1.129-.461,4.764,4.764,0,0,0-1.182-.154,2.619,2.619,0,0,0-.514.048,1.693,1.693,0,0,0-.426.141.783.783,0,0,0-.29.237.546.546,0,0,0-.105.33.609.609,0,0,0,.158.422,1.374,1.374,0,0,0,.413.3,4.078,4.078,0,0,0,.567.229q.312.1.62.207a8.056,8.056,0,0,1,1,.422,3.2,3.2,0,0,1,.769.536,2.105,2.105,0,0,1,.492.721,2.884,2.884,0,0,1-.176,2.351,2.78,2.78,0,0,1-.923.923,4.185,4.185,0,0,1-1.327.519,7.357,7.357,0,0,1-1.56.163A8.042,8.042,0,0,1,106.024,18.763ZM115.94,8.576a1.622,1.622,0,0,1-1.151-.417,1.345,1.345,0,0,1-.448-1.024,1.3,1.3,0,0,1,.448-1.02,1.88,1.88,0,0,1,2.307,0,1.3,1.3,0,0,1,.444,1.02,1.34,1.34,0,0,1-.444,1.037A1.65,1.65,0,0,1,115.94,8.576ZM117.311,19h-2.777V10h2.777Zm9.16-.325a5.492,5.492,0,0,1-2.716.545,4.593,4.593,0,0,1-3.357-1.257,4.341,4.341,0,0,1-1.283-3.243A4.782,4.782,0,0,1,120.49,11.1a5.083,5.083,0,0,1,3.678-1.323,4.72,4.72,0,0,1,2.3.422v2.355a3.166,3.166,0,0,0-1.942-.65,2.559,2.559,0,0,0-1.894.7,2.607,2.607,0,0,0-.7,1.929,2.565,2.565,0,0,0,.668,1.876,2.455,2.455,0,0,0,1.837.681,3.666,3.666,0,0,0,2.03-.65Zm6.11.545a4.838,4.838,0,0,1-3.538-1.261,4.573,4.573,0,0,1-1.288-3.423,4.573,4.573,0,0,1,1.336-3.494A5.048,5.048,0,0,1,132.7,9.78a4.78,4.78,0,0,1,3.516,1.261,4.483,4.483,0,0,1,1.274,3.335,4.759,4.759,0,0,1-1.314,3.542A4.892,4.892,0,0,1,132.581,19.22Zm.07-7.312a1.852,1.852,0,0,0-1.529.677,2.984,2.984,0,0,0-.545,1.916q0,2.593,2.092,2.593,2,0,2-2.663Q134.664,11.907,132.652,11.907Z" transform="translate(724.461 3059.443)" fill="#fff"/>
    <g transform="matrix(1, 0, 0, 1, 343.46, 3031.44)" filter="url(#Trazado_1032562)">
      <g id="Trazado_1032562-2" data-name="Trazado 1032562" transform="translate(9 218.04)" fill="#e6f0cd" stroke-linecap="round">
        <path d="M 198.149169921875 114.8879470825195 L 10.0000057220459 114.8879470825195 C 4.761690139770508 114.8879470825195 0.5000060200691223 110.6262588500977 0.5000060200691223 105.3879470825195 L 0.5000060200691223 9.999996185302734 C 0.5000060200691223 4.761680126190186 4.761690139770508 0.4999960362911224 10.0000057220459 0.4999960362911224 L 198.149169921875 0.4999960362911224 C 203.3874816894531 0.4999960362911224 207.649169921875 4.761680126190186 207.649169921875 9.999996185302734 L 207.649169921875 105.3879470825195 C 207.649169921875 110.6262588500977 203.3874816894531 114.8879470825195 198.149169921875 114.8879470825195 Z" stroke="none"/>
        <path d="M 10 0.9999923706054688 C 5.037399291992188 0.9999923706054688 1 5.037391662597656 1 9.999992370605469 L 1 105.387939453125 C 1 110.3505477905273 5.037399291992188 114.3879470825195 10 114.3879470825195 L 198.149169921875 114.3879470825195 C 203.1117706298828 114.3879470825195 207.149169921875 110.3505477905273 207.149169921875 105.387939453125 L 207.149169921875 9.999992370605469 C 207.149169921875 5.037391662597656 203.1117706298828 0.9999923706054688 198.149169921875 0.9999923706054688 L 10 0.9999923706054688 M 10 -7.62939453125e-06 L 198.149169921875 -7.62939453125e-06 C 203.6720123291016 -7.62939453125e-06 208.149169921875 4.477157592773438 208.149169921875 9.999992370605469 L 208.149169921875 105.387939453125 C 208.149169921875 110.9107818603516 203.6720123291016 115.3879470825195 198.149169921875 115.3879470825195 L 10 115.3879470825195 C 4.477157592773438 115.3879470825195 0 110.9107818603516 0 105.387939453125 L 0 9.999992370605469 C 0 4.477157592773438 4.477157592773438 -7.62939453125e-06 10 -7.62939453125e-06 Z" stroke="none" fill="#496406"/>
      </g>
    </g>
    <path id="Trazado_1032563" data-name="Trazado 1032563" d="M14.819,19H8.139V6.4h6.4V7.732H9.616v4.192h4.553v1.327H9.616v4.412h5.2ZM13.545,2.362l-2.3,2.883H10.126l1.96-2.883ZM24.524,19H23.082V13.867Q23.082,11,20.991,11a2.269,2.269,0,0,0-1.789.813,3.013,3.013,0,0,0-.708,2.052V19H17.053V10h1.441v1.494h.035a3.248,3.248,0,0,1,2.953-1.705,2.753,2.753,0,0,1,2.259.954,4.248,4.248,0,0,1,.782,2.755ZM31.689,6.941a1.92,1.92,0,0,0-.958-.237q-1.512,0-1.512,1.907V10h2.109v1.23H29.219V19H27.786V11.23H26.248V10h1.538V8.541A3.032,3.032,0,0,1,28.6,6.3a2.759,2.759,0,0,1,2.039-.822,2.824,2.824,0,0,1,1.046.158ZM39.319,19H37.878V17.594h-.035a3.018,3.018,0,0,1-2.769,1.617,2.959,2.959,0,0,1-2.1-.712,2.466,2.466,0,0,1-.76-1.89q0-2.522,2.971-2.936l2.7-.378Q37.878,11,36.024,11a4.431,4.431,0,0,0-2.936,1.107V10.633a5.577,5.577,0,0,1,3.059-.844q3.173,0,3.173,3.357Zm-1.441-4.553-2.171.3a3.525,3.525,0,0,0-1.512.5,1.432,1.432,0,0,0-.51,1.261,1.374,1.374,0,0,0,.47,1.077A1.817,1.817,0,0,0,35.408,18a2.314,2.314,0,0,0,1.771-.751,2.685,2.685,0,0,0,.7-1.9Zm3.614,4.228V17.128a4.266,4.266,0,0,0,2.593.87q1.9,0,1.9-1.266a1.1,1.1,0,0,0-.163-.611,1.62,1.62,0,0,0-.439-.444,3.383,3.383,0,0,0-.65-.347q-.374-.154-.8-.321a10.357,10.357,0,0,1-1.05-.479,3.173,3.173,0,0,1-.756-.545,2.028,2.028,0,0,1-.457-.69,2.441,2.441,0,0,1-.154-.905,2.15,2.15,0,0,1,.29-1.121,2.572,2.572,0,0,1,.773-.817,3.607,3.607,0,0,1,1.1-.5,4.893,4.893,0,0,1,1.279-.167,5.164,5.164,0,0,1,2.092.4v1.459A4.077,4.077,0,0,0,44.762,11a2.671,2.671,0,0,0-.729.092,1.786,1.786,0,0,0-.558.259,1.2,1.2,0,0,0-.36.4,1.053,1.053,0,0,0-.127.514,1.233,1.233,0,0,0,.127.589,1.3,1.3,0,0,0,.374.422,2.855,2.855,0,0,0,.6.334q.352.149.8.325a11.131,11.131,0,0,1,1.072.47,3.678,3.678,0,0,1,.809.545,2.129,2.129,0,0,1,.514.7,2.254,2.254,0,0,1,.18.94,2.217,2.217,0,0,1-.294,1.16,2.523,2.523,0,0,1-.787.817,3.6,3.6,0,0,1-1.134.483,5.6,5.6,0,0,1-1.345.158A5.106,5.106,0,0,1,41.492,18.675Zm8.923-10.96a.913.913,0,0,1-.659-.264.89.89,0,0,1-.272-.668.923.923,0,0,1,.932-.94.931.931,0,0,1,.672.268.939.939,0,0,1,0,1.332A.923.923,0,0,1,50.415,7.715ZM51.118,19H49.677V10h1.441Zm2.375-.325V17.128a4.266,4.266,0,0,0,2.593.87q1.9,0,1.9-1.266a1.1,1.1,0,0,0-.163-.611,1.62,1.62,0,0,0-.439-.444,3.383,3.383,0,0,0-.65-.347q-.374-.154-.8-.321a10.357,10.357,0,0,1-1.05-.479,3.173,3.173,0,0,1-.756-.545,2.028,2.028,0,0,1-.457-.69,2.441,2.441,0,0,1-.154-.905,2.15,2.15,0,0,1,.29-1.121,2.572,2.572,0,0,1,.773-.817,3.607,3.607,0,0,1,1.1-.5,4.893,4.893,0,0,1,1.279-.167,5.164,5.164,0,0,1,2.092.4v1.459A4.077,4.077,0,0,0,56.762,11a2.671,2.671,0,0,0-.729.092,1.786,1.786,0,0,0-.558.259,1.2,1.2,0,0,0-.36.4,1.053,1.053,0,0,0-.127.514,1.233,1.233,0,0,0,.127.589,1.3,1.3,0,0,0,.374.422,2.855,2.855,0,0,0,.6.334q.352.149.8.325a11.131,11.131,0,0,1,1.072.47,3.678,3.678,0,0,1,.809.545,2.129,2.129,0,0,1,.514.7,2.254,2.254,0,0,1,.18.94,2.217,2.217,0,0,1-.294,1.16,2.523,2.523,0,0,1-.787.817,3.6,3.6,0,0,1-1.134.483,5.6,5.6,0,0,1-1.345.158A5.106,5.106,0,0,1,53.493,18.675Zm20.35-3.814H67.489a3.366,3.366,0,0,0,.809,2.32A2.788,2.788,0,0,0,70.424,18a4.422,4.422,0,0,0,2.795-1V18.35a5.224,5.224,0,0,1-3.138.861,3.8,3.8,0,0,1-3-1.226,5.018,5.018,0,0,1-1.09-3.45,4.921,4.921,0,0,1,1.191-3.423,3.819,3.819,0,0,1,2.958-1.323,3.384,3.384,0,0,1,2.733,1.143,4.764,4.764,0,0,1,.967,3.173Zm-1.477-1.222a2.933,2.933,0,0,0-.6-1.942A2.051,2.051,0,0,0,70.117,11a2.328,2.328,0,0,0-1.731.729,3.31,3.31,0,0,0-.879,1.907ZM83.5,19H82.054V13.867Q82.054,11,79.962,11a2.269,2.269,0,0,0-1.789.813,3.013,3.013,0,0,0-.708,2.052V19H76.025V10h1.441v1.494H77.5a3.248,3.248,0,0,1,2.953-1.705,2.753,2.753,0,0,1,2.259.954A4.248,4.248,0,0,1,83.5,13.5Zm9.091,0H91.145V5.676h1.441Zm9.362,0h-1.441V17.594h-.035A3.018,3.018,0,0,1,97.7,19.211a2.959,2.959,0,0,1-2.1-.712,2.466,2.466,0,0,1-.76-1.89q0-2.522,2.971-2.936l2.7-.378q0-2.294-1.854-2.294a4.431,4.431,0,0,0-2.936,1.107V10.633a5.577,5.577,0,0,1,3.059-.844q3.173,0,3.173,3.357Zm-1.441-4.553-2.171.3a3.525,3.525,0,0,0-1.512.5,1.432,1.432,0,0,0-.51,1.261,1.374,1.374,0,0,0,.47,1.077A1.817,1.817,0,0,0,98.038,18a2.314,2.314,0,0,0,1.771-.751,2.685,2.685,0,0,0,.7-1.9Zm3.614,4.228V17.128a4.266,4.266,0,0,0,2.593.87q1.9,0,1.9-1.266a1.1,1.1,0,0,0-.163-.611,1.62,1.62,0,0,0-.439-.444,3.383,3.383,0,0,0-.65-.347q-.374-.154-.8-.321a10.357,10.357,0,0,1-1.05-.479,3.173,3.173,0,0,1-.756-.545,2.028,2.028,0,0,1-.457-.69,2.441,2.441,0,0,1-.154-.905,2.15,2.15,0,0,1,.29-1.121,2.572,2.572,0,0,1,.773-.817,3.607,3.607,0,0,1,1.1-.5,4.893,4.893,0,0,1,1.279-.167,5.164,5.164,0,0,1,2.092.4v1.459a4.077,4.077,0,0,0-2.285-.65,2.671,2.671,0,0,0-.729.092,1.786,1.786,0,0,0-.558.259,1.2,1.2,0,0,0-.36.4,1.053,1.053,0,0,0-.127.514,1.233,1.233,0,0,0,.127.589,1.3,1.3,0,0,0,.374.422,2.855,2.855,0,0,0,.6.334q.352.149.8.325a11.131,11.131,0,0,1,1.072.47,3.678,3.678,0,0,1,.809.545,2.129,2.129,0,0,1,.514.7,2.254,2.254,0,0,1,.18.94,2.217,2.217,0,0,1-.294,1.16,2.523,2.523,0,0,1-.787.817,3.6,3.6,0,0,1-1.134.483,5.6,5.6,0,0,1-1.345.158A5.106,5.106,0,0,1,104.122,18.675Zm17.292.237a2.779,2.779,0,0,1-1.345.281q-2.364,0-2.364-2.637V11.23h-1.547V10H117.7V7.8l1.441-.466V10h2.268v1.23h-2.268V16.3a2.1,2.1,0,0,0,.308,1.292,1.228,1.228,0,0,0,1.02.387,1.515,1.515,0,0,0,.94-.3Zm8.369.088h-1.441V17.594h-.035a3.018,3.018,0,0,1-2.769,1.617,2.959,2.959,0,0,1-2.1-.712,2.466,2.466,0,0,1-.76-1.89q0-2.522,2.971-2.936l2.7-.378q0-2.294-1.854-2.294a4.431,4.431,0,0,0-2.936,1.107V10.633a5.577,5.577,0,0,1,3.059-.844q3.173,0,3.173,3.357Zm-1.441-4.553-2.171.3a3.525,3.525,0,0,0-1.512.5,1.432,1.432,0,0,0-.51,1.261,1.374,1.374,0,0,0,.47,1.077,1.817,1.817,0,0,0,1.252.417,2.314,2.314,0,0,0,1.771-.751,2.685,2.685,0,0,0,.7-1.9Zm8.852-2.988a1.763,1.763,0,0,0-1.09-.29,1.839,1.839,0,0,0-1.542.87,4.023,4.023,0,0,0-.62,2.373V19H132.5V10h1.441v1.854h.035a3.143,3.143,0,0,1,.94-1.481,2.144,2.144,0,0,1,1.415-.532,2.353,2.353,0,0,1,.861.123Zm8.8,3.4h-6.354a3.366,3.366,0,0,0,.809,2.32,2.788,2.788,0,0,0,2.127.817,4.422,4.422,0,0,0,2.795-1V18.35a5.224,5.224,0,0,1-3.138.861,3.8,3.8,0,0,1-3-1.226,5.018,5.018,0,0,1-1.09-3.45,4.921,4.921,0,0,1,1.191-3.423,3.819,3.819,0,0,1,2.958-1.323,3.384,3.384,0,0,1,2.733,1.143,4.764,4.764,0,0,1,.967,3.173Zm-1.477-1.222a2.933,2.933,0,0,0-.6-1.942A2.051,2.051,0,0,0,142.266,11a2.328,2.328,0,0,0-1.731.729,3.31,3.31,0,0,0-.879,1.907ZM154.617,19h-1.441V17.594h-.035a3.018,3.018,0,0,1-2.769,1.617,2.959,2.959,0,0,1-2.1-.712,2.466,2.466,0,0,1-.76-1.89q0-2.522,2.971-2.936l2.7-.378q0-2.294-1.854-2.294a4.431,4.431,0,0,0-2.936,1.107V10.633a5.577,5.577,0,0,1,3.059-.844q3.173,0,3.173,3.357Zm-1.441-4.553-2.171.3a3.525,3.525,0,0,0-1.512.5,1.432,1.432,0,0,0-.51,1.261,1.374,1.374,0,0,0,.47,1.077,1.817,1.817,0,0,0,1.252.417,2.314,2.314,0,0,0,1.771-.751,2.685,2.685,0,0,0,.7-1.9Zm3.614,4.228V17.128a4.266,4.266,0,0,0,2.593.87q1.9,0,1.9-1.266a1.1,1.1,0,0,0-.163-.611,1.62,1.62,0,0,0-.439-.444,3.383,3.383,0,0,0-.65-.347q-.374-.154-.8-.321a10.357,10.357,0,0,1-1.05-.479,3.173,3.173,0,0,1-.756-.545,2.028,2.028,0,0,1-.457-.69,2.441,2.441,0,0,1-.154-.905,2.15,2.15,0,0,1,.29-1.121,2.572,2.572,0,0,1,.773-.817,3.607,3.607,0,0,1,1.1-.5,4.893,4.893,0,0,1,1.279-.167,5.164,5.164,0,0,1,2.092.4v1.459a4.077,4.077,0,0,0-2.285-.65,2.671,2.671,0,0,0-.729.092,1.786,1.786,0,0,0-.558.259,1.2,1.2,0,0,0-.36.4,1.053,1.053,0,0,0-.127.514,1.233,1.233,0,0,0,.127.589,1.3,1.3,0,0,0,.374.422,2.855,2.855,0,0,0,.6.334q.352.149.8.325a11.131,11.131,0,0,1,1.072.47,3.678,3.678,0,0,1,.809.545,2.129,2.129,0,0,1,.514.7,2.254,2.254,0,0,1,.18.94,2.217,2.217,0,0,1-.294,1.16,2.523,2.523,0,0,1-.787.817,3.6,3.6,0,0,1-1.134.483,5.6,5.6,0,0,1-1.345.158A5.106,5.106,0,0,1,156.789,18.675ZM24.147,37l-4.14,10.441Q18.9,50.236,16.9,50.236a3.3,3.3,0,0,1-.94-.114V48.83a2.672,2.672,0,0,0,.853.158,1.767,1.767,0,0,0,1.635-1.3l.721-1.705L15.648,37h1.6l2.435,6.926q.044.132.185.686h.053q.044-.211.176-.668L22.653,37Zm13.715,4.86H31.507a3.366,3.366,0,0,0,.809,2.32A2.788,2.788,0,0,0,34.442,45a4.422,4.422,0,0,0,2.795-1V45.35a5.224,5.224,0,0,1-3.138.861,3.8,3.8,0,0,1-3-1.226,5.018,5.018,0,0,1-1.09-3.45A4.921,4.921,0,0,1,31.2,38.112a3.819,3.819,0,0,1,2.958-1.323,3.384,3.384,0,0,1,2.733,1.143,4.764,4.764,0,0,1,.967,3.173Zm-1.477-1.222a2.933,2.933,0,0,0-.6-1.942A2.051,2.051,0,0,0,34.135,38a2.328,2.328,0,0,0-1.731.729,3.31,3.31,0,0,0-.879,1.907ZM47.514,46H46.072V40.867Q46.072,38,43.98,38a2.269,2.269,0,0,0-1.789.813,3.013,3.013,0,0,0-.708,2.052V46H40.043V37h1.441v1.494h.035a3.248,3.248,0,0,1,2.953-1.705,2.753,2.753,0,0,1,2.259.954,4.248,4.248,0,0,1,.782,2.755ZM62.4,41.86H56.043a3.366,3.366,0,0,0,.809,2.32A2.788,2.788,0,0,0,58.978,45a4.422,4.422,0,0,0,2.795-1V45.35a5.224,5.224,0,0,1-3.138.861,3.8,3.8,0,0,1-3-1.226,5.018,5.018,0,0,1-1.09-3.45,4.921,4.921,0,0,1,1.191-3.423A3.819,3.819,0,0,1,58.7,36.789a3.384,3.384,0,0,1,2.733,1.143A4.764,4.764,0,0,1,62.4,41.1ZM60.92,40.639a2.933,2.933,0,0,0-.6-1.942A2.051,2.051,0,0,0,58.67,38a2.328,2.328,0,0,0-1.731.729,3.31,3.31,0,0,0-.879,1.907ZM66.02,46H64.579V32.676H66.02Zm15.534,0H80.112V44.471h-.035a3.327,3.327,0,0,1-3.094,1.74A3.362,3.362,0,0,1,74.272,45a4.958,4.958,0,0,1-1.015-3.292,5.394,5.394,0,0,1,1.125-3.577,3.71,3.71,0,0,1,3-1.345,2.885,2.885,0,0,1,2.7,1.459h.035V32.676h1.441Zm-1.441-4.069V40.6a2.575,2.575,0,0,0-.721-1.846A2.417,2.417,0,0,0,77.564,38a2.489,2.489,0,0,0-2.074.967,4.237,4.237,0,0,0-.756,2.672,3.81,3.81,0,0,0,.725,2.457,2.37,2.37,0,0,0,1.947.9,2.462,2.462,0,0,0,1.956-.87A3.242,3.242,0,0,0,80.112,41.931Zm5.1-7.216a.913.913,0,0,1-.659-.264.89.89,0,0,1-.272-.668.923.923,0,0,1,.932-.94.931.931,0,0,1,.672.268.939.939,0,0,1,0,1.332A.923.923,0,0,1,85.212,34.715ZM85.915,46H84.474V37h1.441Zm2.375-.325V44.128a4.266,4.266,0,0,0,2.593.87q1.9,0,1.9-1.266a1.1,1.1,0,0,0-.163-.611,1.62,1.62,0,0,0-.439-.444,3.383,3.383,0,0,0-.65-.347q-.374-.154-.8-.321a10.357,10.357,0,0,1-1.05-.479,3.173,3.173,0,0,1-.756-.545,2.028,2.028,0,0,1-.457-.69,2.441,2.441,0,0,1-.154-.905,2.15,2.15,0,0,1,.29-1.121,2.572,2.572,0,0,1,.773-.817,3.607,3.607,0,0,1,1.1-.5,4.893,4.893,0,0,1,1.279-.167,5.164,5.164,0,0,1,2.092.4v1.459A4.077,4.077,0,0,0,91.559,38a2.671,2.671,0,0,0-.729.092,1.786,1.786,0,0,0-.558.259,1.2,1.2,0,0,0-.36.4,1.053,1.053,0,0,0-.127.514,1.233,1.233,0,0,0,.127.589,1.3,1.3,0,0,0,.374.422,2.855,2.855,0,0,0,.6.334q.352.149.8.325a11.131,11.131,0,0,1,1.072.47,3.678,3.678,0,0,1,.809.545,2.129,2.129,0,0,1,.514.7,2.254,2.254,0,0,1,.18.94,2.217,2.217,0,0,1-.294,1.16,2.523,2.523,0,0,1-.787.817,3.6,3.6,0,0,1-1.134.483,5.6,5.6,0,0,1-1.345.158A5.106,5.106,0,0,1,88.29,45.675Zm15.418-3.814H97.353a3.366,3.366,0,0,0,.809,2.32,2.788,2.788,0,0,0,2.127.817,4.422,4.422,0,0,0,2.795-1V45.35a5.224,5.224,0,0,1-3.138.861,3.8,3.8,0,0,1-3-1.226,5.018,5.018,0,0,1-1.09-3.45,4.921,4.921,0,0,1,1.191-3.423,3.819,3.819,0,0,1,2.958-1.323,3.384,3.384,0,0,1,2.733,1.143,4.764,4.764,0,0,1,.967,3.173Zm-1.477-1.222a2.933,2.933,0,0,0-.6-1.942A2.051,2.051,0,0,0,99.981,38a2.328,2.328,0,0,0-1.731.729,3.31,3.31,0,0,0-.879,1.907ZM113.36,46h-1.441V40.867q0-2.865-2.092-2.865a2.269,2.269,0,0,0-1.789.813,3.013,3.013,0,0,0-.708,2.052V46h-1.441V37h1.441v1.494h.035a3.248,3.248,0,0,1,2.953-1.705,2.753,2.753,0,0,1,2.259.954,4.248,4.248,0,0,1,.782,2.755Zm-.949-12.814a2.514,2.514,0,0,1-.422,1.507,1.337,1.337,0,0,1-1.143.584,2.949,2.949,0,0,1-1.424-.457,2.411,2.411,0,0,0-1.046-.378q-.773,0-.773.993h-.826a2.466,2.466,0,0,1,.422-1.507,1.384,1.384,0,0,1,1.178-.567,2.572,2.572,0,0,1,1.31.457,2.3,2.3,0,0,0,1.125.387q.738,0,.738-1.02Zm7.429,13.025a4.175,4.175,0,0,1-3.186-1.261,4.672,4.672,0,0,1-1.191-3.344,4.867,4.867,0,0,1,1.239-3.542,4.455,4.455,0,0,1,3.349-1.274,4.037,4.037,0,0,1,3.142,1.239,4.914,4.914,0,0,1,1.129,3.437,4.835,4.835,0,0,1-1.217,3.45A4.265,4.265,0,0,1,119.839,46.211ZM119.945,38a2.742,2.742,0,0,0-2.2.945,3.88,3.88,0,0,0-.809,2.606,3.67,3.67,0,0,0,.817,2.522,2.778,2.778,0,0,0,2.188.923,2.635,2.635,0,0,0,2.149-.905,3.928,3.928,0,0,0,.751-2.575,4,4,0,0,0-.751-2.6A2.623,2.623,0,0,0,119.945,38Zm19.3,8H137.8V44.471h-.035a3.327,3.327,0,0,1-3.094,1.74A3.362,3.362,0,0,1,131.958,45a4.958,4.958,0,0,1-1.015-3.292,5.394,5.394,0,0,1,1.125-3.577,3.71,3.71,0,0,1,3-1.345,2.885,2.885,0,0,1,2.7,1.459h.035V32.676h1.441ZM137.8,41.931V40.6a2.575,2.575,0,0,0-.721-1.846A2.417,2.417,0,0,0,135.25,38a2.489,2.489,0,0,0-2.074.967,4.237,4.237,0,0,0-.756,2.672,3.81,3.81,0,0,0,.725,2.457,2.37,2.37,0,0,0,1.947.9,2.462,2.462,0,0,0,1.956-.87A3.242,3.242,0,0,0,137.8,41.931Zm11.595-.07h-6.354a3.366,3.366,0,0,0,.809,2.32,2.788,2.788,0,0,0,2.127.817,4.422,4.422,0,0,0,2.795-1V45.35a5.224,5.224,0,0,1-3.138.861,3.8,3.8,0,0,1-3-1.226,5.018,5.018,0,0,1-1.09-3.45,4.921,4.921,0,0,1,1.191-3.423,3.819,3.819,0,0,1,2.958-1.323,3.384,3.384,0,0,1,2.733,1.143,4.764,4.764,0,0,1,.967,3.173Zm-1.477-1.222a2.933,2.933,0,0,0-.6-1.942A2.051,2.051,0,0,0,145.667,38a2.328,2.328,0,0,0-1.731.729,3.31,3.31,0,0,0-.879,1.907Zm5.1,5.361h-1.441V32.676h1.441ZM60.6,72.912a2.779,2.779,0,0,1-1.345.281q-2.364,0-2.364-2.637V65.23H55.339V64h1.547V61.8l1.441-.466V64H60.6v1.23H58.328V70.3a2.1,2.1,0,0,0,.308,1.292,1.228,1.228,0,0,0,1.02.387,1.515,1.515,0,0,0,.94-.3Zm6.62-7.453a1.763,1.763,0,0,0-1.09-.29,1.839,1.839,0,0,0-1.542.87,4.023,4.023,0,0,0-.62,2.373V73H62.522V64h1.441v1.854H64a3.143,3.143,0,0,1,.94-1.481,2.144,2.144,0,0,1,1.415-.532,2.353,2.353,0,0,1,.861.123ZM75.224,73H73.782V71.594h-.035a3.018,3.018,0,0,1-2.769,1.617,2.959,2.959,0,0,1-2.1-.712,2.466,2.466,0,0,1-.76-1.89q0-2.522,2.971-2.936l2.7-.378Q73.782,65,71.928,65a4.431,4.431,0,0,0-2.936,1.107V64.633a5.577,5.577,0,0,1,3.059-.844q3.173,0,3.173,3.357Zm-1.441-4.553-2.171.3a3.525,3.525,0,0,0-1.512.5,1.432,1.432,0,0,0-.51,1.261,1.374,1.374,0,0,0,.47,1.077A1.817,1.817,0,0,0,71.313,72a2.314,2.314,0,0,0,1.771-.751,2.685,2.685,0,0,0,.7-1.9ZM79.418,71.7h-.035V73H77.941V59.676h1.441v5.906h.035a3.408,3.408,0,0,1,3.111-1.793A3.3,3.3,0,0,1,85.241,65a4.99,4.99,0,0,1,.98,3.239,5.578,5.578,0,0,1-1.1,3.617,3.658,3.658,0,0,1-3.006,1.358A2.96,2.96,0,0,1,79.418,71.7Zm-.035-3.63v1.257a2.676,2.676,0,0,0,.725,1.894A2.587,2.587,0,0,0,84,71a4.6,4.6,0,0,0,.743-2.786,3.629,3.629,0,0,0-.694-2.355A2.3,2.3,0,0,0,82.169,65a2.554,2.554,0,0,0-2.021.875A3.211,3.211,0,0,0,79.383,68.069ZM94.968,73H93.526V71.594h-.035a3.018,3.018,0,0,1-2.769,1.617,2.959,2.959,0,0,1-2.1-.712,2.466,2.466,0,0,1-.76-1.89q0-2.522,2.971-2.936l2.7-.378Q93.526,65,91.672,65a4.431,4.431,0,0,0-2.936,1.107V64.633a5.577,5.577,0,0,1,3.059-.844q3.173,0,3.173,3.357Zm-1.441-4.553-2.171.3a3.525,3.525,0,0,0-1.512.5,1.432,1.432,0,0,0-.51,1.261,1.374,1.374,0,0,0,.47,1.077A1.817,1.817,0,0,0,91.057,72a2.314,2.314,0,0,0,1.771-.751,2.685,2.685,0,0,0,.7-1.9Zm5.6,4.175a5.641,5.641,0,0,1-.892,3.415,2.99,2.99,0,0,1-2.553,1.2,2.71,2.71,0,0,1-1.2-.281V75.61a2.385,2.385,0,0,0,1.23.4q1.969,0,1.969-3.146V64h1.441Zm-.7-10.907a.913.913,0,0,1-.659-.264.89.89,0,0,1-.272-.668.923.923,0,0,1,.932-.94.931.931,0,0,1,.672.268.939.939,0,0,1,0,1.332A.923.923,0,0,1,98.424,61.715Zm7.385,11.5a4.175,4.175,0,0,1-3.186-1.261,4.672,4.672,0,0,1-1.191-3.344,4.867,4.867,0,0,1,1.239-3.542,4.455,4.455,0,0,1,3.349-1.274,4.037,4.037,0,0,1,3.142,1.239,4.914,4.914,0,0,1,1.129,3.437,4.835,4.835,0,0,1-1.217,3.45A4.265,4.265,0,0,1,105.808,73.211ZM105.914,65a2.742,2.742,0,0,0-2.2.945,3.88,3.88,0,0,0-.809,2.606,3.67,3.67,0,0,0,.817,2.522,2.778,2.778,0,0,0,2.188.923,2.635,2.635,0,0,0,2.149-.905,3.928,3.928,0,0,0,.751-2.575,4,4,0,0,0-.751-2.6A2.623,2.623,0,0,0,105.914,65Zm7.182,8.191a.933.933,0,0,1-.69-.29.955.955,0,0,1-.286-.694.969.969,0,0,1,.286-.7.926.926,0,0,1,.69-.294.95.95,0,0,1,.7.294.962.962,0,0,1,.29.7.947.947,0,0,1-.29.694A.958.958,0,0,1,113.1,73.193Z" transform="translate(371.461 3268.486)" fill="#0b0a0a"/>
    <g transform="matrix(1, 0, 0, 1, 343.46, 3031.44)" filter="url(#Trazado_1032564)">
      <g id="Trazado_1032564-2" data-name="Trazado 1032564" transform="translate(230.39 218.04)" fill="#e6f0cd" stroke-linecap="round">
        <path d="M 198.149169921875 114.8879470825195 L 10.0000057220459 114.8879470825195 C 4.761690139770508 114.8879470825195 0.5000060200691223 110.6262588500977 0.5000060200691223 105.3879470825195 L 0.5000060200691223 9.999996185302734 C 0.5000060200691223 4.761680126190186 4.761690139770508 0.4999960362911224 10.0000057220459 0.4999960362911224 L 198.149169921875 0.4999960362911224 C 203.3874816894531 0.4999960362911224 207.649169921875 4.761680126190186 207.649169921875 9.999996185302734 L 207.649169921875 105.3879470825195 C 207.649169921875 110.6262588500977 203.3874816894531 114.8879470825195 198.149169921875 114.8879470825195 Z" stroke="none"/>
        <path d="M 10 0.9999923706054688 C 5.037399291992188 0.9999923706054688 1 5.037391662597656 1 9.999992370605469 L 1 105.387939453125 C 1 110.3505477905273 5.037399291992188 114.3879470825195 10 114.3879470825195 L 198.149169921875 114.3879470825195 C 203.1117706298828 114.3879470825195 207.149169921875 110.3505477905273 207.149169921875 105.387939453125 L 207.149169921875 9.999992370605469 C 207.149169921875 5.037391662597656 203.1117706298828 0.9999923706054688 198.149169921875 0.9999923706054688 L 10 0.9999923706054688 M 10 -7.62939453125e-06 L 198.149169921875 -7.62939453125e-06 C 203.6720123291016 -7.62939453125e-06 208.149169921875 4.477157592773438 208.149169921875 9.999992370605469 L 208.149169921875 105.387939453125 C 208.149169921875 110.9107818603516 203.6720123291016 115.3879470825195 198.149169921875 115.3879470825195 L 10 115.3879470825195 C 4.477157592773438 115.3879470825195 0 110.9107818603516 0 105.387939453125 L 0 9.999992370605469 C 0 4.477157592773438 4.477157592773438 -7.62939453125e-06 10 -7.62939453125e-06 Z" stroke="none" fill="#496406"/>
      </g>
    </g>
    <path id="Trazado_1032565" data-name="Trazado 1032565" d="M14.517,14.236V19H13.041V6.4H16.5a4.571,4.571,0,0,1,3.133.984,3.515,3.515,0,0,1,1.112,2.777,3.82,3.82,0,0,1-1.235,2.936,4.718,4.718,0,0,1-3.335,1.143Zm0-6.5V12.9h1.547a3.458,3.458,0,0,0,2.333-.7,2.474,2.474,0,0,0,.8-1.973q0-2.5-2.953-2.5Zm13.106,3.727a1.763,1.763,0,0,0-1.09-.29,1.839,1.839,0,0,0-1.542.87,4.023,4.023,0,0,0-.62,2.373V19H22.93V10h1.441v1.854h.035a3.143,3.143,0,0,1,.94-1.481,2.144,2.144,0,0,1,1.415-.532,2.353,2.353,0,0,1,.861.123Zm8.8,3.4H30.069a3.366,3.366,0,0,0,.809,2.32A2.788,2.788,0,0,0,33,18,4.422,4.422,0,0,0,35.8,17V18.35a5.224,5.224,0,0,1-3.138.861,3.8,3.8,0,0,1-3-1.226,5.018,5.018,0,0,1-1.09-3.45,4.921,4.921,0,0,1,1.191-3.423,3.819,3.819,0,0,1,2.958-1.323,3.384,3.384,0,0,1,2.733,1.143,4.764,4.764,0,0,1,.967,3.173Zm-1.477-1.222a2.933,2.933,0,0,0-.6-1.942A2.051,2.051,0,0,0,32.7,11a2.328,2.328,0,0,0-1.731.729,3.31,3.31,0,0,0-.879,1.907Zm9.793,4.948a4.684,4.684,0,0,1-2.461.624,4.074,4.074,0,0,1-3.107-1.252,4.539,4.539,0,0,1-1.182-3.248,4.99,4.99,0,0,1,1.274-3.573,4.458,4.458,0,0,1,3.4-1.349,4.735,4.735,0,0,1,2.092.439v1.477a3.665,3.665,0,0,0-2.145-.7,2.9,2.9,0,0,0-2.263.989,3.752,3.752,0,0,0-.883,2.6,3.573,3.573,0,0,0,.831,2.5A2.863,2.863,0,0,0,42.525,18a3.613,3.613,0,0,0,2.215-.782ZM54.2,19H52.757V17.576h-.035a2.96,2.96,0,0,1-2.777,1.635q-3.217,0-3.217-3.832V10H48.16v5.15Q48.16,18,50.34,18a2.205,2.205,0,0,0,1.736-.778,2.976,2.976,0,0,0,.681-2.035V10H54.2Zm7.6-7.541a1.763,1.763,0,0,0-1.09-.29,1.839,1.839,0,0,0-1.542.87,4.023,4.023,0,0,0-.62,2.373V19H57.11V10h1.441v1.854h.035a3.143,3.143,0,0,1,.94-1.481,2.144,2.144,0,0,1,1.415-.532,2.353,2.353,0,0,1,.861.123Zm1.021,7.216V17.128a4.266,4.266,0,0,0,2.593.87q1.9,0,1.9-1.266a1.1,1.1,0,0,0-.163-.611,1.62,1.62,0,0,0-.439-.444,3.383,3.383,0,0,0-.65-.347q-.374-.154-.8-.321a10.357,10.357,0,0,1-1.05-.479,3.173,3.173,0,0,1-.756-.545A2.028,2.028,0,0,1,63,13.3a2.441,2.441,0,0,1-.154-.905,2.15,2.15,0,0,1,.29-1.121,2.572,2.572,0,0,1,.773-.817,3.607,3.607,0,0,1,1.1-.5,4.893,4.893,0,0,1,1.279-.167,5.164,5.164,0,0,1,2.092.4v1.459A4.077,4.077,0,0,0,66.094,11a2.671,2.671,0,0,0-.729.092,1.786,1.786,0,0,0-.558.259,1.2,1.2,0,0,0-.36.4,1.053,1.053,0,0,0-.127.514,1.233,1.233,0,0,0,.127.589,1.3,1.3,0,0,0,.374.422,2.855,2.855,0,0,0,.6.334q.352.149.8.325a11.131,11.131,0,0,1,1.072.47,3.678,3.678,0,0,1,.809.545,2.129,2.129,0,0,1,.514.7,2.254,2.254,0,0,1,.18.94,2.217,2.217,0,0,1-.294,1.16,2.523,2.523,0,0,1-.787.817,3.6,3.6,0,0,1-1.134.483,5.6,5.6,0,0,1-1.345.158A5.106,5.106,0,0,1,62.824,18.675Zm11.946.536a4.175,4.175,0,0,1-3.186-1.261,4.672,4.672,0,0,1-1.191-3.344,4.867,4.867,0,0,1,1.239-3.542,4.455,4.455,0,0,1,3.349-1.274,4.037,4.037,0,0,1,3.142,1.239,4.914,4.914,0,0,1,1.129,3.437,4.835,4.835,0,0,1-1.217,3.45A4.265,4.265,0,0,1,74.77,19.211ZM74.876,11a2.742,2.742,0,0,0-2.2.945,3.88,3.88,0,0,0-.809,2.606,3.67,3.67,0,0,0,.817,2.522A2.778,2.778,0,0,0,74.876,18a2.635,2.635,0,0,0,2.149-.905,3.928,3.928,0,0,0,.751-2.575,4,4,0,0,0-.751-2.6A2.623,2.623,0,0,0,74.876,11Zm11.375.457a1.763,1.763,0,0,0-1.09-.29,1.839,1.839,0,0,0-1.542.87A4.023,4.023,0,0,0,83,14.412V19H81.557V10H83v1.854h.035a3.143,3.143,0,0,1,.94-1.481,2.144,2.144,0,0,1,1.415-.532,2.353,2.353,0,0,1,.861.123Zm2.067.3a.933.933,0,0,1-.69-.29.955.955,0,0,1-.286-.694.926.926,0,0,1,.286-.686.948.948,0,0,1,.69-.281.973.973,0,0,1,.7.281.919.919,0,0,1,.29.686.947.947,0,0,1-.29.694A.958.958,0,0,1,88.318,11.758Zm0,7.436a.933.933,0,0,1-.69-.29.955.955,0,0,1-.286-.694.969.969,0,0,1,.286-.7.926.926,0,0,1,.69-.294.95.95,0,0,1,.7.294.962.962,0,0,1,.29.7.947.947,0,0,1-.29.694A.958.958,0,0,1,88.318,19.193ZM103.245,7.732H98.323v4.359h4.553v1.327H98.323V19H96.847V6.4h6.4Zm6.892,3.727a1.763,1.763,0,0,0-1.09-.29,1.839,1.839,0,0,0-1.542.87,4.023,4.023,0,0,0-.62,2.373V19h-1.441V10h1.441v1.854h.035a3.143,3.143,0,0,1,.94-1.481,2.144,2.144,0,0,1,1.415-.532,2.353,2.353,0,0,1,.861.123Zm8.8,3.4h-6.354a3.366,3.366,0,0,0,.809,2.32,2.788,2.788,0,0,0,2.127.817,4.422,4.422,0,0,0,2.795-1V18.35a5.224,5.224,0,0,1-3.138.861,3.8,3.8,0,0,1-3-1.226,5.018,5.018,0,0,1-1.09-3.45,4.921,4.921,0,0,1,1.191-3.423,3.819,3.819,0,0,1,2.958-1.323,3.384,3.384,0,0,1,2.733,1.143,4.764,4.764,0,0,1,.967,3.173Zm-1.477-1.222a2.933,2.933,0,0,0-.6-1.942A2.051,2.051,0,0,0,115.211,11a2.328,2.328,0,0,0-1.731.729,3.31,3.31,0,0,0-.879,1.907ZM128.8,19h-1.441V17.471h-.035a3.327,3.327,0,0,1-3.094,1.74A3.362,3.362,0,0,1,121.519,18a4.958,4.958,0,0,1-1.015-3.292,5.394,5.394,0,0,1,1.125-3.577,3.71,3.71,0,0,1,3-1.345,2.885,2.885,0,0,1,2.7,1.459h.035V5.676H128.8Zm-1.441-4.069V13.6a2.575,2.575,0,0,0-.721-1.846A2.417,2.417,0,0,0,124.81,11a2.489,2.489,0,0,0-2.074.967,4.237,4.237,0,0,0-.756,2.672,3.81,3.81,0,0,0,.725,2.457,2.37,2.37,0,0,0,1.947.9,2.462,2.462,0,0,0,1.956-.87A3.242,3.242,0,0,0,127.359,14.931Zm11.595-.07H132.6a3.366,3.366,0,0,0,.809,2.32,2.788,2.788,0,0,0,2.127.817,4.422,4.422,0,0,0,2.795-1V18.35a5.224,5.224,0,0,1-3.138.861,3.8,3.8,0,0,1-3-1.226,5.018,5.018,0,0,1-1.09-3.45,4.921,4.921,0,0,1,1.191-3.423,3.819,3.819,0,0,1,2.958-1.323,3.384,3.384,0,0,1,2.733,1.143,4.764,4.764,0,0,1,.967,3.173Zm-1.477-1.222a2.933,2.933,0,0,0-.6-1.942A2.051,2.051,0,0,0,135.227,11a2.328,2.328,0,0,0-1.731.729,3.31,3.31,0,0,0-.879,1.907Zm8.351-2.18a1.763,1.763,0,0,0-1.09-.29,1.839,1.839,0,0,0-1.542.87,4.023,4.023,0,0,0-.62,2.373V19h-1.441V10h1.441v1.854h.035a3.143,3.143,0,0,1,.94-1.481,2.144,2.144,0,0,1,1.415-.532,2.353,2.353,0,0,1,.861.123Zm2.3-3.744a.913.913,0,0,1-.659-.264.89.89,0,0,1-.272-.668.923.923,0,0,1,.932-.94.931.931,0,0,1,.672.268.939.939,0,0,1,0,1.332A.923.923,0,0,1,148.133,7.715Zm.7,11.285h-1.441V10h1.441Zm9.055-.413a4.684,4.684,0,0,1-2.461.624,4.074,4.074,0,0,1-3.107-1.252,4.539,4.539,0,0,1-1.182-3.248,4.99,4.99,0,0,1,1.274-3.573,4.458,4.458,0,0,1,3.4-1.349,4.735,4.735,0,0,1,2.092.439v1.477a3.665,3.665,0,0,0-2.145-.7,2.9,2.9,0,0,0-2.263.989,3.752,3.752,0,0,0-.883,2.6,3.573,3.573,0,0,0,.831,2.5,2.863,2.863,0,0,0,2.228.914,3.613,3.613,0,0,0,2.215-.782ZM66.058,34.732H62.419V46H60.942V34.732h-3.63V33.4h8.745ZM72.265,46H70.823V44.594h-.035a3.018,3.018,0,0,1-2.769,1.617,2.959,2.959,0,0,1-2.1-.712,2.466,2.466,0,0,1-.76-1.89q0-2.522,2.971-2.936l2.7-.378Q70.823,38,68.969,38a4.431,4.431,0,0,0-2.936,1.107V37.633a5.577,5.577,0,0,1,3.059-.844q3.173,0,3.173,3.357Zm-1.441-4.553-2.171.3a3.525,3.525,0,0,0-1.512.5,1.432,1.432,0,0,0-.51,1.261,1.374,1.374,0,0,0,.47,1.077A1.817,1.817,0,0,0,68.353,45a2.314,2.314,0,0,0,1.771-.751,2.685,2.685,0,0,0,.7-1.9ZM82.145,37l-4.14,10.441q-1.107,2.795-3.111,2.795a3.3,3.3,0,0,1-.94-.114V48.83a2.672,2.672,0,0,0,.853.158,1.767,1.767,0,0,0,1.635-1.3l.721-1.705L73.646,37h1.6l2.435,6.926q.044.132.185.686h.053q.044-.211.176-.668L80.651,37Zm2.99,9H83.694V32.676h1.441ZM89.5,46H88.055V32.676H89.5Zm6.681.211a4.175,4.175,0,0,1-3.186-1.261A4.672,4.672,0,0,1,91.8,41.605a4.867,4.867,0,0,1,1.239-3.542,4.455,4.455,0,0,1,3.349-1.274,4.037,4.037,0,0,1,3.142,1.239,4.914,4.914,0,0,1,1.129,3.437,4.835,4.835,0,0,1-1.217,3.45A4.265,4.265,0,0,1,96.178,46.211ZM96.283,38a2.742,2.742,0,0,0-2.2.945,3.88,3.88,0,0,0-.809,2.606,3.67,3.67,0,0,0,.817,2.522A2.778,2.778,0,0,0,96.283,45a2.635,2.635,0,0,0,2.149-.905,3.928,3.928,0,0,0,.751-2.575,4,4,0,0,0-.751-2.6A2.623,2.623,0,0,0,96.283,38Zm6.137,7.673V44.128a4.266,4.266,0,0,0,2.593.87q1.9,0,1.9-1.266a1.1,1.1,0,0,0-.163-.611,1.62,1.62,0,0,0-.439-.444,3.383,3.383,0,0,0-.65-.347q-.374-.154-.8-.321a10.357,10.357,0,0,1-1.05-.479,3.173,3.173,0,0,1-.756-.545,2.028,2.028,0,0,1-.457-.69,2.441,2.441,0,0,1-.154-.905,2.15,2.15,0,0,1,.29-1.121,2.572,2.572,0,0,1,.773-.817,3.607,3.607,0,0,1,1.1-.5,4.893,4.893,0,0,1,1.279-.167,5.164,5.164,0,0,1,2.092.4v1.459A4.077,4.077,0,0,0,105.69,38a2.671,2.671,0,0,0-.729.092,1.786,1.786,0,0,0-.558.259,1.2,1.2,0,0,0-.36.4,1.053,1.053,0,0,0-.127.514,1.233,1.233,0,0,0,.127.589,1.3,1.3,0,0,0,.374.422,2.855,2.855,0,0,0,.6.334q.352.149.8.325a11.131,11.131,0,0,1,1.072.47,3.678,3.678,0,0,1,.809.545,2.129,2.129,0,0,1,.514.7,2.254,2.254,0,0,1,.18.94,2.217,2.217,0,0,1-.294,1.16,2.523,2.523,0,0,1-.787.817,3.6,3.6,0,0,1-1.134.483,5.6,5.6,0,0,1-1.345.158A5.106,5.106,0,0,1,102.42,45.675Zm8.685.519a.933.933,0,0,1-.69-.29.955.955,0,0,1-.286-.694.969.969,0,0,1,.286-.7.926.926,0,0,1,.69-.294.95.95,0,0,1,.7.294.962.962,0,0,1,.29.7.947.947,0,0,1-.29.694A.958.958,0,0,1,111.105,46.193Z" transform="translate(592.851 3282.486)" fill="#0b0a0a"/>
    <g transform="matrix(1, 0, 0, 1, 343.46, 3031.44)" filter="url(#Trazado_1032566)">
      <g id="Trazado_1032566-2" data-name="Trazado 1032566" transform="translate(451.78 218.04)" fill="#e6f0cd" stroke-linecap="round">
        <path d="M 198.149169921875 114.8879470825195 L 10.0000057220459 114.8879470825195 C 4.761690139770508 114.8879470825195 0.5000060200691223 110.6262588500977 0.5000060200691223 105.3879470825195 L 0.5000060200691223 9.999996185302734 C 0.5000060200691223 4.761680126190186 4.761690139770508 0.4999960362911224 10.0000057220459 0.4999960362911224 L 198.149169921875 0.4999960362911224 C 203.3874816894531 0.4999960362911224 207.649169921875 4.761680126190186 207.649169921875 9.999996185302734 L 207.649169921875 105.3879470825195 C 207.649169921875 110.6262588500977 203.3874816894531 114.8879470825195 198.149169921875 114.8879470825195 Z" stroke="none"/>
        <path d="M 10 0.9999923706054688 C 5.037399291992188 0.9999923706054688 1 5.037391662597656 1 9.999992370605469 L 1 105.387939453125 C 1 110.3505477905273 5.037399291992188 114.3879470825195 10 114.3879470825195 L 198.149169921875 114.3879470825195 C 203.1117706298828 114.3879470825195 207.149169921875 110.3505477905273 207.149169921875 105.387939453125 L 207.149169921875 9.999992370605469 C 207.149169921875 5.037391662597656 203.1117706298828 0.9999923706054688 198.149169921875 0.9999923706054688 L 10 0.9999923706054688 M 10 -7.62939453125e-06 L 198.149169921875 -7.62939453125e-06 C 203.6720123291016 -7.62939453125e-06 208.149169921875 4.477157592773438 208.149169921875 9.999992370605469 L 208.149169921875 105.387939453125 C 208.149169921875 110.9107818603516 203.6720123291016 115.3879470825195 198.149169921875 115.3879470825195 L 10 115.3879470825195 C 4.477157592773438 115.3879470825195 0 110.9107818603516 0 105.387939453125 L 0 9.999992370605469 C 0 4.477157592773438 4.477157592773438 -7.62939453125e-06 10 -7.62939453125e-06 Z" stroke="none" fill="#496406"/>
      </g>
    </g>
    <path id="Trazado_1032567" data-name="Trazado 1032567" d="M44.973,19h-6.68V6.4h6.4V7.732H39.769v4.192h4.553v1.327H39.769v4.412h5.2ZM43.7,2.362,41.4,5.245H40.279l1.96-2.883ZM54.678,19H53.236V13.867Q53.236,11,51.144,11a2.269,2.269,0,0,0-1.789.813,3.013,3.013,0,0,0-.708,2.052V19H47.207V10h1.441v1.494h.035a3.248,3.248,0,0,1,2.953-1.705,2.753,2.753,0,0,1,2.259.954,4.248,4.248,0,0,1,.782,2.755ZM61.842,6.941a1.92,1.92,0,0,0-.958-.237q-1.512,0-1.512,1.907V10h2.109v1.23H59.373V19H57.94V11.23H56.4V10H57.94V8.541A3.032,3.032,0,0,1,58.757,6.3,2.759,2.759,0,0,1,60.8,5.482a2.824,2.824,0,0,1,1.046.158ZM69.473,19H68.032V17.594H68a3.018,3.018,0,0,1-2.769,1.617,2.959,2.959,0,0,1-2.1-.712,2.466,2.466,0,0,1-.76-1.89q0-2.522,2.971-2.936l2.7-.378Q68.032,11,66.177,11a4.431,4.431,0,0,0-2.936,1.107V10.633A5.577,5.577,0,0,1,66.3,9.789q3.173,0,3.173,3.357Zm-1.441-4.553-2.171.3a3.525,3.525,0,0,0-1.512.5,1.432,1.432,0,0,0-.51,1.261,1.374,1.374,0,0,0,.47,1.077A1.817,1.817,0,0,0,65.562,18a2.314,2.314,0,0,0,1.771-.751,2.685,2.685,0,0,0,.7-1.9Zm3.614,4.228V17.128a4.266,4.266,0,0,0,2.593.87q1.9,0,1.9-1.266a1.1,1.1,0,0,0-.163-.611,1.62,1.62,0,0,0-.439-.444,3.383,3.383,0,0,0-.65-.347q-.374-.154-.8-.321a10.357,10.357,0,0,1-1.05-.479,3.173,3.173,0,0,1-.756-.545,2.028,2.028,0,0,1-.457-.69,2.441,2.441,0,0,1-.154-.905,2.15,2.15,0,0,1,.29-1.121,2.572,2.572,0,0,1,.773-.817,3.607,3.607,0,0,1,1.1-.5,4.893,4.893,0,0,1,1.279-.167,5.164,5.164,0,0,1,2.092.4v1.459A4.077,4.077,0,0,0,74.915,11a2.671,2.671,0,0,0-.729.092,1.786,1.786,0,0,0-.558.259,1.2,1.2,0,0,0-.36.4,1.053,1.053,0,0,0-.127.514,1.233,1.233,0,0,0,.127.589,1.3,1.3,0,0,0,.374.422,2.855,2.855,0,0,0,.6.334q.352.149.8.325a11.131,11.131,0,0,1,1.072.47,3.678,3.678,0,0,1,.809.545,2.129,2.129,0,0,1,.514.7,2.254,2.254,0,0,1,.18.94,2.217,2.217,0,0,1-.294,1.16,2.523,2.523,0,0,1-.787.817,3.6,3.6,0,0,1-1.134.483,5.6,5.6,0,0,1-1.345.158A5.106,5.106,0,0,1,71.646,18.675Zm8.923-10.96a.913.913,0,0,1-.659-.264.89.89,0,0,1-.272-.668.923.923,0,0,1,.932-.94.931.931,0,0,1,.672.268.939.939,0,0,1,0,1.332A.923.923,0,0,1,80.569,7.715ZM81.272,19H79.83V10h1.441Zm2.375-.325V17.128a4.266,4.266,0,0,0,2.593.87q1.9,0,1.9-1.266a1.1,1.1,0,0,0-.163-.611,1.62,1.62,0,0,0-.439-.444,3.383,3.383,0,0,0-.65-.347q-.374-.154-.8-.321a10.357,10.357,0,0,1-1.05-.479,3.173,3.173,0,0,1-.756-.545,2.028,2.028,0,0,1-.457-.69,2.441,2.441,0,0,1-.154-.905,2.15,2.15,0,0,1,.29-1.121,2.572,2.572,0,0,1,.773-.817,3.607,3.607,0,0,1,1.1-.5,4.893,4.893,0,0,1,1.279-.167,5.164,5.164,0,0,1,2.092.4v1.459A4.077,4.077,0,0,0,86.916,11a2.671,2.671,0,0,0-.729.092,1.786,1.786,0,0,0-.558.259,1.2,1.2,0,0,0-.36.4,1.053,1.053,0,0,0-.127.514,1.233,1.233,0,0,0,.127.589,1.3,1.3,0,0,0,.374.422,2.855,2.855,0,0,0,.6.334q.352.149.8.325a11.131,11.131,0,0,1,1.072.47,3.678,3.678,0,0,1,.809.545,2.129,2.129,0,0,1,.514.7,2.254,2.254,0,0,1,.18.94,2.217,2.217,0,0,1-.294,1.16,2.523,2.523,0,0,1-.787.817,3.6,3.6,0,0,1-1.134.483,5.6,5.6,0,0,1-1.345.158A5.106,5.106,0,0,1,83.646,18.675ZM104,14.86H97.642a3.366,3.366,0,0,0,.809,2.32,2.788,2.788,0,0,0,2.127.817,4.422,4.422,0,0,0,2.795-1V18.35a5.224,5.224,0,0,1-3.138.861,3.8,3.8,0,0,1-3-1.226,5.018,5.018,0,0,1-1.09-3.45,4.921,4.921,0,0,1,1.191-3.423A3.819,3.819,0,0,1,100.3,9.789a3.384,3.384,0,0,1,2.733,1.143A4.764,4.764,0,0,1,104,14.1Zm-1.477-1.222a2.933,2.933,0,0,0-.6-1.942A2.051,2.051,0,0,0,100.27,11a2.328,2.328,0,0,0-1.731.729,3.31,3.31,0,0,0-.879,1.907ZM113.649,19h-1.441V13.867q0-2.865-2.092-2.865a2.269,2.269,0,0,0-1.789.813,3.013,3.013,0,0,0-.708,2.052V19h-1.441V10h1.441v1.494h.035a3.248,3.248,0,0,1,2.953-1.705,2.753,2.753,0,0,1,2.259.954,4.248,4.248,0,0,1,.782,2.755Zm9.091,0H121.3V5.676h1.441Zm9.362,0h-1.441V17.594h-.035a3.018,3.018,0,0,1-2.769,1.617,2.959,2.959,0,0,1-2.1-.712,2.466,2.466,0,0,1-.76-1.89q0-2.522,2.971-2.936l2.7-.378q0-2.294-1.854-2.294a4.431,4.431,0,0,0-2.936,1.107V10.633a5.577,5.577,0,0,1,3.059-.844q3.173,0,3.173,3.357Zm-1.441-4.553-2.171.3a3.525,3.525,0,0,0-1.512.5,1.432,1.432,0,0,0-.51,1.261,1.374,1.374,0,0,0,.47,1.077,1.817,1.817,0,0,0,1.252.417,2.314,2.314,0,0,0,1.771-.751,2.685,2.685,0,0,0,.7-1.9ZM53.879,41.86H47.524a3.366,3.366,0,0,0,.809,2.32A2.788,2.788,0,0,0,50.46,45a4.422,4.422,0,0,0,2.795-1V45.35a5.224,5.224,0,0,1-3.138.861,3.8,3.8,0,0,1-3-1.226,5.018,5.018,0,0,1-1.09-3.45,4.921,4.921,0,0,1,1.191-3.423,3.819,3.819,0,0,1,2.958-1.323,3.384,3.384,0,0,1,2.733,1.143,4.764,4.764,0,0,1,.967,3.173ZM52.4,40.639a2.933,2.933,0,0,0-.6-1.942A2.051,2.051,0,0,0,50.152,38a2.328,2.328,0,0,0-1.731.729,3.31,3.31,0,0,0-.879,1.907Zm3.113,5.036V44.128a4.266,4.266,0,0,0,2.593.87q1.9,0,1.9-1.266a1.1,1.1,0,0,0-.163-.611,1.62,1.62,0,0,0-.439-.444,3.383,3.383,0,0,0-.65-.347q-.374-.154-.8-.321a10.357,10.357,0,0,1-1.05-.479,3.173,3.173,0,0,1-.756-.545,2.028,2.028,0,0,1-.457-.69,2.441,2.441,0,0,1-.154-.905,2.15,2.15,0,0,1,.29-1.121,2.572,2.572,0,0,1,.773-.817,3.607,3.607,0,0,1,1.1-.5,4.893,4.893,0,0,1,1.279-.167,5.164,5.164,0,0,1,2.092.4v1.459A4.077,4.077,0,0,0,58.785,38a2.671,2.671,0,0,0-.729.092,1.786,1.786,0,0,0-.558.259,1.2,1.2,0,0,0-.36.4,1.053,1.053,0,0,0-.127.514,1.233,1.233,0,0,0,.127.589,1.3,1.3,0,0,0,.374.422,2.855,2.855,0,0,0,.6.334q.352.149.8.325a11.131,11.131,0,0,1,1.072.47,3.678,3.678,0,0,1,.809.545,2.129,2.129,0,0,1,.514.7,2.254,2.254,0,0,1,.18.94,2.217,2.217,0,0,1-.294,1.16,2.523,2.523,0,0,1-.787.817,3.6,3.6,0,0,1-1.134.483,5.6,5.6,0,0,1-1.345.158A5.106,5.106,0,0,1,55.515,45.675Zm12.359.237a2.779,2.779,0,0,1-1.345.281q-2.364,0-2.364-2.637V38.23H62.619V37h1.547V34.8l1.441-.466V37h2.268v1.23H65.607V43.3a2.1,2.1,0,0,0,.308,1.292,1.228,1.228,0,0,0,1.02.387,1.515,1.515,0,0,0,.94-.3Zm6.62-7.453a1.763,1.763,0,0,0-1.09-.29,1.839,1.839,0,0,0-1.542.87,4.023,4.023,0,0,0-.62,2.373V46H69.8V37h1.441v1.854h.035a3.143,3.143,0,0,1,.94-1.481,2.144,2.144,0,0,1,1.415-.532,2.353,2.353,0,0,1,.861.123ZM83.338,46H81.9V44.576h-.035a2.96,2.96,0,0,1-2.777,1.635q-3.217,0-3.217-3.832V37H77.3v5.15Q77.3,45,79.48,45a2.205,2.205,0,0,0,1.736-.778,2.976,2.976,0,0,0,.681-2.035V37h1.441Zm9.046-.413a4.684,4.684,0,0,1-2.461.624,4.074,4.074,0,0,1-3.107-1.252,4.539,4.539,0,0,1-1.182-3.248,4.99,4.99,0,0,1,1.274-3.573,4.458,4.458,0,0,1,3.4-1.349,4.735,4.735,0,0,1,2.092.439v1.477a3.665,3.665,0,0,0-2.145-.7,2.9,2.9,0,0,0-2.263.989,3.752,3.752,0,0,0-.883,2.6,3.573,3.573,0,0,0,.831,2.5A2.863,2.863,0,0,0,90.169,45a3.613,3.613,0,0,0,2.215-.782Zm6.356.325a2.779,2.779,0,0,1-1.345.281q-2.364,0-2.364-2.637V38.23H93.484V37h1.547V34.8l1.441-.466V37H98.74v1.23H96.472V43.3a2.1,2.1,0,0,0,.308,1.292,1.228,1.228,0,0,0,1.02.387,1.515,1.515,0,0,0,.94-.3Zm9.2.088H106.5V44.576h-.035a2.96,2.96,0,0,1-2.777,1.635q-3.217,0-3.217-3.832V37h1.433v5.15q0,2.848,2.18,2.848a2.205,2.205,0,0,0,1.736-.778,2.976,2.976,0,0,0,.681-2.035V37h1.441Zm7.6-7.541a1.763,1.763,0,0,0-1.09-.29,1.839,1.839,0,0,0-1.542.87,4.023,4.023,0,0,0-.62,2.373V46h-1.441V37H112.3v1.854h.035a3.143,3.143,0,0,1,.94-1.481,2.144,2.144,0,0,1,1.415-.532,2.353,2.353,0,0,1,.861.123ZM123.557,46h-1.441V44.594h-.035a3.018,3.018,0,0,1-2.769,1.617,2.959,2.959,0,0,1-2.1-.712,2.466,2.466,0,0,1-.76-1.89q0-2.522,2.971-2.936l2.7-.378q0-2.294-1.854-2.294a4.431,4.431,0,0,0-2.936,1.107V37.633a5.577,5.577,0,0,1,3.059-.844q3.173,0,3.173,3.357Zm-1.441-4.553-2.171.3a3.525,3.525,0,0,0-1.512.5,1.432,1.432,0,0,0-.51,1.261,1.374,1.374,0,0,0,.47,1.077,1.817,1.817,0,0,0,1.252.417,2.314,2.314,0,0,0,1.771-.751,2.685,2.685,0,0,0,.7-1.9ZM30.592,73.211a4.175,4.175,0,0,1-3.186-1.261,4.672,4.672,0,0,1-1.191-3.344,4.867,4.867,0,0,1,1.239-3.542A4.455,4.455,0,0,1,30.8,63.789a4.037,4.037,0,0,1,3.142,1.239,4.914,4.914,0,0,1,1.129,3.437,4.835,4.835,0,0,1-1.217,3.45A4.265,4.265,0,0,1,30.592,73.211ZM30.7,65a2.742,2.742,0,0,0-2.2.945,3.88,3.88,0,0,0-.809,2.606,3.67,3.67,0,0,0,.817,2.522A2.778,2.778,0,0,0,30.7,72a2.635,2.635,0,0,0,2.149-.905,3.928,3.928,0,0,0,.751-2.575,4,4,0,0,0-.751-2.6A2.623,2.623,0,0,0,30.7,65Zm11.375.457a1.763,1.763,0,0,0-1.09-.29,1.839,1.839,0,0,0-1.542.87,4.023,4.023,0,0,0-.62,2.373V73H37.379V64H38.82v1.854h.035a3.143,3.143,0,0,1,.94-1.481,2.144,2.144,0,0,1,1.415-.532,2.353,2.353,0,0,1,.861.123Zm9.248,6.82q0,4.957-4.746,4.957a6.372,6.372,0,0,1-2.918-.633V75.162a5.993,5.993,0,0,0,2.9.844q3.322,0,3.322-3.533v-.984h-.035a3.641,3.641,0,0,1-5.8.523,4.8,4.8,0,0,1-1.024-3.221,5.6,5.6,0,0,1,1.1-3.647,3.685,3.685,0,0,1,3.019-1.354,2.934,2.934,0,0,1,2.7,1.459h.035V64H51.32Zm-1.441-3.349V67.6a2.575,2.575,0,0,0-.725-1.837A2.387,2.387,0,0,0,47.347,65a2.5,2.5,0,0,0-2.092.971,4.335,4.335,0,0,0-.756,2.72,3.721,3.721,0,0,0,.725,2.4,2.343,2.343,0,0,0,1.92.9,2.509,2.509,0,0,0,1.973-.861A3.21,3.21,0,0,0,49.879,68.931ZM60.682,73H59.241V71.594h-.035a3.018,3.018,0,0,1-2.769,1.617,2.959,2.959,0,0,1-2.1-.712,2.466,2.466,0,0,1-.76-1.89q0-2.522,2.971-2.936l2.7-.378Q59.241,65,57.386,65a4.431,4.431,0,0,0-2.936,1.107V64.633a5.577,5.577,0,0,1,3.059-.844q3.173,0,3.173,3.357Zm-1.441-4.553-2.171.3a3.525,3.525,0,0,0-1.512.5,1.432,1.432,0,0,0-.51,1.261,1.374,1.374,0,0,0,.47,1.077A1.817,1.817,0,0,0,56.771,72a2.314,2.314,0,0,0,1.771-.751,2.685,2.685,0,0,0,.7-1.9ZM70.871,73H69.429V67.867Q69.429,65,67.337,65a2.269,2.269,0,0,0-1.789.813,3.013,3.013,0,0,0-.708,2.052V73H63.4V64h1.441v1.494h.035a3.248,3.248,0,0,1,2.953-1.705,2.753,2.753,0,0,1,2.259.954,4.248,4.248,0,0,1,.782,2.755Zm3.456-11.285a.913.913,0,0,1-.659-.264.89.89,0,0,1-.272-.668.923.923,0,0,1,.932-.94.931.931,0,0,1,.672.268.939.939,0,0,1,0,1.332A.923.923,0,0,1,74.326,61.715ZM75.03,73H73.588V64H75.03Zm9.2-8.587L78.9,71.77h5.273V73H76.78v-.448l5.326-7.321H77.281V64h6.943ZM92.532,73H91.091V71.594h-.035a3.018,3.018,0,0,1-2.769,1.617,2.959,2.959,0,0,1-2.1-.712,2.466,2.466,0,0,1-.76-1.89q0-2.522,2.971-2.936l2.7-.378Q91.091,65,89.236,65A4.431,4.431,0,0,0,86.3,66.109V64.633a5.577,5.577,0,0,1,3.059-.844q3.173,0,3.173,3.357Zm-1.441-4.553-2.171.3a3.525,3.525,0,0,0-1.512.5A1.432,1.432,0,0,0,86.9,70.5a1.374,1.374,0,0,0,.47,1.077A1.817,1.817,0,0,0,88.621,72a2.314,2.314,0,0,0,1.771-.751,2.685,2.685,0,0,0,.7-1.9Zm10.294,4.14a4.684,4.684,0,0,1-2.461.624,4.074,4.074,0,0,1-3.107-1.252,4.539,4.539,0,0,1-1.182-3.248,4.99,4.99,0,0,1,1.274-3.573,4.458,4.458,0,0,1,3.4-1.349,4.735,4.735,0,0,1,2.092.439v1.477a3.665,3.665,0,0,0-2.145-.7,2.9,2.9,0,0,0-2.263.989,3.752,3.752,0,0,0-.883,2.6,3.573,3.573,0,0,0,.831,2.5A2.863,2.863,0,0,0,99.17,72a3.613,3.613,0,0,0,2.215-.782Zm2.92-10.872a.913.913,0,0,1-.659-.264.89.89,0,0,1-.272-.668.923.923,0,0,1,.932-.94.931.931,0,0,1,.672.268.939.939,0,0,1,0,1.332A.923.923,0,0,1,104.3,61.715Zm.7,11.285h-1.441V64h1.441Zm6.681.211A4.175,4.175,0,0,1,108.5,71.95a4.672,4.672,0,0,1-1.191-3.344,4.867,4.867,0,0,1,1.239-3.542,4.455,4.455,0,0,1,3.349-1.274,4.037,4.037,0,0,1,3.142,1.239,4.914,4.914,0,0,1,1.129,3.437,4.835,4.835,0,0,1-1.217,3.45A4.265,4.265,0,0,1,111.689,73.211ZM111.794,65a2.742,2.742,0,0,0-2.2.945,3.88,3.88,0,0,0-.809,2.606,3.67,3.67,0,0,0,.817,2.522,2.778,2.778,0,0,0,2.188.923,2.635,2.635,0,0,0,2.149-.905,3.928,3.928,0,0,0,.751-2.575,4,4,0,0,0-.751-2.6A2.623,2.623,0,0,0,111.794,65Zm14.152,8h-1.441V67.867q0-2.865-2.092-2.865a2.269,2.269,0,0,0-1.789.813,3.013,3.013,0,0,0-.708,2.052V73h-1.441V64h1.441v1.494h.035a3.248,3.248,0,0,1,2.953-1.705,2.753,2.753,0,0,1,2.259.954,4.248,4.248,0,0,1,.782,2.755Zm9.16,0h-1.441V71.594h-.035a3.018,3.018,0,0,1-2.769,1.617,2.959,2.959,0,0,1-2.1-.712,2.466,2.466,0,0,1-.76-1.89q0-2.522,2.971-2.936l2.7-.378q0-2.294-1.854-2.294a4.431,4.431,0,0,0-2.936,1.107V64.633a5.577,5.577,0,0,1,3.059-.844q3.173,0,3.173,3.357Zm-1.441-4.553-2.171.3a3.525,3.525,0,0,0-1.512.5,1.432,1.432,0,0,0-.51,1.261,1.374,1.374,0,0,0,.47,1.077A1.817,1.817,0,0,0,131.2,72a2.314,2.314,0,0,0,1.771-.751,2.685,2.685,0,0,0,.7-1.9Zm5.6,4.553h-1.441V59.676h1.441Zm3.421.193a.933.933,0,0,1-.69-.29.955.955,0,0,1-.286-.694.969.969,0,0,1,.286-.7.926.926,0,0,1,.69-.294.95.95,0,0,1,.7.294.962.962,0,0,1,.29.7.947.947,0,0,1-.29.694A.958.958,0,0,1,142.686,73.193Z" transform="translate(814.241 3268.486)" fill="#0b0a0a"/>
    <g transform="matrix(1, 0, 0, 1, 343.46, 3031.44)" filter="url(#Trazado_1032568)">
      <g id="Trazado_1032568-2" data-name="Trazado 1032568" transform="translate(673.17 218.04)" fill="#e6f0cd" stroke-linecap="round">
        <path d="M 198.149169921875 114.8879470825195 L 10.0000057220459 114.8879470825195 C 4.761690139770508 114.8879470825195 0.5000060200691223 110.6262588500977 0.5000060200691223 105.3879470825195 L 0.5000060200691223 9.999996185302734 C 0.5000060200691223 4.761680126190186 4.761690139770508 0.4999960362911224 10.0000057220459 0.4999960362911224 L 198.149169921875 0.4999960362911224 C 203.3874816894531 0.4999960362911224 207.649169921875 4.761680126190186 207.649169921875 9.999996185302734 L 207.649169921875 105.3879470825195 C 207.649169921875 110.6262588500977 203.3874816894531 114.8879470825195 198.149169921875 114.8879470825195 Z" stroke="none"/>
        <path d="M 10 0.9999923706054688 C 5.037399291992188 0.9999923706054688 1 5.037391662597656 1 9.999992370605469 L 1 105.387939453125 C 1 110.3505477905273 5.037399291992188 114.3879470825195 10 114.3879470825195 L 198.149169921875 114.3879470825195 C 203.1117706298828 114.3879470825195 207.149169921875 110.3505477905273 207.149169921875 105.387939453125 L 207.149169921875 9.999992370605469 C 207.149169921875 5.037391662597656 203.1117706298828 0.9999923706054688 198.149169921875 0.9999923706054688 L 10 0.9999923706054688 M 10 -7.62939453125e-06 L 198.149169921875 -7.62939453125e-06 C 203.6720123291016 -7.62939453125e-06 208.149169921875 4.477157592773438 208.149169921875 9.999992370605469 L 208.149169921875 105.387939453125 C 208.149169921875 110.9107818603516 203.6720123291016 115.3879470825195 198.149169921875 115.3879470825195 L 10 115.3879470825195 C 4.477157592773438 115.3879470825195 0 110.9107818603516 0 105.387939453125 L 0 9.999992370605469 C 0 4.477157592773438 4.477157592773438 -7.62939453125e-06 10 -7.62939453125e-06 Z" stroke="none" fill="#496406"/>
      </g>
    </g>
    <path id="Trazado_1032569" data-name="Trazado 1032569" d="M22.549,14.236V19H21.072V6.4h3.463a4.571,4.571,0,0,1,3.133.984,3.515,3.515,0,0,1,1.112,2.777,3.82,3.82,0,0,1-1.235,2.936,4.718,4.718,0,0,1-3.335,1.143Zm0-6.5V12.9H24.1a3.458,3.458,0,0,0,2.333-.7,2.474,2.474,0,0,0,.8-1.973q0-2.5-2.953-2.5Zm13.106,3.727a1.763,1.763,0,0,0-1.09-.29,1.839,1.839,0,0,0-1.542.87,4.023,4.023,0,0,0-.62,2.373V19H30.962V10H32.4v1.854h.035a3.143,3.143,0,0,1,.94-1.481,2.144,2.144,0,0,1,1.415-.532,2.353,2.353,0,0,1,.861.123Zm8.8,3.4H38.1a3.366,3.366,0,0,0,.809,2.32A2.788,2.788,0,0,0,41.036,18a4.422,4.422,0,0,0,2.795-1V18.35a5.224,5.224,0,0,1-3.138.861,3.8,3.8,0,0,1-3-1.226,5.018,5.018,0,0,1-1.09-3.45A4.921,4.921,0,0,1,37.8,11.112a3.819,3.819,0,0,1,2.958-1.323,3.384,3.384,0,0,1,2.733,1.143,4.764,4.764,0,0,1,.967,3.173Zm-1.477-1.222a2.933,2.933,0,0,0-.6-1.942A2.051,2.051,0,0,0,40.728,11,2.328,2.328,0,0,0,39,11.731a3.31,3.31,0,0,0-.879,1.907Zm9.793,4.948a4.684,4.684,0,0,1-2.461.624A4.074,4.074,0,0,1,47.2,17.958a4.539,4.539,0,0,1-1.182-3.248A4.99,4.99,0,0,1,47.3,11.138a4.458,4.458,0,0,1,3.4-1.349,4.735,4.735,0,0,1,2.092.439v1.477a3.665,3.665,0,0,0-2.145-.7,2.9,2.9,0,0,0-2.263.989,3.752,3.752,0,0,0-.883,2.6,3.573,3.573,0,0,0,.831,2.5A2.863,2.863,0,0,0,50.556,18a3.613,3.613,0,0,0,2.215-.782ZM62.23,19H60.789V17.576h-.035a2.96,2.96,0,0,1-2.777,1.635q-3.217,0-3.217-3.832V10h1.433v5.15q0,2.848,2.18,2.848a2.205,2.205,0,0,0,1.736-.778,2.976,2.976,0,0,0,.681-2.035V10H62.23Zm7.6-7.541a1.763,1.763,0,0,0-1.09-.29,1.839,1.839,0,0,0-1.542.87,4.023,4.023,0,0,0-.62,2.373V19H65.141V10h1.441v1.854h.035a3.143,3.143,0,0,1,.94-1.481,2.144,2.144,0,0,1,1.415-.532,2.353,2.353,0,0,1,.861.123Zm1.021,7.216V17.128a4.266,4.266,0,0,0,2.593.87q1.9,0,1.9-1.266a1.1,1.1,0,0,0-.163-.611,1.62,1.62,0,0,0-.439-.444,3.383,3.383,0,0,0-.65-.347q-.374-.154-.8-.321a10.357,10.357,0,0,1-1.05-.479,3.173,3.173,0,0,1-.756-.545,2.028,2.028,0,0,1-.457-.69,2.441,2.441,0,0,1-.154-.905,2.15,2.15,0,0,1,.29-1.121,2.572,2.572,0,0,1,.773-.817,3.607,3.607,0,0,1,1.1-.5,4.893,4.893,0,0,1,1.279-.167,5.164,5.164,0,0,1,2.092.4v1.459A4.077,4.077,0,0,0,74.125,11a2.671,2.671,0,0,0-.729.092,1.786,1.786,0,0,0-.558.259,1.2,1.2,0,0,0-.36.4,1.053,1.053,0,0,0-.127.514,1.233,1.233,0,0,0,.127.589,1.3,1.3,0,0,0,.374.422,2.855,2.855,0,0,0,.6.334q.352.149.8.325a11.131,11.131,0,0,1,1.072.47,3.678,3.678,0,0,1,.809.545,2.129,2.129,0,0,1,.514.7,2.254,2.254,0,0,1,.18.94,2.217,2.217,0,0,1-.294,1.16,2.523,2.523,0,0,1-.787.817,3.6,3.6,0,0,1-1.134.483,5.6,5.6,0,0,1-1.345.158A5.106,5.106,0,0,1,70.856,18.675Zm11.946.536a4.175,4.175,0,0,1-3.186-1.261,4.672,4.672,0,0,1-1.191-3.344,4.867,4.867,0,0,1,1.239-3.542,4.455,4.455,0,0,1,3.349-1.274,4.037,4.037,0,0,1,3.142,1.239,4.914,4.914,0,0,1,1.129,3.437,4.835,4.835,0,0,1-1.217,3.45A4.265,4.265,0,0,1,82.8,19.211ZM82.907,11a2.742,2.742,0,0,0-2.2.945,3.88,3.88,0,0,0-.809,2.606,3.67,3.67,0,0,0,.817,2.522A2.778,2.778,0,0,0,82.907,18a2.635,2.635,0,0,0,2.149-.905,3.928,3.928,0,0,0,.751-2.575,4,4,0,0,0-.751-2.6A2.623,2.623,0,0,0,82.907,11Zm11.375.457a1.763,1.763,0,0,0-1.09-.29,1.839,1.839,0,0,0-1.542.87,4.023,4.023,0,0,0-.62,2.373V19H89.589V10H91.03v1.854h.035a3.143,3.143,0,0,1,.94-1.481,2.144,2.144,0,0,1,1.415-.532,2.353,2.353,0,0,1,.861.123Zm2.067.3a.933.933,0,0,1-.69-.29.955.955,0,0,1-.286-.694.926.926,0,0,1,.286-.686.948.948,0,0,1,.69-.281.973.973,0,0,1,.7.281.919.919,0,0,1,.29.686.947.947,0,0,1-.29.694A.958.958,0,0,1,96.349,11.758Zm0,7.436a.933.933,0,0,1-.69-.29.955.955,0,0,1-.286-.694.969.969,0,0,1,.286-.7.926.926,0,0,1,.69-.294.95.95,0,0,1,.7.294.962.962,0,0,1,.29.7.947.947,0,0,1-.29.694A.958.958,0,0,1,96.349,19.193Zm18-.193h-1.477V13.252h-6.521V19h-1.477V6.4h1.477v5.528h6.521V6.4h1.477ZM124.7,14.86h-6.354a3.366,3.366,0,0,0,.809,2.32,2.788,2.788,0,0,0,2.127.817,4.422,4.422,0,0,0,2.795-1V18.35a5.224,5.224,0,0,1-3.138.861,3.8,3.8,0,0,1-3-1.226,5.018,5.018,0,0,1-1.09-3.45,4.921,4.921,0,0,1,1.191-3.423A3.819,3.819,0,0,1,121,9.789a3.384,3.384,0,0,1,2.733,1.143A4.764,4.764,0,0,1,124.7,14.1Zm-1.477-1.222a2.933,2.933,0,0,0-.6-1.942A2.051,2.051,0,0,0,120.973,11a2.328,2.328,0,0,0-1.731.729,3.31,3.31,0,0,0-.879,1.907ZM134.352,19H132.91V13.867q0-2.865-2.092-2.865a2.269,2.269,0,0,0-1.789.813,3.013,3.013,0,0,0-.708,2.052V19h-1.441V10h1.441v1.494h.035a3.248,3.248,0,0,1,2.953-1.705,2.753,2.753,0,0,1,2.259.954,4.248,4.248,0,0,1,.782,2.755Zm7.411-7.541a1.763,1.763,0,0,0-1.09-.29,1.839,1.839,0,0,0-1.542.87,4.023,4.023,0,0,0-.62,2.373V19h-1.441V10h1.441v1.854h.035a3.143,3.143,0,0,1,.94-1.481,2.144,2.144,0,0,1,1.415-.532,2.353,2.353,0,0,1,.861.123ZM150.492,10l-4.14,10.441q-1.107,2.795-3.111,2.795a3.3,3.3,0,0,1-.94-.114V21.83a2.672,2.672,0,0,0,.853.158,1.767,1.767,0,0,0,1.635-1.3l.721-1.705L141.993,10h1.6l2.435,6.926q.044.132.185.686h.053q.044-.211.176-.668L149,10ZM70.621,34.732H65.7v4.359h4.553v1.327H65.7V46H64.223V33.4h6.4ZM78.647,46H77.206V44.594h-.035A3.018,3.018,0,0,1,74.4,46.211a2.959,2.959,0,0,1-2.1-.712,2.466,2.466,0,0,1-.76-1.89q0-2.522,2.971-2.936l2.7-.378Q77.206,38,75.351,38a4.431,4.431,0,0,0-2.936,1.107V37.633a5.577,5.577,0,0,1,3.059-.844q3.173,0,3.173,3.357Zm-1.441-4.553-2.171.3a3.525,3.525,0,0,0-1.512.5,1.432,1.432,0,0,0-.51,1.261,1.374,1.374,0,0,0,.47,1.077A1.817,1.817,0,0,0,74.736,45a2.314,2.314,0,0,0,1.771-.751,2.685,2.685,0,0,0,.7-1.9ZM88.528,37l-4.14,10.441q-1.107,2.795-3.111,2.795a3.3,3.3,0,0,1-.94-.114V48.83a2.672,2.672,0,0,0,.853.158,1.767,1.767,0,0,0,1.635-1.3l.721-1.705L80.029,37h1.6l2.435,6.926q.044.132.185.686H84.3q.044-.211.176-.668L87.034,37Zm5.31,9.211a4.175,4.175,0,0,1-3.186-1.261,4.672,4.672,0,0,1-1.191-3.344A4.867,4.867,0,0,1,90.7,38.063a4.455,4.455,0,0,1,3.349-1.274,4.037,4.037,0,0,1,3.142,1.239,4.914,4.914,0,0,1,1.129,3.437,4.835,4.835,0,0,1-1.217,3.45A4.265,4.265,0,0,1,93.838,46.211ZM93.944,38a2.742,2.742,0,0,0-2.2.945,3.88,3.88,0,0,0-.809,2.606,3.67,3.67,0,0,0,.817,2.522A2.778,2.778,0,0,0,93.944,45a2.635,2.635,0,0,0,2.149-.905,3.928,3.928,0,0,0,.751-2.575,4,4,0,0,0-.751-2.6A2.623,2.623,0,0,0,93.944,38Zm8.123,8h-1.441V32.676h1.441Zm3.421.193a.933.933,0,0,1-.69-.29.955.955,0,0,1-.286-.694.969.969,0,0,1,.286-.7.926.926,0,0,1,.69-.294.95.95,0,0,1,.7.294.962.962,0,0,1,.29.7.947.947,0,0,1-.29.694A.958.958,0,0,1,105.487,46.193Z" transform="translate(1035.631 3282.486)" fill="#0b0a0a"/>
    <path id="Trazado_1032570" data-name="Trazado 1032570" d="M1810.884,3062.3v-21.133H2260.47v21.451" transform="translate(-1243.84 84.08)" fill="none" stroke="#707070" stroke-width="1"/>
    <path id="Trazado_1032571" data-name="Trazado 1032571" d="M2034.835,3015.388v21.2" transform="translate(-1237.799 88.443)" fill="none" stroke="#707070" stroke-width="1"/>
    <path id="Trazado_1032572" data-name="Trazado 1032572" d="M1810.884,3062.3v-21.133h221.465v21.451" transform="translate(-911.643 186.869)" fill="none" stroke="#707070" stroke-width="1"/>
    <path id="Trazado_1032573" data-name="Trazado 1032573" d="M1810.884,3062.3v-21.133h221.465v21.451" transform="translate(-1354.497 187.869)" fill="none" stroke="#707070" stroke-width="1"/>
    <path id="Trazado_1032574" data-name="Trazado 1032574" d="M2034.835,3015.388v21.2" transform="translate(-1019.204 191.443)" fill="none" stroke="#707070" stroke-width="1"/>
    <path id="Trazado_1032575" data-name="Trazado 1032575" d="M2034.835,3015.388v21.2" transform="translate(-1467.716 192.443)" fill="none" stroke="#707070" stroke-width="1"/>
    <g transform="matrix(1, 0, 0, 1, 343.46, 3031.44)" filter="url(#Trazado_1032576)">
      <g id="Trazado_1032576-2" data-name="Trazado 1032576" transform="translate(577 115)" fill="#cee29d" stroke-linecap="round">
        <path d="M 173.149169921875 65.88794708251953 L 9.999994277954102 65.88794708251953 C 4.761675834655762 65.88794708251953 0.4999940395355225 61.62626647949219 0.4999940395355225 56.38794708251953 L 0.4999940395355225 9.999992370605469 C 0.4999940395355225 4.761674404144287 4.761675834655762 0.4999924600124359 9.999994277954102 0.4999924600124359 L 173.149169921875 0.4999924600124359 C 178.3874969482422 0.4999924600124359 182.649169921875 4.761674404144287 182.649169921875 9.999992370605469 L 182.649169921875 56.38794708251953 C 182.649169921875 61.62626647949219 178.3874969482422 65.88794708251953 173.149169921875 65.88794708251953 Z" stroke="none"/>
        <path d="M 9.999984741210938 0.9999923706054688 C 5.037368774414062 0.9999923706054688 0.9999847412109375 5.037372589111328 0.9999847412109375 9.999992370605469 L 0.9999847412109375 56.38794708251953 C 0.9999847412109375 61.35056304931641 5.037368774414062 65.38794708251953 9.999984741210938 65.38794708251953 L 173.1491546630859 65.38794708251953 C 178.1117706298828 65.38794708251953 182.1491546630859 61.35056304931641 182.1491546630859 56.38794708251953 L 182.1491546630859 9.999992370605469 C 182.1491546630859 5.037372589111328 178.1117706298828 0.9999923706054688 173.1491546630859 0.9999923706054688 L 9.999984741210938 0.9999923706054688 M 9.999984741210938 -7.62939453125e-06 L 173.1491546630859 -7.62939453125e-06 C 178.6720123291016 -7.62939453125e-06 183.1491546630859 4.477161407470703 183.1491546630859 9.999992370605469 L 183.1491546630859 56.38794708251953 C 183.1491546630859 61.9107780456543 178.6720123291016 66.38794708251953 173.1491546630859 66.38794708251953 L 9.999984741210938 66.38794708251953 C 4.477157592773438 66.38794708251953 -1.52587890625e-05 61.9107780456543 -1.52587890625e-05 56.38794708251953 L -1.52587890625e-05 9.999992370605469 C -1.52587890625e-05 4.477161407470703 4.477157592773438 -7.62939453125e-06 9.999984741210938 -7.62939453125e-06 Z" stroke="none" fill="#496406"/>
      </g>
    </g>
    <path id="Trazado_1032577" data-name="Trazado 1032577" d="M29.773,7.732H26.135V19H24.658V7.732h-3.63V6.4h8.745Zm7.262,7.128H30.681a3.366,3.366,0,0,0,.809,2.32A2.788,2.788,0,0,0,33.616,18a4.422,4.422,0,0,0,2.795-1V18.35a5.224,5.224,0,0,1-3.138.861,3.8,3.8,0,0,1-3-1.226,5.018,5.018,0,0,1-1.09-3.45,4.921,4.921,0,0,1,1.191-3.423,3.819,3.819,0,0,1,2.958-1.323,3.384,3.384,0,0,1,2.733,1.143,4.764,4.764,0,0,1,.967,3.173Zm-1.477-1.222a2.933,2.933,0,0,0-.6-1.942A2.051,2.051,0,0,0,33.308,11a2.328,2.328,0,0,0-1.731.729,3.31,3.31,0,0,0-.879,1.907Zm7.42,5.572a4.175,4.175,0,0,1-3.186-1.261A4.672,4.672,0,0,1,38.6,14.605a4.867,4.867,0,0,1,1.239-3.542,4.455,4.455,0,0,1,3.349-1.274,4.037,4.037,0,0,1,3.142,1.239,4.914,4.914,0,0,1,1.129,3.437,4.835,4.835,0,0,1-1.217,3.45A4.265,4.265,0,0,1,42.978,19.211ZM43.084,11a2.742,2.742,0,0,0-2.2.945,3.88,3.88,0,0,0-.809,2.606,3.67,3.67,0,0,0,.817,2.522A2.778,2.778,0,0,0,43.084,18a2.635,2.635,0,0,0,2.149-.905,3.928,3.928,0,0,0,.751-2.575,4,4,0,0,0-.751-2.6A2.623,2.623,0,0,0,43.084,11Zm11.375.457a1.763,1.763,0,0,0-1.09-.29,1.839,1.839,0,0,0-1.542.87,4.023,4.023,0,0,0-.62,2.373V19H49.765V10h1.441v1.854h.035a3.143,3.143,0,0,1,.94-1.481A2.144,2.144,0,0,1,53.6,9.842a2.353,2.353,0,0,1,.861.123ZM57.466,19H56.025V10h1.441ZM58.758,5.412l-2.3,2.883H55.339L57.3,5.412ZM66.828,19H65.387V17.594h-.035a3.018,3.018,0,0,1-2.769,1.617,2.959,2.959,0,0,1-2.1-.712,2.466,2.466,0,0,1-.76-1.89q0-2.522,2.971-2.936l2.7-.378Q65.387,11,63.532,11A4.431,4.431,0,0,0,60.6,12.109V10.633a5.577,5.577,0,0,1,3.059-.844q3.173,0,3.173,3.357Zm-1.441-4.553-2.171.3a3.525,3.525,0,0,0-1.512.5,1.432,1.432,0,0,0-.51,1.261,1.374,1.374,0,0,0,.47,1.077A1.817,1.817,0,0,0,62.917,18a2.314,2.314,0,0,0,1.771-.751,2.685,2.685,0,0,0,.7-1.9Zm15.226,4.14a4.684,4.684,0,0,1-2.461.624,4.074,4.074,0,0,1-3.107-1.252,4.539,4.539,0,0,1-1.182-3.248,4.99,4.99,0,0,1,1.274-3.573,4.458,4.458,0,0,1,3.4-1.349,4.735,4.735,0,0,1,2.092.439v1.477a3.665,3.665,0,0,0-2.145-.7,2.9,2.9,0,0,0-2.263.989,3.752,3.752,0,0,0-.883,2.6,3.573,3.573,0,0,0,.831,2.5A2.863,2.863,0,0,0,78.4,18a3.613,3.613,0,0,0,2.215-.782ZM84.236,19H82.795V5.676h1.441ZM93.6,19H92.157V17.594h-.035a3.018,3.018,0,0,1-2.769,1.617,2.959,2.959,0,0,1-2.1-.712,2.466,2.466,0,0,1-.76-1.89q0-2.522,2.971-2.936l2.7-.378Q92.157,11,90.3,11a4.431,4.431,0,0,0-2.936,1.107V10.633a5.577,5.577,0,0,1,3.059-.844q3.173,0,3.173,3.357Zm-1.441-4.553-2.171.3a3.525,3.525,0,0,0-1.512.5,1.432,1.432,0,0,0-.51,1.261,1.374,1.374,0,0,0,.47,1.077A1.817,1.817,0,0,0,89.687,18a2.314,2.314,0,0,0,1.771-.751,2.685,2.685,0,0,0,.7-1.9Zm.193-9.035-2.3,2.883H88.931l1.96-2.883Zm3.421,13.263V17.128a4.266,4.266,0,0,0,2.593.87q1.9,0,1.9-1.266a1.1,1.1,0,0,0-.163-.611,1.62,1.62,0,0,0-.439-.444,3.383,3.383,0,0,0-.65-.347q-.374-.154-.8-.321a10.357,10.357,0,0,1-1.05-.479,3.173,3.173,0,0,1-.756-.545,2.028,2.028,0,0,1-.457-.69,2.441,2.441,0,0,1-.154-.905,2.15,2.15,0,0,1,.29-1.121,2.572,2.572,0,0,1,.773-.817,3.607,3.607,0,0,1,1.1-.5,4.893,4.893,0,0,1,1.279-.167,5.164,5.164,0,0,1,2.092.4v1.459A4.077,4.077,0,0,0,99.04,11a2.671,2.671,0,0,0-.729.092,1.786,1.786,0,0,0-.558.259,1.2,1.2,0,0,0-.36.4,1.053,1.053,0,0,0-.127.514,1.233,1.233,0,0,0,.127.589,1.3,1.3,0,0,0,.374.422,2.855,2.855,0,0,0,.6.334q.352.149.8.325a11.131,11.131,0,0,1,1.072.47,3.678,3.678,0,0,1,.809.545,2.129,2.129,0,0,1,.514.7,2.254,2.254,0,0,1,.18.94,2.217,2.217,0,0,1-.294,1.16,2.523,2.523,0,0,1-.787.817,3.6,3.6,0,0,1-1.134.483,5.6,5.6,0,0,1-1.345.158A5.106,5.106,0,0,1,95.771,18.675Zm8.923-10.96a.913.913,0,0,1-.659-.264.89.89,0,0,1-.272-.668.923.923,0,0,1,.932-.94.931.931,0,0,1,.672.268.939.939,0,0,1,0,1.332A.923.923,0,0,1,104.694,7.715ZM105.4,19h-1.441V10H105.4Zm9.055-.413a4.684,4.684,0,0,1-2.461.624,4.074,4.074,0,0,1-3.107-1.252,4.539,4.539,0,0,1-1.182-3.248,4.99,4.99,0,0,1,1.274-3.573,4.458,4.458,0,0,1,3.4-1.349,4.735,4.735,0,0,1,2.092.439v1.477a3.665,3.665,0,0,0-2.145-.7,2.9,2.9,0,0,0-2.263.989,3.752,3.752,0,0,0-.883,2.6,3.573,3.573,0,0,0,.831,2.5,2.863,2.863,0,0,0,2.228.914,3.613,3.613,0,0,0,2.215-.782Zm8.624.413h-1.441V17.594H121.6a3.018,3.018,0,0,1-2.769,1.617,2.959,2.959,0,0,1-2.1-.712,2.466,2.466,0,0,1-.76-1.89q0-2.522,2.971-2.936l2.7-.378q0-2.294-1.854-2.294a4.431,4.431,0,0,0-2.936,1.107V10.633a5.577,5.577,0,0,1,3.059-.844q3.173,0,3.173,3.357Zm-1.441-4.553-2.171.3a3.525,3.525,0,0,0-1.512.5,1.432,1.432,0,0,0-.51,1.261,1.374,1.374,0,0,0,.47,1.077,1.817,1.817,0,0,0,1.252.417,2.314,2.314,0,0,0,1.771-.751,2.685,2.685,0,0,0,.7-1.9Z" transform="translate(939.461 3168.443)" fill="#0b0a0a"/>
    <g transform="matrix(1, 0, 0, 1, 343.46, 3031.44)" filter="url(#Trazado_1032578)">
      <g id="Trazado_1032578-2" data-name="Trazado 1032578" transform="translate(132.08 115)" fill="#cee29d" stroke-linecap="round">
        <path d="M 173.149169921875 65.88794708251953 L 9.999994277954102 65.88794708251953 C 4.761675834655762 65.88794708251953 0.4999940395355225 61.62626647949219 0.4999940395355225 56.38794708251953 L 0.4999940395355225 9.999992370605469 C 0.4999940395355225 4.761674404144287 4.761675834655762 0.4999924600124359 9.999994277954102 0.4999924600124359 L 173.149169921875 0.4999924600124359 C 178.3874969482422 0.4999924600124359 182.649169921875 4.761674404144287 182.649169921875 9.999992370605469 L 182.649169921875 56.38794708251953 C 182.649169921875 61.62626647949219 178.3874969482422 65.88794708251953 173.149169921875 65.88794708251953 Z" stroke="none"/>
        <path d="M 9.999984741210938 0.9999923706054688 C 5.037368774414062 0.9999923706054688 0.9999847412109375 5.037372589111328 0.9999847412109375 9.999992370605469 L 0.9999847412109375 56.38794708251953 C 0.9999847412109375 61.35056304931641 5.037368774414062 65.38794708251953 9.999984741210938 65.38794708251953 L 173.1491546630859 65.38794708251953 C 178.1117706298828 65.38794708251953 182.1491546630859 61.35056304931641 182.1491546630859 56.38794708251953 L 182.1491546630859 9.999992370605469 C 182.1491546630859 5.037372589111328 178.1117706298828 0.9999923706054688 173.1491546630859 0.9999923706054688 L 9.999984741210938 0.9999923706054688 M 9.999984741210938 -7.62939453125e-06 L 173.1491546630859 -7.62939453125e-06 C 178.6720123291016 -7.62939453125e-06 183.1491546630859 4.477161407470703 183.1491546630859 9.999992370605469 L 183.1491546630859 56.38794708251953 C 183.1491546630859 61.9107780456543 178.6720123291016 66.38794708251953 173.1491546630859 66.38794708251953 L 9.999984741210938 66.38794708251953 C 4.477157592773438 66.38794708251953 -1.52587890625e-05 61.9107780456543 -1.52587890625e-05 56.38794708251953 L -1.52587890625e-05 9.999992370605469 C -1.52587890625e-05 4.477161407470703 4.477157592773438 -7.62939453125e-06 9.999984741210938 -7.62939453125e-06 Z" stroke="none" fill="#496406"/>
      </g>
    </g>
    <path id="Trazado_1032579" data-name="Trazado 1032579" d="M20.323,7.732H16.684V19H15.207V7.732h-3.63V6.4h8.745Zm7.262,7.128H21.23a3.366,3.366,0,0,0,.809,2.32A2.788,2.788,0,0,0,24.165,18a4.422,4.422,0,0,0,2.795-1V18.35a5.224,5.224,0,0,1-3.138.861,3.8,3.8,0,0,1-3-1.226,5.018,5.018,0,0,1-1.09-3.45,4.921,4.921,0,0,1,1.191-3.423,3.819,3.819,0,0,1,2.958-1.323,3.384,3.384,0,0,1,2.733,1.143,4.764,4.764,0,0,1,.967,3.173Zm-1.477-1.222a2.933,2.933,0,0,0-.6-1.942A2.051,2.051,0,0,0,23.858,11a2.328,2.328,0,0,0-1.731.729,3.31,3.31,0,0,0-.879,1.907Zm7.42,5.572a4.175,4.175,0,0,1-3.186-1.261,4.672,4.672,0,0,1-1.191-3.344,4.867,4.867,0,0,1,1.239-3.542,4.455,4.455,0,0,1,3.349-1.274,4.037,4.037,0,0,1,3.142,1.239,4.914,4.914,0,0,1,1.129,3.437,4.835,4.835,0,0,1-1.217,3.45A4.265,4.265,0,0,1,33.527,19.211ZM33.633,11a2.742,2.742,0,0,0-2.2.945,3.88,3.88,0,0,0-.809,2.606,3.67,3.67,0,0,0,.817,2.522A2.778,2.778,0,0,0,33.633,18a2.635,2.635,0,0,0,2.149-.905,3.928,3.928,0,0,0,.751-2.575,4,4,0,0,0-.751-2.6A2.623,2.623,0,0,0,33.633,11Zm11.375.457a1.763,1.763,0,0,0-1.09-.29,1.839,1.839,0,0,0-1.542.87,4.023,4.023,0,0,0-.62,2.373V19H40.314V10h1.441v1.854h.035a3.143,3.143,0,0,1,.94-1.481,2.144,2.144,0,0,1,1.415-.532,2.353,2.353,0,0,1,.861.123ZM48.015,19H46.574V10h1.441ZM49.307,5.412,47,8.295H45.888l1.96-2.883ZM57.377,19H55.936V17.594H55.9a3.018,3.018,0,0,1-2.769,1.617,2.959,2.959,0,0,1-2.1-.712,2.466,2.466,0,0,1-.76-1.89q0-2.522,2.971-2.936l2.7-.378Q55.936,11,54.082,11a4.431,4.431,0,0,0-2.936,1.107V10.633A5.577,5.577,0,0,1,54.2,9.789q3.173,0,3.173,3.357Zm-1.441-4.553-2.171.3a3.525,3.525,0,0,0-1.512.5,1.432,1.432,0,0,0-.51,1.261,1.374,1.374,0,0,0,.47,1.077A1.817,1.817,0,0,0,53.466,18a2.314,2.314,0,0,0,1.771-.751,2.685,2.685,0,0,0,.7-1.9Zm15.226,4.14a4.684,4.684,0,0,1-2.461.624,4.074,4.074,0,0,1-3.107-1.252,4.539,4.539,0,0,1-1.182-3.248,4.99,4.99,0,0,1,1.274-3.573,4.458,4.458,0,0,1,3.4-1.349,4.735,4.735,0,0,1,2.092.439v1.477a3.665,3.665,0,0,0-2.145-.7,2.9,2.9,0,0,0-2.263.989,3.752,3.752,0,0,0-.883,2.6,3.573,3.573,0,0,0,.831,2.5A2.863,2.863,0,0,0,68.947,18a3.613,3.613,0,0,0,2.215-.782Zm2.92-10.872a.913.913,0,0,1-.659-.264.89.89,0,0,1-.272-.668.923.923,0,0,1,.932-.94.931.931,0,0,1,.672.268.939.939,0,0,1,0,1.332A.923.923,0,0,1,74.082,7.715ZM74.785,19H73.344V10h1.441Zm10.153-4.14H78.584a3.366,3.366,0,0,0,.809,2.32A2.788,2.788,0,0,0,81.519,18a4.422,4.422,0,0,0,2.795-1V18.35a5.224,5.224,0,0,1-3.138.861,3.8,3.8,0,0,1-3-1.226,5.018,5.018,0,0,1-1.09-3.45,4.921,4.921,0,0,1,1.191-3.423,3.819,3.819,0,0,1,2.958-1.323,3.384,3.384,0,0,1,2.733,1.143,4.764,4.764,0,0,1,.967,3.173Zm-1.477-1.222a2.933,2.933,0,0,0-.6-1.942A2.051,2.051,0,0,0,81.212,11a2.328,2.328,0,0,0-1.731.729,3.31,3.31,0,0,0-.879,1.907ZM94.591,19H93.149V13.867Q93.149,11,91.057,11a2.269,2.269,0,0,0-1.789.813,3.013,3.013,0,0,0-.708,2.052V19H87.12V10h1.441v1.494H88.6a3.248,3.248,0,0,1,2.953-1.705,2.753,2.753,0,0,1,2.259.954,4.248,4.248,0,0,1,.782,2.755Zm6.892-.088a2.779,2.779,0,0,1-1.345.281q-2.364,0-2.364-2.637V11.23H96.227V10h1.547V7.8l1.441-.466V10h2.268v1.23H99.215V16.3a2.1,2.1,0,0,0,.308,1.292,1.228,1.228,0,0,0,1.02.387,1.515,1.515,0,0,0,.94-.3Zm3.368.088H103.41V10h1.441Zm1.292-13.588-2.3,2.883h-1.116l1.96-2.883Zm6.075,1.529a1.92,1.92,0,0,0-.958-.237q-1.512,0-1.512,1.907V10h2.109v1.23h-2.109V19h-1.433V11.23h-1.538V10h1.538V8.541a3.032,3.032,0,0,1,.817-2.237,2.759,2.759,0,0,1,2.039-.822,2.824,2.824,0,0,1,1.046.158Zm1.927.773a.913.913,0,0,1-.659-.264.89.89,0,0,1-.272-.668.923.923,0,0,1,.932-.94.931.931,0,0,1,.672.268.939.939,0,0,1,0,1.332A.923.923,0,0,1,114.145,7.715Zm.7,11.285h-1.441V10h1.441Zm9.055-.413a4.684,4.684,0,0,1-2.461.624,4.074,4.074,0,0,1-3.107-1.252,4.539,4.539,0,0,1-1.182-3.248,4.99,4.99,0,0,1,1.274-3.573,4.458,4.458,0,0,1,3.4-1.349,4.735,4.735,0,0,1,2.092.439v1.477a3.665,3.665,0,0,0-2.145-.7,2.9,2.9,0,0,0-2.263.989,3.752,3.752,0,0,0-.883,2.6,3.573,3.573,0,0,0,.831,2.5,2.863,2.863,0,0,0,2.228.914,3.613,3.613,0,0,0,2.215-.782Zm8.624.413h-1.441V17.594h-.035a3.018,3.018,0,0,1-2.769,1.617,2.959,2.959,0,0,1-2.1-.712,2.466,2.466,0,0,1-.76-1.89q0-2.522,2.971-2.936l2.7-.378q0-2.294-1.854-2.294a4.431,4.431,0,0,0-2.936,1.107V10.633a5.577,5.577,0,0,1,3.059-.844q3.173,0,3.173,3.357Zm-1.441-4.553-2.171.3a3.525,3.525,0,0,0-1.512.5,1.432,1.432,0,0,0-.51,1.261,1.374,1.374,0,0,0,.47,1.077,1.817,1.817,0,0,0,1.252.417,2.314,2.314,0,0,0,1.771-.751,2.685,2.685,0,0,0,.7-1.9Z" transform="translate(494.544 3168.443)" fill="#0b0a0a"/>
  </g>
</svg>
