<svg xmlns="http://www.w3.org/2000/svg" xmlns:xlink="http://www.w3.org/1999/xlink" width="110" height="110" viewBox="0 0 110 110">
  <defs>
    <filter id="Trazado_982547" x="0" y="0" width="110" height="110" filterUnits="userSpaceOnUse">
      <feOffset dy="3" input="SourceAlpha"/>
      <feGaussianBlur stdDeviation="3" result="blur"/>
      <feFlood flood-opacity="0.161"/>
      <feComposite operator="in" in2="blur"/>
      <feComposite in="SourceGraphic"/>
    </filter>
  </defs>
  <g id="Grupo_1175968" data-name="Grupo 1175968" transform="translate(-377.461 -15057)">
    <g id="Grupo_1173147" data-name="Grupo 1173147" transform="translate(386.461 15063)">
      <g id="Grupo_1163801" data-name="Grupo 1163801" transform="translate(0 0)">
        <g id="Grupo_1163014" data-name="Grupo 1163014">
          <g id="Grupo_1157015" data-name="Grupo 1157015" transform="translate(0 0)">
            <g id="Grupo_1155792" data-name="Grupo 1155792" transform="translate(0 0)">
              <g id="Grupo_1154703" data-name="Grupo 1154703">
                <g id="Grupo_1150789" data-name="Grupo 1150789">
                  <g id="Grupo_1154212" data-name="Grupo 1154212">
                    <g id="Grupo_1152583" data-name="Grupo 1152583">
                      <g id="Grupo_1146973" data-name="Grupo 1146973" transform="translate(0 0)">
                        <g id="Grupo_1146954" data-name="Grupo 1146954">
                          <g transform="matrix(1, 0, 0, 1, -9, -6)" filter="url(#Trazado_982547)">
                            <g id="Trazado_982547-2" data-name="Trazado 982547" transform="translate(9 6)" fill="#f2f7e5">
                              <path d="M 46.00000381469727 90.49988555908203 C 39.99188232421875 90.49988555908203 34.16427230834961 89.32352447509766 28.67905807495117 87.00347137451172 C 23.38020324707031 84.76226043701172 18.62103080749512 81.55342864990234 14.53375053405762 77.46615600585938 C 10.44645690917969 73.37887573242188 7.237643718719482 68.61971282958984 4.996417045593262 63.32085800170898 C 2.676363706588745 57.83565902709961 1.500003814697266 52.00806045532227 1.500003814697266 45.99993896484375 C 1.500003814697266 39.99181747436523 2.676363706588745 34.16421890258789 4.996417045593262 28.67901802062988 C 7.237643718719482 23.38017845153809 10.44645690917969 18.62101936340332 14.53375053405762 14.53373908996582 C 18.62103080749512 10.44645881652832 23.38020324707031 7.237632274627686 28.67905807495117 4.996418952941895 C 34.16427230834961 2.676365613937378 39.99188232421875 1.500005602836609 46.00000381469727 1.500005602836609 C 52.00812530517578 1.500005602836609 57.83573532104492 2.676365613937378 63.32094955444336 4.996418952941895 C 68.61980438232422 7.237632274627686 73.37896728515625 10.44645881652832 77.46625518798828 14.53373908996582 C 81.55353546142578 18.62101936340332 84.76236724853516 23.38017845153809 87.00359344482422 28.67901802062988 C 89.32364654541016 34.16421890258789 90.5 39.99181747436523 90.5 45.99993896484375 C 90.5 52.00806045532227 89.32364654541016 57.83565902709961 87.00359344482422 63.32085800170898 C 84.76236724853516 68.61971282958984 81.55353546142578 73.37887573242188 77.46625518798828 77.46615600585938 C 73.37896728515625 81.55342864990234 68.61980438232422 84.76226043701172 63.32094955444336 87.00347137451172 C 57.83573532104492 89.32352447509766 52.00812530517578 90.49988555908203 46.00000381469727 90.49988555908203 Z" stroke="none"/>
                              <path d="M 46.00000381469727 2.999992370605469 C 40.19371795654297 2.999992370605469 34.56270217895508 4.136497497558594 29.26338958740234 6.377906799316406 C 24.14333343505859 8.543510437011719 19.54441833496094 11.64437866210938 15.59440612792969 15.59439849853516 C 11.64440155029297 19.54439544677734 8.54351806640625 24.14329528808594 6.377914428710938 29.26335144042969 C 4.136505126953125 34.56266784667969 3.000007629394531 40.19366836547852 3.000007629394531 45.99993896484375 C 3.000007629394531 51.80620956420898 4.136505126953125 57.43722534179688 6.377914428710938 62.73654174804688 C 8.54351806640625 67.85658264160156 11.64440155029297 72.45548248291016 15.59440612792969 76.40549468994141 C 19.54441833496094 80.35549926757812 24.14333343505859 83.45636749267578 29.26337432861328 85.62196350097656 C 34.56270217895508 87.86338043212891 40.19371795654297 88.9998779296875 46.00000381469727 88.9998779296875 C 51.80628967285156 88.9998779296875 57.43730545043945 87.86338043212891 62.73663330078125 85.62196350097656 C 67.85667419433594 83.45636749267578 72.45558929443359 80.35549926757812 76.40560150146484 76.40549468994141 C 80.35560607910156 72.45548248291016 83.45648956298828 67.85658264160156 85.62208557128906 62.73654174804688 C 87.86350250244141 57.43722534179688 89 51.80620956420898 89 45.99993896484375 C 89 40.19366836547852 87.86350250244141 34.56266784667969 85.62208557128906 29.26335144042969 C 83.45648956298828 24.14329528808594 80.35560607910156 19.54439544677734 76.40560150146484 15.59439849853516 C 72.45558929443359 11.64437866210938 67.85667419433594 8.543510437011719 62.73661804199219 6.377906799316406 C 57.43730545043945 4.136497497558594 51.80628967285156 2.999992370605469 46.00000381469727 2.999992370605469 M 46.00000381469727 -7.62939453125e-06 C 71.40510559082031 -7.62939453125e-06 92 20.59487915039062 92 45.99993896484375 C 92 71.40501403808594 71.40510559082031 91.99988555908203 46.00000381469727 91.99988555908203 C 20.59490203857422 91.99988555908203 7.62939453125e-06 71.40501403808594 7.62939453125e-06 45.99993896484375 C 7.62939453125e-06 20.59487915039062 20.59490203857422 -7.62939453125e-06 46.00000381469727 -7.62939453125e-06 Z" stroke="none" fill="#86b60c"/>
                            </g>
                          </g>
                        </g>
                      </g>
                    </g>
                  </g>
                </g>
              </g>
            </g>
          </g>
        </g>
      </g>
    </g>
    <g id="organization_12966940" transform="translate(338.45 15074.499)">
      <g id="Grupo_1175967" data-name="Grupo 1175967" transform="translate(69.946 1.441)">
        <g id="Grupo_1175947" data-name="Grupo 1175947" transform="translate(18.389 8.095)">
          <path id="Trazado_1032251" data-name="Trazado 1032251" d="M217.277,68.074h2.073a8.9,8.9,0,0,1,3.579.313,3.812,3.812,0,0,1,2.293,3.486v3.785H213.478V71.874A3.808,3.808,0,0,1,217.277,68.074Z" transform="translate(-213.478 -68.045)" fill="#ff5ba8" fill-rule="evenodd"/>
        </g>
        <g id="Grupo_1175948" data-name="Grupo 1175948" transform="translate(20.183)">
          <path id="Trazado_1032252" data-name="Trazado 1032252" d="M230.964,15.683a4.079,4.079,0,1,0-4.079-4.079A4.087,4.087,0,0,0,230.964,15.683Z" transform="translate(-226.885 -7.525)" fill="#ffbfa8" fill-rule="evenodd"/>
        </g>
        <g id="Grupo_1175949" data-name="Grupo 1175949" transform="translate(18.389 8.125)">
          <path id="Trazado_1032253" data-name="Trazado 1032253" d="M214.541,75.849V72.064a3.808,3.808,0,0,1,3.8-3.8h-1.063a3.808,3.808,0,0,0-3.8,3.8v3.785Z" transform="translate(-213.478 -68.265)" fill="#ed4593" fill-rule="evenodd"/>
        </g>
        <g id="Grupo_1175950" data-name="Grupo 1175950" transform="translate(20.183 0)">
          <path id="Trazado_1032254" data-name="Trazado 1032254" d="M226.885,11.605a4.081,4.081,0,0,0,3.542,4.045h1.063c-.015,0-.034,0-.052-.007a4.081,4.081,0,0,1,.056-8.083,4.124,4.124,0,0,0-.529-.034A4.08,4.08,0,0,0,226.885,11.605Z" transform="translate(-226.885 -7.526)" fill="#fcac8f" fill-rule="evenodd"/>
        </g>
        <g id="Grupo_1175951" data-name="Grupo 1175951" transform="translate(36.409 34.78)">
          <path id="Trazado_1032255" data-name="Trazado 1032255" d="M351.994,267.572h2.073a8.9,8.9,0,0,1,3.579.313,3.817,3.817,0,0,1,2.293,3.486v3.785H348.2v-3.785A3.813,3.813,0,0,1,351.994,267.572Z" transform="translate(-348.195 -267.543)" fill="#fdd835" fill-rule="evenodd"/>
        </g>
        <g id="Grupo_1175952" data-name="Grupo 1175952" transform="translate(38.203 26.689)">
          <path id="Trazado_1032256" data-name="Trazado 1032256" d="M365.682,215.21a4.079,4.079,0,1,0-4.079-4.079A4.087,4.087,0,0,0,365.682,215.21Z" transform="translate(-361.603 -207.052)" fill="#ffbfa8" fill-rule="evenodd"/>
        </g>
        <g id="Grupo_1175953" data-name="Grupo 1175953" transform="translate(36.409 34.81)">
          <path id="Trazado_1032257" data-name="Trazado 1032257" d="M349.259,275.347v-3.784a3.813,3.813,0,0,1,3.8-3.8H352a3.813,3.813,0,0,0-3.8,3.8v3.784Z" transform="translate(-348.196 -267.763)" fill="#fbc02d" fill-rule="evenodd"/>
        </g>
        <g id="Grupo_1175954" data-name="Grupo 1175954" transform="translate(38.203 26.689)">
          <path id="Trazado_1032258" data-name="Trazado 1032258" d="M361.6,211.131a4.078,4.078,0,0,0,3.542,4.042h1.066a.218.218,0,0,1-.052-.007,4.078,4.078,0,0,1,.056-8.08,4.223,4.223,0,0,0-.533-.034A4.078,4.078,0,0,0,361.6,211.131Z" transform="translate(-361.603 -207.052)" fill="#fcac8f" fill-rule="evenodd"/>
        </g>
        <g id="Grupo_1175955" data-name="Grupo 1175955" transform="translate(18.389 34.78)">
          <path id="Trazado_1032259" data-name="Trazado 1032259" d="M217.277,267.572h2.073a8.9,8.9,0,0,1,3.579.313,3.816,3.816,0,0,1,2.293,3.486v3.785H213.478v-3.785A3.81,3.81,0,0,1,217.277,267.572Z" transform="translate(-213.478 -267.543)" fill="#a1a1f8" fill-rule="evenodd"/>
        </g>
        <g id="Grupo_1175956" data-name="Grupo 1175956" transform="translate(20.183 26.689)">
          <path id="Trazado_1032260" data-name="Trazado 1032260" d="M230.964,215.21a4.079,4.079,0,1,0-4.079-4.079A4.09,4.09,0,0,0,230.964,215.21Z" transform="translate(-226.885 -207.052)" fill="#ffbfa8" fill-rule="evenodd"/>
        </g>
        <g id="Grupo_1175957" data-name="Grupo 1175957" transform="translate(18.389 34.81)">
          <path id="Trazado_1032261" data-name="Trazado 1032261" d="M214.541,275.347v-3.784a3.81,3.81,0,0,1,3.8-3.8h-1.063a3.81,3.81,0,0,0-3.8,3.8v3.784Z" transform="translate(-213.478 -267.763)" fill="#9494f7" fill-rule="evenodd"/>
        </g>
        <g id="Grupo_1175958" data-name="Grupo 1175958" transform="translate(20.183 26.689)">
          <path id="Trazado_1032262" data-name="Trazado 1032262" d="M226.885,211.131a4.078,4.078,0,0,0,3.542,4.042h1.063a.29.29,0,0,1-.052-.007,4.079,4.079,0,0,1,.056-8.08,4.121,4.121,0,0,0-.529-.034A4.078,4.078,0,0,0,226.885,211.131Z" transform="translate(-226.885 -207.052)" fill="#fcac8f" fill-rule="evenodd"/>
        </g>
        <g id="Grupo_1175959" data-name="Grupo 1175959" transform="translate(0 34.78)">
          <path id="Trazado_1032263" data-name="Trazado 1032263" d="M79.8,267.572h2.073a8.9,8.9,0,0,1,3.579.313,3.816,3.816,0,0,1,2.293,3.486v3.785H76v-3.785A3.813,3.813,0,0,1,79.8,267.572Z" transform="translate(-76 -267.543)" fill="#fdd835" fill-rule="evenodd"/>
        </g>
        <g id="Grupo_1175960" data-name="Grupo 1175960" transform="translate(1.793 26.689)">
          <path id="Trazado_1032264" data-name="Trazado 1032264" d="M93.486,215.21a4.079,4.079,0,1,0-4.079-4.079A4.087,4.087,0,0,0,93.486,215.21Z" transform="translate(-89.407 -207.052)" fill="#ffbfa8" fill-rule="evenodd"/>
        </g>
        <g id="Grupo_1175961" data-name="Grupo 1175961" transform="translate(0 34.81)">
          <path id="Trazado_1032265" data-name="Trazado 1032265" d="M77.063,275.347v-3.784a3.813,3.813,0,0,1,3.8-3.8H79.8a3.813,3.813,0,0,0-3.8,3.8v3.784Z" transform="translate(-76 -267.763)" fill="#fbc02d" fill-rule="evenodd"/>
        </g>
        <g id="Grupo_1175962" data-name="Grupo 1175962" transform="translate(1.793 26.689)">
          <path id="Trazado_1032266" data-name="Trazado 1032266" d="M89.408,211.131a4.078,4.078,0,0,0,3.546,4.042h1.063a.218.218,0,0,1-.052-.007,4.078,4.078,0,0,1,.056-8.08,4.224,4.224,0,0,0-.533-.034A4.078,4.078,0,0,0,89.408,211.131Z" transform="translate(-89.408 -207.052)" fill="#fcac8f" fill-rule="evenodd"/>
        </g>
        <g id="Grupo_1175963" data-name="Grupo 1175963" transform="translate(0 42.394)">
          <path id="Trazado_1032267" data-name="Trazado 1032267" d="M124.154,324.46v4.072l-6.674,1.506a18.432,18.432,0,0,1-1.152,2.781l3.654,5.787-5.757,5.757-5.79-3.654a17.977,17.977,0,0,1-2.778,1.152l-1.51,6.678H96.007l-1.51-6.678a18.164,18.164,0,0,1-2.778-1.152l-5.79,3.654-5.753-5.757,3.654-5.787a18.056,18.056,0,0,1-1.156-2.781L76,328.531V324.46Z" transform="translate(-76 -324.46)" fill="#00d696" fill-rule="evenodd"/>
        </g>
        <g id="Grupo_1175964" data-name="Grupo 1175964" transform="translate(0 42.394)">
          <path id="Trazado_1032268" data-name="Trazado 1032268" d="M105.325,343.326l-1.178,5.212H96.007l-1.51-6.678a18.164,18.164,0,0,1-2.778-1.152l-5.79,3.654-5.753-5.757,3.654-5.787a18.057,18.057,0,0,1-1.156-2.781L76,328.531V324.46H88.237a25.264,25.264,0,0,0,17.088,18.866Z" transform="translate(-76 -324.46)" fill="#00c78b" fill-rule="evenodd"/>
        </g>
        <g id="Grupo_1175965" data-name="Grupo 1175965" transform="translate(12.118 42.394)">
          <path id="Trazado_1032269" data-name="Trazado 1032269" d="M190.511,324.46a11.959,11.959,0,1,1-23.919,0Z" transform="translate(-166.592 -324.46)" fill="#e4e3ff" fill-rule="evenodd"/>
        </g>
        <g id="Grupo_1175966" data-name="Grupo 1175966" transform="translate(12.118 42.394)">
          <path id="Trazado_1032270" data-name="Trazado 1032270" d="M181.42,336.074a12.676,12.676,0,0,1-12.353-11.614h-2.476a11.968,11.968,0,0,0,14.828,11.614Z" transform="translate(-166.592 -324.46)" fill="#d0d0f7" fill-rule="evenodd"/>
        </g>
      </g>
      <path id="Trazado_1032271" data-name="Trazado 1032271" d="M116.185,35.719c-.094-.041-.19-.077-.285-.11a5,5,0,0,0-2.741-8.321V24.358a3.716,3.716,0,0,0-3.712-3.712H95.129V18.061h4.954A.921.921,0,0,0,101,17.14V13.353a4.727,4.727,0,0,0-2.849-4.333c-.1-.041-.191-.077-.287-.111a5,5,0,1,0-7.324,0,4.731,4.731,0,0,0-3.134,4.447v3.787a.921.921,0,0,0,.921.921h4.954v2.585H78.6a3.716,3.716,0,0,0-3.712,3.712v2.929a5,5,0,0,0-2.744,8.319,4.731,4.731,0,0,0-3.132,4.447V41.2a.921.921,0,1,0,1.843,0V40.053a2.883,2.883,0,0,1,2.88-2.88h1.474a4.892,4.892,0,0,0,1.3-.013l.062,0a5.843,5.843,0,0,1,2.445.251,2.893,2.893,0,0,1,1.742,2.644V41.2a.921.921,0,1,0,1.843,0V40.053a4.737,4.737,0,0,0-2.849-4.334c-.094-.041-.19-.077-.285-.11a5,5,0,0,0-2.741-8.321V24.358A1.871,1.871,0,0,1,78.6,22.489H93.286v4.8a5,5,0,0,0-2.744,8.319,4.731,4.731,0,0,0-3.132,4.446V41.2a.921.921,0,1,0,1.843,0V40.053a2.883,2.883,0,0,1,2.88-2.88h1.474a4.893,4.893,0,0,0,1.3-.013l.062,0a5.844,5.844,0,0,1,2.445.251,2.893,2.893,0,0,1,1.742,2.644V41.2a.921.921,0,0,0,1.843,0V40.053a4.737,4.737,0,0,0-2.849-4.334c-.094-.041-.19-.077-.285-.11a5,5,0,0,0-2.741-8.321v-4.8h14.318a1.871,1.871,0,0,1,1.869,1.869v2.929a5,5,0,0,0-2.744,8.319,4.731,4.731,0,0,0-3.132,4.446V41.2a.921.921,0,1,0,1.843,0V40.053a2.883,2.883,0,0,1,2.88-2.88h1.474a4.893,4.893,0,0,0,1.3-.013l.062,0a5.85,5.85,0,0,1,2.445.251,2.893,2.893,0,0,1,1.742,2.644V41.2a.921.921,0,1,0,1.843,0V40.053a4.737,4.737,0,0,0-2.85-4.334ZM78.968,32.2a3.167,3.167,0,0,1-2.623,3.117c-.184.005-.363.009-.537.009h-.485A3.161,3.161,0,1,1,78.968,32.2ZM94.207,2.344a3.16,3.16,0,0,1,.513,6.277c-.175,0-.346.009-.513.009H93.75a3.16,3.16,0,0,1,.457-6.286Zm3.16,29.86a3.167,3.167,0,0,1-2.623,3.117c-.184.005-.363.009-.537.009h-.485A3.161,3.161,0,1,1,97.367,32.2ZM89.253,16.218V13.353a2.883,2.883,0,0,1,2.88-2.88h1.5a4.879,4.879,0,0,0,1.239-.012l.1,0a5.845,5.845,0,0,1,2.447.252,2.885,2.885,0,0,1,1.74,2.643v2.865Zm23.521,19.1c-.184.005-.363.009-.537.009h-.485a3.162,3.162,0,1,1,1.022-.009Zm5.339,7.6H103.269a.921.921,0,1,0,0,1.843h1.757a11.041,11.041,0,0,1-22.006,0h1.757a.921.921,0,1,0,0-1.843H69.932a.922.922,0,0,0-.921.921v4.074a.921.921,0,0,0,.719.9L75.9,50.2a19.433,19.433,0,0,0,.806,1.944L73.328,57.5a.921.921,0,0,0,.128,1.144l5.76,5.76a.921.921,0,0,0,1.143.128l5.356-3.38a19.579,19.579,0,0,0,1.94.805l1.4,6.177a.922.922,0,0,0,.9.718h8.144a.921.921,0,0,0,.9-.718l1.4-6.177a19.214,19.214,0,0,0,1.942-.8l5.355,3.379a.922.922,0,0,0,1.143-.128l5.76-5.76a.922.922,0,0,0,.127-1.144l-3.38-5.352a19.478,19.478,0,0,0,.806-1.944l6.172-1.393a.921.921,0,0,0,.719-.9V43.839a.921.921,0,0,0-.921-.921Zm-.921,4.259-5.959,1.345a.921.921,0,0,0-.675.618,17.581,17.581,0,0,1-1.1,2.644.921.921,0,0,0,.041.912l3.263,5.167-4.719,4.719-5.171-3.263a.921.921,0,0,0-.915-.039,17.3,17.3,0,0,1-2.638,1.094.921.921,0,0,0-.617.674L97.359,67.01H90.688l-1.349-5.963a.921.921,0,0,0-.617-.674,17.686,17.686,0,0,1-2.641-1.1.922.922,0,0,0-.912.041L80,62.581l-4.719-4.719L78.542,52.7a.921.921,0,0,0,.041-.912,17.582,17.582,0,0,1-1.1-2.644.922.922,0,0,0-.675-.618l-5.959-1.345V44.761H81.168a12.888,12.888,0,0,0,25.709,0h10.314Z"/>
    </g>
  </g>
</svg>
