<svg xmlns="http://www.w3.org/2000/svg" width="29.797" height="34.247" viewBox="0 0 29.797 34.247">
  <path id="development" d="M75.881,35.769l-2.565-4.432a13.065,13.065,0,0,0,.349-3,13.687,13.687,0,0,0-27.365,0,13.2,13.2,0,0,0,4.471,9.86V48.82a.427.427,0,0,0,.426.426H66.314a.427.427,0,0,0,.426-.426V45.8h3.349a3.325,3.325,0,0,0,3.322-3.322v-3.49l1.852-1.014a1.6,1.6,0,0,0,.618-2.205Zm-.665,1a.7.7,0,0,1-.361.455l-2.074,1.135a.426.426,0,0,0-.222.374v3.742a2.472,2.472,0,0,1-2.469,2.469H66.314a.427.427,0,0,0-.426.426v3.02H51.624V38a.426.426,0,0,0-.148-.323,12.351,12.351,0,0,1-4.323-9.344,12.834,12.834,0,0,1,25.658,0,12.218,12.218,0,0,1-.364,2.965.426.426,0,0,0,.045.317l2.651,4.58A.705.705,0,0,1,75.216,36.772ZM69.571,26.4l-2.124-.35a8.024,8.024,0,0,0-.584-1.408l1.255-1.751a.427.427,0,0,0-.045-.55L65.788,20.06a.425.425,0,0,0-.55-.045l-1.75,1.255a8.072,8.072,0,0,0-1.408-.584l-.35-2.124a.426.426,0,0,0-.421-.357H58.077a.427.427,0,0,0-.421.357l-.35,2.124a8.063,8.063,0,0,0-1.408.584L54.15,20.015a.427.427,0,0,0-.55.045l-2.285,2.285a.426.426,0,0,0-.045.55l1.255,1.749a8.118,8.118,0,0,0-.584,1.408l-2.124.35a.426.426,0,0,0-.357.421v3.231a.427.427,0,0,0,.357.421l2.124.35a8.024,8.024,0,0,0,.584,1.408L51.27,33.983a.427.427,0,0,0,.045.55L53.6,36.818a.425.425,0,0,0,.55.045l1.75-1.255c.243.129.493.245.747.349a6.2,6.2,0,0,1,.033.625v.329a.427.427,0,0,0,.392.425v1.2a2.623,2.623,0,0,0,5.245,0v-1.2a.426.426,0,0,0,.392-.425v-.329a6.007,6.007,0,0,1,.033-.625,7.927,7.927,0,0,0,.747-.349l1.749,1.255a.426.426,0,0,0,.549-.045l2.285-2.285a.426.426,0,0,0,.045-.55l-1.255-1.749a8.117,8.117,0,0,0,.584-1.408l2.124-.35a.426.426,0,0,0,.357-.421V26.823a.425.425,0,0,0-.357-.421ZM57.924,38.4v-1.06h3.54V38.4Zm3.932-1.913h-.635V32.216a2.332,2.332,0,0,0,1.628-1.824.426.426,0,1,0-.84-.145,1.47,1.47,0,0,1-1.265,1.2.426.426,0,0,0-.375.423v4.614h-1.35V31.872a.427.427,0,0,0-.375-.423,1.47,1.47,0,0,1-1.265-1.2.426.426,0,0,0-.84.145,2.329,2.329,0,0,0,1.628,1.824v4.268h-.635a6.112,6.112,0,0,0-1.761-4.277,5.44,5.44,0,1,1,7.847,0A6.111,6.111,0,0,0,61.856,36.484ZM59.693,40.31a1.772,1.772,0,0,1-1.621-1.06h3.241A1.77,1.77,0,0,1,59.693,40.31Zm9.382-10.617-2.032.335a.427.427,0,0,0-.342.309,7.211,7.211,0,0,1-.711,1.714.427.427,0,0,0,.023.461l1.2,1.674-1.773,1.773-1.674-1.2a.427.427,0,0,0-.461-.023c-.117.067-.237.13-.357.19A5.3,5.3,0,0,1,64.231,32.8a6.293,6.293,0,1,0-9.076,0,5.3,5.3,0,0,1,1.283,2.127c-.121-.06-.24-.123-.357-.19a.427.427,0,0,0-.461.023l-1.675,1.2-1.773-1.773,1.2-1.675a.427.427,0,0,0,.023-.461,7.218,7.218,0,0,1-.711-1.713.426.426,0,0,0-.342-.309l-2.033-.335V27.184l2.032-.335a.427.427,0,0,0,.342-.309,7.228,7.228,0,0,1,.711-1.714.427.427,0,0,0-.023-.461l-1.2-1.674,1.773-1.773,1.674,1.2a.427.427,0,0,0,.461.023,7.228,7.228,0,0,1,1.714-.711.426.426,0,0,0,.309-.342l.335-2.032h2.508l.335,2.032a.427.427,0,0,0,.309.342,7.223,7.223,0,0,1,1.713.711.426.426,0,0,0,.461-.023l1.675-1.2,1.773,1.773-1.2,1.675a.427.427,0,0,0-.023.461,7.218,7.218,0,0,1,.711,1.713.426.426,0,0,0,.342.309l2.033.335v2.508Z" transform="translate(-46.3 -15)"/>
</svg>
