<svg xmlns="http://www.w3.org/2000/svg" xmlns:xlink="http://www.w3.org/1999/xlink" width="295" height="259.069" viewBox="0 0 295 259.069">
  <defs>
    <clipPath id="clip-path">
      <rect id="Rectángulo_414747" data-name="Rectángulo 414747" width="295" height="246" transform="translate(390.461 7863)" fill="#fff" stroke="#707070" stroke-width="1" opacity="0.75"/>
    </clipPath>
  </defs>
  <g id="Grupo_1175245" data-name="Grupo 1175245" transform="translate(-390.461 -7863)">
    <g id="Enmascarar_grupo_1098803" data-name="Enmascarar grupo 1098803" clip-path="url(#clip-path)">
      <g id="Grupo_1175243" data-name="Grupo 1175243" transform="translate(-2743.372 198.959)">
        <ellipse id="Elipse_12134" data-name="Elipse 12134" cx="114.761" cy="114.761" rx="114.761" ry="114.761" transform="translate(3167.029 7675.436)" fill="#9eaf9e"/>
        <g id="Grupo_1175214" data-name="Grupo 1175214" transform="translate(3162.632 7676.035)">
          <g id="Grupo_1175211" data-name="Grupo 1175211" transform="translate(24.941 26.942)">
            <path id="Trazado_1031235" data-name="Trazado 1031235" d="M131.427,141.641a3.221,3.221,0,1,0-3.221,3.221A3.221,3.221,0,0,0,131.427,141.641Z" transform="translate(-104.652 -117.143)" fill="#f2e1c5"/>
            <path id="Trazado_1031236" data-name="Trazado 1031236" d="M123.842,146.8c-.1,0-.189,0-.283,0l.025-.886a8.919,8.919,0,0,0,2.231-.223l.2.863A9.577,9.577,0,0,1,123.842,146.8Zm-2.723-.395a9.474,9.474,0,0,1-2.257-1.009l.464-.756a8.6,8.6,0,0,0,2.046.915Zm7.213-.728-.418-.781a8.658,8.658,0,0,0,1.823-1.306l.6.648A9.54,9.54,0,0,1,128.332,145.681Zm-11.391-1.836a9.543,9.543,0,0,1-1.459-2l.777-.426a8.671,8.671,0,0,0,1.324,1.81Zm14.975-1.508-.751-.472a8.564,8.564,0,0,0,.935-2.037l.847.261A9.478,9.478,0,0,1,131.915,142.338Zm-17.329-2.793a9.57,9.57,0,0,1-.272-2.268l0-.189.886.018,0,.171a8.671,8.671,0,0,0,.246,2.057Zm18.775-1.891-.886-.034c0-.114.006-.228.006-.343a8.665,8.665,0,0,0-.288-2.223l.857-.227a9.554,9.554,0,0,1,.318,2.45Q133.369,137.467,133.362,137.654Zm-17.826-2.765-.852-.244a9.5,9.5,0,0,1,.986-2.268l.76.457A8.567,8.567,0,0,0,115.536,134.889Zm15.8-1.907a8.691,8.691,0,0,0-1.359-1.784l.629-.623a9.576,9.576,0,0,1,1.5,1.966Zm-13.517-1.9-.618-.636a9.58,9.58,0,0,1,1.982-1.479l.433.774A8.66,8.66,0,0,0,117.823,131.077Zm10.389-1.256a8.625,8.625,0,0,0-2.064-.873l.236-.855a9.521,9.521,0,0,1,2.277.964Zm-6.51-.917-.219-.859a9.545,9.545,0,0,1,2.359-.294h.095l-.008.886h-.086A8.669,8.669,0,0,0,121.7,128.9Z" transform="translate(-100.288 -112.779)" fill="#f2e1c5"/>
            <path id="Trazado_1031237" data-name="Trazado 1031237" d="M119.13,148.807a16.3,16.3,0,0,1-2.418-.213l.144-.875a15.252,15.252,0,0,0,2.286.2Zm2.423-.151-.121-.879a15.1,15.1,0,0,0,2.242-.485l.253.85A16.059,16.059,0,0,1,121.553,148.656Zm-7.2-.639a15.966,15.966,0,0,1-2.244-.929l.4-.791a15.043,15.043,0,0,0,2.119.877Zm11.842-.745-.379-.8a15.147,15.147,0,0,0,1.993-1.137l.5.735A16,16,0,0,1,126.195,147.272Zm-16.163-1.442a16.115,16.115,0,0,1-1.863-1.556l.618-.636a15.319,15.319,0,0,0,1.761,1.47Zm20.177-1.269-.6-.651a15.34,15.34,0,0,0,1.564-1.678l.691.554A16.164,16.164,0,0,1,130.209,144.56Zm-23.649-2.105a16.076,16.076,0,0,1-1.317-2.04l.779-.423a15.286,15.286,0,0,0,1.245,1.927Zm26.673-1.675-.768-.443a15.12,15.12,0,0,0,.992-2.067l.826.322A16.1,16.1,0,0,1,133.233,140.78ZM104.249,138.2a15.864,15.864,0,0,1-.645-2.343l.871-.169a15.054,15.054,0,0,0,.609,2.213Zm30.741-1.929-.865-.192a15.246,15.246,0,0,0,.326-2.271l.885.059A16.071,16.071,0,0,1,134.99,136.269Zm-31.668-2.825c-.009-.222-.014-.445-.014-.668a16.413,16.413,0,0,1,.1-1.758l.881.1a15.564,15.564,0,0,0-.09,1.662q0,.316.013.631Zm32.05-.668h-.886a15.306,15.306,0,0,0-.172-2.288l.877-.133A16.294,16.294,0,0,1,135.372,132.775Zm-30.666-3.916-.856-.229a15.99,15.99,0,0,1,.8-2.292l.812.356A15.012,15.012,0,0,0,104.706,128.859Zm29.093-.606a15.054,15.054,0,0,0-.849-2.132l.8-.39a16.03,16.03,0,0,1,.9,2.257Zm-27.256-3.581-.748-.475a16.149,16.149,0,0,1,1.451-1.946l.669.582A15.2,15.2,0,0,0,106.543,124.672Zm25.244-.528a15.3,15.3,0,0,0-1.449-1.78l.644-.61a16.178,16.178,0,0,1,1.532,1.884Zm-22.239-2.922-.573-.677a16.159,16.159,0,0,1,1.965-1.427l.465.755A15.149,15.149,0,0,0,109.547,121.221Zm19.092-.4a15.23,15.23,0,0,0-1.91-1.269l.433-.774a16.127,16.127,0,0,1,2.022,1.343Zm-15.2-2L113.1,118a15.956,15.956,0,0,1,2.3-.773l.217.859A15.027,15.027,0,0,0,113.443,118.821Zm11.207-.234a15.078,15.078,0,0,0-2.2-.638l.181-.868a15.978,15.978,0,0,1,2.333.675Zm-6.772-.887-.084-.882a16.484,16.484,0,0,1,2.427-.05l-.048.885A15.507,15.507,0,0,0,117.878,117.7Z" transform="translate(-95.786 -108.277)" fill="#f2e1c5"/>
            <path id="Trazado_1031238" data-name="Trazado 1031238" d="M113.25,151a23.488,23.488,0,0,1-2.4-.236l.132-.876a22.572,22.572,0,0,0,2.305.227Zm2.408-.011-.049-.885a22.471,22.471,0,0,0,2.3-.247l.14.875A23.242,23.242,0,0,1,115.657,150.992Zm-7.163-.709a23.2,23.2,0,0,1-2.3-.726l.311-.83a22.226,22.226,0,0,0,2.207.7Zm11.912-.052-.23-.856a22.214,22.214,0,0,0,2.2-.718l.319.828A23.317,23.317,0,0,1,120.406,150.231ZM103.989,148.6a23.53,23.53,0,0,1-2.1-1.186l.476-.748a22.5,22.5,0,0,0,2.016,1.141ZM124.9,148.5l-.4-.79a22.323,22.323,0,0,0,2.006-1.158l.482.743A23.141,23.141,0,0,1,124.9,148.5Zm-24.965-2.49a23.437,23.437,0,0,1-1.808-1.591l.619-.634a22.367,22.367,0,0,0,1.739,1.53Zm29-.128-.556-.69a22.418,22.418,0,0,0,1.726-1.545l.625.629A23.272,23.272,0,0,1,128.932,145.886Zm-32.443-3.232a23.346,23.346,0,0,1-1.444-1.928l.736-.494a22.648,22.648,0,0,0,1.389,1.855Zm35.857-.158-.686-.561a22.529,22.529,0,0,0,1.373-1.866l.741.488A23.378,23.378,0,0,1,132.346,142.5ZM93.808,138.66a23.311,23.311,0,0,1-1.017-2.185l.823-.331a22.172,22.172,0,0,0,.977,2.1Zm41.183-.18-.787-.408a22.232,22.232,0,0,0,.958-2.109l.826.324A23.224,23.224,0,0,1,134.991,138.48ZM92.009,134.2a23.405,23.405,0,0,1-.541-2.346l.873-.154a22.322,22.322,0,0,0,.521,2.257ZM136.751,134l-.854-.236a22.476,22.476,0,0,0,.5-2.262l.874.147A23.224,23.224,0,0,1,136.751,134Zm-45.578-4.542c-.04-.552-.06-1.114-.06-1.671q0-.369.012-.736l.886.028q-.011.353-.011.708c0,.536.02,1.077.057,1.608Zm46.372-.2-.885-.056c.029-.467.044-.943.044-1.414a22.868,22.868,0,0,0-.118-2.313l.882-.091a23.639,23.639,0,0,1,.123,2.4C137.591,128.28,137.576,128.774,137.546,129.259ZM92.2,124.773l-.878-.118a23.164,23.164,0,0,1,.445-2.367l.862.209A22.245,22.245,0,0,0,92.2,124.773Zm44.028-1.586a22.252,22.252,0,0,0-.592-2.239l.844-.271a23.16,23.16,0,0,1,.616,2.329Zm-42.936-2.909-.835-.3a23.3,23.3,0,0,1,.926-2.223l.8.383A22.264,22.264,0,0,0,93.294,120.278Zm41.522-1.5a22.507,22.507,0,0,0-1.044-2.068l.769-.44a23.326,23.326,0,0,1,1.086,2.151Zm-39.523-2.675-.755-.464a23.453,23.453,0,0,1,1.365-1.984l.7.54A22.508,22.508,0,0,0,95.293,116.107Zm37.227-1.342a22.825,22.825,0,0,0-1.447-1.81l.663-.589a23.661,23.661,0,0,1,1.5,1.881Zm-34.411-2.33-.644-.609a23.507,23.507,0,0,1,1.742-1.663l.579.673A22.438,22.438,0,0,0,98.109,112.436Zm31.338-1.131a22.547,22.547,0,0,0-1.786-1.475l.528-.712a23.372,23.372,0,0,1,1.857,1.533Zm-27.83-1.886-.505-.728a23.239,23.239,0,0,1,2.047-1.27l.428.776A22.67,22.67,0,0,0,101.617,109.418Zm24.115-.871a22.629,22.629,0,0,0-2.051-1.076l.371-.8a23.224,23.224,0,0,1,2.132,1.118Zm-20.061-1.36-.345-.817a23.22,23.22,0,0,1,2.265-.82l.258.849A22.262,22.262,0,0,0,105.671,107.186Zm15.859-.572a22.269,22.269,0,0,0-2.229-.628l.2-.865a23.021,23.021,0,0,1,2.318.652Zm-11.432-.772-.168-.871a23.181,23.181,0,0,1,2.385-.332l.077.883A22.389,22.389,0,0,0,110.1,105.842Zm6.921-.248a22.946,22.946,0,0,0-2.311-.154l.014-.886a23.717,23.717,0,0,1,2.4.161Z" transform="translate(-90.799 -103.292)" fill="#f2e1c5"/>
            <path id="Trazado_1031239" data-name="Trazado 1031239" d="M122.581,129.718A1.885,1.885,0,1,0,120.7,131.6,1.886,1.886,0,0,0,122.581,129.718Z" transform="translate(-102.127 -112.813)" fill="#f2e1c5"/>
            <ellipse id="Elipse_12135" data-name="Elipse 12135" cx="1.885" cy="1.885" rx="1.885" ry="1.885" transform="translate(26.73 45.226)" fill="#f2e1c5"/>
            <path id="Trazado_1031240" data-name="Trazado 1031240" d="M94.352,130.945a1.885,1.885,0,1,0-1.885,1.885A1.885,1.885,0,0,0,94.352,130.945Z" transform="translate(-90.581 -113.315)" fill="#f2e1c5"/>
            <ellipse id="Elipse_12136" data-name="Elipse 12136" cx="1.885" cy="1.885" rx="1.885" ry="1.885" transform="translate(28.327 8.653)" fill="#f2e1c5"/>
            <path id="Trazado_1031241" data-name="Trazado 1031241" d="M119.391,165.229a1.885,1.885,0,1,0-1.885,1.885A1.885,1.885,0,0,0,119.391,165.229Z" transform="translate(-100.822 -127.337)" fill="#f2e1c5"/>
            <path id="Trazado_1031242" data-name="Trazado 1031242" d="M145.473,149.552a1.885,1.885,0,1,0-1.885,1.885A1.885,1.885,0,0,0,145.473,149.552Z" transform="translate(-111.49 -120.925)" fill="#f2e1c5"/>
            <path id="Trazado_1031243" data-name="Trazado 1031243" d="M169.587,146.362a1.885,1.885,0,1,0-1.885,1.885A1.885,1.885,0,0,0,169.587,146.362Z" transform="translate(-121.352 -119.62)" fill="#f2e1c5"/>
            <path id="Trazado_1031244" data-name="Trazado 1031244" d="M131.016,104.3a1.885,1.885,0,1,0-1.885,1.885A1.885,1.885,0,0,0,131.016,104.3Z" transform="translate(-105.577 -102.418)" fill="#f2e1c5"/>
            <path id="Trazado_1031245" data-name="Trazado 1031245" d="M156.488,137.115A1.885,1.885,0,1,0,154.6,139,1.885,1.885,0,0,0,156.488,137.115Z" transform="translate(-115.995 -115.838)" fill="#f2e1c5"/>
          </g>
          <g id="Grupo_1175212" data-name="Grupo 1175212" transform="translate(0 0)">
            <path id="Trazado_1031246" data-name="Trazado 1031246" d="M56.895,208.552l-.269-.2.536-.706.265.2Zm-2.136-1.684c-.647-.54-1.249-1.073-1.79-1.587l.612-.642c.526.5,1.113,1.021,1.746,1.548ZM51.3,203.544a16.219,16.219,0,0,1-1.454-1.945l.751-.471a15.366,15.366,0,0,0,1.374,1.837Zm-2.524-4.164a7.572,7.572,0,0,1-.4-2.393v-.073l.886.012v.061a6.69,6.69,0,0,0,.355,2.113Zm.879-4.612-.836-.3a10.39,10.39,0,0,1,1.1-2.189l.742.484A9.49,9.49,0,0,0,49.659,194.768Zm2.409-3.8-.66-.592c.5-.555,1.069-1.126,1.7-1.7l.6.655C53.1,189.88,52.547,190.43,52.068,190.963Zm3.412-3.141-.55-.7c.587-.464,1.228-.946,1.907-1.429l.515.721C56.685,186.9,56.055,187.367,55.48,187.823Zm3.807-2.727-.488-.74q.954-.629,2-1.276l.466.754Q60.23,184.474,59.286,185.1Zm4-2.475-.449-.764q.992-.582,2.057-1.18l.434.773Q64.268,182.044,63.283,182.622Zm4.106-2.308-.422-.78q1.016-.55,2.091-1.114l.412.785Q68.4,179.767,67.389,180.314Zm4.174-2.193-.4-.79q1.032-.527,2.113-1.067l.4.793Q72.592,177.6,71.563,178.121Zm4.222-2.109-.389-.8q1.042-.511,2.128-1.033l.385.8Q76.825,175.5,75.785,176.012Zm4.253-2.047-.379-.8q1.05-.5,2.141-1.006l.375.8Q81.087,173.468,80.039,173.965Zm4.279-2-.371-.8q1.057-.489,2.149-.986l.368.806Q85.374,171.478,84.317,171.965Zm4.3-1.962-.365-.808q1.063-.48,2.157-.97l.362.809Q89.676,169.523,88.614,170Zm4.311-1.933-.361-.81,2.162-.958.359.811Q93.991,167.6,92.925,168.071Zm4.322-1.91-.356-.812,2.166-.948.355.813Zm4.331-1.891-.353-.813,2.17-.94.352.814Zm4.338-1.876-.35-.814,2.171-.933.35.815Zm4.344-1.862-.349-.815,2.174-.928.348.816Zm4.348-1.853-.347-.816,2.177-.924.346.816Zm4.352-1.846-.346-.816,2.177-.921.345.817Zm4.354-1.839-.345-.817,2.178-.918.344.817Zm4.356-1.834-.343-.817,2.179-.915.343.817Zm4.358-1.83-.343-.818,2.18-.914.343.818Zm4.36-1.827-.342-.818,2.181-.913.342.818Zm4.362-1.831-.346-.816q1.1-.465,2.169-.93l.353.813Q141.849,147.206,140.75,147.672Zm4.344-1.881-.359-.811q1.09-.481,2.155-.963l.365.808Q146.186,145.308,145.094,145.791Zm4.315-1.949-.371-.8q1.081-.5,2.138-1l.378.8Q150.494,143.343,149.41,143.843Zm4.282-2.019-.385-.8q1.074-.519,2.12-1.035l.392.795Q154.769,141.3,153.692,141.824Zm4.245-2.1-.4-.791q1.063-.539,2.1-1.076l.409.787Q159,139.186,157.937,139.726Zm4.2-2.183-.418-.782q1.052-.561,2.076-1.121l.426.777Q163.2,136.98,162.142,137.543Zm4.154-2.275-.435-.772q1.04-.585,2.048-1.17l.444.767Q167.341,134.681,166.3,135.269Zm4.1-2.376-.455-.761q1.025-.613,2.015-1.223l.466.755Q171.425,132.277,170.4,132.892Zm4.034-2.489-.477-.747q1.007-.642,1.977-1.282l.488.74Q175.442,129.758,174.429,130.4Zm3.956-2.612-.5-.731q.985-.676,1.931-1.348l.514.722Q179.378,127.113,178.385,127.791Zm3.863-2.751-.528-.712q.96-.713,1.876-1.421l.543.7Q183.217,124.322,182.248,125.041Zm3.752-2.9-.559-.689q.929-.754,1.809-1.5l.575.674Q186.937,121.376,186,122.136Zm3.613-3.08-.592-.66q.89-.8,1.726-1.595l.611.642Q190.512,118.247,189.613,119.056Zm3.441-3.276-.631-.623c.552-.558,1.1-1.129,1.622-1.7l.651.6C194.165,114.636,193.613,115.215,193.054,115.781Zm3.223-3.5-.673-.576c.513-.6,1.014-1.209,1.487-1.812l.7.548C197.306,111.055,196.8,111.674,196.276,112.283Zm2.94-3.745-.721-.516c.458-.639.9-1.291,1.313-1.936l.746.478C200.133,107.222,199.683,107.886,199.216,108.538Zm2.57-4.016-.771-.437c.387-.683.752-1.378,1.086-2.066l.8.388C202.556,103.111,202.182,103.822,201.786,104.521Zm2.086-4.3-.821-.333c.293-.725.56-1.461.792-2.188l.845.269C204.448,98.72,204.174,99.477,203.872,100.223Zm1.451-4.561-.863-.2c.175-.756.318-1.525.424-2.282l.879.123C205.652,94.086,205.5,94.88,205.323,95.662Zm.663-4.75-.886-.04q.025-.555.025-1.1,0-.613-.031-1.216l.885-.046q.033.628.032,1.263Q206.011,90.338,205.986,90.912Zm-1.126-4.665c-.116-.762-.271-1.527-.461-2.272l.859-.219c.2.774.358,1.567.479,2.357Zm-1.142-4.489c-.259-.719-.557-1.44-.887-2.144l.8-.376c.342.729.651,1.476.92,2.22Zm-1.966-4.2c-.382-.66-.8-1.32-1.249-1.963l.729-.506c.46.663.893,1.344,1.287,2.025ZM199.1,73.73c-.482-.593-1-1.184-1.536-1.756l.647-.606c.551.587,1.082,1.194,1.577,1.8Zm-3.188-3.4c-.563-.527-1.154-1.045-1.755-1.543l.564-.683c.616.509,1.219,1.04,1.8,1.579Zm-3.6-2.981c-.62-.456-1.267-.9-1.923-1.334l.486-.742c.669.439,1.329.9,1.962,1.362ZM188.4,64.777c-.664-.388-1.354-.768-2.051-1.131l.408-.787c.71.369,1.413.756,2.09,1.152Zm-4.156-2.161c-.7-.322-1.425-.632-2.15-.922l.329-.823c.739.3,1.476.612,2.191.94Zm-48.321-1.51-.274-.843c.034-.011.845-.273,2.3-.653l.223.858C136.746,60.84,135.931,61.1,135.923,61.106Zm43.977-.229c-.731-.253-1.482-.493-2.231-.715l.252-.85c.761.225,1.525.47,2.269.727Zm-39.438-.966-.2-.865c.706-.161,1.484-.329,2.325-.5l.173.869C141.931,59.585,141.162,59.751,140.463,59.911Zm34.946-.364c-.746-.186-1.515-.361-2.286-.519l.179-.868c.782.161,1.563.338,2.322.528Zm-30.33-.556-.15-.873q1.121-.192,2.347-.372l.128.878Q146.191,58.8,145.078,58.99Zm25.74-.39c-.759-.125-1.541-.239-2.322-.339l.112-.879c.792.1,1.584.216,2.355.343Zm-21.082-.286-.1-.88q1.149-.137,2.363-.249l.081.883Q150.875,58.178,149.736,58.314Zm16.427-.306c-.765-.07-1.554-.128-2.343-.173l.05-.885c.8.046,1.6.1,2.372.176Zm-11.741-.124L154.365,57q1.166-.074,2.374-.119l.032.886Q155.576,57.81,154.422,57.885Zm7.051-.145q-.944-.023-1.872-.022h-.479l0-.886h.484q.938,0,1.893.022Z" transform="translate(-48.379 -56.831)" fill="#f2e1c5"/>
            <path id="Trazado_1031247" data-name="Trazado 1031247" d="M89.09,214.713l-.675-.3.358-.811.675.3Zm-2.837-1.262q-1.1-.494-2.155-.978l.369-.807q1.055.483,2.15.975Zm-4.3-1.97q-1.094-.51-2.141-1.008l.381-.8q1.044.5,2.135,1.005Zm-4.274-2.035q-1.087-.528-2.124-1.045l.4-.794q1.033.515,2.116,1.043Zm-4.237-2.112q-1.082-.553-2.1-1.091l.413-.784q1.016.535,2.093,1.086Zm-4.191-2.209q-1.072-.583-2.073-1.148l.436-.772q1,.561,2.061,1.141Zm-4.128-2.33q-1.06-.622-2.032-1.222l.465-.755q.965.595,2.016,1.213ZM61.082,200.3q-1.042-.678-1.971-1.326l.506-.728q.919.641,1.948,1.311Zm-3.9-2.722c-.663-.5-1.291-1-1.865-1.486l.571-.678c.563.475,1.178.964,1.829,1.457Zm-3.642-3.09a21.968,21.968,0,0,1-1.635-1.768l.686-.562a21.12,21.12,0,0,0,1.569,1.7Zm-3.014-3.78a7.027,7.027,0,0,1-.825-2.363l.878-.122a6.162,6.162,0,0,0,.726,2.062Zm.336-4.54-.806-.368a5.737,5.737,0,0,1,1.575-1.988l.57.679A4.872,4.872,0,0,0,50.864,186.169Zm3.242-2.886-.393-.795a17.431,17.431,0,0,1,2.251-.911l.279.842A16.558,16.558,0,0,0,54.106,183.283Zm4.378-1.482-.2-.865c1.369-.309,2.345-.421,2.386-.426l.1.881C60.765,181.393,59.8,181.5,58.485,181.8Z" transform="translate(-48.921 -107.417)" fill="#f2e1c5"/>
          </g>
          <g id="Grupo_1175213" data-name="Grupo 1175213" transform="translate(174.008 32.959)">
            <path id="Trazado_1031248" data-name="Trazado 1031248" d="M360.894,155.622a4.052,4.052,0,0,1-1.658-.5,3.888,3.888,0,0,1-.734-.537l.6-.65a3.02,3.02,0,0,0,.567.415,3.178,3.178,0,0,0,1.3.389Zm2.5-.349-.278-.842a10.967,10.967,0,0,0,2.056-.954l.447.765A11.808,11.808,0,0,1,363.395,155.273Zm4.226-2.39-.541-.7c.583-.45,1.179-.956,1.771-1.5l.6.651C368.841,151.894,368.225,152.417,367.621,152.883ZM357.17,152.4a9.791,9.791,0,0,1-.448-2.429l.884-.06a8.916,8.916,0,0,0,.4,2.208Zm13.982-2.763-.647-.606c.52-.553,1.041-1.142,1.55-1.752l.68.569C372.215,148.471,371.682,149.073,371.152,149.638Zm-13.52-2.024-.884-.069c.059-.756.165-1.559.313-2.386l.872.157C357.79,146.114,357.688,146.887,357.631,147.614Zm16.586-1.637-.709-.532c.46-.613.92-1.254,1.365-1.906l.732.5C375.153,144.7,374.686,145.354,374.218,145.977Zm-15.783-2.938-.859-.222c.193-.749.419-1.521.671-2.3l.842.274C358.844,141.554,358.623,142.308,358.435,143.039Zm18.471-1-.754-.467c.41-.661.813-1.34,1.195-2.019q.368-.652.712-1.3l.784.415q-.35.66-.723,1.322C377.73,140.68,377.322,141.369,376.906,142.041Zm-17.032-3.45-.828-.319c.281-.728.586-1.47.91-2.2l.811.356C360.448,137.147,360.148,137.876,359.873,138.591Zm20.043-2.051-.8-.381c.343-.72.666-1.439.962-2.138l.816.345C380.592,135.077,380.264,135.808,379.916,136.54ZM361.759,134.3l-.8-.392c.346-.7.716-1.41,1.1-2.113l.778.426C362.463,132.912,362.1,133.613,361.759,134.3Zm20.01-2.154-.832-.306c.272-.742.523-1.488.745-2.217l.849.258C382.3,130.627,382.047,131.389,381.769,132.147Zm-17.758-1.961-.76-.457c.412-.684.84-1.362,1.273-2.015l.739.489C364.836,128.847,364.415,129.513,364.011,130.186Zm19.144-2.613-.863-.2c.186-.785.335-1.553.445-2.284l.876.132C383.5,125.973,383.345,126.765,383.155,127.573Zm-16.555-1.3-.716-.522c.478-.656.967-1.293,1.453-1.894l.689.557C367.549,125.008,367.069,125.633,366.6,126.277Zm17.248-3.46-.885-.035q.012-.321.012-.63a12.529,12.529,0,0,0-.1-1.653l.878-.118a13.409,13.409,0,0,1,.11,1.771Q383.861,122.479,383.847,122.817Zm-14.3-.179-.658-.595c.548-.608,1.107-1.187,1.66-1.723l.618.636C370.624,121.479,370.079,122.045,369.544,122.638ZM372.9,119.4l-.563-.685a21.54,21.54,0,0,1,1.943-1.431l.482.744A20.577,20.577,0,0,0,372.9,119.4Zm9.384-1.039a3.5,3.5,0,0,0-1.358-1.56l.449-.764a4.366,4.366,0,0,1,1.708,1.943Zm-5.513-1.417-.345-.817a7.748,7.748,0,0,1,2.415-.628l.066.884A6.853,6.853,0,0,0,376.768,116.946Z" transform="translate(-348.501 -113.786)" fill="#f2e1c5"/>
            <path id="Trazado_1031249" data-name="Trazado 1031249" d="M379.183,153.653q-.326,0-.664-.012l.033-.886a13.647,13.647,0,0,0,2.285-.09l.117.879A13.46,13.46,0,0,1,379.183,153.653Zm-3.065-.247c-.753-.114-1.545-.268-2.355-.458l.2-.863c.786.184,1.554.334,2.285.444Zm7.238-.534-.383-.8a3.5,3.5,0,0,0,1.56-1.358l.764.449A4.366,4.366,0,0,1,383.356,152.872Zm-11.9-.55c-.741-.226-1.5-.482-2.265-.761l.3-.832c.746.273,1.492.524,2.218.745Zm-4.484-1.637c-.727-.307-1.458-.637-2.174-.979l.382-.8c.7.336,1.423.66,2.137.962Zm17.979-1.99a6.857,6.857,0,0,0-.561-2.136l.817-.345a7.773,7.773,0,0,1,.628,2.415Zm-22.281-.06q-.66-.35-1.324-.724c-.7-.392-1.385-.8-2.05-1.214l.467-.754c.655.407,1.334.809,2.018,1.195q.654.369,1.3.713ZM357.3,145.4c-.658-.449-1.31-.916-1.938-1.388l.532-.709c.618.465,1.259.924,1.906,1.365Zm26.009-.847a20.9,20.9,0,0,0-1.372-1.863l.684-.563a21.589,21.589,0,0,1,1.431,1.943Zm-29.817-2.024c-.625-.521-1.226-1.054-1.79-1.584l.607-.647c.551.518,1.141,1.04,1.751,1.55Zm26.891-1.571c-.523-.539-1.089-1.084-1.683-1.62l.595-.658c.608.548,1.188,1.108,1.724,1.66Zm-30.371-1.71c-.57-.617-1.093-1.234-1.554-1.833l.7-.541c.444.578.95,1.174,1.5,1.771Zm26.91-1.428c-.592-.478-1.218-.957-1.859-1.425l.522-.716c.653.476,1.291.964,1.894,1.451Zm-29.824-2.406a11.806,11.806,0,0,1-1.03-2.225l.841-.278a11.032,11.032,0,0,0,.954,2.057Zm26.039-.356c-.646-.428-1.313-.849-1.983-1.252l.457-.759c.681.41,1.359.837,2.015,1.272Zm-4.017-2.421c-.69-.377-1.389-.742-2.081-1.083l.392-.795c.7.348,1.414.717,2.113,1.1ZM346.6,130.762l-.883-.076a4.052,4.052,0,0,1,.5-1.657,3.913,3.913,0,0,1,.537-.734l.651.6a3.052,3.052,0,0,0-.415.567A3.162,3.162,0,0,0,346.6,130.762Zm18.314-.2c-.721-.318-1.45-.619-2.166-.894l.319-.827c.729.28,1.471.586,2.206.91Zm-4.372-1.677c-.758-.246-1.513-.467-2.243-.655l.222-.859c.748.194,1.519.419,2.295.671ZM349.216,127.8l-.281-.84a9.8,9.8,0,0,1,2.428-.449l.061.884A8.962,8.962,0,0,0,349.216,127.8Zm6.8-.078c-.8-.144-1.574-.245-2.3-.3l.069-.884c.754.059,1.557.164,2.387.313Z" transform="translate(-343.998 -118.29)" fill="#f2e1c5"/>
            <path id="Trazado_1031250" data-name="Trazado 1031250" d="M355.254,152.69l-.028-.886c.757-.024,1.542-.072,2.334-.143l.079.883C356.831,152.617,356.029,152.666,355.254,152.69Zm-2.4-.006c-.837-.033-1.643-.1-2.4-.2l.114-.879c.726.095,1.506.158,2.316.19Zm7.152-.415-.125-.878c.762-.108,1.541-.237,2.312-.382l.165.871C361.577,152.028,360.787,152.159,360.011,152.269Zm-11.923-.235a11.851,11.851,0,0,1-2.3-.845l.4-.792a10.92,10.92,0,0,0,2.128.779Zm16.608-.648-.2-.863c.755-.177,1.519-.373,2.272-.583q.727-.2,1.437-.421l.26.848q-.721.221-1.459.427C366.237,151.007,365.462,151.206,364.7,151.386Zm-20.924-1.716a4.033,4.033,0,0,1-.82-1.529,3.9,3.9,0,0,1-.139-.892l.886-.037a3.045,3.045,0,0,0,.108.692,3.162,3.162,0,0,0,.644,1.194Zm26.954-.05-.3-.836c.742-.262,1.479-.542,2.191-.832l.333.821C372.229,149.068,371.478,149.353,370.724,149.62Zm4.419-1.8-.374-.8c.721-.335,1.426-.686,2.1-1.042l.417.782C376.6,147.124,375.879,147.481,375.143,147.824Zm4.213-2.256-.467-.753c.686-.425,1.335-.863,1.93-1.3l.527.713C380.732,144.678,380.062,145.13,379.356,145.567Zm-35.154-.408-.794-.395a9.843,9.843,0,0,1,1.4-2.035l.668.582A8.936,8.936,0,0,0,344.2,145.159Zm39-2.469-.6-.65a13.317,13.317,0,0,0,1.55-1.68l.705.537A14.237,14.237,0,0,1,383.207,142.691Zm-36.091-.987-.576-.674c.576-.492,1.218-.985,1.909-1.467l.507.728C348.288,140.756,347.669,141.231,347.116,141.7Zm3.8-2.669-.45-.764c.665-.392,1.37-.779,2.1-1.149l.4.79C352.258,138.274,351.568,138.652,350.918,139.035Zm35.159-.309-.837-.294a3.894,3.894,0,0,0,.235-1.287,3.02,3.02,0,0,0-.1-.773l.858-.226a3.908,3.908,0,0,1,.128,1A4.776,4.776,0,0,1,386.077,138.726Zm-31-1.82-.36-.81c.713-.317,1.454-.625,2.2-.916l.321.826C356.51,136.291,355.782,136.595,355.082,136.906Zm4.368-1.7-.285-.84c.744-.252,1.509-.493,2.273-.717l.249.85C360.934,134.719,360.182,134.957,359.45,135.205Zm24.791-.553a6.922,6.922,0,0,0-1.909-1.112l.333-.822a7.783,7.783,0,0,1,2.154,1.262Zm-20.29-.765-.213-.86c.772-.192,1.555-.369,2.324-.525l.177.868C365.482,133.524,364.712,133.7,363.951,133.887Zm4.593-.934-.137-.875c.8-.125,1.593-.23,2.366-.313l.093.881C370.109,132.728,369.328,132.831,368.544,132.954Zm11.6-.066a20.642,20.642,0,0,0-2.287-.345l.086-.882a21.588,21.588,0,0,1,2.386.361Zm-6.946-.427-.045-.885c.645-.033,1.277-.051,1.894-.049q.253,0,.5,0l-.014.886c-.165,0-.332-.006-.5,0C374.439,132.413,373.822,132.429,373.2,132.461Z" transform="translate(-342.811 -120.34)" fill="#f2e1c5"/>
            <path id="Trazado_1031251" data-name="Trazado 1031251" d="M377.454,156.149l-.034-.886a3,3,0,0,0,.692-.107,3.168,3.168,0,0,0,1.194-.644l.572.678a4.047,4.047,0,0,1-1.528.82A3.88,3.88,0,0,1,377.454,156.149Zm-2.482-.6a9.81,9.81,0,0,1-2.035-1.4l.582-.668a8.907,8.907,0,0,0,1.848,1.273Zm6.425-2.377-.792-.4a10.885,10.885,0,0,0,.778-2.129l.858.225A11.858,11.858,0,0,1,381.4,153.175Zm-10.16-.754c-.492-.576-.986-1.218-1.466-1.909l.727-.506c.465.667.94,1.285,1.414,1.839ZM382.7,148.5l-.879-.113c.094-.729.158-1.509.19-2.316l.885.035C382.859,146.935,382.793,147.741,382.7,148.5Zm-14.216,0c-.39-.661-.777-1.367-1.149-2.1l.79-.4c.364.714.742,1.4,1.122,2.05Zm-2.176-4.253c-.316-.71-.624-1.451-.916-2.2l.826-.321c.287.738.59,1.466.9,2.163Zm15.708-.5c-.024-.76-.072-1.545-.143-2.334l.883-.08c.073.806.122,1.608.147,2.385Zm-17.437-3.94c-.25-.738-.491-1.5-.717-2.272l.851-.249c.222.759.459,1.512.705,2.237Zm17.024-.72c-.105-.75-.233-1.528-.382-2.312l.872-.164c.15.8.281,1.59.388,2.353Zm-18.363-3.852c-.194-.78-.371-1.562-.525-2.325l.869-.176c.152.75.326,1.52.516,2.288Zm17.5-.754c-.174-.748-.371-1.512-.582-2.272q-.2-.727-.421-1.437l.847-.261q.222.721.428,1.46c.215.771.413,1.548.591,2.308Zm-18.444-3.916c-.125-.8-.23-1.592-.313-2.365l.882-.095c.081.758.184,1.54.307,2.322Zm16.706-2.02c-.264-.744-.543-1.482-.831-2.191l.822-.333c.293.722.577,1.472.846,2.229Zm-17.207-2.726c-.032-.644-.049-1.28-.049-1.892q0-.252,0-.5l.886.012q0,.242,0,.488c0,.6.017,1.218.048,1.847Zm15.443-1.614c-.336-.723-.686-1.428-1.042-2.1l.783-.417c.363.681.72,1.4,1.063,2.139ZM362.752,121.1l-.882-.086a21.347,21.347,0,0,1,.361-2.386l.867.186A20.566,20.566,0,0,0,362.752,121.1Zm12.271-1.032c-.424-.685-.862-1.334-1.3-1.929l.713-.527c.454.615.906,1.284,1.343,1.989Zm-11.273-3.443-.822-.333a7.78,7.78,0,0,1,1.262-2.154l.673.578A6.907,6.907,0,0,0,363.75,116.629Zm8.5-.273a13.456,13.456,0,0,0-1.679-1.549l.538-.7a14.319,14.319,0,0,1,1.791,1.651Zm-3.608-2.636a3.492,3.492,0,0,0-2.06-.137l-.225-.858a4.374,4.374,0,0,1,2.579.158Z" transform="translate(-350.551 -112.599)" fill="#f2e1c5"/>
          </g>
        </g>
        <g id="Grupo_1175225" data-name="Grupo 1175225" transform="translate(3202.728 7684.827)">
          <g id="Grupo_1175216" data-name="Grupo 1175216" transform="translate(122.995 72.008)">
            <path id="Trazado_1031252" data-name="Trazado 1031252" d="M371.838,283.139s5.14-29.947-1.977-52.684-17.4-28.274-27.088-17.4c-3.525,3.956-5.138,13.57-5.765,24.2-1.095,18.59.828,40.29.828,40.29a116.7,116.7,0,0,1-10.9,33.739c-2.222,4.234,6.243,16.744,9.5,24.144,5.31,12.051,20.213,20,21.949,25.52l-11.716-.3,8.157,5.423,48.244-4.532S395.96,309.527,371.838,283.139Z" transform="translate(-326.574 -207.68)" fill="#3b0315"/>
            <path id="Trazado_1031253" data-name="Trazado 1031253" d="M389.648,326a.444.444,0,0,1-.34-.158c-3.284-3.891-15.1-5.064-15.223-5.076a.445.445,0,0,1,.085-.886c.5.049,12.3,1.22,15.819,5.388a.445.445,0,0,1-.34.731Z" transform="translate(-344.385 -250.1)" fill="#1f1007"/>
            <g id="Grupo_1175215" data-name="Grupo 1175215" transform="translate(13.757 3.045)">
              <path id="Trazado_1031254" data-name="Trazado 1031254" d="M364.679,244.737a.446.446,0,0,1-.434-.348c-5.475-24.5-14.916-22.732-15.012-22.712a.445.445,0,0,1-.19-.869c.423-.094,10.4-1.963,16.071,23.386a.446.446,0,0,1-.337.532A.478.478,0,0,1,364.679,244.737Z" transform="translate(-348.693 -215.664)" fill="#652c15"/>
              <path id="Trazado_1031255" data-name="Trazado 1031255" d="M370.046,236.76a.445.445,0,0,1-.44-.384c-1.217-8.853-4.108-14.906-8.593-17.992a11.682,11.682,0,0,0-8.561-2,.445.445,0,0,1-.2-.866,12.409,12.409,0,0,1,9.266,2.133c4.7,3.234,7.718,9.493,8.971,18.6a.445.445,0,0,1-.38.5A.523.523,0,0,1,370.046,236.76Z" transform="translate(-349.908 -213.62)" fill="#652c15"/>
              <path id="Trazado_1031256" data-name="Trazado 1031256" d="M373.748,228.6a.445.445,0,0,1-.435-.358c-1.324-6.619-4.4-11.115-9.134-13.362a14.291,14.291,0,0,0-6.7-1.4.445.445,0,0,1-.081-.886c.136-.009,13.486-1.039,16.789,15.476a.445.445,0,0,1-.349.523A.428.428,0,0,1,373.748,228.6Z" transform="translate(-351.831 -212.576)" fill="#652c15"/>
            </g>
          </g>
          <g id="Grupo_1175218" data-name="Grupo 1175218" transform="translate(45.758 0)">
            <path id="Trazado_1031257" data-name="Trazado 1031257" d="M221.03,191.315s-6.715-6.875,1.758-11.671,13.11,5.836,13.11,5.836l-6.076,7.114Z" transform="translate(-208.479 -124.602)" fill="#1f1007"/>
            <path id="Trazado_1031258" data-name="Trazado 1031258" d="M216.694,146.939s-9.113-1.919-11.831-10.233c0,0-8.473-15.028,5.916-26.219,0,0-3.677-5.6,1.439-9.273,0,0,6.076-15.988,26.38-6.076,0,0,6.076-3.517,14.069.959s7.834,15.988,6.555,16.788a16.94,16.94,0,0,1,2.718,18.226s-1.119,10.712-9.912,13.59S216.694,146.939,216.694,146.939Z" transform="translate(-202.384 -91.898)" fill="#1f1007"/>
            <g id="Grupo_1175217" data-name="Grupo 1175217" transform="translate(8.074 2.921)">
              <path id="Trazado_1031259" data-name="Trazado 1031259" d="M216.458,158.827a.32.32,0,0,1-.093-.626,22.948,22.948,0,0,0,3.6-1.406.32.32,0,1,1,.334.545,22.909,22.909,0,0,1-3.751,1.472A.325.325,0,0,1,216.458,158.827Z" transform="translate(-215.658 -119.337)" fill="#4c2110"/>
              <path id="Trazado_1031260" data-name="Trazado 1031260" d="M215.687,121.037a.32.32,0,0,1-.177-.586,9.971,9.971,0,0,1,4.311-1.491.315.315,0,0,1,.341.3.319.319,0,0,1-.3.341,9.474,9.474,0,0,0-4,1.386A.321.321,0,0,1,215.687,121.037Z" transform="translate(-215.367 -105.049)" fill="#4c2110"/>
              <path id="Trazado_1031261" data-name="Trazado 1031261" d="M218,106.3a.319.319,0,0,1-.172-.589c.15-.1,3.722-2.322,6.888-.487a.32.32,0,0,1-.32.554c-2.83-1.639-6.193.452-6.226.473A.324.324,0,0,1,218,106.3Z" transform="translate(-216.242 -99.583)" fill="#4c2110"/>
              <path id="Trazado_1031262" data-name="Trazado 1031262" d="M242.48,123.5a.316.316,0,0,1-.2-.068c-2.168-1.692-3.313-3.556-3.4-5.54a7.058,7.058,0,0,1,2.1-5.017.319.319,0,1,1,.438.465,6.528,6.528,0,0,0-1.9,4.528c.084,1.787,1.146,3.49,3.158,5.059a.32.32,0,0,1-.2.572Z" transform="translate(-224.254 -102.717)" fill="#4c2110"/>
              <path id="Trazado_1031263" data-name="Trazado 1031263" d="M251.421,102.156a.32.32,0,0,1-.3-.433,8.223,8.223,0,0,1,5.836-5.123.32.32,0,0,1,.116.629,7.723,7.723,0,0,0-5.354,4.722A.32.32,0,0,1,251.421,102.156Z" transform="translate(-228.877 -96.594)" fill="#4c2110"/>
              <path id="Trazado_1031264" data-name="Trazado 1031264" d="M286.637,125.551a.32.32,0,0,1-.115-.618,7.209,7.209,0,0,1,4.539,0,.32.32,0,0,1-.215.6,6.677,6.677,0,0,0-4.094,0A.324.324,0,0,1,286.637,125.551Z" transform="translate(-242.191 -107.165)" fill="#4c2110"/>
            </g>
          </g>
          <path id="Trazado_1031265" data-name="Trazado 1031265" d="M216.6,197.242s34.8,3.362,51.407,11.27c9.592,4.567,1,29.693-4.936,64.491-3.538,20.756-11.392,37.032-17.406,43.464,0,0,34.7,29.559,37.962,39.939s-154.814,1.779-154.814,1.779l8.008-87.491V208.116s24.616-10.973,58.426-12.456Z" transform="translate(-128.811 -131.127)" fill="#3b0315"/>
          <path id="Trazado_1031266" data-name="Trazado 1031266" d="M237.905,276.621c-2.459,0-4.786-.1-6.915-.246a108.111,108.111,0,0,1-18.886-3c-23.864,6.7-67.034-4.956-67.468-5.074a.445.445,0,0,1,.235-.859c.432.119,43.505,11.754,67.109,5.043a.448.448,0,0,1,.241,0,105.959,105.959,0,0,0,18.85,3c9.851.693,24.023.244,35.567-5.834a.445.445,0,1,1,.415.788C257.822,275.3,246.971,276.621,237.905,276.621Z" transform="translate(-134.671 -158.261)" fill="#652c15"/>
          <g id="Grupo_1175220" data-name="Grupo 1175220" transform="translate(32.317 64.533)">
            <path id="Trazado_1031267" data-name="Trazado 1031267" d="M270.853,202.978a287.7,287.7,0,0,0-34.609-5.736l-21.353-1.582a184.794,184.794,0,0,0-34.117,4.774c1.092,6.911,5.949,27.915,24.954,31.211l.636,40.533a28.064,28.064,0,0,0,20.464,7.711c12.975-.4,19.37-7.908,19.37-7.908v-40.73A45.224,45.224,0,0,0,270.853,202.978Z" transform="translate(-180.774 -195.66)" fill="#ffc999"/>
            <g id="Grupo_1175219" data-name="Grupo 1175219" transform="translate(5.598 0.698)">
              <path id="Trazado_1031268" data-name="Trazado 1031268" d="M239.662,212.6c-17.936,0-22.08-15.438-22.121-15.6l.862-.22c.162.634,4.206,15.515,22.31,14.91,11.215-.378,15.85-7.344,17.764-13.122l.845.28c-2,6.046-6.851,13.335-18.578,13.731C240.378,212.594,240.016,212.6,239.662,212.6Z" transform="translate(-200.272 -196.783)" fill="#652c15"/>
              <path id="Trazado_1031269" data-name="Trazado 1031269" d="M232.955,280.5h-.89V217.691c-10.325-.736-16.161-5.957-19.25-10.239a25.749,25.749,0,0,1-4.294-9.371l.874-.164c.034.177,3.579,17.761,23.141,18.913l.419.024Z" transform="translate(-196.862 -197.212)" fill="#652c15"/>
              <path id="Trazado_1031270" data-name="Trazado 1031270" d="M262.27,281.444h-.89V218.017l.4-.036c13.689-1.227,17.571-12.313,18.605-17.022l.869.19c-1.065,4.854-5.043,16.219-18.989,17.678Z" transform="translate(-216.847 -198.362)" fill="#652c15"/>
              <path id="Trazado_1031271" data-name="Trazado 1031271" d="M223.717,280.022l-.225-57.266c-20.893-3.543-24.51-23.016-24.545-23.213l.876-.152c.034.192,3.6,19.278,24.182,22.548l.373.06.228,58.019Z" transform="translate(-193.243 -197.769)" fill="#652c15"/>
              <path id="Trazado_1031272" data-name="Trazado 1031272" d="M269.5,280.91h-.889V223.184l.376-.059c4.311-.675,14.933-4.034,20.449-20.6l.845.281A41.338,41.338,0,0,1,284.2,214.49c-4.044,5.278-8.986,8.457-14.693,9.451Z" transform="translate(-219.581 -198.955)" fill="#652c15"/>
              <path id="Trazado_1031273" data-name="Trazado 1031273" d="M215.478,278.193h-.889V228.362c-21.977-3.581-24.787-26.892-24.813-27.129l.884-.1c.026.231,2.8,23.136,24.44,26.405l.378.057Z" transform="translate(-189.775 -198.429)" fill="#652c15"/>
              <path id="Trazado_1031274" data-name="Trazado 1031274" d="M276.951,279.437l-.032-50.454.381-.055c13.5-1.948,20.934-18.955,22.893-24.122l.832.316a58.444,58.444,0,0,1-7.368,13.688c-4.7,6.3-10.026,9.977-15.849,10.939l.032,49.687Z" transform="translate(-222.721 -199.817)" fill="#652c15"/>
              <rect id="Rectángulo_414742" data-name="Rectángulo 414742" width="0.89" height="65.699" transform="translate(40.317 17.831)" fill="#652c15"/>
            </g>
            <path id="Trazado_1031275" data-name="Trazado 1031275" d="M255.821,219.925a2.543,2.543,0,1,0-2.543,2.544A2.543,2.543,0,0,0,255.821,219.925Z" transform="translate(-207.224 -203.872)" fill="#be6b1b"/>
          </g>
          <path id="Trazado_1031276" data-name="Trazado 1031276" d="M326.894,329.44a.441.441,0,0,1-.207-.051.446.446,0,0,1-.187-.6c4.886-9.31,8.736-21.223,10.842-33.551-.108-1.261-1.881-22.355-.824-40.3a.445.445,0,0,1,.889.052c-1.081,18.343.808,40.008.827,40.224a.441.441,0,0,1,0,.114c-2.12,12.437-6.005,24.466-10.94,33.871A.444.444,0,0,1,326.894,329.44Z" transform="translate(-203.532 -153.381)" fill="#1f1007"/>
          <path id="Trazado_1031277" data-name="Trazado 1031277" d="M386.876,448.833" transform="translate(-226.377 -226.844)" fill="none" stroke="#000" stroke-miterlimit="10" stroke-width="0.477"/>
          <g id="Grupo_1175224" data-name="Grupo 1175224" transform="translate(58.309 22.586)">
            <path id="Trazado_1031278" data-name="Trazado 1031278" d="M228.737,189.22s2.29,11.963,15.374,11.643,13.084-9.923,13.084-9.923v-4.626L228.737,180.4S229.538,187.808,228.737,189.22Z" transform="translate(-224.898 -147.944)" fill="#e28450"/>
            <path id="Trazado_1031279" data-name="Trazado 1031279" d="M229.058,184.031s10.91,11.651,20.1,10.691,9.433-9.993,9.433-9.993Z" transform="translate(-225.02 -149.317)" fill="#1f1007"/>
            <g id="Grupo_1175223" data-name="Grupo 1175223">
              <path id="Trazado_1031280" data-name="Trazado 1031280" d="M222.565,146.28s.722,12.991,4.038,16.648,14.474,8.569,21.366,7.711,8.969-3.735,10.728-5.653,5.276-9.433,4.956-14.069-1.439-9.913-1.439-12.151.16-4.62-.16-5.587c0,0-7.514-.648-10.392-4.965,0,0-6.235,5.6-15.349.8,0,0-6.361,3.038-7.577,5.756S228,143.4,222.565,146.28Z" transform="translate(-222.565 -128.214)" fill="#e28450"/>
              <path id="Trazado_1031281" data-name="Trazado 1031281" d="M264.952,164.523c-.675,0-1.437-.035-2.292-.105a.384.384,0,1,1,.062-.765c3.223.262,5.118.012,5.637-.744.286-.417.185-1.058-.338-2.144-1.052-2.187-2.07-9.169-2.112-9.465a.384.384,0,0,1,.759-.11c.011.072,1.042,7.161,2.044,9.241.464.965.861,2.065.279,2.913C268.444,164.142,267.168,164.523,264.952,164.523Z" transform="translate(-237.59 -136.776)" fill="#1f1007"/>
              <path id="Trazado_1031282" data-name="Trazado 1031282" d="M281,146.708a7.388,7.388,0,0,0-5.5-.639c-2.718.96-3.678.8-3.837-.959s3.891-4.077,9.34-1.519C281,143.59,282.188,145.588,281,146.708Z" transform="translate(-241.125 -133.598)" fill="#1f1007"/>
              <path id="Trazado_1031283" data-name="Trazado 1031283" d="M236.237,148.237a14.92,14.92,0,0,1,7.594-1.36c4.237.4,5.676,1.04,6-.8s-2.478-4.077-8.713-2.8-7.675,5.357-6.955,5.516A3.768,3.768,0,0,0,236.237,148.237Z" transform="translate(-226.884 -133.768)" fill="#1f1007"/>
              <path id="Trazado_1031284" data-name="Trazado 1031284" d="M279.89,163.094c0,1.942,1.933,3.517,4.317,3.517a5.351,5.351,0,0,0,.748-.056,13.707,13.707,0,0,0,.372-3.781c-.071-1.027-.182-2.085-.31-3.134a5.313,5.313,0,0,0-.809-.064C281.823,159.576,279.89,161.151,279.89,163.094Z" transform="translate(-244.238 -140.071)" fill="#ee5c39"/>
              <path id="Trazado_1031285" data-name="Trazado 1031285" d="M243.336,164.414c0,1.942-2.428,3.517-5.424,3.517s-5.423-1.575-5.423-3.517,2.428-3.518,5.423-3.518S243.336,162.471,243.336,164.414Z" transform="translate(-226.317 -140.57)" fill="#ee5c39"/>
              <path id="Trazado_1031286" data-name="Trazado 1031286" d="M262.028,179.6a16.227,16.227,0,0,1-5.654-1.078.384.384,0,1,1,.294-.709c.052.021,5.167,2.094,9.364.238a.384.384,0,1,1,.311.7A10.645,10.645,0,0,1,262.028,179.6Z" transform="translate(-235.258 -146.954)" fill="#1f1007"/>
              <g id="Grupo_1175221" data-name="Grupo 1175221" transform="translate(32.296 13.11)">
                <path id="Trazado_1031287" data-name="Trazado 1031287" d="M274.494,152.731a3.955,3.955,0,0,1,3.977-3.437c3.6-.04,3.977,2.631,3.977,2.631Z" transform="translate(-274.494 -149.293)" fill="#aa633c"/>
                <path id="Trazado_1031288" data-name="Trazado 1031288" d="M274.494,153.534s5.279,2.625,7.955-.806A5.615,5.615,0,0,0,274.494,153.534Z" transform="translate(-274.494 -150.096)" fill="#f2e1c5"/>
                <path id="Trazado_1031289" data-name="Trazado 1031289" d="M282.449,152.555c0,.95-.573,1.72-1.279,1.72s-1.279-.77-1.279-1.72.573-1.719,1.279-1.719S282.449,151.606,282.449,152.555Z" transform="translate(-276.534 -149.877)" fill="#1f1007"/>
              </g>
              <g id="Grupo_1175222" data-name="Grupo 1175222" transform="translate(11.257 14.07)">
                <path id="Trazado_1031290" data-name="Trazado 1031290" d="M240.665,154.274a4.223,4.223,0,0,1,4.483-3.437c4.056-.04,4.484,2.631,4.484,2.631Z" transform="translate(-240.665 -150.836)" fill="#aa633c"/>
                <path id="Trazado_1031291" data-name="Trazado 1031291" d="M240.665,155.077s5.951,2.626,8.968-.806A6.9,6.9,0,0,0,240.665,155.077Z" transform="translate(-240.665 -151.639)" fill="#f2e1c5"/>
                <ellipse id="Elipse_12137" data-name="Elipse 12137" cx="1.442" cy="1.719" rx="1.442" ry="1.719" transform="translate(3.784 0.96)" fill="#1f1007"/>
              </g>
            </g>
          </g>
        </g>
        <g id="Grupo_1175226" data-name="Grupo 1175226" transform="translate(3379.501 7819.806)">
          <path id="Trazado_1031292" data-name="Trazado 1031292" d="M433.909,358.409a15.24,15.24,0,0,1-7.838-28.31.557.557,0,0,1,.2-.146c.027-.011,2.751-1.218,2.751-3.674V310.41a.6.6,0,0,1,.6-.6h8.471a.6.6,0,0,1,.6.6v15.87a3.977,3.977,0,0,0,1.959,3.218,15.242,15.242,0,0,1-6.74,28.912Zm-6.979-27.441a.519.519,0,0,1-.1.075,14.041,14.041,0,1,0,21.12,12.125,13.962,13.962,0,0,0-7.867-12.613.533.533,0,0,1-.07-.04,5.231,5.231,0,0,1-2.523-4.235v-15.27h-7.272v15.27C430.219,329.127,427.664,330.6,426.93,330.967Z" transform="translate(-415.17 -309.262)" fill="#f2e1c5"/>
          <path id="Trazado_1031293" data-name="Trazado 1031293" d="M444.6,311.291H432.965a1.181,1.181,0,0,1-1.181-1.181h0a1.181,1.181,0,0,1,1.181-1.181H444.6a1.181,1.181,0,0,1,1.181,1.181h0A1.181,1.181,0,0,1,444.6,311.291Z" transform="translate(-420.129 -308.929)" fill="#f2e1c5"/>
          <path id="Trazado_1031294" data-name="Trazado 1031294" d="M443.411,426.9a.6.6,0,0,1-.6-.6V381.338a.6.6,0,1,1,1.2,0V426.3A.6.6,0,0,1,443.411,426.9Z" transform="translate(-424.298 -336.078)" fill="#1f1007"/>
          <path id="Trazado_1031295" data-name="Trazado 1031295" d="M423.917,364.748a11.982,11.982,0,0,0,23.779,0Z" transform="translate(-417.155 -330.032)" fill="#d1c345"/>
          <path id="Trazado_1031296" data-name="Trazado 1031296" d="M413.644,426.975a.62.62,0,0,1-.115-.011.6.6,0,0,1-.474-.7l8.7-44.959a.6.6,0,0,1,.588-.486h18.376a.6.6,0,0,1,.585.47l9.948,44.8a.6.6,0,1,1-1.171.26l-9.843-44.326h-17.4l-8.611,44.473A.6.6,0,0,1,413.644,426.975Z" transform="translate(-413.044 -336.108)" fill="#1f1007"/>
        </g>
        <g id="Grupo_1175227" data-name="Grupo 1175227" transform="translate(3349.278 7842.065)">
          <path id="Trazado_1031297" data-name="Trazado 1031297" d="M384.7,417.159c-11.166,0-20.25-9.95-20.25-22.181a22.79,22.79,0,0,1,9.85-19.03.54.54,0,0,1,.207-.177c.157-.075,3.837-1.863,3.837-5.688V346.693a.6.6,0,0,1,.6-.6h11.37a.6.6,0,0,1,.6.6v23.391a6.245,6.245,0,0,0,2.753,5c6.963,3.771,11.285,11.388,11.285,19.891C404.948,407.209,395.864,417.159,384.7,417.159Zm-9.469-40.412a.522.522,0,0,1-.113.1,21.554,21.554,0,0,0-9.469,18.132c0,11.569,8.546,20.981,19.051,20.981s19.051-9.412,19.051-20.981c0-8.077-4.1-15.3-10.693-18.856a.514.514,0,0,1-.072-.045,7.54,7.54,0,0,1-3.273-5.993V347.292h-10.17v22.792C379.542,374.155,376.136,376.259,375.229,376.747Z" transform="translate(-364.448 -345.238)" fill="#f2e1c5"/>
          <rect id="Rectángulo_414744" data-name="Rectángulo 414744" width="16.212" height="3.006" rx="1.503" transform="translate(12.027 0)" fill="#f2e1c5"/>
        </g>
        <path id="Trazado_1031298" data-name="Trazado 1031298" d="M226.166,442.318" transform="translate(3037.11 7460.446)" fill="#3b0315"/>
        <g id="Grupo_1175236" data-name="Grupo 1175236" transform="translate(3177.883 7756.014)">
          <g id="Grupo_1175230" data-name="Grupo 1175230" transform="translate(98.565 129.377)">
            <g id="Grupo_1175228" data-name="Grupo 1175228" transform="translate(0 16.925)">
              <path id="Trazado_1031299" data-name="Trazado 1031299" d="M393.521,449.739c0-3.851,1.171-7.1,2.775-8.142l-16.671,5.349-5.635,3.648,3.213,12.061,2.422,1.123,17.777-5.541C395.258,458.236,393.521,454.432,393.521,449.739Z" transform="translate(-295.225 -441.597)" fill="#f2e1c5"/>
              <path id="Trazado_1031300" data-name="Trazado 1031300" d="M328.613,458.434c0-4.132,1.347-7.571,3.131-8.335v-.162H250.927v.033c-2,.335-3.582,3.992-3.582,8.464s1.578,8.129,3.582,8.463v.033h80.817v-.161C329.96,466,328.613,462.565,328.613,458.434Z" transform="translate(-247.345 -444.75)" fill="#ce3d21"/>
              <path id="Trazado_1031301" data-name="Trazado 1031301" d="M253.1,446.784l80.818.161,16.671-5.348h-79Z" transform="translate(-249.522 -441.597)" fill="#740509"/>
              <rect id="Rectángulo_414745" data-name="Rectángulo 414745" width="38.54" height="7.101" transform="translate(11.102 9.783)" fill="#96231a"/>
            </g>
            <g id="Grupo_1175229" data-name="Grupo 1175229" transform="translate(2.38)">
              <path id="Trazado_1031302" data-name="Trazado 1031302" d="M397.347,422.525c0-3.851,1.17-7.1,2.775-8.142l-16.671,5.349-5.635,3.648,3.212,12.06,2.422,1.123,17.777-5.541C399.084,431.022,397.347,427.217,397.347,422.525Z" transform="translate(-299.052 -414.383)" fill="#f2e1c5"/>
              <path id="Trazado_1031303" data-name="Trazado 1031303" d="M332.438,431.22c0-4.132,1.347-7.571,3.132-8.335v-.162H254.753v.033c-2,.335-3.582,3.992-3.582,8.464s1.578,8.129,3.582,8.463v.033H335.57v-.161C333.785,438.791,332.438,435.351,332.438,431.22Z" transform="translate(-251.171 -417.536)" fill="#96231a"/>
              <path id="Trazado_1031304" data-name="Trazado 1031304" d="M256.93,419.57l80.818.161,16.671-5.348h-79Z" transform="translate(-253.348 -414.383)" fill="#740509"/>
              <path id="Trazado_1031305" data-name="Trazado 1031305" d="M386.7,446.633a.3.3,0,0,1-.086-.58l17.777-5.38a.3.3,0,0,1,.172.568l-17.777,5.38A.29.29,0,0,1,386.7,446.633Z" transform="translate(-302.296 -424.317)" fill="#1f1007"/>
              <path id="Trazado_1031306" data-name="Trazado 1031306" d="M268.887,439.9a.89.89,0,0,1-.794-.488c-3.8-7.488-.183-16.321-.027-16.693a.89.89,0,0,1,1.642.685c-.035.084-3.447,8.458-.028,15.2a.889.889,0,0,1-.793,1.292Z" transform="translate(-256.915 -417.327)" fill="#fc982b"/>
              <path id="Trazado_1031307" data-name="Trazado 1031307" d="M278.425,439.9a.889.889,0,0,1-.794-.487c-3.8-7.489-.183-16.321-.027-16.694a.89.89,0,0,1,1.642.686c-.035.084-3.447,8.458-.027,15.2a.889.889,0,0,1-.793,1.292Z" transform="translate(-260.521 -417.327)" fill="#fc982b"/>
              <path id="Trazado_1031308" data-name="Trazado 1031308" d="M348.3,439.99a.889.889,0,0,1-.794-.487c-3.8-7.489-.183-16.321-.027-16.694a.89.89,0,0,1,1.642.686c-.035.084-3.447,8.457-.027,15.2a.89.89,0,0,1-.793,1.292Z" transform="translate(-286.938 -417.362)" fill="#fc982b"/>
              <path id="Trazado_1031309" data-name="Trazado 1031309" d="M357.838,439.99a.888.888,0,0,1-.794-.488c-3.8-7.488-.183-16.32-.027-16.693a.89.89,0,0,1,1.643.686c-.035.084-3.447,8.457-.028,15.2a.89.89,0,0,1-.793,1.292Z" transform="translate(-290.544 -417.362)" fill="#fc982b"/>
            </g>
          </g>
          <g id="Grupo_1175235" data-name="Grupo 1175235" transform="translate(0 0)">
            <path id="Trazado_1031310" data-name="Trazado 1031310" d="M306.437,384.976s1.335,3.361.84,4.844-8.106.1-7.908,0,3.163-4.844,3.163-4.844Z" transform="translate(-168.447 -273.888)" fill="#1f1007"/>
            <path id="Trazado_1031311" data-name="Trazado 1031311" d="M135.26,277.408a147.665,147.665,0,0,0-1.439-38.53,113.765,113.765,0,0,0-8.426-28.194s-13.466-11.246-24.143,2.53-15.566,48.952-8.3,69.144c0,0-18.642,68.044,23.726,74.964a126.239,126.239,0,0,0,41.39-.16,101.231,101.231,0,0,0,21.262-6.053,73.933,73.933,0,0,0,18.215-10.618h24.913s-2.719-4.063-.939-14.3,5.338-8.749,5.487-8.008-.149-.741-.149-.741a34.364,34.364,0,0,0-3.262-2.076,43.04,43.04,0,0,0-6.377-2.521s-41.817-29.114-73.453-18.635C143.762,294.214,143.564,283.34,135.26,277.408Z" transform="translate(-88.863 -206.359)" fill="#3b0315"/>
            <g id="Grupo_1175231" data-name="Grupo 1175231" transform="translate(43.974 32.074)">
              <path id="Trazado_1031312" data-name="Trazado 1031312" d="M199.861,438.875a.445.445,0,0,1-.076-.883,100.64,100.64,0,0,0,21.167-6.027,73.479,73.479,0,0,0,18.106-10.553.445.445,0,0,1,.558.693,74.373,74.373,0,0,1-18.324,10.683,101.578,101.578,0,0,1-21.355,6.081A.461.461,0,0,1,199.861,438.875Z" transform="translate(-174.634 -319.701)" fill="#1f1007"/>
              <path id="Trazado_1031313" data-name="Trazado 1031313" d="M253.911,337.389a.442.442,0,0,1-.266-.088,34.311,34.311,0,0,0-3.216-2.046,42.9,42.9,0,0,0-6.288-2.483.44.44,0,0,1-.123-.06c-.416-.289-42-28.865-73.058-18.578a.445.445,0,0,1-.585-.414c0-.106-.3-10.725-8.316-16.452a.446.446,0,0,1-.183-.417,148.632,148.632,0,0,0-1.436-38.4.445.445,0,0,1,.877-.149,150.732,150.732,0,0,1,1.472,38.4c7.079,5.215,8.251,14.056,8.44,16.414,16.349-5.158,35.281.164,48.35,5.577a148.42,148.42,0,0,1,24.89,13.254,41.949,41.949,0,0,1,6.4,2.539,34.337,34.337,0,0,1,3.309,2.106.445.445,0,0,1-.267.8Z" transform="translate(-159.896 -257.93)" fill="#1f1007"/>
              <path id="Trazado_1031314" data-name="Trazado 1031314" d="M160.014,352.936a.445.445,0,0,1-.243-.818c.251-.163,6.2-4,10.6-5.2a.445.445,0,0,1,.234.858c-4.275,1.161-10.294,5.046-10.354,5.085A.442.442,0,0,1,160.014,352.936Z" transform="translate(-159.569 -291.569)" fill="#1f1007"/>
            </g>
            <g id="Grupo_1175232" data-name="Grupo 1175232" transform="translate(9.571 0.002)">
              <path id="Trazado_1031315" data-name="Trazado 1031315" d="M137.119,249.763a.445.445,0,0,1-.443-.409c-2.769-35.01,6.15-36.7,6.531-36.752a.445.445,0,0,1,.132.88c-.123.024-8.452,1.975-5.777,35.8a.445.445,0,0,1-.408.479Z" transform="translate(-116.31 -208.72)" fill="#652c15"/>
              <path id="Trazado_1031316" data-name="Trazado 1031316" d="M122.128,246.292a.445.445,0,0,1-.442-.395c-1.177-10.417-1.24-24.454,5.141-32.175,3.477-4.206,7.211-4.539,7.368-4.551a.445.445,0,0,1,.069.887c-.058.006-3.561.349-6.78,4.265-3.4,4.134-7.007,12.95-4.915,31.474a.445.445,0,0,1-.392.492A.457.457,0,0,1,122.128,246.292Z" transform="translate(-110.612 -207.424)" fill="#652c15"/>
              <path id="Trazado_1031317" data-name="Trazado 1031317" d="M104.7,245.231h0a.446.446,0,0,1-.44-.45c.113-10.791,1.861-25.342,9.541-33.379,4.659-4.876,9.24-5.035,9.432-5.04a.445.445,0,0,1,.021.89c-.044,0-4.46.174-8.868,4.824-4.1,4.329-9.035,13.519-9.237,32.714A.445.445,0,0,1,104.7,245.231Z" transform="translate(-104.253 -206.362)" fill="#652c15"/>
            </g>
            <path id="Trazado_1031318" data-name="Trazado 1031318" d="M282.814,405.4a.444.444,0,0,1-.435-.352c-.039-.183-3.77-18.472,7.472-28.073a.445.445,0,0,1,.578.677c-10.845,9.261-7.217,27.032-7.18,27.211a.445.445,0,0,1-.342.527A.4.4,0,0,1,282.814,405.4Z" transform="translate(-161.79 -270.823)" fill="#652c15"/>
            <g id="Grupo_1175234" data-name="Grupo 1175234" transform="translate(132.047 114.802)">
              <path id="Trazado_1031319" data-name="Trazado 1031319" d="M350.473,403.941c-1.236-.988-20.464-8.9-28.069-11.181S303.085,391,303.085,391a26.139,26.139,0,0,0-1.3,4.983c-1.378,7.919-.061,12.141.605,13.646l.334.488h43.2c.642-.143-.049-1.183-.049-1.183,2.175.445,2.373-1.038,2.373-1.038,2.521.1,2.57-1.928,2.57-1.928A1.362,1.362,0,0,0,350.473,403.941Z" transform="translate(-301.181 -390.948)" fill="#e28450"/>
              <g id="Grupo_1175233" data-name="Grupo 1175233" transform="translate(19.773 5.153)">
                <path id="Trazado_1031320" data-name="Trazado 1031320" d="M357.9,417.332a.352.352,0,0,1-.156-.037c-4.3-2.1-14.88-3.236-20.564-3.845-3.826-.409-3.971-.447-4.131-.659a.356.356,0,0,1,.482-.51c.3.095,1.965.273,3.725.461,5.727.613,16.387,1.756,20.8,3.914a.356.356,0,0,1-.157.676Z" transform="translate(-332.974 -404.144)" fill="#1f1007"/>
                <path id="Trazado_1031321" data-name="Trazado 1031321" d="M360.933,413.288a.355.355,0,0,1-.353-.32c-.112-1.123-6.492-3-10.714-4.242l-1.342-.4c-5.265-1.56-13.429-3.337-13.51-3.355a.356.356,0,1,1,.151-.7c.082.017,8.272,1.8,13.562,3.368l1.34.395c6.681,1.965,11.072,3.366,11.221,4.854a.354.354,0,0,1-.318.389Z" transform="translate(-333.639 -401.139)" fill="#1f1007"/>
                <path id="Trazado_1031322" data-name="Trazado 1031322" d="M366.024,409.455a.351.351,0,0,1-.205-.065,38.148,38.148,0,0,0-6.7-3.569c-3.992-1.656-17.334-5.849-17.469-5.892a.356.356,0,0,1,.213-.678c.134.042,13.506,4.245,17.528,5.912a38.738,38.738,0,0,1,6.841,3.647.355.355,0,0,1-.206.646Z" transform="translate(-336.159 -399.234)" fill="#1f1007"/>
              </g>
            </g>
          </g>
        </g>
        <g id="Grupo_1175237" data-name="Grupo 1175237" transform="translate(3145.016 7817.805)">
          <rect id="Rectángulo_414746" data-name="Rectángulo 414746" width="11.998" height="15.65" transform="translate(16.814 8.578)" fill="#1f1007"/>
          <path id="Trazado_1031323" data-name="Trazado 1031323" d="M73.928,420.822H43.822a7.292,7.292,0,0,1-5.849-2.373c-2.509-2.945-1.921-7.552-1.842-8.1v-42.22a25.611,25.611,0,0,1,13.476-22.623l.362-17.894a.559.559,0,0,1,.559-.549H67.221a.559.559,0,0,1,.559.549l.362,17.894a25.611,25.611,0,0,1,13.476,22.623v42.22c.08.544.668,5.151-1.842,8.1A7.292,7.292,0,0,1,73.928,420.822ZM51.077,328.188l-.357,17.683a.561.561,0,0,1-.328.5A24.5,24.5,0,0,0,37.25,368.133V410.4a.588.588,0,0,1-.007.088c-.007.046,1.584,7.242,1.584,7.242s2.8,1.977,4.994,1.977H73.928a6.228,6.228,0,0,0,4.994-1.977c2.279-2.669,1.592-7.2,1.584-7.242a.588.588,0,0,1-.007-.088V368.133a24.5,24.5,0,0,0-13.142-21.765.561.561,0,0,1-.327-.5l-.358-17.683Z" transform="translate(-36.016 -313.786)" fill="#86b60c"/>
          <path id="Trazado_1031324" data-name="Trazado 1031324" d="M74.734,329.414h-17a2.13,2.13,0,0,1-2.13-2.13h0a2.13,2.13,0,0,1,2.13-2.13h17a2.13,2.13,0,0,1,2.129,2.13h0A2.13,2.13,0,0,1,74.734,329.414Z" transform="translate(-43.422 -313.063)" fill="#f2e1c5"/>
          <path id="Trazado_1031325" data-name="Trazado 1031325" d="M72.431,314.849a.559.559,0,0,1-.56-.559v-4.006a4.577,4.577,0,0,1,4.572-4.572h7.735a.559.559,0,1,1,0,1.119H76.443a3.457,3.457,0,0,0-3.454,3.453v4.006A.559.559,0,0,1,72.431,314.849Z" transform="translate(-49.571 -305.712)" fill="#1f1007"/>
          <path id="Trazado_1031326" data-name="Trazado 1031326" d="M79.2,441.368V407.654H46.026v33.209l.028.336-.091.5a5.561,5.561,0,0,0,.436,3.231,2.1,2.1,0,0,0,1.163.208H77.669a2.1,2.1,0,0,0,1.163-.208,5.506,5.506,0,0,0,.444-3.176Z" transform="translate(-39.756 -344.253)" fill="#d1c345"/>
        </g>
      </g>
    </g>
    <g id="Grupo_1175244" data-name="Grupo 1175244" transform="translate(-2465.539 98)">
      <g id="Grupo_1175230-2" data-name="Grupo 1175230" transform="translate(2998.599 7984.964)">
        <g id="Grupo_1175228-2" data-name="Grupo 1175228" transform="translate(0 16.925)">
          <path id="Trazado_1031299-2" data-name="Trazado 1031299" d="M393.521,449.739c0-3.851,1.171-7.1,2.775-8.142l-16.671,5.349-5.635,3.648,3.213,12.061,2.422,1.123,17.777-5.541C395.258,458.236,393.521,454.432,393.521,449.739Z" transform="translate(-295.225 -441.597)" fill="#f2e1c5"/>
          <path id="Trazado_1031300-2" data-name="Trazado 1031300" d="M328.613,458.434c0-4.132,1.347-7.571,3.131-8.335v-.162H250.927v.033c-2,.335-3.582,3.992-3.582,8.464s1.578,8.129,3.582,8.463v.033h80.817v-.161C329.96,466,328.613,462.565,328.613,458.434Z" transform="translate(-247.345 -444.75)" fill="#ce3d21"/>
          <path id="Trazado_1031301-2" data-name="Trazado 1031301" d="M253.1,446.784l80.818.161,16.671-5.348h-79Z" transform="translate(-249.522 -441.597)" fill="#740509"/>
          <rect id="Rectángulo_414745-2" data-name="Rectángulo 414745" width="38.54" height="7.101" transform="translate(11.102 9.783)" fill="#96231a"/>
        </g>
        <g id="Grupo_1175229-2" data-name="Grupo 1175229" transform="translate(2.38)">
          <path id="Trazado_1031302-2" data-name="Trazado 1031302" d="M397.347,422.525c0-3.851,1.17-7.1,2.775-8.142l-16.671,5.349-5.635,3.648,3.212,12.06,2.422,1.123,17.777-5.541C399.084,431.022,397.347,427.217,397.347,422.525Z" transform="translate(-299.052 -414.383)" fill="#f2e1c5"/>
          <path id="Trazado_1031303-2" data-name="Trazado 1031303" d="M332.438,431.22c0-4.132,1.347-7.571,3.132-8.335v-.162H254.753v.033c-2,.335-3.582,3.992-3.582,8.464s1.578,8.129,3.582,8.463v.033H335.57v-.161C333.785,438.791,332.438,435.351,332.438,431.22Z" transform="translate(-251.171 -417.536)" fill="#96231a"/>
          <path id="Trazado_1031304-2" data-name="Trazado 1031304" d="M256.93,419.57l80.818.161,16.671-5.348h-79Z" transform="translate(-253.348 -414.383)" fill="#740509"/>
          <path id="Trazado_1031305-2" data-name="Trazado 1031305" d="M386.7,446.633a.3.3,0,0,1-.086-.58l17.777-5.38a.3.3,0,0,1,.172.568l-17.777,5.38A.29.29,0,0,1,386.7,446.633Z" transform="translate(-302.296 -424.317)" fill="#1f1007"/>
          <path id="Trazado_1031306-2" data-name="Trazado 1031306" d="M268.887,439.9a.89.89,0,0,1-.794-.488c-3.8-7.488-.183-16.321-.027-16.693a.89.89,0,0,1,1.642.685c-.035.084-3.447,8.458-.028,15.2a.889.889,0,0,1-.793,1.292Z" transform="translate(-256.915 -417.327)" fill="#fc982b"/>
          <path id="Trazado_1031307-2" data-name="Trazado 1031307" d="M278.425,439.9a.889.889,0,0,1-.794-.487c-3.8-7.489-.183-16.321-.027-16.694a.89.89,0,0,1,1.642.686c-.035.084-3.447,8.458-.027,15.2a.889.889,0,0,1-.793,1.292Z" transform="translate(-260.521 -417.327)" fill="#fc982b"/>
          <path id="Trazado_1031308-2" data-name="Trazado 1031308" d="M348.3,439.99a.889.889,0,0,1-.794-.487c-3.8-7.489-.183-16.321-.027-16.694a.89.89,0,0,1,1.642.686c-.035.084-3.447,8.457-.027,15.2a.89.89,0,0,1-.793,1.292Z" transform="translate(-286.938 -417.362)" fill="#fc982b"/>
          <path id="Trazado_1031309-2" data-name="Trazado 1031309" d="M357.838,439.99a.888.888,0,0,1-.794-.488c-3.8-7.488-.183-16.32-.027-16.693a.89.89,0,0,1,1.643.686c-.035.084-3.447,8.457-.028,15.2a.89.89,0,0,1-.793,1.292Z" transform="translate(-290.544 -417.362)" fill="#fc982b"/>
        </g>
      </g>
      <g id="Grupo_1175234-2" data-name="Grupo 1175234" transform="translate(3032.081 7970.39)">
        <path id="Trazado_1031319-2" data-name="Trazado 1031319" d="M350.473,403.941c-1.236-.988-20.464-8.9-28.069-11.181S303.085,391,303.085,391a26.139,26.139,0,0,0-1.3,4.983c-1.378,7.919-.061,12.141.605,13.646l.334.488h43.2c.642-.143-.049-1.183-.049-1.183,2.175.445,2.373-1.038,2.373-1.038,2.521.1,2.57-1.928,2.57-1.928A1.362,1.362,0,0,0,350.473,403.941Z" transform="translate(-301.181 -390.948)" fill="#e28450"/>
        <g id="Grupo_1175233-2" data-name="Grupo 1175233" transform="translate(19.773 5.153)">
          <path id="Trazado_1031320-2" data-name="Trazado 1031320" d="M357.9,417.332a.352.352,0,0,1-.156-.037c-4.3-2.1-14.88-3.236-20.564-3.845-3.826-.409-3.971-.447-4.131-.659a.356.356,0,0,1,.482-.51c.3.095,1.965.273,3.725.461,5.727.613,16.387,1.756,20.8,3.914a.356.356,0,0,1-.157.676Z" transform="translate(-332.974 -404.144)" fill="#1f1007"/>
          <path id="Trazado_1031321-2" data-name="Trazado 1031321" d="M360.933,413.288a.355.355,0,0,1-.353-.32c-.112-1.123-6.492-3-10.714-4.242l-1.342-.4c-5.265-1.56-13.429-3.337-13.51-3.355a.356.356,0,1,1,.151-.7c.082.017,8.272,1.8,13.562,3.368l1.34.395c6.681,1.965,11.072,3.366,11.221,4.854a.354.354,0,0,1-.318.389Z" transform="translate(-333.639 -401.139)" fill="#1f1007"/>
          <path id="Trazado_1031322-2" data-name="Trazado 1031322" d="M366.024,409.455a.351.351,0,0,1-.205-.065,38.148,38.148,0,0,0-6.7-3.569c-3.992-1.656-17.334-5.849-17.469-5.892a.356.356,0,0,1,.213-.678c.134.042,13.506,4.245,17.528,5.912a38.738,38.738,0,0,1,6.841,3.647.355.355,0,0,1-.206.646Z" transform="translate(-336.159 -399.234)" fill="#1f1007"/>
        </g>
      </g>
    </g>
  </g>
</svg>
