<svg xmlns="http://www.w3.org/2000/svg" xmlns:xlink="http://www.w3.org/1999/xlink" width="110" height="110" viewBox="0 0 110 110">
  <defs>
    <filter id="Trazado_982547" x="0" y="0" width="110" height="110" filterUnits="userSpaceOnUse">
      <feOffset dy="3" input="SourceAlpha"/>
      <feGaussianBlur stdDeviation="3" result="blur"/>
      <feFlood flood-opacity="0.161"/>
      <feComposite operator="in" in2="blur"/>
      <feComposite in="SourceGraphic"/>
    </filter>
  </defs>
  <g id="Grupo_1175345" data-name="Grupo 1175345" transform="translate(-943 -11052)">
    <g id="Grupo_1173112" data-name="Grupo 1173112" transform="translate(952 11058)">
      <g id="Grupo_1163803" data-name="Grupo 1163803" transform="translate(0 0)">
        <g id="Grupo_1163015" data-name="Grupo 1163015">
          <g id="Grupo_1157017" data-name="Grupo 1157017" transform="translate(0 0)">
            <g id="Grupo_1155793" data-name="Grupo 1155793" transform="translate(0 0)">
              <g id="Grupo_1154704" data-name="Grupo 1154704">
                <g id="Grupo_1150790" data-name="Grupo 1150790">
                  <g id="Grupo_1154214" data-name="Grupo 1154214">
                    <g id="Grupo_1152583" data-name="Grupo 1152583">
                      <g id="Grupo_1146973" data-name="Grupo 1146973" transform="translate(0 0)">
                        <g id="Grupo_1146954" data-name="Grupo 1146954">
                          <g transform="matrix(1, 0, 0, 1, -9, -6)" filter="url(#Trazado_982547)">
                            <g id="Trazado_982547-2" data-name="Trazado 982547" transform="translate(9 6)" fill="#f2f7e5">
                              <path d="M 46.00000381469727 90.49988555908203 C 39.99188232421875 90.49988555908203 34.16427230834961 89.32352447509766 28.67905807495117 87.00347137451172 C 23.38020324707031 84.76226043701172 18.62103080749512 81.55342864990234 14.53375053405762 77.46615600585938 C 10.44645690917969 73.37887573242188 7.237643718719482 68.61971282958984 4.996417045593262 63.32085800170898 C 2.676363706588745 57.83565902709961 1.500003814697266 52.00806045532227 1.500003814697266 45.99993896484375 C 1.500003814697266 39.99181747436523 2.676363706588745 34.16421890258789 4.996417045593262 28.67901802062988 C 7.237643718719482 23.38017845153809 10.44645690917969 18.62101936340332 14.53375053405762 14.53373908996582 C 18.62103080749512 10.44645881652832 23.38020324707031 7.237632274627686 28.67905807495117 4.996418952941895 C 34.16427230834961 2.676365613937378 39.99188232421875 1.500005602836609 46.00000381469727 1.500005602836609 C 52.00812530517578 1.500005602836609 57.83573532104492 2.676365613937378 63.32094955444336 4.996418952941895 C 68.61980438232422 7.237632274627686 73.37896728515625 10.44645881652832 77.46625518798828 14.53373908996582 C 81.55353546142578 18.62101936340332 84.76236724853516 23.38017845153809 87.00359344482422 28.67901802062988 C 89.32364654541016 34.16421890258789 90.5 39.99181747436523 90.5 45.99993896484375 C 90.5 52.00806045532227 89.32364654541016 57.83565902709961 87.00359344482422 63.32085800170898 C 84.76236724853516 68.61971282958984 81.55353546142578 73.37887573242188 77.46625518798828 77.46615600585938 C 73.37896728515625 81.55342864990234 68.61980438232422 84.76226043701172 63.32094955444336 87.00347137451172 C 57.83573532104492 89.32352447509766 52.00812530517578 90.49988555908203 46.00000381469727 90.49988555908203 Z" stroke="none"/>
                              <path d="M 46.00000381469727 2.999992370605469 C 40.19371795654297 2.999992370605469 34.56270217895508 4.136497497558594 29.26338958740234 6.377906799316406 C 24.14333343505859 8.543510437011719 19.54441833496094 11.64437866210938 15.59440612792969 15.59439849853516 C 11.64440155029297 19.54439544677734 8.54351806640625 24.14329528808594 6.377914428710938 29.26335144042969 C 4.136505126953125 34.56266784667969 3.000007629394531 40.19366836547852 3.000007629394531 45.99993896484375 C 3.000007629394531 51.80620956420898 4.136505126953125 57.43722534179688 6.377914428710938 62.73654174804688 C 8.54351806640625 67.85658264160156 11.64440155029297 72.45548248291016 15.59440612792969 76.40549468994141 C 19.54441833496094 80.35549926757812 24.14333343505859 83.45636749267578 29.26337432861328 85.62196350097656 C 34.56270217895508 87.86338043212891 40.19371795654297 88.9998779296875 46.00000381469727 88.9998779296875 C 51.80628967285156 88.9998779296875 57.43730545043945 87.86338043212891 62.73663330078125 85.62196350097656 C 67.85667419433594 83.45636749267578 72.45558929443359 80.35549926757812 76.40560150146484 76.40549468994141 C 80.35560607910156 72.45548248291016 83.45648956298828 67.85658264160156 85.62208557128906 62.73654174804688 C 87.86350250244141 57.43722534179688 89 51.80620956420898 89 45.99993896484375 C 89 40.19366836547852 87.86350250244141 34.56266784667969 85.62208557128906 29.26335144042969 C 83.45648956298828 24.14329528808594 80.35560607910156 19.54439544677734 76.40560150146484 15.59439849853516 C 72.45558929443359 11.64437866210938 67.85667419433594 8.543510437011719 62.73661804199219 6.377906799316406 C 57.43730545043945 4.136497497558594 51.80628967285156 2.999992370605469 46.00000381469727 2.999992370605469 M 46.00000381469727 -7.62939453125e-06 C 71.40510559082031 -7.62939453125e-06 92 20.59487915039062 92 45.99993896484375 C 92 71.40501403808594 71.40510559082031 91.99988555908203 46.00000381469727 91.99988555908203 C 20.59490203857422 91.99988555908203 7.62939453125e-06 71.40501403808594 7.62939453125e-06 45.99993896484375 C 7.62939453125e-06 20.59487915039062 20.59490203857422 -7.62939453125e-06 46.00000381469727 -7.62939453125e-06 Z" stroke="none" fill="#86b60c"/>
                            </g>
                          </g>
                        </g>
                      </g>
                    </g>
                  </g>
                </g>
              </g>
            </g>
          </g>
        </g>
      </g>
    </g>
    <g id="organization_943777" transform="translate(972 11078)">
      <path id="Trazado_1031594" data-name="Trazado 1031594" d="M105.571,59.081h27.136a2,2,0,0,0,2-2V19.077L125.623,10H96a2,2,0,0,0-2,2V57.086a2,2,0,0,0,2,2Z" transform="translate(-84.623 -9.002)" fill="#fff"/>
      <path id="Trazado_1031595" data-name="Trazado 1031595" d="M411,11.167v6.966a2,2,0,0,0,2,2h6.966Z" transform="translate(-369.999 -10.053)" fill="#fed284"/>
      <rect id="Rectángulo_414767" data-name="Rectángulo 414767" width="7.981" height="7.981" transform="translate(25.717 10.433)" fill="#ff5d5d"/>
      <circle id="Elipse_12162" data-name="Elipse 12162" cx="3.192" cy="3.192" r="3.192" transform="translate(14.772 28.481)" fill="#fed284"/>
      <circle id="Elipse_12163" data-name="Elipse 12163" cx="3.192" cy="3.192" r="3.192" transform="translate(26.536 28.481)" fill="#546dff"/>
      <circle id="Elipse_12164" data-name="Elipse 12164" cx="3.192" cy="3.192" r="3.192" transform="translate(38.299 28.481)" fill="#c1ee92"/>
      <path id="Trazado_1031596" data-name="Trazado 1031596" d="M16.385,147.808V116.384l-3.192-6.717L10,116.384v31.424a1,1,0,0,0,1,1h4.389A1,1,0,0,0,16.385,147.808Z" transform="translate(-9.002 -98.727)" fill="#96ede7"/>
      <path id="Trazado_1031597" data-name="Trazado 1031597" d="M10,452.24V448h6.385v4.24a1.147,1.147,0,0,1-1.147,1.147h-4.09A1.147,1.147,0,0,1,10,452.24Z" transform="translate(-9.002 -403.308)" fill="#7388ff"/>
      <path id="Trazado_1031598" data-name="Trazado 1031598" d="M16.385,116.384l-3.192-6.717L10,116.384Z" transform="translate(-9.002 -98.727)" fill="#cad2ff"/>
      <path id="Trazado_1031599" data-name="Trazado 1031599" d="M126.4,9.369,117.326.292A1,1,0,0,0,116.621,0H86.993A3,3,0,0,0,84,2.993v8.978a1,1,0,0,0,2,0V2.993a1,1,0,0,1,1-1h28.631V8.08a3,3,0,0,0,2.993,2.993H124.7v33.22h-8.8a1,1,0,1,0,0,2h8.8v1.8a1,1,0,0,1-1,1H86.993a1,1,0,0,0,0,2H123.7a3,3,0,0,0,2.993-2.993V10.074A1,1,0,0,0,126.4,9.369ZM117.619,8.08V3.406l5.673,5.672h-4.676A1,1,0,0,1,117.619,8.08Z" transform="translate(-75.62)"/>
      <path id="Trazado_1031600" data-name="Trazado 1031600" d="M360.292,444.292A1,1,0,1,0,361,444,1.005,1.005,0,0,0,360.292,444.292Z" transform="translate(-324.087 -399.707)"/>
      <path id="Trazado_1031601" data-name="Trazado 1031601" d="M142.269,106.994a1,1,0,0,0-1,1v4.76a4.19,4.19,0,1,0,2,0v-3.762h9.781v3.759a4.189,4.189,0,1,0,2,.006v-3.765H164.8v3.762a4.19,4.19,0,1,0,2,0v-4.76a1,1,0,0,0-1-1H155.03v-2.436H158a1,1,0,0,0,1-1V95.58a1,1,0,0,0-1-1h-7.981a1,1,0,0,0-1,1v7.981a1,1,0,0,0,1,1h3.014v2.436Zm2.195,9.826a2.195,2.195,0,1,1-2.195-2.195A2.2,2.2,0,0,1,144.464,116.82Zm23.527,0a2.195,2.195,0,1,1-2.195-2.195A2.2,2.2,0,0,1,167.991,116.82ZM151.019,96.577H157v5.986h-5.986Zm5.208,20.243a2.195,2.195,0,1,1-2.195-2.195A2.2,2.2,0,0,1,156.227,116.82Z" transform="translate(-124.304 -85.147)"/>
      <path id="Trazado_1031602" data-name="Trazado 1031602" d="M65,272a1,1,0,1,0,.705.292A1,1,0,0,0,65,272Z" transform="translate(-57.615 -244.866)"/>
      <path id="Trazado_1031603" data-name="Trazado 1031603" d="M12.37,105.54V97.127a1,1,0,0,0-2,0v8.413a.666.666,0,0,1-.665.665H8.38V92.638a1,1,0,0,0-2,0V104.01H2V78.971H6.385v5.088a1,1,0,1,0,2,0V77.973a1,1,0,0,0-.1-.428l-3.1-6.514V68a1,1,0,1,0-2,0v3.034L.1,77.545a1,1,0,0,0-.1.428V109.4a2,2,0,0,0,2,2H6.385a2,2,0,0,0,2-2v-1.2H9.71A2.663,2.663,0,0,0,12.37,105.54ZM4.19,73.58l1.614,3.4H2.576ZM6.385,109.4H2v-3.392H6.385Z" transform="translate(0 -60.316)"/>
    </g>
  </g>
</svg>
