<svg xmlns="http://www.w3.org/2000/svg" xmlns:xlink="http://www.w3.org/1999/xlink" width="110" height="110" viewBox="0 0 110 110">
  <defs>
    <filter id="Trazado_982547" x="0" y="0" width="110" height="110" filterUnits="userSpaceOnUse">
      <feOffset dy="3" input="SourceAlpha"/>
      <feGaussianBlur stdDeviation="3" result="blur"/>
      <feFlood flood-opacity="0.161"/>
      <feComposite operator="in" in2="blur"/>
      <feComposite in="SourceGraphic"/>
    </filter>
  </defs>
  <g id="Grupo_1175986" data-name="Grupo 1175986" transform="translate(-670 -15051)">
    <g id="Grupo_1173150" data-name="Grupo 1173150" transform="translate(679 15057)">
      <g id="Grupo_1163801" data-name="Grupo 1163801" transform="translate(0 0)">
        <g id="Grupo_1163014" data-name="Grupo 1163014">
          <g id="Grupo_1157015" data-name="Grupo 1157015" transform="translate(0 0)">
            <g id="Grupo_1155792" data-name="Grupo 1155792" transform="translate(0 0)">
              <g id="Grupo_1154703" data-name="Grupo 1154703">
                <g id="Grupo_1150789" data-name="Grupo 1150789">
                  <g id="Grupo_1154212" data-name="Grupo 1154212">
                    <g id="Grupo_1152583" data-name="Grupo 1152583">
                      <g id="Grupo_1146973" data-name="Grupo 1146973" transform="translate(0 0)">
                        <g id="Grupo_1146954" data-name="Grupo 1146954">
                          <g transform="matrix(1, 0, 0, 1, -9, -6)" filter="url(#Trazado_982547)">
                            <g id="Trazado_982547-2" data-name="Trazado 982547" transform="translate(9 6)" fill="#f2f7e5">
                              <path d="M 46.00000381469727 90.49988555908203 C 39.99188232421875 90.49988555908203 34.16427230834961 89.32352447509766 28.67905807495117 87.00347137451172 C 23.38020324707031 84.76226043701172 18.62103080749512 81.55342864990234 14.53375053405762 77.46615600585938 C 10.44645690917969 73.37887573242188 7.237643718719482 68.61971282958984 4.996417045593262 63.32085800170898 C 2.676363706588745 57.83565902709961 1.500003814697266 52.00806045532227 1.500003814697266 45.99993896484375 C 1.500003814697266 39.99181747436523 2.676363706588745 34.16421890258789 4.996417045593262 28.67901802062988 C 7.237643718719482 23.38017845153809 10.44645690917969 18.62101936340332 14.53375053405762 14.53373908996582 C 18.62103080749512 10.44645881652832 23.38020324707031 7.237632274627686 28.67905807495117 4.996418952941895 C 34.16427230834961 2.676365613937378 39.99188232421875 1.500005602836609 46.00000381469727 1.500005602836609 C 52.00812530517578 1.500005602836609 57.83573532104492 2.676365613937378 63.32094955444336 4.996418952941895 C 68.61980438232422 7.237632274627686 73.37896728515625 10.44645881652832 77.46625518798828 14.53373908996582 C 81.55353546142578 18.62101936340332 84.76236724853516 23.38017845153809 87.00359344482422 28.67901802062988 C 89.32364654541016 34.16421890258789 90.5 39.99181747436523 90.5 45.99993896484375 C 90.5 52.00806045532227 89.32364654541016 57.83565902709961 87.00359344482422 63.32085800170898 C 84.76236724853516 68.61971282958984 81.55353546142578 73.37887573242188 77.46625518798828 77.46615600585938 C 73.37896728515625 81.55342864990234 68.61980438232422 84.76226043701172 63.32094955444336 87.00347137451172 C 57.83573532104492 89.32352447509766 52.00812530517578 90.49988555908203 46.00000381469727 90.49988555908203 Z" stroke="none"/>
                              <path d="M 46.00000381469727 2.999992370605469 C 40.19371795654297 2.999992370605469 34.56270217895508 4.136497497558594 29.26338958740234 6.377906799316406 C 24.14333343505859 8.543510437011719 19.54441833496094 11.64437866210938 15.59440612792969 15.59439849853516 C 11.64440155029297 19.54439544677734 8.54351806640625 24.14329528808594 6.377914428710938 29.26335144042969 C 4.136505126953125 34.56266784667969 3.000007629394531 40.19366836547852 3.000007629394531 45.99993896484375 C 3.000007629394531 51.80620956420898 4.136505126953125 57.43722534179688 6.377914428710938 62.73654174804688 C 8.54351806640625 67.85658264160156 11.64440155029297 72.45548248291016 15.59440612792969 76.40549468994141 C 19.54441833496094 80.35549926757812 24.14333343505859 83.45636749267578 29.26337432861328 85.62196350097656 C 34.56270217895508 87.86338043212891 40.19371795654297 88.9998779296875 46.00000381469727 88.9998779296875 C 51.80628967285156 88.9998779296875 57.43730545043945 87.86338043212891 62.73663330078125 85.62196350097656 C 67.85667419433594 83.45636749267578 72.45558929443359 80.35549926757812 76.40560150146484 76.40549468994141 C 80.35560607910156 72.45548248291016 83.45648956298828 67.85658264160156 85.62208557128906 62.73654174804688 C 87.86350250244141 57.43722534179688 89 51.80620956420898 89 45.99993896484375 C 89 40.19366836547852 87.86350250244141 34.56266784667969 85.62208557128906 29.26335144042969 C 83.45648956298828 24.14329528808594 80.35560607910156 19.54439544677734 76.40560150146484 15.59439849853516 C 72.45558929443359 11.64437866210938 67.85667419433594 8.543510437011719 62.73661804199219 6.377906799316406 C 57.43730545043945 4.136497497558594 51.80628967285156 2.999992370605469 46.00000381469727 2.999992370605469 M 46.00000381469727 -7.62939453125e-06 C 71.40510559082031 -7.62939453125e-06 92 20.59487915039062 92 45.99993896484375 C 92 71.40501403808594 71.40510559082031 91.99988555908203 46.00000381469727 91.99988555908203 C 20.59490203857422 91.99988555908203 7.62939453125e-06 71.40501403808594 7.62939453125e-06 45.99993896484375 C 7.62939453125e-06 20.59487915039062 20.59490203857422 -7.62939453125e-06 46.00000381469727 -7.62939453125e-06 Z" stroke="none" fill="#86b60c"/>
                            </g>
                          </g>
                        </g>
                      </g>
                    </g>
                  </g>
                </g>
              </g>
            </g>
          </g>
        </g>
      </g>
    </g>
    <g id="Layer_x0020_1" transform="translate(633.712 15073)">
      <path id="Trazado_1032294" data-name="Trazado 1032294" d="M93.976,44.217a5.633,5.633,0,0,1-5.515-4.746H85.62a.892.892,0,0,1-.9-.869V30.446H76.9v2.239H79.47a.9.9,0,0,1,.9.9v6.919a.9.9,0,0,1-.9.9H72.551a.9.9,0,0,1-.9-.9V33.588a.9.9,0,0,1,.9-.9h2.574V26.4H73.119a.9.9,0,0,1-.9-.9V21.021a.9.9,0,0,1,.9-.9h5.816a.871.871,0,0,1,.869.9V25.5a.871.871,0,0,1-.869.9H76.9v2.239h7.821V20.486a.871.871,0,0,1,.9-.869h2.841a4.4,4.4,0,1,1,0,1.771H86.489V37.7h1.972a5.6,5.6,0,1,1,5.515,6.518Zm6.785,13.771H70.479A4.479,4.479,0,0,1,66,53.509V12.13a4.479,4.479,0,0,1,4.479-4.479h6.685l1.671-2.808a.926.926,0,0,1,.769-.435h1.8a4.326,4.326,0,0,1,8.456,0h1.771a.884.884,0,0,1,.769.435l1.7,2.808h6.651a4.508,4.508,0,0,1,4.512,4.479V53.509A4.508,4.508,0,0,1,100.761,57.987ZM76.094,9.423H70.479a2.717,2.717,0,0,0-2.707,2.707V53.509a2.717,2.717,0,0,0,2.707,2.707h30.282a2.7,2.7,0,0,0,2.707-2.707V12.13a2.7,2.7,0,0,0-2.707-2.707H95.179a16.022,16.022,0,0,1,1.671,3.008.89.89,0,0,1-.9.869H75.325a.876.876,0,0,1-.769-1.337Zm16.745-.4-1.7-2.841H89.062a.9.9,0,0,1-.9-.9,2.54,2.54,0,0,0-5.08,0,.892.892,0,0,1-.869.9H80.1L76.9,11.528H94.343ZM86.355,5.546c-.969,0-2.34.234-2.34-.9,0-1.1,1.37-.869,2.34-.869A.886.886,0,0,1,86.355,5.546Zm11.1,43.05H73.788a.886.886,0,0,1,0-1.771H97.452A.886.886,0,0,1,97.452,48.6Zm0,4.846H73.788a.886.886,0,0,1,0-1.771H97.452A.886.886,0,0,1,97.452,53.442Zm19.386-10.228V38.568h-6.484v4.646Zm0-6.417V26.736h-2.507V36.8Zm0-11.832V20.319h-6.484v4.646Zm-6.484,1.771V36.8h2.206V26.736Zm-1.771,17.347V15.439a3.138,3.138,0,0,1,3.142-3.142H115.5a3.138,3.138,0,0,1,3.142,3.142V44.083l-.1.435L114.4,52.84a.892.892,0,0,1-1.6,0l-4.111-8.356Zm1.771-25.536h6.484c0-5.08.568-4.479-5.114-4.479a1.355,1.355,0,0,0-1.37,1.37Zm.568,26.438,2.674,5.448,2.707-5.448ZM73.988,24.6h4.044V21.89H73.988Zm-.535,15.041H78.6V34.49H73.453ZM90.165,20.486a2.6,2.6,0,0,0,2.64,2.64,2.64,2.64,0,1,0-2.64-2.64Zm3.81,14.272A3.827,3.827,0,1,0,97.819,38.6,3.837,3.837,0,0,0,93.976,34.758Z" transform="translate(0 0)" fill-rule="evenodd"/>
      <path id="Trazado_1032295" data-name="Trazado 1032295" d="M145.2,276.564a5.615,5.615,0,1,1-5.515,6.484h-2.841a.892.892,0,0,1-.9-.869v-8.155h-7.821v2.239H130.7a.9.9,0,0,1,.9.9v6.919a.9.9,0,0,1-.9.9H123.78a.9.9,0,0,1-.9-.9v-6.919a.9.9,0,0,1,.9-.9h2.574v-6.284h-2.005a.9.9,0,0,1-.9-.9V264.6a.9.9,0,0,1,.9-.9h5.816a.871.871,0,0,1,.869.9v4.479a.871.871,0,0,1-.869.9h-2.039v2.239h7.821v-8.155a.871.871,0,0,1,.9-.869h2.841a4.4,4.4,0,1,1,0,1.771h-1.972v16.311h1.972A5.6,5.6,0,0,1,145.2,276.564ZM125.016,290.4H148.68a.886.886,0,0,1,0,1.771H125.016A.886.886,0,0,1,125.016,290.4Zm0,4.846H148.68a.886.886,0,0,1,0,1.771H125.016A.886.886,0,0,1,125.016,295.247Zm-3.309,4.546h30.282a2.7,2.7,0,0,0,2.707-2.707V255.707A2.7,2.7,0,0,0,151.989,253h-5.582a16.022,16.022,0,0,1,1.671,3.008.89.89,0,0,1-.9.869H126.554a.876.876,0,0,1-.769-1.337l1.537-2.54h-5.615A2.717,2.717,0,0,0,119,255.707v41.378A2.717,2.717,0,0,0,121.707,299.793Z" transform="translate(-51.229 -243.577)" fill="#c9dabc" fill-rule="evenodd"/>
      <path id="Trazado_1032296" data-name="Trazado 1032296" d="M392,62.757h17.447l-1.5-2.507-1.7-2.841h-2.072a.9.9,0,0,1-.9-.9,2.54,2.54,0,0,0-5.08,0,.892.892,0,0,1-.869.9h-2.106Zm9.459-5.983c-.969,0-2.34.234-2.34-.9,0-1.1,1.37-.869,2.34-.869A.886.886,0,0,1,401.459,56.774Z" transform="translate(-315.104 -51.229)" fill="#b56b45" fill-rule="evenodd"/>
      <path id="Trazado_1032297" data-name="Trazado 1032297" d="M1393,392.732v3.108h6.484c0-5.08.568-4.479-5.114-4.479A1.355,1.355,0,0,0,1393,392.732Z" transform="translate(-1282.647 -377.293)" fill="#e6e6e6" fill-rule="evenodd"/>
      <path id="Trazado_1032298" data-name="Trazado 1032298" d="M1399.484,579H1393v4.646h6.484Z" transform="translate(-1282.647 -558.681)" fill="#ffcf00" fill-rule="evenodd"/>
      <path id="Trazado_1032299" data-name="Trazado 1032299" d="M1514.507,771H1512v10.06h2.507Z" transform="translate(-1397.669 -744.264)" fill="#fd522e" fill-rule="evenodd"/>
      <path id="Trazado_1032300" data-name="Trazado 1032300" d="M1395.206,781.06V771H1393v10.06Z" transform="translate(-1282.647 -744.264)" fill="#fd522e" fill-rule="evenodd"/>
      <path id="Trazado_1032301" data-name="Trazado 1032301" d="M1399.484,1125H1393v4.646h6.484Z" transform="translate(-1282.647 -1086.432)" fill="#ffcf00" fill-rule="evenodd"/>
      <path id="Trazado_1032302" data-name="Trazado 1032302" d="M1415.381,1317H1410l2.674,5.448Z" transform="translate(-1299.079 -1272.015)" fill="#f6bc58" fill-rule="evenodd"/>
      <path id="Trazado_1032303" data-name="Trazado 1032303" d="M792.81,1018.654a3.827,3.827,0,1,0-3.81-3.81A3.816,3.816,0,0,0,792.81,1018.654Z" transform="translate(-698.835 -976.242)" fill="#48e1ff" fill-rule="evenodd"/>
      <path id="Trazado_1032304" data-name="Trazado 1032304" d="M791.641,510.281A2.64,2.64,0,1,0,789,507.64,2.6,2.6,0,0,0,791.641,510.281Z" transform="translate(-698.835 -487.154)" fill="#7dd63e" fill-rule="evenodd"/>
      <path id="Trazado_1032305" data-name="Trazado 1032305" d="M309.044,628.707V626H305v2.707Z" transform="translate(-231.012 -604.11)" fill="#ff2c00" fill-rule="evenodd"/>
      <path id="Trazado_1032306" data-name="Trazado 1032306" d="M294.147,1003H289v5.147h5.147Z" transform="translate(-215.547 -968.51)" fill="#ffcf00" fill-rule="evenodd"/>
    </g>
  </g>
</svg>
