<svg xmlns="http://www.w3.org/2000/svg" xmlns:xlink="http://www.w3.org/1999/xlink" width="110" height="110" viewBox="0 0 110 110">
  <defs>
    <filter id="Trazado_982547" x="0" y="0" width="110" height="110" filterUnits="userSpaceOnUse">
      <feOffset dy="3" input="SourceAlpha"/>
      <feGaussianBlur stdDeviation="3" result="blur"/>
      <feFlood flood-opacity="0.161"/>
      <feComposite operator="in" in2="blur"/>
      <feComposite in="SourceGraphic"/>
    </filter>
  </defs>
  <g id="Grupo_1176010" data-name="Grupo 1176010" transform="translate(-985 -15052)">
    <g id="Grupo_1173151" data-name="Grupo 1173151" transform="translate(994 15058)">
      <g id="Grupo_1163803" data-name="Grupo 1163803" transform="translate(0 0)">
        <g id="Grupo_1163015" data-name="Grupo 1163015">
          <g id="Grupo_1157017" data-name="Grupo 1157017" transform="translate(0 0)">
            <g id="Grupo_1155793" data-name="Grupo 1155793" transform="translate(0 0)">
              <g id="Grupo_1154704" data-name="Grupo 1154704">
                <g id="Grupo_1150790" data-name="Grupo 1150790">
                  <g id="Grupo_1154214" data-name="Grupo 1154214">
                    <g id="Grupo_1152583" data-name="Grupo 1152583">
                      <g id="Grupo_1146973" data-name="Grupo 1146973" transform="translate(0 0)">
                        <g id="Grupo_1146954" data-name="Grupo 1146954">
                          <g transform="matrix(1, 0, 0, 1, -9, -6)" filter="url(#Trazado_982547)">
                            <g id="Trazado_982547-2" data-name="Trazado 982547" transform="translate(9 6)" fill="#f2f7e5">
                              <path d="M 46.00000381469727 90.49988555908203 C 39.99188232421875 90.49988555908203 34.16427230834961 89.32352447509766 28.67905807495117 87.00347137451172 C 23.38020324707031 84.76226043701172 18.62103080749512 81.55342864990234 14.53375053405762 77.46615600585938 C 10.44645690917969 73.37887573242188 7.237643718719482 68.61971282958984 4.996417045593262 63.32085800170898 C 2.676363706588745 57.83565902709961 1.500003814697266 52.00806045532227 1.500003814697266 45.99993896484375 C 1.500003814697266 39.99181747436523 2.676363706588745 34.16421890258789 4.996417045593262 28.67901802062988 C 7.237643718719482 23.38017845153809 10.44645690917969 18.62101936340332 14.53375053405762 14.53373908996582 C 18.62103080749512 10.44645881652832 23.38020324707031 7.237632274627686 28.67905807495117 4.996418952941895 C 34.16427230834961 2.676365613937378 39.99188232421875 1.500005602836609 46.00000381469727 1.500005602836609 C 52.00812530517578 1.500005602836609 57.83573532104492 2.676365613937378 63.32094955444336 4.996418952941895 C 68.61980438232422 7.237632274627686 73.37896728515625 10.44645881652832 77.46625518798828 14.53373908996582 C 81.55353546142578 18.62101936340332 84.76236724853516 23.38017845153809 87.00359344482422 28.67901802062988 C 89.32364654541016 34.16421890258789 90.5 39.99181747436523 90.5 45.99993896484375 C 90.5 52.00806045532227 89.32364654541016 57.83565902709961 87.00359344482422 63.32085800170898 C 84.76236724853516 68.61971282958984 81.55353546142578 73.37887573242188 77.46625518798828 77.46615600585938 C 73.37896728515625 81.55342864990234 68.61980438232422 84.76226043701172 63.32094955444336 87.00347137451172 C 57.83573532104492 89.32352447509766 52.00812530517578 90.49988555908203 46.00000381469727 90.49988555908203 Z" stroke="none"/>
                              <path d="M 46.00000381469727 2.999992370605469 C 40.19371795654297 2.999992370605469 34.56270217895508 4.136497497558594 29.26338958740234 6.377906799316406 C 24.14333343505859 8.543510437011719 19.54441833496094 11.64437866210938 15.59440612792969 15.59439849853516 C 11.64440155029297 19.54439544677734 8.54351806640625 24.14329528808594 6.377914428710938 29.26335144042969 C 4.136505126953125 34.56266784667969 3.000007629394531 40.19366836547852 3.000007629394531 45.99993896484375 C 3.000007629394531 51.80620956420898 4.136505126953125 57.43722534179688 6.377914428710938 62.73654174804688 C 8.54351806640625 67.85658264160156 11.64440155029297 72.45548248291016 15.59440612792969 76.40549468994141 C 19.54441833496094 80.35549926757812 24.14333343505859 83.45636749267578 29.26337432861328 85.62196350097656 C 34.56270217895508 87.86338043212891 40.19371795654297 88.9998779296875 46.00000381469727 88.9998779296875 C 51.80628967285156 88.9998779296875 57.43730545043945 87.86338043212891 62.73663330078125 85.62196350097656 C 67.85667419433594 83.45636749267578 72.45558929443359 80.35549926757812 76.40560150146484 76.40549468994141 C 80.35560607910156 72.45548248291016 83.45648956298828 67.85658264160156 85.62208557128906 62.73654174804688 C 87.86350250244141 57.43722534179688 89 51.80620956420898 89 45.99993896484375 C 89 40.19366836547852 87.86350250244141 34.56266784667969 85.62208557128906 29.26335144042969 C 83.45648956298828 24.14329528808594 80.35560607910156 19.54439544677734 76.40560150146484 15.59439849853516 C 72.45558929443359 11.64437866210938 67.85667419433594 8.543510437011719 62.73661804199219 6.377906799316406 C 57.43730545043945 4.136497497558594 51.80628967285156 2.999992370605469 46.00000381469727 2.999992370605469 M 46.00000381469727 -7.62939453125e-06 C 71.40510559082031 -7.62939453125e-06 92 20.59487915039062 92 45.99993896484375 C 92 71.40501403808594 71.40510559082031 91.99988555908203 46.00000381469727 91.99988555908203 C 20.59490203857422 91.99988555908203 7.62939453125e-06 71.40501403808594 7.62939453125e-06 45.99993896484375 C 7.62939453125e-06 20.59487915039062 20.59490203857422 -7.62939453125e-06 46.00000381469727 -7.62939453125e-06 Z" stroke="none" fill="#86b60c"/>
                            </g>
                          </g>
                        </g>
                      </g>
                    </g>
                  </g>
                </g>
              </g>
            </g>
          </g>
        </g>
      </g>
    </g>
    <g id="team_3881700" transform="translate(1011 15076)">
      <g id="Grupo_1176008" data-name="Grupo 1176008" transform="translate(0.917 0.917)">
        <g id="Grupo_1175987" data-name="Grupo 1175987" transform="translate(3.667 48.279)">
          <path id="Trazado_1032307" data-name="Trazado 1032307" d="M17.833,59.472v.917H5v-.917a6.382,6.382,0,0,1,3.694-5.8c-.009.1-.027.2-.027.3a2.75,2.75,0,1,0,5.5,0c0-.1-.018-.2-.027-.3a6.1,6.1,0,0,1,1.815,1.265A6.378,6.378,0,0,1,17.833,59.472Z" transform="translate(-5 -53.67)" fill="#b4dd7f"/>
        </g>
        <g id="Grupo_1175988" data-name="Grupo 1175988" transform="translate(38.498 48.279)">
          <path id="Trazado_1032308" data-name="Trazado 1032308" d="M55.833,59.472v.917H43v-.917a6.382,6.382,0,0,1,3.694-5.8c-.009.1-.027.2-.027.3a2.75,2.75,0,1,0,5.5,0c0-.1-.018-.2-.027-.3a6.1,6.1,0,0,1,1.815,1.265A6.378,6.378,0,0,1,55.833,59.472Z" transform="translate(-43 -53.67)" fill="#ef7385"/>
        </g>
        <g id="Grupo_1175989" data-name="Grupo 1175989" transform="translate(41.248 25.666)">
          <path id="Trazado_1032309" data-name="Trazado 1032309" d="M49.667,29a3.666,3.666,0,0,1,3.667,3.667v.028a4.2,4.2,0,0,0-.486-.028H46.486a4.2,4.2,0,0,0-.486.028v-.028A3.666,3.666,0,0,1,49.667,29Z" transform="translate(-46 -29)" fill="#b27946"/>
        </g>
        <g id="Grupo_1175990" data-name="Grupo 1175990" transform="translate(34.832 29.332)">
          <path id="Trazado_1032310" data-name="Trazado 1032310" d="M55.5,46V41.25a2.746,2.746,0,0,0-2.75-2.75H45.416a2.746,2.746,0,0,0-2.75,2.75V46l-.073-.037a6.9,6.9,0,0,1,2.823-12.934A4.2,4.2,0,0,1,45.9,33h6.361a4.2,4.2,0,0,1,.486.028,6.9,6.9,0,0,1,2.823,12.934Z" transform="translate(-39 -33)" fill="#b27946"/>
        </g>
        <g id="Grupo_1175991" data-name="Grupo 1175991" transform="translate(0 27.499)">
          <path id="Trazado_1032311" data-name="Trazado 1032311" d="M4.667,39.25v1.833H3.75a2.735,2.735,0,0,0-1.907.77A8.1,8.1,0,0,1,1,38.241V31a17.3,17.3,0,0,0,7.764,1.833h6.994a5.414,5.414,0,0,1,5.408,5.408,8.1,8.1,0,0,1-.843,3.612,2.735,2.735,0,0,0-1.907-.77H17.5V39.25L9.25,36.5l-.312.458A5.139,5.139,0,0,1,4.667,39.25Z" transform="translate(-1 -31)" fill="#b27946"/>
        </g>
        <g id="Grupo_1175992" data-name="Grupo 1175992" transform="translate(17.416)">
          <path id="Trazado_1032312" data-name="Trazado 1032312" d="M40.166,7.481a6.422,6.422,0,0,1-.944,3.364,2.715,2.715,0,0,0-1.806-.678H36.5a1.839,1.839,0,0,0-1.833-1.833H30.844A6.265,6.265,0,0,1,26.416,6.5a4.03,4.03,0,0,0-2.75,3.667H22.75a2.715,2.715,0,0,0-1.806.678A6.477,6.477,0,0,1,26.481,1h7.2a6.478,6.478,0,0,1,6.481,6.481Z" transform="translate(-20 -1)" fill="#656d78"/>
        </g>
        <g id="Grupo_1175993" data-name="Grupo 1175993" transform="translate(44.915 6.416)">
          <path id="Trazado_1032313" data-name="Trazado 1032313" d="M50,19V8h9.166V19H50Z" transform="translate(-50 -8)" fill="#e6e9ed"/>
        </g>
        <g id="Grupo_1175994" data-name="Grupo 1175994" transform="translate(0.917 6.416)">
          <path id="Trazado_1032314" data-name="Trazado 1032314" d="M2,19V8h9.166V19H2Z" transform="translate(-2 -8)" fill="#e6e9ed"/>
        </g>
        <g id="Grupo_1175995" data-name="Grupo 1175995" transform="translate(21.082 21.257)">
          <path id="Trazado_1032315" data-name="Trazado 1032315" d="M32.25,27.682l1.742-3.492a6.4,6.4,0,0,1,2.842,5.326v.917H24v-.917a6.378,6.378,0,0,1,1.879-4.537,6.122,6.122,0,0,1,.962-.788l1.742,3.492,1.833-1.833Z" transform="translate(-24 -24.19)" fill="#75b1f2"/>
        </g>
        <g id="Grupo_1175996" data-name="Grupo 1175996" transform="translate(23.924 20.166)">
          <path id="Trazado_1032316" data-name="Trazado 1032316" d="M34.25,24.091l-1.742,3.492L30.675,25.75l-1.833,1.833L27.1,24.091a6.4,6.4,0,0,1,7.15,0Z" transform="translate(-27.1 -23)" fill="#5d9cec"/>
        </g>
        <g id="Grupo_1175997" data-name="Grupo 1175997" transform="translate(33.915 9.166)">
          <path id="Trazado_1032317" data-name="Trazado 1032317" d="M40.722,11.678A2.75,2.75,0,0,1,38.917,16.5H38V11h.917a2.715,2.715,0,0,1,1.806.678Z" transform="translate(-38 -11)" fill="#f0d0b4"/>
        </g>
        <g id="Grupo_1175998" data-name="Grupo 1175998" transform="translate(21.082 5.5)">
          <path id="Trazado_1032318" data-name="Trazado 1032318" d="M24,10.667A4.03,4.03,0,0,1,26.75,7a6.265,6.265,0,0,0,4.427,1.833H35a1.839,1.839,0,0,1,1.833,1.833v5.5a5.5,5.5,0,0,1-5.5,5.5H29.5a5.5,5.5,0,0,1-5.5-5.5v-5.5Z" transform="translate(-24 -7)" fill="#f0d0b4"/>
        </g>
        <g id="Grupo_1175999" data-name="Grupo 1175999" transform="translate(17.416 9.166)">
          <path id="Trazado_1032319" data-name="Trazado 1032319" d="M23.667,11v5.5H22.75a2.748,2.748,0,0,1-1.806-4.821A2.715,2.715,0,0,1,22.75,11Z" transform="translate(-20 -11)" fill="#f0d0b4"/>
        </g>
        <g id="Grupo_1176000" data-name="Grupo 1176000" transform="translate(42.165 47.665)">
          <path id="Trazado_1032320" data-name="Trazado 1032320" d="M49.75,53l2.722.614c.009.1.027.2.027.3a2.75,2.75,0,1,1-5.5,0c0-.1.018-.2.027-.3A6.306,6.306,0,0,1,49.75,53Z" transform="translate(-47 -53)" fill="#f0d0b4"/>
        </g>
        <g id="Grupo_1176001" data-name="Grupo 1176001" transform="translate(38.498 34.832)">
          <path id="Trazado_1032321" data-name="Trazado 1032321" d="M55.833,46.5v.752a4.585,4.585,0,0,1-4.583,4.583H47.583A4.592,4.592,0,0,1,43.917,50,4.529,4.529,0,0,1,43,47.25v-5.5A2.746,2.746,0,0,1,45.75,39h7.333a2.746,2.746,0,0,1,2.75,2.75Z" transform="translate(-43 -39)" fill="#f0d0b4"/>
        </g>
        <g id="Grupo_1176002" data-name="Grupo 1176002" transform="translate(16.499 37.582)">
          <path id="Trazado_1032322" data-name="Trazado 1032322" d="M21.86,42.807A2.748,2.748,0,0,1,19.917,47.5H19V42h.917a2.735,2.735,0,0,1,1.907.77Z" transform="translate(-19 -42)" fill="#f0d0b4"/>
        </g>
        <g id="Grupo_1176003" data-name="Grupo 1176003" transform="translate(7.333 47.665)">
          <path id="Trazado_1032323" data-name="Trazado 1032323" d="M14.5,53.917a2.75,2.75,0,1,1-5.5,0c0-.1.018-.2.027-.3A6.306,6.306,0,0,1,11.75,53l2.722.614C14.481,53.715,14.5,53.816,14.5,53.917Z" transform="translate(-9 -53)" fill="#f0d0b4"/>
        </g>
        <g id="Grupo_1176004" data-name="Grupo 1176004" transform="translate(3.667 32.999)">
          <path id="Trazado_1032324" data-name="Trazado 1032324" d="M17.833,41.583v5.5a4.529,4.529,0,0,1-.917,2.75,4.592,4.592,0,0,1-3.667,1.833H9.583A4.585,4.585,0,0,1,5,47.083V39.75a5.139,5.139,0,0,0,4.271-2.292L9.583,37l8.25,2.75Z" transform="translate(-5 -37)" fill="#f0d0b4"/>
        </g>
        <g id="Grupo_1176005" data-name="Grupo 1176005" transform="translate(0 37.582)">
          <path id="Trazado_1032325" data-name="Trazado 1032325" d="M4.667,42v5.5H3.75a2.75,2.75,0,0,1,0-5.5Z" transform="translate(-1 -42)" fill="#f0d0b4"/>
        </g>
        <g id="Grupo_1176006" data-name="Grupo 1176006" transform="translate(21.999 40.332)">
          <path id="Trazado_1032326" data-name="Trazado 1032326" d="M30.5,45A5.5,5.5,0,1,1,25,50.5,5.5,5.5,0,0,1,30.5,45Z" transform="translate(-25 -45)" fill="#fcd770"/>
        </g>
        <g id="Grupo_1176007" data-name="Grupo 1176007" transform="translate(25.666 43.998)">
          <ellipse id="Elipse_12226" data-name="Elipse 12226" cx="1.5" cy="2" rx="1.5" ry="2" transform="translate(0.418 0.085)" fill="#ffeaa7"/>
        </g>
      </g>
      <g id="Grupo_1176009" data-name="Grupo 1176009" transform="translate(0 0)">
        <circle id="Elipse_12227" data-name="Elipse 12227" cx="1" cy="1" r="1" transform="translate(13 38)"/>
        <circle id="Elipse_12228" data-name="Elipse 12228" cx="1" cy="1" r="1" transform="translate(7 38)"/>
        <path id="Trazado_1032327" data-name="Trazado 1032327" d="M13.509,46.746a2.05,2.05,0,0,1-3.667,0l-.1-.193-1.64.82.1.193a3.883,3.883,0,0,0,6.946,0l.1-.193-1.64-.82Z" transform="translate(-0.676 -3.881)"/>
        <ellipse id="Elipse_12229" data-name="Elipse 12229" cx="0.5" cy="1" rx="0.5" ry="1" transform="translate(48 38)"/>
        <circle id="Elipse_12230" data-name="Elipse 12230" cx="1" cy="1" r="1" transform="translate(42 38)"/>
        <path id="Trazado_1032328" data-name="Trazado 1032328" d="M51.509,46.746a2.05,2.05,0,0,1-3.667,0l-.1-.193-1.64.82.1.193a3.883,3.883,0,0,0,6.946,0l.1-.193-1.64-.82Z" transform="translate(-3.844 -3.881)"/>
        <path id="Trazado_1032329" data-name="Trazado 1032329" d="M56.831,37.151a7.826,7.826,0,0,0-6.5-7.7,4.57,4.57,0,0,0-9,0,7.793,7.793,0,0,0-2.831,14.3V44a5.477,5.477,0,0,0,.321,1.833H34.759a6.421,6.421,0,0,0-5.426-5.426V29.332h6.416V27.5a7.327,7.327,0,0,0-3.471-6.222,6.426,6.426,0,0,0,3.4-4.777h.073a3.67,3.67,0,0,0,3.667-3.667,3.627,3.627,0,0,0-.758-2.207A7.37,7.37,0,0,0,32.017,0h-7.2a7.37,7.37,0,0,0-6.641,10.626,3.627,3.627,0,0,0-.758,2.207A3.67,3.67,0,0,0,21.082,16.5h.073a6.426,6.426,0,0,0,3.4,4.777A7.327,7.327,0,0,0,21.082,27.5v1.833H27.5V40.405a6.421,6.421,0,0,0-5.426,5.426H18.012a5.471,5.471,0,0,0,.238-.917h.082a3.653,3.653,0,0,0,2.967-5.8,9.122,9.122,0,0,0,.7-3.456,6.331,6.331,0,0,0-6.324-6.324H8.682A16.52,16.52,0,0,1,1.327,27.6L0,26.932v8.724a9.114,9.114,0,0,0,.7,3.455,3.653,3.653,0,0,0,2.967,5.8h.082a5.505,5.505,0,0,0,3.084,4.056A7.328,7.328,0,0,0,3.667,55v1.833H18.333V55a7.328,7.328,0,0,0-3.166-6.027,5.523,5.523,0,0,0,1.754-1.306h5.151a6.408,6.408,0,0,0,12.686,0H39.91a5.523,5.523,0,0,0,1.754,1.306A7.325,7.325,0,0,0,38.5,55l0,1.835H53.161l0-1.833A7.328,7.328,0,0,0,50,48.971,5.5,5.5,0,0,0,53.165,44v-.243a7.8,7.8,0,0,0,3.667-6.6ZM30.785,22.544,30,24.118l-1.582-1.582-1.583,1.582-.787-1.575a5.43,5.43,0,0,1,4.74,0Zm4.964-7.878V11a1.833,1.833,0,1,1,0,3.667Zm-16.5-1.833A1.835,1.835,0,0,1,21.082,11v3.667A1.835,1.835,0,0,1,19.249,12.833Zm1.963-3.667h-.13a3.639,3.639,0,0,0-1.429.291,5.545,5.545,0,0,1,5.161-7.624h7.2a5.544,5.544,0,0,1,5.162,7.623,3.654,3.654,0,0,0-1.429-.29H35.58A2.746,2.746,0,0,0,33,7.333H29.174A5.379,5.379,0,0,1,25.4,5.768l-.4-.4-.537.18a4.922,4.922,0,0,0-3.247,3.62Zm6.286,11a4.588,4.588,0,0,1-4.583-4.583V10.231a3.1,3.1,0,0,1,1.649-2.743,7.233,7.233,0,0,0,4.61,1.677H33a.917.917,0,0,1,.917.917v5.5a4.588,4.588,0,0,1-4.583,4.583ZM24.53,23.611l1.8,3.6,2.084-2.084L30.5,27.213l1.8-3.6A5.481,5.481,0,0,1,33.915,27.5h-11A5.481,5.481,0,0,1,24.53,23.611Zm-6.2,19.471V39.415a1.833,1.833,0,1,1,0,3.667Zm-16.5-1.833a1.835,1.835,0,0,1,1.833-1.833v3.667A1.835,1.835,0,0,1,1.833,41.248Zm2.75-5.5H3.667v1.833a3.637,3.637,0,0,0-1.468.312,7.258,7.258,0,0,1-.365-2.237V29.833a18.371,18.371,0,0,0,6.849,1.333h6.993a4.5,4.5,0,0,1,4.491,4.491,7.262,7.262,0,0,1-.365,2.237,3.637,3.637,0,0,0-1.468-.312V36l-9.54-3.18-.7,1.045A4.215,4.215,0,0,1,4.583,35.749ZM12.8,49.808A1.819,1.819,0,0,1,9.21,49.8a5.4,5.4,0,0,1,3.591.005ZM16.5,55H5.5a5.491,5.491,0,0,1,2.057-4.282,3.644,3.644,0,0,0,6.886,0A5.491,5.491,0,0,1,16.5,55Zm-3.667-7.333H9.166A3.67,3.67,0,0,1,5.5,44V37.513a6.041,6.041,0,0,0,4.039-2.507l6.961,2.32V44a3.67,3.67,0,0,1-3.667,3.667Zm15.583,3.667A4.583,4.583,0,1,1,33,46.748,4.588,4.588,0,0,1,28.416,51.331ZM45.832,27.5a2.747,2.747,0,0,1,2.581,1.833H43.252A2.744,2.744,0,0,1,45.832,27.5Zm1.8,22.308a1.819,1.819,0,0,1-3.591,0,5.412,5.412,0,0,1,3.591,0ZM51.331,55l-11,0a5.491,5.491,0,0,1,2.057-4.282,3.644,3.644,0,0,0,6.886,0A5.488,5.488,0,0,1,51.331,55Zm0-11a3.67,3.67,0,0,1-3.667,3.667H44A3.67,3.67,0,0,1,40.332,44V38.5a1.835,1.835,0,0,1,1.833-1.833H49.5A1.835,1.835,0,0,1,51.331,38.5Zm1.833-2.536V38.5A3.67,3.67,0,0,0,49.5,34.832H42.165A3.67,3.67,0,0,0,38.5,38.5v2.963a5.985,5.985,0,0,1,4.152-10.3h6.36a5.985,5.985,0,0,1,4.153,10.3Z" transform="translate(0 0)"/>
        <circle id="Elipse_12231" data-name="Elipse 12231" cx="1" cy="1" r="1" transform="translate(25 11)"/>
        <circle id="Elipse_12232" data-name="Elipse 12232" cx="1" cy="1" r="1" transform="translate(30 11)"/>
        <path id="Trazado_1032330" data-name="Trazado 1032330" d="M34.148,17.566l.1-.193-1.64-.82-.1.194a2.05,2.05,0,0,1-3.667,0l-.1-.193-1.64.82.1.193a3.883,3.883,0,0,0,6.946,0Z" transform="translate(-2.26 -1.38)"/>
        <path id="Trazado_1032331" data-name="Trazado 1032331" d="M30.75,48a2.75,2.75,0,1,0,2.75,2.75A2.753,2.753,0,0,0,30.75,48Zm0,3.667a.917.917,0,1,1,.917-.917A.917.917,0,0,1,30.75,51.667Z" transform="translate(-2.334 -4.002)"/>
        <path id="Trazado_1032332" data-name="Trazado 1032332" d="M48.667,19.833H53.25v4.583h1.833V19.833h4.583V7h-11v5.5H45v1.833h3.667Zm1.833-11h7.333V18H50.5Z" transform="translate(-3.752 -0.584)"/>
        <path id="Trazado_1032333" data-name="Trazado 1032333" d="M53,11h3.667v1.833H53Z" transform="translate(-4.419 -0.917)"/>
        <path id="Trazado_1032334" data-name="Trazado 1032334" d="M53,15h3.667v1.833H53Z" transform="translate(-4.419 -1.251)"/>
        <path id="Trazado_1032335" data-name="Trazado 1032335" d="M5,11H8.667v1.833H5Z" transform="translate(-0.417 -0.917)"/>
        <path id="Trazado_1032336" data-name="Trazado 1032336" d="M5,15H8.667v1.833H5Z" transform="translate(-0.417 -1.251)"/>
        <path id="Trazado_1032337" data-name="Trazado 1032337" d="M5.583,24.416H7.416V19.833H12v-5.5h3.667V12.5H12V7H1V19.833H5.583ZM2.833,8.833h7.333V18H2.833Z" transform="translate(-0.083 -0.584)"/>
      </g>
    </g>
  </g>
</svg>
