<svg xmlns="http://www.w3.org/2000/svg" width="395.024" height="474.743" viewBox="0 0 395.024 474.743">
  <g id="Grupo_1176026" data-name="Grupo 1176026" transform="translate(235.512 -16206.465)">
    <path id="Trazado_1032367" data-name="Trazado 1032367" d="M74.016,643.69l.681.1,4.177,11.967c.541,1.492,1.774,3.7,1.895,5.236l-16.64,6.084a2.034,2.034,0,0,1-.535-.129l-6.1-16.942a1.02,1.02,0,0,1,.13-.282c.364-.394,3.069-1.05,3.713-1.272Z" transform="translate(-293.001 15801.508)" fill="#ffe1b9"/>
    <path id="Trazado_1032368" data-name="Trazado 1032368" d="M850.349,230.611l.5.136-14.466,27.4-14.82-8.306-10.118-5.7Z" transform="translate(-720.341 16035.638)" fill="#ffe1b9"/>
    <path id="Trazado_1032369" data-name="Trazado 1032369" d="M766.574,145.435l22.4,3.313-3.022,21.646-22.667-3.314a64.291,64.291,0,0,0,1.17-7.212Z" transform="translate(-693.043 16083.915)" fill="#ffe1b9"/>
    <path id="Trazado_1032370" data-name="Trazado 1032370" d="M655.629,92.607l.216.36-10.122,29.309-17.2-10.38-10.8-6.112c3.335-1.787,7.782-2.723,11.409-3.968Z" transform="translate(-610.535 16113.857)" fill="#ffe1b9"/>
    <path id="Trazado_1032371" data-name="Trazado 1032371" d="M138.435,179.849a1.274,1.274,0,0,1,.473.1,7.091,7.091,0,0,1,1.053,1.456l2.856,4.26,11.046,15.993c1.863,2.688,3.591,5.484,5.587,8.077L128.65,229.8l-.494.034-20.415-29.149Z" transform="translate(-321.483 16064.409)" fill="#ffe1b9"/>
    <path id="Trazado_1032372" data-name="Trazado 1032372" d="M624.833,1121.4c1.008.351,2.631,0,3.73-.052l6.589-.078,41.387-.069c.321,4.514.145,9.145.151,13.676,0,2.937.536,7.07-.52,9.777l-.129.342a9.024,9.024,0,0,1-4.137,4.258l-.221.074a2.169,2.169,0,0,1-1.116.411l-12.608.026-24.583.017-17.391.017a90.917,90.917,0,0,1-10.023-.165,7.794,7.794,0,0,1-4.245-1.923c-2.352-2.209-2.257-5.125-2.383-8.079l.06-18.827a2.8,2.8,0,0,0,1.1.49,19.684,19.684,0,0,0,3.391.048l7.577.017a38.434,38.434,0,0,0,4.435.23,1.762,1.762,0,0,0,.612-.182c1.16.6,6.451.775,7.757.312A3.923,3.923,0,0,0,624.833,1121.4Z" transform="translate(-600.115 15531.078)" fill="#fbb53c"/>
    <path id="Trazado_1032373" data-name="Trazado 1032373" d="M645.384,1122.18a6.326,6.326,0,0,1,1.073.814l0,16.436-10.756.074-.038-11.233a26.966,26.966,0,0,1,.15-5.515l1.255-.568c1.16.6,6.451.776,7.757.312A3.9,3.9,0,0,0,645.384,1122.18Z" transform="translate(-620.666 15530.302)" fill="#fefefe"/>
    <path id="Trazado_1032374" data-name="Trazado 1032374" d="M617.061,1042.64a6.823,6.823,0,0,0,1.063.594,14.109,14.109,0,0,0,2.837,0l8.389,0,34.926-.052,8.275-.017a17.045,17.045,0,0,0,3.735-.1l.573-.221a43.821,43.821,0,0,0-.173,7.265l.01,17.059a53.414,53.414,0,0,1-.11,7.555l.109.277-.007,1.663-.126.243-41.387.069-6.589.078c-1.1.048-2.722.4-3.73.052a3.928,3.928,0,0,1-.563.321c-1.306.463-6.6.29-7.757-.312a1.765,1.765,0,0,1-.612.182,38.407,38.407,0,0,1-4.435-.23l-7.577-.017a19.672,19.672,0,0,1-3.391-.048,2.8,2.8,0,0,1-1.1-.49,14.584,14.584,0,0,1,.008-2.162l.015-29.055a3.367,3.367,0,0,1,1.85-1.8,12.478,12.478,0,0,1,3.624-.169l8.361-.043c1.159-.013,2.663.169,3.634-.516Z" transform="translate(-600.137 15575.385)" fill="#fbb53c"/>
    <path id="Trazado_1032375" data-name="Trazado 1032375" d="M599.424,1115.82c1.672,1.118,20.29.446,23.512.438l38.242.056h9.881a34.582,34.582,0,0,0,5.527-.121l.109.277-.007,1.664-.126.243-41.387.069-6.589.078c-1.1.048-2.722.4-3.73.052a3.92,3.92,0,0,1-.563.321c-1.306.464-6.6.29-7.757-.312a1.765,1.765,0,0,1-.612.182,38.487,38.487,0,0,1-4.435-.23l-7.577-.017a19.647,19.647,0,0,1-3.391-.048,2.791,2.791,0,0,1-1.1-.49A14.577,14.577,0,0,1,599.424,1115.82Z" transform="translate(-600.137 15533.907)" fill="#e0682c"/>
    <path id="Trazado_1032376" data-name="Trazado 1032376" d="M635.988,1069.21a7.375,7.375,0,0,0,3.359.377l7.385.069-.007,16.037c-1.045.645-2.384.464-3.573.468l-7.076-.013Z" transform="translate(-620.89 15560.325)" fill="#fefefe"/>
    <path id="Trazado_1032377" data-name="Trazado 1032377" d="M99.085,396.15l.152.4c1.054,2.7,3.932,5.734,4.346,8.447l.062.373c.662,4.347-.912,8.183-3.485,11.594l-4.238,5.205c-2.873,3.877-4.749,8.706-4.088,13.559a13.479,13.479,0,0,0,5.72,9.053,43.085,43.085,0,0,0,6.256,3.93c5.675,2.869,10.335,4.486,11.406,11.526.252,1.657.256,3.38.629,5.014.9,3.955,3.925,6.8,7.058,9.144l3.319,2.375a52.5,52.5,0,0,0-13.948,18.692,128.974,128.974,0,0,0-6.584,19.055,411.393,411.393,0,0,0-9.209,41.56L87.74,618.008,86.5,644.491c0,4.01-.2,8.558.906,12.433a8.048,8.048,0,0,0,1.551,2.832,11.5,11.5,0,0,0,8.189,4.133c3.6.286,8.027-2.114,11.315-3.5l21-9.375c3.261-1.513,6.651-3.492,10.02-4.7-2.92,5.653-5.308,11.5-7.667,17.4-4.658,11.649-8.648,24.039-10.692,36.454-.834,3.782-.764,8.006-1.828,11.662a64.814,64.814,0,0,1-8.088-4.388,114.9,114.9,0,0,1-22.318-17.038,103.209,103.209,0,0,1-16.565-21c-15.566-26.695-20.808-63.855-6.313-92.044A87.392,87.392,0,0,1,76.1,562.029l8.889-10.04c5.933-7.2,10.737-16.506,10.981-25.985.5-19.441-15.3-31.46-22.268-48.063a56.09,56.09,0,0,1-3.944-21.289C69.809,432.94,82.837,412.358,99.085,396.15Z" transform="translate(-293 15941.812)" fill="#ffe1b9"/>
    <path id="Trazado_1032378" data-name="Trazado 1032378" d="M299.267,841.389c.4-.626,10.293-6.211,11.4-6.486a11.892,11.892,0,0,0-.506,4.093l0,.313c.76,2.033,1.679,3.548,3.769,4.424,2.354.987,6.613.452,9.2.456l16.284,0,.755.279a25.876,25.876,0,0,1-1.143,5.133l-3.772,14.618c-.631,2.458-1.6,5.009-1.613,7.567l3.247,18.085.246,1.392,11.214,46.976c2.729,13.928,4.274,27.933,5.726,42.034a54.794,54.794,0,0,0,.483,7.8L197.5,988.014l1.156-27.5c1.064-3.656.994-7.88,1.828-11.662,2.043-12.416,6.033-24.805,10.692-36.454,2.359-5.9,4.747-11.746,7.667-17.4l34.057-16.63a8.939,8.939,0,0,1-1.149-1.785l-.166-.4a3.968,3.968,0,0,0-.2-1.725l13,.885c1.787-2.431,4.443-4.613,6.549-6.806l17.094-17.642,4.44-4.453a10.325,10.325,0,0,1,2.491-2.107l2.086-1.395A19.437,19.437,0,0,0,299.267,841.389Z" transform="translate(-372.356 15693.129)" fill="#254a78"/>
    <path id="Trazado_1032379" data-name="Trazado 1032379" d="M303.172,841.389c.4-.626,10.293-6.211,11.4-6.486a11.892,11.892,0,0,0-.506,4.093l0,.313c.76,2.033,1.679,3.548,3.769,4.424,2.354.987,6.613.452,9.2.456l16.284,0,.755.279a25.878,25.878,0,0,1-1.143,5.133l-3.772,14.618c-.631,2.458-1.6,5.009-1.613,7.567l3.247,18.085.246,1.392a95.516,95.516,0,0,1-14.089,3.055c-18.36,2.988-37.307,2.821-55.794,1.187l-17.2-1.911-4.186-.655a8.278,8.278,0,0,0-1.428-.261c-.56.157-2.4,2.186-2.89,2.652a226.352,226.352,0,0,0-29.458,34.647,166.683,166.683,0,0,0-10.687,18.069c-.328.633-.207.728-.922.8,2.043-12.416,6.033-24.805,10.692-36.454,2.359-5.9,4.747-11.746,7.667-17.4l34.057-16.63a8.941,8.941,0,0,1-1.149-1.785l-.166-.4a3.968,3.968,0,0,0-.2-1.725l13,.885c1.787-2.431,4.443-4.613,6.549-6.806l17.094-17.642,4.44-4.453a10.326,10.326,0,0,1,2.491-2.107l2.086-1.395A19.432,19.432,0,0,0,303.172,841.389Z" transform="translate(-376.26 15693.129)" fill="#0a2d52"/>
    <path id="Trazado_1032380" data-name="Trazado 1032380" d="M386.786,841.389c.4-.626,10.293-6.211,11.4-6.486a11.892,11.892,0,0,0-.506,4.093l0,.313c.76,2.033,1.679,3.548,3.769,4.424,2.354.987,6.613.452,9.2.456l16.284,0,.755.279a25.878,25.878,0,0,1-1.143,5.133l-3.772,14.618c-.631,2.458-1.6,5.009-1.613,7.567-14.845,3.44-30.425,4.261-45.628,4.31-7.859.026-15.8-.034-23.63-.757,1.787-2.431,4.443-4.613,6.549-6.806l17.094-17.642,4.44-4.453a10.326,10.326,0,0,1,2.491-2.107l2.086-1.395A19.437,19.437,0,0,0,386.786,841.389Z" transform="translate(-459.875 15693.129)" fill="#fbb53c"/>
    <path id="Trazado_1032381" data-name="Trazado 1032381" d="M426.788,849.874c.027,1.153.25,1.936-.7,2.8-.879.8-1.491.7-2.6.7l-1-.556,2.086-1.395A19.435,19.435,0,0,0,426.788,849.874Z" transform="translate(-499.877 15684.644)" fill="#fefefe"/>
    <path id="Trazado_1032382" data-name="Trazado 1032382" d="M424.964,881.655a3.62,3.62,0,0,1,2.309.493,2.461,2.461,0,0,1,.9,1.807c.039.935-.53,1.419-1.136,2.042a3.856,3.856,0,0,1-2.525-.211,2.516,2.516,0,0,1-.668-1.357C423.7,883.183,424.213,882.6,424.964,881.655Z" transform="translate(-500.633 15666.631)" fill="#fefefe"/>
    <path id="Trazado_1032383" data-name="Trazado 1032383" d="M426.082,913.663a3.389,3.389,0,0,1,1.959.507,2.55,2.55,0,0,1,.973,1.968,3.52,3.52,0,0,1-1.443,2.225,3.865,3.865,0,0,1-2.379-.509,2.807,2.807,0,0,1-.721-2.122C424.513,914.831,425.447,914.2,426.082,913.663Z" transform="translate(-501.001 15648.488)" fill="#fefefe"/>
    <path id="Trazado_1032384" data-name="Trazado 1032384" d="M204.441,512.371c9.043,12.248,23.569,19.561,36.626,26.717a34.272,34.272,0,0,1,4.59,1.8l6.016-15.966c1.2-3.48,2.175-7.548,3.924-10.751,2.848,2.218,8.31,14.136,9.692,17.865A60.583,60.583,0,0,1,274,535.314L288.59,542.3c6.409,3.648,13.387,8.345,17.611,14.5l.076.107L289.06,601.631l-12.411,31.253-5.042,13.221a49.121,49.121,0,0,1-2.353,5.988c-1.106.275-11,5.859-11.4,6.486a19.44,19.44,0,0,1-2.219,1.551l-2.086,1.395a10.327,10.327,0,0,0-2.491,2.107l-4.44,4.453-17.094,17.642c-2.106,2.193-4.762,4.375-6.549,6.806l-13-.885a3.967,3.967,0,0,1,.2,1.725l.166.4a8.935,8.935,0,0,0,1.149,1.785l-34.057,16.63c-3.369,1.2-6.758,3.183-10.02,4.7l-21,9.375c-3.288,1.386-7.719,3.786-11.315,3.5a11.5,11.5,0,0,1-8.189-4.133,8.048,8.048,0,0,1-1.551-2.832c-1.108-3.875-.9-8.423-.906-12.433l1.238-26.483,8.739-61.935a411.384,411.384,0,0,1,9.209-41.56,128.97,128.97,0,0,1,6.584-19.055,52.5,52.5,0,0,1,13.948-18.692,77,77,0,0,1,29.416-14.144c1.036-.246,1.631-.358,2.207-1.293a21.7,21.7,0,0,1,2.046-3.787C199.81,519.8,201.818,515.54,204.441,512.371Z" transform="translate(-330.944 15875.938)" fill="#fbb53c"/>
    <path id="Trazado_1032385" data-name="Trazado 1032385" d="M423.8,759.485l-1.071-.851c-.746-.805-.631-1.318-.593-2.341.422-.607.734-1.237,1.541-1.382,1.125-.2,1.8.423,2.677.988Z" transform="translate(-499.662 15738.49)" fill="#fefefe"/>
    <path id="Trazado_1032386" data-name="Trazado 1032386" d="M419.6,720.531a3.534,3.534,0,0,1,2.314.626,2.771,2.771,0,0,1,.662,1.717c.01.921-.643,1.5-1.23,2.134a3.152,3.152,0,0,1-2.353-.568,2.527,2.527,0,0,1-.709-1.836C418.314,721.682,418.987,721.133,419.6,720.531Z" transform="translate(-497.498 15757.953)" fill="#fefefe"/>
    <path id="Trazado_1032387" data-name="Trazado 1032387" d="M414.959,687.477a12.023,12.023,0,0,1,2.03.13c.592.536,1.146.9,1.21,1.772.081,1.093-.492,1.652-1.091,2.459a4.366,4.366,0,0,1-1.941-.161,2.732,2.732,0,0,1-1.28-1.6A3.362,3.362,0,0,1,414.959,687.477Z" transform="translate(-494.991 15776.693)" fill="#fefefe"/>
    <path id="Trazado_1032388" data-name="Trazado 1032388" d="M399.653,581.092a3.96,3.96,0,0,1,2.208.606,2.314,2.314,0,0,1,.895,2.035,3.185,3.185,0,0,1-1.357,2.2l-1.569-.224a3.356,3.356,0,0,1-1.4-2.108A3.586,3.586,0,0,1,399.653,581.092Z" transform="translate(-486.244 15836.987)" fill="#fefefe"/>
    <path id="Trazado_1032389" data-name="Trazado 1032389" d="M405.229,620.592a5.377,5.377,0,0,1,2.326.338,2.329,2.329,0,0,1,.913,1.837,3.362,3.362,0,0,1-1.367,2.443,3.8,3.8,0,0,1-1.845-.344,2.832,2.832,0,0,1-1.319-1.963A3.419,3.419,0,0,1,405.229,620.592Z" transform="translate(-489.365 15814.604)" fill="#fefefe"/>
    <path id="Trazado_1032390" data-name="Trazado 1032390" d="M409.937,654.272a5.885,5.885,0,0,1,2.257.153,2.69,2.69,0,0,1,1.208,1.76,4.5,4.5,0,0,1-1.036,2.417,3.446,3.446,0,0,1-2.568-.3,2.456,2.456,0,0,1-.929-1.734A3.11,3.11,0,0,1,409.937,654.272Z" transform="translate(-492.156 15795.536)" fill="#fefefe"/>
    <path id="Trazado_1032391" data-name="Trazado 1032391" d="M295.963,861.437l1.281-.385a160.013,160.013,0,0,0,6.486,19.73,26.77,26.77,0,0,0,1.773,4.186l1.692,4.309a3.967,3.967,0,0,1,.2,1.725c-1.765-1.8-2.918-4.993-3.9-7.3C300.467,876.636,297.52,868.976,295.963,861.437Z" transform="translate(-428.166 15678.309)" fill="#fa8965"/>
    <path id="Trazado_1032392" data-name="Trazado 1032392" d="M202.077,868.622l.356.449c-1.9,1.567-4.751,2.769-6.946,3.956l-23.947,12.1c3.646-4.795,11.015-7.635,16.344-10.307C192.339,872.584,197.268,869.92,202.077,868.622Z" transform="translate(-357.643 15674.018)" fill="#e0682c"/>
    <path id="Trazado_1032393" data-name="Trazado 1032393" d="M248,805.426a39.277,39.277,0,0,1,1.1,6.322l2.429,16.571-9.137,4.932-.356-.449Z" transform="translate(-397.598 15709.836)" fill="#4db6ba"/>
    <path id="Trazado_1032394" data-name="Trazado 1032394" d="M414.2,516.52c2.848,2.218,8.31,14.136,9.692,17.865l4.245,16.13-23.877-7.278,6.016-15.966C411.481,523.792,412.454,519.723,414.2,516.52Z" transform="translate(-489.551 15873.586)" fill="#fefefe"/>
    <path id="Trazado_1032395" data-name="Trazado 1032395" d="M255.806,736.3c2.67-13.671,6.382-27.331,10.194-40.727l2.321-7.76a25.448,25.448,0,0,1,1.476-4.345c-.257,4.36-1.376,8.648-1.539,13.075-.785,21.231,2.683,42.723,7.39,63.372l-1.164.483-1.281.385-1.58-7.2c-1.022-.186-10.477,4.731-12.291,5.607L256.9,742.624A39.273,39.273,0,0,0,255.806,736.3Z" transform="translate(-405.406 15778.96)" fill="#e0682c"/>
    <path id="Trazado_1032396" data-name="Trazado 1032396" d="M297.8,512.371c9.043,12.248,23.569,19.561,36.626,26.717L305.412,557.34,294.32,536.319c-1.422-2.7-2.834-6.845-4.975-8.935l-.2-.181a21.7,21.7,0,0,1,2.046-3.787C293.169,519.8,295.178,515.54,297.8,512.371Z" transform="translate(-424.303 15875.938)" fill="#fefefe"/>
    <path id="Trazado_1032397" data-name="Trazado 1032397" d="M356.532,735.236l.38-.542a19.4,19.4,0,0,1,4.25-3.945,80.539,80.539,0,0,1,8.065-4.294l11.348-5.636a23.764,23.764,0,0,1,7.384-2.4L375.548,749.67l-5.042,13.221a49.125,49.125,0,0,1-2.353,5.988c-1.106.275-11,5.859-11.4,6.486a19.435,19.435,0,0,1-2.219,1.551l-2.086,1.395a10.33,10.33,0,0,0-2.491,2.107l-4.44,4.453-17.094,17.642c-2.106,2.193-4.762,4.375-6.549,6.806l-13-.885-1.692-4.309a26.77,26.77,0,0,1-1.773-4.186,160.02,160.02,0,0,1-6.486-19.73l1.164-.483c4.211-1.476,8.153-4.056,12.115-6.1L333.96,762.3c3.486-1.875,8.316-3.818,11.011-6.722,4.173-4.5,5.928-11.453,9.007-16.752Z" transform="translate(-429.843 15759.152)" fill="#fab185"/>
    <path id="Trazado_1032398" data-name="Trazado 1032398" d="M317.986,880.662l29.287-17.119,12.774-7.588c1.489-.851,3.595-2.405,5.293-2.5l-2.086,1.395a10.327,10.327,0,0,0-2.491,2.107l-4.44,4.453L339.23,879.051c-2.106,2.193-4.762,4.375-6.549,6.806l-13-.885Z" transform="translate(-440.649 15682.614)" fill="#e0682c"/>
    <path id="Trazado_1032399" data-name="Trazado 1032399" d="M189.511,183.133l.035-.256c.3-2.364.13-4.78.247-7.158a56.2,56.2,0,0,1,.9-6.826c3.043-17.4,13.182-33.139,26.966-44,17.061-13.443,39.214-18.652,60.6-16.046,18.288,2.228,36.278,10.747,47.745,25.423,2.958,3.785,5.033,7.984,7.616,12,5.38,8.373,13.127,13.812,23.068,15.114,5.811.761,10.9-1.251,16.542-1.918,12.482-1.477,26.925,5.1,34.62,14.924A38.8,38.8,0,0,1,414,185.873c.89,2.643,1.382,5.4,2.237,8.053a26.074,26.074,0,0,0,7.573,11.43c9.348,8.282,22.025,8.512,33.092,13.026,17.644,7.195,30.522,23.094,36.379,41,4.044,12.365,4.825,26.067,3.19,38.919-1.783,14.016-7.2,27.165-14.723,39.055a88.4,88.4,0,0,1-5.689,7.381,39.846,39.846,0,0,0-8.9,21.47c-1.387,13.265,3.9,26.706,9.9,38.258,2.257,4.344,4.844,8.338,6.786,12.868,11.72,27.338,8.615,59.9-6.016,85.516a119.378,119.378,0,0,1-9.409,13.343l-.552.234-.04.225c-.653,4.1-.209,8.92-.209,13.092l.023,27.041c.007,3.3.55,7.416-.194,10.614a10.733,10.733,0,0,1-4.22,6.281c-2.818,2.049-5.514,2.136-8.866,2.127a18.446,18.446,0,0,1-3.285-.078,2.6,2.6,0,0,1-.823-.347l-.581.321c-1.408.485-12.564.377-13.768-.29a2.446,2.446,0,0,1-.941.416c-1.6.282-5.839.394-7.218-.42a2.8,2.8,0,0,1-.648.282c-1.625.515-16.475.368-17.767-.3l.22-.074a9.024,9.024,0,0,0,4.137-4.258l.129-.342c1.056-2.708.525-6.84.52-9.777-.007-4.531.17-9.162-.151-13.676l.126-.243.007-1.664-.109-.277a53.417,53.417,0,0,0,.11-7.555l-.01-17.06a43.806,43.806,0,0,1,.173-7.265l-.574.221a17.037,17.037,0,0,1-3.735.1l-8.275.017-34.926.052-8.389,0a14.113,14.113,0,0,1-2.837,0,6.816,6.816,0,0,1-1.063-.593l-.154.121c-.971.684-2.474.5-3.634.516l-8.361.043a12.48,12.48,0,0,0-3.624.169,3.366,3.366,0,0,0-1.85,1.8l-.015,29.055a14.581,14.581,0,0,0-.008,2.162l-.06,18.827c-1.312,1.326-14.37,2.855-16.811,2.842a1.788,1.788,0,0,1-.687-.152c-1.451-14.1-3-28.107-5.726-42.034l-11.214-46.977-.246-1.392L299.053,459.9c.013-2.558.982-5.109,1.613-7.567l3.772-14.618a25.879,25.879,0,0,0,1.143-5.133l-.755-.279-16.284,0c-2.589,0-6.849.532-9.2-.456-2.091-.877-3.009-2.391-3.769-4.424l0-.313a11.892,11.892,0,0,1,.506-4.093,49.118,49.118,0,0,0,2.353-5.988l5.042-13.221,12.411-31.253L313.1,327.825l-.076-.107c-4.223-6.155-11.2-10.852-17.611-14.5l-14.589-6.987a60.591,60.591,0,0,0-8.712-3.282c-1.382-3.728-6.844-15.646-9.692-17.865-1.75,3.2-2.723,7.272-3.924,10.751L252.477,311.8a34.273,34.273,0,0,0-4.59-1.8c-13.057-7.156-27.583-14.47-36.626-26.717-2.623,3.169-4.632,7.432-6.608,11.045a21.7,21.7,0,0,0-2.046,3.787c-.576.935-1.171,1.047-2.207,1.293a77,77,0,0,0-29.416,14.144l-3.319-2.375c-3.133-2.339-6.155-5.189-7.058-9.144-.373-1.634-.377-3.357-.629-5.014-1.071-7.04-5.731-8.657-11.406-11.526a43.088,43.088,0,0,1-6.256-3.93,13.479,13.479,0,0,1-5.72-9.053c-.662-4.853,1.215-9.682,4.088-13.559l4.238-5.2c2.573-3.411,4.147-7.248,3.485-11.594l-.062-.373c-.414-2.712-3.292-5.749-4.346-8.447l-.152-.4a18.792,18.792,0,0,1-.9-9.948c1.343-6.5,6.354-10.337,12.933-10.27,2.759.028,6.763,1.763,9.2.166,5.556-3.646.55-9.322-.827-13.631a14.9,14.9,0,0,1-.375-7.32,13.479,13.479,0,0,1,5.745-8.77,15.677,15.677,0,0,1,11.715-1.786c2.318.576,4.487,1.592,6.841,2.16-1.408-2.113-5.655-3.883-8.1-4.511a15.159,15.159,0,0,0-11.665,1.364,16.846,16.846,0,0,0-7.406,9.825l-.1.423a12.845,12.845,0,0,0,1.206,9.852l-.135.376a10.68,10.68,0,0,1-1.088-1.765,14.118,14.118,0,0,1-.016-10.379,16.793,16.793,0,0,1,9.13-9.793,16.616,16.616,0,0,1,14.383,1.141c1.652.95,3.114,2.293,4.9,2.981Z" transform="translate(-337.763 16105.021)" fill="#fdcf92"/>
    <path id="Trazado_1032400" data-name="Trazado 1032400" d="M642.737,793.7c.048,6.208-.154,11.307-2.633,17.1a36.061,36.061,0,0,1-15.995-6.388l3.313-8.128c2.964.575,6.785,2.134,9.769,1.773C639.691,797.757,641.264,795.5,642.737,793.7Z" transform="translate(-614.157 15716.483)" fill="#e0682c"/>
    <path id="Trazado_1032401" data-name="Trazado 1032401" d="M879.6,813.529c2.2-.024,6.73-.729,8.272.978a3.121,3.121,0,0,1,.586.92c.362,1.419.061,3.841.058,5.36-.011,6.181-.4,12.595.014,18.75l-9.2.011-.178-.046a9.186,9.186,0,0,0,.2-2.956l.02-6.954Z" transform="translate(-758.717 15705.337)" fill="#ade1e6"/>
    <path id="Trazado_1032402" data-name="Trazado 1032402" d="M658.061,940.041l.016-22.49,15.537-.024.056,22.523Z" transform="translate(-633.401 15646.299)" fill="#07908f"/>
    <path id="Trazado_1032403" data-name="Trazado 1032403" d="M791.428,502.057l3.06.128-17.461,65.175H699.4l1.287-2.867,73.2.013,15.952-57.56Z" transform="translate(-656.835 15881.784)" fill="#4479b0"/>
    <path id="Trazado_1032404" data-name="Trazado 1032404" d="M757.6,833.551l.059-19.807h53.046l-.222,16.063-.02,6.954a9.184,9.184,0,0,1-.2,2.956l-38.137.138-9.532.013c-1.472,0-3.61.283-4.94-.315Z" transform="translate(-689.82 15705.122)" fill="#c8eaf1"/>
    <path id="Trazado_1032405" data-name="Trazado 1032405" d="M782.137,848.1l25.621.028,4.915.008a6.351,6.351,0,0,1,1.488,0,3.827,3.827,0,0,1,.692.506,2.688,2.688,0,0,1-.244,2.106l-25.253.009-5.391-.015a5.825,5.825,0,0,1-1.625-.135,4.4,4.4,0,0,1-.677-.564C781.485,849.022,781.64,848.964,782.137,848.1Z" transform="translate(-703.417 15685.658)" fill="#4db6ba"/>
    <path id="Trazado_1032406" data-name="Trazado 1032406" d="M660.714,369.78a13.787,13.787,0,0,0-3.321,1.252l-8.1,3.455-19.82,8.539L612.179,343.02l40.936-17.371,8.248,18.624a64.89,64.89,0,0,0,2.87,6.12l.125.2Z" transform="translate(-607.396 15981.771)" fill="#fff4e6"/>
    <path id="Trazado_1032407" data-name="Trazado 1032407" d="M560.441,818.436a36.06,36.06,0,0,0,15.995,6.388c-6.606,13.442-16.334,25.713-25.549,37.451l-11.328,13.5c-3.109,3.365-6.369,7-10.814,8.554a6.526,6.526,0,0,1-4.116.435,39.763,39.763,0,0,1-9.6-4.227l-3.247-18.085c.013-2.558.982-5.109,1.613-7.567l3.772-14.618a25.883,25.883,0,0,0,1.143-5.133l-.755-.279,13.542,0,12.569-.01c2.116,0,5.143.378,7.107-.407,4.22-1.685,5.065-4.933,6.669-8.835Z" transform="translate(-550.489 15702.463)" fill="#fbb53c"/>
    <path id="Trazado_1032408" data-name="Trazado 1032408" d="M517.552,856.342l13.542,0c-7.494,11.742-14.125,25.279-11.085,39.545a24.61,24.61,0,0,0,4.62,10.368,39.766,39.766,0,0,1-9.6-4.227l-3.247-18.085c.013-2.558.982-5.109,1.613-7.567l3.772-14.618a25.883,25.883,0,0,0,1.143-5.133Z" transform="translate(-550.489 15680.98)" fill="#e0682c"/>
    <path id="Trazado_1032409" data-name="Trazado 1032409" d="M748.322,513.347l-15.951,57.56-73.2-.013,3.146-7.135a8.586,8.586,0,0,0-.143-6.621l-1.029-1.451a5.235,5.235,0,0,0-4.239-2.3l-1.16-.129c-2.848-.533-6.39-.143-9.327-.15l-20.275-.043,7.416-34.575,50.067,51.465,13.563-12.072,34.677-30.222,9.677-8.555a70.961,70.961,0,0,1,6.537-5.588Z" transform="translate(-615.308 15875.385)" fill="#75bae8"/>
    <path id="Trazado_1032410" data-name="Trazado 1032410" d="M719.616,372.1c.747-3.061,1.128-5.71,4.018-7.462a6.8,6.8,0,0,1,4.424-1.019,52.211,52.211,0,0,1,6.612,1.391l14.542,3.128,23.2,4.631,9.229,1.827a6.855,6.855,0,0,1,4.3,3.262,8.06,8.06,0,0,1,1.1,3.669,24.065,24.065,0,0,1-.815,4.594l-1.687,7.6-3.867,18.609-2.04,8.758-8.055.008-11.582,0a9.462,9.462,0,0,1-1.65.186l-32.608-.242c-1.794-.006-13.8.313-14.582-.023-.205-.088-.326-.3-.489-.458l6.3-29.276Z" transform="translate(-662.653 15960.271)" fill="#fefefe"/>
    <path id="Trazado_1032411" data-name="Trazado 1032411" d="M774.947,481.513l-23.532-4.678-8.382-1.689c-1.591-.322-3.473-.464-4.8-1.459a3.112,3.112,0,0,1-.39-2.2,2.478,2.478,0,0,1,1.4-1.308c3.413.145,44.97,9.019,45.48,9.383a10.122,10.122,0,0,1,1.327,1.335l.481.61Z" transform="translate(-678.601 15899.852)" fill="#fbb53c"/>
    <path id="Trazado_1032412" data-name="Trazado 1032412" d="M744.766,446.127c3.723-.132,8.2,1.54,11.906,2.3l23.133,4.829c3.547.777,7.5,1.365,10.867,2.66a2.143,2.143,0,0,1,.667,1.489,3.406,3.406,0,0,1-1.228,2.411c-4.66-.7-9.309-1.853-13.919-2.831L753.47,452l-5.888-1.364a12.892,12.892,0,0,1-3.06-.854c-.77-.409-.764-.656-1.028-1.439A3.952,3.952,0,0,1,744.766,446.127Z" transform="translate(-681.825 15913.488)" fill="#fbb53c"/>
    <path id="Trazado_1032413" data-name="Trazado 1032413" d="M749.359,422.372c2.5-.108,5.588,1.049,8.094,1.573l21.728,4.615,11.883,2.382a20.342,20.342,0,0,1,4.643,1.157,1.886,1.886,0,0,1,1.075,1.425,3.6,3.6,0,0,1-.952,2.6c-3.525-.156-7.213-1.141-10.683-1.831l-23.563-5.047-8.666-1.917a14.352,14.352,0,0,1-3.612-.979,1.762,1.762,0,0,1-.956-1.231A3.969,3.969,0,0,1,749.359,422.372Z" transform="translate(-684.56 15926.953)" fill="#fbb53c"/>
    <path id="Trazado_1032414" data-name="Trazado 1032414" d="M775.754,391.92a63.1,63.1,0,0,1,9.014,1.764l10.14,2.115c2.653.566,5.66.824,8.224,1.652a2.936,2.936,0,0,1,1.671,1.625,4.3,4.3,0,0,1,.18,3.131,4.229,4.229,0,0,1-2.478,2.265c-3.2-.026-6.629-1.117-9.786-1.732-5.645-1.1-11.511-2.022-17.072-3.457a3.476,3.476,0,0,1-2.357-1.9,4.314,4.314,0,0,1-.058-3.138A4.007,4.007,0,0,1,775.754,391.92Z" transform="translate(-698.528 15944.209)" fill="#254a78"/>
    <path id="Trazado_1032415" data-name="Trazado 1032415" d="M643.258,508.146l2.671-12.59,25.64.022.459-.477c.163.153.283.37.489.458.782.336,12.788.017,14.582.023l32.608.242a9.459,9.459,0,0,0,1.65-.186l11.582,0,8.055-.008,14.761-.025a19.206,19.206,0,0,1,4.1.036c.183.054.292.245.438.368l-.689,2.109-1.58,4.891-.245.169a70.933,70.933,0,0,0-6.537,5.587l-9.677,8.555-34.677,30.222-13.563,12.072Z" transform="translate(-625.011 15885.727)" fill="#c8eaf1"/>
    <path id="Trazado_1032416" data-name="Trazado 1032416" d="M495.081,609.561l.83-.926a10.662,10.662,0,0,1,5.674-3.186,43.766,43.766,0,0,1,6.027-.158l11.7.034,40.866.03,1.16.129a5.235,5.235,0,0,1,4.238,2.3l1.029,1.451a8.586,8.586,0,0,1,.142,6.621l-3.146,7.134-1.287,2.867-6.8,15.15a69.442,69.442,0,0,1-4.53,9.314l6.646,5.128a23.827,23.827,0,0,1,3.886,3.331,3.687,3.687,0,0,1,.856,1.851l.031.292.036.306c.264,3.657-11.7,21.747-14.117,25.664-1.473,1.8-3.045,4.059-5.546,4.362-2.984.361-6.8-1.2-9.769-1.773l-3.313,8.128-3,7.167c-1.6,3.9-2.448,7.15-6.669,8.835-1.964.784-4.991.4-7.107.407l-12.569.01-13.542,0-16.284,0c-2.589,0-6.849.531-9.2-.456-2.091-.877-3.009-2.391-3.769-4.424l0-.313a11.892,11.892,0,0,1,.506-4.093,49.127,49.127,0,0,0,2.353-5.988l5.042-13.221,12.411-31.253Z" transform="translate(-519.748 15823.285)" fill="#254a78"/>
    <path id="Trazado_1032417" data-name="Trazado 1032417" d="M563.172,605.77a5.235,5.235,0,0,1,4.239,2.3l1.029,1.451-41.1-.156-12.948.033a35.179,35.179,0,0,0-6.475.21,11.765,11.765,0,0,0-4.889,3c-3.391,3.258-4.81,7.792-6.51,12.049l-4.99,12.67-9.553,23.95-14.643,38.414c-.745,1.917-4.079,11.482-5.384,12.314a7.411,7.411,0,0,1-1.061-1.648,8.2,8.2,0,0,1,.379-4.185l7.5-19.149,17.048-43.733,8.849-23.422c1.037-2.674,1.942-6.063,3.439-8.507a10.579,10.579,0,0,1,5.8-4.349,17.941,17.941,0,0,1,3.978-.229l7.37-.015,32.584-.01,9.078-.02a27.173,27.173,0,0,0,6.085-.335Z" transform="translate(-521.578 15823)" fill="#4479b0"/>
    <path id="Trazado_1032418" data-name="Trazado 1032418" d="M604.507,729.843c.553-1.265,1.833-3.481,1.883-4.808l-22.71-10.246,2.088-5.359,11.688,4.041a72.271,72.271,0,0,1,10.669,4.065l.291.153.07-.295c-2.324-1.862-5.354-3.23-7.948-4.7l-15.971-9.011,2.345-5.093L608,707.011c1.325.516,4.955,2.458,6.207,2.24l.194-.52-26-16.321,2.151-5.334c1.657-.008,4.822,2.126,6.438,2.92l13.413,6.667c3.191,1.652,6.34,3.5,9.653,4.9-1.043-1.773-3.784-3.7-5.36-5.139l-9.454-8.921c-1.613-1.495-6.26-4.88-6.815-6.929a3.165,3.165,0,0,1,.261-2.4,3.774,3.774,0,0,1,2.138-1.7c1.128-.185,19,12.448,21.656,14.209l6.646,5.128a23.829,23.829,0,0,1,3.886,3.331,3.687,3.687,0,0,1,.855,1.851l.031.292.036.306c.264,3.657-11.7,21.747-14.117,25.664-1.472,1.8-3.045,4.059-5.546,4.362C611.293,731.976,607.471,730.418,604.507,729.843Z" transform="translate(-591.242 15782.927)" fill="#fab185"/>
    <path id="Trazado_1032419" data-name="Trazado 1032419" d="M676.829,838.817l-.046-24.881,14.057-.156.118,19.792.049,6c1.33.6,3.468.317,4.94.315l9.532-.013,38.137-.138.178.046,9.2-.011.14,59.839,0,12.572c0,1.079-.241,3.2.145,4.163l-.04.225c-.653,4.1-.209,8.92-.209,13.092l.023,27.041c.007,3.3.55,7.416-.194,10.614a10.734,10.734,0,0,1-4.22,6.281c-2.818,2.049-5.514,2.136-8.866,2.127a18.452,18.452,0,0,1-3.285-.078,2.605,2.605,0,0,1-.823-.347l-.581.321c-1.408.485-12.564.377-13.768-.29a2.446,2.446,0,0,1-.941.416c-1.6.282-5.839.394-7.218-.42a2.791,2.791,0,0,1-.648.282c-1.625.516-16.475.368-17.767-.3l.221-.074a9.025,9.025,0,0,0,4.137-4.258l.129-.342c1.056-2.708.525-6.84.52-9.777-.007-4.531.17-9.162-.151-13.676l.126-.243.007-1.664-.109-.277a53.412,53.412,0,0,0,.11-7.555l-.01-17.06a43.819,43.819,0,0,1,.173-7.265l-.573.221a17.038,17.038,0,0,1-3.735.1l-8.275.017-34.926.052-8.389,0a14.118,14.118,0,0,1-2.837,0,6.823,6.823,0,0,1-1.063-.594c.182-2.725.042-5.515.04-8.248l0-15.351c0-1.655-.5-6.187.567-7.462,1.99-1.124,4.843-.631,7.132-.624l15.609.009-.056-22.523,13.468.045Z" transform="translate(-623.175 15705.102)" fill="#07908f"/>
    <path id="Trazado_1032420" data-name="Trazado 1032420" d="M771.333,1116.912a37.318,37.318,0,0,1,5.439-.13l8.814.009c1.283,0,3.185.243,4.355-.191l0,1.811.152,14.257c0,2.716.3,5.9-.3,8.534a9.438,9.438,0,0,1-2.074,3.782,6.84,6.84,0,0,1-2.963,1.98,2.792,2.792,0,0,1-.648.282c-1.625.516-16.475.368-17.767-.3l.22-.074a9.024,9.024,0,0,0,4.137-4.258l.129-.342c1.056-2.708.525-6.84.52-9.777-.007-4.531.17-9.162-.151-13.676l.126-.243Z" transform="translate(-694.776 15533.465)" fill="#e15444"/>
    <path id="Trazado_1032421" data-name="Trazado 1032421" d="M777.85,1116.912a37.318,37.318,0,0,1,5.439-.13l8.814.009c1.283,0,3.185.243,4.355-.191l0,1.811a2.1,2.1,0,0,1-.946.494,24.967,24.967,0,0,1-4.029.048l-9.736-.009c-1.171,0-2.923.243-3.908-.368Z" transform="translate(-701.293 15533.465)" fill="#c22b36"/>
    <path id="Trazado_1032422" data-name="Trazado 1032422" d="M790.107,1042.59c.979.68,2.1.477,3.222.411a8.182,8.182,0,0,1,1.1-.069c.78.377.876,1.308,1.888,1.469a65.25,65.25,0,0,1,.112,8.01l-.039,10.657.01,7.616a20.8,20.8,0,0,1-.073,3.968c-1.17.433-3.072.195-4.355.191l-8.814-.009a37.283,37.283,0,0,0-5.439.13l-.109-.277a53.423,53.423,0,0,0,.11-7.555l-.01-17.06a43.8,43.8,0,0,1,.173-7.265,8.68,8.68,0,0,0,4.591.173,3.4,3.4,0,0,0,.578-.385c1.134.788,4.741.784,6.1.489A2.247,2.247,0,0,0,790.107,1042.59Z" transform="translate(-701.16 15575.413)" fill="#e15444"/>
    <path id="Trazado_1032423" data-name="Trazado 1032423" d="M878.133,873.779l.14,59.839,0,12.572c0,1.079-.241,3.2.145,4.163l-.04.225c-.653,4.1-.209,8.92-.209,13.092l.023,27.041c.007,3.3.55,7.416-.194,10.614a10.733,10.733,0,0,1-4.22,6.281c-2.818,2.049-5.514,2.136-8.866,2.127a18.452,18.452,0,0,1-3.285-.078,2.607,2.607,0,0,1-.823-.347,14.585,14.585,0,0,0,7.006-7.845l.128-.4a16.1,16.1,0,0,0,.508-4.8l.115-7.174.078-25.663.293-89.637Z" transform="translate(-748.317 15671.094)" fill="#015971"/>
    <path id="Trazado_1032424" data-name="Trazado 1032424" d="M676.857,917.572l34.136.037,10.158.015a44.778,44.778,0,0,1,5.042.044c.992.12,1.271.5,1.98,1.159.49,1.551.27,3.6.28,5.23l.047,10.325.1,38.7-.915.572c-2.08,0-6.268.464-8.016-.455a4.607,4.607,0,0,1-1.341.312c-1.012-.16-1.108-1.092-1.888-1.469a8.141,8.141,0,0,0-1.1.069c-1.123.065-2.243.268-3.222-.411a2.253,2.253,0,0,1-.954.494c-1.361.294-4.969.3-6.1-.49a3.4,3.4,0,0,1-.577.385,8.682,8.682,0,0,1-4.592-.173l-.573.221a17.045,17.045,0,0,1-3.735.1l-8.275.017-34.926.052-8.389,0a14.114,14.114,0,0,1-2.837,0,6.818,6.818,0,0,1-1.063-.594c.182-2.725.042-5.515.04-8.248l0-15.351c0-1.655-.5-6.187.567-7.462,1.99-1.124,4.843-.631,7.132-.624l15.609.009-.056-22.523Z" transform="translate(-623.175 15646.299)" fill="#c8eaf1"/>
    <path id="Trazado_1032425" data-name="Trazado 1032425" d="M723.891,949.2c6.983-.468,14.227-.1,21.237-.111l5.3.019a9.629,9.629,0,0,1,1.98.024,2.371,2.371,0,0,1,.542.347,3.364,3.364,0,0,1,.026,2.108l-20.106,0c-2.135,0-7.187.6-8.84-.47A2.446,2.446,0,0,1,723.891,949.2Z" transform="translate(-670.641 15628.482)" fill="#4db6ba"/>
    <path id="Trazado_1032426" data-name="Trazado 1032426" d="M806.276,1000.546l-.089-25.8c.036-1.531-.331-5.091.49-6.333,2.512,1.142,4.663,3.214,7.207,4.459l-.092,22.417c-.013,1.529-.56,5.489.034,6.758a4.612,4.612,0,0,1-1.341.312c-1.011-.16-1.108-1.092-1.888-1.469a8.142,8.142,0,0,0-1.1.069C808.375,1001.022,807.256,1001.226,806.276,1000.546Z" transform="translate(-717.329 15617.457)" fill="#ade1e6"/>
    <path id="Trazado_1032427" data-name="Trazado 1032427" d="M647.835,969.349l15.609.009,41.511,0,.111,31.657a3.407,3.407,0,0,1-.577.386,8.683,8.683,0,0,1-4.592-.173l-.573.221a17.038,17.038,0,0,1-3.735.1l-8.275.017-34.926.052-8.389,0a14.109,14.109,0,0,1-2.837,0,6.816,6.816,0,0,1-1.063-.594c.182-2.725.042-5.515.04-8.248l0-15.351c0-1.655-.5-6.187.567-7.463C642.693,968.849,645.546,969.342,647.835,969.349Z" transform="translate(-623.175 15616.989)" fill="#fefefe"/>
    <path id="Trazado_1032428" data-name="Trazado 1032428" d="M676.739,1023.76l23.949.043,4.145.026a8.445,8.445,0,0,1,1.691.017,2.832,2.832,0,0,1,.677.481l.121.918-.354.329-.614.312c-.872.277-28.446.195-29.079.013a3.229,3.229,0,0,1-.662-.385A2.436,2.436,0,0,1,676.739,1023.76Z" transform="translate(-643.852 15586.086)" fill="#fbb53c"/>
    <path id="Trazado_1032429" data-name="Trazado 1032429" d="M677.116,1002l22.93.013,4.823.052a8.06,8.06,0,0,1,1.628.061,3.156,3.156,0,0,1,.692.5,1.594,1.594,0,0,1-.6,1.642l-22.511.026c-1.836,0-6.005.472-7.364-.585A2.435,2.435,0,0,1,677.116,1002Z" transform="translate(-643.96 15598.419)" fill="#fbb53c"/>
    <path id="Trazado_1032430" data-name="Trazado 1032430" d="M189.511,223.832c2.57-1.356,4.833-1.456,6.907-3.833,1.852-2.123,2.79-5.229,3.925-7.777a66.135,66.135,0,0,1,4.554-8.732A50.649,50.649,0,0,1,262.7,182.3a26.96,26.96,0,0,1,3.186,1.131,11.9,11.9,0,0,0,2.659,1.138,16.156,16.156,0,0,0,3.114-.078,19.461,19.461,0,0,1,5.192.7c11.567,3,19.982,12.315,25.291,22.6a51.139,51.139,0,0,1,5.382,28.8c-.386,4.2-1.943,8.629-.266,12.739,3.418,8.377,21.1,10.72,17.232,22.367-3,9.02-14.854,17.09-9.719,27.583a17.8,17.8,0,0,0,5.094,6.059c3.157,2.516,7.784,4.969,9.13,8.98a11.05,11.05,0,0,1-.409,6.538,28.908,28.908,0,0,1-3.846,6.975c0-.954.908-2.118,1.354-2.972,2.3-4.4,3.733-9.543-.266-13.477-5.171-5.087-13.023-8.184-13.168-16.636-.1-5.7,3.043-9.516,5.918-14.029l-.23-.043c-3.531,4.167-7.509,8.679-9.7,13.732a9.949,9.949,0,0,0-1.032,4.77c.516,5.182,4.128,8.47,8.028,11.458,3.873,2.967,7.3,5.844,8.014,11.018a14.1,14.1,0,0,1-2.776,10.706c-3.425,4.387-8.286,7.462-11.38,12.151a24.943,24.943,0,0,0-2.579,5.792l-.14.251c-.275-2.975,2.776-7.014,4.558-9.168l3.4-3.525c-7.186,3.989-15.54,8.391-19.326,16.053l-14.589-6.987a60.6,60.6,0,0,0-8.712-3.282c-1.382-3.728-6.844-15.646-9.692-17.865-1.75,3.2-2.723,7.272-3.924,10.751L252.477,352.5a34.276,34.276,0,0,0-4.59-1.8c-13.057-7.156-27.583-14.469-36.626-26.717-2.623,3.169-4.632,7.432-6.608,11.045a21.7,21.7,0,0,0-2.046,3.787c-.576.935-1.171,1.047-2.207,1.293a77,77,0,0,0-29.416,14.144l-3.319-2.375c-3.133-2.339-6.155-5.189-7.058-9.144-.373-1.634-.377-3.357-.629-5.014-1.071-7.04-5.731-8.657-11.406-11.526a43.087,43.087,0,0,1-6.256-3.93,13.479,13.479,0,0,1-5.72-9.053c-.662-4.853,1.215-9.682,4.088-13.559l4.238-5.2c2.573-3.411,4.147-7.248,3.485-11.594l-.062-.373c-.414-2.712-3.292-5.749-4.346-8.447l-.152-.4a18.792,18.792,0,0,1-.9-9.948c1.343-6.5,6.354-10.337,12.933-10.27,2.759.028,6.763,1.763,9.2.166,5.556-3.646.55-9.322-.827-13.631a14.9,14.9,0,0,1-.375-7.32,13.479,13.479,0,0,1,5.745-8.77,15.677,15.677,0,0,1,11.715-1.786c2.318.576,4.487,1.592,6.841,2.16-1.408-2.113-5.655-3.883-8.1-4.511a15.159,15.159,0,0,0-11.665,1.364,16.846,16.846,0,0,0-7.406,9.825l-.1.423a12.845,12.845,0,0,0,1.206,9.852l-.135.376a10.683,10.683,0,0,1-1.088-1.765,14.118,14.118,0,0,1-.016-10.379,16.793,16.793,0,0,1,9.13-9.793,16.616,16.616,0,0,1,14.383,1.141c1.652.95,3.114,2.293,4.9,2.981Z" transform="translate(-337.763 16064.321)" fill="#0a2d52"/>
    <path id="Trazado_1032431" data-name="Trazado 1032431" d="M150.129,417.486c1.566,2.894,2.548,5.461,2.1,8.805-1.062,7.848-9.566,11.772-10.491,19.773-.5,4.355,1.029,8.009,3.682,11.364l-.417.07a23.185,23.185,0,0,1-3.079-2.5,12.263,12.263,0,0,1-3.836-8.7,18.107,18.107,0,0,1,3.809-11.207c2.369-3.282,5.317-6.028,6.975-9.795A17.712,17.712,0,0,0,150.129,417.486Z" transform="translate(-338.679 15929.719)" fill="#4db6ba"/>
    <path id="Trazado_1032432" data-name="Trazado 1032432" d="M294.442,369.821l2.775-.6,4.788-54.187a10.881,10.881,0,0,1-6.072.369c-4.2-.983-7.515-4.008-9.72-7.615-2.5-4.092-3.732-9.847-2.524-14.542.625-2.428,1.856-5,4.106-6.288a8.627,8.627,0,0,1,6.195-.667c5.137,1.332,7.993,6.246,10.472,10.491l1.892-8.446a49.728,49.728,0,0,0,9.591-.479c16.629-2.823,31.366-13.432,41.049-26.988l26.287,29.21-6.367,26.027c-2.93,10.976-6.356,21.941-14.77,30.093-6.03,5.842-14.019,9.689-22.516,9.549l-.216,14.107,4.53,1.4a8.2,8.2,0,0,0,1.657.367c-1.75,3.2-2.723,7.272-3.924,10.751l-6.016,15.966a34.276,34.276,0,0,0-4.59-1.8C318.01,389.382,303.485,382.068,294.442,369.821Z" transform="translate(-420.944 16018.488)" fill="#fab185"/>
    <path id="Trazado_1032433" data-name="Trazado 1032433" d="M473.823,337.471a13.213,13.213,0,0,1,9.615,2.423,2.733,2.733,0,0,1,1.3,2.009c-.509.825-.625.82-1.478,1.179-2.149-.989-4.357-2.15-6.74-2.432-1.249-.148-2.557.086-3.824.022a2.307,2.307,0,0,1-.657-1.747A3.3,3.3,0,0,1,473.823,337.471Z" transform="translate(-527.964 15975.117)" fill="#0a2d52"/>
    <path id="Trazado_1032434" data-name="Trazado 1032434" d="M381.936,321.372c2.726-.218,5.989.262,8.2,1.981a2.791,2.791,0,0,1,1.233,2.135c-.331.678-.4.686-1.075,1.046-1.657-.018-3.943-1.375-5.581-1.913a12.31,12.31,0,0,0-3.771-.086c-1.854.324-4.224,2.054-5.958,1.376a1.821,1.821,0,0,1-.22-1.681C376.253,322.422,379.717,321.776,381.936,321.372Z" transform="translate(-472.771 15984.223)" fill="#0a2d52"/>
    <path id="Trazado_1032435" data-name="Trazado 1032435" d="M396.14,417.365c1.368.643,1.8,1.856,2.648,3.08a10.51,10.51,0,0,0,3.872,3.582,12.64,12.64,0,0,0,7.4,1.287,8.694,8.694,0,0,1,1.763-.246,4.18,4.18,0,0,1,.752.522c.244,1.013.143,1.045-.351,1.981a15.267,15.267,0,0,1-3.168.4c-3.915.122-7.611-.829-10.5-3.587-1.262-1.205-3.606-3.68-3.572-5.571C395,418.129,395.652,417.806,396.14,417.365Z" transform="translate(-484.292 15929.787)" fill="#e15444"/>
    <path id="Trazado_1032436" data-name="Trazado 1032436" d="M389.73,354.351a8.173,8.173,0,0,1,2.565.2,3.783,3.783,0,0,1,2.29,1.971,6.143,6.143,0,0,1,.279,4.468,6.341,6.341,0,0,1-3.415,3.759,5.6,5.6,0,0,1-1.3.059,4.721,4.721,0,0,1-3.268-2.14,5.363,5.363,0,0,1-.558-4.014A6.562,6.562,0,0,1,389.73,354.351Z" transform="translate(-479.297 15965.512)" fill="#0a2d52"/>
    <path id="Trazado_1032437" data-name="Trazado 1032437" d="M468.492,368.034a7.753,7.753,0,0,1,2.832.058,3.957,3.957,0,0,1,2.167,1.916,6.4,6.4,0,0,1,.31,4.569c-.535,1.858-1.826,2.738-3.425,3.6a6.5,6.5,0,0,1-2.046.021,4.29,4.29,0,0,1-2.712-2.056A5.483,5.483,0,0,1,465.17,372,5.9,5.9,0,0,1,468.492,368.034Z" transform="translate(-523.954 15957.805)" fill="#0a2d52"/>
    <path id="Trazado_1032438" data-name="Trazado 1032438" d="M433,372.277a2.631,2.631,0,0,1,1.894.638c.435,1.425.053,3.313-.09,4.806a84.9,84.9,0,0,1-1.129,9.68l-.09.405-.074.362a3.526,3.526,0,0,1-1.918,2.3,7.285,7.285,0,0,1-5.028.432l-.248-.092a8.681,8.681,0,0,1-3.043-1.953,4.526,4.526,0,0,1-1.05-2.4c.486-.784.543-.712,1.385-.953,1.016.458,1.572,1.368,2.438,2.026a5.041,5.041,0,0,0,3.927.848c2.334-1.641,1.151-12.578,2.9-15.862Z" transform="translate(-499.727 15955.342)" fill="#e15444"/>
    <path id="Trazado_1032439" data-name="Trazado 1032439" d="M295.9,336.874a8.613,8.613,0,0,1,3.966.742,9.444,9.444,0,0,1,5.038,5.58,8.55,8.55,0,0,1-.577,7.07,3.93,3.93,0,0,1-1.764-.783c-2.382-1.772-7.423-7.133-7.639-10.309C294.849,338.012,295.205,337.729,295.9,336.874Z" transform="translate(-427.573 15975.411)" fill="#e0682c"/>
    <path id="Trazado_1032440" data-name="Trazado 1032440" d="M370.249,457.924c-8.3,0-16.988-5.018-23.014-10.395-9.434-8.417-16.846-20.927-17.6-33.742a78.708,78.708,0,0,0,7.261,11.379c7.479,9.224,16.981,16.038,29.037,17.254l-.216,14.107Z" transform="translate(-447.253 15931.814)" fill="#e0682c"/>
  </g>
</svg>
