<svg xmlns="http://www.w3.org/2000/svg" xmlns:xlink="http://www.w3.org/1999/xlink" width="400" height="453" viewBox="0 0 400 453">
  <defs>
    <clipPath id="clip-path">
      <rect id="Rectángulo_414651" data-name="Rectángulo 414651" width="400" height="453" transform="translate(180.461 1782)" fill="#fff" stroke="#707070" stroke-width="1" opacity="0.81"/>
    </clipPath>
    <clipPath id="clip-path-2">
      <rect id="Rectángulo_414640" data-name="Rectángulo 414640" width="476" height="476"/>
    </clipPath>
    <clipPath id="clip-path-3">
      <path id="Trazado_1030489" data-name="Trazado 1030489" d="M198.188,185.049c19.689-4.75,22.383-18.438,21.171-31.768a49.552,49.552,0,0,0-1.24-7.367c2.006-.348,12.162-1.783,13.306,4.509,1.27,6.985-6.986,7.937-4.128,10.8s13.653-.953,13.018,9.525-12.383,12.066-11.113,18.1,14.605,2.54,18.734,12.066a23.287,23.287,0,0,1,.635,17.463,77.238,77.238,0,0,0-15.876-6.985s-2.858,2.858-1.588,8.256,14.288,22.226-.635,22.226-9.525-15.558-16.51-16.51-2.222,4.445-9.525,5.4-9.843-11.113-9.525-24.766A80.549,80.549,0,0,1,198.188,185.049Z" transform="translate(-194.884 -145.527)"/>
    </clipPath>
    <clipPath id="clip-path-4">
      <path id="Trazado_1030504" data-name="Trazado 1030504" d="M311.164,159.895s15.241,5.4,14.288,25.083S313.7,208.156,311.8,215.459s8.89,20.639,4.127,28.259-15.876,6.032-19.051,3.81-11.43-4.127-11.43,5.4-11.113,15.241-20.321,9.525-10.478-16.51-24.766-8.256l-7.3,11.113s-7.938-15.558,0-24.449,27.941-16.193,24.449-20-11.43-10.161-4.127-18.1,16.193-6.351,13.336-13.018,1.905-11.748,8.256-13.336,4.127-7.3.635-9.208-12.066-7.3-10.161-16.51,13.653-13.971,10.16-24.449.635-14.605,3.493-15.241,7.938,2.222,9.525-.635,2.222-10.478,6.351-11.748,7.938,3.493,11.748,2.54,3.175-8.573,8.256-8.256,4.127,6.351,8.89,5.08,2.222-6.351,3.493-10.8,13.971-4.763,13.336,4.763,1.588,10.478,5.4,8.89,15.558-5.4,19.686,9.525-9.525,18.1-14.605,14.923-11.75-5.715-11.75-.317-5.4,7.62-9.843,7.938-6.985-7.3-11.113-5.715,0,6.668-4.127,8.256-6.668-.317-6.668,2.54,9.525,6.351,6.032,11.43-5.715,3.493-5.715,3.493,0-4.445-6.985-3.175-5.4,13.336,3.175,12.066S311.164,159.895,311.164,159.895Z" transform="translate(-229.528 -84.19)"/>
    </clipPath>
    <filter id="Trazado_1030518" x="1.885" y="8.189" width="75.804" height="57.025" filterUnits="userSpaceOnUse">
      <feOffset dy="3" input="SourceAlpha"/>
      <feGaussianBlur stdDeviation="3" result="blur"/>
      <feFlood flood-opacity="0.161"/>
      <feComposite operator="in" in2="blur"/>
      <feComposite in="SourceGraphic"/>
    </filter>
    <filter id="Trazado_1030536" x="254.798" y="283.426" width="68.016" height="88.309" filterUnits="userSpaceOnUse">
      <feOffset dy="3" input="SourceAlpha"/>
      <feGaussianBlur stdDeviation="3" result="blur-2"/>
      <feFlood flood-opacity="0.161"/>
      <feComposite operator="in" in2="blur-2"/>
      <feComposite in="SourceGraphic"/>
    </filter>
  </defs>
  <g id="Enmascarar_grupo_1098799" data-name="Enmascarar grupo 1098799" transform="translate(-180.461 -1782)" clip-path="url(#clip-path)">
    <g id="Grupo_1175058" data-name="Grupo 1175058">
      <g id="Grupo_1175057" data-name="Grupo 1175057">
        <g id="Grupo_1174656" data-name="Grupo 1174656" transform="translate(114.461 1759)">
          <circle id="Elipse_12121" data-name="Elipse 12121" cx="154.775" cy="154.775" r="154.775" transform="translate(78.661 76.886)" fill="#d6f5fb"/>
          <g id="OBJECTS">
            <g id="Grupo_1174648" data-name="Grupo 1174648" transform="translate(0 0)">
              <g id="Grupo_1174647" data-name="Grupo 1174647" clip-path="url(#clip-path-2)">
                <circle id="Elipse_12122" data-name="Elipse 12122" cx="63.098" cy="63.098" r="63.098" transform="translate(268.154 412.902)" fill="#d6f5fb"/>
                <circle id="Elipse_12123" data-name="Elipse 12123" cx="54.419" cy="54.419" r="54.419" transform="translate(-48.827 -20.599)" fill="#bddef4"/>
                <g id="Grupo_1174646" data-name="Grupo 1174646" transform="translate(-21.74 27.354)">
                  <rect id="Rectángulo_414634" data-name="Rectángulo 414634" width="1.904" height="90.639" transform="matrix(-0.2, -0.98, 0.98, -0.2, 81.929, 96.179)" fill="#015668"/>
                  <circle id="Elipse_12124" data-name="Elipse 12124" cx="52.509" cy="52.509" r="52.509" transform="translate(251.044)" fill="#015668"/>
                  <path id="Trazado_1030432" data-name="Trazado 1030432" d="M244.442,124.2a.953.953,0,1,0,0-1.905,39.4,39.4,0,0,1-31.957-62.43.952.952,0,0,0-1.544-1.115,41.3,41.3,0,0,0,33.5,65.451Z" transform="translate(59.111 -30.393)" fill="#81b5cc"/>
                  <path id="Trazado_1030433" data-name="Trazado 1030433" d="M236.874,41.77a40.292,40.292,0,0,0-32.729,16.749" transform="translate(66.679 -29.606)" fill="#015668"/>
                  <path id="Trazado_1030434" data-name="Trazado 1030434" d="M202.086,83.02a.953.953,0,0,0,.953-.953,41.344,41.344,0,0,0-41.3-41.3.953.953,0,0,0,0,1.905,39.437,39.437,0,0,1,39.392,39.392A.953.953,0,0,0,202.086,83.02Z" transform="translate(141.812 -29.559)" fill="#81b5cc"/>
                  <circle id="Elipse_12125" data-name="Elipse 12125" cx="52.509" cy="52.509" r="52.509" transform="translate(102.391 134.11)" fill="#015668"/>
                  <path id="Trazado_1030435" data-name="Trazado 1030435" d="M319.241,223.88a.952.952,0,0,0,.953-.953,38.022,38.022,0,1,1,76.045,0,.953.953,0,1,0,1.905,0,39.928,39.928,0,0,0-79.855,0A.952.952,0,0,0,319.241,223.88Z" transform="translate(-203.316 -36.309)" fill="#81b5cc"/>
                  <circle id="Elipse_12126" data-name="Elipse 12126" cx="26.433" cy="26.433" r="26.433" transform="translate(154.444 44.055)" fill="#015668"/>
                  <path id="Trazado_1030436" data-name="Trazado 1030436" d="M351.577,121.665a.953.953,0,1,0,0-1.905,17.739,17.739,0,0,1,0-35.478.953.953,0,1,0,0-1.905,19.644,19.644,0,0,0,0,39.288Z" transform="translate(-170.701 -31.533)" fill="#81b5cc"/>
                  <circle id="Elipse_12127" data-name="Elipse 12127" cx="20.468" cy="20.468" r="20.468" transform="translate(45.623 77.071)" fill="#015668"/>
                  <path id="Trazado_1030437" data-name="Trazado 1030437" d="M459.412,147.39a.953.953,0,1,0,0-1.905,13.831,13.831,0,0,1-11.852-6.766.952.952,0,1,0-1.639.97A15.743,15.743,0,0,0,459.412,147.39Z" transform="translate(-386.984 -34.185)" fill="#81b5cc"/>
                  <circle id="Elipse_12128" data-name="Elipse 12128" cx="25.449" cy="25.449" r="25.449" transform="translate(423.874 216.02)" fill="#015668"/>
                  <path id="Trazado_1030438" data-name="Trazado 1030438" d="M33.5,299.3a17.682,17.682,0,0,0,0-35.364.953.953,0,0,0,0,1.905,15.777,15.777,0,0,1,0,31.554.953.953,0,1,0,0,1.905Z" transform="translate(415.82 -40.15)" fill="#81b5cc"/>
                  <circle id="Elipse_12129" data-name="Elipse 12129" cx="42.979" cy="42.979" r="42.979" transform="translate(0 239.127)" fill="#015668"/>
                  <path id="Trazado_1030439" data-name="Trazado 1030439" d="M461.873,324.553a.952.952,0,0,0,.953-.953,29.446,29.446,0,0,1,44-25.59.953.953,0,0,0,.943-1.656A31.351,31.351,0,0,0,460.921,323.6.952.952,0,0,0,461.873,324.553Z" transform="translate(-449.285 -41.495)" fill="#81b5cc"/>
                  <circle id="Elipse_12130" data-name="Elipse 12130" cx="42.979" cy="42.979" r="42.979" transform="translate(477.539 96.568)" fill="#015668"/>
                  <path id="Trazado_1030440" data-name="Trazado 1030440" d="M-23.677,174.857a.953.953,0,0,0,.953-.953A30.158,30.158,0,0,1,7.4,143.78a.953.953,0,1,0,0-1.905A32.065,32.065,0,0,0-24.63,173.9.953.953,0,0,0-23.677,174.857Z" transform="translate(513.118 -34.357)" fill="#81b5cc"/>
                  <circle id="Elipse_12131" data-name="Elipse 12131" cx="31.687" cy="31.687" r="31.687" transform="translate(302.329 239.7) rotate(-135)" fill="#015668"/>
                  <rect id="Rectángulo_414635" data-name="Rectángulo 414635" width="56.71" height="1.905" transform="matrix(-0.619, -0.785, 0.785, -0.619, 367.777, 126.119)" fill="#015668"/>
                  <rect id="Rectángulo_414636" data-name="Rectángulo 414636" width="1.905" height="58.199" transform="translate(303.273 163.226) rotate(-178.791)" fill="#015668"/>
                  <rect id="Rectángulo_414637" data-name="Rectángulo 414637" width="58.379" height="1.905" transform="translate(483.198 127.591) rotate(-154.278)" fill="#015668"/>
                  <path id="Trazado_1030441" data-name="Trazado 1030441" d="M77.014,256.6h1.905c0-6.647-18.916-97.764-19.721-101.64l-1.865.388C57.529,156.3,77.014,250.15,77.014,256.6Z" transform="translate(364.478 -34.978)" fill="#015668"/>
                  <rect id="Rectángulo_414638" data-name="Rectángulo 414638" width="68.222" height="1.904" transform="translate(125.431 157.153) rotate(-130.624)" fill="#015668"/>
                  <rect id="Rectángulo_414639" data-name="Rectángulo 414639" width="1.905" height="88.215" transform="matrix(-0.671, -0.741, 0.741, -0.671, 65.862, 264.203)" fill="#015668"/>
                  <path id="Trazado_1030442" data-name="Trazado 1030442" d="M451.335,129.423a5.548,5.548,0,1,0-5.548-5.548A5.554,5.554,0,0,0,451.335,129.423Zm0-9.19a3.643,3.643,0,1,1-3.643,3.643A3.647,3.647,0,0,1,451.335,120.233Z" transform="translate(-383.502 -33.24)" fill="#81b5cc"/>
                </g>
              </g>
            </g>
            <g id="Grupo_1174655" data-name="Grupo 1174655" transform="translate(97.071 76.77)">
              <path id="Trazado_1030443" data-name="Trazado 1030443" d="M108.75,180.638s.953-18.336.238-23.813,5-16.431,5-16.431l7.858-2.143,18.1,10.478a90.511,90.511,0,0,0-5.1,11.457,85.977,85.977,0,0,0-4.907,19.738Z" transform="translate(135.664 -83.601)" fill="#f1bc98"/>
              <path id="Trazado_1030444" data-name="Trazado 1030444" d="M108.75,138.25h4.814l18.1,10.478a90.512,90.512,0,0,0-5.1,11.457S112.322,158.968,108.75,138.25Z" transform="translate(143.947 -83.601)" fill="#cc9a79"/>
              <path id="Trazado_1030445" data-name="Trazado 1030445" d="M51.113,120.249A39.371,39.371,0,1,0,90.484,80.878,39.371,39.371,0,0,0,51.113,120.249Z" transform="translate(200.655 -80.878)" fill="#015668"/>
              <path id="Trazado_1030446" data-name="Trazado 1030446" d="M91.008,121.725a.953.953,0,0,0,.953-.953A28.856,28.856,0,0,0,63.1,91.917a.953.953,0,1,0,0,1.905,26.95,26.95,0,0,1,26.951,26.95A.952.952,0,0,0,91.008,121.725Z" transform="translate(228.035 -81.402)" fill="#81b5cc"/>
              <path id="Trazado_1030447" data-name="Trazado 1030447" d="M141,159.625" transform="translate(103.89 -84.615)" fill="none" stroke="#333" stroke-miterlimit="10" stroke-width="0.5"/>
              <path id="Trazado_1030449" data-name="Trazado 1030449" d="M123.575,131.248c1.286-.456,2.483-.872,3.489-1.219.945-.327,1.721-.593,2.241-.779,0,0,1.786,1.191-.6,2.977s-4.525,1.191-5-.119Z" transform="translate(131.54 -83.174)" fill="#b35f5e"/>
              <path id="Trazado_1030450" data-name="Trazado 1030450" d="M197.135,282.5l13.812,7.144,40.721,200.033H209.374L174.75,357.036Z" transform="translate(-38.926 -90.447)" fill="#618899"/>
              <path id="Trazado_1030451" data-name="Trazado 1030451" d="M292.7,184v32.386l-13.812,20.48L246.5,214.958l10.954-25.719L289.364,184Z" transform="translate(-148.301 -85.772)" fill="#f1bc98"/>
              <path id="Trazado_1030452" data-name="Trazado 1030452" d="M327.584,494.067S330.717,404.5,297.993,375l-83.723,5.6-7.92,113.465Z" transform="translate(-145.023 -94.837)" fill="#333"/>
              <path id="Trazado_1030453" data-name="Trazado 1030453" d="M279.213,351.76s11.907-55.724,12.383-64.3-16.053-67.154-16.053-67.154l-19.191,11.907L223.489,216.5l7.62,77.632,14.764,60.962,7.62,2.381,22.385-2.381Z" transform="translate(-125.29 -87.315)" fill="#bddef4"/>
              <path id="Trazado_1030454" data-name="Trazado 1030454" d="M249.954,216S242.81,229.336,239,232.193c0,0,17.622,11.43,20.48,14.288l-.953-13.812Z" transform="translate(-107.938 -87.291)" fill="#81b5cc"/>
              <path id="Trazado_1030455" data-name="Trazado 1030455" d="M264.786,213.5s14.288,14.288,22.385,18.574l-12.383,16.669s-11.43-21.908-14.288-28.1Z" transform="translate(-156.109 -87.172)" fill="#81b5cc"/>
              <path id="Trazado_1030456" data-name="Trazado 1030456" d="M258.912,356.23l.016-.361c.014-.316,1.429-31.791,1.429-41.452,0-3.786.284-8.266.584-13.008.468-7.4.952-15.047.367-20.606-.944-8.966-9.211-45.868-9.294-46.239l-.03-.135-2.79-1.953-1.6,2.323.026.145c.042.229,4.189,22.978,6.072,33.1,1.908,10.251,2.606,22.3,2.137,36.835-.471,14.594-1.89,50.36-1.905,50.72l-.014.351Zm-7.564-121.374c.552,2.469,8.34,37.37,9.25,46.022.579,5.5.1,13.118-.37,20.486-.3,4.754-.585,9.245-.585,13.054,0,9.083-1.255,37.521-1.412,41.058l-3.575-.2c.149-3.764,1.446-36.556,1.891-50.375.471-14.586-.232-26.685-2.149-36.987-1.805-9.7-5.688-30.985-6.047-32.955l1.022-1.487Z" transform="translate(-118.223 -88.073)" fill="#81b5cc"/>
              <path id="Trazado_1030457" data-name="Trazado 1030457" d="M233.65,359.509s22.544,1.27,32.386-3.175c0,0,2.54.953,2.54,5.715s-.317,12.383-2.858,13.336-20.639,3.493-32.386,1.27Z" transform="translate(-111.638 -93.952)" fill="#81b5cc"/>
              <path id="Trazado_1030458" data-name="Trazado 1030458" d="M250.01,357.5c6.351-.159,7.144,3.334,7.461,5.556,0,0-.317,10.161-.317,12.7s-1.746,4.286-6.668,4.286-6.668-.635-6.827-4.127-.159-13.495-.159-13.495S243.659,357.659,250.01,357.5ZM246.3,373.155c.1,2.143,1.169,2.533,4.189,2.533s4.091-1.072,4.091-2.63.2-7.794.2-7.794c-.2-1.364-.682-3.507-4.579-3.41s-3.994,3.02-3.994,3.02S246.2,371.012,246.3,373.155Z" transform="translate(-110.216 -94.007)" fill="#fff"/>
              <path id="Trazado_1030459" data-name="Trazado 1030459" d="M282.529,199.558s-24.449-.317-36.2-11.43L282.37,184Z" transform="translate(-137.973 -85.772)" fill="#cc9a79"/>
              <path id="Trazado_1030460" data-name="Trazado 1030460" d="M293.736,124.287a42.207,42.207,0,0,1,7.334,11.209,49.541,49.541,0,0,1,4.415,16.415c1.588,17.463-3.493,35.561-44.769,33.339L229.28,167.469l-2.54-31.751,40.007-19.051Z" transform="translate(-142.512 -82.577)" fill="#f1bc98"/>
              <path id="Trazado_1030461" data-name="Trazado 1030461" d="M260.62,155.368s13.084-12.025,16.218-5.65c2.9,5.893-7.32,8.032-11.508,11.077S256.45,160.622,260.62,155.368Z" transform="translate(-144.853 -84.057)" fill="#eda472"/>
              <path id="Trazado_1030462" data-name="Trazado 1030462" d="M233.4,139.783c.5,1.307.971,2.688,1.387,4.156.394,1.389.743,2.85,1.03,4.378-4.053-.151-8.115-.613-8.13-4.993C227.676,140.381,230.315,139.644,233.4,139.783Z" transform="translate(-73.498 -83.673)" fill="#eda472"/>
              <path id="Trazado_1030463" data-name="Trazado 1030463" d="M277.112,134.3s-6.668,1.588-11.113,5.4-10.161,4.127-10.8.317,3.175-7.3,9.525-10.161,11.431-4.127,13.971-1.27S279.017,133.984,277.112,134.3Z" transform="translate(-143.669 -83.066)" fill="#b35f5e"/>
              <path id="Trazado_1030464" data-name="Trazado 1030464" d="M248.465,129.358a26.272,26.272,0,0,0-8.573.317c-4.763.953-5.08-5.08-4.127-6.032s8.255-.318,10.16.317S248.465,128.405,248.465,129.358Z" transform="translate(-93.431 -82.885)" fill="#b35f5e"/>
              <circle id="Elipse_12132" data-name="Elipse 12132" cx="2.024" cy="2.024" r="2.024" transform="translate(129.395 57.03)" fill="#333"/>
              <circle id="Elipse_12133" data-name="Elipse 12133" cx="2.024" cy="2.024" r="2.024" transform="translate(152.018 50.124)" fill="#333"/>
              <path id="Trazado_1030465" data-name="Trazado 1030465" d="M238.514,155.783a.353.353,0,0,0,.083-.01c.209-.05,5.13-1.235,6.383-2.738a2.365,2.365,0,0,0,.6-1.862c-.156-1.214-1.276-2.528-3.527-4.135a22.789,22.789,0,0,1-6.306-7.938.357.357,0,1,0-.663.265,23.69,23.69,0,0,0,6.553,8.255c2.048,1.463,3.106,2.656,3.233,3.644a1.658,1.658,0,0,1-.442,1.313c-.913,1.1-4.641,2.178-6,2.5a.357.357,0,0,0,.084.7Z" transform="translate(-90.307 -83.631)" fill="#dd884e"/>
              <path id="Trazado_1030466" data-name="Trazado 1030466" d="M251.278,166.087a8.316,8.316,0,0,0,3.509-.678.357.357,0,0,0-.318-.639c-.05.026-5.137,2.439-11.764-2.818a.357.357,0,1,0-.444.56C245.875,165.377,249.035,166.087,251.278,166.087Z" transform="translate(-106.421 -84.722)" fill="#dd884e"/>
              <path id="Trazado_1030467" data-name="Trazado 1030467" d="M357.825,248.978a212.333,212.333,0,0,1,14.288,61.439c2.858,35.244,7.68,173.838,7.68,177.172H261.937s27.536-93.944,50.493-119.067c19.6-21.449,1.578-116.21,1.578-116.21l28.1-13.812Z" transform="translate(-250.101 -88.359)" fill="#fff"/>
              <path id="Trazado_1030468" data-name="Trazado 1030468" d="M318.6,497.265a39.371,39.371,0,1,1,72.385,0Z" transform="translate(-315.426 -98.035)" fill="#015668"/>
              <path id="Trazado_1030469" data-name="Trazado 1030469" d="M338.391,472.395a.952.952,0,0,0,.877-.581A26.9,26.9,0,0,1,380.9,461.329a.953.953,0,0,0,1.194-1.484,28.8,28.8,0,0,0-44.577,11.228.953.953,0,0,0,.506,1.249A1,1,0,0,0,338.391,472.395Z" transform="translate(-324.67 -98.563)" fill="#81b5cc"/>
              <path id="Trazado_1030470" data-name="Trazado 1030470" d="M116.54,224.556s22.861,76.679,31.434,119.067S174.407,483.17,174.407,484.6h30.958S177.5,370.77,173.216,341.718s-5.715-54.771-5.715-54.771,45.722,21.908,62.391-11.43,11.43-95.254,9.525-95.73-22.861-4.286-26.195-4.286c0,0-19.051,62.868-21.432,66.2s-22.385-28.1-50.485-30-26.195,0-26.195,0Z" transform="translate(27.857 -85.369)" fill="#fff"/>
              <path id="Trazado_1030471" data-name="Trazado 1030471" d="M342.574,433.806s6.179,18.425,7.362,22.75,3.217,15.1.554,15.68c-2.622.571-7.1-14.019-8.838-15.37C339,454.8,330.19,484.054,324.866,483.59a1.8,1.8,0,0,1-1.332-1.158s-2.662,1.622-3.55-.927c0,0-1.553,1.158-3.106-.927,0,0-1.109.231-1.775-1.391s-3.55-27.343,1.775-44.489l21.005-9.526Z" transform="translate(-271.437 -97.219)" fill="#f1bc98"/>
              <path id="Trazado_1030472" data-name="Trazado 1030472" d="M338.8,484.619a.358.358,0,0,0,.354-.309c.03-.223.071-.491.124-.8.124-.718.3-1.644.517-2.7.261-1.279.575-2.751.909-4.277,1.248-5.711,2.791-12.287,2.806-12.353a.358.358,0,0,0-.266-.43.353.353,0,0,0-.43.266c-.015.066-1.559,6.647-2.808,12.363-.335,1.531-.65,3.005-.911,4.286-.217,1.066-.4,2-.521,2.722-.054.314-.1.591-.13.819a.359.359,0,0,0,.306.4A.276.276,0,0,0,338.8,484.619Z" transform="translate(-286.7 -99.049)" fill="#dd884e"/>
              <path id="Trazado_1030473" data-name="Trazado 1030473" d="M344.543,483.629a.358.358,0,0,0,.356-.332c.219-3.082,2.416-20.313,2.438-20.486a.357.357,0,1,0-.709-.091c-.022.174-2.222,17.425-2.441,20.527a.356.356,0,0,0,.331.381A.093.093,0,0,0,344.543,483.629Z" transform="translate(-295.994 -98.986)" fill="#dd884e"/>
              <path id="Trazado_1030474" data-name="Trazado 1030474" d="M350.071,482.582l.034,0a.357.357,0,0,0,.321-.39c-.873-9.012.539-21.81.554-21.939a.358.358,0,0,0-.711-.08c-.014.13-1.435,13-.554,22.088A.357.357,0,0,0,350.071,482.582Z" transform="translate(-304.628 -98.865)" fill="#dd884e"/>
              <g id="Grupo_1174649" data-name="Grupo 1174649" transform="translate(43.15 366.213)">
                <path id="Trazado_1030475" data-name="Trazado 1030475" d="M340,484.156c.124-.72.3-1.65.519-2.711.261-1.281.351-1.094.685-2.621,0,0,.238-.5,1.162-.193s.945,3.09.28,4.789-2.366,1.583-2.551.966Z" transform="translate(-330.926 -465.964)" fill="#b35f5e"/>
                <path id="Trazado_1030476" data-name="Trazado 1030476" d="M343.8,483.136s.554,1.506,1.886.927,1.5-5.388.666-5.909a1.286,1.286,0,0,0-2.108.7Z" transform="translate(-338.286 -465.932)" fill="#b35f5e"/>
                <path id="Trazado_1030477" data-name="Trazado 1030477" d="M348.016,478.175s.074,3.4.148,4.017c0,0,1.035,1.391,1.7.464s.739-3.244.517-4.248S348.312,476.089,348.016,478.175Z" transform="translate(-345.945 -465.895)" fill="#b35f5e"/>
                <path id="Trazado_1030478" data-name="Trazado 1030478" d="M351.235,477.846l.444,3.167s.666.773.888,0,.222-3.707-.148-4.094S351.235,476.379,351.235,477.846Z" transform="translate(-351.235 -465.875)" fill="#b35f5e"/>
                <path id="Trazado_1030479" data-name="Trazado 1030479" d="M316.728,466.8s.3,3.476.222,4.094c0,0-.591,1.468-2.218-.231s-1.035-5.329.074-5.329A1.777,1.777,0,0,1,316.728,466.8Z" transform="translate(-279.751 -465.338)" fill="#b35f5e"/>
              </g>
              <g id="Grupo_1174650" data-name="Grupo 1174650" transform="translate(86.491 154.892)">
                <path id="Trazado_1030480" data-name="Trazado 1030480" d="M304.86,420.253l.833-.046c-1.281-39.873-6.3-93.879-22.924-133.638-.42-1.007-.773-1.846-.9-2.26,1.449-.135,5.374-.95,9.623-1.849,1.051-.222,1.935-.41,2.485-.519a.557.557,0,0,0,.423-.364c.8-2.214-16.7-23.973-20.22-28.312l-.554.451c9.81,12.106,20.067,25.722,20.105,27.546-.557.112-1.4.291-2.389.5-3.276.693-8.759,1.853-9.82,1.853h-.191l-.155.184c-.2.3-.079.622.935,3.046C298.695,326.5,303.581,380.439,304.86,420.253Z" transform="translate(-273.625 -243.952)" fill="#81b5cc"/>
                <path id="Trazado_1030481" data-name="Trazado 1030481" d="M290.364,350.1a2.739,2.739,0,1,0-2.739-2.739A2.742,2.742,0,0,0,290.364,350.1Zm0-4.763a2.024,2.024,0,1,1-2.024,2.024A2.026,2.026,0,0,1,290.364,345.339Z" transform="translate(-274.369 -248.288)" fill="#81b5cc"/>
                <path id="Trazado_1030482" data-name="Trazado 1030482" d="M287.864,401.1a2.739,2.739,0,1,0-2.739-2.739A2.742,2.742,0,0,0,287.864,401.1Zm0-4.763a2.024,2.024,0,1,1-2.024,2.024A2.026,2.026,0,0,1,287.864,396.339Z" transform="translate(-269.488 -250.709)" fill="#81b5cc"/>
                <path id="Trazado_1030483" data-name="Trazado 1030483" d="M289.364,375.1a2.739,2.739,0,1,0-2.739-2.739A2.742,2.742,0,0,0,289.364,375.1Zm0-4.763a2.024,2.024,0,1,1-2.024,2.024A2.026,2.026,0,0,1,289.364,370.339Z" transform="translate(-272.417 -249.475)" fill="#81b5cc"/>
                <path id="Trazado_1030484" data-name="Trazado 1030484" d="M217.341,404.567l.692-.177c-9.405-36.682-9.985-130.893-9.99-131.84l0-.335-.335-.019c-.086-.006-8.56-.48-10.411-.943-1.023-.823-1.125-14.911-.682-27.741l-.714-.024c-.29,8.393-.75,27.965,1.223,28.459,1.722.43,8.584.849,10.209.943C207.376,279.136,208.2,368.909,217.341,404.567Z" transform="translate(-111.678 -243.488)" fill="#81b5cc"/>
              </g>
              <path id="Trazado_1030485" data-name="Trazado 1030485" d="M198.188,185.049c19.689-4.75,22.383-18.438,21.171-31.768a49.552,49.552,0,0,0-1.24-7.367c2.006-.348,12.162-1.783,13.306,4.509,1.27,6.985-6.986,7.937-4.128,10.8s13.653-.953,13.018,9.525-12.383,12.066-11.113,18.1,14.605,2.54,18.734,12.066a23.287,23.287,0,0,1,.635,17.463,77.238,77.238,0,0,0-15.876-6.985s-2.858,2.858-1.588,8.256,14.288,22.226-.635,22.226-9.525-15.558-16.51-16.51-2.222,4.445-9.525,5.4-9.843-11.113-9.525-24.766A80.549,80.549,0,0,1,198.188,185.049Z" transform="translate(-56.387 -83.946)" fill="#ef7f7d"/>
              <g id="Grupo_1174652" data-name="Grupo 1174652" transform="translate(138.497 61.58)">
                <g id="Grupo_1174651" data-name="Grupo 1174651" clip-path="url(#clip-path-3)">
                  <path id="Trazado_1030486" data-name="Trazado 1030486" d="M232.151,217.023a.476.476,0,0,0,.466-.38c.02-.1,1.894-9.724-6.257-12.688-5.758-2.094-10.352-5.83-12.291-9.993a11.576,11.576,0,0,1-.284-9.161,76.074,76.074,0,0,1,3.053-7.037c2.187-4.559,3.508-7.31-.392-9.724-3.883-2.4-4.3-7.112-4.7-11.665-.09-1.021-.184-2.077-.315-3.075-.758-5.729-6.821-6.047-6.882-6.05a.476.476,0,0,0-.041.952c.217.01,5.326.3,5.978,5.222.13.977.218,1.977.311,3.034.423,4.786.861,9.736,5.149,12.391,3.173,1.964,2.254,3.878.035,8.5a76.79,76.79,0,0,0-3.089,7.122,12.505,12.505,0,0,0,.315,9.89c2.043,4.388,6.838,8.308,12.829,10.486,7.374,2.681,5.724,11.239,5.65,11.6a.476.476,0,0,0,.371.562A.4.4,0,0,0,232.151,217.023Z" transform="translate(-186.481 -145.608)" fill="#f29997"/>
                  <path id="Trazado_1030487" data-name="Trazado 1030487" d="M234.273,243.536a.476.476,0,0,0,.05-.95c-1.358-.143-3.863-2.64-6.535-6.517-4.879-7.076-9.36-17.254-8.057-22.178,1.352-5.107-1.182-7.885-4.116-11.1a26.5,26.5,0,0,1-5.43-7.777c-2.043-4.9.6-8.174,3.152-11.336,1.775-2.2,3.451-4.274,3.552-6.8.25-6.245-4.57-7.839-4.619-7.856a.476.476,0,0,0-.288.908c.171.055,4.175,1.412,3.955,6.91-.089,2.209-1.669,4.166-3.341,6.237-2.6,3.222-5.551,6.874-3.29,12.3a27.267,27.267,0,0,0,5.606,8.053c2.86,3.136,5.118,5.612,3.9,10.217-1.391,5.255,3.068,15.529,8.193,22.962,1.377,2,4.839,6.673,7.22,6.924Z" transform="translate(-192.651 -146.641)" fill="#f29997"/>
                  <path id="Trazado_1030488" data-name="Trazado 1030488" d="M245.226,232.318a.475.475,0,0,0,.458-.35c1.945-7.05-1.446-18.422-8.639-28.971-5.627-8.252-.994-12.135,2.727-15.255A25.57,25.57,0,0,0,242,185.732c3.579-3.835,1-7.028.971-7.06a.477.477,0,0,0-.733.609c.086.106,2.057,2.6-.933,5.8a25.106,25.106,0,0,1-2.144,1.932c-3.8,3.19-9.014,7.557-2.9,16.522,7.042,10.327,10.381,21.389,8.507,28.182a.476.476,0,0,0,.332.586A.532.532,0,0,0,245.226,232.318Z" transform="translate(-227.894 -147.092)" fill="#f29997"/>
                </g>
              </g>
              <path id="Trazado_1030490" data-name="Trazado 1030490" d="M379.977,302.654s-.3.517-.824,1.436c-2.008,3.5-6.824,11.7-11.615,19.555-4.071,6.673-8.124,13.094-10.423,16.158-2.978,3.97,3.353,25.522,10.1,45.259,6.2,18.145,12.761,34.754,12.761,34.754s-2.457.157-6.036.731c-7.227,1.157-19.03,4.012-24.445,10.7,0,0-29.691-55.7-39.054-78.584-17.146-41.912,46.2-112.4,47.627-114.781s33.339-2.381,33.339-2.381Z" transform="translate(-305.115 -88.217)" fill="#fff"/>
              <path id="Trazado_1030491" data-name="Trazado 1030491" d="M326.2,428.338a.4.4,0,0,0,.057,0c3.52-.563,5.978-.725,6-.727a.357.357,0,0,0,.309-.488c-.065-.166-6.624-16.809-12.754-34.739a.357.357,0,1,0-.675.231c5.573,16.3,11.5,31.539,12.589,34.32-.893.075-2.945.274-5.585.7a.357.357,0,0,0,.056.71Z" transform="translate(-257.38 -95.651)" fill="#81b5cc"/>
              <path id="Trazado_1030492" data-name="Trazado 1030492" d="M319.483,327.33a.357.357,0,0,0,.3-.171c4.813-7.888,9.585-16.021,11.62-19.563l.823-1.436a.357.357,0,1,0-.62-.355l-.823,1.436c-2.033,3.539-6.8,11.664-11.611,19.547a.356.356,0,0,0,.306.543Z" transform="translate(-257.061 -91.545)" fill="#81b5cc"/>
              <path id="Trazado_1030493" data-name="Trazado 1030493" d="M136.362,202.075a58.488,58.488,0,0,0,13.843-1.532.357.357,0,1,0-.189-.69c-.171.047-17.234,4.589-34.658-2.319a.358.358,0,0,0-.264.665A57.917,57.917,0,0,0,136.362,202.075Z" transform="translate(119.311 -86.413)" fill="#81b5cc"/>
              <path id="Trazado_1030494" data-name="Trazado 1030494" d="M325.753,424.888a.353.353,0,0,0,.257-.11c7.889-8.209,16.208-11.025,21.8-11.941a29.336,29.336,0,0,1,10.306-.029.357.357,0,0,0,.162-.7,29.506,29.506,0,0,0-10.584.02c-5.7.934-14.174,3.8-22.2,12.152a.357.357,0,0,0,.01.5A.361.361,0,0,0,325.753,424.888Z" transform="translate(-289.307 -96.578)" fill="#81b5cc"/>
              <path id="Trazado_1030495" data-name="Trazado 1030495" d="M311.164,159.895s15.241,5.4,14.288,25.083S313.7,208.156,311.8,215.459s8.89,20.639,4.127,28.259-15.876,6.032-19.051,3.81-11.43-4.127-11.43,5.4-11.113,15.241-20.321,9.525-10.478-16.51-24.766-8.256l-7.3,11.113s-7.938-15.558,0-24.449,27.941-16.193,24.449-20-11.43-10.161-4.127-18.1,16.193-6.351,13.336-13.018,1.905-11.748,8.256-13.336,4.127-7.3.635-9.208-12.066-7.3-10.161-16.51,13.653-13.971,10.16-24.449.635-14.605,3.493-15.241,7.938,2.222,9.525-.635,2.222-10.478,6.351-11.748,7.938,3.493,11.748,2.54,3.175-8.573,8.256-8.256,4.127,6.351,8.89,5.08,2.222-6.351,3.493-10.8,13.971-4.763,13.336,4.763,1.588,10.478,5.4,8.89,15.558-5.4,19.686,9.525-9.525,18.1-14.605,14.923-11.75-5.715-11.75-.317-5.4,7.62-9.843,7.938-6.985-7.3-11.113-5.715,0,6.668-4.127,8.256-6.668-.317-6.668,2.54,9.525,6.351,6.032,11.43-5.715,3.493-5.715,3.493,0-4.445-6.985-3.175-5.4,13.336,3.175,12.066S311.164,159.895,311.164,159.895Z" transform="translate(-205.979 -81.035)" fill="#ef7f7d"/>
              <g id="Grupo_1174654" data-name="Grupo 1174654" transform="translate(23.548 3.155)">
                <g id="Grupo_1174653" data-name="Grupo 1174653" clip-path="url(#clip-path-4)">
                  <path id="Trazado_1030496" data-name="Trazado 1030496" d="M290.484,261.218l.845-.441c-.062-.119-6.163-11.938-2.267-17.032,1.627-2.128,4.181-2.686,6.885-3.278,3.732-.816,7.962-1.742,9.7-7.348,1.542-4.969.124-7-1.519-9.354a15.285,15.285,0,0,1-3.222-10.156c0-5.377,2.564-7.424,5.535-9.795,3.394-2.71,7.243-5.782,8.431-14.27,2.234-15.948-7.115-24.091-6.8-23.919l-1.169.1c.261.591,9.185,8.278,7.027,23.69-1.135,8.113-4.826,11.058-8.081,13.658-3.031,2.419-5.893,4.7-5.893,10.54a16.3,16.3,0,0,0,3.394,10.7c1.622,2.323,2.795,4,1.391,8.525-1.576,5.077-5.181,5.866-9,6.7-2.753.6-5.6,1.225-7.438,3.63C284.042,248.741,290.218,260.711,290.484,261.218Z" transform="translate(-232.765 -88.055)" fill="#f29997"/>
                  <path id="Trazado_1030497" data-name="Trazado 1030497" d="M296.081,267.879c.243-.048,5.994-1.251,9.864-9.31,2.057-4.285.635-6.664-.87-9.182-1.413-2.365-3.015-5.047-2.264-10,.892-5.885,3.236-6.348,6.481-6.989a13.753,13.753,0,0,0,7.665-3.533c3.875-3.682,2.111-6.656.243-9.805-1.4-2.358-2.845-4.8-2.324-7.924.63-3.776,3.269-5.551,6.921-8.008a38.74,38.74,0,0,0,11.1-10.211c7.671-10.867,2.377-27.16,2.322-27.324l-.989-.3c.053.159,5.28,16.606-2.111,27.075a37.913,37.913,0,0,1-10.851,9.971c-3.705,2.492-6.632,4.461-7.328,8.641-.578,3.471,1.028,6.178,2.444,8.567,1.813,3.056,3.245,5.47-.08,8.629a12.947,12.947,0,0,1-7.193,3.289c-3.353.662-6.247,1.234-7.238,7.78-.8,5.3.892,8.132,2.388,10.635s2.663,4.458.828,8.28c-3.664,7.635-9.132,8.778-9.187,8.788Z" transform="translate(-263.25 -88.039)" fill="#f29997"/>
                  <path id="Trazado_1030498" data-name="Trazado 1030498" d="M301.308,260.894l.95-.072c-.009-.115-.8-11.533,5.8-14.533.647-.294,1.324-.591,2.018-.9,6.988-3.063,15.685-6.876,15.088-16.712-.122-2.013-.3-3.751-.46-5.284-.66-6.4-.908-8.79,4.961-11.725,6.169-3.084,5.976-6.272,5.734-10.309a32.4,32.4,0,0,1-.073-3.744c.247-4.686,3.092-5.443,7.03-6.492.8-.212,1.63-.434,2.48-.7,4.536-1.417,5.277-5.284,6.135-9.761.165-.855.335-1.743.537-2.657,1.225-5.514,5.16-12.987,8.175-14.495l-.6-.839c-3.3,1.648-7.208,9.289-8.505,15.126-.2.922-.377,1.82-.542,2.683-.867,4.518-1.493,7.783-5.486,9.031-.836.261-1.655.479-2.44.688-4,1.065-7.453,1.984-7.736,7.362a33.479,33.479,0,0,0,.073,3.852c.239,3.973.4,6.6-5.209,9.4-6.458,3.229-6.152,6.19-5.482,12.674.157,1.524.335,3.251.456,5.244.556,9.173-7.8,12.837-14.52,15.783-.7.307-1.38.6-2.031.9C300.456,248.7,301.269,260.4,301.308,260.894Z" transform="translate(-290.995 -87.916)" fill="#f29997"/>
                  <path id="Trazado_1030499" data-name="Trazado 1030499" d="M302.963,179.381c3.148-.7,4.779-4.03,6.714-13.707,1.791-8.949,11.891-7.252,12.3-7.177l.15-1.155c.451-.15-11.413-1.724-13.386,8.146-1.82,9.1-3.331,12.374-5.987,12.964Z" transform="translate(-254.88 -87.654)" fill="#f29997"/>
                  <path id="Trazado_1030500" data-name="Trazado 1030500" d="M244.275,149.6l1.094-.038c.209.4-5.349-6.583-2.058-12.563,1.55-2.819,3.906-3.732,5.986-4.538,2.436-.944,4.736-1.836,4.549-5.559a36.528,36.528,0,0,0-.5-4.069c-.762-4.7-1.313-8.1,5.222-9.733,4.711-1.179,7.479,1.939,9.705,4.443,1.816,2.039,3.531,3.967,5.69,2.472,2.071-1.434,2.639-4.019,3.141-6.3.607-2.759,1-4.177,2.84-3.786,1.478.317,3.732,1.756,6.118,3.278,3.594,2.293,7.312,4.664,9.467,3.855a2.463,2.463,0,0,0,1.481-1.748A5.3,5.3,0,0,0,296.63,111c-1.657-2.836-6.138-4.372-12.355-5.807-4.854-1.12-6.109-5.592-7.215-9.538-.709-2.522-1.32-4.7-2.8-5.641a77.075,77.075,0,0,1-6.463-4.65l-.6.737a78.648,78.648,0,0,0,6.554,4.716c1.169.744,1.735,2.76,2.391,5.094,1.12,3.992,2.515,8.961,7.918,10.208,5.171,1.194,10.174,2.669,11.747,5.359a4.334,4.334,0,0,1,.287,3.568,1.548,1.548,0,0,1-.9,1.126c-1.71.638-5.383-1.7-8.62-3.766-2.46-1.57-4.785-3.054-6.432-3.406-2.841-.608-3.417,1.995-3.969,4.513-.464,2.11-.989,4.5-2.752,5.721-1.4.972-2.485-.129-4.437-2.322-2.272-2.553-5.389-6.052-10.648-4.733-7.385,1.846-6.679,6.2-5.932,10.809a36.137,36.137,0,0,1,.492,3.964c.151,3.037-1.567,3.7-3.944,4.624-2.121.822-4.76,1.844-6.477,4.967C238.866,143.1,244.22,149.537,244.275,149.6Z" transform="translate(-171.416 -84.246)" fill="#f29997"/>
                  <path id="Trazado_1030501" data-name="Trazado 1030501" d="M272.9,151.577l1.027-.752c-5.136-5.137-7.56-12.674-4.938-16.171a10.847,10.847,0,0,1,3.732-2.78c2.544-1.379,5.175-2.805,4.293-7.437-1.285-6.741,3.968-15.224,11.471-18.526,4.261-1.874,7.069-.191,9.546,1.3,1.989,1.192,3.866,2.318,6.033,1.234a2.462,2.462,0,0,0,1.389-1.82c.724-3.835-6.04-11.385-6.329-11.7l-.707.638c1.876,2.079,6.628,8.09,6.1,10.889a1.531,1.531,0,0,1-.879,1.145c-1.7.848-3.206-.054-5.117-1.2-2.543-1.526-5.709-3.424-10.42-1.35-7.878,3.466-13.386,12.432-12.024,19.576.752,3.947-1.262,5.039-3.811,6.422a11.58,11.58,0,0,0-4.041,3.046C265.335,137.931,267.448,146.13,272.9,151.577Z" transform="translate(-204.113 -84.699)" fill="#f29997"/>
                  <path id="Trazado_1030502" data-name="Trazado 1030502" d="M303.9,171.24l.793-.529c-1.016-1.525-2.641-4.65-5.014-14.139-1.157-4.626,1.495-5.547,4.566-6.613,2.34-.813,4.994-1.734,5.6-4.6a14.685,14.685,0,0,0-.235-6.016c-.576-3.038-.993-5.233,3.157-7.308,6.925-3.462,8.606-7.6,6.924-17.021-1.527-8.548,6.644-17.362,6.726-17.451l-.694-.652c-.351.373-8.581,9.247-6.97,18.271,1.608,9,.11,12.74-6.412,16-4.794,2.4-4.246,5.283-3.667,8.338a13.906,13.906,0,0,1,.239,5.643c-.493,2.343-2.673,3.1-4.98,3.9-3.068,1.065-6.545,2.272-5.178,7.743C301.136,166.329,302.756,169.522,303.9,171.24Z" transform="translate(-255.047 -84.794)" fill="#f29997"/>
                  <path id="Trazado_1030503" data-name="Trazado 1030503" d="M312.64,143.692l7.938-6.35c2.24-1.793,2.293-7.412,2.339-12.37a35.983,35.983,0,0,1,.368-6.312c.9-3.9,7.05-8.246,7.113-8.29l-.547-.78c-.265.186-6.512,4.6-7.494,8.856a36.36,36.36,0,0,0-.391,6.516c-.042,4.51-.1,10.125-1.982,11.634l-7.938,6.351Z" transform="translate(-271.984 -85.396)" fill="#f29997"/>
                </g>
              </g>
              <path id="Trazado_1030505" data-name="Trazado 1030505" d="M298.416,157.95s-3.493-2.54-4.445.476,3.334,2.858,4.6,2.381Z" transform="translate(-199.265 -84.488)" fill="#cc9a79"/>
              <path id="Trazado_1030506" data-name="Trazado 1030506" d="M235.234,148.284a9.5,9.5,0,0,0,1.228-.08c6.287-.822,10.568-7.865,9.544-15.7s-6.978-13.534-13.258-12.722-10.567,7.865-9.544,15.7h0a16.245,16.245,0,0,0,4.567,9.54A10.7,10.7,0,0,0,235.234,148.284Zm-1.269-26.678c4.877,0,9.32,4.768,10.152,11.143.888,6.794-2.658,12.879-7.9,13.565a8.575,8.575,0,0,1-7.113-2.657,14.335,14.335,0,0,1-4.008-8.423h0c-.888-6.794,2.657-12.879,7.9-13.565A7.551,7.551,0,0,1,233.965,121.606Z" transform="translate(-79.425 -82.721)" fill="#fff"/>
              <path id="Trazado_1030507" data-name="Trazado 1030507" d="M263.552,158.185a11.011,11.011,0,0,0,1.431-.093c6.847-.9,11.586-8,10.562-15.834a15.364,15.364,0,0,0-4.9-9.53,11.455,11.455,0,0,0-17.658,2.306,15.363,15.363,0,0,0-2.283,10.468h0C251.658,152.791,257.264,158.185,263.552,158.185Zm-.842-26.705a10.012,10.012,0,0,1,6.67,2.67,13.467,13.467,0,0,1,4.276,8.354c.888,6.794-3.115,12.94-8.921,13.7s-11.253-4.151-12.14-10.947a13.47,13.47,0,0,1,1.986-9.173,9.832,9.832,0,0,1,6.934-4.526A9.33,9.33,0,0,1,262.71,131.48Z" transform="translate(-135.158 -83.189)" fill="#fff"/>
              <path id="Trazado_1030508" data-name="Trazado 1030508" d="M247.241,140.606c1.089-3.265,4.807-2.155,5.228-2.017l.6-1.808c-2.043-.681-6.265-.883-7.635,3.221Z" transform="translate(-107.656 -83.513)" fill="#fff"/>
              <rect id="Rectángulo_414641" data-name="Rectángulo 414641" width="22.959" height="1.905" transform="matrix(-0.994, -0.11, 0.11, -0.994, 116.382, 63.13)" fill="#fff"/>
              <path id="Trazado_1030509" data-name="Trazado 1030509" d="M83.539,116.285a6.708,6.708,0,1,0-6.709-6.708A6.715,6.715,0,0,0,83.539,116.285Zm0-11.511a4.8,4.8,0,1,1-4.8,4.8A4.808,4.808,0,0,1,83.539,104.773Z" transform="translate(215.768 -81.922)" fill="#81b5cc"/>
              <path id="Trazado_1030448" data-name="Trazado 1030448" d="M130.4,142.811s7.382-5.477,10.716-8.573,2.619-6.191-.714-5c-.52.186-1.3.452-2.241.779-1.006.348-2.2.763-3.489,1.219-5.244,1.861-11.952,4.407-13.082,5.86-1.667,2.143,2.858,16.193,2.858,18.336s5.715-.238,5.715-.238Z" transform="translate(120.444 -83.161)" fill="#f1bc98"/>
            </g>
          </g>
        </g>
      </g>
      <g id="Grupo_1174658" data-name="Grupo 1174658" transform="translate(191.346 1796.189)">
        <g transform="matrix(1, 0, 0, 1, -10.89, -14.19)" filter="url(#Trazado_1030518)">
          <path id="Trazado_1030518-2" data-name="Trazado 1030518" d="M376.532,80.335c-.308,0-.611.016-.913.04A12.907,12.907,0,0,0,351.5,71.186a10.125,10.125,0,0,0-13.716,9.072,11.119,11.119,0,0,0,2.98,21.831c6.141,0,29.733.088,35.764.088a10.921,10.921,0,0,0,0-21.842Z" transform="translate(-318.76 -48.96)" fill="#e9f9fd"/>
        </g>
        <path id="Trazado_1030519" data-name="Trazado 1030519" d="M380.465,109.541,367.035,96.11,353.6,109.541h7.37v14h12.193v-14Z" transform="translate(-338.063 -74.73)" fill="#86b60c"/>
      </g>
      <g id="Grupo_1174672" data-name="Grupo 1174672" transform="translate(382.461 1698.091)">
        <g id="Grupo_1174671" data-name="Grupo 1174671">
          <path id="Trazado_1030545" data-name="Trazado 1030545" d="M146.31,149.961a37.735,37.735,0,1,0,0,53.365A37.735,37.735,0,0,0,146.31,149.961Z" fill="#b4e7e9"/>
          <path id="Trazado_1030546" data-name="Trazado 1030546" d="M155.673,165.559,116,180.071l19.309,30.914a37.772,37.772,0,0,0,20.36-45.426Z" fill="#343737"/>
          <path id="Trazado_1030547" data-name="Trazado 1030547" d="M146.287,149.984a37.562,37.562,0,0,0-16.89-9.765L116,180.071l38.854,10.077A37.74,37.74,0,0,0,146.287,149.984Z" fill="#ffbc00"/>
          <path id="Trazado_1030548" data-name="Trazado 1030548" d="M116,180.071l4.786,34.3a37.665,37.665,0,0,0,17.94-5.168Z" fill="#b74352"/>
          <path id="Trazado_1030549" data-name="Trazado 1030549" d="M135.176,142.286a37.851,37.851,0,0,0-30.542-.267L116,180.068Z" fill="#6168bd"/>
          <path id="Trazado_1030550" data-name="Trazado 1030550" d="M105.853,141.506A37.828,37.828,0,0,0,85.13,161.333L116,180.072Z" fill="#ec8b1e"/>
          <path id="Trazado_1030551" data-name="Trazado 1030551" d="M135.176,142.286a37.631,37.631,0,0,0-10.494-3.01L116,180.068Z" fill="#4f52a9"/>
        </g>
      </g>
      <path id="Trazado_1030448-2" data-name="Trazado 1030448" d="M130.4,142.811s7.382-5.477,10.716-8.573,2.619-6.191-.714-5c-.52.186-1.3.452-2.241.779-1.006.348-2.2.763-3.489,1.219-5.244,1.861-11.952,4.407-13.082,5.86-1.667,2.143,2.858,16.193,2.858,18.336s5.715-.238,5.715-.238Z" transform="translate(332.1 1752.609)" fill="#f1bc98"/>
      <g id="Grupo_1174669" data-name="Grupo 1174669" transform="translate(444.259 2071.426)">
        <g id="Grupo_1174666" data-name="Grupo 1174666" transform="translate(0 0)">
          <g transform="matrix(1, 0, 0, 1, -263.8, -289.43)" filter="url(#Trazado_1030536)">
            <path id="Trazado_1030536-2" data-name="Trazado 1030536" d="M286.343,166.413c0-.476.106-.99.566-.99H322.65l13.709,14V235c0,.476-.641.731-1.1.731H286.909c-.461,0-.566-.255-.566-.731Z" transform="translate(-22.54 124)" fill="#fff"/>
          </g>
        </g>
        <g id="Grupo_1174667" data-name="Grupo 1174667" transform="translate(40.665 0.162)">
          <path id="Trazado_1030537" data-name="Trazado 1030537" d="M315.071,174.791h8.695l-9.091-9.19V174.3C314.673,174.618,314.748,174.791,315.071,174.791Z" transform="translate(-314.674 -165.601)" fill="#6168bd"/>
        </g>
        <g id="Grupo_1174668" data-name="Grupo 1174668" transform="translate(3.028 26.39)">
          <path id="Trazado_1030538" data-name="Trazado 1030538" d="M295.586,183.3a5.907,5.907,0,1,0,5.907,5.907A5.907,5.907,0,0,0,295.586,183.3Zm0,9.292a3.385,3.385,0,1,1,3.385-3.385A3.385,3.385,0,0,1,295.586,192.594Z" transform="translate(-289.679 -183.297)" fill="#343737"/>
          <path id="Trazado_1030539" data-name="Trazado 1030539" d="M292.2,189.2a3.381,3.381,0,0,1,3.385-3.381c.015,0,.031.005.046.005V183.3h-.425a5.915,5.915,0,0,0-5.528,5.894c0,.131,0,.266.013.389h2.532A3.22,3.22,0,0,1,292.2,189.2Z" transform="translate(-289.679 -183.296)" fill="#b74352"/>
          <path id="Trazado_1030540" data-name="Trazado 1030540" d="M295.634,195.753V193.23h-.046a3.384,3.384,0,0,1-3.364-3.013h-2.529a6.031,6.031,0,0,0,.32,1.589,5.908,5.908,0,0,0,5.573,3.945A.394.394,0,0,0,295.634,195.753Z" transform="translate(-289.68 -183.934)" fill="#ec8b1e"/>
          <path id="Trazado_1030541" data-name="Trazado 1030541" d="M302.25,189.546a5.9,5.9,0,0,0-.32-1.92l-.385-.667-2.107,1.216a3.386,3.386,0,0,1-1.539,4.376l1.263,2.186A5.9,5.9,0,0,0,302.25,189.546Z" transform="translate(-290.437 -183.634)" fill="#ffbc00"/>
          <path id="Trazado_1030542" data-name="Trazado 1030542" d="M301.329,192.546a5.907,5.907,0,0,0-.612-7.227l-1.316-.76-1.131,1.96a3.384,3.384,0,0,1,.869,4.763Z" transform="translate(-290.471 -183.412)" fill="#6168bd"/>
          <path id="Trazado_1030543" data-name="Trazado 1030543" d="M295.842,183.3a5.881,5.881,0,0,0-3.383,1.065l1.383,2.111a3.384,3.384,0,0,1,4.938,1.053l2.059-1.471A5.9,5.9,0,0,0,295.842,183.3Z" transform="translate(-289.935 -183.297)" fill="#c0611d"/>
        </g>
        <rect id="Rectángulo_414644" data-name="Rectángulo 414644" width="3.03" height="2.323" transform="translate(3.028 6.225)" fill="#4f52a9"/>
        <path id="Trazado_1030544" data-name="Trazado 1030544" d="M320.783,172.28H296.59v3.711h24.193Zm-31.1,44.387H333.23v-3.709H289.679Zm0,7.946H333.23V220.9H289.679Zm0,7.946H333.23V228.85H289.679Zm21.832-43.982v3.709H333.23v-3.709Zm0,10.917H333.23v-3.709H311.511Zm0,7.206H333.23V202.99H311.511Z" transform="translate(-286.651 -166.055)" fill="#6168bd"/>
      </g>
      <g id="Grupo_1174673" data-name="Grupo 1174673" transform="translate(507.461 2100.275)">
        <rect id="Rectángulo_414645" data-name="Rectángulo 414645" width="14.012" height="82.918" transform="translate(0)" fill="#b74352"/>
        <rect id="Rectángulo_414646" data-name="Rectángulo 414646" width="14.012" height="38.962" transform="translate(13.979 43.957)" fill="#ffbc00"/>
        <rect id="Rectángulo_414647" data-name="Rectángulo 414647" width="14.012" height="60.278" transform="translate(27.96 22.641)" fill="#b4e7e9"/>
        <rect id="Rectángulo_414648" data-name="Rectángulo 414648" width="14.012" height="21.107" transform="translate(41.94 61.813)" fill="#4f52a9"/>
        <rect id="Rectángulo_414649" data-name="Rectángulo 414649" width="14.012" height="11.833" transform="translate(55.919 71.087)" fill="#ec8b1e"/>
      </g>
    </g>
  </g>
</svg>
