<svg xmlns="http://www.w3.org/2000/svg" xmlns:xlink="http://www.w3.org/1999/xlink" width="113" height="113" viewBox="0 0 113 113">
  <defs>
    <filter id="Trazado_982547" x="0" y="0" width="113" height="113" filterUnits="userSpaceOnUse">
      <feOffset dy="3" input="SourceAlpha"/>
      <feGaussianBlur stdDeviation="3" result="blur"/>
      <feFlood flood-opacity="0.161"/>
      <feComposite operator="in" in2="blur"/>
      <feComposite in="SourceGraphic"/>
    </filter>
  </defs>
  <g id="Grupo_1173351" data-name="Grupo 1173351" transform="translate(-171 -1610)">
    <g id="Grupo_1173048" data-name="Grupo 1173048" transform="translate(0 944)">
      <g id="Grupo_1167505" data-name="Grupo 1167505" transform="translate(0 -151)">
        <g id="Grupo_1166845" data-name="Grupo 1166845" transform="translate(180 823)">
          <g id="Grupo_1166720" data-name="Grupo 1166720">
            <g id="Grupo_1164305" data-name="Grupo 1164305" transform="translate(0)">
              <g id="Grupo_1163948" data-name="Grupo 1163948">
                <g id="Grupo_1158168" data-name="Grupo 1158168">
                  <g id="Grupo_1152576" data-name="Grupo 1152576">
                    <g id="Grupo_1148633" data-name="Grupo 1148633">
                      <g id="Grupo_1148525" data-name="Grupo 1148525">
                        <g transform="matrix(1, 0, 0, 1, -9, -6)" filter="url(#Trazado_982547)">
                          <g id="Trazado_982547-2" data-name="Trazado 982547" transform="translate(9 6)" fill="#fff4e6">
                            <path d="M 47.5 93.5 C 41.28937149047852 93.5 35.26533508300781 92.28397369384766 29.59518623352051 89.88570404052734 C 24.11771965026855 87.56893157958984 19.19813346862793 84.25196075439453 14.97309303283691 80.02691650390625 C 10.74804019927979 75.80186462402344 7.431066513061523 70.88229370117188 5.114293098449707 65.40481567382812 C 2.716026782989502 59.73468017578125 1.5 53.71062850952148 1.5 47.5 C 1.5 41.28937149047852 2.716026782989502 35.26533508300781 5.114293098449707 29.59518623352051 C 7.431066513061523 24.11771965026855 10.74804019927979 19.19813346862793 14.97309303283691 14.97309303283691 C 19.19813346862793 10.74804019927979 24.11771965026855 7.431066513061523 29.59518623352051 5.114293098449707 C 35.26533508300781 2.716026782989502 41.28937149047852 1.5 47.5 1.5 C 53.71062850952148 1.5 59.73468017578125 2.716026782989502 65.40481567382812 5.114293098449707 C 70.88229370117188 7.431066513061523 75.80186462402344 10.74804019927979 80.02691650390625 14.97309303283691 C 84.25196075439453 19.19813346862793 87.56893157958984 24.11771965026855 89.88570404052734 29.59518623352051 C 92.28397369384766 35.26533508300781 93.5 41.28937149047852 93.5 47.5 C 93.5 53.71062850952148 92.28397369384766 59.73468017578125 89.88570404052734 65.40481567382812 C 87.56893157958984 70.88229370117188 84.25196075439453 75.80186462402344 80.02691650390625 80.02691650390625 C 75.80186462402344 84.25196075439453 70.88229370117188 87.56893157958984 65.40481567382812 89.88570404052734 C 59.73468017578125 92.28397369384766 53.71062850952148 93.5 47.5 93.5 Z" stroke="none"/>
                            <path d="M 47.5 3 C 41.49121475219727 3 35.66376876831055 4.176155090332031 30.17950439453125 6.495796203613281 C 24.88084411621094 8.736953735351562 20.12152099609375 11.94598388671875 16.03375244140625 16.03375244140625 C 11.94598388671875 20.12152099609375 8.736953735351562 24.88084411621094 6.495796203613281 30.17950439453125 C 4.176155090332031 35.66376876831055 3 41.49121475219727 3 47.5 C 3 53.50878524780273 4.176155090332031 59.33623123168945 6.495796203613281 64.82049560546875 C 8.736953735351562 70.11915588378906 11.94598388671875 74.87847900390625 16.03375244140625 78.96624755859375 C 20.12152099609375 83.05401611328125 24.88084411621094 86.26304626464844 30.17950439453125 88.50419616699219 C 35.66376876831055 90.82384490966797 41.49121475219727 92 47.5 92 C 53.50878524780273 92 59.33623123168945 90.82384490966797 64.82049560546875 88.50419616699219 C 70.11915588378906 86.26304626464844 74.87847900390625 83.05401611328125 78.96624755859375 78.96624755859375 C 83.05401611328125 74.87847900390625 86.26304626464844 70.11915588378906 88.50419616699219 64.82049560546875 C 90.82384490966797 59.33623123168945 92 53.50878524780273 92 47.5 C 92 41.49121475219727 90.82384490966797 35.66376876831055 88.50419616699219 30.17950439453125 C 86.26304626464844 24.88084411621094 83.05401611328125 20.12152099609375 78.96624755859375 16.03375244140625 C 74.87847900390625 11.94598388671875 70.11915588378906 8.736953735351562 64.82049560546875 6.495796203613281 C 59.33623123168945 4.176155090332031 53.50878524780273 3 47.5 3 M 47.5 0 C 73.7335205078125 0 95 21.2664794921875 95 47.5 C 95 73.7335205078125 73.7335205078125 95 47.5 95 C 21.2664794921875 95 0 73.7335205078125 0 47.5 C 0 21.2664794921875 21.2664794921875 0 47.5 0 Z" stroke="none" fill="#ff9d1c"/>
                          </g>
                        </g>
                      </g>
                    </g>
                  </g>
                </g>
              </g>
            </g>
          </g>
        </g>
      </g>
    </g>
    <g id="organization" transform="translate(154.918 1629)">
      <g id="Grupo_1173350" data-name="Grupo 1173350" transform="translate(45.092 1.014)">
        <g id="Grupo_1173334" data-name="Grupo 1173334" transform="translate(17.057)">
          <path id="Trazado_1029728" data-name="Trazado 1029728" d="M199.171,159.5H178.218V148.89a7.276,7.276,0,0,1,7.276-7.276h6.4a7.276,7.276,0,0,1,7.276,7.276V159.5Z" transform="translate(-178.218 -123.554)" fill="#0d5f7f"/>
          <path id="Trazado_1029729" data-name="Trazado 1029729" d="M262.71,148.891V159.5h-3.787v-10.61a7.277,7.277,0,0,0-7.276-7.276h3.787A7.277,7.277,0,0,1,262.71,148.891Z" transform="translate(-241.757 -123.555)" fill="#094c66"/>
          <path id="Trazado_1029730" data-name="Trazado 1029730" d="M225.693,142.019l-5.587,10.641-5.587-10.641a7.287,7.287,0,0,1,2.387-.4h6.4A7.291,7.291,0,0,1,225.693,142.019Z" transform="translate(-209.63 -123.558)" fill="#fff"/>
          <path id="Trazado_1029731" data-name="Trazado 1029731" d="M240.533,147.23l-2.851,5.432-2.851-5.432,2.054-5.61h1.6Z" transform="translate(-227.205 -123.559)" fill="#fb4a59"/>
          <g id="Grupo_1173333" data-name="Grupo 1173333" transform="translate(0.857)">
            <g id="Grupo_1173330" data-name="Grupo 1173330" transform="translate(0 8.836)">
              <circle id="Elipse_12097" data-name="Elipse 12097" cx="2.247" cy="2.247" r="2.247" fill="#fdb0a0"/>
            </g>
            <g id="Grupo_1173331" data-name="Grupo 1173331" transform="translate(14.746 8.836)">
              <circle id="Elipse_12098" data-name="Elipse 12098" cx="2.247" cy="2.247" r="2.247" fill="#f69583"/>
            </g>
            <g id="Grupo_1173332" data-name="Grupo 1173332" transform="translate(3.688 4.698)">
              <path id="Trazado_1029732" data-name="Trazado 1029732" d="M217.893,56.411a5.932,5.932,0,0,1-5.932-5.932V48.338a5.932,5.932,0,0,1,11.863,0v2.141A5.932,5.932,0,0,1,217.893,56.411Z" transform="translate(-211.961 -42.406)" fill="#ffcec0"/>
              <path id="Trazado_1029733" data-name="Trazado 1029733" d="M253.382,48.336v2.141a5.938,5.938,0,0,1-7.262,5.783,5.936,5.936,0,0,0,4.6-5.783V48.336a5.936,5.936,0,0,0-4.6-5.782,5.934,5.934,0,0,1,7.262,5.782Z" transform="translate(-241.519 -42.405)" fill="#fdb0a0"/>
            </g>
            <path id="Trazado_1029734" data-name="Trazado 1029734" d="M262.916,24.024a16.633,16.633,0,0,1-5.588-.308,3.327,3.327,0,0,1-2.434-3.218V18.235a2.078,2.078,0,0,1,2.078-2.078h1.564a5.142,5.142,0,0,1,5.142,5.142v1.885a.845.845,0,0,1-.762.841Z" transform="translate(-245.423 -14.995)" fill="#7a7179"/>
            <path id="Trazado_1029735" data-name="Trazado 1029735" d="M272.7,21.3V23.18a.844.844,0,0,1-.763.84,19.438,19.438,0,0,1-3.643.03c.12-.011.231-.02.335-.03a.844.844,0,0,0,.761-.84V21.3a5.141,5.141,0,0,0-4.069-5.03,2.048,2.048,0,0,1,.673-.113h1.563A5.142,5.142,0,0,1,272.7,21.3Z" transform="translate(-254.449 -14.991)" fill="#685e67"/>
            <path id="Trazado_1029736" data-name="Trazado 1029736" d="M192.647,16.79a19.8,19.8,0,0,0,6.73-.348,3.922,3.922,0,0,0,2.869-3.793V9.981a2.45,2.45,0,0,0-2.45-2.45h-1.843a6.061,6.061,0,0,0-6.061,6.061V15.95A.845.845,0,0,0,192.647,16.79Z" transform="translate(-190.908 -7.531)" fill="#9b8f99"/>
            <path id="Trazado_1029737" data-name="Trazado 1029737" d="M212.466,9.979v2.669a3.922,3.922,0,0,1-2.868,3.794,18.683,18.683,0,0,1-5.895.422,14.063,14.063,0,0,0,2.559-.422,3.922,3.922,0,0,0,2.87-3.794V9.979A2.451,2.451,0,0,0,207.258,7.6a6.05,6.05,0,0,1,.915-.069h1.844A2.45,2.45,0,0,1,212.466,9.979Z" transform="translate(-201.128 -7.529)" fill="#8b8088"/>
          </g>
        </g>
        <g id="Grupo_1173349" data-name="Grupo 1173349" transform="translate(0 27.176)">
          <g id="Grupo_1173345" data-name="Grupo 1173345" transform="translate(4.038)">
            <g id="Grupo_1173336" data-name="Grupo 1173336">
              <path id="Trazado_1029738" data-name="Trazado 1029738" d="M90.957,256.658h-9.4v-3.776a3.263,3.263,0,0,1,3.263-3.263h2.871a3.263,3.263,0,0,1,3.263,3.263v3.776Z" transform="translate(-81.559 -244.188)" fill="#fcc16d"/>
              <path id="Trazado_1029739" data-name="Trazado 1029739" d="M114.585,252.883v3.776h-2.457v-3.776a3.264,3.264,0,0,0-3.263-3.263h2.457A3.264,3.264,0,0,1,114.585,252.883Z" transform="translate(-105.187 -244.188)" fill="#fca62f"/>
              <g id="Grupo_1173335" data-name="Grupo 1173335" transform="translate(2.039)">
                <path id="Trazado_1029740" data-name="Trazado 1029740" d="M99.355,215.578a2.661,2.661,0,0,1-2.661-2.661v-.96a2.661,2.661,0,1,1,5.321,0v.96A2.661,2.661,0,0,1,99.355,215.578Z" transform="translate(-96.694 -209.296)" fill="#ffcec0"/>
                <path id="Trazado_1029741" data-name="Trazado 1029741" d="M111.855,211.955v.96a2.662,2.662,0,0,1-3.79,2.41,2.659,2.659,0,0,0,1.532-2.41v-.96a2.659,2.659,0,0,0-1.532-2.409,2.661,2.661,0,0,1,3.79,2.409Z" transform="translate(-106.533 -209.294)" fill="#fdb0a0"/>
              </g>
            </g>
            <g id="Grupo_1173338" data-name="Grupo 1173338" transform="translate(9.398)">
              <path id="Trazado_1029742" data-name="Trazado 1029742" d="M160.733,256.658h-9.4v-3.776a3.263,3.263,0,0,1,3.263-3.263h2.871a3.263,3.263,0,0,1,3.263,3.263v3.776Z" transform="translate(-151.335 -244.188)" fill="#27d1b3"/>
              <path id="Trazado_1029743" data-name="Trazado 1029743" d="M184.361,252.883v3.776H181.9v-3.776a3.264,3.264,0,0,0-3.263-3.263H181.1A3.264,3.264,0,0,1,184.361,252.883Z" transform="translate(-174.963 -244.188)" fill="#20b69f"/>
              <g id="Grupo_1173337" data-name="Grupo 1173337" transform="translate(2.039)">
                <path id="Trazado_1029744" data-name="Trazado 1029744" d="M169.131,215.578a2.661,2.661,0,0,1-2.661-2.661v-.96a2.661,2.661,0,1,1,5.321,0v.96A2.661,2.661,0,0,1,169.131,215.578Z" transform="translate(-166.47 -209.296)" fill="#ffcec0"/>
                <path id="Trazado_1029745" data-name="Trazado 1029745" d="M181.631,211.955v.96a2.662,2.662,0,0,1-3.79,2.41,2.659,2.659,0,0,0,1.532-2.41v-.96a2.659,2.659,0,0,0-1.532-2.409,2.661,2.661,0,0,1,3.79,2.409Z" transform="translate(-176.309 -209.294)" fill="#fdb0a0"/>
              </g>
            </g>
            <g id="Grupo_1173340" data-name="Grupo 1173340" transform="translate(18.797)">
              <path id="Trazado_1029746" data-name="Trazado 1029746" d="M230.509,256.658h-9.4v-3.776a3.263,3.263,0,0,1,3.263-3.263h2.871a3.263,3.263,0,0,1,3.263,3.263v3.776Z" transform="translate(-221.111 -244.188)" fill="#fb4a59"/>
              <path id="Trazado_1029747" data-name="Trazado 1029747" d="M254.138,252.883v3.776h-2.457v-3.776a3.264,3.264,0,0,0-3.263-3.263h2.457A3.264,3.264,0,0,1,254.138,252.883Z" transform="translate(-244.74 -244.188)" fill="#f82f40"/>
              <g id="Grupo_1173339" data-name="Grupo 1173339" transform="translate(2.039)">
                <path id="Trazado_1029748" data-name="Trazado 1029748" d="M238.907,215.578a2.661,2.661,0,0,1-2.661-2.661v-.96a2.661,2.661,0,0,1,5.321,0v.96A2.66,2.66,0,0,1,238.907,215.578Z" transform="translate(-236.246 -209.296)" fill="#ffcec0"/>
                <path id="Trazado_1029749" data-name="Trazado 1029749" d="M251.407,211.955v.96a2.662,2.662,0,0,1-3.79,2.41,2.659,2.659,0,0,0,1.532-2.41v-.96a2.659,2.659,0,0,0-1.532-2.409,2.661,2.661,0,0,1,3.79,2.409Z" transform="translate(-246.085 -209.294)" fill="#fdb0a0"/>
              </g>
            </g>
            <g id="Grupo_1173342" data-name="Grupo 1173342" transform="translate(28.195)">
              <path id="Trazado_1029750" data-name="Trazado 1029750" d="M300.286,256.658h-9.4v-3.776a3.263,3.263,0,0,1,3.263-3.263h2.871a3.263,3.263,0,0,1,3.263,3.263v3.776Z" transform="translate(-290.888 -244.188)" fill="#8b8088"/>
              <path id="Trazado_1029751" data-name="Trazado 1029751" d="M323.914,252.883v3.776h-2.457v-3.776a3.264,3.264,0,0,0-3.263-3.263h2.457A3.264,3.264,0,0,1,323.914,252.883Z" transform="translate(-314.516 -244.188)" fill="#7a7179"/>
              <g id="Grupo_1173341" data-name="Grupo 1173341" transform="translate(2.039)">
                <path id="Trazado_1029752" data-name="Trazado 1029752" d="M308.684,215.578a2.661,2.661,0,0,1-2.661-2.661v-.96a2.661,2.661,0,1,1,5.321,0v.96A2.661,2.661,0,0,1,308.684,215.578Z" transform="translate(-306.023 -209.296)" fill="#c86f5c"/>
                <path id="Trazado_1029753" data-name="Trazado 1029753" d="M321.183,211.955v.96a2.662,2.662,0,0,1-3.79,2.41,2.659,2.659,0,0,0,1.532-2.41v-.96a2.659,2.659,0,0,0-1.532-2.409,2.662,2.662,0,0,1,3.79,2.409Z" transform="translate(-315.862 -209.294)" fill="#ba5d4f"/>
              </g>
            </g>
            <g id="Grupo_1173344" data-name="Grupo 1173344" transform="translate(37.594)">
              <path id="Trazado_1029754" data-name="Trazado 1029754" d="M370.062,256.658h-9.4v-3.776a3.263,3.263,0,0,1,3.263-3.263H366.8a3.263,3.263,0,0,1,3.263,3.263v3.776Z" transform="translate(-360.664 -244.188)" fill="#68dbf9"/>
              <path id="Trazado_1029755" data-name="Trazado 1029755" d="M393.69,252.883v3.776h-2.457v-3.776a3.264,3.264,0,0,0-3.263-3.263h2.457A3.264,3.264,0,0,1,393.69,252.883Z" transform="translate(-384.292 -244.188)" fill="#24d1f8"/>
              <g id="Grupo_1173343" data-name="Grupo 1173343" transform="translate(2.039)">
                <path id="Trazado_1029756" data-name="Trazado 1029756" d="M378.46,215.578a2.661,2.661,0,0,1-2.661-2.661v-.96a2.661,2.661,0,1,1,5.321,0v.96A2.661,2.661,0,0,1,378.46,215.578Z" transform="translate(-375.799 -209.296)" fill="#ffcec0"/>
                <path id="Trazado_1029757" data-name="Trazado 1029757" d="M390.959,211.955v.96a2.662,2.662,0,0,1-3.79,2.41,2.659,2.659,0,0,0,1.532-2.41v-.96a2.659,2.659,0,0,0-1.532-2.409,2.661,2.661,0,0,1,3.79,2.409Z" transform="translate(-385.638 -209.294)" fill="#fdb0a0"/>
              </g>
            </g>
          </g>
          <g id="Grupo_1173348" data-name="Grupo 1173348" transform="translate(0 12.211)">
            <path id="Trazado_1029758" data-name="Trazado 1029758" d="M105.975,299.951a.675.675,0,0,1,.674.691,27.556,27.556,0,0,1-55.065.76,1.373,1.373,0,0,1,1.367-1.45Z" transform="translate(-51.582 -299.951)" fill="#68dbf9"/>
            <path id="Trazado_1029759" data-name="Trazado 1029759" d="M267.812,300.643a27.555,27.555,0,0,1-27.547,26.864q-1.23,0-2.434-.106a27.557,27.557,0,0,0,25.115-26.758.674.674,0,0,0-.673-.691h4.865A.674.674,0,0,1,267.812,300.643Z" transform="translate(-212.744 -299.952)" fill="#24d1f8"/>
            <g id="Grupo_1173346" data-name="Grupo 1173346" transform="translate(33.131)">
              <path id="Trazado_1029760" data-name="Trazado 1029760" d="M319.491,300.642A27.533,27.533,0,0,1,306.9,323.1h0l-7.026-4.171a1.361,1.361,0,0,1-.668-1.173v-1.685a1.359,1.359,0,0,1,.207-.723l3.607-5.771a1.365,1.365,0,0,0-.236-1.728l-.37-.339a1.367,1.367,0,0,1-.432-.848l-.24-2.071a1.362,1.362,0,0,0-.908-1.133l-1.776-.617a1.36,1.36,0,0,1-.851-.873l-.646-2.017h21.262A.675.675,0,0,1,319.491,300.642Z" transform="translate(-297.555 -299.951)" fill="#a3e440"/>
              <path id="Trazado_1029761" data-name="Trazado 1029761" d="M362.378,300.642a27.533,27.533,0,0,1-12.6,22.459h0l-2.664-1.581a27.506,27.506,0,0,0,10.394-20.878.674.674,0,0,0-.673-.691H361.7A.675.675,0,0,1,362.378,300.642Z" transform="translate(-340.442 -299.951)" fill="#99d53b"/>
            </g>
            <g id="Grupo_1173347" data-name="Grupo 1173347" transform="translate(7.657 4.036)">
              <path id="Trazado_1029762" data-name="Trazado 1029762" d="M115.757,331.09l-1.726,1.743a1.363,1.363,0,0,1-.553.339l-3.969,1.272a1.364,1.364,0,0,0-.941,1.166l-.135,1.378a1.364,1.364,0,0,0,1.578,1.479l4.209-.69a1.364,1.364,0,0,1,1.113.315l2.408,2.084a1.364,1.364,0,0,1,.438.73l.4,1.745a1.364,1.364,0,0,0,.862.979l2.132.779a1.364,1.364,0,0,0,1.806-1.017l1.313-6.643a1.364,1.364,0,0,0-.121-.881l-.9-1.77a1.364,1.364,0,0,1-.147-.595l-.036-2.248a1.364,1.364,0,0,0-1.557-1.328l-5.4.771a1.365,1.365,0,0,0-.777.391Z" transform="translate(-108.426 -329.914)" fill="#27d1b3"/>
              <path id="Trazado_1029763" data-name="Trazado 1029763" d="M196.622,336.754l-1.314,6.642a1.364,1.364,0,0,1-1.806,1.016l-1.736-.634a1.318,1.318,0,0,0,.138-.382l1.312-6.642a1.362,1.362,0,0,0-.121-.883l-.9-1.769a1.388,1.388,0,0,1-.147-.595l-.035-2.248a1.362,1.362,0,0,0-.458-1l2.306-.33a1.363,1.363,0,0,1,1.556,1.328l.037,2.248a1.349,1.349,0,0,0,.147.595l.9,1.769A1.371,1.371,0,0,1,196.622,336.754Z" transform="translate(-180.359 -329.917)" fill="#20b69f"/>
            </g>
          </g>
        </g>
      </g>
      <path id="Trazado_1029764" data-name="Trazado 1029764" d="M100.691,39.9a1.672,1.672,0,0,0-1.206-.508H97.132V36.881A4.278,4.278,0,0,0,94.857,33.1a3.65,3.65,0,0,0,.237-1.3v-.96a3.671,3.671,0,1,0-7.342,0v.96a3.651,3.651,0,0,0,.237,1.3,4.267,4.267,0,0,0-1.265,1.019,4.271,4.271,0,0,0-1.265-1.02,3.652,3.652,0,0,0,.237-1.3v-.96a3.669,3.669,0,0,0-1.582-3.016V26.346a8.264,8.264,0,0,0-.477-2.773,1.01,1.01,0,0,0-1.9.676,6.252,6.252,0,0,1,.361,2.1v.832l-.068,0a3.675,3.675,0,0,0-3.671,3.671v.96a3.651,3.651,0,0,0,.238,1.3,4.3,4.3,0,0,0-1.264,1.026A4.288,4.288,0,0,0,76.06,33.1a3.652,3.652,0,0,0,.237-1.3v-.96a3.665,3.665,0,0,0-1.4-2.882l3.78-7.2c.135.069.268.142.4.221a1.01,1.01,0,1,0,1.049-1.727,8.246,8.246,0,0,0-1.614-.753l-.016-.005q-.305-.1-.618-.183A6.925,6.925,0,0,0,79.4,15.293a3.255,3.255,0,0,0,2.8-5.6,1.87,1.87,0,0,0,.068-.5V7.314a6.159,6.159,0,0,0-6.152-6.152H74.556l-.075,0A3.453,3.453,0,0,0,71.9,0H70.052a7.079,7.079,0,0,0-7.071,7.071V9.429a1.881,1.881,0,0,0,.027.307,3.252,3.252,0,0,0,2.844,5.556,6.923,6.923,0,0,0,1.526,3.024c-.2.052-.4.112-.6.179a1.006,1.006,0,0,0-.132.045,8.3,8.3,0,0,0-5.51,7.806v1.485a3.669,3.669,0,0,0-1.582,3.016v.96a3.654,3.654,0,0,0,.238,1.3,4.3,4.3,0,0,0-1.264,1.025A4.291,4.291,0,0,0,57.263,33.1a3.652,3.652,0,0,0,.237-1.3v-.96a3.671,3.671,0,1,0-7.342,0v.96a3.653,3.653,0,0,0,.238,1.3,4.3,4.3,0,0,0-2.276,3.776v2.506H46.462a2.354,2.354,0,0,0-1.722.74,2.4,2.4,0,0,0-.654,1.773A28.569,28.569,0,0,0,98.3,52.9a1.01,1.01,0,0,0-1.816-.885,26.585,26.585,0,0,1-3.725,5.663,36.393,36.393,0,0,0-4.43-2.264,40.521,40.521,0,0,0,2.717-14h8.089a26.556,26.556,0,0,1-.975,6.208,1.01,1.01,0,1,0,1.945.548,28.6,28.6,0,0,0,1.061-7.051,1.673,1.673,0,0,0-.479-1.217ZM89.773,30.847a1.65,1.65,0,0,1,3.3,0v.96a1.65,1.65,0,0,1-3.3,0Zm-.534,3.909a3.663,3.663,0,0,0,4.368,0,2.254,2.254,0,0,1,1.5,2.125v2.506H87.734V36.881a2.254,2.254,0,0,1,1.5-2.125Zm-8.865-3.909a1.65,1.65,0,0,1,3.3,0v.96a1.65,1.65,0,0,1-3.3,0Zm-.532,3.91a3.663,3.663,0,0,0,4.368,0,2.255,2.255,0,0,1,1.5,2.126v2.506H78.335V36.881A2.267,2.267,0,0,1,79.842,34.757Zm-1.934,7.965a2.38,2.38,0,0,0,1.482,1.52l1.776.617a.351.351,0,0,1,.236.295l.24,2.072a2.381,2.381,0,0,0,.753,1.477l.37.339a.354.354,0,0,1,.061.448L80.61,53.035a41.231,41.231,0,0,0-6.988-.758V41.407h3.864Zm5.724,17.317-2.581-1.532a.353.353,0,0,1-.172-.3V56.518a.352.352,0,0,1,.054-.188l.639-1.022a36.55,36.55,0,0,1,4.073,1.211,27.236,27.236,0,0,1-1.554,2.823C83.94,59.58,83.787,59.811,83.632,60.038Zm-3.61.206,2.391,1.42c-2.56,3.1-5.6,4.91-8.79,5.226V54.3a39.356,39.356,0,0,1,5.837.578l-.239.383a2.368,2.368,0,0,0-.362,1.26V58.2a2.381,2.381,0,0,0,1.163,2.042ZM57.065,48.989l1.045-.335a2.383,2.383,0,0,0,.963-.591L60.8,46.32a.355.355,0,0,1,.2-.1l5.4-.771a.354.354,0,0,1,.4.345l.036,2.248a2.387,2.387,0,0,0,.256,1.035l.9,1.77a.355.355,0,0,1,.032.229l-.291,1.473A40.056,40.056,0,0,0,62.3,53.562l-1.981-1.714A2.371,2.371,0,0,0,58.38,51.3l-.713.117Q57.328,50.227,57.065,48.989Zm-1.4,2.757-1.492.245a.354.354,0,0,1-.409-.383l.135-1.378a.353.353,0,0,1,.244-.3l.993-.318Q55.37,50.693,55.662,51.745Zm11.654,2.889-.609,3.082a.354.354,0,0,1-.468.264L64.106,57.2a.352.352,0,0,1-.224-.254l-.364-1.607a38.084,38.084,0,0,1,3.8-.705Zm-8.61-1.341a.354.354,0,0,1,.289.082l1,.864q-.617.2-1.225.425-.255-.64-.486-1.3Zm2.859,2.57.347,1.529a2.365,2.365,0,0,0,1.5,1.7l2.132.779a2.374,2.374,0,0,0,3.144-1.769l.731-3.7Q70.5,54.325,71.6,54.3V66.891c-3.925-.388-7.61-3.033-10.468-7.549a27.2,27.2,0,0,1-1.554-2.822Q60.56,56.164,61.566,55.864ZM76.315,39.387H68.937V36.881a2.255,2.255,0,0,1,1.5-2.126,3.662,3.662,0,0,0,4.367,0,2.26,2.26,0,0,1,1.506,2.125Zm-6.89-19.306h.29q.283.132.58.238l-.686,1.875-1.076-2.049A6.26,6.26,0,0,1,69.426,20.081ZM67.7,11.639c0-.076.005-.152.009-.228a16.7,16.7,0,0,0,4.028-.515,4.843,4.843,0,0,0,1.618-.787,4.284,4.284,0,0,0,1.287.6,13.591,13.591,0,0,0,2.875.423,4.984,4.984,0,0,1,.026.51v2.141a4.921,4.921,0,1,1-9.843,0Zm6.572,19.208v.96a1.65,1.65,0,0,1-3.3,0v-.96a1.65,1.65,0,0,1,3.3,0Zm-1.65-3.671a3.688,3.688,0,0,0-.39.021l-1.359-2.589L72.3,20.714c.107,0,.215.008.324.008s.216,0,.323-.008l1.426,3.894L73.016,27.2a3.691,3.691,0,0,0-.39-.021Zm3.017-4.983-.686-1.875q.3-.106.58-.238h.29a6.3,6.3,0,0,1,.892.065ZM80,13.329a1.235,1.235,0,0,1-.431-.08v-1.61c0-.172-.009-.344-.021-.516.4-.02.758-.049,1.052-.078l.046-.007A1.237,1.237,0,0,1,80,13.329ZM76.119,3.182a4.136,4.136,0,0,1,4.131,4.131V9.048a15.36,15.36,0,0,1-5.074-.291,2.246,2.246,0,0,1-.464-.185,4.962,4.962,0,0,0,.643-2.443V3.46c0-.094,0-.186-.012-.278ZM65,7.071A5.056,5.056,0,0,1,70.052,2.02H71.9a1.441,1.441,0,0,1,1.44,1.44V6.129a2.912,2.912,0,0,1-2.124,2.818A18.8,18.8,0,0,1,65,9.28Zm-.985,5.022a1.24,1.24,0,0,1,.357-.868,1.885,1.885,0,0,0,.265.05c.3.032.656.063,1.05.088q-.005.138-.006.277v1.609a1.23,1.23,0,0,1-1.668-1.156ZM63.16,26.346a6.271,6.271,0,0,1,3.419-5.579l3.779,7.2a3.665,3.665,0,0,0-1.4,2.882v.96a3.652,3.652,0,0,0,.237,1.3,4.27,4.27,0,0,0-1.268,1.022A4.291,4.291,0,0,0,66.661,33.1a3.652,3.652,0,0,0,.237-1.3v-.96a3.675,3.675,0,0,0-3.671-3.671l-.068,0Zm-1.582,5.461v-.96a1.65,1.65,0,0,1,3.3,0v.96a1.65,1.65,0,0,1-3.3,0Zm-.532,2.949a3.663,3.663,0,0,0,4.366,0,2.26,2.26,0,0,1,1.506,2.125v2.506h-1.34a1.01,1.01,0,1,0,0,2.02H71.6v10.87q-.892.021-1.776.078l.176-.89a2.385,2.385,0,0,0-.211-1.534l-.9-1.77a.355.355,0,0,1-.038-.154l-.036-2.248a2.374,2.374,0,0,0-2.709-2.312l-5.4.771a2.388,2.388,0,0,0-1.352.68h0l-1.726,1.743a.357.357,0,0,1-.143.088l-.8.256a41.894,41.894,0,0,1-.5-5.578h4.493a1.01,1.01,0,1,0,0-2.02h-1.15V36.881a2.267,2.267,0,0,1,1.506-2.124Zm-8.866-3.91a1.65,1.65,0,0,1,3.3,0v.96a1.65,1.65,0,0,1-3.3,0ZM50.14,36.881a2.267,2.267,0,0,1,1.506-2.125,3.663,3.663,0,0,0,4.366,0,2.26,2.26,0,0,1,1.506,2.125v2.506H50.14ZM46.2,41.518a.347.347,0,0,1,.257-.11h7.713a43.777,43.777,0,0,0,.575,6.2L53.523,48a2.373,2.373,0,0,0-1.638,2.029l-.135,1.378A2.374,2.374,0,0,0,54.5,53.984l1.764-.289q.3.873.631,1.714a36.38,36.38,0,0,0-4.44,2.271A26.411,26.411,0,0,1,46.1,41.8.371.371,0,0,1,46.2,41.518ZM53.858,59.2A34.43,34.43,0,0,1,57.7,57.263a29.269,29.269,0,0,0,1.731,3.16,22.142,22.142,0,0,0,4.19,4.958A26.56,26.56,0,0,1,53.858,59.2ZM84.17,62.707l1.427.847a26.376,26.376,0,0,1-3.982,1.82A20.31,20.31,0,0,0,84.17,62.707Zm7.187-3.518a26.675,26.675,0,0,1-3.826,3.164l-2.159-1.282c.144-.213.286-.428.426-.649a29.261,29.261,0,0,0,1.731-3.161A34.4,34.4,0,0,1,91.357,59.189Zm-4.9-4.525A38.409,38.409,0,0,0,82.7,53.5l1.841-2.945a2.374,2.374,0,0,0-.41-3.008l-.368-.338a.358.358,0,0,1-.113-.222l-.239-2.07a2.386,2.386,0,0,0-1.58-1.973l-1.778-.617a.352.352,0,0,1-.219-.226l-.224-.7h9.421A38.444,38.444,0,0,1,86.456,54.664Z"/>
    </g>
  </g>
</svg>
