<svg xmlns="http://www.w3.org/2000/svg" xmlns:xlink="http://www.w3.org/1999/xlink" width="113" height="113" viewBox="0 0 113 113">
  <defs>
    <filter id="Trazado_982547" x="0" y="0" width="113" height="113" filterUnits="userSpaceOnUse">
      <feOffset dy="3" input="SourceAlpha"/>
      <feGaussianBlur stdDeviation="3" result="blur"/>
      <feFlood flood-opacity="0.161"/>
      <feComposite operator="in" in2="blur"/>
      <feComposite in="SourceGraphic"/>
    </filter>
  </defs>
  <g id="Grupo_1174627" data-name="Grupo 1174627" transform="translate(-615.461 -2704)">
    <g id="Grupo_1173051" data-name="Grupo 1173051" transform="translate(444 -277)">
      <g id="Grupo_1166845" data-name="Grupo 1166845" transform="translate(180.461 2987)">
        <g id="Grupo_1166720" data-name="Grupo 1166720">
          <g id="Grupo_1164305" data-name="Grupo 1164305" transform="translate(0)">
            <g id="Grupo_1163948" data-name="Grupo 1163948">
              <g id="Grupo_1158168" data-name="Grupo 1158168">
                <g id="Grupo_1152576" data-name="Grupo 1152576">
                  <g id="Grupo_1148633" data-name="Grupo 1148633">
                    <g id="Grupo_1148525" data-name="Grupo 1148525">
                      <g transform="matrix(1, 0, 0, 1, -9, -6)" filter="url(#Trazado_982547)">
                        <g id="Trazado_982547-2" data-name="Trazado 982547" transform="translate(9 6)" fill="#fff4e6">
                          <path d="M 47.5 93.5 C 41.28937149047852 93.5 35.26533508300781 92.28397369384766 29.59518623352051 89.88570404052734 C 24.11771965026855 87.56893157958984 19.19813346862793 84.25196075439453 14.97309303283691 80.02691650390625 C 10.74804019927979 75.80186462402344 7.431066513061523 70.88229370117188 5.114293098449707 65.40481567382812 C 2.716026782989502 59.73468017578125 1.5 53.71062850952148 1.5 47.5 C 1.5 41.28937149047852 2.716026782989502 35.26533508300781 5.114293098449707 29.59518623352051 C 7.431066513061523 24.11771965026855 10.74804019927979 19.19813346862793 14.97309303283691 14.97309303283691 C 19.19813346862793 10.74804019927979 24.11771965026855 7.431066513061523 29.59518623352051 5.114293098449707 C 35.26533508300781 2.716026782989502 41.28937149047852 1.5 47.5 1.5 C 53.71062850952148 1.5 59.73468017578125 2.716026782989502 65.40481567382812 5.114293098449707 C 70.88229370117188 7.431066513061523 75.80186462402344 10.74804019927979 80.02691650390625 14.97309303283691 C 84.25196075439453 19.19813346862793 87.56893157958984 24.11771965026855 89.88570404052734 29.59518623352051 C 92.28397369384766 35.26533508300781 93.5 41.28937149047852 93.5 47.5 C 93.5 53.71062850952148 92.28397369384766 59.73468017578125 89.88570404052734 65.40481567382812 C 87.56893157958984 70.88229370117188 84.25196075439453 75.80186462402344 80.02691650390625 80.02691650390625 C 75.80186462402344 84.25196075439453 70.88229370117188 87.56893157958984 65.40481567382812 89.88570404052734 C 59.73468017578125 92.28397369384766 53.71062850952148 93.5 47.5 93.5 Z" stroke="none"/>
                          <path d="M 47.5 3 C 41.49121475219727 3 35.66376876831055 4.176155090332031 30.17950439453125 6.495796203613281 C 24.88084411621094 8.736953735351562 20.12152099609375 11.94598388671875 16.03375244140625 16.03375244140625 C 11.94598388671875 20.12152099609375 8.736953735351562 24.88084411621094 6.495796203613281 30.17950439453125 C 4.176155090332031 35.66376876831055 3 41.49121475219727 3 47.5 C 3 53.50878524780273 4.176155090332031 59.33623123168945 6.495796203613281 64.82049560546875 C 8.736953735351562 70.11915588378906 11.94598388671875 74.87847900390625 16.03375244140625 78.96624755859375 C 20.12152099609375 83.05401611328125 24.88084411621094 86.26304626464844 30.17950439453125 88.50419616699219 C 35.66376876831055 90.82384490966797 41.49121475219727 92 47.5 92 C 53.50878524780273 92 59.33623123168945 90.82384490966797 64.82049560546875 88.50419616699219 C 70.11915588378906 86.26304626464844 74.87847900390625 83.05401611328125 78.96624755859375 78.96624755859375 C 83.05401611328125 74.87847900390625 86.26304626464844 70.11915588378906 88.50419616699219 64.82049560546875 C 90.82384490966797 59.33623123168945 92 53.50878524780273 92 47.5 C 92 41.49121475219727 90.82384490966797 35.66376876831055 88.50419616699219 30.17950439453125 C 86.26304626464844 24.88084411621094 83.05401611328125 20.12152099609375 78.96624755859375 16.03375244140625 C 74.87847900390625 11.94598388671875 70.11915588378906 8.736953735351562 64.82049560546875 6.495796203613281 C 59.33623123168945 4.176155090332031 53.50878524780273 3 47.5 3 M 47.5 0 C 73.7335205078125 0 95 21.2664794921875 95 47.5 C 95 73.7335205078125 73.7335205078125 95 47.5 95 C 21.2664794921875 95 0 73.7335205078125 0 47.5 C 0 21.2664794921875 21.2664794921875 0 47.5 0 Z" stroke="none" fill="#ff9d1c"/>
                        </g>
                      </g>
                    </g>
                  </g>
                </g>
              </g>
            </g>
          </g>
        </g>
      </g>
    </g>
    <g id="process" transform="translate(626.971 2707.53)">
      <path id="Trazado_1030411" data-name="Trazado 1030411" d="M41.4,109.26H27.478l-7.988,7.988v24.3a1.242,1.242,0,0,0,1.239,1.239h23.86a1.242,1.242,0,0,0,1.239-1.239v-20.99a.684.684,0,0,0-.121.09l-1.357,1.236a.691.691,0,0,1-.955-.023l-2.145-2.145a.693.693,0,0,1-.023-.955l1.236-1.357a.683.683,0,0,0,.094-.8,10.075,10.075,0,0,1-.883-2.13.683.683,0,0,0-.634-.5l-1.832-.085a.693.693,0,0,1-.661-.691V110.16a.692.692,0,0,1,.661-.691l1.832-.085a.738.738,0,0,0,.363-.124Z" transform="translate(-5.241 -77.553)" fill="#f1f2f2" fill-rule="evenodd"/>
      <path id="Trazado_1030412" data-name="Trazado 1030412" d="M27.478,109.26v6.919a1.07,1.07,0,0,1-1.068,1.068H19.49Z" transform="translate(-5.241 -77.553)" fill="#d0d7df" fill-rule="evenodd"/>
      <circle id="Elipse_12113" data-name="Elipse 12113" cx="5.763" cy="5.763" r="5.763" transform="translate(34.224 60.133) rotate(-6.258)" fill="#05e39c"/>
      <path id="Trazado_1030413" data-name="Trazado 1030413" d="M323.44,423.65h22.28v7.8H323.44Z" transform="translate(-270.725 -352.156)" fill="#ff5a5a" fill-rule="evenodd"/>
      <path id="Trazado_1030414" data-name="Trazado 1030414" d="M323.44,333.27h22.28v7.8H323.44Z" transform="translate(-270.725 -273.214)" fill="#ffe177" fill-rule="evenodd"/>
      <path id="Trazado_1030415" data-name="Trazado 1030415" d="M323.44,242.89h22.28v7.8H323.44Z" transform="translate(-270.725 -194.272)" fill="#2fb1d4" fill-rule="evenodd"/>
      <path id="Trazado_1030416" data-name="Trazado 1030416" d="M185.762,29.617a10.076,10.076,0,0,1,2.13.883.682.682,0,0,0,.8-.094l1.357-1.236a.691.691,0,0,1,.955.023l2.145,2.145a.691.691,0,0,1,.023.955l-1.236,1.357a.683.683,0,0,0-.094.8,10.076,10.076,0,0,1,.883,2.13.683.683,0,0,0,.634.5l1.832.085a.693.693,0,0,1,.661.691v3.035a.692.692,0,0,1-.661.691l-1.832.085a.683.683,0,0,0-.634.5,10.076,10.076,0,0,1-.883,2.13.682.682,0,0,0,.094.8l1.236,1.357a.691.691,0,0,1-.023.955l-2.145,2.145a.691.691,0,0,1-.955.023l-1.357-1.236a.683.683,0,0,0-.8-.094,10.076,10.076,0,0,1-2.13.883.683.683,0,0,0-.5.634l-.085,1.832a.693.693,0,0,1-.691.661h-3.035a.692.692,0,0,1-.691-.661l-.085-1.832a.683.683,0,0,0-.5-.634,10.076,10.076,0,0,1-2.13-.883.682.682,0,0,0-.8.094l-1.357,1.236a.691.691,0,0,1-.955-.023l-2.146-2.145a.693.693,0,0,1-.023-.955L174,45.1a.683.683,0,0,0,.094-.8,10.076,10.076,0,0,1-.883-2.13.683.683,0,0,0-.634-.5l-1.832-.085a.693.693,0,0,1-.661-.691V37.86a.692.692,0,0,1,.661-.691l1.832-.085a.683.683,0,0,0,.634-.5,10.076,10.076,0,0,1,.883-2.13.682.682,0,0,0-.094-.8l-1.236-1.357a.691.691,0,0,1,.023-.955l2.146-2.145a.693.693,0,0,1,.955-.023l1.357,1.236a.683.683,0,0,0,.8.094,10.076,10.076,0,0,1,2.13-.883.683.683,0,0,0,.5-.634l.085-1.832a.693.693,0,0,1,.691-.661h3.035a.692.692,0,0,1,.691.661l.085,1.832a.683.683,0,0,0,.5.634Z" transform="translate(-136.773 -5.258)" fill="#fedf30" fill-rule="evenodd"/>
      <circle id="Elipse_12114" data-name="Elipse 12114" cx="5.313" cy="5.313" r="5.313" transform="translate(38.894 35.84) rotate(-58.28)" fill="#f1f2f2"/>
      <path id="Trazado_1030417" data-name="Trazado 1030417" d="M89.93,283.26h3.765v5.911H89.93Z" transform="translate(-66.766 -229.533)" fill="#ffe177" fill-rule="evenodd"/>
      <path id="Trazado_1030418" data-name="Trazado 1030418" d="M119.68,267.02h3.765v7.965H119.68Z" transform="translate(-92.751 -215.348)" fill="#05e39c" fill-rule="evenodd"/>
      <path id="Trazado_1030419" data-name="Trazado 1030419" d="M149.44,247.34H153.2V257.8H149.44Z" transform="translate(-118.745 -198.159)" fill="#2fb1d4" fill-rule="evenodd"/>
      <path id="Trazado_1030420" data-name="Trazado 1030420" d="M60.18,297.83h3.765V301.9H60.18Z" transform="translate(-40.781 -242.259)" fill="#ff5a5a" fill-rule="evenodd"/>
      <path id="Trazado_1030421" data-name="Trazado 1030421" d="M38.849,64.432a.759.759,0,1,0-1.157.983L39.547,67.6a.76.76,0,0,0,.551.267h.028a.757.757,0,0,0,.54-.227L43.9,64.365A.759.759,0,1,0,42.817,63.3l-2.65,2.685Zm11.173,10.2a.759.759,0,1,1,0,1.519H28.681a2.025,2.025,0,0,1-2.022-2.022v-6.2a.759.759,0,1,1,1.519,0v6.2a.51.51,0,0,0,.5.5ZM61.776,34.879h.816a.51.51,0,0,1,.5.5V45.924a.759.759,0,1,0,1.519,0V35.383a2.024,2.024,0,0,0-2.021-2.022h-.816a.759.759,0,1,0,0,1.519Zm-34.088,24h2.246V52.431H27.688Zm-3.765,0h2.246V54.485H23.923Zm-3.765,0H22.4V56.33H20.158Zm11.295,0H33.7V49.94H31.453ZM30.694,60.4H19.4a.759.759,0,0,1-.759-.759V55.571a.759.759,0,0,1,.759-.759H22.4V53.726a.76.76,0,0,1,.759-.759h3.006v-1.3a.76.76,0,0,1,.759-.759h3.006V49.18a.76.76,0,0,1,.759-.759h3.765a.759.759,0,0,1,.759.759V59.636a.759.759,0,0,1-.759.759H30.694ZM50.747,34.121a4.553,4.553,0,1,0-4.553,4.553A4.558,4.558,0,0,0,50.747,34.121Zm1.519,0a6.072,6.072,0,1,1-6.072-6.072A6.079,6.079,0,0,1,52.266,34.121Zm.167,8.411a1.448,1.448,0,0,0-1.683-.2,9.362,9.362,0,0,1-1.969.818,1.45,1.45,0,0,0-1.052,1.328l-.081,1.769H44.741l-.082-1.769a1.45,1.45,0,0,0-1.052-1.328,9.425,9.425,0,0,1-1.969-.816,1.448,1.448,0,0,0-1.683.2l-1.31,1.193L36.59,41.671l1.193-1.31a1.452,1.452,0,0,0,.2-1.683,9.334,9.334,0,0,1-.818-1.97,1.449,1.449,0,0,0-1.329-1.05l-1.768-.082V32.668l1.769-.082a1.45,1.45,0,0,0,1.328-1.052,9.362,9.362,0,0,1,.818-1.969,1.452,1.452,0,0,0-.2-1.683l-1.193-1.31,2.055-2.055,1.31,1.195a1.452,1.452,0,0,0,1.683.2,9.363,9.363,0,0,1,1.969-.818,1.45,1.45,0,0,0,1.052-1.329l.082-1.769h2.907l.081,1.769a1.453,1.453,0,0,0,1.052,1.329,9.4,9.4,0,0,1,1.97.816,1.448,1.448,0,0,0,1.683-.2l1.31-1.193L55.8,26.572,54.6,27.882a1.45,1.45,0,0,0-.195,1.683,9.275,9.275,0,0,1,.816,1.97,1.452,1.452,0,0,0,1.329,1.05l1.769.082v2.907l-1.769.082a1.452,1.452,0,0,0-1.329,1.05,9.275,9.275,0,0,1-.816,1.97,1.448,1.448,0,0,0,.2,1.683l1.193,1.31-2.055,2.055Zm-11.845,17.7a5,5,0,1,1-5,5A5.008,5.008,0,0,1,40.588,60.228Zm-25.1,4.245a.48.48,0,0,1-.48-.48V40.453h6.159A1.83,1.83,0,0,0,23,38.625V32.466h9.556a1.244,1.244,0,0,0-.006.138v3.035a1.45,1.45,0,0,0,1.383,1.45l1.786.084a10.914,10.914,0,0,0,.912,2.2l-1.2,1.322a1.449,1.449,0,0,0,.047,2l2.145,2.146a1.45,1.45,0,0,0,2,.046l.208-.189V58.757a6.533,6.533,0,0,0-5.718,5.718H15.488Zm.595-25.538h5.085a.31.31,0,0,0,.31-.309V33.539Zm36.685,5.957-1.322-1.2a10.9,10.9,0,0,1-2.2.914l-.082,1.784a1.45,1.45,0,0,1-1.45,1.384H44.676a1.451,1.451,0,0,1-1.45-1.384L43.144,44.6a10.818,10.818,0,0,1-1.8-.7V58.755a6.522,6.522,0,1,1-7.236,7.236H15.488a2,2,0,0,1-2-2v-24.3a.761.761,0,0,1,.223-.538L21.7,31.169a.761.761,0,0,1,.538-.223H35.753a10.818,10.818,0,0,1,.874-2.079l-1.2-1.321a1.45,1.45,0,0,1,.046-2l2.146-2.146a1.451,1.451,0,0,1,2-.047l1.321,1.2a10.835,10.835,0,0,1,2.2-.912l.082-1.786a1.451,1.451,0,0,1,1.45-1.384h3.035a1.45,1.45,0,0,1,1.45,1.384l.082,1.784a10.864,10.864,0,0,1,2.2.912l1.322-1.2a1.448,1.448,0,0,1,2,.047l2.146,2.146a1.451,1.451,0,0,1,.047,2l-1.2,1.321a10.9,10.9,0,0,1,.912,2.2l1.786.082a1.451,1.451,0,0,1,1.384,1.45v3.035a1.451,1.451,0,0,1-1.384,1.45l-1.784.084a10.942,10.942,0,0,1-.914,2.2l1.2,1.321a1.451,1.451,0,0,1-.047,2l-2.146,2.146a1.448,1.448,0,0,1-2,.048Zm6.448,6.867H57.222a.759.759,0,0,0,0,1.519h1.994a.759.759,0,0,0,0-1.519Zm11.27,0H61.9a.759.759,0,1,0,0,1.519h8.589a.759.759,0,1,0,0-1.519ZM61.9,64.714h8.589a.759.759,0,1,0,0-1.519H61.9a.759.759,0,0,0,0,1.519Zm-4.675,0h1.994a.759.759,0,0,0,0-1.519H57.222a.759.759,0,0,0,0,1.519Zm0,11.438h1.994a.759.759,0,1,0,0-1.519H57.222a.759.759,0,1,0,0,1.519Zm4.675,0h8.589a.759.759,0,1,0,0-1.519H61.9a.759.759,0,1,0,0,1.519Zm-8.422-20.5H74.233v-6.28H53.474Zm20.758,5.16H53.474v6.28H74.233Zm0,11.438v6.28H53.474v-6.28ZM64.614,57.174h10.38a.761.761,0,0,0,.761-.759v-7.8a.761.761,0,0,0-.761-.759H52.715a.758.758,0,0,0-.759.759v7.8a.759.759,0,0,0,.759.759h10.38V59.3H52.715a.759.759,0,0,0-.759.759v7.8a.759.759,0,0,0,.759.759h10.38v2.121H52.715a.759.759,0,0,0-.759.759v7.8a.759.759,0,0,0,.759.759h22.28a.761.761,0,0,0,.761-.759v-7.8a.761.761,0,0,0-.761-.759H64.615V68.612h10.38a.761.761,0,0,0,.761-.759v-7.8a.761.761,0,0,0-.761-.759H64.615V57.174ZM19.4,43.913H28.03a.759.759,0,1,0,0-1.519H19.4a.759.759,0,1,0,0,1.519Zm0,3.111H28.03a.759.759,0,0,0,0-1.519H19.4a.759.759,0,0,0,0,1.519Zm-.759,2.43a.758.758,0,0,0,.759.759h4.043a.759.759,0,1,0,0-1.519H19.4A.761.761,0,0,0,18.639,49.453Z" fill="#222124" fill-rule="evenodd"/>
    </g>
  </g>
</svg>
